<?xml version="1.0" encoding="UTF-8" standalone="no"?>
<!-- Created with Inkscape (http://www.inkscape.org/) -->

<svg
   version="1.1"
   id="svg181"
   width="519"
   height="260"
   viewBox="0 0 519 260"
   sodipodi:docname="text.svg"
   inkscape:version="1.2.1 (9c6d41e410, 2022-07-14)"
   xmlns:inkscape="http://www.inkscape.org/namespaces/inkscape"
   xmlns:sodipodi="http://sodipodi.sourceforge.net/DTD/sodipodi-0.dtd"
   xmlns="http://www.w3.org/2000/svg"
   xmlns:svg="http://www.w3.org/2000/svg">
  <defs
     id="defs185" />
  <sodipodi:namedview
     id="namedview183"
     pagecolor="#505050"
     bordercolor="#eeeeee"
     borderopacity="1"
     inkscape:showpageshadow="0"
     inkscape:pageopacity="0"
     inkscape:pagecheckerboard="0"
     inkscape:deskcolor="#505050"
     showgrid="false"
     inkscape:zoom="0.82427669"
     inkscape:cx="430.07403"
     inkscape:cy="69.151537"
     inkscape:window-width="1920"
     inkscape:window-height="1027"
     inkscape:window-x="-8"
     inkscape:window-y="-8"
     inkscape:window-maximized="1"
     inkscape:current-layer="g187" />
  <g
     inkscape:groupmode="layer"
     inkscape:label="Image"
     id="g187">
    <path
       style="fill:#000000"
       d="m 154.7885,220.05783 c -16.87781,-2.29478 -28.64946,-8.04307 -34.70881,-16.94889 -5.60777,-8.2421 -6.79119,-14.39799 -6.79119,-35.32639 v -17.90647 l -2.75,0.60085 c -1.5125,0.33048 -7.0927,0.89819 -12.400462,1.26158 -9.35967,0.6408 -9.72525,0.58592 -12.13269,-1.82153 -2.46313,-2.46312 -2.48793,-2.67178 -3.22056,-27.09478 -0.40607,-13.53689 -0.45354,-25.747144 -0.10549,-27.133889 0.34805,-1.386744 1.45622,-2.962023 2.46259,-3.50062 1.37999,-0.738547 23.949112,-4.078462 27.559772,-4.078462 0.32276,0 0.58684,-3.825 0.58684,-8.5 0,-13.140492 -1.53718,-12.5 30,-12.5 24.66667,0 26.10256,0.102564 28,2 1.51515,1.515152 2,3.333333 2,7.5 0,3.025 0.30857,5.5 0.6857,5.5 1.32709,0 37.85144,-4.045721 40.84818,-4.52466 2.89598,-0.462838 3.0945,-0.81268 4.36775,-7.697212 0.73363,-3.966785 1.63929,-10.766196 2.01256,-15.109802 0.90313,-10.50912 1.61878,-11.04797 13.68401,-10.303355 5.004,0.308827 11.079,1.026052 13.5,1.593834 2.42099,0.567781 7.95423,1.303803 12.2961,1.635604 10.93288,0.83548 12.6057,2.524679 12.6057,12.729146 0,10.038375 -2.60121,24.551531 -4.98846,27.832539 l -1.93256,2.656093 3.38465,9.843904 3.38465,9.84391 0.0759,-16.250001 c 0.0693,-14.859602 0.24695,-16.421126 2.07582,-18.25 1.96768,-1.967677 3.33333,-2 84.5,-2 81.16667,0 82.53232,0.03232 84.5,2 1.96078,1.960784 2,3.333333 2,70.000001 0,66.66667 -0.0392,68.03922 -2,70 -1.90319,1.90319 -3.33333,2 -29.54545,2 h -27.54546 l -2.45454,-2.45455 c -1.35,-1.35 -2.45455,-3.15 -2.45455,-4 0,-1.34914 -2.92157,-1.54545 -23,-1.54545 -22.33333,0 -23,0.058 -23,2 0,1.1 -0.9,2.9 -2,4 -1.90303,1.90303 -3.33333,2 -29.5,2 -26.16667,0 -27.59697,-0.097 -29.5,-2 -1.93643,-1.93643 -2.00043,-3.34283 -2.0136,-44.25 l -0.0136,-42.25 -3.62781,7.16321 c -1.9953,3.93977 -6.48504,11.02727 -9.9772,15.75 -6.00277,8.11803 -6.21342,8.58679 -3.85859,8.58679 1.36994,0 3.45051,0.95971 4.62348,2.13268 1.94668,1.94668 2.07831,2.84064 1.50928,10.25 -0.34286,4.46453 -1.05331,11.71732 -1.57876,16.11732 -0.52545,4.4 -0.97963,11.85149 -1.00928,16.55887 -0.0722,11.46749 -0.70723,12.2441 -10.72027,13.11119 -13.6335,1.1806 -86.43397,1.78463 -93.83365,0.77854 z m 87.09995,-8.58524 9.09995,-0.62366 0.63258,-14.11985 c 0.34792,-7.76592 1.14256,-16.95524 1.76586,-20.42071 0.6233,-3.46547 0.90671,-6.52743 0.62979,-6.80434 -0.27692,-0.27692 -6.68684,0.21316 -14.24426,1.08907 -7.55742,0.87591 -13.92658,1.40676 -14.15367,1.17966 -0.2271,-0.2271 2.65011,-2.68361 6.39379,-5.45892 12.97353,-9.61767 23.37845,-22.23935 31.25741,-37.91675 l 3.7876,-7.53649 -6.35713,-19.01498 c -3.49642,-10.458244 -6.52284,-19.18069 -6.72536,-19.383217 -0.20253,-0.202528 -19.42939,1.660156 -42.72637,4.139297 -23.29697,2.479141 -43.16858,4.507529 -44.15913,4.507529 -1.58459,0 -1.80101,-0.961308 -1.80101,-8 v -8 h -21.96502 -21.96501 l -0.28498,10.25 -0.28499,10.25 -15,1.836059 c -8.250002,1.009832 -15.188112,2.022946 -15.418032,2.251363 -0.63997,0.635799 1.48445,43.312329 2.19126,44.019139 0.34101,0.34102 6.15654,-0.14126 12.923402,-1.07172 6.76685,-0.93046 12.97837,-1.76894 13.80337,-1.86329 1.28084,-0.14649 1.58046,3.18898 2.05069,22.82845 0.49164,20.5339 0.77592,23.49353 2.65142,27.60293 5.62342,12.32151 16.82458,18.54548 38.29789,21.28041 4.62452,0.589 67.96595,-0.22265 79.59995,-1.01998 z m -66.30341,-37.41284 c -5.7335,-1.13258 -8.21874,-2.61569 -9.34441,-5.57642 -0.52367,-1.37737 -0.95213,-9.66643 -0.95213,-18.42015 0,-15.69298 0.0315,-15.92273 2.25,-16.4075 5.7167,-1.24916 46.99016,-6.63963 47.43465,-6.19513 1.76776,1.76775 -19.46012,13.15652 -29.18465,15.65758 -2.75,0.70727 -5.39997,1.64208 -5.88883,2.07736 -0.4899,0.4362 1.01593,2.95078 3.35503,5.60257 2.33412,2.64614 6.8991,8.86117 10.14439,13.81117 5.70062,8.69508 5.82412,9.02203 3.64497,9.65032 -3.17375,0.91505 -16.44062,0.79153 -21.45902,-0.1998 z m 5.77754,-9.70052 c -0.54796,-0.9625 -2.57189,-3.55 -4.49764,-5.75 l -3.50135,-4 -0.0375,3.55887 c -0.0532,5.04246 2.3463,7.64543 7.24763,7.86218 1.41892,0.0627 1.58078,-0.2801 0.7889,-1.67105 z m 146.92592,41.75 v -4 h 30.93963 30.93964 l 0.31036,3.75 0.31037,3.75 23.75741,0.26812 23.75741,0.26811 -0.25741,-63.76811 -0.25741,-63.768121 -78.25,-0.256095 -78.25,-0.256094 v 64.0061 64.00609 h 23.5 23.5 z m 0,-64 v -23 h 31 31 v 23 23 h -31 -31 z m 54,0 v -15 h -23 -23 v 15 15 h 23 23 z M 262.9484,76.898599 c 0.63795,-2.578046 1.47213,-8.019252 1.85373,-12.091569 0.80249,-8.563773 1.08392,-8.273522 -9.0262,-9.309334 l -6.48743,-0.664657 -0.0368,5.388095 c -0.0202,2.963452 -0.64984,8.538095 -1.39922,12.388095 -0.74938,3.85 -1.25005,7.120287 -1.1126,7.267305 0.41185,0.440535 11.92952,2.021154 13.54862,1.859336 0.90666,-0.09061 1.95881,-2.004035 2.6599,-4.837271 z m -19.76385,-3.666521 c 0.63594,-3.232433 1.42998,-8.808392 1.76453,-12.391019 l 0.60828,-6.513869 -2.88443,-0.556059 C 241.08649,53.465298 237.426,52.92403 234.5385,52.568312 l -5.25,-0.646759 -0.0208,5.843838 c -0.0115,3.214111 -0.63876,8.768838 -1.39395,12.343838 -0.7552,3.575 -1.25796,6.625357 -1.11726,6.778571 0.47591,0.518237 9.01115,2.001565 12.1519,2.111863 3.02838,0.106352 3.15382,-0.06283 4.27616,-5.767585 z"
       id="path191" />
  </g>
</svg>
