<?xml version="1.0" encoding="UTF-8" standalone="no"?>
<!-- Created with Inkscape (http://www.inkscape.org/) -->

<svg
   version="1.1"
   id="svg210"
   width="519"
   height="260"
   viewBox="0 0 519 260"
   sodipodi:docname="text2.svg"
   inkscape:version="1.2.1 (9c6d41e410, 2022-07-14)"
   xmlns:inkscape="http://www.inkscape.org/namespaces/inkscape"
   xmlns:sodipodi="http://sodipodi.sourceforge.net/DTD/sodipodi-0.dtd"
   xmlns="http://www.w3.org/2000/svg"
   xmlns:svg="http://www.w3.org/2000/svg">
  <defs
     id="defs214" />
  <sodipodi:namedview
     id="namedview212"
     pagecolor="#505050"
     bordercolor="#eeeeee"
     borderopacity="1"
     inkscape:showpageshadow="0"
     inkscape:pageopacity="0"
     inkscape:pagecheckerboard="0"
     inkscape:deskcolor="#505050"
     showgrid="false"
     inkscape:zoom="2.3314066"
     inkscape:cx="259.71446"
     inkscape:cy="129.96446"
     inkscape:window-width="1920"
     inkscape:window-height="1027"
     inkscape:window-x="-8"
     inkscape:window-y="-8"
     inkscape:window-maximized="1"
     inkscape:current-layer="g216" />
  <g
     inkscape:groupmode="layer"
     inkscape:label="Image"
     id="g216">
    <path
       style="fill:#000000"
       d="m 164.38512,212.01904 c -14.82567,-1.85338 -26.47769,-7.04292 -31.96421,-14.23613 -5.38164,-7.05569 -6.53579,-13.55491 -6.53579,-36.80435 V 139.9882 l -2.75,0.57631 c -6.09646,1.27762 -25.507141,3.65879 -25.979011,3.18692 -0.57409,-0.5741 -2.6307,-43.57794 -2.10901,-44.099632 0.29842,-0.29842 27.713661,-3.50469 29.966841,-3.50469 0.47915,0 0.87118,-4.725001 0.87118,-10.500001 v -10.5 h 22 22 v 8 c 0,7.719099 0.0821,8 2.33826,8 2.10813,0 72.23676,-7.175221 82.32694,-8.423293 l 4.16521,-0.515201 6.08479,18.343457 c 3.34664,10.0889 6.0848,19.08629 6.0848,19.99421 0,2.29554 -6.45668,14.89504 -11.32568,22.10083 -5.70057,8.43644 -13.86364,16.82714 -23.01091,23.65257 -4.31013,3.21608 -7.23513,5.8431 -6.5,5.8378 0.73512,-0.005 7.37068,-0.6837 14.74568,-1.50757 7.375,-0.82387 13.59078,-1.31626 13.81284,-1.09421 0.22205,0.22206 -0.13335,3.26297 -0.78979,6.75758 -0.65645,3.4946 -1.47222,12.65383 -1.81284,20.35383 l -0.6193,14 -19.5,1.16538 c -22.70472,1.3569 -61.40371,1.4687 -71.5,0.20655 z m 37.74289,-37.70281 c 1.5224,-0.60297 1.09862,-1.70102 -3.34987,-8.67971 -2.80102,-4.39418 -7.29782,-10.54138 -9.99289,-13.66045 -2.69507,-3.11908 -4.90013,-5.91252 -4.90013,-6.20766 0,-0.29514 3.2625,-1.50047 7.25,-2.67852 8.49759,-2.51048 20.87758,-8.70496 25.79102,-12.90485 3.38415,-2.89269 3.4049,-2.95613 0.95898,-2.93285 -1.375,0.0131 -12.625,1.48115 -25,3.26235 l -22.5,3.23854 -0.28587,15.94702 c -0.15723,8.77085 -0.0376,16.95382 0.26587,18.18436 0.71915,2.91614 4.74474,5.4932 9.89972,6.33749 5.4902,0.89919 19.67647,0.96037 21.86317,0.0943 z m 83.75711,-28.15678 V 82.134918 l 78.25,0.256094 78.25,0.256095 v 63.500003 63.5 l -23.25,0.26843 -23.25,0.26843 v -4.01843 -4.01843 h -31.43963 -31.43964 l -0.31036,3.75 -0.31037,3.75 -23.25,0.26843 -23.25,0.26843 z m 109.5,-4.01234 v -22.5 l -31.25,-0.26425 -31.25,-0.26424 v 23.02849 23.02849 l 31.25,-0.26424 31.25,-0.26425 z M 259.14366,81.126002 c -8.03928,-1.163164 -8.30101,-1.351652 -7.188,-5.176491 0.52855,-1.816322 1.24984,-7.290003 1.60287,-12.163735 l 0.64188,-8.861331 6.04338,0.683731 c 9.36927,1.060012 9.67412,1.37737 8.93681,9.303262 -0.82448,8.862939 -2.56029,16.52306 -3.80075,16.772721 -0.5471,0.110111 -3.35339,-0.14106 -6.23619,-0.558157 z M 237.15369,78.20718 c -2.32728,-0.379277 -4.53201,-0.990183 -4.8994,-1.357569 -0.36739,-0.367386 -0.15074,-3.799927 0.48143,-7.627868 0.63217,-3.827941 1.1494,-9.263283 1.1494,-12.078537 v -5.118645 l 4.75,0.625609 c 7.70193,1.014398 10.19461,1.598296 10.76532,2.521719 0.67804,1.097095 -1.40788,18.562431 -2.58751,21.66508 -0.93371,2.455857 -2.03713,2.612383 -9.65924,1.370211 z"
       id="path220" />
  </g>
</svg>
