<?xml version="1.0" encoding="UTF-8" standalone="no"?>
<!-- Created with Inkscape (http://www.inkscape.org/) -->

<svg
   version="1.1"
   id="svg59"
   width="1344"
   height="548"
   viewBox="0 0 1344 548"
   sodipodi:docname="Gt.svg"
   inkscape:version="1.2.1 (9c6d41e410, 2022-07-14)"
   xmlns:inkscape="http://www.inkscape.org/namespaces/inkscape"
   xmlns:sodipodi="http://sodipodi.sourceforge.net/DTD/sodipodi-0.dtd"
   xmlns="http://www.w3.org/2000/svg"
   xmlns:svg="http://www.w3.org/2000/svg">
  <defs
     id="defs63" />
  <sodipodi:namedview
     id="namedview61"
     pagecolor="#505050"
     bordercolor="#eeeeee"
     borderopacity="1"
     inkscape:showpageshadow="0"
     inkscape:pageopacity="0"
     inkscape:pagecheckerboard="0"
     inkscape:deskcolor="#505050"
     showgrid="false"
     inkscape:zoom="1.1049107"
     inkscape:cx="672"
     inkscape:cy="274.2303"
     inkscape:window-width="1920"
     inkscape:window-height="1027"
     inkscape:window-x="-8"
     inkscape:window-y="-8"
     inkscape:window-maximized="1"
     inkscape:current-layer="g65" />
  <g
     inkscape:groupmode="layer"
     inkscape:label="Image"
     id="g65">
    <path
       style="fill:#000000"
       d="m 238.66464,387.299 c -4.47728,-0.77852 -14.37635,-4.02891 -20,-6.56708 -7.48308,-3.3774 -20.67651,-14.62438 -25.27362,-21.54497 -8.84419,-13.31422 -8.22638,-8.64124 -8.22638,-62.22267 V 249.4225 l 2.72207,-5.24668 c 5.2629,-10.14401 9.77103,-15.73304 18.04777,-22.37502 8.50256,-6.8232 13.14352,-9.28838 24.73016,-13.13617 l 6.5,-2.15857 h 190.67662 190.67661 l 2.75477,2.05669 c 4.27316,3.19031 6.36461,8.27624 7.04808,17.13935 1.04796,13.58966 -2.11165,21.27081 -9.97118,24.24034 -1.93888,0.73256 -46.13736,1.06979 -142,1.08343 -84.35979,0.012 -141.82188,0.40121 -145.87942,0.98807 -9.365,1.35452 -16.51377,4.81833 -22.98645,11.13769 -7.8341,7.64853 -8.81903,11.5288 -8.81903,34.74399 0,22.48406 0.75536,25.75219 7.5,32.44942 6.25266,6.20871 14.77179,10.17512 24.87138,11.57985 11.0888,1.54231 165.32693,1.30501 172.12862,-0.26483 4.48661,-1.03551 5.24854,-1.62446 7.42055,-5.73596 l 2.42055,-4.58197 -2.24725,-4.64221 c -1.8206,-3.76085 -2.94466,-4.83591 -5.92055,-5.66246 -2.06405,-0.57328 -15.28281,-1.02789 -30.1733,-1.03769 -30.61422,-0.0202 -35.70628,-0.80368 -40.30397,-6.20167 l -2.80397,-3.29204 0.62562,-13.5 c 0.717,-15.47173 1.55267,-18.43087 5.87317,-20.79716 2.84342,-1.5573 10.16009,-1.73005 85.60915,-2.02121 91.44009,-0.35287 93.80002,-0.23014 99.6942,5.18445 2.12286,1.95012 3.76027,4.64487 4.3348,7.13392 1.33777,5.79568 1.22531,85.02365 -0.12775,90 -1.37922,5.07258 -5.27915,9.23252 -9.8444,10.50075 -3.47515,0.9654 -373.54461,1.25065 -379.05685,0.29219 z m 592.5,-0.20233 c -1.65,-0.40882 -3.93701,-1.24689 -5.08224,-1.86237 -5.06105,-2.71993 -4.88411,-0.7234 -5.41776,-61.13059 l -0.5,-56.59765 -2.4723,-4.8402 c -2.6199,-5.12916 -5.96941,-8.0793 -11.28172,-9.93656 -2.23698,-0.78209 -24.59425,-1.30401 -71.92392,-1.67904 -67.37215,-0.53385 -68.73042,-0.5834 -71.43821,-2.60599 -5.96909,-4.45862 -6.85707,-6.71479 -7.21784,-18.33906 -0.39376,-12.68689 0.7575,-16.41356 6.40006,-20.71733 l 3.77829,-2.88182 h 210.57782 210.57788 l 4.1124,2.20012 c 6.0882,3.25721 7.3876,6.82045 7.3876,20.25922 v 11.15708 l -4.25,4.49318 c -2.9089,3.07537 -5.5122,4.78499 -8.25,5.41794 -2.2185,0.51288 -32.1096,0.93537 -67.1135,0.9486 -38.43342,0.0145 -65.20772,0.42101 -68.46884,1.03946 -6.12011,1.16066 -12.59101,5.21524 -14.27153,8.94234 -0.79783,1.76946 -1.29815,19.71393 -1.64619,59.04206 -0.4798,54.2176 -0.58079,56.63717 -2.5,59.89547 -1.1,1.86751 -3.26994,4.34251 -4.82209,5.5 -2.76307,2.06052 -3.76695,2.10802 -48,2.27149 -24.84785,0.0918 -46.52791,-0.16752 -48.17791,-0.57635 z"
       id="path177" />
  </g>
</svg>
