<?xml version="1.0" encoding="UTF-8" standalone="no"?>
<!-- Created with Inkscape (http://www.inkscape.org/) -->

<svg
   version="1.1"
   id="svg69"
   width="1920"
   height="766"
   viewBox="0 0 1920 766"
   sodipodi:docname="mustang-striped.svg"
   inkscape:version="1.2.1 (9c6d41e410, 2022-07-14)"
   xmlns:inkscape="http://www.inkscape.org/namespaces/inkscape"
   xmlns:sodipodi="http://sodipodi.sourceforge.net/DTD/sodipodi-0.dtd"
   xmlns="http://www.w3.org/2000/svg"
   xmlns:svg="http://www.w3.org/2000/svg">
  <defs
     id="defs73" />
  <sodipodi:namedview
     id="namedview71"
     pagecolor="#505050"
     bordercolor="#eeeeee"
     borderopacity="1"
     inkscape:showpageshadow="0"
     inkscape:pageopacity="0"
     inkscape:pagecheckerboard="0"
     inkscape:deskcolor="#505050"
     showgrid="false"
     inkscape:zoom="0.63020833"
     inkscape:cx="1194.843"
     inkscape:cy="382.41322"
     inkscape:window-width="1920"
     inkscape:window-height="1027"
     inkscape:window-x="-8"
     inkscape:window-y="-8"
     inkscape:window-maximized="1"
     inkscape:current-layer="g75" />
  <g
     inkscape:groupmode="layer"
     inkscape:label="Image"
     id="g75">
    <path
       style="fill:#000000"
       d="M 23.239669,388.76033 V 29.760329 H 955.73967 1888.2397 V 388.76033 747.76035 H 955.73967 23.239669 Z m 1857.000031,0 V 37.760329 H 955.73967 31.239669 v 351.000001 351 H 955.73967 1880.2397 Z M 614.544,685.80433 c -3.76172,-2.29366 -5.85017,-5.3073 -6.78486,-9.79054 -1.40984,-6.76225 0.26189,-8.88392 29.73265,-37.73524 l 28.10904,-27.51822 h 19.38687 19.38686 l 5.68256,-4.61058 c 3.1254,-2.53582 5.81169,-4.94825 5.96953,-5.36095 0.51538,-1.34754 -9.82197,-5.14473 -19.1547,-7.03604 -5.02276,-1.01788 -14.58055,-2.81468 -21.23955,-3.99289 -13.96433,-2.47079 -20.60381,-5.19804 -25.08796,-10.30521 l -3.18068,-3.62259 -50.31205,-2.57025 c -27.67162,-1.41363 -55.26204,-2.50692 -61.31204,-2.42953 -13.91505,0.17801 -31.68334,-1.49887 -37.40778,-3.53035 -5.27933,-1.87352 -11.79291,-5.78514 -22.66527,-13.61125 -10.54615,-7.5913 -14.16207,-11.31529 -17.0923,-17.60318 -5.21142,-11.18302 -4.00474,-19.95253 4.72767,-34.35806 16.77236,-27.66877 27.73951,-53.26535 33.93344,-79.19838 l 1.85496,-7.76639 -3.87701,-5.80586 c -4.66314,-6.98311 -9.31979,-18.30312 -12.28799,-29.87129 l -2.18572,-8.51857 -10.5,-7.73343 c -40.09808,-29.53293 -74.57905,-46.77307 -101.23154,-50.61475 -4.31732,-0.6223 -5.50752,-0.28122 -13.59559,3.89611 -11.97134,6.18295 -22.90897,9.69087 -46.88575,15.03721 -25.46243,5.67761 -47.84827,12.20123 -64.11936,18.68549 -26.84043,10.69629 -53.19016,26.68336 -66.68145,40.45736 -10.71059,10.93504 -18.15074,14.52121 -33.20279,16.00385 -7.81998,0.77028 -32.57952,-3.30987 -40.13272,-6.61351 -12.975171,-5.67511 -20.902101,-15.80299 -27.794241,-35.51142 -7.67065,-21.93466 -7.52871,-21.33664 -7.10038,-29.91554 0.56875,-11.39152 3.77183,-17.62801 14.68109,-28.58449 4.7095,-4.72989 15.987731,-14.12785 25.062731,-20.88437 21.59018,-16.07431 32.4333,-26.80905 46.32351,-45.86054 6.14707,-8.43116 12.24028,-16.98116 13.54047,-19 3.26926,-5.07624 11.65314,-13.60072 17.63602,-17.93178 2.75,-1.99075 9.275,-7.70436 14.5,-12.69692 11.47645,-10.96588 21.69354,-19.3473 32.80432,-26.91047 9.8434,-6.70045 14.83431,-9.31027 26.14897,-13.67366 7.82524,-3.01774 9.16896,-3.98609 18.53273,-13.35571 5.55267,-5.55613 13.55225,-12.48277 17.77683,-15.39252 10.82812,-7.45805 36.80372,-21.030471 42.64797,-22.283831 14.51774,-3.1135 26.08918,9.667191 26.08918,28.815591 v 6.11008 l 5.75,-2.28486 c 3.1625,-1.25667 11.825,-4.78243 19.25,-7.83503 27.19709,-11.18137 62.304,-22.805081 90,-29.798511 16.89445,-4.26597 26.07417,-4.98023 31.03517,-2.41479 5.23712,2.70822 5.24274,10.256911 0.0137,18.405661 -1.67688,2.61318 -3.04887,5.04935 -3.04887,5.4137 0,1.26494 3.79815,0.63554 26.2933,-4.35714 36.71029,-8.14764 49.00967,-9.4915 96.75803,-10.572051 33.13009,-0.74974 33.97379,-0.64365 35.76588,4.497131 0.88512,2.53907 0.62246,3.5865 -1.89482,7.55583 -6.24878,9.85332 -5.33431,10.15564 24.84079,8.21248 39.7951,-2.56266 45.48115,-2.70501 70.73682,-1.7709 28.03792,1.03702 53.17954,4.27059 57.08395,7.3418 2.63703,2.07428 3.12864,5.44647 1.16605,7.9984 -1.22063,1.58718 -31.5299,25.95299 -35,28.13672 -2.83897,1.78656 -2.09026,2.2997 4.33536,2.97131 8.74382,0.91391 12.91464,3.10934 12.91464,6.79799 0,4.14131 -1.84121,6.50116 -11.6263,14.90123 l -8.63214,7.41031 3.37922,0.68396 c 15.32946,3.1027 81.59354,4.16622 122.87922,1.97218 27.95119,-1.48541 58.4359,-3.82136 73.5,-5.63209 40.60653,-4.88097 93.86163,-6.83179 125.00003,-4.57897 38.1613,2.76092 82.6117,12.4349 122,26.55153 18.5974,6.66525 54.1297,24.44807 90,45.04224 37.6722,21.62871 60.4323,33.50049 64.2257,33.50049 6.7868,0 9.4687,-4.50317 12.298,-20.64918 3.3578,-19.16188 7.7351,-30.53708 16.5166,-42.92125 12.3303,-17.38886 33.5151,-28.88028 60.588,-32.86518 12.2469,-1.80263 37.4632,-2.04347 55.3717,-0.52886 21.0707,1.78206 55.2105,8.21813 100.5,18.9464 90.6724,21.47868 121.0641,20.07723 176.9635,-8.16027 9.6049,-4.85191 18.6567,-8.82166 20.1151,-8.82166 4.1498,0 7.1607,3.13555 11.6734,12.1568 5.4126,10.82021 7.248,18.20409 7.248,29.15895 0,11.22696 -1.9581,18.81198 -7.7921,30.18425 -3.8323,7.4704 -6.4093,10.79927 -15.1625,19.58675 -28.7553,28.86803 -64.7962,42.93114 -123.0454,48.01223 -36.2121,3.15879 -88.5324,-3.96954 -136.5,-18.59728 -13.7133,-4.18189 -17.6224,-4.17118 -23.1743,0.0635 -1.9798,1.51 -5.6754,5.66693 -8.2126,9.23762 -21.8438,30.74148 -36.9365,40.12578 -71.9143,44.71457 -14.553,1.90923 -34.5488,1.87708 -66.8322,-0.10746 -30.3195,-1.86382 -37.5627,-1.5272 -44.9543,2.08919 -4.9182,2.40624 -6.1022,3.78181 -16.6041,19.29062 -17.0228,25.13876 -21.341,30.53311 -35.923,44.87564 -29.9947,29.50213 -47.7863,42.30739 -82.3852,59.29585 -17.6858,8.6839 -26.1358,12.11346 -66.5,26.99009 -15.125,5.57447 -32.3462,11.98181 -38.2694,14.23854 -19.2517,7.33487 -33.6413,18.74165 -47.989,38.04129 -15.5145,20.86916 -25.5782,23.95913 -59.74163,18.34323 -16.6714,-2.7405 -41.8661,-6.06703 -54,-7.12976 -5.29838,-0.46406 -9.11452,-0.223 -13,0.82118 -6.44845,1.73295 -30.4852,11.227 -33.75,13.33059 -4.86866,3.137 -3.61289,4.70402 27.11315,33.83318 16.14974,15.31041 30.09974,29.08405 31,30.60807 2.28391,3.86635 2.10609,11.6805 -0.35775,15.72152 -1.09292,1.79253 -3.45373,4.15334 -5.24626,5.24626 -3.10516,1.89324 -5.10172,1.98704 -42.25914,1.98529 l -39,-0.002 -7,-5.59372 c -12.93771,-10.33856 -19.19941,-12.72555 -36.5,-13.91401 -12.89229,-0.88563 -19.88701,-2.95394 -27.19926,-8.0427 l -6.16032,-4.28711 -4.07021,2.78982 c -2.23861,1.5344 -6.54521,4.08786 -9.57021,5.67435 -5.03017,2.63811 -6.35424,2.87942 -15.5,2.82486 -7.84752,-0.0468 -11.18386,-0.53102 -15.5,-2.2495 -3.025,-1.20441 -6.01848,-2.19006 -6.65217,-2.19034 -1.65191,-7.2e-4 -3.1135,4.85045 -3.91644,12.999 -0.45746,4.64249 -1.36215,7.91405 -2.63649,9.53412 l -1.94006,2.46652 -57.17742,-0.004 c -54.91029,-0.004 -57.30413,-0.081 -60.37309,-1.95226 z M 721.03729,664.9613 c 1.96097,-9.49409 5.79524,-16.11197 10.59888,-18.29349 5.51074,-2.50264 7.16393,-2.40097 17.76488,1.09252 15.12416,4.98409 19.3901,4.08634 33.9271,-7.13982 4.17367,-3.2231 8.57898,-5.86018 9.78959,-5.86018 1.33468,0 4.95136,2.58303 9.18808,6.56213 3.84284,3.60917 8.43753,7.1631 10.21042,7.89763 1.77288,0.73453 7.72343,1.64811 13.22343,2.03019 19.51418,1.35563 31.18017,5.30153 42.41389,14.34607 l 6.41388,5.16398 h 26.63612 c 19.38364,0 26.96285,-0.32674 27.83611,-1.2 3.08317,-3.08317 1.31685,-5.77682 -12.55,-19.13895 -30.43439,-29.32664 -29.63845,-28.665 -34.43668,-28.62592 -2.37233,0.0193 -7.23832,0.67851 -10.81332,1.46487 -12.44741,2.73793 -14.7841,2.29067 -25.22173,-4.82767 -7.04036,-4.80143 -9.35076,-6.93257 -9.57883,-8.83559 -0.1653,-1.37936 0.2847,-2.99024 1,-3.57972 2.54295,-2.09565 82.43736,-33.50149 90.30056,-35.49641 7.45703,-1.89188 8.88233,-1.94616 21,-0.7998 7.15,0.67641 26.40678,3.14169 42.79285,5.47839 40.09948,5.71832 41.29168,5.49033 52.28228,-9.99867 6.4402,-9.07622 18.3649,-21.64097 26.4249,-27.84322 13.0067,-10.0088 18.746,-12.58624 68.0713,-30.57008 75.7757,-27.62751 101.3176,-42.21949 140.5864,-80.31632 15.09,-14.63965 19.8139,-20.49995 36.1814,-44.88501 11.8858,-17.70812 14.7185,-20.76624 22.6609,-24.46429 10.7216,-4.99208 17.9807,-5.8105 39.5,-4.45342 61.8586,3.90102 88.3591,2.19509 107.8929,-6.94541 7.7623,-3.63222 19.9484,-15.4843 28.2925,-27.517 6.4115,-9.24571 13.7741,-16.26211 20.584,-19.61594 7.4629,-3.67551 17.6322,-3.18276 32.2306,1.56172 23.5822,7.66423 49.5668,12.8629 83.5,16.70564 21.1718,2.39759 38.6575,2.22432 61.359,-0.608 44.3394,-5.53194 73.9689,-18.07485 96.6524,-40.91539 13.7621,-13.85729 19.2114,-25.98339 18.195,-40.48883 -0.6802,-9.7082 -2.2189,-14.71945 -5.0991,-16.6066 -2.1595,-1.415 -3.1927,-1.06693 -17.7003,5.96319 -32.1763,15.59199 -57.5929,21.40846 -88.407,20.23153 -26.1015,-0.99692 -49.0205,-4.77158 -94.8633,-15.62354 -52.2318,-12.3644 -76.5392,-16.60052 -104.8969,-18.28069 -31.7586,-1.88168 -51.2998,0.72853 -69.6131,9.29854 -13.78,6.44858 -25.0121,19.75251 -30.4888,36.11252 -0.8616,2.57396 -2.4969,10.13282 -3.634,16.79748 -1.1371,6.66466 -2.9728,14.5371 -4.0792,17.49432 -2.3712,6.33751 -8.4028,12.93399 -14.2566,15.59188 -5.8824,2.67082 -15.6764,2.51456 -22.1742,-0.35377 -9.4245,-4.16028 -38.8109,-19.94974 -58.9057,-31.6504 -63.7639,-37.12787 -91.9195,-49.00433 -145.5882,-61.41131 -31.4071,-7.2606 -50.1274,-9.53711 -85,-10.33655 -29.8607,-0.68455 -54.26,0.54745 -92.50003,4.67061 -60.84622,6.56064 -130.09214,9.45413 -170,7.10358 -35.87057,-2.11276 -74.78134,-7.34864 -76.66237,-10.31577 -1.02654,-1.61926 -0.60489,-2.93962 1.22189,-3.82626 0.79226,-0.38452 5.29205,-2.56729 9.99953,-4.85059 13.55566,-6.57498 18.09287,-12.09516 12.69095,-15.4404 -1.2375,-0.76635 -5.46725,-1.89851 -9.39944,-2.51592 -11.23348,-1.76382 -14.85056,-3.22335 -14.85056,-5.99239 0,-1.95552 2.96512,-4.21015 17.78295,-13.52184 25.31278,-15.90684 27.5555,-18.02186 23.06346,-21.75016 -2.82641,-2.34585 -67.93112,-1.76365 -104.67033,0.93603 -51.68127,3.79766 -53.05307,3.52719 -44.67608,-8.80847 7.53767,-11.09971 6.80252,-11.46904 -21.28743,-10.69469 -12.21691,0.33678 -27.83757,1.29596 -34.71257,2.13151 -18.0635,2.19535 -52.36351,8.82306 -75.79233,14.64517 -11.16078,2.77348 -21.51078,4.90213 -23,4.73035 -4.4141,-0.50918 -3.8885,-3.6936 2.23615,-13.54802 5.77704,-9.29513 6.36427,-11.05623 4.35618,-13.06432 -2.04871,-2.04871 -6.00826,-1.3787 -24.95636,4.22296 -22.67683,6.704 -36.47511,11.59588 -67.84364,24.05252 -35.86403,14.24183 -46.6624,17.54254 -48.33522,14.77452 -0.24929,-0.4125 0.40421,-4.11245 1.45222,-8.22211 4.11832,-16.14955 3.28631,-31.11371 -1.77002,-31.83462 -2.86074,-0.40788 -23.66037,10.09479 -34.88144,17.6132 -7.9754,5.34374 -21.59992,18.04686 -25.52721,23.80088 -1.40091,2.05252 -11.38437,6.88525 -19.43833,9.40959 -12.08953,3.7892 -32.71705,18.53559 -52.5,37.5317 -5.225,5.01718 -11.53186,10.49516 -14.01525,12.17329 -6.74292,4.55645 -13.67084,13.01332 -31.15484,38.03055 -12.05086,17.24314 -21.82648,26.66745 -47.32991,45.62899 -31.325021,23.28983 -36.540321,31.6121 -30.047441,47.94797 1.3489,3.39381 3.58807,9.77056 4.97593,14.17056 1.38786,4.4 4.10786,10.34274 6.04444,13.20608 5.107221,7.55132 9.853061,9.92832 25.703721,12.87397 11.5638,2.14898 14.22609,2.33725 20.15896,1.42561 9.86678,-1.51613 13.13756,-3.21856 19.49699,-10.14811 7.06946,-7.70322 18.15966,-16.01752 33.37527,-25.02137 30.04575,-17.77959 60.8895,-29.023 109.29213,-39.84003 25.65589,-5.73359 37.31476,-9.94483 46.37063,-16.7493 3.21038,-2.41224 3.80465,-2.50302 12.5,-1.90953 29.28947,1.99914 70.70358,21.87063 115.17906,55.26569 6.07732,4.56325 11.81115,9.13823 12.74183,10.16663 0.93069,1.02839 2.86464,6.56343 4.29769,12.30008 3.03726,12.15855 8.90805,25.3904 14.04899,31.66424 3.48274,4.25023 3.59454,4.6313 2.96068,10.09153 -1.36996,11.80102 -9.21418,38.40142 -16.12302,54.67451 -3.82805,9.01657 -14.05804,28.66241 -20.10611,38.61211 -7.60144,12.50514 -8.50733,16.09273 -5.44038,21.54558 2.11471,3.75982 18.97239,16.77653 26.97673,20.83017 4.07216,2.06226 17.76455,3.42285 35.0939,3.48723 6.875,0.0255 30.275,0.93623 52,2.02377 21.725,1.08753 46.37254,2.278 54.77232,2.64549 l 15.27232,0.66815 1.8325,4.09375 c 3.35912,7.50417 3.66553,7.62845 29.62286,12.01529 17.92332,3.02907 23.72903,4.66731 32.99834,9.31139 6.69819,3.35591 21.37459,12.47598 26.36819,16.38548 l 2.36654,1.85276 -4.86654,2.06604 c -13.8859,5.89513 -26.52827,13.93976 -32.77152,20.85328 -1.81212,2.00668 -2.8602,2.1114 -21.5,2.1482 l -19.59501,0.0387 -18.78062,18.21132 c -18.651,18.08563 -20.48449,20.5462 -17.51938,23.51131 0.8944,0.8944 11.66665,1.2 42.29992,1.2 h 41.09993 l 1.19777,-5.79903 z m -56.79762,-16.68751 c 0,-0.2676 1.6875,-2.05542 3.75,-3.97294 l 3.75,-3.4864 25.75,-0.0271 c 14.1625,-0.0149 25.75,0.33466 25.75,0.77677 0,0.44211 -1.48392,2.24211 -3.29761,4 l -3.2976,3.19617 h -26.2024 c -14.41131,4e-5 -26.20239,-0.2189 -26.20239,-0.4865 z m 183,-2.13021 c -4.67672,-1.30609 -12.99797,-2.66092 -18.5,-3.01209 -21.62084,-1.38 -11.18568,-2.31175 26.2152,-2.34075 l 39.21521,-0.0304 3.53479,3.10359 c 1.94414,1.70698 3.5348,3.50698 3.5348,4 0,0.50584 -9.91238,0.84349 -22.75,0.77494 -20.67155,-0.11037 -23.52657,-0.33834 -31.25,-2.49528 z M 739.23954,617.60365 c 7e-5,-0.36118 3.34385,-2.04868 7.43061,-3.75 l 7.43048,-3.09332 h 36.49628 36.49628 l 1.57324,3.15364 c 0.86528,1.7345 1.57317,3.422 1.57309,3.75 -8e-5,0.328 -20.47514,0.59636 -45.50013,0.59636 -25.02499,0 -45.49993,-0.29551 -45.49985,-0.65668 z m 0.0465,-33.36892 -5.45366,-3.4744 h 19.50008 19.50009 l 6.45358,3.47729 6.45357,3.47728 -20.5,-0.003 -20.5,-0.003 -5.45366,-3.47441 z m 59.45366,0.008 6,-3.45721 35.41667,-0.0125 c 19.47916,-0.007 35.22916,0.17338 35,0.40059 -0.22917,0.2272 -3.91588,1.8022 -8.1927,3.5 l -7.77603,3.0869 -33.22397,-0.0303 -33.22397,-0.0303 6,-3.45721 z m -15.5,-7.1547 c -8.06352,-4.75485 -20.43835,-14.95136 -28.3421,-23.3531 -4.25706,-4.52528 -7.60912,-8.58445 -7.44901,-9.02037 0.16011,-0.43593 4.34111,-3.44898 9.29111,-6.69567 4.95,-3.2467 11.54788,-7.98094 14.66195,-10.52053 l 5.66195,-4.61745 15.33805,-2.19885 c 12.89397,-1.84848 15.81609,-2.59066 18.33805,-4.65764 4.41746,-3.62053 32.54868,-31.54859 32.16477,-31.93249 -0.35774,-0.35774 -70.18823,5.41068 -75.30358,6.22054 -2.3057,0.36503 -3.46645,1.28792 -4.37323,3.47708 -2.78631,6.72674 -12.41893,11.90987 -26.81261,14.42735 l -7.32465,1.28109 -0.93591,-2.46162 c -2.23078,-5.8674 -4.87343,-17.901 -5.93337,-27.01819 -1.21853,-10.48147 -0.36761,-20.99403 2.32774,-28.75769 l 1.3887,-4 29.40107,-0.6334 c 33.75642,-0.72722 47.91262,-1.75998 81.40107,-5.93856 52.66522,-6.5714 67.06409,-9.7236 91.75672,-20.08735 14.80711,-6.2147 43.34164,-15.81686 47.04294,-15.83043 6.24821,-0.0231 11.70031,5.38658 11.70031,11.60906 0,1.49534 -1.33265,5.08013 -2.96145,7.9662 -1.62879,2.88607 -5.28649,10.79745 -8.12821,17.58086 -8.76315,20.91827 -14.4995,32.10391 -20.20039,39.3899 -3.01032,3.84732 -13.73906,14.65704 -23.84163,24.0216 l -18.36832,17.02647 -29,9.86103 c -31.65681,10.76444 -27.56634,8.75761 -83.44886,40.94094 -6.29687,3.62644 -11.92187,6.58926 -12.5,6.58406 -0.57813,-0.005 -3.07614,-1.20355 -5.55114,-2.663 z m 35.75498,-33.81162 28.74502,-16.48408 28.59599,-9.83096 28.59599,-9.83095 16.72879,-15.43497 c 9.20084,-8.48923 18.92713,-18.35069 21.61397,-21.91436 3.15495,-4.18454 7.77267,-12.96958 13.03785,-24.80404 4.48397,-10.07855 7.97063,-18.50668 7.74813,-18.72917 -0.2225,-0.2225 -6.23568,1.83757 -13.36263,4.57793 -51.58531,19.83488 -129.87303,32.84478 -198.09868,32.92016 l -13.1406,0.0145 -0.4091,3.50424 c -0.41648,3.56745 0.78372,18.9607 1.65757,21.25931 0.38414,1.01048 1.13653,0.99657 3.75654,-0.0695 2.83771,-1.15462 3.48771,-2.12482 4.85672,-7.24922 1.37997,-5.16541 1.95103,-6.00769 4.5,-6.63717 5.42573,-1.33993 111.16399,-10.08861 113.83388,-9.41851 3.09456,0.77668 6.57648,5.95267 6.58184,9.7841 0.005,3.66261 -1.65698,5.46868 -31.49414,34.22183 l -26.18114,25.22996 -15.86628,2.25448 c -15.59316,2.21567 -15.96547,2.32648 -21.62901,6.43747 -3.1695,2.30064 -5.6644,4.49843 -5.54421,4.88397 0.40456,1.29774 14.15246,11.7989 15.44699,11.7989 0.7048,0 14.21672,-7.41784 30.02648,-16.48408 z M 665.79641,555.2067 c -0.92032,-1.40458 -2.65957,-2.95106 -3.86501,-3.43661 -1.3242,-0.5334 13.86863,-0.90792 38.38399,-0.94621 l 40.57565,-0.0635 2.02555,2.25 c 4.46433,4.95903 6.04865,4.75 -36.00289,4.75 h -39.44401 l -1.67331,-2.55379 z m 180.44326,2.14909 c 0,-0.2225 2.46818,-1.7975 5.48485,-3.5 l 5.48485,-3.09546 h 93.56604 93.56609 l -2.6696,3.5 -2.6696,3.5 h -96.38132 c -53.00972,0 -96.38131,-0.18204 -96.38131,-0.40454 z M 481.55184,525.51033 c -2.13865,-4.76973 -2.27763,-4.75 33.45671,-4.75 32.11946,0 33.69527,0.0874 35.71108,1.98117 1.15987,1.08964 3.88887,2.63294 6.06445,3.42954 3.57527,1.30911 0.19725,1.45514 -35.13389,1.51883 l -39.08949,0.0705 z m 165.49804,-1.25 -0.40861,-3.5 59.5492,0.0376 59.5492,0.0375 -4,3.44758 -4,3.44758 -55.14059,0.0149 -55.1406,0.0149 -0.4086,-3.5 z m 277.18979,0 3.39233,-3.5 h 76.0405 76.0405 l -5.1972,3.5 -5.1972,3.5 h -74.23565 -74.23561 z m -342.39959,-1.07736 c -9.20567,-1.43123 -18.09555,-3.49933 -22.82123,-5.30902 -1.99932,-0.76563 -3.78925,-3.16694 -6.75,-9.05558 -2.21605,-4.4075 -4.02918,-8.86029 -4.02918,-9.89507 0,-4.0277 7.02096,-15.4026 18.97886,-30.74832 3.03663,-3.89695 6.42257,-8.33382 7.52432,-9.85972 l 2.00318,-2.77436 6.38307,8.23472 c 9.5031,12.25984 26.81749,31.73388 41.99645,47.23471 l 13.46447,13.75 -23.92517,-0.0969 c -14.92944,-0.0604 -27.27138,-0.61709 -32.82477,-1.4805 z m 15.39959,-15.97691 c 0,-0.63712 -19.0849,-22.82589 -19.9369,-23.17932 -0.68233,-0.28306 -7.87802,9.33485 -9.33968,12.48359 -0.72999,1.57259 -0.72261,2.95636 0.0245,4.59614 0.93637,2.05511 2.35186,2.55293 11.41052,4.01307 5.68785,0.91681 11.69154,1.81862 13.34154,2.00403 1.65,0.1854 3.3375,0.40452 3.75,0.48693 0.4125,0.0824 0.75,-0.0996 0.75,-0.40444 z M 496.27511,496.51033 c 0.0195,-0.6875 0.60511,-2.27613 1.30139,-3.53029 1.24956,-2.25075 1.54062,-2.28315 22.46503,-2.5 22.63325,-0.23457 22.33339,-0.30541 20.03762,4.73324 l -1.16051,2.54705 h -21.33949 c -16.42382,0 -21.33132,-0.28794 -21.30404,-1.25 z m 124.65165,-1.55472 c -1.4779,-1.54259 -2.68709,-3.23009 -2.6871,-3.75 0,-0.58383 18.442,-0.85712 48.2301,-0.71472 45.08186,0.2155 48.27577,0.34605 48.92972,2 0.38479,0.97319 0.73125,2.55694 0.7699,3.51944 0.066,1.64249 -2.77498,1.75 -46.24262,1.75 h -46.31291 z m 167.41298,2.37132 c 0.23837,-0.23837 6.27587,-0.92348 13.41667,-1.52247 7.14079,-0.59898 14.55199,-1.34427 16.46934,-1.6562 3.48178,-0.56643 3.48374,-0.56456 1.59501,1.52247 -1.75811,1.94269 -2.94649,2.0896 -16.90274,2.0896 -8.25643,0 -14.81665,-0.19503 -14.57828,-0.4334 z m 167.93397,-3.06731 3.5007,-3.5007 98.68279,-0.2493 c 54.2755,-0.13711 98.3677,0.015 97.9826,0.33799 -0.385,0.32301 -4.5478,2.01051 -9.2504,3.75 l -8.5504,3.16272 h -92.933 -92.933 z M 510.23967,466.30738 c 0,-0.79912 0.52223,-2.59912 1.16052,-4 l 1.16051,-2.54705 h 24.83949 c 13.66171,0 24.83948,0.25502 24.83948,0.56672 0,0.3117 -1.17841,2.1117 -2.61869,4 l -2.61869,3.43328 h -23.38131 c -19.78019,0 -23.38131,-0.22378 -23.38131,-1.45295 z m 84.19617,-1.84466 c -1.75789,-1.81368 -3.19617,-3.61368 -3.19617,-4 0,-0.38631 27.45,-0.70239 61,-0.70239 h 61 v 4 4 H 655.43584 597.632 Z m 379.80383,2.83154 c 0,-0.25634 0.75835,-2.05634 1.68521,-4 l 1.68521,-3.53393 h 122.37381 c 83.1136,0 122.1711,0.328 121.742,1.02238 -0.3476,0.56231 -3.2863,2.36231 -6.5305,4 l -5.8987,2.97762 h -117.5285 c -64.6407,0 -117.52853,-0.20973 -117.52853,-0.46607 z m -454,-31.59967 c 0,-1.13616 0.46583,-2.93616 1.03518,-4 1.017,-1.90028 3.91814,-1.93426 165.16667,-1.93426 90.27232,0 163.8771,0.25438 163.56618,0.5653 -0.8704,0.8704 -38.41754,5.17021 -55.59758,6.3669 -9.65597,0.6726 -63.22904,1.0678 -144.75,1.0678 H 520.23967 Z m 467.59798,1.22427 c -0.27188,-0.43991 0.37574,-2.23054 1.43915,-3.97918 l 1.93347,-3.17935 H 1126.725 c 74.5331,0 135.4915,0.3375 135.4631,0.75 -0.028,0.4125 -1.8765,2.21204 -4.1069,3.99897 l -4.0553,3.24896 -132.8469,-0.0198 c -73.0659,-0.0109 -133.06947,-0.37971 -133.34135,-0.81962 z m -462.59798,-30.0818 c 0,-0.50781 -1.165,-2.30781 -2.58889,-4 l -2.5889,-3.07673 h 219.75556 c 120.86556,0 219.52375,0.23181 219.24042,0.51514 -0.28332,0.28333 -5.17174,2.08333 -10.86315,4 l -10.34801,3.48486 H 731.54319 c -125.43963,0 -206.30352,-0.36189 -206.30352,-0.92327 z m 466.12024,-3.07673 -3.21449,-4 h 151.54718 c 91.9689,0 151.5471,0.36297 151.5471,0.92327 0,0.50781 -1.165,2.30781 -2.5889,4 l -2.5889,3.07673 H 1140.3182 994.5744 Z m -880.14526,-29.25 c -6.78957,-4.60027 -6.08214,-4.75 22.44169,-4.75 14.62083,0 26.56911,0.3375 26.55173,0.75 -0.0174,0.4125 -1.1208,1.9875 -2.45204,3.5 l -2.42043,2.75 h -20.40008 c -19.50504,0 -20.54578,-0.0987 -23.72087,-2.25 z m 396.63201,0.66821 c -0.33385,-0.86998 -0.60699,-2.44498 -0.60699,-3.5 0,-1.88777 6.38718,-1.91821 402.5,-1.91821 221.37503,0 402.50003,0.26803 402.50003,0.59563 0,0.3276 -0.9306,1.9026 -2.0681,3.5 l -2.0681,2.90437 H 908.27856 c -363.66554,0 -399.87981,-0.14305 -400.4319,-1.58179 z M 96.226389,343.72827 c -0.69076,-1.66764 -1.04144,-3.24655 -0.7793,-3.50869 0.26214,-0.26215 24.878701,-0.36022 54.703451,-0.21794 l 54.22683,0.25869 -5.65883,3.25 -5.65882,3.25 h -47.7887 -47.788711 z m 390.127591,-0.51938 -4.38569,-3.44856 497.88569,0.0989 c 530.44002,0.10533 506.13232,-0.11818 480.38572,4.41725 -14.0885,2.48178 -32.5021,2.80841 -61.2382,1.08628 -33.4403,-2.00405 -45.7087,-2.02771 -53.1005,-0.1024 -5.0768,1.32233 -56.062,1.49391 -430.46012,1.44856 l -424.70121,-0.0515 z m -372.61431,-29.9598 4,-3.45901 84.5,0.0619 84.5,0.0619 -10.5,3.10833 -10.5,3.10833 -78,0.28875 -78,0.28875 4,-3.459 z m 327,-0.0419 -6,-3.42297 462.79966,-0.0119 c 430.53867,-0.0111 463.02277,0.10459 466.00007,1.65946 1.7601,0.91925 5.6753,2.47005 8.7003,3.44622 5.2839,1.7051 -12.7937,1.7744 -460.00003,1.76352 l -465.5,-0.0113 -6,-3.42298 z m 951.61833,1.64838 c 3.09,-0.98849 6.6776,-2.53929 7.9725,-3.44622 2.1157,-1.48193 7.7567,-1.64898 55.6826,-1.64898 h 53.3284 l -2.6696,3.5 -2.6696,3.5 -58.6313,-0.0538 c -57.8821,-0.0531 -58.5595,-0.0767 -53.013,-1.85102 z m 278.6652,-4.8336 c 2.906,-0.20265 7.406,-0.20052 10,0.005 2.5941,0.20525 0.2165,0.37104 -5.2835,0.36844 -5.5,-0.003 -7.6224,-0.17053 -4.7165,-0.37317 z M 149.23967,285.87902 c 0,-0.48472 1.54498,-2.05972 3.43328,-3.5 l 3.43328,-2.61869 H 730.6881 1305.27 l 5.4848,3.09546 c 3.0167,1.7025 5.4849,3.2775 5.4849,3.5 0,0.2225 -262.575,0.40454 -583.50003,0.40454 -335.94551,0 -583.5,-0.3739 -583.5,-0.88131 z m 1268.36973,-1.36869 c 0.3317,-1.2375 0.6091,-2.8125 0.6166,-3.5 0.011,-0.99557 37.9238,-1.24479 186.2637,-1.2244 l 186.25,0.0256 -5.4537,3.47441 -5.4536,3.4744 h -181.413 -181.413 l 0.603,-2.25 z M 175.23967,255.98284 c 0,-1.02335 3.09414,-5.52117 4.44204,-6.4572 0.58188,-0.40408 241.25669,-0.74158 534.83292,-0.75 l 533.77497,-0.0153 6.9751,3.51257 c 3.8362,1.93192 6.975,3.73192 6.975,4 0,0.26809 -244.575,0.48743 -543.50003,0.48743 -298.925,0 -543.5,-0.34987 -543.5,-0.77749 z m 1249.00003,-0.27217 c 0,-0.57731 0.6866,-2.37731 1.5257,-4 l 1.5257,-2.95034 h 123.444 c 112.4224,0 124.4066,0.15513 134.2243,1.73743 15.3238,2.46969 57.4877,2.46015 68.2803,-0.0154 6.1096,-1.40141 12.5518,-1.72049 34.75,-1.72116 18.36,-5.5e-4 27.25,0.34162 27.25,1.04884 0,0.57731 -0.6866,2.37731 -1.5257,4 l -1.5257,2.95029 H 1618.214 c -134.7675,0 -193.9743,-0.32039 -193.9743,-1.04966 z M 198.23967,225.80837 c 0,-0.52358 2.00228,-2.32956 4.44951,-4.0133 l 4.44951,-3.06135 291.30049,0.33292 c 242.94427,0.27765 292.9605,0.56536 301.30049,1.73322 13.4457,1.88283 97.46268,1.85477 119,-0.0397 10.92352,-0.96087 45.30185,-1.42569 126.50003,-1.71037 l 111.5,-0.39091 13.5,3.15621 c 7.425,1.73591 13.9275,3.55875 14.45,4.05074 0.5587,0.52609 -202.38156,0.8945 -492.75003,0.8945 -311.85694,0 -493.7,-0.35063 -493.7,-0.95196 z m 1255.00003,0.0976 c 0,-1.01871 12.0924,-4.62815 20.4337,-6.09921 7.5484,-1.33124 45.4462,-1.36201 56.5925,-0.046 13.6443,1.611 34.3935,5.2073 35.4238,6.13973 0.5312,0.48074 -24.0458,0.85976 -55.75,0.85976 -31.185,0 -56.7,-0.38445 -56.7,-0.85433 z m -1216.89076,-33.63596 4.39073,-3.4903 253,0.0479 253,0.0479 -5.12075,2.32876 c -2.81641,1.28081 -5.43047,2.82989 -5.80902,3.44239 -0.50271,0.81344 -68.51278,1.11367 -252.26998,1.11367 H 231.95821 l 4.39073,-3.49029 z m 51.32585,-28.08769 c 0.86789,-0.86788 2.04086,-2.44288 2.60661,-3.5 0.96777,-1.80826 2.35528,-1.92199 23.448,-1.92199 h 22.41936 l 2.45933,2.45933 c 3.95,3.95 6.79844,4.09625 17.97719,0.92308 l 10.15439,-2.88241 186.82674,-0.25522 186.82674,-0.25522 -3.71662,3.50522 -3.71662,3.50522 H 509.52836 c -203.51293,0 -223.29087,-0.14067 -221.85357,-1.57798 z m 32.56488,-28.90759 c 0,-1.30142 12.38067,-6.5144 15.47148,-6.5144 3.36593,0 3.52852,0.16128 3.52852,3.5 v 3.5 h -9.5 c -5.225,0 -9.5,-0.21852 -9.5,-0.4856 z m 117.4617,-3.09026 c 8.79615,-3.02351 11.1545,-3.42414 20.1564,-3.42414 h 10.1947 l -1.07418,3.5 -1.07418,3.5 -19.08222,-0.0759 -19.08222,-0.0759 9.9617,-3.42414 z m 96.62163,3.16403 c 0.22917,-0.2265 8.06723,-1.8015 17.41791,-3.5 16.24364,-2.95056 18.19405,-3.08817 43.76905,-3.08817 h 26.76781 l -0.65731,2.75 c -0.36152,1.5125 -0.84665,3.0875 -1.07807,3.5 -0.23141,0.4125 -19.8192,0.75 -43.5284,0.75 -23.70921,0 -42.92015,-0.18532 -42.69099,-0.41183 z"
       id="path187" />
  </g>
</svg>
