<?xml version="1.0" encoding="UTF-8" standalone="no"?>
<!-- Created with Inkscape (http://www.inkscape.org/) -->

<svg
   version="1.1"
   id="svg177"
   width="750"
   height="429"
   viewBox="0 0 750 429"
   sodipodi:docname="s-l500.svg"
   inkscape:version="1.2.1 (9c6d41e410, 2022-07-14)"
   xmlns:inkscape="http://www.inkscape.org/namespaces/inkscape"
   xmlns:sodipodi="http://sodipodi.sourceforge.net/DTD/sodipodi-0.dtd"
   xmlns="http://www.w3.org/2000/svg"
   xmlns:svg="http://www.w3.org/2000/svg">
  <defs
     id="defs181" />
  <sodipodi:namedview
     id="namedview179"
     pagecolor="#505050"
     bordercolor="#eeeeee"
     borderopacity="1"
     inkscape:showpageshadow="0"
     inkscape:pageopacity="0"
     inkscape:pagecheckerboard="0"
     inkscape:deskcolor="#505050"
     showgrid="false"
     inkscape:zoom="1.6133333"
     inkscape:cx="332.54132"
     inkscape:cy="203.92562"
     inkscape:window-width="1920"
     inkscape:window-height="1027"
     inkscape:window-x="-8"
     inkscape:window-y="-8"
     inkscape:window-maximized="1"
     inkscape:current-layer="g183" />
  <g
     inkscape:groupmode="layer"
     inkscape:label="Image"
     id="g183">
    <path
       style="fill:#000000"
       d="M 47.181816,216.85951 V 44.859504 h 322.000004 322 v 172.000006 172 h -322 -322.000004 z m 642.000004,0 V 46.859504 h -320 -320.000004 v 170.000006 170 h 320.000004 320 z m -381,89.19962 c 0,-0.44021 2.28599,-3.36521 5.07999,-6.5 4.75866,-5.33911 5.3652,-5.69962 9.58919,-5.69962 4.04467,0 4.97013,-0.47425 8.98324,-4.60344 2.46072,-2.53189 4.33308,-4.71252 4.16081,-4.84584 -3.30003,-2.55379 -8.6565,-5.55072 -9.92093,-5.55072 -2.28093,0 -12.5493,-4.636 -13.43208,-6.06437 -0.50622,-0.81908 -3.01273,-0.98715 -8.34194,-0.55935 -4.19005,0.33635 -12.2043,0.69019 -17.80944,0.78631 l -10.19115,0.17477 -4.55885,-3.73563 c -4.50925,-3.69499 -5.94824,-7.61404 -3.72749,-10.15173 2.02756,-2.31694 6.18009,-14.00564 8.06285,-22.69564 2.05033,-9.46342 2.0505,-9.49316 0.0803,-13.57098 -1.08597,-2.24772 -1.9745,-4.53733 -1.9745,-5.08802 0,-4.68323 -12.73522,-16.11876 -23.75422,-21.33 -7.59397,-3.59143 -11.2953,-3.41251 -25.24578,1.22041 -16.10215,5.34749 -20.25566,7.67613 -28.86721,16.18425 -7.51324,7.42299 -8.15747,7.82998 -12.39413,7.82998 -5.34031,0 -8.90077,-2.43728 -11.76656,-8.05469 -3.47919,-6.81977 -2.80559,-9.16906 4.9907,-17.40601 3.82954,-4.04599 9.54199,-11.33501 12.69432,-16.19782 7.2604,-11.19993 17.40201,-22.59101 23.3974,-26.28001 2.55467,-1.5719 6.29689,-4.8741 8.31604,-7.33821 3.36448,-4.10591 10.25857,-9.72327 11.93319,-9.72327 0.38294,0 0.69625,2.7 0.69625,6 0,5.04645 0.27798,6.00001 1.7491,6.00001 0.962,0 7.3745,-2.68017 14.25,-5.95593 6.87549,-3.27575 13.81239,-6.2681 15.41532,-6.64967 2.58939,-0.61639 2.82599,-0.48189 2.12141,1.20591 -0.43616,1.04483 -1.02609,2.98267 -1.31095,4.30632 -0.50437,2.34369 -0.38983,2.39101 4.3786,1.80899 2.69309,-0.32871 8.94652,-1.79003 13.89652,-3.24737 5.04269,-1.48463 11.85806,-2.71975 15.5,-2.80899 6.8309,-0.16738 6.65196,-0.32161 5.27332,4.54538 -0.77825,2.74743 3.39844,3.12165 20.91402,1.87382 9.99872,-0.71231 16.4966,-0.79453 17.07508,-0.21605 0.57849,0.57849 -1.29163,2.23428 -4.91428,4.35109 -3.21648,1.87947 -5.84814,4.0342 -5.84814,4.78829 0,0.75409 1.4625,1.75005 3.25,2.21323 4.43389,1.14894 4.08072,2.52997 -1.25,4.888 -2.475,1.09482 -4.5,2.36305 -4.5,2.81831 0,1.49195 20.62148,4.07867 32.51542,4.07867 7.3439,0 18.16674,-0.96041 29.31348,-2.60127 14.55118,-2.142 19.78976,-2.49912 29.6711,-2.02271 20.76392,1.00109 30.91076,4.73655 53.59546,19.73069 22.17556,14.65759 24.1254,14.46895 26.90392,-2.60288 1.80636,-11.09874 8.18538,-16.49579 20.42377,-17.27976 5.98499,-0.38339 10.04547,0.2665 26.31779,4.21225 10.58252,2.56607 21.60752,5.04699 24.5,5.51316 7.65759,1.23413 15.14465,-0.3129 24.5952,-5.08202 9.63549,-4.86245 10.1242,-4.65966 10.14855,4.2111 0.034,12.37483 -11.82288,22.21273 -30.21797,25.07255 -9.37092,1.45687 -22.19139,0.11473 -34.71152,-3.63383 -4.64464,-1.39062 -9.14464,-2.30023 -10,-2.02134 -0.85536,0.27888 -3.53683,3.61921 -5.95882,7.42295 -6.25547,9.82424 -8.43538,10.66082 -26.85543,10.30623 -8.53697,-0.16434 -15.06176,0.1438 -16.22478,0.76623 -1.06993,0.57261 -4.09411,4.90006 -6.72041,9.61656 -9.32246,16.74199 -21.9833,27.68164 -45.99195,39.73951 -11.16857,5.60919 -14.27778,8.20193 -18.83794,15.70876 -2.16959,3.57154 -4.49957,6.16516 -5.8409,6.50181 -1.22732,0.30804 -6.88434,-0.38812 -12.57116,-1.54702 -6.19646,-1.26276 -11.58471,-1.83708 -13.44674,-1.43325 -1.70889,0.37061 -7.10813,2.67868 -11.99832,5.12903 l -8.89125,4.4552 2.00395,2.00394 c 1.70401,1.70402 2.53532,1.85722 5.55436,1.02362 3.19601,-0.88246 3.79433,-0.71624 5.9937,1.66509 4.00919,4.34088 10.73049,13.25743 10.73049,14.2352 0,0.50061 -3.16496,0.9102 -7.03324,0.9102 -5.41523,0 -8.11835,-0.54679 -11.75,-2.37679 -2.59422,-1.30723 -6.29176,-2.70578 -8.21676,-3.10787 -1.925,-0.4021 -4.89647,-1.57844 -6.60327,-2.61409 -3.05919,-1.85625 -3.12937,-1.85417 -4.94036,0.14697 -1.50243,1.66015 -2.84992,1.9773 -7.39673,1.74087 -5.49809,-0.28589 -5.57023,-0.25311 -6.51644,2.96091 l -0.95679,3.25 h -11.29321 c -6.21126,0 -11.2932,-0.36017 -11.2932,-0.80038 z m 46.58014,-34.14482 c 7.41764,-6.53525 8.23819,-6.9845 13.9014,-7.61088 l 6.01846,-0.66568 5.78723,-7.33292 c 5.49336,-6.96055 9.95244,-15.31719 12.67952,-23.76232 0.67792,-2.09935 1.00361,-4.04598 0.72375,-4.32583 -0.27986,-0.27986 -4.93721,1.15235 -10.34967,3.18269 -14.9816,5.61995 -27.19996,8.38806 -40.23389,9.11513 -6.59711,0.368 -11.92405,1.12172 -12.34163,1.74624 -0.89097,1.3325 -1.00274,9.81645 -0.15832,12.01698 0.35147,0.91593 1.77375,1.58179 3.37868,1.58179 2.19072,0 3.04723,-0.68123 4.08624,-3.25 1.56739,-3.87513 2.7294,-4.79342 5.41777,-4.28146 1.10568,0.21056 4.82282,0.41628 8.26032,0.45715 7.30372,0.0868 7.6622,0.82475 3.31559,6.82507 -1.90824,2.63425 -4.26875,4.49033 -6.75,5.30758 -4.32476,1.42443 -11.31559,6.66445 -11.31559,8.48166 0,1.03994 8.30102,9.46 9.32625,9.46 0.20402,0 3.91827,-3.12534 8.25389,-6.9452 z m -48.58014,-13.58205 c 0,-1.43079 -10.75262,-14.17232 -12.13386,-14.37825 -0.34862,-0.052 -1.64379,2.39383 -2.87817,5.43513 -2.13464,5.25944 -2.15965,5.62319 -0.51171,7.44414 1.95408,2.15923 3.94907,2.69439 10.77374,2.89005 3.65267,0.10472 4.75,-0.21664 4.75,-1.39107 z"
       id="path187" />
  </g>
</svg>
