<?xml version="1.0" standalone="no"?>
<!DOCTYPE svg PUBLIC "-//W3C//DTD SVG 20010904//EN"
 "http://www.w3.org/TR/2001/REC-SVG-20010904/DTD/svg10.dtd">
<svg version="1.0" xmlns="http://www.w3.org/2000/svg"
 width="8000.000000pt" height="6000.000000pt" viewBox="0 0 8000.000000 6000.000000"
 preserveAspectRatio="xMidYMid meet">

<g transform="translate(0.000000,6000.000000) scale(0.100000,-0.100000)"
fill="#000000" stroke="none">
<path d="M33258 39267 c-309 -39 -318 -41 -318 -62 0 -19 7 -23 52 -29 78 -11
112 -29 148 -81 68 -99 64 -27 68 -1223 3 -1180 4 -1156 -53 -1239 -41 -61
-156 -123 -227 -123 -13 0 -18 -7 -18 -25 l0 -25 525 0 525 0 0 23 c0 20 -8
25 -58 35 -126 26 -191 102 -212 247 -6 44 -10 537 -10 1308 l0 1237 -52 -1
c-29 -1 -196 -20 -370 -42z"/>
<path d="M46843 39267 c-312 -39 -323 -41 -323 -62 0 -18 9 -23 60 -33 71 -13
109 -38 149 -95 59 -87 56 -27 56 -1212 0 -1014 -1 -1094 -18 -1154 -31 -112
-83 -160 -207 -189 -62 -14 -70 -19 -70 -39 l0 -23 515 0 515 0 0 23 c0 21 -8
25 -55 36 -83 19 -144 64 -180 135 l-30 60 0 495 c0 484 1 498 23 576 70 248
200 376 384 376 153 1 240 -65 286 -216 13 -41 16 -140 19 -574 4 -564 0 -629
-44 -719 -29 -62 -85 -103 -170 -128 -45 -13 -53 -19 -53 -40 l0 -24 495 0
495 0 0 25 c0 19 -7 26 -27 31 -112 25 -181 80 -209 166 -16 47 -18 120 -24
613 -7 580 -9 608 -52 705 -46 104 -152 194 -281 237 -77 25 -94 27 -257 28
-152 0 -185 -3 -253 -23 -114 -33 -188 -74 -267 -148 l-70 -66 0 641 0 641
-42 -1 c-24 0 -188 -19 -365 -42z"/>
<path d="M61078 39267 c-324 -40 -328 -41 -328 -64 0 -17 6 -23 23 -23 44 0
127 -31 160 -60 48 -42 76 -106 88 -203 11 -87 9 -760 -2 -771 -3 -4 -41 14
-85 38 -146 82 -183 91 -389 90 -166 0 -187 -2 -268 -27 -224 -69 -391 -203
-510 -410 -145 -250 -162 -688 -38 -962 71 -156 199 -292 341 -364 128 -65
261 -93 435 -93 207 0 326 38 462 147 l78 63 3 -99 c2 -70 6 -99 15 -99 7 0
172 20 367 45 195 25 359 45 363 45 5 0 7 10 5 21 -2 17 -16 25 -75 39 -97 25
-148 53 -177 98 -52 81 -51 52 -49 1390 l3 1242 -48 -1 c-26 -1 -194 -20 -374
-42z m-285 -1095 c36 -18 80 -49 98 -70 44 -50 94 -161 113 -252 38 -179 45
-745 12 -932 -55 -304 -184 -430 -424 -415 -226 14 -369 185 -428 512 -21 120
-30 439 -15 586 21 218 77 378 167 478 86 96 179 132 325 128 74 -3 96 -8 152
-35z"/>
<path d="M68683 39267 c-319 -40 -323 -41 -323 -64 0 -17 6 -23 23 -23 47 0
127 -31 157 -61 17 -17 43 -55 58 -83 l27 -51 0 -1120 c0 -1068 -1 -1123 -19
-1177 -30 -93 -106 -150 -229 -173 -30 -6 -37 -12 -37 -31 l0 -24 515 0 515 0
0 25 c0 18 -5 25 -20 25 -36 0 -131 42 -166 73 -46 40 -71 90 -84 168 -13 83
-13 789 0 899 41 330 189 511 418 511 133 0 227 -68 269 -194 16 -47 18 -110
21 -615 3 -599 1 -636 -46 -717 -27 -45 -92 -90 -161 -110 -52 -16 -61 -22
-61 -42 l0 -23 495 0 495 0 0 25 c0 20 -7 26 -42 36 -92 24 -154 72 -182 141
-28 67 -36 209 -36 678 0 478 -5 548 -41 646 -30 80 -121 174 -213 219 -108
53 -194 68 -366 62 -236 -8 -368 -56 -490 -178 l-70 -70 0 646 0 645 -42 -1
c-24 -1 -188 -20 -365 -42z"/>
<path d="M6820 39202 c0 -27 4 -29 73 -45 144 -34 220 -87 265 -185 52 -114
53 -141 49 -1168 -3 -876 -4 -954 -21 -1009 -45 -151 -126 -223 -298 -262 -74
-17 -78 -19 -78 -45 l0 -28 763 0 c781 0 928 6 1094 40 425 88 776 370 942
756 135 313 147 737 30 1071 -92 264 -244 476 -458 636 -212 160 -421 231
-755 257 -71 5 -461 10 -867 10 l-739 0 0 -28z m1390 -73 c105 -13 222 -41
301 -73 290 -117 506 -427 601 -866 20 -94 22 -132 22 -370 0 -237 -2 -276
-22 -368 -64 -292 -168 -501 -331 -663 -174 -173 -357 -250 -601 -252 -247 -2
-361 72 -416 271 -18 63 -19 129 -22 1200 l-2 1132 193 0 c106 0 231 -5 277
-11z"/>
<path d="M37547 39206 c-75 -27 -148 -104 -175 -185 -20 -58 -15 -150 12 -206
99 -213 398 -220 509 -11 17 33 22 58 22 126 0 76 -3 91 -30 139 -69 124 -211
182 -338 137z"/>
<path d="M65725 39207 c-88 -35 -155 -107 -181 -194 -53 -176 66 -346 251
-360 167 -14 297 107 297 275 0 112 -61 216 -156 264 -49 25 -166 34 -211 15z"/>
<path d="M18549 38698 c-31 -61 -104 -173 -147 -226 -97 -117 -269 -229 -425
-278 -48 -15 -57 -21 -55 -38 3 -20 11 -21 121 -24 l117 -3 0 -647 c0 -356 4
-686 9 -733 19 -175 104 -266 294 -316 72 -19 276 -21 349 -4 181 42 281 133
334 304 16 51 16 60 4 68 -28 17 -38 9 -55 -40 -38 -115 -116 -188 -209 -198
-69 -7 -129 11 -175 53 -79 71 -81 91 -81 861 l0 653 228 2 227 3 3 48 3 47
-237 0 -237 0 7 255 8 255 -31 0 c-26 0 -34 -6 -52 -42z"/>
<path d="M32335 38689 c-72 -142 -155 -245 -271 -339 -88 -71 -125 -91 -254
-140 -75 -29 -95 -40 -95 -56 0 -18 9 -19 117 -22 l116 -3 4 -712 c4 -705 4
-713 26 -768 43 -108 133 -179 273 -215 77 -20 267 -23 354 -4 172 35 286 142
338 317 15 50 15 51 -6 57 -34 9 -34 9 -52 -43 -51 -156 -167 -228 -302 -190
-61 17 -125 79 -143 140 -11 35 -15 188 -17 731 l-4 688 228 2 228 3 3 48 3
47 -237 0 -236 0 7 255 7 255 -31 0 c-27 0 -34 -6 -56 -51z"/>
<path d="M41250 38645 c-125 -222 -287 -361 -512 -440 -68 -24 -78 -31 -78
-51 0 -24 1 -24 115 -24 l115 0 1 -592 c0 -737 5 -845 43 -922 43 -87 132
-150 259 -183 83 -21 278 -21 371 1 162 38 269 143 319 313 l15 51 -25 7 c-27
6 -43 -6 -43 -34 0 -26 -64 -132 -96 -161 -83 -72 -219 -65 -300 15 -69 69
-67 51 -71 818 l-4 687 230 0 231 0 0 50 0 50 -236 0 -236 0 7 255 8 255 -29
0 c-27 0 -35 -9 -84 -95z"/>
<path d="M45914 38693 c-74 -131 -133 -210 -219 -291 -108 -102 -176 -144
-308 -192 -83 -30 -97 -38 -97 -57 0 -23 2 -23 120 -23 l119 0 3 -717 c4 -812
0 -768 85 -863 83 -92 208 -134 403 -133 235 1 373 68 453 220 32 61 63 151
55 158 -2 1 -13 6 -26 9 -16 6 -24 3 -28 -11 -21 -61 -59 -133 -87 -162 -105
-111 -287 -88 -352 44 -37 75 -45 216 -45 878 l0 577 230 0 230 0 0 50 0 50
-232 2 -233 3 3 135 c1 74 5 188 8 253 l7 117 -31 0 c-27 0 -35 -7 -58 -47z"/>
<path d="M51445 38683 c-128 -245 -308 -404 -547 -483 -58 -20 -68 -26 -68
-46 0 -24 1 -24 120 -24 l119 0 3 -722 3 -723 24 -52 c26 -58 97 -130 159
-162 70 -36 168 -53 292 -53 225 0 357 55 441 185 33 51 86 184 77 193 -2 1
-15 5 -30 9 -23 6 -27 3 -33 -27 -19 -85 -91 -177 -161 -204 -88 -34 -211 1
-258 74 -48 72 -49 87 -53 805 l-4 677 230 0 231 0 0 50 0 50 -232 2 -233 3 3
195 c1 107 5 221 8 253 l6 57 -34 0 c-30 0 -36 -5 -63 -57z"/>
<path d="M71289 38649 c-66 -117 -132 -198 -221 -276 -93 -80 -169 -124 -284
-165 -81 -28 -94 -36 -94 -55 0 -23 2 -23 120 -23 l119 0 3 -717 c4 -810 0
-769 83 -861 83 -92 210 -135 400 -135 227 0 356 56 442 190 32 50 81 179 71
188 -2 3 -14 6 -27 7 -19 3 -26 -5 -43 -52 -20 -54 -57 -112 -88 -138 -55 -47
-137 -62 -215 -41 -52 15 -119 82 -134 134 -24 83 -32 360 -25 893 l6 532 224
0 224 0 0 50 0 50 -231 2 -232 3 2 115 c0 63 4 177 7 253 l7 137 -31 0 c-28 0
-35 -7 -83 -91z"/>
<path d="M21830 38647 c-129 -36 -221 -151 -290 -360 -19 -59 -24 -67 -42 -61
-131 41 -161 46 -298 51 -232 8 -384 -30 -546 -139 -175 -117 -264 -278 -264
-478 0 -221 96 -372 312 -496 l67 -38 -98 -51 c-133 -70 -175 -106 -212 -181
-26 -53 -31 -74 -31 -137 1 -98 28 -162 94 -222 88 -79 163 -98 573 -145 281
-32 347 -45 430 -87 110 -54 140 -112 133 -255 -5 -114 -27 -169 -94 -233 -97
-95 -228 -138 -414 -138 -129 0 -220 18 -302 59 -188 95 -270 240 -227 399 17
62 55 104 123 136 33 16 67 29 74 29 21 0 13 19 -15 37 -40 26 -190 23 -281
-6 -76 -25 -155 -79 -189 -130 -77 -114 -46 -282 71 -389 135 -123 358 -196
641 -209 508 -23 895 170 986 492 22 79 18 245 -9 331 -38 124 -136 228 -260
274 -135 51 -349 89 -617 110 -213 16 -282 28 -347 61 -43 22 -58 45 -58 89 0
45 25 75 83 100 50 22 60 23 229 16 108 -3 208 -2 255 5 173 24 321 96 439
213 120 121 164 225 164 391 0 202 -78 341 -259 465 -59 40 -62 43 -55 73 32
150 109 190 242 127 77 -36 127 -38 172 -7 59 40 75 71 75 147 0 76 -17 110
-71 142 -40 24 -129 31 -184 15z m-585 -448 c56 -15 124 -89 153 -163 41 -106
55 -223 49 -411 -6 -233 -34 -330 -120 -414 -52 -52 -125 -76 -207 -68 -131
11 -209 100 -246 279 -21 99 -21 367 0 467 19 91 66 195 109 240 66 69 166 96
262 70z"/>
<path d="M27097 38650 c-131 -33 -221 -139 -293 -345 -15 -44 -28 -81 -29 -82
-1 -2 -40 9 -86 23 -70 22 -109 27 -234 31 -230 7 -375 -29 -537 -134 -73 -48
-161 -137 -201 -205 -102 -175 -92 -422 23 -587 48 -68 108 -120 211 -181 l77
-46 -104 -52 c-179 -91 -238 -171 -238 -317 0 -93 24 -155 83 -212 84 -82 173
-106 582 -153 296 -34 355 -46 441 -92 106 -56 133 -113 126 -258 -5 -104 -33
-163 -106 -232 -100 -94 -217 -132 -407 -131 -140 0 -216 17 -318 70 -144 76
-217 179 -217 308 1 118 53 194 159 230 119 39 3 88 -156 66 -115 -17 -180
-46 -244 -110 -66 -66 -84 -118 -77 -214 21 -252 361 -427 832 -427 378 0 686
126 834 341 109 160 117 414 17 585 -33 56 -114 127 -182 160 -123 58 -349
100 -698 129 -244 20 -322 44 -353 109 -18 35 -1 89 36 114 53 38 91 42 318
40 245 -3 294 5 432 68 287 131 425 375 372 655 -24 127 -111 249 -247 346
-36 25 -63 52 -63 62 0 41 34 112 66 141 46 40 91 40 181 -1 110 -50 183 -31
231 62 42 80 18 179 -54 221 -37 21 -126 30 -177 18z m-596 -451 c130 -39 196
-195 206 -484 10 -305 -47 -477 -181 -548 -32 -17 -58 -22 -121 -22 -70 0 -86
4 -127 28 -88 51 -139 158 -159 334 -13 112 -6 295 16 395 47 226 197 347 366
297z"/>
<path d="M54760 38654 c-81 -15 -150 -62 -205 -138 -43 -60 -106 -200 -120
-264 -5 -24 -11 -32 -23 -28 -10 3 -51 15 -92 28 -67 21 -94 23 -260 22 -172
0 -191 -2 -275 -28 -137 -42 -217 -89 -317 -186 -69 -68 -94 -101 -123 -161
-65 -137 -70 -295 -15 -442 43 -114 139 -215 283 -296 31 -18 57 -34 57 -36 0
-2 -43 -25 -95 -50 -157 -77 -233 -167 -243 -290 -10 -126 46 -232 153 -291
90 -50 192 -70 565 -109 191 -20 286 -39 357 -70 129 -58 157 -102 158 -250 0
-89 -3 -106 -28 -156 -74 -152 -242 -233 -482 -233 -185 0 -315 44 -428 145
-78 69 -110 138 -110 233 1 117 56 195 162 231 29 9 51 23 51 30 0 28 -43 39
-140 38 -189 -2 -332 -80 -379 -206 -16 -41 -13 -148 4 -197 52 -148 233 -265
496 -321 87 -19 137 -23 304 -23 128 -1 227 4 275 13 335 61 584 244 644 476
19 69 21 211 5 287 -27 128 -104 232 -217 291 -128 67 -343 110 -717 142 -171
14 -271 34 -312 61 -87 56 -55 164 57 194 24 6 125 10 252 8 248 -3 305 6 453
77 161 78 286 208 336 350 44 125 34 295 -26 424 -29 61 -142 179 -221 230
l-51 33 9 40 c32 144 111 180 251 113 129 -62 240 6 240 145 0 67 -23 115 -68
141 -31 18 -122 30 -165 23z m-582 -470 c35 -17 63 -41 84 -72 68 -99 106
-304 94 -517 -12 -237 -67 -368 -180 -428 -58 -31 -184 -31 -242 0 -75 40
-127 123 -155 248 -21 93 -19 411 4 495 22 80 57 159 92 205 71 92 199 121
303 69z"/>
<path d="M68040 38647 c-125 -35 -218 -149 -280 -342 -12 -38 -25 -73 -29 -77
-3 -4 -44 5 -91 20 -78 24 -100 26 -265 26 -206 1 -266 -10 -400 -74 -254
-121 -386 -323 -372 -571 11 -202 103 -342 300 -457 l78 -45 -98 -51 c-173
-89 -243 -181 -243 -321 0 -113 50 -204 144 -259 84 -49 197 -71 608 -116 258
-28 361 -61 431 -139 42 -46 52 -86 51 -193 -3 -174 -118 -299 -326 -355 -86
-23 -280 -23 -368 0 -254 67 -400 253 -346 440 21 73 66 119 146 148 33 12 60
25 60 30 0 15 -44 37 -86 44 -23 3 -79 1 -125 -5 -273 -35 -399 -237 -282
-452 153 -281 852 -393 1299 -207 138 58 262 153 327 253 121 183 114 465 -15
628 -100 127 -326 196 -760 233 -362 31 -448 61 -448 155 0 42 52 94 107 109
25 7 126 10 259 9 252 -2 310 8 464 84 118 59 244 182 294 288 45 95 60 193
47 300 -23 177 -101 296 -269 408 -35 24 -51 40 -48 51 3 9 10 36 17 60 7 24
27 59 45 77 42 45 94 46 182 4 73 -35 123 -38 172 -11 103 54 109 241 9 293
-46 24 -134 31 -189 15z m-587 -448 c80 -22 149 -112 181 -236 27 -102 39
-298 26 -423 -23 -231 -88 -347 -217 -386 -121 -37 -233 3 -298 106 -50 79
-67 162 -72 345 -7 244 24 397 100 497 72 93 171 127 280 97z"/>
<path d="M10945 38293 c-279 -15 -498 -107 -670 -282 -178 -181 -257 -381
-258 -656 -1 -279 82 -486 270 -670 200 -197 500 -292 831 -264 368 32 653
220 799 527 60 125 84 240 84 407 1 284 -82 488 -274 672 -96 92 -202 159
-325 203 -125 45 -309 71 -457 63z m196 -89 c193 -56 306 -232 354 -549 18
-117 20 -438 5 -565 -49 -399 -214 -600 -489 -600 -166 0 -281 63 -368 198
-105 163 -153 459 -132 815 18 303 82 493 208 610 54 51 96 75 161 93 65 18
197 17 261 -2z"/>
<path d="M16584 38289 c-460 -36 -798 -337 -869 -774 -44 -271 18 -533 173
-735 198 -257 532 -389 909 -359 428 33 758 291 865 674 19 70 22 104 22 265
0 172 -2 191 -27 273 -50 163 -126 286 -244 398 -207 195 -495 285 -829 258z
m310 -113 c208 -102 306 -365 306 -821 0 -267 -33 -462 -104 -608 -51 -105
-111 -169 -204 -214 -75 -38 -77 -38 -196 -38 -115 0 -125 2 -187 31 -161 77
-257 250 -300 544 -7 47 -13 175 -13 285 0 110 6 238 13 285 40 274 126 443
266 526 74 43 127 54 242 51 95 -3 108 -7 177 -41z"/>
<path d="M23110 38290 c-248 -19 -467 -116 -626 -278 -118 -120 -186 -240
-230 -408 -37 -137 -39 -354 -6 -489 66 -266 244 -482 495 -600 285 -134 687
-131 960 6 236 118 400 311 473 554 22 75 27 116 31 241 6 161 -7 263 -47 372
-123 332 -434 567 -791 597 -147 12 -166 12 -259 5z m304 -114 c93 -45 153
-110 206 -220 78 -164 105 -353 97 -671 -8 -281 -39 -434 -119 -573 -92 -162
-218 -229 -410 -220 -83 4 -106 9 -161 36 -163 81 -256 253 -298 552 -16 112
-16 431 0 550 43 327 163 519 359 576 30 9 84 12 149 10 95 -2 108 -5 177 -40z"/>
<path d="M42840 38289 c-241 -19 -441 -104 -597 -253 -214 -202 -309 -467
-282 -784 20 -229 103 -405 266 -563 168 -164 356 -246 613 -268 342 -29 647
73 851 286 178 186 252 379 251 658 0 209 -43 359 -147 515 -195 293 -542 442
-955 409z m282 -98 c111 -43 208 -157 261 -308 96 -267 94 -808 -4 -1067 -54
-145 -150 -256 -257 -297 -71 -27 -203 -36 -281 -19 -207 45 -339 249 -381
590 -13 111 -13 421 1 535 25 205 88 372 176 466 55 59 96 86 171 110 80 26
234 21 314 -10z"/>
<path d="M56009 38289 c-175 -14 -334 -66 -467 -152 -161 -105 -291 -262 -351
-427 -49 -136 -56 -177 -55 -365 0 -166 2 -187 27 -268 98 -320 352 -556 681
-632 164 -38 410 -36 568 4 337 87 590 330 676 650 22 84 25 116 26 256 0 133
-4 174 -22 244 -39 149 -109 280 -208 390 -106 118 -297 229 -464 270 -76 18
-121 24 -270 35 -25 2 -88 0 -141 -5z m239 -83 c197 -53 317 -239 364 -564 16
-111 16 -461 0 -574 -41 -287 -137 -460 -299 -540 -55 -27 -78 -32 -162 -36
-82 -4 -111 -1 -167 16 -256 79 -378 391 -361 926 14 450 123 686 353 765 71
24 194 27 272 7z"/>
<path d="M58267 38289 c-414 -34 -728 -278 -844 -656 -25 -81 -27 -102 -27
-273 -1 -204 5 -243 60 -377 45 -109 91 -180 180 -273 165 -173 370 -266 634
-289 121 -10 282 0 386 24 297 69 564 296 661 562 96 266 76 576 -53 812 -117
215 -336 379 -584 440 -76 18 -121 24 -270 35 -25 2 -89 0 -143 -5z m288 -99
c85 -33 180 -129 227 -230 75 -158 101 -321 101 -615 -1 -373 -58 -586 -195
-731 -88 -93 -191 -130 -339 -122 -111 7 -184 35 -254 100 -93 85 -154 217
-191 413 -27 144 -27 556 0 700 53 282 158 438 333 496 82 27 234 22 318 -11z"/>
<path d="M28289 38280 c-334 -42 -607 -243 -729 -536 -59 -141 -74 -230 -74
-424 -1 -188 10 -255 59 -387 92 -244 289 -417 550 -483 149 -38 385 -44 523
-14 291 64 495 255 563 529 19 73 20 88 8 96 -28 17 -36 8 -59 -66 -51 -164
-153 -298 -275 -362 -126 -66 -312 -79 -456 -32 -292 95 -456 422 -432 862 l6
107 615 0 615 0 -6 93 c-9 138 -54 249 -148 362 -100 121 -224 197 -379 235
-97 23 -282 33 -381 20z m257 -96 c89 -42 161 -150 189 -279 29 -140 14 -248
-38 -260 -12 -3 -177 -4 -368 -3 l-345 3 13 90 c40 278 167 449 351 473 71 9
148 0 198 -24z"/>
<path d="M34951 38279 c-382 -47 -669 -296 -768 -666 -24 -90 -27 -115 -27
-293 -1 -211 8 -266 61 -398 77 -193 221 -344 403 -424 191 -84 493 -107 704
-52 144 37 251 99 347 201 98 103 144 186 180 326 16 65 18 82 7 88 -27 17
-37 7 -59 -58 -72 -220 -190 -351 -363 -405 -106 -34 -273 -31 -374 4 -177 63
-303 199 -373 402 -50 143 -70 339 -53 505 l7 61 615 0 615 0 -7 83 c-13 174
-67 288 -196 418 -69 70 -101 94 -170 128 -47 22 -120 50 -163 61 -93 23 -280
33 -386 19z m265 -97 c47 -24 115 -95 142 -149 67 -131 80 -352 22 -383 -12
-6 -153 -10 -375 -10 l-356 0 6 48 c47 327 166 497 365 521 72 8 147 -2 196
-27z"/>
<path d="M49520 38269 c-202 -21 -380 -90 -464 -179 -103 -110 -95 -278 17
-340 48 -28 152 -31 208 -7 75 31 112 91 134 218 16 92 41 145 89 186 48 43
98 58 187 57 124 -1 186 -42 225 -150 15 -40 18 -80 18 -219 0 -104 -5 -186
-12 -212 -20 -69 -27 -72 -513 -227 -320 -103 -455 -211 -505 -406 -22 -87
-15 -225 15 -302 31 -79 104 -156 189 -201 97 -51 183 -69 327 -69 200 1 322
43 441 154 l61 58 38 -61 c56 -91 130 -131 273 -149 185 -24 369 43 456 167
25 36 27 44 16 58 -12 14 -18 11 -60 -30 -102 -100 -230 -79 -260 43 -9 33
-14 229 -16 637 -5 676 -7 693 -77 798 -67 100 -180 154 -367 177 -98 12 -298
11 -420 -1z m420 -1051 c0 -371 -18 -478 -98 -582 -54 -72 -123 -106 -216
-106 -89 0 -138 22 -193 84 -56 64 -73 118 -73 235 0 182 51 302 179 422 61
57 98 82 224 144 83 41 157 75 164 75 10 0 13 -58 13 -272z"/>
<path d="M13680 38234 c-190 -18 -349 -33 -353 -33 -5 -1 -7 -13 -5 -28 3 -26
7 -28 63 -34 33 -3 74 -13 91 -22 43 -22 100 -89 115 -134 17 -51 25 -1066 10
-1191 -20 -164 -78 -236 -218 -270 -64 -15 -73 -20 -73 -39 l0 -23 515 0 515
0 0 25 c0 21 -5 25 -31 25 -93 0 -171 57 -204 150 -18 51 -20 89 -23 505 -3
456 2 548 35 685 22 90 45 141 84 185 66 75 143 108 252 107 60 0 81 -5 136
-34 108 -55 147 -123 173 -307 18 -127 18 -995 0 -1076 -27 -118 -82 -177
-194 -206 -40 -11 -48 -17 -48 -36 l0 -23 505 0 c516 0 522 0 497 36 -4 5 -32
16 -63 23 -120 26 -189 119 -209 281 -5 47 -10 296 -10 559 0 519 -4 572 -53
664 -55 105 -182 190 -332 222 -82 18 -284 20 -378 5 -136 -21 -271 -85 -374
-176 l-53 -47 0 122 c0 91 -3 121 -12 120 -7 -1 -168 -16 -358 -35z"/>
<path d="M29730 38234 c-190 -18 -349 -33 -353 -33 -5 -1 -7 -13 -5 -28 3 -26
7 -28 63 -34 70 -7 107 -24 152 -71 67 -69 67 -66 71 -648 4 -587 -2 -681 -46
-770 -34 -69 -84 -105 -179 -128 -64 -15 -73 -20 -73 -39 l0 -23 515 0 515 0
0 25 c0 21 -5 25 -31 25 -96 0 -173 58 -205 156 -18 55 -19 90 -19 549 0 525
4 583 56 720 68 182 287 262 460 168 66 -35 104 -82 128 -158 37 -113 41 -191
40 -698 -1 -526 -4 -564 -52 -634 -28 -41 -87 -79 -148 -94 -41 -11 -49 -17
-49 -36 l0 -23 500 0 500 0 0 23 c0 20 -8 25 -57 35 -103 21 -162 78 -199 193
-16 48 -18 118 -24 624 -7 617 -6 610 -64 709 -52 89 -185 172 -321 201 -83
18 -284 20 -379 5 -81 -13 -206 -57 -266 -95 -25 -15 -71 -50 -102 -77 l-58
-49 0 120 c0 91 -3 121 -12 120 -7 -1 -168 -16 -358 -35z"/>
<path d="M38670 38234 c-190 -18 -349 -33 -353 -33 -5 -1 -7 -13 -5 -28 3 -26
7 -28 63 -34 33 -3 74 -13 91 -22 43 -22 100 -89 115 -134 17 -51 25 -1066 10
-1191 -20 -164 -78 -236 -218 -270 -64 -15 -73 -20 -73 -39 l0 -23 515 0 515
0 0 25 c0 21 -5 25 -31 25 -93 0 -171 57 -204 150 -18 51 -20 89 -23 505 -3
456 2 548 35 685 22 90 45 141 84 185 66 75 143 108 252 107 60 0 81 -5 136
-34 108 -55 147 -123 173 -307 18 -127 18 -995 0 -1076 -27 -118 -82 -177
-194 -206 -40 -11 -48 -17 -48 -36 l0 -23 505 0 c516 0 522 0 497 36 -4 5 -32
16 -63 23 -120 26 -189 119 -209 281 -5 47 -10 296 -10 559 0 519 -4 572 -53
664 -55 105 -182 190 -332 222 -82 18 -284 20 -378 5 -136 -21 -271 -85 -374
-176 l-53 -47 0 122 c0 91 -3 121 -12 120 -7 -1 -168 -16 -358 -35z"/>
<path d="M63370 38234 c-190 -18 -349 -33 -353 -33 -5 -1 -7 -13 -5 -28 3 -26
7 -28 63 -34 74 -7 113 -27 158 -80 61 -71 62 -82 62 -709 0 -607 -2 -630 -52
-718 -32 -55 -83 -88 -171 -110 -63 -15 -72 -20 -72 -39 l0 -23 515 0 515 0 0
25 c0 21 -5 25 -31 25 -91 0 -167 52 -199 136 -30 82 -40 206 -40 524 0 548
32 753 134 867 155 172 448 128 522 -79 37 -104 44 -218 44 -706 0 -562 -3
-584 -79 -662 -36 -38 -59 -52 -108 -67 -53 -15 -63 -22 -63 -40 l0 -23 500 0
500 0 0 25 c0 18 -5 25 -18 25 -10 0 -42 7 -71 16 -76 22 -133 82 -162 171
-22 66 -23 81 -29 638 -5 483 -9 577 -22 617 -61 181 -228 289 -473 307 -280
20 -489 -42 -652 -192 l-43 -40 0 122 c0 91 -3 121 -12 120 -7 -1 -168 -16
-358 -35z"/>
<path d="M37560 38234 c-439 -36 -410 -32 -410 -58 0 -21 6 -24 61 -30 34 -3
80 -16 103 -29 52 -28 101 -101 116 -171 7 -36 10 -234 8 -622 -3 -634 -1
-616 -74 -716 -40 -54 -95 -84 -171 -94 -47 -6 -53 -9 -53 -30 l0 -24 520 0
520 0 0 24 c0 20 -7 25 -37 31 -110 20 -189 84 -220 177 -16 48 -18 118 -21
811 l-3 757 -27 -1 c-15 -1 -155 -12 -312 -25z"/>
<path d="M65695 38230 c-181 -16 -338 -29 -347 -29 -12 -1 -18 -9 -18 -26 0
-22 4 -25 33 -25 109 0 201 -69 234 -177 16 -53 18 -107 18 -613 0 -608 -2
-627 -58 -720 -48 -80 -91 -110 -176 -123 -64 -10 -71 -14 -71 -34 l0 -23 520
0 520 0 0 23 c0 21 -7 25 -54 36 -112 25 -182 96 -205 209 -7 36 -11 294 -11
792 l0 740 -27 -1 c-16 -1 -176 -14 -358 -29z"/>
<path d="M72222 37048 c-29 -4 -67 -15 -84 -24 -47 -25 -118 -100 -140 -152
-25 -56 -35 -170 -19 -229 16 -59 68 -132 122 -170 217 -155 511 17 486 284
-18 193 -177 319 -365 291z"/>
<path d="M73069 37049 c-66 -10 -117 -37 -165 -86 -58 -59 -86 -123 -92 -209
-11 -162 82 -290 239 -330 200 -51 390 111 377 321 -6 83 -31 147 -84 204 -71
80 -170 115 -275 100z"/>
<path d="M73909 37049 c-98 -15 -182 -80 -227 -177 -38 -79 -39 -203 -3 -276
94 -192 346 -241 494 -98 123 118 129 324 14 449 -77 84 -170 118 -278 102z"/>
</g>
</svg>
