<?xml version="1.0" standalone="no"?>
<!DOCTYPE svg PUBLIC "-//W3C//DTD SVG 20010904//EN"
 "http://www.w3.org/TR/2001/REC-SVG-20010904/DTD/svg10.dtd">
<svg version="1.0" xmlns="http://www.w3.org/2000/svg"
 width="8000.000000pt" height="6000.000000pt" viewBox="0 0 8000.000000 6000.000000"
 preserveAspectRatio="xMidYMid meet">

<g transform="translate(0.000000,6000.000000) scale(0.100000,-0.100000)"
fill="#000000" stroke="none">
<path d="M8474 41239 c-44 -13 -63 -38 -74 -101 -7 -36 -10 -486 -8 -1304 3
-1191 4 -1251 21 -1278 37 -55 45 -56 546 -56 524 0 564 4 696 69 94 47 175
113 244 198 60 75 96 149 122 250 18 72 19 116 19 857 0 867 0 858 -66 992
-72 146 -216 279 -360 334 -119 45 -180 49 -659 49 -247 -1 -464 -5 -481 -10z
m1058 -307 c85 -42 177 -137 210 -219 l23 -58 0 -770 c0 -631 -3 -779 -14
-818 -34 -116 -139 -226 -257 -269 -52 -19 -86 -22 -306 -26 -136 -2 -309 -1
-383 3 l-135 7 0 1094 0 1095 398 -3 397 -3 67 -33z"/>
<path d="M17650 41234 c-66 -27 -64 -20 -70 -434 l-5 -375 -100 -5 c-110 -5
-137 -17 -157 -64 -18 -45 -14 -124 9 -155 31 -41 60 -51 161 -51 l92 0 0
-775 c0 -862 -2 -833 64 -860 68 -29 161 -11 188 37 10 18 14 180 18 808 l5
785 235 5 c205 4 240 7 263 23 37 24 50 60 45 130 -4 46 -10 63 -31 85 l-27
27 -243 5 -242 5 -5 375 c-4 269 -8 381 -17 396 -14 25 -81 54 -121 53 -15 0
-43 -7 -62 -15z"/>
<path d="M30802 41239 c-20 -6 -41 -23 -52 -42 -18 -30 -20 -52 -20 -292 0
-143 -3 -311 -7 -372 l-6 -113 -91 0 c-111 0 -148 -18 -167 -79 -15 -50 -4
-121 22 -150 31 -33 61 -41 153 -41 l83 0 6 -781 c5 -600 10 -787 19 -807 26
-55 125 -79 193 -46 68 32 65 -2 65 858 l0 776 225 0 c258 0 286 6 310 64 30
72 8 167 -45 193 -18 9 -92 13 -257 13 l-233 0 0 368 c0 271 -4 373 -13 391
-28 56 -111 83 -185 60z"/>
<path d="M32175 41237 c-16 -8 -39 -24 -50 -37 -20 -22 -20 -36 -20 -1214 l0
-1191 23 -57 c49 -120 165 -210 302 -231 129 -20 201 11 215 93 15 90 -27 144
-142 178 -76 23 -108 50 -123 103 -6 21 -10 456 -10 1156 0 827 -3 1129 -12
1147 -6 14 -22 33 -35 41 -34 22 -112 28 -148 12z"/>
<path d="M36141 41237 c-64 -23 -76 -52 -76 -191 0 -170 23 -206 134 -206 109
0 134 33 139 185 4 123 -8 171 -50 199 -33 22 -106 28 -147 13z"/>
<path d="M39160 41237 c-21 -8 -42 -25 -55 -47 -19 -33 -20 -53 -23 -402 l-3
-368 -90 0 c-62 0 -99 -5 -120 -16 -81 -42 -76 -205 7 -240 20 -8 69 -14 118
-14 l85 0 3 -783 c3 -739 4 -784 21 -811 35 -52 126 -72 192 -40 68 32 65 -2
65 858 l0 776 225 0 c258 0 286 6 310 64 31 73 10 163 -44 190 -25 13 -71 16
-261 16 l-230 0 0 363 c0 325 -2 366 -18 397 -30 61 -104 84 -182 57z"/>
<path d="M43670 41234 c-66 -27 -64 -20 -70 -434 l-5 -375 -100 -5 c-110 -6
-137 -16 -157 -65 -20 -45 -15 -121 9 -153 31 -42 60 -52 161 -52 l92 0 0
-780 c0 -866 -3 -827 65 -856 72 -30 162 -9 189 45 14 26 16 122 16 811 l0
780 230 0 c256 0 276 4 306 62 25 49 15 141 -19 176 l-27 27 -243 5 -242 5 -5
375 c-4 269 -8 381 -17 396 -14 25 -81 54 -121 53 -15 0 -43 -7 -62 -15z"/>
<path d="M45051 41237 c-19 -6 -44 -25 -55 -40 l-21 -28 -3 -1282 c-2 -1205
-1 -1284 15 -1317 24 -48 74 -72 136 -67 58 5 98 32 114 78 9 25 12 234 12
802 l1 768 313 -3 c284 -3 315 -5 347 -22 64 -35 96 -65 126 -118 l29 -53 5
-685 c4 -492 8 -691 17 -705 21 -38 50 -56 99 -61 61 -8 115 13 141 52 17 27
18 67 18 719 0 765 2 737 -67 868 -38 72 -156 185 -229 220 -108 52 -147 57
-486 57 l-313 0 -1 358 c0 381 -3 410 -49 444 -32 23 -106 31 -149 15z"/>
<path d="M49171 41237 c-19 -6 -44 -25 -55 -40 -20 -27 -21 -41 -24 -403 l-3
-374 -89 0 c-49 0 -100 -4 -114 -10 -58 -22 -83 -119 -51 -196 20 -48 63 -64
170 -64 l85 0 1 -767 c0 -568 3 -777 12 -802 16 -46 56 -73 114 -78 62 -5 112
19 135 67 17 32 18 92 18 808 l0 772 226 0 c265 0 283 4 310 76 28 73 4 157
-52 182 -16 8 -102 12 -254 12 l-230 0 0 360 c0 388 -3 412 -52 444 -33 22
-106 28 -147 13z"/>
<path d="M58350 41234 c-66 -27 -64 -20 -70 -434 l-5 -375 -345 -5 c-377 -6
-380 -6 -492 -73 -94 -56 -185 -171 -229 -290 -23 -61 -24 -69 -27 -562 -2
-346 0 -519 8 -560 27 -143 134 -291 261 -363 117 -66 166 -72 606 -72 433 0
448 2 477 59 14 27 16 168 16 1311 0 1435 5 1334 -71 1364 -48 20 -83 20 -129
0z m-70 -1769 l0 -685 -197 -2 c-449 -6 -454 -5 -542 77 -88 82 -86 70 -86
615 l0 475 30 54 c16 29 47 69 69 87 68 58 97 63 429 63 l297 1 0 -685z"/>
<path d="M62060 41244 c-81 -29 -90 -51 -90 -210 l0 -126 34 -34 c30 -30 40
-34 89 -34 122 0 147 34 147 200 0 124 -8 150 -51 183 -27 19 -100 31 -129 21z"/>
<path d="M64791 41237 c-19 -6 -44 -25 -55 -40 l-21 -28 0 -1293 c0 -1234 1
-1293 18 -1320 52 -79 197 -71 239 14 17 32 18 92 18 808 l0 773 313 -3 312
-3 54 -30 c29 -16 66 -45 82 -64 60 -73 59 -62 59 -785 0 -739 -3 -712 70
-749 44 -23 121 -18 158 10 53 39 53 42 50 777 -3 673 -3 682 -25 746 -51 149
-185 285 -338 342 -57 22 -76 23 -397 26 l-338 3 0 360 c0 387 -3 411 -52 443
-33 22 -106 28 -147 13z"/>
<path d="M66991 41237 c-19 -6 -44 -25 -55 -40 -20 -28 -21 -41 -24 -402 l-3
-373 -104 -4 c-98 -3 -106 -5 -132 -30 -21 -22 -27 -39 -31 -85 -8 -118 32
-153 176 -153 l92 0 0 -770 c0 -819 0 -810 47 -853 11 -10 42 -20 69 -23 61
-8 115 13 141 52 17 27 18 72 21 811 l3 783 227 0 c243 0 259 3 295 51 23 31
27 110 8 155 -24 60 -45 64 -299 64 l-231 0 -3 373 c-3 335 -5 376 -20 400
-10 14 -27 31 -38 37 -32 17 -103 21 -139 7z"/>
<path d="M11102 40400 c-120 -32 -205 -83 -307 -185 -70 -70 -99 -107 -127
-165 -71 -146 -73 -160 -73 -585 0 -427 1 -436 70 -580 77 -162 219 -287 394
-349 80 -28 96 -30 221 -30 125 0 141 2 221 30 175 62 315 186 394 349 24 50
49 113 55 140 16 68 25 663 12 780 -20 172 -77 296 -187 409 -139 143 -291
206 -500 205 -66 0 -125 -7 -173 -19z m259 -260 c120 -23 242 -120 297 -237
l27 -58 3 -358 c3 -308 1 -366 -13 -415 -32 -111 -117 -210 -225 -261 -49 -23
-67 -26 -170 -26 -104 0 -121 3 -173 27 -70 33 -155 112 -189 175 -46 84 -50
131 -46 508 l3 350 27 58 c15 32 53 84 84 117 102 107 229 147 375 120z"/>
<path d="M13525 40411 c-11 -5 -29 -19 -40 -31 -20 -22 -20 -38 -23 -906 -2
-790 -1 -888 14 -915 40 -78 198 -78 238 0 14 26 16 122 16 811 l0 780 293 0
c335 0 366 -5 439 -70 25 -22 56 -61 69 -87 l24 -48 5 -691 c5 -759 1 -713 67
-741 73 -30 160 -6 187 52 23 49 24 1346 1 1444 -44 187 -202 347 -392 396
-46 12 -135 15 -468 14 -225 0 -419 -4 -430 -8z"/>
<path d="M15910 40406 c-254 -57 -463 -274 -515 -533 -14 -69 -16 -138 -13
-450 4 -351 5 -371 27 -438 36 -112 87 -192 175 -281 128 -128 264 -190 441
-201 278 -17 537 133 660 382 61 124 65 158 65 571 0 204 -4 395 -10 423 -5
28 -22 82 -36 119 -81 203 -269 362 -480 407 -82 17 -237 18 -314 1z m242
-267 c152 -32 283 -160 318 -311 14 -61 13 -664 -1 -730 -25 -118 -113 -229
-226 -284 -54 -27 -67 -29 -173 -29 -108 0 -119 2 -180 31 -134 64 -214 183
-232 342 -5 48 -8 215 -5 372 5 324 11 356 88 457 34 44 144 132 168 133 3 1
29 7 56 15 62 17 118 18 187 4z"/>
<path d="M20285 40401 c-175 -50 -315 -192 -372 -376 -16 -55 -18 -103 -18
-560 0 -558 -1 -548 72 -688 61 -117 159 -200 289 -249 56 -21 78 -22 397 -26
l337 -3 -1 -167 c0 -101 -5 -180 -12 -199 -22 -60 -72 -117 -128 -148 l-54
-30 -345 -5 c-378 -5 -376 -5 -405 -66 -31 -66 -8 -165 45 -191 19 -9 116 -13
376 -13 386 0 402 2 519 63 141 75 255 240 276 402 6 52 9 452 7 1135 -3 896
-5 1059 -17 1083 -29 57 -32 57 -488 56 -364 0 -426 -3 -478 -18z m705 -936
l0 -686 -318 3 -319 3 -48 30 c-57 35 -110 100 -125 153 -6 23 -10 212 -10
502 0 446 1 467 21 510 35 77 109 143 184 161 17 4 162 7 323 8 l292 1 0 -685z"/>
<path d="M22340 40404 c-235 -50 -455 -272 -505 -509 -20 -96 -21 -770 -1
-860 28 -128 85 -232 181 -329 210 -214 523 -266 795 -133 69 33 102 58 175
132 74 73 99 106 132 175 70 142 75 190 71 622 l-4 373 -27 82 c-73 218 -276
403 -492 448 -87 18 -239 18 -325 -1z m306 -282 c77 -29 141 -77 190 -144 73
-99 77 -121 81 -463 5 -329 -2 -415 -41 -500 -35 -77 -115 -158 -195 -198 -62
-30 -71 -32 -181 -32 -107 0 -119 2 -175 29 -111 55 -197 164 -224 286 -14 64
-14 653 0 721 32 153 152 277 304 316 65 16 177 10 241 -15z"/>
<path d="M25081 40404 c-189 -51 -345 -217 -386 -409 -21 -102 -21 -958 0
-1060 32 -153 143 -306 272 -373 104 -55 161 -62 506 -62 l309 0 -4 -177 c-2
-150 -6 -184 -22 -213 -26 -49 -84 -108 -131 -133 -38 -21 -55 -22 -385 -27
-254 -4 -351 -8 -367 -18 -73 -42 -69 -202 7 -242 15 -8 132 -10 393 -8 358 3
374 4 427 26 154 62 284 200 330 350 19 62 20 95 20 1179 l0 1115 -34 34 -34
34 -423 -1 c-337 0 -435 -3 -478 -15z m699 -939 l0 -685 -301 0 c-202 0 -315
4 -341 12 -55 16 -126 83 -154 143 l-24 50 0 478 c0 517 -1 510 56 584 28 37
99 82 147 93 18 5 164 8 325 9 l292 1 0 -685z"/>
<path d="M27112 40400 c-118 -31 -206 -83 -303 -180 -73 -73 -94 -101 -132
-180 -71 -148 -72 -157 -72 -655 l0 -440 27 -73 c14 -40 40 -95 58 -122 43
-67 132 -148 208 -188 106 -57 153 -62 587 -62 351 0 393 2 425 18 48 23 73
74 66 134 -6 61 -19 84 -59 105 -29 16 -75 19 -442 23 l-410 5 -47 27 c-25 16
-60 45 -77 65 -51 62 -61 108 -61 285 l0 158 551 0 551 0 -5 273 c-5 300 -9
328 -71 452 -92 184 -263 319 -454 360 -100 21 -249 19 -340 -5z m259 -260
c123 -23 233 -109 292 -229 30 -61 32 -74 36 -188 l3 -123 -412 0 -412 0 4
118 c6 158 27 213 117 303 110 109 226 146 372 119z"/>
<path d="M28595 40411 c-11 -5 -29 -19 -40 -31 -20 -22 -20 -38 -23 -906 -2
-790 -1 -888 14 -915 40 -78 198 -78 238 0 14 26 16 122 16 811 l0 780 293 0
c336 0 366 -5 440 -70 25 -22 56 -62 69 -88 l23 -47 5 -685 c4 -545 8 -690 18
-708 43 -75 205 -66 237 12 22 53 22 1351 0 1445 -44 187 -202 347 -392 396
-46 12 -135 15 -468 14 -225 0 -419 -4 -430 -8z"/>
<path d="M33722 40405 c-182 -40 -364 -187 -452 -363 -65 -131 -64 -125 -68
-615 -4 -495 -2 -511 61 -637 39 -78 130 -174 208 -218 117 -66 166 -72 606
-72 436 0 448 2 478 61 12 23 16 49 13 91 -5 72 -34 106 -99 119 -24 4 -212 8
-417 9 -417 0 -408 -1 -488 72 -77 71 -88 105 -92 301 l-4 167 551 0 551 0 0
253 c0 293 -9 350 -72 477 -84 172 -269 317 -453 355 -87 18 -239 18 -323 0z
m310 -285 c67 -25 152 -90 191 -147 50 -72 69 -138 75 -260 l5 -113 -417 0
-416 0 0 78 c1 241 109 400 313 457 68 19 175 13 249 -15z"/>
<path d="M36119 40405 c-56 -30 -54 2 -57 -926 -3 -924 -3 -913 50 -952 37
-28 114 -33 158 -10 74 38 71 -15 68 958 -3 812 -4 872 -21 896 -9 14 -29 31
-43 37 -34 16 -123 14 -155 -3z"/>
<path d="M36955 40411 c-11 -5 -29 -19 -40 -31 -20 -22 -20 -38 -23 -906 -2
-790 -1 -888 14 -915 40 -78 198 -78 238 0 14 26 16 122 16 811 l0 780 293 0
c335 0 366 -5 439 -70 25 -22 56 -61 69 -87 l24 -48 5 -685 c4 -545 8 -690 18
-708 43 -75 205 -65 238 14 22 51 20 1352 -1 1443 -44 187 -202 347 -392 396
-46 12 -135 15 -468 14 -225 0 -419 -4 -430 -8z"/>
<path d="M40990 40405 c-207 -48 -373 -183 -465 -377 -59 -124 -65 -171 -65
-560 0 -401 6 -452 71 -587 34 -70 58 -102 133 -177 75 -75 106 -98 176 -132
398 -191 862 22 971 445 17 69 19 112 19 442 0 418 -5 456 -72 591 -84 172
-269 317 -453 355 -84 18 -239 18 -315 0z m242 -266 c77 -17 144 -54 204 -113
112 -113 124 -166 124 -551 0 -165 -4 -327 -10 -359 -20 -126 -111 -246 -227
-302 -77 -37 -222 -46 -305 -19 -118 39 -217 135 -260 251 -21 55 -22 81 -26
366 -2 195 0 334 7 380 37 242 257 397 493 347z"/>
<path d="M47088 40405 c-56 -31 -73 -146 -30 -205 36 -48 47 -50 374 -50 184
0 327 -4 358 -11 64 -14 125 -60 165 -124 l30 -48 3 -183 3 -182 -333 -4
c-317 -4 -336 -5 -398 -27 -87 -30 -149 -71 -212 -140 -102 -110 -148 -230
-148 -389 0 -160 59 -294 177 -402 65 -59 174 -114 257 -129 36 -7 215 -11
449 -11 441 0 443 0 471 71 14 35 16 121 16 697 0 726 -1 740 -62 862 -63 125
-205 239 -343 275 -84 22 -736 22 -777 0z m902 -1355 l0 -270 -308 0 -308 0
-52 26 c-198 98 -200 383 -3 486 l53 28 309 0 309 0 0 -270z"/>
<path d="M51813 40405 c-191 -52 -344 -210 -389 -401 -13 -56 -15 -145 -12
-573 l3 -506 29 -70 c58 -139 152 -247 262 -299 106 -50 153 -56 492 -56 l314
0 -4 -172 c-4 -200 -15 -237 -95 -308 -75 -66 -102 -70 -460 -70 -259 0 -319
-3 -343 -15 -46 -24 -60 -52 -60 -123 0 -59 2 -66 34 -98 l34 -34 355 0 c332
0 359 1 423 21 180 55 322 204 369 386 13 49 15 215 15 1153 0 1077 0 1096
-20 1128 -11 18 -32 37 -46 42 -15 6 -192 10 -437 9 -321 0 -424 -3 -464 -14z
m697 -940 l0 -685 -310 0 c-351 0 -348 0 -429 75 -88 82 -86 70 -86 615 l0
475 27 51 c34 64 98 120 158 139 34 10 118 14 343 14 l297 1 0 -685z"/>
<path d="M53857 40404 c-134 -32 -236 -93 -339 -203 -80 -84 -119 -148 -155
-256 -27 -80 -27 -81 -31 -435 -3 -242 0 -379 8 -430 41 -258 228 -474 480
-552 98 -30 292 -32 385 -4 216 65 403 244 466 446 33 106 42 250 36 575 -4
228 -9 315 -21 364 -60 238 -252 430 -493 492 -91 23 -248 25 -336 3z m245
-265 c152 -32 276 -150 313 -297 14 -52 16 -117 13 -410 l-3 -347 -32 -68
c-40 -84 -117 -163 -198 -203 -56 -27 -68 -29 -175 -29 -110 0 -119 2 -181 32
-80 40 -159 120 -197 200 l-27 58 0 385 0 385 31 66 c82 173 270 267 456 228z"/>
<path d="M55780 40405 c-114 -25 -223 -88 -320 -185 -96 -95 -145 -177 -180
-300 -20 -67 -23 -106 -27 -375 -8 -433 10 -560 94 -705 57 -96 172 -207 268
-257 124 -64 180 -77 325 -78 103 0 138 4 200 23 252 78 439 293 480 552 8 52
10 185 7 430 -4 397 -7 413 -78 551 -91 174 -259 304 -447 344 -89 18 -234 18
-322 0z m241 -265 c124 -23 237 -112 293 -229 l31 -66 0 -385 0 -385 -27 -58
c-38 -80 -117 -160 -197 -200 -62 -30 -71 -32 -181 -32 -103 0 -121 3 -170 26
-85 40 -154 108 -197 197 l-38 76 -3 348 c-4 387 1 430 59 520 96 148 259 220
430 188z"/>
<path d="M60099 40405 c-60 -33 -59 -13 -59 -948 0 -953 -4 -903 70 -939 71
-36 161 -12 192 52 17 32 18 92 18 808 l0 773 313 -3 312 -3 54 -30 c56 -31
106 -88 128 -148 8 -23 12 -214 12 -695 1 -706 1 -703 50 -746 49 -44 170 -27
208 30 17 27 18 67 18 719 0 641 -1 694 -18 750 -57 184 -200 328 -375 376
-60 17 -107 19 -482 19 -340 -1 -420 -3 -441 -15z"/>
<path d="M62004 40386 l-34 -34 0 -883 c0 -687 3 -890 13 -909 26 -53 125 -76
192 -44 68 32 65 -12 65 946 0 802 -1 865 -18 898 -22 45 -53 60 -125 60 -54
0 -62 -3 -93 -34z"/>
<path d="M63191 40404 c-170 -46 -314 -182 -373 -351 -23 -68 -23 -69 -23
-588 0 -514 0 -521 23 -585 50 -144 139 -255 252 -314 112 -59 163 -66 513
-66 l309 0 -4 -177 c-3 -148 -7 -184 -22 -213 -25 -49 -83 -108 -131 -133 -38
-21 -55 -22 -385 -27 -254 -4 -351 -8 -367 -18 -38 -21 -56 -68 -51 -135 4
-52 9 -64 36 -88 l32 -29 353 0 c395 0 433 5 543 71 73 44 174 152 208 222 58
118 56 67 56 1269 l0 1108 -29 32 -29 33 -429 2 c-349 2 -438 -1 -482 -13z
m699 -939 l0 -685 -301 0 c-207 0 -315 4 -343 12 -61 18 -148 109 -167 173
-20 70 -21 941 -1 997 30 83 112 159 195 178 18 5 164 8 325 9 l292 1 0 -685z"/>
<path d="M68354 38900 c-12 -4 -31 -21 -43 -36 -19 -24 -21 -39 -21 -153 0
-80 5 -135 13 -151 26 -53 125 -76 192 -44 51 24 65 64 65 188 0 123 -14 167
-59 190 -32 17 -112 20 -147 6z"/>
<path d="M69164 38891 c-17 -10 -36 -34 -43 -52 -17 -50 -14 -234 5 -274 27
-58 114 -82 188 -51 59 25 66 45 66 193 0 132 0 133 -29 165 -25 28 -35 32
-92 35 -51 3 -71 0 -95 -16z"/>
<path d="M70001 38897 c-13 -6 -34 -25 -45 -40 -19 -25 -21 -42 -21 -151 0
-101 3 -127 18 -150 26 -39 80 -60 141 -52 90 10 116 56 116 207 0 118 -14
159 -65 183 -39 19 -111 21 -144 3z"/>
<path d="M34515 22943 c-87 -37 -261 -79 -413 -99 l-132 -18 0 -57 0 -57 113
1 c126 0 162 -10 179 -50 8 -20 13 -287 16 -983 4 -942 -4 -1295 -28 -1340
-18 -33 -66 -48 -178 -56 l-102 -7 0 -51 0 -52 465 0 465 1 0 51 0 51 -111 12
c-144 15 -165 26 -176 88 -12 73 -9 2219 4 2408 11 164 8 186 -26 184 -9 -1
-43 -13 -76 -26z"/>
<path d="M47268 22935 c-103 -36 -238 -65 -400 -86 l-98 -12 0 -58 0 -57 125
-3 c143 -5 152 -9 167 -86 13 -67 22 -1878 10 -2089 -5 -95 -15 -181 -22 -193
-17 -32 -61 -48 -178 -62 l-102 -12 0 -51 0 -51 480 0 480 0 0 51 0 50 -119
11 c-150 15 -186 29 -201 80 -17 57 -26 816 -11 972 14 150 32 192 111 263 64
57 149 101 239 124 90 22 245 15 322 -15 106 -41 187 -134 217 -250 28 -110
26 -890 -4 -1221 l-6 -65 326 0 326 0 0 51 0 50 -103 11 c-57 6 -118 18 -135
27 -56 29 -57 44 -57 641 0 589 -3 624 -61 742 -35 73 -119 153 -211 201 -120
62 -185 76 -348 76 -210 0 -237 -12 -480 -224 l-140 -122 -3 198 c-2 110 2
390 9 624 17 574 19 515 -11 517 -14 1 -69 -13 -122 -32z"/>
<path d="M61239 22944 c-133 -48 -408 -104 -508 -104 l-31 0 0 -60 0 -60 124
0 c142 0 161 -8 176 -75 9 -37 15 -775 6 -775 -2 0 -36 14 -77 30 -137 57
-221 74 -364 74 -152 0 -207 -15 -398 -110 -304 -152 -409 -239 -491 -406 -26
-51 -56 -129 -67 -173 -27 -104 -36 -321 -19 -448 68 -507 469 -799 932 -678
74 19 82 24 200 128 142 125 273 233 283 233 6 0 3 -78 -11 -270 l-6 -75 321
0 321 0 0 51 0 52 -71 7 c-102 10 -169 31 -198 60 l-26 25 0 1113 c0 775 4
1166 13 1291 15 220 18 216 -109 170z m-655 -1139 c121 -26 247 -96 369 -205
l57 -52 0 -281 c0 -394 -14 -508 -79 -632 -86 -166 -248 -264 -437 -265 -321
-1 -550 250 -584 641 -17 201 15 405 86 539 72 137 209 239 354 263 57 10 169
6 234 -8z"/>
<path d="M68771 22938 c-101 -36 -266 -72 -408 -89 l-103 -12 0 -58 0 -57 125
-4 c168 -4 162 2 176 -194 15 -215 7 -2097 -9 -2145 -20 -59 -38 -69 -171 -87
l-121 -17 0 -50 0 -50 480 0 480 0 0 51 0 50 -120 12 c-122 11 -183 30 -196
60 -4 9 -11 170 -17 357 -13 430 -1 715 32 790 29 67 105 136 202 184 101 51
169 65 294 59 128 -6 201 -36 274 -113 99 -104 112 -177 112 -615 -1 -300 -12
-648 -27 -780 l-5 -55 325 0 326 0 0 51 0 52 -82 7 c-100 8 -152 20 -172 41
-37 36 -40 86 -40 639 -1 582 -4 623 -57 728 -94 186 -338 300 -609 284 -166
-11 -220 -38 -430 -224 l-135 -120 -6 221 c-4 122 -3 365 2 541 5 176 10 376
11 445 l3 125 -25 2 c-14 1 -63 -12 -109 -29z"/>
<path d="M8730 22778 c0 -65 -6 -61 120 -78 136 -18 186 -35 199 -67 31 -79
51 -476 51 -1018 0 -404 -16 -1100 -28 -1200 l-7 -60 -85 -51 -85 -51 -3 -48
-3 -48 43 9 c24 5 320 9 658 9 605 0 617 0 720 23 416 91 726 296 942 622 137
207 212 454 225 735 17 388 -95 707 -329 931 -193 186 -393 277 -711 325 -136
21 -176 22 -924 23 l-783 1 0 -57z m1534 -132 c159 -33 312 -93 411 -164 201
-142 324 -344 383 -624 24 -120 24 -506 -1 -633 -49 -248 -140 -436 -285 -587
-142 -147 -316 -238 -550 -285 -110 -22 -473 -25 -639 -4 l-111 13 -6 62 c-4
33 -9 488 -12 1009 -5 905 0 1176 24 1198 4 4 63 14 132 23 165 20 540 16 654
-8z"/>
<path d="M38286 22805 c-81 -29 -136 -109 -136 -200 0 -207 263 -289 379 -119
82 119 20 284 -120 324 -45 13 -76 12 -123 -5z"/>
<path d="M65419 22793 c-35 -19 -64 -43 -84 -71 -27 -39 -30 -52 -30 -117 0
-65 3 -78 30 -117 42 -60 103 -91 175 -91 72 0 133 31 175 91 27 39 30 52 30
117 0 65 -3 78 -30 117 -35 51 -120 98 -175 98 -20 0 -61 -12 -91 -27z"/>
<path d="M19600 22504 c-47 -23 -116 -56 -153 -71 l-68 -28 3 -295 3 -295
-145 -62 -145 -62 -3 -40 -3 -40 151 6 151 6 -1 -599 c-1 -345 3 -614 8 -634
18 -65 32 -90 77 -139 103 -110 302 -149 492 -96 57 16 66 23 135 103 121 142
112 125 82 162 -25 29 -28 30 -48 15 -57 -42 -122 -65 -184 -65 -139 0 -212
70 -232 223 -5 39 -10 291 -10 560 l0 487 249 0 249 0 6 28 c3 15 8 58 12 95
l6 68 -262 -7 -263 -7 7 199 c4 109 11 266 17 347 9 147 9 149 -14 168 -12 10
-24 18 -27 17 -3 0 -43 -20 -90 -44z"/>
<path d="M33210 22501 c-52 -26 -124 -59 -158 -74 l-64 -27 6 -83 c3 -45 8
-174 12 -288 l6 -205 -79 -37 c-43 -20 -109 -49 -148 -65 -69 -28 -70 -29 -73
-69 l-3 -42 152 6 152 6 -6 -577 c-4 -382 -2 -597 5 -636 21 -120 107 -214
235 -256 80 -26 264 -25 344 2 50 17 65 29 146 125 l90 105 -27 33 -27 34 -41
-30 c-55 -40 -117 -56 -195 -51 -86 5 -135 37 -172 112 -24 49 -28 72 -35 213
-11 187 -13 706 -3 846 l6 97 247 0 248 0 6 68 c4 37 9 80 12 95 l6 28 -263
-7 -262 -7 7 249 c4 137 11 293 14 347 7 100 5 109 -33 129 -5 3 -53 -15 -105
-41z"/>
<path d="M41685 22479 c-77 -38 -146 -69 -153 -69 -11 0 -13 -54 -10 -297 l3
-297 -145 -63 -145 -63 -3 -39 -3 -40 151 6 152 6 -3 -599 c-2 -535 -1 -605
14 -655 29 -96 109 -174 222 -215 71 -25 257 -25 342 0 57 17 67 25 126 95 35
42 76 90 91 108 l26 31 -26 31 c-25 30 -28 31 -48 16 -119 -88 -275 -87 -358
1 -62 66 -62 66 -66 662 l-3 542 249 0 250 0 6 38 c3 20 8 63 12 95 l6 58
-262 -7 -263 -7 7 209 c4 115 11 271 16 348 9 136 9 139 -13 157 -12 10 -24
18 -27 18 -3 0 -68 -32 -145 -70z"/>
<path d="M46020 22492 c-63 -32 -134 -65 -158 -74 -34 -13 -42 -21 -38 -35 2
-10 8 -140 12 -290 l7 -272 -59 -27 c-33 -14 -99 -43 -149 -64 l-90 -37 -3
-41 -3 -41 151 6 152 6 -3 -599 c-3 -540 -2 -605 14 -655 29 -97 105 -171 214
-212 78 -28 259 -30 349 -3 64 19 59 14 221 207 l22 26 -27 31 -27 32 -59 -37
c-50 -32 -69 -38 -128 -41 -88 -5 -146 15 -191 69 -61 71 -61 63 -64 657 l-4
542 249 0 250 0 5 43 c3 23 9 66 12 95 l7 53 -262 -7 -263 -7 7 224 c4 123 11
280 16 348 8 120 8 124 -13 142 -12 10 -24 18 -27 18 -3 0 -57 -26 -120 -57z"/>
<path d="M51440 22496 c-58 -28 -129 -62 -158 -74 l-54 -22 6 -72 c3 -40 8
-171 12 -290 l6 -218 -24 -9 c-12 -6 -79 -35 -148 -64 l-125 -55 -3 -40 -3
-41 152 6 151 6 -3 -604 c-3 -455 -1 -614 8 -644 31 -101 107 -176 221 -218
114 -43 377 -22 422 33 8 10 49 58 91 107 l77 89 -27 33 -27 33 -52 -36 c-58
-38 -113 -51 -197 -44 -75 6 -126 42 -160 113 -26 52 -28 66 -37 273 -6 125
-7 358 -3 550 l7 332 248 0 248 0 6 68 c4 37 9 80 12 95 l6 28 -263 -7 -262
-7 7 249 c4 137 11 293 15 347 6 100 4 109 -34 129 -5 3 -57 -18 -115 -46z"/>
<path d="M71000 22492 c-63 -32 -134 -65 -158 -74 -34 -13 -42 -21 -38 -35 2
-10 8 -140 12 -290 l7 -272 -59 -27 c-33 -14 -99 -43 -149 -64 l-90 -37 -3
-41 -3 -41 151 6 152 6 -3 -599 c-3 -540 -2 -605 14 -655 29 -97 105 -171 214
-212 78 -28 259 -30 349 -3 64 19 59 14 221 207 l22 26 -27 31 -27 32 -59 -37
c-50 -32 -69 -38 -128 -41 -88 -5 -146 15 -191 69 -61 71 -61 63 -64 657 l-4
542 249 0 250 0 5 43 c3 23 9 66 12 95 l7 53 -262 -7 -263 -7 7 224 c4 123 11
280 16 348 8 120 8 124 -13 142 -12 10 -24 18 -27 18 -3 0 -57 -26 -120 -57z"/>
<path d="M15225 21953 c-108 -43 -287 -89 -407 -105 l-88 -12 0 -57 0 -57 93
1 c50 1 114 -2 140 -7 42 -6 50 -12 62 -39 30 -73 27 -1259 -3 -1338 -17 -43
-66 -59 -186 -59 l-106 0 0 -39 c0 -22 -2 -45 -5 -53 -4 -11 80 -13 480 -13
l486 0 -3 50 -3 50 -115 5 c-133 6 -172 21 -189 72 -15 48 -25 784 -13 953 12
169 29 213 113 296 96 95 210 139 365 139 156 0 275 -51 354 -151 74 -94 90
-195 90 -572 0 -253 -11 -556 -26 -757 l-6 -85 326 0 326 0 0 52 0 53 -95 0
c-119 0 -159 15 -183 67 -15 34 -17 90 -18 563 -1 636 -9 700 -94 828 -66 99
-170 170 -310 214 -98 30 -299 33 -399 5 -101 -27 -123 -42 -289 -187 l-157
-138 -5 176 c-6 209 3 200 -135 145z"/>
<path d="M22157 21975 c-237 -45 -459 -165 -560 -303 -90 -122 -132 -266 -124
-422 12 -228 124 -370 354 -450 l93 -32 -125 -90 c-69 -50 -139 -106 -155
-126 -61 -75 -79 -200 -37 -263 21 -33 95 -77 177 -107 l35 -12 -54 -36 c-29
-20 -104 -63 -167 -96 l-114 -60 -41 -82 c-133 -269 -23 -559 266 -703 130
-65 273 -93 477 -93 271 0 480 54 674 175 188 118 326 305 370 503 23 101 15
261 -16 354 -34 101 -94 187 -158 225 -89 52 -146 57 -531 43 -367 -13 -489
-7 -568 31 -96 46 -106 151 -21 231 18 17 54 48 80 68 l46 37 129 6 c204 8
371 69 518 187 190 155 280 405 217 608 l-20 62 173 0 172 0 50 88 c64 111 60
127 -30 118 -34 -3 -153 -9 -264 -12 l-202 -7 -48 36 c-66 48 -157 93 -228
112 -86 23 -272 28 -368 10z m108 -126 c183 -34 309 -179 344 -400 31 -190
-16 -369 -121 -464 -63 -57 -122 -84 -208 -98 -130 -20 -245 17 -337 108 -98
99 -143 226 -143 410 0 123 14 188 56 265 59 109 184 181 330 189 11 0 47 -4
79 -10z m516 -1741 c163 -96 211 -324 112 -527 -48 -99 -159 -212 -258 -264
-122 -62 -208 -81 -375 -82 -165 0 -221 10 -328 62 -96 47 -189 145 -223 235
-21 54 -24 80 -23 183 0 145 22 214 88 280 58 57 157 123 203 134 21 5 200 9
398 8 l360 -2 46 -27z"/>
<path d="M27370 21978 c-80 -11 -246 -66 -332 -109 -179 -90 -282 -206 -344
-384 -24 -70 -28 -94 -27 -200 0 -97 4 -131 22 -179 59 -163 158 -251 354
-316 38 -12 65 -25 60 -29 -4 -4 -48 -36 -98 -71 -141 -100 -170 -126 -199
-180 -33 -60 -44 -142 -26 -194 15 -46 68 -86 156 -118 35 -12 64 -25 64 -28
0 -11 -113 -80 -215 -132 -93 -47 -107 -58 -134 -103 -101 -166 -100 -375 4
-530 92 -138 229 -228 423 -278 76 -19 114 -22 297 -22 168 0 227 4 295 19
388 84 673 331 746 645 18 78 20 238 3 307 -21 89 -75 191 -127 243 -90 90
-104 92 -737 81 -332 -6 -385 1 -441 53 -44 41 -56 82 -39 131 15 44 38 70
118 137 l58 49 94 0 c280 0 542 127 681 331 94 139 129 278 101 409 -9 41 -19
85 -23 98 l-6 22 170 0 169 0 51 86 c43 72 50 90 41 106 -10 18 -18 20 -67 15
-32 -4 -148 -9 -259 -13 l-203 -7 -79 52 c-43 29 -103 61 -132 73 -114 43
-272 57 -419 36z m150 -145 c169 -58 275 -227 287 -458 9 -183 -31 -301 -134
-395 -76 -69 -144 -94 -263 -94 -86 0 -102 3 -161 30 -166 78 -258 252 -259
486 0 155 36 261 116 343 98 101 268 137 414 88z m446 -1720 c56 -30 119 -103
146 -172 18 -45 22 -75 22 -151 -1 -152 -54 -263 -184 -382 -76 -71 -160 -117
-276 -150 -66 -19 -103 -23 -229 -23 -130 0 -160 3 -225 23 -259 81 -389 293
-340 553 17 90 62 168 127 220 72 58 125 89 166 100 18 4 194 7 392 6 350 -2
361 -3 401 -24z"/>
<path d="M30924 21950 c-124 -48 -266 -85 -391 -102 l-93 -12 0 -56 0 -57 118
0 c132 -1 167 -11 184 -50 8 -19 13 -168 16 -468 4 -458 -8 -838 -28 -875 -19
-36 -70 -50 -185 -50 l-105 0 0 -52 0 -53 480 0 480 0 0 53 0 52 -107 0 c-141
1 -186 19 -203 80 -8 29 -10 200 -8 558 l3 517 26 56 c49 103 167 195 303 234
45 13 85 16 171 13 98 -4 118 -8 177 -35 128 -60 199 -152 224 -291 23 -134
16 -903 -12 -1177 l-6 -60 326 0 326 0 0 53 0 52 -96 0 c-103 0 -149 14 -172
51 -25 40 -32 206 -30 674 3 517 -1 562 -60 685 -103 212 -405 331 -697 275
-121 -23 -166 -50 -335 -199 l-155 -137 -5 178 c-5 169 -6 178 -25 180 -11 1
-66 -16 -121 -37z"/>
<path d="M38430 21958 c-101 -39 -273 -84 -395 -103 -159 -25 -145 -17 -145
-80 l0 -55 115 0 c139 0 169 -11 184 -68 26 -101 19 -1202 -8 -1293 -15 -48
-40 -58 -178 -71 l-113 -11 0 -51 0 -51 475 0 475 0 0 51 0 51 -94 11 c-134
17 -167 30 -188 73 -32 65 -42 374 -29 947 6 279 14 541 18 582 5 73 5 76 -18
87 -20 8 -38 5 -99 -19z"/>
<path d="M39470 21958 c-111 -45 -253 -84 -376 -103 -60 -10 -115 -19 -121
-21 -9 -2 -13 -23 -13 -57 l0 -53 125 -1 c138 0 168 -10 182 -61 12 -41 9
-1249 -3 -1297 -7 -28 -20 -47 -43 -62 -30 -21 -46 -23 -147 -23 l-114 0 0
-52 0 -53 480 0 480 0 0 53 0 52 -105 0 c-119 0 -163 13 -192 56 -17 26 -18
62 -18 559 l0 530 29 63 c20 43 47 80 88 118 103 94 208 134 358 134 151 0
248 -38 335 -131 54 -57 78 -108 97 -199 23 -113 10 -1022 -18 -1200 l-5 -35
326 0 325 0 0 53 0 52 -97 0 c-103 0 -149 15 -171 57 -21 39 -25 137 -27 643
-2 577 -3 590 -64 714 -110 225 -454 342 -753 258 -86 -24 -112 -42 -286 -196
-78 -69 -146 -126 -149 -126 -3 0 -3 76 0 169 6 172 2 192 -32 190 -9 -1 -50
-15 -91 -31z"/>
<path d="M54040 21980 c-84 -14 -218 -55 -302 -93 -211 -96 -341 -244 -392
-443 -21 -82 -21 -244 0 -315 50 -167 148 -265 331 -328 43 -15 79 -31 79 -36
1 -6 -44 -43 -100 -83 -130 -94 -170 -134 -196 -193 -33 -78 -36 -130 -10
-183 19 -40 31 -50 102 -86 44 -22 87 -40 94 -40 46 0 -28 -54 -199 -145 -98
-52 -111 -62 -138 -109 -63 -109 -85 -249 -58 -366 40 -174 195 -332 397 -404
211 -75 563 -75 802 -1 356 112 596 366 642 679 34 235 -70 487 -225 544 -84
31 -160 35 -496 22 -346 -14 -475 -7 -557 30 -57 25 -87 71 -81 127 6 53 33
91 116 158 l68 55 97 0 c367 0 693 226 771 535 24 96 19 183 -19 303 l-7 22
173 0 173 1 48 85 c63 113 59 128 -27 120 -33 -3 -152 -9 -264 -12 l-202 -7
-60 42 c-68 48 -149 87 -223 108 -64 17 -263 25 -337 13z m143 -146 c133 -46
241 -181 276 -344 17 -78 15 -243 -4 -315 -49 -188 -205 -300 -404 -291 -178
9 -325 139 -375 331 -82 321 42 590 295 634 65 12 154 5 212 -15z m416 -1710
c111 -33 190 -154 199 -304 8 -150 -44 -277 -164 -396 -122 -121 -272 -180
-484 -191 -335 -16 -568 136 -610 398 -19 124 15 276 78 350 45 52 152 128
205 145 67 20 705 19 776 -2z"/>
<path d="M63270 21958 c-111 -45 -253 -84 -376 -103 -60 -10 -115 -19 -121
-21 -9 -2 -13 -23 -13 -57 l0 -54 125 0 c138 0 168 -10 182 -61 12 -40 8
-1271 -3 -1306 -19 -57 -52 -71 -185 -74 l-119 -4 0 -51 0 -52 480 0 480 0 0
53 0 52 -105 0 c-119 0 -163 13 -192 56 -17 26 -18 62 -21 485 -4 516 2 613
45 690 33 61 117 141 184 175 145 73 367 73 492 -1 104 -60 163 -147 189 -275
23 -114 9 -1072 -18 -1210 l-4 -25 325 0 325 0 0 53 0 52 -97 0 c-104 0 -149
15 -172 58 -19 35 -23 144 -25 662 -2 449 -4 523 -19 579 -50 187 -192 322
-398 378 -90 25 -289 24 -386 0 -93 -24 -128 -48 -301 -201 -78 -69 -145 -126
-147 -126 -2 0 -1 74 2 165 8 217 8 217 -127 163z"/>
<path d="M65640 21981 c-46 -27 -278 -94 -402 -116 -79 -14 -153 -28 -165 -31
-21 -4 -23 -10 -23 -59 l0 -55 109 0 c128 0 154 -8 177 -52 15 -29 18 -80 22
-438 4 -420 -8 -835 -27 -883 -14 -36 -43 -46 -173 -59 l-108 -11 0 -51 0 -51
470 0 470 0 0 52 0 51 -62 7 c-105 11 -166 25 -192 46 -50 39 -51 54 -49 759
1 360 5 704 10 763 8 105 8 108 -14 122 -26 17 -24 17 -43 6z"/>
<path d="M67020 21979 c-89 -14 -256 -71 -354 -121 -60 -31 -102 -63 -161
-122 -135 -135 -189 -266 -188 -456 1 -251 119 -406 368 -486 39 -12 68 -26
65 -31 -2 -4 -53 -43 -112 -86 -59 -43 -122 -92 -139 -110 -41 -41 -69 -104
-76 -171 -10 -98 40 -157 171 -201 31 -11 56 -22 56 -27 0 -10 -152 -102 -240
-144 -62 -30 -82 -45 -101 -78 -53 -89 -72 -148 -77 -240 -8 -164 35 -275 152
-392 39 -39 96 -84 126 -102 79 -44 220 -89 325 -103 113 -15 393 -6 490 16
316 70 562 243 678 477 63 125 81 198 81 328 -1 222 -101 407 -247 457 -58 19
-138 21 -637 13 -266 -5 -301 -3 -354 13 -83 26 -126 70 -126 130 0 57 25 95
114 169 l69 58 97 0 c179 0 335 47 487 147 236 155 355 435 277 654 -7 23 -14
45 -14 50 0 5 78 9 173 9 l173 0 18 38 c10 20 31 58 48 84 21 33 28 54 23 69
-7 20 -12 21 -74 15 -36 -3 -154 -8 -263 -12 l-196 -7 -70 47 c-79 52 -143 83
-217 103 -65 18 -263 25 -345 12z m104 -134 c86 -18 140 -50 204 -120 90 -98
132 -220 132 -382 0 -112 -14 -180 -50 -253 -76 -150 -241 -231 -412 -202
-159 28 -278 143 -332 322 -22 73 -31 239 -17 315 33 174 152 298 311 324 78
12 87 12 164 -4z m491 -1732 c167 -90 224 -332 125 -530 -120 -239 -382 -369
-705 -350 -55 3 -125 14 -155 23 -252 76 -388 278 -352 524 19 135 56 197 167
279 61 46 90 62 130 72 17 4 192 7 390 6 348 -2 361 -3 400 -24z"/>
<path d="M12546 21970 c-378 -60 -644 -285 -753 -637 -26 -83 -27 -99 -27
-278 0 -166 3 -201 23 -280 82 -321 290 -539 591 -621 51 -14 101 -18 230 -18
144 1 177 4 261 27 275 73 512 267 625 512 70 151 99 341 83 534 -19 225 -85
377 -228 524 -104 108 -224 175 -391 218 -88 23 -322 33 -414 19z m189 -135
c259 -55 425 -282 481 -656 22 -150 15 -387 -15 -504 -83 -322 -329 -473 -631
-389 -112 31 -204 104 -281 221 -190 291 -236 788 -97 1070 99 203 317 306
543 258z"/>
<path d="M17836 21969 c-379 -55 -659 -299 -758 -660 -20 -74 -23 -105 -22
-264 1 -161 4 -191 27 -279 51 -190 154 -358 285 -462 72 -57 216 -128 307
-151 53 -13 109 -17 230 -17 139 1 173 4 257 27 261 69 488 245 602 467 83
162 110 283 109 485 -2 301 -95 516 -293 678 -181 148 -468 216 -744 176z
m252 -150 c215 -71 358 -280 413 -602 28 -161 23 -428 -9 -550 -44 -161 -133
-286 -250 -350 -148 -81 -361 -69 -507 28 -145 97 -263 319 -312 589 -11 60
-16 145 -16 251 0 181 16 262 78 393 103 217 361 320 603 241z"/>
<path d="M24258 21966 c-427 -76 -718 -384 -757 -803 -21 -230 28 -477 130
-651 43 -73 198 -227 272 -271 135 -79 308 -117 497 -108 264 14 474 108 660
296 119 121 185 237 232 411 20 75 23 107 22 270 0 159 -4 196 -22 265 -85
306 -295 506 -611 581 -91 22 -326 27 -423 10z m276 -147 c254 -86 409 -367
432 -783 15 -265 -42 -493 -156 -619 -93 -104 -203 -152 -345 -151 -155 1
-265 45 -363 148 -103 107 -173 252 -220 450 -23 99 -26 132 -26 306 -1 216
12 287 74 410 110 219 364 319 604 239z"/>
<path d="M29437 21970 c-193 -35 -423 -154 -558 -289 -150 -150 -230 -418
-216 -720 7 -151 33 -264 86 -376 160 -341 504 -503 939 -441 128 18 283 66
399 124 l79 40 31 81 c26 70 28 82 16 93 -12 10 -24 7 -61 -16 -240 -142 -492
-180 -707 -106 -245 84 -397 310 -421 628 l-7 82 254 0 c374 1 780 17 884 35
142 25 129 6 122 164 -6 153 -28 256 -77 355 -80 162 -238 287 -420 331 -77
19 -275 28 -343 15z m208 -150 c181 -60 272 -211 282 -471 4 -78 2 -129 -4
-132 -34 -21 -860 -18 -893 3 -11 7 -11 28 -2 112 20 183 60 290 141 380 112
125 296 167 476 108z"/>
<path d="M35838 21960 c-250 -52 -523 -238 -616 -418 -67 -131 -98 -245 -112
-410 -28 -356 81 -652 308 -832 247 -196 646 -224 1022 -74 145 58 170 79 203
164 25 66 26 75 12 89 -14 14 -18 14 -43 -2 -64 -42 -213 -108 -287 -128 -59
-16 -111 -22 -195 -22 -136 -1 -197 12 -305 63 -215 103 -332 304 -359 618
l-6 62 258 0 c544 1 960 26 997 61 15 15 8 225 -10 314 -40 191 -133 330 -287
429 -149 95 -377 129 -580 86z m172 -120 c88 -14 199 -70 246 -123 76 -88 116
-218 118 -387 l1 -115 -85 -8 c-92 -9 -780 0 -807 10 -14 5 -15 19 -10 102 18
284 147 472 357 517 70 16 100 16 180 4z"/>
<path d="M43326 21969 c-312 -45 -560 -219 -695 -486 -56 -112 -83 -223 -88
-368 -9 -209 17 -360 88 -513 106 -230 284 -381 529 -448 51 -14 101 -18 230
-18 144 1 177 4 261 27 354 94 617 365 691 712 22 105 26 311 8 420 -49 303
-249 539 -535 634 -142 47 -333 63 -489 40z m189 -134 c103 -22 188 -68 261
-141 51 -50 74 -85 118 -176 89 -185 122 -364 113 -613 -9 -244 -61 -395 -174
-508 -133 -133 -332 -170 -525 -97 -181 68 -324 285 -389 593 -32 148 -32 427
-1 540 45 164 122 277 233 342 115 67 235 87 364 60z"/>
<path d="M49744 21970 c-92 -17 -217 -69 -370 -154 l-149 -84 -5 -131 -5 -132
35 -9 c74 -19 68 -25 119 109 52 136 63 149 157 182 242 85 503 13 610 -168
31 -54 64 -180 64 -248 l0 -51 -282 -56 c-321 -65 -432 -94 -536 -143 -128
-60 -237 -187 -281 -327 -19 -59 -29 -187 -20 -263 17 -140 116 -273 242 -322
122 -49 327 -56 417 -16 25 11 137 91 250 176 l205 156 3 -157 2 -157 290 0
290 0 0 57 0 56 -100 4 c-112 3 -126 11 -141 74 -5 21 -13 260 -19 529 -10
529 -14 609 -36 697 -42 175 -183 309 -379 363 -71 19 -287 28 -361 15z m456
-1056 l0 -256 -47 -56 c-195 -228 -462 -312 -630 -199 -95 64 -139 189 -115
327 29 169 105 242 332 320 86 30 417 118 448 119 9 1 12 -57 12 -255z"/>
<path d="M56138 21970 c-394 -63 -671 -311 -765 -686 -23 -92 -23 -367 0 -469
69 -307 239 -521 494 -624 110 -45 183 -56 348 -55 118 1 168 5 232 22 180 46
332 131 459 257 128 126 211 280 251 465 24 112 24 353 0 458 -72 314 -284
531 -597 612 -96 24 -325 35 -422 20z m172 -131 c195 -31 353 -178 439 -409
55 -148 65 -221 66 -460 0 -253 -8 -305 -72 -440 -91 -190 -283 -292 -495
-262 -140 20 -250 84 -332 193 -138 183 -208 427 -208 724 -1 130 3 163 25
248 49 184 131 294 269 361 104 50 196 63 308 45z"/>
<path d="M58236 21969 c-371 -54 -644 -285 -753 -636 -26 -83 -27 -99 -27
-278 0 -166 3 -201 23 -280 82 -321 290 -539 591 -621 51 -14 101 -18 230 -18
144 1 177 4 261 27 354 94 617 365 691 712 22 105 26 311 8 420 -49 303 -249
539 -535 634 -142 47 -333 63 -489 40z m189 -134 c259 -55 425 -282 481 -656
22 -150 15 -387 -15 -504 -83 -322 -329 -473 -631 -389 -236 66 -408 348 -451
741 -38 354 56 633 252 748 115 67 235 87 364 60z"/>
<path d="M72106 20558 c-25 -7 -58 -29 -87 -58 -37 -37 -49 -58 -59 -102 -32
-144 85 -280 230 -266 181 18 264 239 138 367 -18 18 -45 39 -60 47 -39 20
-114 26 -162 12z"/>
<path d="M73066 20558 c-25 -7 -58 -29 -87 -58 -37 -37 -49 -58 -59 -102 -32
-144 85 -280 230 -266 181 18 264 239 138 367 -18 18 -45 39 -60 47 -39 20
-114 26 -162 12z"/>
<path d="M74026 20558 c-61 -17 -130 -91 -146 -156 -17 -72 0 -141 49 -195 71
-79 166 -98 259 -51 160 80 160 307 0 390 -39 20 -114 26 -162 12z"/>
</g>
</svg>
