<?xml version="1.0" encoding="UTF-8" standalone="no"?>
<!-- Created with Inkscape (http://www.inkscape.org/) -->

<svg
   version="1.1"
   id="svg59"
   width="1600"
   height="1200"
   viewBox="0 0 1600 1200"
   sodipodi:docname="text.svg"
   inkscape:version="1.2.1 (9c6d41e410, 2022-07-14)"
   xmlns:inkscape="http://www.inkscape.org/namespaces/inkscape"
   xmlns:sodipodi="http://sodipodi.sourceforge.net/DTD/sodipodi-0.dtd"
   xmlns="http://www.w3.org/2000/svg"
   xmlns:svg="http://www.w3.org/2000/svg">
  <defs
     id="defs63" />
  <sodipodi:namedview
     id="namedview61"
     pagecolor="#505050"
     bordercolor="#eeeeee"
     borderopacity="1"
     inkscape:showpageshadow="0"
     inkscape:pageopacity="0"
     inkscape:pagecheckerboard="0"
     inkscape:deskcolor="#505050"
     showgrid="false"
     inkscape:zoom="0.68666667"
     inkscape:cx="800.24272"
     inkscape:cy="600"
     inkscape:window-width="1920"
     inkscape:window-height="1027"
     inkscape:window-x="-8"
     inkscape:window-y="-8"
     inkscape:window-maximized="1"
     inkscape:current-layer="g65" />
  <g
     inkscape:groupmode="layer"
     inkscape:label="Image"
     id="g65">
    <path
       style="fill:#000000"
       d="m 148.29202,670.20313 c -2.89249,-2.89248 -2.92308,-3.04365 -2.92308,-14.44423 0,-10.73618 0.16439,-11.71233 2.41273,-14.32693 l 2.41273,-2.80576 61.91619,-0.5 61.91618,-0.5 3.67214,-2.80169 c 5.74004,-4.37943 6.96579,-7.69878 7.45872,-20.19831 0.2575,-6.52956 -0.0285,-12.70874 -0.70375,-15.20453 -1.20976,-4.47146 -4.91289,-9.54535 -8.4428,-11.56801 -1.60223,-0.91809 -17.72774,-1.35348 -63.97941,-1.72746 l -61.83727,-0.5 -2.41273,-2.80576 c -2.24834,-2.6146 -2.41273,-3.59075 -2.41273,-14.32693 0,-11.40058 0.0306,-11.55175 2.92308,-14.44423 l 2.92307,-2.92308 h 81.44207 c 80.87855,0 81.46029,0.0143 84.07692,2.07258 l 2.63486,2.07258 v 56.47287 56.47288 l -2.45455,2.45454 -2.45454,2.45455 h -81.62238 -81.62238 z m 437.57692,1.71526 c -3.98368,-2.28464 -4.43546,-3.93961 -4.4682,-16.36787 -0.0308,-11.70455 0.0475,-12.15019 2.5468,-14.5 2.23385,-2.10018 3.82012,-2.49491 11.86462,-2.95236 8.16761,-0.46445 9.72399,-0.86211 12.92245,-3.30169 7.30951,-5.57524 7.0771,-3.89231 7.63433,-55.28299 l 0.5,-46.11273 17.1399,-17.63727 17.13991,-17.63727 h 34.37051 34.37052 l 17.73958,17.76014 17.73958,17.76014 v 32.28532 32.28531 l -2.45455,2.45454 c -2.33309,2.3331 -3.04777,2.45455 -14.44423,2.45455 -11.22944,0 -12.1676,-0.15291 -14.79546,-2.41156 l -2.80576,-2.41155 -0.5,-27.01856 c -0.47052,-25.42535 -0.62336,-27.18484 -2.59195,-29.83845 -5.62075,-7.57661 -10.67464,-8.70382 -36.54472,-8.1509 -17.98113,0.38431 -19.81361,0.77041 -24.70834,5.20598 -5.83329,5.28609 -5.61144,2.78237 -6.15499,69.46416 l -0.5,61.33913 -2.36078,1.91087 c -2.20335,1.78345 -4.27069,1.90885 -31,1.88047 -19.65865,-0.0209 -29.26637,-0.39008 -30.63922,-1.17741 z m 355.80573,-1.20363 -2.8057,-2.41144 -0.5,-26.88641 c -0.555,-29.84196 -0.4811,-29.50416 -7.6506,-34.97412 l -3.69169,-2.81658 -61.9179,-0.5 -61.91791,-0.5 -1.91096,-2.36078 c -1.82098,-2.24961 -1.91097,-4.5843 -1.91097,-49.57569 v -47.2149 l 2.31445,-2.17432 c 2.1217,-1.99323 3.35641,-2.17431 14.82569,-2.17431 17.90682,0 16.85337,-1.75108 16.88372,28.06445 0.0131,12.88955 0.43325,25.20072 0.93361,27.35816 1.03826,4.47661 3.4386,8.03698 7.42655,11.0156 2.70083,2.01727 4.09944,2.07259 64.77548,2.56179 l 62.01503,0.5 2.4127,2.80576 2.4128,2.80577 v 46.52116 46.52116 l -2.9231,2.92307 c -2.8925,2.89249 -3.0437,2.92308 -14.4442,2.92308 -10.7341,0 -11.7129,-0.16474 -14.327,-2.41145 z m 79.35063,1.27892 c -3.0934,-1.79818 -4.6563,-7.23099 -4.6563,-16.18613 0,-14.79728 2.465,-17.68134 15.1125,-17.68134 8.9371,0 14.8018,-2.9516 17.8892,-9.0033 1.9116,-3.74707 1.9983,-5.90333 1.9983,-49.69672 v -45.7797 l 17.7396,-17.76014 17.7396,-17.76014 h 34.5208 34.5208 l 17.7396,17.76014 17.7396,17.76014 v 31.66314 31.66313 l -2.5889,3.07672 -2.5889,3.07673 h -12.3222 -12.3222 l -2.5889,-3.07673 -2.5889,-3.07672 -0.016,-25.17328 c -0.016,-24.2422 -0.1,-25.32012 -2.2652,-29.1437 -2.9806,-5.26253 -7.6444,-8.25149 -14.142,-9.0633 -2.9275,-0.36577 -13.401,-0.50781 -23.2743,-0.31565 -17.5279,0.34113 -18.0474,0.41274 -22.0057,3.0334 -2.4406,1.61581 -4.8982,4.42787 -6.1752,7.06572 -2.088,4.3133 -2.1216,5.3174 -2.1529,64.31598 -0.034,63.27884 0.077,61.75204 -4.6525,64.27094 -2.9117,1.55079 -57.9964,1.57876 -60.6594,0.0308 z m 216.6495,-1.27849 -2.8058,-2.41103 -0.322,-15.08897 -0.3221,-15.08898 h 17.5721 17.572 v 14.91111 14.9111 l -3.0767,2.5889 c -2.9152,2.45292 -3.6738,2.58889 -14.4443,2.58889 -10.571,0 -11.5641,-0.16894 -14.1732,-2.41102 z m 139.6173,-0.51206 -2.9231,-2.92307 v -14.57693 -14.57692 h 17.572 17.5721 l -0.3221,15.08898 -0.322,15.08897 -2.8058,2.41103 c -2.6139,2.24616 -3.5935,2.41102 -14.3269,2.41102 -11.4006,0 -11.5517,-0.0306 -14.4442,-2.92308 z M 366.0053,635.48985 c -2.55409,-2.5541 -2.63636,-3.00897 -2.63636,-14.57693 0,-11.86412 0.0187,-11.95927 2.92308,-14.86363 l 2.92307,-2.92308 h 80.64267 c 59.39199,0 81.21825,0.30656 82.82692,1.16334 4.16716,2.21945 4.61936,3.836 4.65246,16.63211 0.0304,11.74178 -0.0787,12.40599 -2.42275,14.75 l -2.45454,2.45455 h -81.90909 -81.90909 z m 868.5417,-64.45262 0.322,-15.08897 2.8058,-2.41103 c 2.6224,-2.25349 3.5772,-2.41102 14.6136,-2.41102 11.4246,0 11.8934,0.0856 14.4442,2.63636 2.612,2.612 2.6364,2.77378 2.6364,17.5 v 14.86364 h -17.572 -17.5721 z m 139.822,0.22534 c 0,-14.72622 0.024,-14.888 2.6364,-17.5 2.5508,-2.55079 3.0196,-2.63636 14.4442,-2.63636 11.0364,0 11.9912,0.15753 14.6136,2.41102 l 2.8058,2.41103 0.322,15.08897 0.3221,15.08898 h -17.5721 -17.572 z m -973.54551,-5.59091 c -2.3331,-2.33309 -2.45455,-3.04777 -2.45455,-14.44423 0,-11.18443 0.15977,-12.17543 2.37883,-14.75524 2.24889,-2.6145 2.92593,-2.78753 12.39531,-3.16787 18.28032,-0.73423 20.718,1.65504 20.05174,19.65362 -0.36656,9.9023 -0.51552,10.50456 -3.16105,12.78014 -2.59292,2.23034 -3.56854,2.38813 -14.76605,2.38813 -11.39646,0 -12.11114,-0.12145 -14.44423,-2.45455 z m 70,0 c -2.34152,-2.34151 -2.45455,-3.02422 -2.45455,-14.82568 0,-12.00591 0.0762,-12.44271 2.58056,-14.79546 2.43112,-2.28391 3.26617,-2.42431 14.41944,-2.42431 11.15327,0 11.98832,0.1404 14.41944,2.42431 2.50437,2.35275 2.58056,2.78955 2.58056,14.79546 0,11.80146 -0.11303,12.48417 -2.45455,14.82568 -2.33538,2.33539 -3.04152,2.45455 -14.54545,2.45455 -11.50393,0 -12.21007,-0.11916 -14.54545,-2.45455 z m -253,-35 c -2.33539,-2.33538 -2.45455,-3.04152 -2.45455,-14.54545 0,-11.50393 0.11916,-12.21007 2.45455,-14.54545 2.34121,-2.34121 3.0251,-2.45455 14.81143,-2.45455 17.31631,0 18.19986,0.9484 17.57935,18.86959 -0.30898,8.92393 -0.60052,10.24517 -2.76964,12.55209 -2.35209,2.50151 -2.79288,2.57832 -14.79546,2.57832 -11.80146,0 -12.48417,-0.11303 -14.82568,-2.45455 z"
       id="path177" />
  </g>
</svg>
