<?xml version="1.0" encoding="UTF-8" standalone="no"?>
<!-- Created with Inkscape (http://www.inkscape.org/) -->

<svg
   version="1.1"
   id="svg1489"
   width="582"
   height="246"
   viewBox="0 0 582 246"
   sodipodi:docname="Horns.svg"
   inkscape:version="1.2.1 (9c6d41e410, 2022-07-14)"
   xmlns:inkscape="http://www.inkscape.org/namespaces/inkscape"
   xmlns:sodipodi="http://sodipodi.sourceforge.net/DTD/sodipodi-0.dtd"
   xmlns="http://www.w3.org/2000/svg"
   xmlns:svg="http://www.w3.org/2000/svg">
  <defs
     id="defs1493" />
  <sodipodi:namedview
     id="namedview1491"
     pagecolor="#505050"
     bordercolor="#eeeeee"
     borderopacity="1"
     inkscape:showpageshadow="0"
     inkscape:pageopacity="0"
     inkscape:pagecheckerboard="0"
     inkscape:deskcolor="#505050"
     showgrid="false"
     inkscape:zoom="1.0395189"
     inkscape:cx="267.9124"
     inkscape:cy="153.91736"
     inkscape:window-width="1920"
     inkscape:window-height="1027"
     inkscape:window-x="-8"
     inkscape:window-y="-8"
     inkscape:window-maximized="1"
     inkscape:current-layer="g1495" />
  <g
     inkscape:groupmode="layer"
     inkscape:label="Image"
     id="g1495">
    <path
       style="fill:#000000"
       d="M 0.01082429,223.75 C 0.02880417,218.35153 2.2983108,212.15334 15.297857,182 c 8.922215,-20.69569 26.001409,-49.09046 36.089454,-60 2.288631,-2.475 5.196277,-5.6897 6.461435,-7.14377 l 2.300289,-2.64377 -1.938756,-3.85623 C 57.143963,106.2353 55.698576,102.025 54.998308,99 54.29804,95.975 52.934219,91.465771 51.967595,88.97949 46.64593,75.291487 43.779734,57.540638 42.121353,28 41.449649,16.034996 42.769279,0.96774967 44.497639,0.86807791 45.04634,0.83643518 47.552012,6.1406729 50.065797,12.655273 59.568936,37.283127 71.68535,57.179195 87.42384,74 c 8.963386,9.579786 10.39082,10.438918 13.05521,7.85756 5.94696,-5.761636 27.39623,-17.790728 39.96873,-22.415093 3.32872,-1.224357 9.40661,-3.643207 13.50643,-5.375223 6.85593,-2.89637 13.2819,-4.980641 31.1831,-10.114281 3.65052,-1.046882 10.40052,-2.576844 15,-3.399914 4.59948,-0.82307 9.94896,-1.952417 11.88772,-2.509658 3.2653,-0.938514 8.52252,-1.635599 30.97497,-4.107154 4.675,-0.514622 22.675,-1.139397 40,-1.38839 31.29924,-0.449827 53.31094,0.675457 70,3.578549 29.8829,5.198182 53.09545,11.271039 72.77862,19.040308 17.53458,6.921187 44.16654,20.851682 50.05576,26.18288 1.89833,1.718456 2.20704,1.735207 4.3544,0.236277 4.32347,-3.017925 19.29127,-20.232691 24.93149,-28.674204 C 508.21142,48.285246 513.00816,40 515.77968,34.5 526.3245,13.574157 529,7.9023068 529,6.4739411 529,5.0155664 532.9667,4.3040345 533.03588,5.75 c 1.87878,39.269311 -0.14931,56.857398 -10.17615,88.25 -1.66887,5.225 -4.07766,11.59011 -5.35286,14.14469 l -2.31855,4.6447 5.8818,6.62602 c 10.67669,12.02762 25.70254,33.76541 28.10655,40.66153 0.53187,1.52573 3.30779,7.01056 6.16871,12.18853 C 562.16355,184.60565 576,219.9049 576,224.9591 c 0,2.06111 -2.58458,0.88748 -7.15172,-3.24752 C 530.46573,186.96075 505.09231,166 501.40828,166 c -0.97227,0 -2.45341,1.99061 -11.13947,14.97118 -17.43968,26.0621 -29.00033,40.61835 -31.5771,39.75936 -0.87899,-0.29302 -1.21621,-7.32935 -1.28506,-26.81391 -0.0774,-21.91342 -0.45991,-28.68856 -2.24371,-39.74419 -1.1827,-7.33016 -2.53354,-14.01225 -3.00186,-14.84909 C 450.64167,136.60831 419.42402,125 413.64203,125 c -1.23312,0 -2.66953,-0.41593 -3.19203,-0.92428 -0.5225,-0.50835 -4.1,-1.68904 -7.95,-2.62375 -3.85,-0.93472 -9.025,-2.27269 -11.5,-2.97328 -12.10395,-3.4262 -51.00009,-8.86289 -72.5,-10.13365 -16.50059,-0.97527 -53.79899,-0.59672 -72.5,0.73582 -23.93406,1.70543 -56.4155,7.46716 -78.41058,13.90889 -8.54755,2.50333 -27.76009,9.06182 -39.22325,13.38944 -5.18171,1.95622 -6.03103,3.28254 -7.28518,11.37669 -0.65996,4.25927 -1.70291,10.66912 -2.31768,14.24412 -0.63893,3.71555 -1.09325,17.53072 -1.06054,32.25 l 0.0572,25.75 h -2.24976 C 112.87333,220 102.70579,207.08588 86,182.51812 73.156444,163.63022 73.376731,163.86588 71.130954,166.6114 c -0.949895,1.16127 -5.121218,4.76127 -9.269607,8 C 43.807495,188.7064 27.049257,202.95771 11.722259,217.25 5.9715342,222.6125 0.98145692,227 0.63319801,227 0.2849391,227 0.00487093,225.5375 0.01082429,223.75 Z m 6.11673101,-5.42013 c 4.9291587,-5.99832 41.2458827,-36.7351 58.6884787,-49.67119 l 10.316034,-7.65077 11.792295,17.74605 c 6.485763,9.76032 15.343547,22.24072 19.683967,27.73422 l 7.89167,9.98818 0.66176,-24.98818 c 0.583,-22.01461 2.24983,-40.45239 4.65283,-51.46783 0.69949,-3.20652 1.38413,-3.74229 8.72224,-6.82569 28.08983,-11.80307 66.28462,-21.2315 104.46317,-25.78687 18.10171,-2.15985 71.71425,-3.02049 92.09894,-1.47846 44.49077,3.36557 85.04849,12.38008 120.61946,26.80934 l 9.2184,3.73941 1.06466,4.96433 c 2.19771,10.24756 4.04722,30.76056 4.67206,51.81813 0.63831,21.51119 0.66812,21.74037 2.60174,20 3.42336,-3.08121 16.70504,-21.25146 26.99321,-36.92856 l 9.95409,-15.16801 7.13872,5.04728 c 11.41541,8.07104 33.95067,26.51271 49.62769,40.61269 7.96893,7.1673 14.60547,12.91496 14.74785,12.77258 0.50202,-0.50202 -4.54758,-14.356 -9.68014,-26.55827 C 549.1459,162.3439 534.38087,137.98511 517.48161,119.5 l -4.57105,-5 -1.70528,2.48478 c -6.83628,9.96121 -14.36495,18.9074 -19.52617,23.20261 l -6.06836,5.05013 -1.79232,-2.21342 c -3.86652,-4.77495 -5.77223,-17.98613 -5.79862,-40.19835 L 478,86.151496 467.25,79.530898 C 416.02186,47.981047 354.47329,33.640218 277.5,35.319109 c -28.49744,0.621568 -38.4184,1.469869 -61.1223,5.226321 -44.30437,7.330337 -83.50135,22.08018 -114.47678,43.077665 l -3.599072,2.439726 -0.636862,19.218589 c -0.799191,24.11714 -3.322433,37.60569 -7.321822,39.1404 -2.089238,0.80172 -15.344085,-12.3243 -21.404572,-21.19654 -2.902359,-4.2489 -5.434132,-7.92103 -5.626161,-8.16029 -0.694932,-0.86587 -8.615401,7.6312 -15.319774,16.43502 -16.306151,21.41237 -29.798461,47.34168 -42.0182302,80.75 -2.7435236,7.50067 -2.6921044,9.54224 0.1531285,6.07987 z"
       id="path1499" />
  </g>
</svg>
