<?xml version="1.0" encoding="UTF-8" standalone="no"?>
<!-- Created with Inkscape (http://www.inkscape.org/) -->

<svg
   version="1.1"
   id="svg1506"
   width="2289"
   height="2289"
   viewBox="0 0 2289 2289"
   sodipodi:docname="Horns2.svg"
   inkscape:version="1.2.1 (9c6d41e410, 2022-07-14)"
   xmlns:inkscape="http://www.inkscape.org/namespaces/inkscape"
   xmlns:sodipodi="http://sodipodi.sourceforge.net/DTD/sodipodi-0.dtd"
   xmlns="http://www.w3.org/2000/svg"
   xmlns:svg="http://www.w3.org/2000/svg">
  <defs
     id="defs1510" />
  <sodipodi:namedview
     id="namedview1508"
     pagecolor="#505050"
     bordercolor="#eeeeee"
     borderopacity="1"
     inkscape:showpageshadow="0"
     inkscape:pageopacity="0"
     inkscape:pagecheckerboard="0"
     inkscape:deskcolor="#505050"
     showgrid="false"
     inkscape:zoom="0.37003058"
     inkscape:cx="1144.5"
     inkscape:cy="1062.0744"
     inkscape:window-width="1920"
     inkscape:window-height="1027"
     inkscape:window-x="-8"
     inkscape:window-y="-8"
     inkscape:window-maximized="1"
     inkscape:current-layer="g1512" />
  <g
     inkscape:groupmode="layer"
     inkscape:label="Image"
     id="g1512">
    <path
       style="fill:#000000"
       d="m 521.5,1363.8553 c -1.65,-0.2056 -6.15,-1.0791 -10,-1.9412 -23.88801,-5.3486 -38.50458,-14.3411 -52.63949,-32.3852 -9.11862,-11.6405 -26.75742,-46.0931 -38.90994,-76 -4.67584,-11.5071 -14.93876,-43.7829 -19.07852,-60 -1.51417,-5.9316 -4.91799,-22.207 -5.8559,-28 -5.56494,-34.372 -6.82167,-46.8791 -8.99313,-89.5 -1.33594,-26.2216 1.0009,-102.34798 4.58918,-149.49998 0.81618,-10.725 1.91461,-28.275 2.44097,-39 1.41709,-28.8747 2.8457,-53.5683 3.56664,-61.6494 1.18435,-13.2755 3.23214,-12.4131 8.66465,3.6494 14.69408,43.4464 22.51109,61.8433 45.46509,107 25.84033,50.8349 42.06126,76.03778 67.25745,104.49998 31.39045,35.4594 55.21154,55.2386 104.6843,86.9222 5.94478,3.8071 17.22337,11.1333 25.06352,16.2802 7.84015,5.147 19.31515,12.43 25.5,16.1846 37.66789,22.8663 44.98081,27.195 51.74518,30.6292 10.38416,5.2719 11.16067,6.0478 10.41031,10.4014 -1.61276,9.3573 -14.55265,37.928 -25.35358,55.9795 -8.70131,14.5425 -20.33672,28.6145 -38.63395,46.7244 -20.47221,20.2626 -34.2702,30.3503 -57.13808,41.7738 -20.21457,10.098 -36.91879,15.0187 -59.49529,17.5262 -9.15848,1.0172 -26.66802,1.2302 -33.28941,0.4049 z m 1211.5,-0.7765 c -16.3415,-3.0194 -49.7677,-12.0252 -57,-15.3572 -2.475,-1.1403 -7.3077,-3.1916 -10.7393,-4.5586 -37.0063,-14.7408 -84.3155,-66.7772 -107.1957,-117.9069 -3.2578,-7.2802 -9.065,-25.1723 -9.065,-27.9295 0,-1.347 1.0125,-3.3537 2.25,-4.4595 2.2907,-2.0467 12.3392,-8.3382 13.3175,-8.3382 0.2957,0 7.6014,-3.9943 16.235,-8.8762 8.6336,-4.882 18.6225,-10.5299 22.1975,-12.551 3.575,-2.0211 13.025,-7.7192 21,-12.6626 7.975,-4.9433 16.525,-10.1794 19,-11.6357 2.475,-1.4563 7.5136,-4.5889 11.1968,-6.9612 3.6832,-2.3723 7.1293,-4.3133 7.6579,-4.3133 2.5559,0 26.4835,-16.9415 43.0778,-30.5003 4.7121,-3.8502 11.0425,-8.847 14.0675,-11.104 5.8112,-4.3358 21.9765,-19.1849 30.9218,-28.4041 24.0663,-24.8032 39.3736,-45.0866 59.8017,-79.24248 19.7588,-33.0366 27.606,-47.8024 35.739,-67.2491 3.6803,-8.8 7.3319,-17.418 8.1145,-19.1511 0.7827,-1.7331 1.423,-3.4571 1.423,-3.831 0,-0.374 1.6206,-3.906 3.6013,-7.8489 3.3226,-6.6143 15.4092,-37.8097 20.9581,-54.0927 1.2978,-3.8081 3.0266,-7.5908 3.8418,-8.4061 1.3098,-1.3098 1.5439,-1.2022 2.011,0.9237 1.1503,5.2352 6.2298,78.7726 7.6262,110.4061 1.2507,28.3329 2.3435,50.3693 4.0418,81.49998 0.645,11.825 1.1471,36.8 1.1156,55.5 -0.048,28.4373 -0.4049,36.7752 -2.1827,50.9628 -1.169,9.3295 -2.524,19.0045 -3.0112,21.5 -0.4871,2.4954 -1.8354,9.7122 -2.9961,16.0372 -1.1607,6.325 -2.7545,14.2 -3.5418,17.5 -16.1283,67.6019 -19.8304,78.2246 -43.9124,126 -11.3491,22.5152 -17.2211,32.3733 -25.6606,43.0798 -8.0624,10.2283 -12.8874,12.7145 -36.891,19.0091 -11.2479,2.9496 -15.6687,3.6075 -26.5,3.9435 -8.4839,0.2631 -15.6054,-0.078 -20.5,-0.9825 z"
       id="path1518" />
  </g>
</svg>
