<?xml version="1.0" standalone="no"?>
<!DOCTYPE svg PUBLIC "-//W3C//DTD SVG 20010904//EN"
 "http://www.w3.org/TR/2001/REC-SVG-20010904/DTD/svg10.dtd">
<svg version="1.0" xmlns="http://www.w3.org/2000/svg"
 width="512.000000pt" height="512.000000pt" viewBox="0 0 512.000000 512.000000"
 preserveAspectRatio="xMidYMid meet">

<g transform="translate(0.000000,512.000000) scale(0.100000,-0.100000)"
fill="#000000" stroke="none">
<path d="M3192 4798 c-44 -115 -78 -185 -88 -181 -6 2 -17 -10 -24 -26 -11
-28 -8 -35 80 -168 93 -139 127 -183 141 -183 18 0 49 46 49 72 0 16 7 45 15
65 24 57 20 171 -10 248 -13 36 -23 71 -21 78 1 6 1 8 -2 3 -2 -4 -18 16 -34
45 -29 54 -65 99 -79 99 -4 0 -16 -24 -27 -52z"/>
<path d="M2025 4830 c3 -5 14 -10 24 -10 10 0 81 -31 157 -69 136 -68 154 -66
24 3 -55 29 -192 86 -207 86 -2 0 -1 -4 2 -10z"/>
<path d="M2355 4673 c9 -9 112 -92 189 -152 30 -24 30 -23 -4 13 -19 20 -57
54 -85 75 -53 41 -117 81 -100 64z"/>
<path d="M2390 4526 c0 -2 22 -18 49 -35 26 -17 56 -40 66 -51 10 -11 23 -20
29 -20 12 1 -23 32 -88 81 -35 26 -56 36 -56 25z"/>
<path d="M2605 4460 c10 -11 20 -20 23 -20 3 0 -3 9 -13 20 -10 11 -20 20 -23
20 -3 0 3 -9 13 -20z"/>
<path d="M2629 4322 c35 -40 67 -75 73 -78 5 -3 48 -58 95 -122 118 -160 143
-183 44 -42 -58 84 -167 213 -227 270 -42 39 -40 36 15 -28z"/>
<path d="M3022 4385 c2 -5 35 -59 75 -118 86 -128 178 -314 224 -452 27 -80
34 -94 37 -70 2 17 18 45 35 63 33 34 23 43 -19 16 -14 -10 -28 -13 -33 -8 -5
5 -27 55 -49 110 -58 143 -115 257 -149 301 -17 21 -42 56 -56 78 -29 45 -70
95 -65 80z"/>
<path d="M3190 4172 c0 -4 16 -24 37 -43 l36 -34 -33 43 c-34 43 -40 48 -40
34z"/>
<path d="M350 4053 c-6 -37 -13 -99 -16 -138 -2 -48 3 -27 16 65 20 141 21
189 0 73z"/>
<path d="M3060 4099 c0 -3 18 -44 39 -91 56 -121 98 -245 130 -382 l27 -119
13 57 c7 31 16 56 21 56 9 0 60 -134 60 -158 0 -9 -13 -36 -28 -58 l-28 -42
-13 62 c-18 85 -22 91 -16 21 3 -33 8 -99 12 -148 6 -90 18 -113 15 -29 -2 35
5 60 26 96 63 114 73 32 12 -95 -66 -138 -53 -152 48 -53 37 36 84 82 104 102
21 21 38 41 38 45 0 5 14 20 30 34 25 21 30 32 30 71 0 26 -4 53 -9 61 -11 17
-14 15 -86 -48 l-39 -35 -27 85 c-32 100 -37 98 -9 -3 24 -87 24 -87 1 -117
l-18 -23 -48 138 c-48 136 -159 374 -209 447 -14 21 -26 41 -26 45 -1 9 -50
89 -50 81z m171 -331 c22 -50 25 -66 17 -83 -6 -11 -13 -15 -14 -10 -2 6 -14
48 -28 94 -28 94 -17 94 25 -1z m26 -160 c-3 -8 -6 -5 -6 6 -1 11 2 17 5 13 3
-3 4 -12 1 -19z"/>
<path d="M3318 4020 c65 -87 144 -205 171 -257 23 -47 36 -58 21 -18 -21 56
-137 224 -210 305 -18 19 -10 6 18 -30z"/>
<path d="M2740 3943 c0 -5 10 -18 23 -29 l22 -19 -20 25 c-11 14 -21 27 -22
29 -2 2 -3 0 -3 -6z"/>
<path d="M32 3840 c0 -19 2 -27 5 -17 2 9 2 25 0 35 -3 9 -5 1 -5 -18z"/>
<path d="M1701 3853 c-16 -32 -91 -278 -91 -301 0 -41 102 -215 163 -279 52
-56 79 -41 123 68 32 78 29 136 -11 254 -36 104 -64 160 -114 223 -45 56 -55
61 -70 35z m60 -45 c108 -148 163 -345 125 -448 -13 -33 -13 -31 -8 32 3 47
-1 87 -13 130 -22 79 -85 203 -131 257 -21 24 -34 48 -30 56 9 25 24 17 57
-27z"/>
<path d="M2890 3724 c0 -5 6 -18 14 -29 17 -26 117 -252 146 -333 12 -34 25
-61 27 -58 3 2 -9 42 -26 88 -37 102 -39 120 -5 55 14 -27 28 -47 31 -44 2 3
-32 70 -77 149 -91 158 -110 187 -110 172z"/>
<path d="M336 3590 c3 -63 10 -133 14 -155 10 -46 4 72 -10 195 -7 63 -8 56
-4 -40z"/>
<path d="M3540 3673 c0 -5 18 -49 40 -96 22 -47 62 -153 91 -234 49 -143 88
-232 89 -205 0 7 -9 30 -19 50 -10 20 -29 71 -42 112 -36 120 -159 409 -159
373z"/>
<path d="M3377 3639 c4 -13 8 -18 11 -10 2 7 -1 18 -6 23 -8 8 -9 4 -5 -13z"/>
<path d="M2460 3606 c0 -10 40 -76 46 -76 3 0 -2 12 -10 28 -22 40 -36 58 -36
48z"/>
<path d="M2690 3583 c0 -5 4 -13 9 -18 32 -34 202 -351 241 -450 29 -73 50
-112 50 -91 0 35 -111 261 -222 453 -56 96 -78 126 -78 106z"/>
<path d="M509 3555 c-6 -26 16 -214 41 -345 11 -58 27 -145 36 -195 38 -216
174 -678 224 -765 19 -31 9 8 -26 105 -127 351 -225 781 -263 1155 -4 36 -9
56 -12 45z"/>
<path d="M2512 3512 c2 -4 35 -70 75 -147 86 -169 134 -282 184 -435 21 -63
38 -105 38 -93 1 11 -18 76 -40 143 -34 100 -39 124 -28 131 8 5 17 9 20 9 3
0 34 -60 69 -132 71 -148 68 -143 74 -137 9 9 -136 293 -214 419 -81 130 -165
250 -176 250 -3 0 -4 -3 -2 -8z m181 -267 c55 -91 64 -121 31 -108 -11 4 -98
168 -131 248 -13 30 50 -57 100 -140z"/>
<path d="M2007 3434 c12 -17 31 -64 42 -105 18 -67 20 -70 15 -24 l-5 50 40
-61 c22 -34 79 -135 127 -224 l86 -162 -73 -74 c-40 -41 -77 -74 -81 -74 -5 0
-8 17 -8 38 -1 75 -57 408 -67 398 -3 -2 2 -42 11 -88 33 -184 58 -413 71
-678 7 -124 -7 -346 -23 -391 -8 -20 -12 -14 -32 46 -12 39 -49 144 -82 235
-33 91 -67 184 -75 208 -9 23 -18 41 -20 38 -2 -2 8 -37 22 -77 15 -41 62
-175 105 -299 122 -352 181 -494 306 -743 93 -184 159 -287 258 -400 83 -93
83 -94 -32 -40 -87 40 -177 100 -214 141 -18 20 -38 38 -43 40 -6 1 -10 8 -10
15 -1 6 -6 11 -13 9 -7 -1 -12 7 -12 19 0 15 -5 19 -15 15 -10 -3 -15 1 -15
12 0 9 -27 51 -61 92 -60 75 -126 169 -205 290 -23 36 -53 77 -66 91 -13 14
-22 31 -20 37 2 6 -9 24 -24 39 -16 15 -27 29 -26 31 6 7 0 21 -18 42 -11 13
-20 29 -20 37 0 7 -4 13 -8 13 -5 0 -17 18 -27 40 -10 22 -22 40 -27 40 -25 0
130 -291 260 -485 82 -123 134 -188 225 -281 65 -67 146 -141 180 -164 91 -61
407 -212 407 -195 0 3 -21 16 -47 29 -27 13 -63 40 -82 60 l-34 35 34 53 c118
188 195 277 303 351 l41 27 -178 -4 c-99 -3 -182 -7 -185 -10 -6 -6 56 -8 178
-6 41 1 72 -1 68 -5 -10 -10 -278 -11 -278 -1 0 4 -7 5 -16 2 -9 -4 -23 -1
-30 5 -11 9 -14 9 -14 0 0 -9 -5 -9 -21 -1 -11 7 -23 9 -26 6 -3 -3 -23 4 -44
14 -21 11 -47 20 -58 20 -27 0 -35 17 -14 28 14 8 5 16 -48 42 -35 18 -68 40
-74 49 -16 27 -94 210 -131 306 -33 88 -34 92 -24 170 6 44 14 118 18 165 4
47 12 85 17 85 65 3 87 19 219 148 125 125 210 188 326 244 14 6 36 20 49 31
33 27 13 37 -70 36 l-65 -1 -53 109 c-30 60 -66 128 -81 151 -14 23 -45 74
-68 112 -23 39 -52 81 -63 95 -20 23 -20 22 1 -15 13 -22 54 -93 92 -158 89
-152 152 -283 144 -302 -9 -25 -30 -17 -50 18 -34 59 -139 211 -213 310 -79
104 -111 135 -42 40 87 -121 93 -132 79 -148 -7 -8 -16 -15 -20 -15 -10 0
-101 190 -103 215 -1 18 -70 117 -127 185 l-22 25 19 -30 c69 -108 165 -291
204 -387 10 -26 28 -72 40 -100 21 -54 69 -212 68 -226 0 -4 -53 99 -117 228
-169 338 -287 539 -340 582 -10 8 -8 1 5 -18z m408 -484 c-3 -5 -12 -10 -18
-10 -7 0 -6 4 3 10 19 12 23 12 15 0z m63 -52 c16 -24 36 -57 45 -74 l16 -32
-40 -27 c-21 -16 -41 -26 -42 -24 -7 10 -31 68 -48 116 -18 53 -18 53 4 68 30
21 33 20 65 -27z m-106 -120 c72 -150 74 -159 43 -213 -29 -48 -198 -195 -226
-195 -4 0 -9 46 -13 103 -3 56 -9 138 -12 182 l-6 81 56 54 c52 50 91 79 108
80 3 0 26 -42 50 -92z m193 -18 c5 -16 -3 -30 -37 -59 -46 -42 -58 -43 -58 -6
0 15 13 35 37 54 44 37 50 37 58 11z m-178 -1250 l38 -20 -30 0 c-19 0 -35 7
-43 20 -7 11 -10 20 -7 20 3 0 22 -9 42 -20z m13 -75 c14 -19 14 -19 -2 -6
-10 7 -18 18 -18 24 0 6 1 8 3 6 1 -2 9 -13 17 -24z m158 -270 c-3 -3 -9 2
-12 12 -6 14 -5 15 5 6 7 -7 10 -15 7 -18z"/>
<path d="M362 3360 c0 -19 2 -27 5 -17 2 9 2 25 0 35 -3 9 -5 1 -5 -18z"/>
<path d="M3127 3295 c20 -41 39 -73 41 -71 4 5 -66 146 -73 146 -3 0 12 -34
32 -75z"/>
<path d="M372 3300 c0 -14 2 -19 5 -12 2 6 2 18 0 25 -3 6 -5 1 -5 -13z"/>
<path d="M3081 3275 c1 -19 18 -51 18 -35 0 8 -4 22 -9 30 -5 8 -9 11 -9 5z"/>
<path d="M382 3250 c0 -14 2 -19 5 -12 2 6 2 18 0 25 -3 6 -5 1 -5 -13z"/>
<path d="M3101 3210 c0 -8 6 -37 14 -65 l15 -50 -7 45 c-6 48 -21 96 -22 70z"/>
<path d="M3180 3185 c0 -5 5 -17 10 -25 5 -8 10 -10 10 -5 0 6 -5 17 -10 25
-5 8 -10 11 -10 5z"/>
<path d="M3767 3100 c13 -54 88 -219 91 -202 2 10 -20 66 -47 123 -28 57 -48
93 -44 79z"/>
<path d="M1790 2955 c0 -6 13 -46 29 -90 85 -236 104 -285 108 -281 3 3 -23
82 -57 177 -59 166 -79 215 -80 194z"/>
<path d="M3352 2898 c8 -12 34 -38 59 -57 43 -34 43 -33 -11 22 -58 61 -71 71
-48 35z"/>
<path d="M3530 2657 c4 -41 5 -41 8 -8 2 18 0 37 -5 42 -5 5 -6 -11 -3 -34z"/>
<path d="M1350 2653 c4 -16 18 -59 30 -98 70 -231 92 -324 73 -312 -5 3 -10 1
-10 -6 -6 -87 -11 -102 -42 -114 -47 -20 -37 -24 14 -6 25 8 59 13 74 11 l28
-4 -19 70 c-18 64 -64 221 -121 414 -12 39 -25 72 -29 72 -4 0 -3 -12 2 -27z
m137 -499 c-3 -3 -12 -4 -19 -1 -8 3 -5 6 6 6 11 1 17 -2 13 -5z"/>
<path d="M3937 2410 c-7 -77 -28 -167 -90 -375 -37 -126 -51 -197 -63 -328 -8
-90 -16 -102 -104 -147 -64 -32 -128 -54 -220 -75 -61 -14 -62 -14 -17 -11 26
2 49 0 52 -4 27 -43 207 -712 310 -1149 41 -172 77 -316 81 -320 4 -3 4 7 1
24 -4 17 -16 73 -27 125 -11 52 -24 131 -30 175 -6 44 -12 96 -15 115 -3 19
-9 82 -15 140 -13 131 -48 373 -61 423 -14 54 -39 200 -35 204 2 2 26 -70 55
-159 28 -90 69 -217 91 -283 21 -66 52 -181 70 -255 72 -311 123 -510 131
-510 5 0 9 3 9 8 0 4 5 63 10 132 10 145 -2 554 -24 800 -8 91 -18 201 -21
245 -7 96 -31 294 -52 425 -8 52 -18 131 -23 175 -22 198 -39 308 -49 314 -12
8 -2 75 25 171 23 80 32 147 24 183 -5 26 -8 18 -13 -43z"/>
<path d="M330 2248 c0 -17 88 -473 105 -545 8 -34 16 -72 16 -85 1 -15 3 -17
6 -7 6 25 -46 323 -99 557 -19 84 -28 111 -28 80z"/>
<path d="M3546 2170 c-22 -17 -84 -53 -138 -80 -54 -28 -98 -53 -98 -55 0 -17
200 91 250 134 45 39 37 39 -14 1z"/>
<path d="M242 2150 c0 -14 2 -19 5 -12 2 6 2 18 0 25 -3 6 -5 1 -5 -13z"/>
<path d="M251 2080 c0 -25 8 -88 18 -140 11 -52 28 -140 40 -195 11 -55 34
-176 51 -270 17 -93 35 -186 40 -205 l8 -35 1 35 c0 19 -8 82 -18 140 -34 188
-111 594 -125 655 l-14 60 -1 -45z"/>
<path d="M1346 2068 c-10 -40 -6 -103 10 -154 25 -78 32 -113 25 -116 -4 -2
-22 -59 -40 -128 -37 -145 -86 -301 -107 -348 -24 -52 -105 -488 -103 -554 0
-18 9 14 19 72 22 126 32 156 103 296 92 182 201 358 235 376 32 17 67 -5 115
-74 l39 -55 -40 -80 c-42 -83 -166 -292 -329 -556 -54 -87 -111 -180 -128
-207 -16 -28 -35 -48 -41 -46 -20 7 -56 -304 -52 -444 1 -43 2 -47 5 -15 37
439 17 371 178 625 51 80 114 183 141 230 26 47 68 113 93 146 26 34 51 70 58
80 11 18 11 18 6 -2 -4 -19 1 -22 42 -26 25 -3 49 -9 52 -12 10 -10 -25 -134
-79 -285 -32 -90 -45 -143 -41 -159 6 -24 6 -24 20 9 8 19 41 117 74 219 33
102 64 191 68 199 8 16 41 24 41 10 0 -6 4 -7 10 -4 9 5 49 -10 60 -24 3 -3
20 -11 38 -18 29 -10 33 -10 28 3 -13 35 7 8 50 -66 26 -44 48 -80 50 -80 2 0
-8 26 -22 58 -59 133 -161 399 -214 557 -31 93 -59 163 -61 156 -7 -20 -134
35 -180 79 -21 20 -55 71 -76 116 -34 71 -38 87 -38 161 0 46 -1 83 -1 83 -1
0 -4 -10 -8 -22z"/>
<path d="M1535 2038 l5 -28 -59 0 c-81 0 -106 -26 -81 -85 7 -16 9 -13 9 17 1
44 4 46 68 54 40 4 53 2 68 -12 17 -17 17 -16 10 17 -4 19 -12 41 -17 49 -7
11 -8 7 -3 -12z"/>
<path d="M3278 2024 c-4 -3 -46 -21 -95 -39 -48 -19 -82 -34 -75 -35 15 0 160
55 182 70 8 5 10 10 4 10 -6 0 -13 -3 -16 -6z"/>
<path d="M3494 1998 l-19 -23 25 20 c14 11 27 21 29 22 2 2 0 3 -6 3 -5 0 -18
-10 -29 -22z"/>
<path d="M2949 1939 c-6 -12 -11 -36 -12 -54 -1 -33 25 -85 43 -85 6 0 1 9
-10 20 -22 22 -27 88 -10 121 6 10 8 19 6 19 -3 0 -10 -10 -17 -21z"/>
<path d="M2991 1949 c8 -5 34 -8 59 -8 53 1 44 6 -24 12 -30 3 -43 1 -35 -4z"/>
<path d="M3274 1864 c-18 -14 -18 -15 4 -4 12 6 22 13 22 15 0 8 -5 6 -26 -11z"/>
<path d="M3205 1830 c-22 -10 -34 -19 -27 -19 14 -1 72 27 72 34 0 6 3 7 -45
-15z"/>
<path d="M1601 1814 c0 -11 3 -14 6 -6 3 7 2 16 -1 19 -3 4 -6 -2 -5 -13z"/>
<path d="M3070 1800 l-55 -7 50 0 c28 -1 61 3 75 7 31 10 10 10 -70 0z"/>
<path d="M1622 1750 c0 -8 6 -31 13 -50 7 -19 13 -28 13 -20 0 8 -6 31 -13 50
-7 19 -13 28 -13 20z"/>
<path d="M460 1568 c0 -14 5 -50 11 -79 16 -83 56 -343 70 -453 18 -148 6
-316 -45 -596 -14 -78 -40 -193 -52 -230 -4 -13 -3 -12 11 1 9 9 17 25 18 37
1 12 4 22 8 22 4 0 19 33 34 73 14 39 30 79 34 87 4 8 14 40 22 70 l14 55 6
-85 c4 -47 8 -141 9 -210 1 -69 6 -156 10 -195 11 -101 1 423 -11 585 -14 185
-52 469 -101 760 -28 170 -38 210 -38 158z"/>
<path d="M1750 1504 c1 -56 122 -377 181 -480 71 -126 225 -275 283 -274 17 1
15 3 -9 14 l-30 13 25 6 c42 10 165 19 159 12 -4 -3 -29 -15 -55 -25 -27 -11
-42 -19 -33 -20 8 0 55 16 103 36 49 19 94 33 100 31 7 -3 37 2 67 10 34 9
129 17 254 21 192 7 196 7 105 14 -52 5 -133 3 -180 -2 -329 -37 -577 26 -732
188 -87 92 -140 184 -188 331 -38 116 -50 148 -50 125z m210 -465 c0 -6 -4 -7
-10 -4 -5 3 -10 11 -10 16 0 6 5 7 10 4 6 -3 10 -11 10 -16z m226 -155 c18
-14 18 -14 -6 -3 -31 14 -36 19 -24 19 6 0 19 -7 30 -16z m8 -64 c9 0 16 -4
16 -10 0 -16 -63 -12 -88 6 -12 8 -26 24 -32 34 -9 18 -6 17 39 -5 27 -14 56
-25 65 -25z"/>
<path d="M3078 1443 c7 -3 16 -2 19 1 4 3 -2 6 -13 5 -11 0 -14 -3 -6 -6z"/>
<path d="M1950 867 c0 -4 5 -16 12 -27 19 -30 4 -33 -42 -10 -23 12 -44 19
-47 16 -6 -6 40 -29 89 -45 20 -7 43 -23 52 -36 46 -71 118 -109 193 -103 30
3 59 10 66 17 9 10 6 11 -18 4 -104 -28 -178 6 -257 122 -27 38 -48 66 -48 62z"/>
<path d="M3160 821 c30 -10 66 -23 79 -30 13 -7 21 -8 17 -3 -8 13 -111 52
-134 51 -9 0 8 -9 38 -18z"/>
<path d="M2380 759 l-35 -31 33 19 c35 19 61 43 46 43 -5 0 -25 -14 -44 -31z"/>
<path d="M316 719 c-3 -13 -11 -80 -17 -149 -10 -120 -33 -286 -65 -473 -9
-49 -13 -91 -10 -94 10 -10 15 16 50 252 36 235 61 473 52 482 -3 3 -7 -5 -10
-18z"/>
<path d="M1110 631 c-7 -55 -10 -106 -8 -113 3 -7 10 36 18 95 7 59 11 110 8
113 -3 3 -11 -40 -18 -95z"/>
<path d="M2304 704 c-18 -14 -18 -15 4 -4 12 6 22 13 22 15 0 8 -5 6 -26 -11z"/>
<path d="M1471 507 c-46 -122 -165 -355 -224 -439 -26 -38 -43 -68 -38 -68 10
0 94 132 155 242 23 40 35 55 38 43 1 -10 27 55 57 144 29 89 52 164 50 166
-2 2 -20 -38 -38 -88z"/>
<path d="M1444 513 c-65 -153 -138 -289 -209 -393 -41 -60 -75 -112 -75 -115
0 -37 154 199 223 340 39 80 98 227 93 232 -2 2 -16 -27 -32 -64z"/>
<path d="M3591 284 c0 -11 3 -14 6 -6 3 7 2 16 -1 19 -3 4 -6 -2 -5 -13z"/>
<path d="M1371 199 c-6 -18 -9 -34 -7 -36 2 -2 9 10 15 28 6 18 9 34 7 36 -2
2 -9 -10 -15 -28z"/>
<path d="M436 173 c-6 -14 -5 -15 5 -6 7 7 10 15 7 18 -3 3 -9 -2 -12 -12z"/>
<path d="M1346 135 c-9 -26 -7 -32 5 -12 6 10 9 21 6 23 -2 3 -7 -2 -11 -11z"/>
</g>
</svg>
