<?xml version="1.0" standalone="no"?>
<!DOCTYPE svg PUBLIC "-//W3C//DTD SVG 20010904//EN"
 "http://www.w3.org/TR/2001/REC-SVG-20010904/DTD/svg10.dtd">
<svg version="1.0" xmlns="http://www.w3.org/2000/svg"
 width="512.000000pt" height="512.000000pt" viewBox="0 0 512.000000 512.000000"
 preserveAspectRatio="xMidYMid meet">
<metadata>
Created by potrace 1.16, written by Peter Selinger 2001-2019
</metadata>
<g transform="translate(0.000000,512.000000) scale(0.100000,-0.100000)"
fill="#000000" stroke="none">
<path d="M3222 4878 c-5 -7 -29 -60 -52 -118 -51 -126 -57 -135 -78 -118 -13
11 -14 10 -8 -8 4 -12 1 -33 -5 -47 -10 -23 -3 -37 81 -163 93 -140 127 -184
141 -184 5 0 20 12 34 27 14 15 25 23 25 17 0 -5 7 -19 15 -30 10 -13 9 -6 -4
24 -18 42 -18 45 -1 101 14 43 18 82 15 157 -3 91 -6 106 -42 184 -44 96 -89
170 -102 170 -5 0 -13 -6 -19 -12z"/>
<path d="M3060 4099 c0 -3 18 -44 39 -91 56 -121 98 -245 130 -382 l27 -119
13 57 c7 31 16 56 21 56 9 0 60 -134 60 -158 0 -9 -13 -36 -28 -58 l-28 -42
-13 62 c-18 85 -22 91 -16 21 3 -33 8 -99 12 -148 6 -90 18 -113 15 -29 -2 35
5 60 26 96 63 114 73 32 12 -95 -66 -138 -53 -152 48 -53 37 36 84 82 104 102
21 21 38 41 38 45 0 5 14 20 30 34 25 21 30 32 30 71 0 26 -4 53 -9 61 -11 17
-14 15 -86 -48 l-39 -35 -27 85 c-32 100 -37 98 -9 -3 24 -87 24 -87 1 -117
l-18 -23 -48 138 c-48 136 -159 374 -209 447 -14 21 -26 41 -26 45 -1 9 -50
89 -50 81z"/>
<path d="M1701 3853 c-16 -32 -91 -278 -91 -301 0 -41 102 -215 163 -279 52
-56 79 -41 123 68 32 78 29 136 -11 254 -36 104 -64 160 -114 223 -45 56 -55
61 -70 35z m60 -45 c108 -148 163 -345 125 -448 -13 -33 -13 -31 -8 32 3 47
-1 87 -13 130 -22 79 -85 203 -131 257 -21 24 -34 48 -30 56 9 25 24 17 57
-27z"/>
<path d="M509 3555 c-6 -26 16 -214 41 -345 11 -58 27 -145 36 -195 38 -216
174 -678 224 -765 19 -31 9 8 -26 105 -127 351 -225 781 -263 1155 -4 36 -9
56 -12 45z"/>
<path d="M2512 3512 c2 -4 35 -70 75 -147 86 -169 134 -282 184 -435 21 -63
38 -105 38 -93 1 11 -18 76 -40 143 -34 100 -39 124 -28 131 8 5 17 9 20 9 3
0 34 -60 69 -132 71 -148 68 -143 74 -137 9 9 -136 293 -214 419 -81 130 -165
250 -176 250 -3 0 -4 -3 -2 -8z"/>
<path d="M2007 3434 c12 -17 31 -64 42 -105 18 -67 20 -70 15 -24 l-5 50 40
-61 c22 -34 79 -135 127 -224 l86 -162 -73 -74 c-40 -41 -77 -74 -81 -74 -5 0
-8 17 -8 38 -1 75 -57 408 -67 398 -3 -2 2 -42 11 -88 33 -184 58 -413 71
-678 7 -124 -7 -346 -23 -391 -8 -20 -12 -14 -32 46 -12 39 -49 144 -82 235
-33 91 -67 184 -75 208 -9 23 -18 41 -20 38 -2 -2 8 -37 22 -77 15 -41 62
-175 105 -299 122 -352 181 -494 306 -743 93 -184 159 -287 258 -400 83 -93
83 -94 -32 -40 -87 40 -177 100 -214 141 -18 20 -38 38 -43 40 -6 1 -10 8 -10
15 -1 6 -6 11 -13 9 -7 -1 -12 7 -12 19 0 15 -5 19 -15 15 -10 -3 -15 1 -15
12 0 9 -27 51 -61 92 -60 75 -126 169 -205 290 -23 36 -53 77 -66 91 -13 14
-22 31 -20 37 2 6 -9 24 -24 39 -16 15 -27 29 -26 31 6 7 0 21 -18 42 -11 13
-20 29 -20 37 0 7 -4 13 -8 13 -5 0 -17 18 -27 40 -10 22 -22 40 -27 40 -25 0
131 -291 260 -485 111 -166 270 -346 377 -425 92 -68 426 -232 442 -217 3 3
-19 19 -49 36 -30 17 -67 44 -82 60 l-29 30 23 38 c57 98 175 254 224 296 91
79 107 85 251 97 72 6 168 15 214 20 47 5 87 8 89 5 10 -9 107 -345 177 -609
60 -228 205 -828 205 -851 0 -3 5 -5 11 -5 7 0 9 10 5 28 -31 146 -47 229 -56
297 -6 44 -12 96 -15 115 -3 19 -9 82 -15 140 -13 131 -48 373 -61 423 -14 54
-39 200 -35 204 2 2 26 -70 55 -159 28 -90 69 -217 91 -283 21 -66 52 -181 70
-255 72 -311 123 -510 131 -510 5 0 9 3 9 8 0 4 5 63 10 132 10 145 -2 554
-24 800 -8 91 -18 201 -21 245 -7 96 -31 294 -52 425 -8 52 -18 131 -23 175
-22 198 -39 308 -49 314 -13 8 -2 77 29 186 11 39 20 83 20 99 0 51 9 24 27
-84 9 -58 19 -98 21 -89 3 18 -34 236 -46 270 -7 17 -10 0 -15 -62 -6 -85 -25
-165 -90 -384 -37 -126 -51 -197 -63 -328 -7 -89 -16 -102 -99 -144 -157 -81
-386 -115 -839 -128 -81 -2 -151 -6 -154 -9 -6 -6 56 -8 178 -6 41 1 72 -1 68
-5 -10 -10 -278 -11 -278 -1 0 4 -7 5 -16 2 -9 -4 -23 -1 -30 5 -11 9 -14 9
-14 0 0 -9 -5 -9 -21 -1 -11 7 -23 9 -26 6 -3 -3 -23 4 -44 14 -21 11 -47 20
-58 20 -27 0 -35 17 -14 28 14 8 5 16 -48 42 -35 18 -68 40 -74 49 -16 27 -94
210 -131 306 -33 88 -34 92 -24 170 6 44 14 118 18 165 4 47 12 85 17 85 65 3
87 19 219 148 125 125 210 188 326 244 14 6 36 20 49 31 33 27 13 37 -70 36
l-65 -1 -53 109 c-30 60 -66 128 -81 151 -14 23 -45 74 -68 112 -23 39 -52 81
-63 95 -20 23 -20 22 1 -15 13 -22 54 -93 92 -158 89 -152 152 -283 144 -302
-9 -25 -30 -17 -50 18 -34 59 -139 211 -213 310 -79 104 -111 135 -42 40 87
-121 93 -132 79 -148 -7 -8 -16 -15 -20 -15 -10 0 -101 190 -103 215 -1 18
-70 117 -127 185 l-22 25 19 -30 c69 -108 165 -291 204 -387 10 -26 28 -72 40
-100 21 -54 69 -212 68 -226 0 -4 -53 99 -117 228 -169 338 -287 539 -340 582
-10 8 -8 1 5 -18z m471 -536 c16 -24 36 -57 45 -74 l16 -32 -40 -27 c-21 -16
-41 -26 -42 -24 -7 10 -31 68 -48 116 -18 53 -18 53 4 68 30 21 33 20 65 -27z
m-106 -120 c72 -150 74 -159 43 -213 -29 -48 -198 -195 -226 -195 -4 0 -9 46
-13 103 -3 56 -9 138 -12 182 l-6 81 56 54 c52 50 91 79 108 80 3 0 26 -42 50
-92z"/>
<path d="M226 2215 c3 -22 10 -78 15 -125 5 -47 15 -125 23 -175 20 -126 45
-381 56 -565 l9 -155 -5 180 c-5 159 -12 260 -29 408 -7 59 26 -97 64 -303 42
-227 52 -267 45 -176 -5 71 -41 273 -119 666 -43 216 -73 340 -59 245z"/>
<path d="M1346 2068 c-10 -40 -6 -103 10 -154 25 -78 32 -113 25 -116 -4 -2
-22 -59 -40 -128 -37 -145 -86 -301 -107 -348 -24 -52 -105 -488 -103 -554 0
-18 9 14 19 72 22 126 32 156 103 296 92 182 201 358 235 376 32 17 67 -5 115
-74 l39 -55 -40 -80 c-42 -83 -166 -292 -329 -556 -54 -87 -111 -180 -128
-207 -16 -28 -35 -48 -41 -46 -20 7 -56 -304 -52 -444 1 -43 2 -47 5 -15 37
439 17 371 178 625 51 80 114 183 141 230 26 47 68 113 93 146 26 34 51 70 58
80 11 18 11 18 6 -2 -4 -19 1 -22 42 -26 25 -3 49 -9 52 -12 10 -10 -25 -134
-79 -285 -32 -90 -45 -143 -41 -159 6 -24 6 -24 20 9 8 19 41 117 74 219 33
102 64 191 68 199 8 16 41 24 41 10 0 -6 4 -7 10 -4 9 5 49 -10 60 -24 3 -3
20 -11 38 -18 29 -10 33 -10 28 3 -13 35 7 8 50 -66 26 -44 48 -80 50 -80 2 0
-8 26 -22 58 -59 133 -161 399 -214 557 -31 93 -59 163 -61 156 -7 -20 -134
35 -180 79 -21 20 -55 71 -76 116 -34 71 -38 87 -38 161 0 46 -1 83 -1 83 -1
0 -4 -10 -8 -22z"/>
<path d="M460 1568 c0 -14 5 -50 11 -79 16 -83 56 -343 70 -453 18 -148 6
-316 -45 -596 -14 -78 -40 -193 -52 -230 -4 -13 -3 -12 11 1 9 9 17 25 18 37
1 12 4 22 8 22 4 0 19 33 34 73 14 39 30 79 34 87 4 8 14 40 22 70 l14 55 6
-85 c4 -47 8 -141 9 -210 1 -69 6 -156 10 -195 11 -101 1 423 -11 585 -14 185
-52 469 -101 760 -28 170 -38 210 -38 158z"/>
<path d="M1750 1504 c1 -56 122 -377 181 -480 71 -126 225 -275 283 -274 17 1
15 3 -9 14 l-30 13 25 6 c42 10 165 19 159 12 -4 -3 -29 -15 -55 -25 -27 -11
-42 -19 -33 -20 8 0 55 16 103 36 49 19 94 33 100 31 7 -3 37 2 67 11 42 12
110 15 299 16 227 1 250 -1 315 -21 88 -28 161 -77 251 -168 50 -50 83 -95
108 -146 20 -41 34 -63 30 -49 -23 89 -99 185 -221 283 -109 87 -151 102 -318
117 -66 6 -127 12 -135 13 -8 1 -73 -4 -145 -10 -216 -21 -246 -21 -341 -2
-199 38 -299 86 -396 187 -87 92 -140 184 -188 331 -38 116 -50 148 -50 125z"/>
</g>
</svg>
