<?xml version="1.0" encoding="UTF-8" standalone="no"?>
<!-- Created with Inkscape (http://www.inkscape.org/) -->

<svg
   version="1.1"
   id="svg59"
   width="1028"
   height="266"
   viewBox="0 0 1028 266"
   sodipodi:docname="IMG_0854.svg"
   inkscape:version="1.2.1 (9c6d41e410, 2022-07-14)"
   xmlns:inkscape="http://www.inkscape.org/namespaces/inkscape"
   xmlns:sodipodi="http://sodipodi.sourceforge.net/DTD/sodipodi-0.dtd"
   xmlns="http://www.w3.org/2000/svg"
   xmlns:svg="http://www.w3.org/2000/svg">
  <defs
     id="defs63" />
  <sodipodi:namedview
     id="namedview61"
     pagecolor="#505050"
     bordercolor="#eeeeee"
     borderopacity="1"
     inkscape:showpageshadow="0"
     inkscape:pageopacity="0"
     inkscape:pagecheckerboard="0"
     inkscape:deskcolor="#505050"
     showgrid="false"
     inkscape:zoom="1.0214529"
     inkscape:cx="502.7153"
     inkscape:cy="263.35037"
     inkscape:window-width="1920"
     inkscape:window-height="1027"
     inkscape:window-x="-8"
     inkscape:window-y="-8"
     inkscape:window-maximized="1"
     inkscape:current-layer="g65" />
  <g
     inkscape:groupmode="layer"
     inkscape:label="Image"
     id="g65">
    <path
       style="fill:#000000"
       d="m 560.61271,245.7194 c -0.35481,-0.5741 -0.19534,-1.5866 0.35438,-2.25 1.32581,-1.60001 2.90474,-16.88401 4.15447,-40.21527 1.24741,-23.28786 1.27031,-112.741478 0.0377,-147.465238 -6.92813,-45.9965399 23.32072,-6.76703 35.05173,3.02004 21.05911,17.57556 35.12225,29.02142 47.58716,38.73073 5.13787,4.002048 9.33804,7.827048 9.33369,8.499998 -0.009,1.34046 -15.4189,19.00769 -17.07406,19.57471 -1.11956,0.38354 -4.0279,-2.27024 -32.6859,-29.825038 -10.59732,-10.18937 -19.96753,-18.67792 -20.82268,-18.86345 -1.39803,-0.3033 -1.5104,6.65485 -1.1143,68.999998 0.25013,39.36903 0.89035,72.795 1.48128,77.33732 0.57241,4.4 1.32564,11.4875 1.67385,15.75 l 0.63311,7.75 h -13.98268 c -8.63431,0 -14.22944,-0.39926 -14.62779,-1.0438 z m -284.61222,-8.2062 c -11.49085,-13.45614 -31.97094,-36.00493 -46.80523,-51.53302 -8.55551,-8.95566 -15.71805,-16.75586 -15.91674,-17.33379 -0.1987,-0.57792 6.85584,-7.99464 15.67676,-16.4816 17.191,-16.54016 31.3298,-32.11275 40.64036,-44.76161 l 5.7856,-7.860018 9.37927,9.340268 c 5.1586,5.13715 9.37927,9.59987 9.37927,9.91715 0,0.31729 -3.0375,2.77704 -6.75,5.46611 -3.7125,2.68908 -9.9,7.58081 -13.75,10.87051 -10.13658,8.66139 -33.5,31.88909 -33.5,33.3054 0,0.66396 0.89081,1.83114 1.97958,2.59374 1.08877,0.76261 6.1664,5.40062 11.28362,10.30671 7.74638,7.42677 30.47646,27.88992 44.7368,40.27509 l 3.5,3.03977 -9.48025,9.55264 c -5.21414,5.25396 -9.78211,9.55265 -10.15106,9.55265 -0.36894,0 -3.07253,-2.8125 -6.00798,-6.25 z m 446.59704,-10.5 c 0.36445,-7.5625 1.08234,-20.05 1.59531,-27.75 1.44088,-21.62865 2.18372,-53.87725 1.26892,-55.08688 -2.89883,-3.83305 -34.17132,-24.37172 -46.59897,-30.60455 l -2.77699,-1.39274 8.366,-11.16495 8.36599,-11.164948 3.911,4.06592 c 5.38505,5.59837 25.42366,23.501878 28.28146,25.268098 1.13823,0.70346 1.27259,-3.69581 0.82584,-27.039898 -0.29346,-15.33403 -0.97047,-29.90505 -1.50447,-32.38005 -0.53399,-2.475 -1.27014,-7.425 -1.63589,-11 l -0.66498,-6.5 13.65745,0.30543 13.65745,0.30542 -0.53821,3.69458 c -2.62186,17.9978 -3.68068,37.0023 -3.43564,61.665248 l 0.26798,26.97068 9.5,6.78674 c 5.225,3.73271 15.125,10.14157 22,14.24192 6.875,4.10035 13.14659,7.84063 13.93688,8.31175 1.14297,0.68136 0.32162,2.27421 -4.01558,7.7874 -2.99885,3.81196 -6.73958,8.66256 -8.31273,10.77912 l -2.86029,3.84828 -6.62414,-6.422 c -8.73459,-8.46806 -21.65638,-19.77457 -22.59961,-19.77457 -0.99774,0 0.40065,46.06806 1.89719,62.5 1.73657,19.06763 2.9137,17.5 -13.14074,17.5 h -13.48587 z m 99.13067,8 c 0.21932,-3.1625 0.82176,-11.825 1.33875,-19.25 0.517,-7.425 0.98992,-16.2 1.05094,-19.5 0.061,-3.3 0.53456,-13.425 1.0523,-22.5 0.51774,-9.075 0.9477,-34.34458 0.95547,-56.15462 0.0136,-38.132378 -0.92495,-55.535398 -3.8324,-71.063728 -0.4859,-2.59509 -0.6442,-4.95759 -0.3518,-5.25 0.86476,-0.86475 29.03463,-0.60552 29.57708,0.27218 0.27324,0.44211 0.10552,2.57961 -0.37272,4.75 -0.47823,2.1704 -1.63641,12.94617 -2.57372,23.94617 -1.38732,16.28097 -1.59117,26.60129 -1.09624,55.499998 0.77135,45.03981 2.31392,87.28841 3.71443,101.73253 0.59901,6.1779 0.80614,11.6904 0.46028,12.25 -0.38072,0.61603 -6.48633,1.01747 -15.47498,1.01747 h -14.84615 z m 68.84377,-5.5 c 0.30407,-5.0875 1.04861,-17.575 1.65453,-27.75 0.60592,-10.175 1.17179,-51.23661 1.25748,-91.24802 0.10222,-47.730798 0.49969,-72.746838 1.1558,-72.744578 0.55,0.002 4.6,2.78736 9,6.18994 13.87195,10.72735 70.74587,53.26049 76.71206,57.369078 5.36378,3.69375 6.94993,5.82709 4.9073,6.60025 -0.48436,0.18333 -3.74686,2.85997 -7.25,5.94808 -3.50315,3.08812 -10.86936,9.55529 -16.36936,14.3715 -5.5,4.81621 -12.925,11.33698 -16.5,14.4906 -3.575,3.15362 -8.60881,7.48644 -11.18625,9.6285 -2.57744,2.14206 -4.71494,4.34928 -4.75,4.90494 -0.0752,1.19179 9.79215,8.65618 50.18625,37.96453 5.9125,4.28987 10.74298,8.07548 10.73439,8.41247 -0.0218,0.85616 -13.93896,18.55248 -14.84841,18.88045 -0.40834,0.14726 -13.99348,-10.33858 -30.18921,-23.30187 -16.19572,-12.96328 -30.23427,-24.0121 -31.19677,-24.55292 -1.6333,-0.91774 -1.74973,0.036 -1.74594,14.30187 0.002,8.40685 0.68036,22.63558 1.50696,31.61941 0.8266,8.98382 1.24822,16.74632 0.93693,17.25 -0.31129,0.50367 -5.96658,0.91577 -12.5673,0.91577 h -12.00132 z m 36.80731,-98.5 c 8.45596,-7.0125 18.15965,-15 21.56375,-17.75 3.40411,-2.75 6.19096,-5.50977 6.19302,-6.13282 0.002,-0.62305 -4.60877,-4.77338 -10.24627,-9.222938 -29.16797,-23.02169 -33.14597,-26.01755 -33.91545,-25.54198 -1.62051,1.00153 -0.89692,71.397738 0.73389,71.397738 0.16312,0 7.2151,-5.7375 15.67106,-12.75 z m -890.704886,101 c 0.242215,-2.6125 0.889115,-9.25 1.437558,-14.75 1.853464,-18.58729 2.527823,-48.7512 2.527823,-113.06887 V 40.125462 l 5.104103,4.06887 c 2.807257,2.23788 9.782257,7.86991 15.5,12.51563 5.717743,4.64571 20.425155,16.48275 32.683138,26.30453 l 22.287244,17.857778 4.21238,-3.304528 c 14.46198,-11.34518 57.27876,-45.93295 65.47075,-52.88786 1.24168,-1.05417 2.41899,-1.91668 2.61624,-1.91668 0.19725,0 0.6288,36.1125 0.95901,80.249998 0.33021,44.1375 1.02632,84.3 1.54691,89.25 0.52058,4.95 1.0981,12.375 1.28337,16.5 l 0.33686,7.5 -12.40293,0.28201 -12.40292,0.282 0.65842,-9.282 c 0.36214,-5.10511 1.09376,-13.55701 1.62583,-18.78201 0.53208,-5.225 0.95018,-14.225 0.92912,-20 l -0.0383,-10.5 -12.45944,-11 c -18.37324,-16.22109 -26.0659,-23.04822 -34.25739,-30.40296 -4.04117,-3.62837 -7.98242,-6.959 -8.75833,-7.40139 -0.98777,-0.56319 -4.18163,1.65547 -10.65242,7.39985 -5.082913,4.51231 -10.591665,9.37679 -12.241665,10.80995 -9.638039,8.37143 -29.278587,26.134 -30.864814,27.91361 -1.669787,1.87335 -1.797474,3.22106 -1.220917,12.88655 0.354143,5.93691 1.051391,15.29439 1.549439,20.79439 0.498048,5.5 1.200357,13.9375 1.560686,18.75 l 0.655144,8.75 H 50.276639 36.233985 l 0.440389,-4.75 z m 38.522621,-98.84708 c 7.393518,-5.8284 15.58026,-12.17061 18.19276,-14.09381 2.6125,-1.92319 4.750002,-3.84984 4.750002,-4.28144 0,-0.4316 -2.587502,-2.97361 -5.750002,-5.64891 -3.1625,-2.6753 -7.325,-6.27132 -9.25,-7.99115 -9.16946,-8.192188 -21.477214,-18.387608 -22.197242,-18.387608 -0.441517,0 -0.802758,13.725 -0.802758,30.499998 0,16.775 0.363258,30.5 0.80724,30.5 0.443983,0 6.856483,-4.76869 14.25,-10.59708 z M 171.69219,79.982282 c -0.26186,-0.26186 -6.63422,4.86923 -14.1608,11.40241 -7.52659,6.53318 -16.09376,13.827468 -19.03816,16.209528 -2.9444,2.38206 -5.35174,4.85706 -5.34964,5.5 0.004,1.26946 0.82631,1.92982 32.9115,26.43416 l 5.58469,4.26519 0.26425,-31.6676 c 0.14534,-17.417168 0.05,-31.881838 -0.21184,-32.143688 z M 408.24782,225.11052 c -7.91694,-8.00126 -9.17335,-9.69859 -8,-10.80758 0.76558,-0.72358 5.89196,-5.25306 11.39196,-10.06551 5.5,-4.81244 14.95,-13.35044 21,-18.97333 6.05,-5.62288 12.4625,-11.45086 14.25,-12.95105 1.7875,-1.5002 3.25,-3.31381 3.25,-4.03024 0,-0.71643 -12.6145,-13.70186 -28.03221,-28.85652 l -28.03221,-27.55392 35.10367,-34.804578 c 19.30702,-19.14252 35.41549,-34.91925 35.7966,-35.05938 0.38111,-0.14014 16.42733,15.5033 35.65827,34.7632 l 34.96534,35.017988 -26.22973,26.24375 c -14.42635,14.43406 -26.22973,26.69953 -26.22973,27.2566 0,0.55707 5.71639,6.17895 12.7031,12.49305 6.9867,6.31411 15.1992,13.77135 18.25,16.57164 3.05079,2.80028 8.9219,8.00854 13.0469,11.57389 4.125,3.56535 7.5,7.15632 7.5,7.97992 0,0.8236 -3.9471,5.72745 -8.77134,10.89743 l -8.77133,9.39997 -25.54947,-25.47133 -25.54948,-25.47132 -9.55591,10 c -5.25575,5.5 -15.84132,17.0875 -23.52349,25.75 -7.68217,8.6625 -14.26265,15.71384 -14.62328,15.66965 -0.36064,-0.0442 -4.88208,-4.35174 -10.04766,-9.57233 z m 81.36813,-94.26945 18.97617,-19.04992 -4.97617,-5.09068 C 489.50218,92.261922 465.92791,69.263202 465.2418,69.263202 c -1.14354,0 -41.10202,41.097038 -41.10202,42.273158 0,0.54676 1.9125,2.70271 4.25,4.791 2.3375,2.08828 9.2,8.37066 15.25,13.96084 23.10354,21.34759 23.40934,21.59645 25.2687,20.56408 0.95221,-0.5287 10.27058,-9.53374 20.70747,-20.01121 z m -187.33638,43.9843 c -5.14811,-4.89551 -9.19811,-9.33462 -9,-9.86469 0.19812,-0.53008 4.63521,-4.78402 9.86021,-9.45322 5.225,-4.6692 17.5306,-16.30928 27.34577,-25.86685 L 348.33132,112.2632 329.98555,94.203232 c -18.04934,-17.76815 -31.22333,-29.38072 -39.59577,-34.90273 -2.3375,-1.54169 -4.24996,-3.08077 -4.24991,-3.42018 1e-4,-0.73384 18.37479,-19.11712 19.10818,-19.11712 0.2783,0 2.71456,3.0375 5.41391,6.75 8.7013,11.96715 20.77427,25.27258 42.85614,47.23107 l 21.60176,21.481068 -5.28495,5.51893 c -6.62778,6.92121 -19.48456,21.34707 -27.19946,30.51893 -3.23842,3.85 -6.81226,8.00265 -7.94185,9.22812 -1.1296,1.22546 -6.32882,7.61307 -11.55382,14.19468 -5.225,6.58162 -9.95,11.98316 -10.5,12.00343 -0.55,0.0203 -5.21209,-3.96855 -10.36021,-8.86406 z"
       id="path177"
       sodipodi:nodetypes="sssccscsssssscsssssssscsssssssscssssssscccssssscccsscssssscsssscssssssssssssssscsssssssssssssssssscssscssssssssssscssscsssssscccssscsssssssssccccssssssssssssscscssssssssscssscssssssscccssssscssssssssssscsssssscssssss" />
  </g>
</svg>
