<?xml version="1.0" encoding="UTF-8" standalone="no"?>
<!-- Created with Inkscape (http://www.inkscape.org/) -->

<svg
   version="1.1"
   id="svg59"
   width="115.2"
   height="115.2"
   viewBox="0 0 115.2 115.2"
   sodipodi:docname="360_F_535974854_t0tuhjAv6XyDhS3ChtZCTPUs1z2j69ql.svg"
   inkscape:version="1.2.1 (9c6d41e410, 2022-07-14)"
   xmlns:inkscape="http://www.inkscape.org/namespaces/inkscape"
   xmlns:sodipodi="http://sodipodi.sourceforge.net/DTD/sodipodi-0.dtd"
   xmlns="http://www.w3.org/2000/svg"
   xmlns:svg="http://www.w3.org/2000/svg">
  <defs
     id="defs63" />
  <sodipodi:namedview
     id="namedview61"
     pagecolor="#505050"
     bordercolor="#eeeeee"
     borderopacity="1"
     inkscape:showpageshadow="0"
     inkscape:pageopacity="0"
     inkscape:pagecheckerboard="0"
     inkscape:deskcolor="#505050"
     showgrid="false"
     inkscape:zoom="5.0577778"
     inkscape:cx="73.648945"
     inkscape:cy="54.56942"
     inkscape:window-width="1920"
     inkscape:window-height="1027"
     inkscape:window-x="-8"
     inkscape:window-y="-8"
     inkscape:window-maximized="1"
     inkscape:current-layer="g65" />
  <g
     inkscape:groupmode="layer"
     inkscape:label="Image"
     id="g65">
    <path
       style="fill:#000000;stroke-width:0.529033"
       d="M 40.993397,96.379349 C 30.774706,89.497687 29.22841,79.041418 37.258379,71.122782 c 3.731612,-3.67987 8.55943,-5.861684 15.043549,-6.798573 3.912211,-0.565277 6.505528,-2.129346 7.706563,-4.647937 1.031961,-2.164022 1.051585,-5.250551 0.04464,-7.01207 -0.755624,-1.321809 -0.75607,-1.321408 -0.774802,0.687562 -0.0099,1.105576 -0.375595,2.700207 -0.811734,3.543622 -0.978594,1.892392 -3.744705,4.011294 -5.68766,4.35688 -1.535351,0.27308 -2.008372,-0.326968 -0.664316,-0.842729 1.401622,-0.537851 2.911976,-3.661364 2.849881,-5.893722 l -0.05885,-2.116129 -0.401238,2.084378 c -0.50678,2.632576 -3.303046,5.295232 -6.444243,6.13634 -1.259989,0.337385 -2.965557,1.00639 -3.790137,1.486677 -1.470627,0.856593 -1.523845,0.842982 -2.789686,-0.713844 -0.92384,-1.136198 -1.249394,-2.113146 -1.145935,-3.438711 0.142178,-1.821692 0.189345,-1.85612 2.917316,-2.130378 3.616945,-0.363634 4.633663,-1.39154 4.633663,-4.684628 0,-1.399725 -0.326727,-2.938642 -0.726064,-3.419819 -1.66007,-2.000257 -5.607165,-0.401249 -6.937483,2.810441 -0.365644,0.882765 -0.86877,1.605027 -1.118044,1.605027 -0.780421,0 -6.187562,-6.902999 -6.555521,-8.369086 -0.403735,-1.608581 0.412844,-2.439188 4.888722,-4.972697 2.098324,-1.187727 2.77742,-1.87166 2.77742,-2.797176 0,-1.498462 2.371752,-3.582215 6.232531,-5.475722 2.701306,-1.324846 2.816535,-1.465411 2.515731,-3.068896 l -0.31527,-1.680452 3.448398,-0.369292 c 5.619598,-0.60181 11.612609,0.622186 17.744425,3.624058 6.885853,3.371027 13.522779,11.756122 15.59143,19.698221 1.072376,4.117163 0.975667,10.74132 -0.223601,15.314271 -0.53416,2.036775 -0.900775,3.77917 -0.814729,3.871989 0.404881,0.4367 2.447803,-6.203371 2.908934,-9.454858 0.518899,-3.658629 -0.02888,-10.216138 -1.085793,-12.995727 -0.760608,-2.000589 -0.101809,-1.464024 1.103666,0.898819 1.807921,3.54383 3.152355,9.778181 3.152355,14.618034 0,13.632362 -7.192241,25.852349 -19.652974,33.391426 -4.487484,2.715038 -11.534575,4.135688 -13.041226,2.629038 -0.349163,-0.34916 -0.63484,-1.414967 -0.63484,-2.368453 0,-2.270264 1.394663,-3.123742 5.801982,-3.550575 6.397059,-0.619539 13.462072,-5.09865 15.862027,-10.056281 1.172651,-2.422381 1.462759,-7.190271 0.57896,-9.514859 -1.030423,-2.710207 -4.107936,-5.425567 -7.279981,-6.423295 -2.592441,-0.815424 -3.530184,-0.869756 -6.432175,-0.372667 -6.91199,1.183975 -12.763056,5.364749 -12.763056,9.119605 0,1.917376 1.451683,3.812412 2.633193,3.437414 0.652281,-0.207027 1.29894,0.164495 2.034643,1.168943 l 1.078481,1.47242 -0.295944,-2.235649 c -0.276451,-2.088328 -0.19561,-2.274405 1.226843,-2.823854 0.837525,-0.323512 2.296497,-0.717495 3.242143,-0.875505 1.641107,-0.274229 1.719355,-0.21036 1.719355,1.403792 0,2.069359 -0.682931,3.460708 -2.840905,5.787896 -1.535582,1.655982 -1.559802,1.737633 -0.33329,1.123939 2.837664,-1.41987 4.931227,-3.423849 5.925791,-5.672242 1.002483,-2.266264 1.074234,-2.316243 2.053274,-1.430229 1.204061,1.089674 1.285814,2.401278 0.271196,4.351349 -1.773797,3.409181 -5.131284,5.249759 -10.457913,5.733034 -8.814209,0.799701 -13.358879,4.148641 -14.439973,10.640707 -0.205942,1.23661 -0.535215,2.24838 -0.731751,2.24838 -0.196535,0 -1.54785,-0.80174 -3.00292,-1.78164 z m 8.479067,-60.654448 c 2.107169,-0.0291 0.793433,-0.797944 -2.208495,-1.29251 -1.939103,-0.319462 -2.285338,-0.220284 -2.838375,0.813091 -0.611595,1.142763 -0.570513,1.16713 1.414947,0.83913 1.12464,-0.185791 2.759019,-0.347666 3.631923,-0.359711 z M 88.697705,80.475267 C 93.935078,70.612093 94.815716,60.417272 91.314466,50.182273 89.390273,44.557415 86.487013,40.108597 81.506517,35.153043 77.872742,31.537478 76.015326,30.153471 72.46117,28.413139 64.855552,24.688967 57.105823,23.382565 49.864642,24.603952 46.108909,25.237437 46.05422,25.2694 46.83041,26.377565 c 1.14648,1.636838 1.055221,1.799144 -1.835197,3.263828 -3.527671,1.787611 -6.367913,4.35444 -6.367913,5.754916 0,0.756166 -0.532737,1.374442 -1.585974,1.840652 -1.423279,0.630009 -1.782608,0.580492 -3.502872,-0.48269 C 30.0149,34.576594 27.32849,28.616954 28.237616,24.994696 28.903882,22.340059 38.94614,16.960047 46.22804,15.356545 c 5.776538,-1.272006 16.58024,-0.871582 21.473888,0.795907 11.343002,3.865075 20.235824,11.446903 25.138978,21.432955 3.498443,7.125141 4.212283,10.339637 4.229673,19.046537 0.0165,7.974667 -0.83075,11.999021 -3.781498,17.973761 -1.531551,3.101119 -5.563141,9.271409 -6.057817,9.271409 -0.186984,0 0.472931,-1.53083 1.466441,-3.401847 z M 21.646913,73.965634 c -2.479955,-2.086742 -5.61882,-7.20122 -6.833892,-11.135127 -1.383089,-4.477937 -1.382774,-10.789351 10e-4,-16.297813 1.419327,-5.650657 5.820282,-14.427724 8.988458,-17.926126 l 2.552731,-2.818817 0.35298,2.460801 c 0.514782,3.588865 2.204578,6.744328 4.752017,8.873719 l 2.239593,1.872072 -1.503907,1.503912 c -1.824897,1.824897 -1.844571,2.318824 -0.200157,5.024009 4.141283,6.812721 4.615726,9.357128 2.501216,13.413908 -1.575178,3.022045 -1.473156,4.775612 0.405784,6.973821 0.861083,1.0074 1.575277,2.367278 1.587098,3.021955 0.02646,1.461156 -0.238048,1.47909 -1.950261,0.132258 -0.739819,-0.581935 -1.926488,-1.058064 -2.637045,-1.058064 -1.668569,0 -4.384968,2.709804 -4.384968,4.374088 0,1.531907 -1.505726,3.032365 -3.043011,3.032365 -0.609445,0 -1.8819,-0.651133 -2.827695,-1.446961 z m 1.760835,-3.086863 c -0.177937,-0.930816 -0.431377,-1.188163 -0.803567,-0.815973 -0.372191,0.372194 -0.330084,0.801013 0.133581,1.359633 0.908397,1.094559 0.973155,1.042009 0.670035,-0.54366 z M 19.961962,56.834045 c 0.559137,-0.559134 0.507044,-2.012587 -0.225253,-6.285973 l -0.317303,-1.851613 -0.671524,2.116129 c -1.411227,4.44703 -0.706523,7.942067 1.21408,6.021457 z m 35.065343,16.316021 c 0,-1.370177 5.466706,-5.672957 7.20752,-5.672957 0.154246,0 -0.45219,0.732509 -1.347478,1.62779 -0.895289,0.895288 -1.627784,1.84271 -1.627784,2.10538 0,0.262669 -0.952258,0.96339 -2.116129,1.557154 -1.556992,0.794316 -2.116129,0.89542 -2.116129,0.382633 z"
       id="path177" />
  </g>
</svg>
