<?xml version="1.0" encoding="UTF-8" standalone="no"?>
<!-- Created with Inkscape (http://www.inkscape.org/) -->

<svg
   version="1.1"
   id="svg59"
   width="820"
   height="627"
   viewBox="0 0 820 627"
   sodipodi:docname="chimera.svg"
   inkscape:version="1.2.1 (9c6d41e410, 2022-07-14)"
   xmlns:inkscape="http://www.inkscape.org/namespaces/inkscape"
   xmlns:sodipodi="http://sodipodi.sourceforge.net/DTD/sodipodi-0.dtd"
   xmlns="http://www.w3.org/2000/svg"
   xmlns:svg="http://www.w3.org/2000/svg">
  <defs
     id="defs63" />
  <sodipodi:namedview
     id="namedview61"
     pagecolor="#505050"
     bordercolor="#eeeeee"
     borderopacity="1"
     inkscape:showpageshadow="0"
     inkscape:pageopacity="0"
     inkscape:pagecheckerboard="0"
     inkscape:deskcolor="#505050"
     showgrid="false"
     inkscape:zoom="0.46463795"
     inkscape:cx="-274.4072"
     inkscape:cy="25.82656"
     inkscape:window-width="1920"
     inkscape:window-height="1027"
     inkscape:window-x="-8"
     inkscape:window-y="-8"
     inkscape:window-maximized="1"
     inkscape:current-layer="g65" />
  <g
     inkscape:groupmode="layer"
     inkscape:label="Image"
     id="g65">
    <path
       style="fill:#000000"
       d="m 384.19557,587.64532 c -38.5769,-3.11408 -67.73737,-11.01704 -99.92708,-27.08188 -26.97138,-13.46053 -54.41107,-33.60249 -74.07292,-54.37283 -24.82631,-26.22596 -47.89866,-67.98048 -57.05172,-103.24772 -1.8359,-7.07384 -3.546,-13.06952 -3.80021,-13.32374 -0.73542,-0.73541 -5.98045,2.32753 -7.88828,4.60651 -0.95712,1.14332 -2.13302,2.07876 -2.61311,2.07876 -0.4801,0 -1.66575,-2.52067 -2.63478,-5.60149 -2.67149,-8.49333 -1.75742,-18.27552 2.47462,-26.48288 1.81948,-3.5286 4.1162,-7.99063 5.10383,-9.91563 1.51002,-2.94321 1.90822,-7.31796 2.50312,-27.5 1.16035,-39.36502 1.1566,-39.50622 -1.16817,-43.94689 -2.55067,-4.8722 -5.52347,-5.81479 -12.91786,-4.09591 l -5.50744,1.28025 7.9e-4,-2.61872 c 0.001,-4.53806 5.42762,-14.47141 10.11595,-18.51835 2.41079,-2.08098 7.81675,-5.52024 12.01323,-7.6428 10.00757,-5.06177 13.29297,-9.08511 19.28114,-23.61196 2.68561,-6.51509 7.11115,-16.25064 9.83454,-21.63457 5.59998,-11.07075 5.68648,-13.66054 0.54506,-16.31927 -2.41476,-1.24872 -4.69806,-1.50287 -9.48551,-1.05581 -3.46786,0.32383 -6.29841,0.26822 -6.29011,-0.12359 0.0386,-1.82129 10.36363,-14.47263 13.24518,-16.22939 1.78185,-1.08631 7.53858,-3.31245 12.79273,-4.94696 16.68664,-5.19103 20.5429,-7.34964 29.23235,-16.36333 10.70716,-11.10668 12.92579,-14.52328 12.53101,-19.29724 -0.27022,-3.26761 -0.88444,-4.14326 -4.21106,-6.00339 -2.14208,-1.19777 -6.33022,-2.48207 -9.30697,-2.85399 -3.45599,-0.4318 -5.27346,-1.09945 -5.02821,-1.84714 0.72719,-2.21704 7.0615,-5.6888 15.13673,-8.29629 8.36144,-2.6999 13.97381,-3.12699 30.09315,-2.29002 l 8,0.41538 13.25722,-7.35468 c 14.06237,-7.801342 15.58436,-9.468115 13.63643,-14.933608 -1.62387,-4.55626 -5.74291,-6.63999 -13.94438,-7.05414 -4.0971,-0.2069 -7.44927,-0.72524 -7.44927,-1.15187 0,-2.9286 19.78341,-9.98955 30,-10.70738 6.76483,-0.4753 8.57738,-0.16525 18.49112,3.16303 15.06805,5.05871 17.78679,5.23733 33.59495,2.20716 7.37766,-1.41419 15.57527,-2.84928 18.21691,-3.1891 3.74251,-0.48143 5.03981,-1.13765 5.87564,-2.97211 1.76478,-3.87325 0.091,-9.25947 -4.38699,-14.11753 -2.24623,-2.43688 -3.75747,-4.75727 -3.35831,-5.15643 0.39916,-0.39916 4.26655,-0.88654 8.59419,-1.08307 10.3979,-0.47219 17.53081,1.83098 34.97249,11.29236 22.89232,12.41812 23.9191,12.85649 30.3396,12.95281 5.429,0.0815 6.05349,-0.15177 8.88139,-3.31675 2.91495,-3.26239 3.01658,-3.679 2.43743,-9.99152 -0.33239,-3.62295 -0.91242,-7.67011 -1.28894,-8.99369 -0.64738,-2.27566 -0.50452,-2.37049 2.62741,-1.74411 7.3773,1.47546 16.98058,10.48055 26.16209,24.53244 5.84504,8.94558 8.96237,11.61661 17.07402,14.62958 14.58248,5.41648 19.60968,8.236043 26.17922,14.682918 6.56968,6.44701 8.16406,9.75414 10.15105,21.05569 0.83275,4.73646 -0.0909,4.78084 -7.43246,0.35714 -25.97903,-15.65374 -61.52023,-28.676483 -96.13081,-35.223528 -18.62881,-3.52389 -48.40896,-3.79437 -66.5,-0.604 -45.60513,8.042498 -94.03883,33.283158 -126,65.663448 -44.41807,45.00052 -69.42263,102.72754 -73.12107,168.81163 -0.62888,11.23682 0.77751,37.03141 2.7395,50.2453 3.26493,21.98908 13.20242,54.35687 21.61786,70.41237 19.32068,36.86123 39.92658,60.47314 71.76371,82.2327 27.9505,19.10318 49.40224,28.63954 82.0395,36.47062 14.40221,3.45571 17.27856,3.83075 29.4605,3.84121 12.11769,0.0104 14.67752,-0.3143 25,-3.17129 14.61652,-4.04545 23.21912,-7.29506 33.95059,-12.82475 4.70218,-2.42292 8.70251,-3.95853 8.88962,-3.41245 0.48016,1.40127 -3.18038,8.14381 -7.86129,14.48012 -5.99297,8.11239 -5.62807,8.89271 3.77108,8.06413 15.50641,-1.36698 35.3295,-7.60676 54.25247,-17.07723 18.55781,-9.28771 28.2757,-16.75145 43.4347,-33.35964 5.2749,-5.77917 5.75968,-5.69567 7.00088,1.20595 0.65724,3.65456 0.85508,3.82963 3.68755,3.26314 7.80348,-1.5607 25.45373,-14.2882 32.32154,-23.3069 4.54201,-5.96449 6.55286,-7.5964 6.55286,-5.31798 0,5.10996 21.06698,-12.83114 28.42139,-24.20427 l 1.74871,-2.70428 -5.09904,-0.67641 c -3.60474,-0.47819 -4.8245,-1.00443 -4.16222,-1.79573 1.45343,-1.73658 30.9373,-16.10651 31.62859,-15.41522 0.74431,0.74431 -5.19023,25.68279 -6.61452,27.79591 -0.86319,1.28066 -1.24176,1.17099 -2.58894,-0.75 -2.84437,-4.05588 -3.05462,-3.88819 -12.85108,10.25 -34.26693,49.45377 -74.25009,78.15116 -127.43076,91.46176 -29.95894,7.49842 -75.61879,11.63402 -103.55213,9.37914 z m 57.5,-25.08204 c 0,-0.40763 1.58717,-3.95332 3.52704,-7.87932 3.52724,-7.13858 7.00919,-21.20807 5.60246,-22.63783 -0.41034,-0.41705 -3.19484,1.06952 -6.18779,3.30351 -15.98471,11.93127 -51.80189,24.88265 -68.94171,24.92912 -11.48933,0.0311 -33.57607,-4.27969 -50.83993,-9.92281 -36.35035,-11.88201 -79.36083,-40.30705 -101.13517,-66.83886 -14.18063,-17.27894 -31.16119,-48.35471 -38.40229,-70.27924 -7.27689,-22.03285 -12.62316,-55.87803 -12.62177,-79.90357 0.002,-41.87688 7.48323,-74.23181 26.01819,-112.52985 9.17981,-18.96788 17.49007,-31.27764 32.16414,-47.64385 26.0339,-29.03601 42.48348,-41.94492 74.31683,-58.32058 13.94097,-7.1715 23.87233,-11.10709 38.89766,-15.414332 20.22946,-5.799086 26.64366,-6.570966 54.60234,-6.570846 25.11615,1.1e-4 25.73212,0.0501 40.92058,3.32012 34.34057,7.393418 63.72278,19.350098 93.46552,38.034448 11.95222,7.50838 15.63341,9.24149 15.60113,7.34504 -0.007,-0.4125 -1.0949,-4.13778 -2.41752,-8.27839 -5.70989,-17.87546 -13.33948,-79.801458 -9.54285,-77.455018 0.56477,0.34905 2.872,4.31311 5.12717,8.80902 11.06449,22.05815 27.43171,48.515508 42.7931,69.174388 12.3684,16.63374 15.67825,20.39702 36.14675,41.09876 l 16.90612,17.09876 v 8.55663 c 0,8.35905 0.0831,8.65608 3.59863,12.8639 1.97924,2.369 10.29279,11.01705 18.47455,19.2179 12.68215,12.71174 15.21148,14.81516 17.15137,14.26326 7.80983,-2.22187 7.33102,-2.5434 8.77393,5.89193 1.15873,6.77397 1.11832,8.29701 -0.34311,12.93322 -2.83342,8.98864 -9.19136,15.40672 -18.86766,19.04617 -5.67536,2.13461 -7.38482,1.6403 -8.27035,-2.39149 -0.36918,-1.68086 -1.05621,-3.29403 -1.52674,-3.58484 -0.47053,-0.2908 -3.39083,0.59251 -6.48956,1.96291 -3.09873,1.37041 -7.92829,2.79599 -10.73237,3.16796 -4.57541,0.60695 -5.03,0.49829 -4.43224,-1.05946 1.28849,-3.35776 1.96792,-12.56561 0.92718,-12.56561 -0.55645,0 -2.9809,1.08055 -5.38768,2.40122 -4.95701,2.72006 -10.43159,4.12678 -11.20298,2.87865 -0.28458,-0.46047 0.10677,-3.74931 0.86967,-7.30854 1.50379,-7.01574 1.75011,-14.36855 0.58101,-17.34384 -0.67369,-1.71451 -0.87044,-1.73784 -2.33176,-0.27652 -0.87779,0.87779 -2.63615,3.27901 -3.90746,5.33603 -2.28476,3.69682 -2.31942,3.71157 -2.99828,1.27653 -0.37773,-1.35494 -0.73165,-4.43228 -0.78647,-6.83853 -0.11084,-4.86481 0.88621,-4.58331 -8.95646,-2.52864 -2.72536,0.56892 -2.8887,0.3964 -3.55055,-3.75 -0.38156,-2.3905 -1.37516,-5.38751 -2.20798,-6.66003 -3.00478,-4.59116 -18.11108,-12.79327 -20.02927,-10.87508 -0.27586,0.27586 0.59664,4.03118 1.93889,8.34516 1.69134,5.43596 2.63454,11.42497 3.07276,19.511 0.34777,6.41707 0.89724,12.35781 1.22105,13.20163 0.3238,0.84382 2.15479,2.05107 4.06886,2.68277 2.4339,0.80326 3.30855,1.59565 2.90941,2.63579 -1.03393,2.69437 -1.83589,9.3124 -1.12846,9.3124 0.38146,0 1.56397,-0.46583 2.62781,-1.03518 2.3704,-1.2686 2.37269,-1.52162 -0.0657,7.27774 -2.70938,9.77713 -2.68781,9.89856 1.69693,9.55071 3.61462,-0.28675 3.71613,-0.19865 4.55885,3.95672 0.85224,4.20229 0.90987,4.25 5.13409,4.25 3.53147,0 4.50372,0.43266 5.60773,2.49551 0.73455,1.37252 2.84217,3.0403 4.68358,3.70617 1.84142,0.66586 3.19557,1.68039 3.00922,2.25449 -0.47542,1.46469 -10.49969,5.33902 -20.08647,7.76331 -13.05366,3.30099 -28.52271,1.52796 -40.4411,-4.63528 -1.7396,-0.89956 -3.16287,-2.13196 -3.16287,-2.73868 0,-0.60671 1.52317,-2.78908 3.38482,-4.84971 6.36726,-7.0478 8.96589,-12.63969 9.04423,-19.46191 0.0581,-5.05767 -0.40162,-6.89223 -2.53243,-10.10662 -7.79897,-11.76493 -21.72448,-19.31202 -48.89662,-26.50009 -13.26028,-3.50785 -23,-8.2897 -23,-11.29216 0,-0.7287 2.58792,-1.67209 6.35888,-2.31802 13.40683,-2.2965 17.78017,-6.67247 15.73762,-15.74712 -3.33325,-14.80895 -18.85334,-32.32957 -36.5965,-41.31376 -19.42612,-9.83635 -54.09613,-12.10377 -64.54612,-4.22133 l -2.39444,1.80613 5.27439,5.5769 c 6.29066,6.65144 9.06489,12.40608 13.01988,27.00734 3.37758,12.46955 2.55283,11.54707 18.40861,20.58985 10.91333,6.22402 13.04028,8.20004 14.28824,13.27431 0.891,3.6229 3.70758,5.61249 22.94944,16.21112 30.05777,16.55616 34.5,20.72924 34.5,32.40966 0,4.94773 -2.01213,8.08989 -5.18047,8.08989 -0.83765,0 -4.98448,-2.30523 -9.21519,-5.12274 -4.23071,-2.81751 -7.90802,-4.90691 -8.17181,-4.64313 -1.07011,1.07012 0.89077,3.55533 5.76519,7.30679 11.16902,8.59588 13.80228,11.48052 13.80228,15.11983 0,2.95891 -1.14196,4.5276 -8.69924,11.94999 -4.78459,4.69918 -10.05083,9.24289 -11.70275,10.09714 -2.26714,1.17238 -6.81521,1.61097 -18.55076,1.78892 -16.25161,0.24644 -28.13279,2.16017 -30.95933,4.98671 -2.92494,2.92494 0.17476,3.37994 9.91208,1.45497 11.3475,-2.24329 32.12944,-2.60861 36,-0.63284 2.27884,1.16326 2.49909,1.84754 2.48966,7.73526 -0.0166,10.3718 -6.01877,21.44681 -19.0818,35.2091 -3.00182,3.1625 -6.03874,5.75 -6.74871,5.75 -0.70998,0 -2.29572,-1.78789 -3.52387,-3.97309 -2.11732,-3.76726 -7.35471,-8.60719 -13.35287,-12.33953 -3.86315,-2.40384 -10.39741,-4.91695 -34.45251,-13.25065 -15.91852,-5.51484 -21.40795,-7.03684 -22.12892,-6.13547 -1.80019,2.25063 -11.20098,36.96257 -11.20098,41.35904 0,3.76797 0.59733,5.03242 4.24867,8.99365 7.71963,8.37481 20.17272,15.6476 32.25133,18.83525 5.62339,1.48406 31.7014,5.5108 35.6891,5.5108 3.14798,0 1.97863,-1.40575 -3.73166,-4.48606 -5.88609,-3.17513 -11.26139,-8.04332 -10.13021,-9.1745 0.37478,-0.37479 5.29198,-0.80698 10.9271,-0.96044 12.91163,-0.35161 28.62747,-2.67953 40.24567,-5.96141 8.16517,-2.30648 31.5,-12.55024 31.5,-13.82819 0,-0.29086 -3.2625,-2.04021 -7.25,-3.88744 -7.27238,-3.36897 -10.38993,-5.85751 -9.38173,-7.48881 0.29724,-0.48095 3.14848,-1.45142 6.33609,-2.15659 3.1876,-0.70517 13.72828,-4.1336 23.42373,-7.61873 9.69545,-3.48513 19.87533,-6.63471 22.62195,-6.99906 10.17326,-1.34953 9.5635,-2.91303 -3.66482,-9.397 -4.99265,-2.44719 -8.73809,-4.7889 -8.32319,-5.2038 0.4149,-0.4149 6.15068,-1.05058 12.74617,-1.41261 21.13296,-1.16001 46.052,2.47234 69.18704,10.08511 28.38859,9.3415 35.40856,14.41021 44.15815,31.88405 5.2244,10.43367 13.60765,34.05049 12.64169,35.61344 -0.2933,0.47457 -3.622,-0.41083 -7.39711,-1.96756 -9.93883,-4.09844 -16.40011,-5.79935 -26.839,-7.06527 -12.2961,-1.49114 -18.47528,-0.24309 -25.22941,5.09574 -2.7339,2.16102 -5.43396,3.92913 -6.00014,3.92913 -0.56618,0 -1.02942,-1.36412 -1.02942,-3.03138 0,-1.68892 -0.62567,-3.27148 -1.41279,-3.57353 -2.64815,-1.01619 -12.20105,4.73301 -19.16666,11.53502 -8.79422,8.58767 -12.42055,15.42232 -12.42055,23.40935 v 5.81076 l -5.75,-3.19682 c -11.2749,-6.26849 -11.26838,-6.26606 -13.75387,-5.13359 -2.12552,0.96845 -16.94471,22.00639 -31.96961,45.38537 -9.39584,14.62009 -15.03415,21.25071 -23.84395,28.0404 -17.71664,13.65416 -32.56547,20.95204 -56.22814,27.6349 -12.00398,3.39019 -12.45443,3.47621 -12.45443,2.37838 z m -58.413,-40.6459 c 18.75951,-3.78047 46.19598,-11.12582 58.10796,-15.55679 5.94277,-2.21057 13.73004,-4.69588 17.30504,-5.52291 9.25044,-2.13998 22.99968,-1.96245 31.52164,0.40702 3.8381,1.06715 7.35381,1.5692 7.8127,1.11566 0.45889,-0.45354 1.07755,-3.50678 1.37481,-6.78498 0.66959,-7.38436 -1.02199,-10.42192 -7.00676,-12.582 -2.31131,-0.83422 -11.17739,-4.04834 -19.70239,-7.14249 -8.525,-3.09415 -20.69195,-7.15946 -27.03766,-9.03402 -39.59464,-11.69649 -61.57517,-23.10829 -89.44618,-46.43848 -11.43909,-9.57541 -33.51054,-33.72272 -41.19912,-45.07397 -15.69467,-23.17129 -16.1794,-52.15252 -1.3007,-77.76737 2.1509,-3.70295 3.4493,-6.8919 2.88533,-7.08657 -1.49943,-0.51759 -12.71747,6.61639 -17.68011,11.24347 -11.89804,11.09353 -18.03625,28.41011 -16.87649,47.61047 0.7131,11.80583 3.45889,22.67492 8.01253,31.71723 3.48132,6.91299 14.86625,22.70637 22.55071,31.28277 3.78975,4.22963 5.09724,7 3.30368,7 -3.294,0 -33.63545,-28.03213 -42.74445,-39.49111 -2.18215,-2.74511 -4.99642,-6.12011 -6.25393,-7.5 -4.12987,-4.53176 -15.01464,-21.34338 -20.21684,-31.22508 -8.7263,-16.57578 -13.89966,-33.86569 -15.51817,-51.86327 -1.38195,-15.36715 4.7159,-29.26139 19.05622,-43.42053 12.98613,-12.82205 30.82974,-22.78696 53.97511,-30.14284 l 8.99007,-2.85716 -8.5,-0.30169 c -17.22203,-0.61127 -41.64442,5.75335 -57.81011,15.06565 -15.24051,8.77934 -33.91214,29.12798 -41.75358,45.50373 -8.73291,18.23744 -13.3578,42.7341 -11.93805,63.2323 1.38692,20.02423 5.63628,33.56074 14.90845,47.49152 9.12883,13.71541 21.4286,25.39242 38.94561,36.97375 19.94055,13.18364 33.12883,19.89904 49.92471,25.42139 7.71716,2.53733 13.84935,5.06334 13.62708,5.61334 -0.70676,1.74892 -23.74904,0.77326 -34.76737,-1.47213 -22.95757,-4.67846 -46.22391,-15.98683 -61.64476,-29.96183 -9.21559,-8.35153 -9.72692,-8.2121 -6.61006,1.80241 2.15381,6.92019 8.77664,16.71856 15.47118,22.88938 19.62128,18.08627 54.03677,29.0121 104.6469,33.22211 15.4546,1.28559 18,1.70439 18,2.96156 0,2.45938 -17.5298,4.96316 -34.5,4.92765 -12.73336,-0.0267 -41.29115,-3.72607 -57.39697,-7.4353 -3.51834,-0.81028 -6.5923,-1.27792 -6.83102,-1.03919 -0.89086,0.89086 1.82151,4.51135 5.65354,7.54638 6.22845,4.93302 17.45969,9.55956 31.57445,13.00662 21.30496,5.20303 29.90435,6.20202 58.32298,6.77534 14.47764,0.29207 25.95264,0.88002 25.5,1.30655 -0.45264,0.42654 -8.92298,2.10378 -18.82298,3.72721 -15.51277,2.54382 -20.03814,2.90228 -32.75,2.59416 -9.08016,-0.2201 -14.75,0.0143 -14.75,0.60973 0,1.66239 7.17291,5.93383 13.50057,8.03954 9.80081,3.2615 16.88181,3.92655 36.99943,3.47502 14.87706,-0.3339 21.62284,-0.955 31.087,-2.86225 z m 96.19325,-77.17524 c 8.3276,-2.79548 10.76098,-4.31126 19.64038,-12.2342 6.42433,-5.73231 14.29105,-10.82518 15.24604,-9.87019 0.76143,0.76144 -4.02979,8.87171 -7.73211,13.08842 -1.61401,1.83826 -2.93456,3.67789 -2.93456,4.08807 0,1.34317 8.06295,-0.50758 12.83264,-2.94556 5.43457,-2.77783 8.75602,-6.15625 16.52501,-16.80847 3.49349,-4.79 7.54751,-8.98621 10.62725,-11 2.73854,-1.79069 4.98725,-3.48092 4.99713,-3.75608 0.01,-0.27516 -4.36953,-0.2017 -9.73203,0.16324 -9.86793,0.67157 -18.28778,3.22161 -33.28008,10.07924 -13.58184,6.21247 -25.62813,8.73879 -41.96992,8.80183 l -11.5,0.0444 3.68548,1.9466 c 2.02702,1.07062 7.77387,2.73823 12.77078,3.7058 11.78666,2.28228 11.79611,3.89963 0.0409,7.00104 -7.2384,1.90972 -10.0526,2.15384 -18.99715,1.64787 -5.775,-0.32667 -14.1,-1.22238 -18.5,-1.99046 -10.30185,-1.79833 -11.0757,-1.79784 -9.57863,0.006 2.12139,2.55611 20.6837,9.12602 31.07863,10.99992 5.66723,1.02163 19.44482,-0.50503 26.78025,-2.96746 z m 71.42167,-24.40889 c 2.45089,-1.08415 7.1206,-2.27186 10.37712,-2.63936 3.25653,-0.36751 10.13714,-2.18048 15.29025,-4.02883 5.78604,-2.07538 11.2359,-3.36064 14.25,-3.36064 8.04809,0 5.40059,-2.45104 -4.86929,-4.50798 -4.11641,-0.82446 -4.1349,-2.53808 -0.0534,-4.94908 3.15306,-1.86256 3.16621,-1.90183 0.96523,-2.88394 -5.66727,-2.52881 -22.74876,4.07579 -32.66182,12.62876 -3.39383,2.92819 -9.53707,11.71224 -8.19111,11.71224 0.24027,0 2.44214,-0.88703 4.89302,-1.97117 z M 367.97233,402.05442 c 7.58158,-16.37609 12.5511,-32.7071 14.8117,-48.67475 1.7924,-12.66049 0.70401,-28.16281 -2.53813,-36.15149 -2.66228,-6.55992 -9.3247,-17.48272 -10.15639,-16.65104 -0.25342,0.25343 0.70346,4.00824 2.12641,8.34403 2.29599,6.99598 4.75219,25.78267 3.18586,24.36766 -0.3139,-0.28357 -1.4788,-3.90418 -2.58867,-8.0458 -1.10987,-4.14161 -3.38929,-10.58666 -5.06537,-14.32233 -1.67608,-3.73567 -3.75727,-9.34006 -4.62486,-12.45421 -3.81142,-13.68071 -4.68207,-14.94806 -5.8805,-8.55988 -0.85396,4.55198 -1.39969,3.96789 -3.51593,-3.76307 -0.93805,-3.42687 -2.29953,-6.42866 -3.0255,-6.67065 -1.76002,-0.58667 -0.75346,10.82032 1.41062,15.98596 2.02163,4.82561 3.56872,11.84557 2.61059,11.84557 -0.90249,0 -4.80242,-5.7599 -8.14013,-12.02236 -2.16804,-4.06781 -2.38116,-5.64458 -2.32856,-17.22763 0.0318,-7.0125 -0.28669,-12.75 -0.70785,-12.75 -0.42116,0 -2.02221,2.1375 -3.5579,4.75 -2.63956,4.49041 -2.79153,5.4058 -2.78084,16.75 0.0156,16.5495 2.2606,22.66249 16.34266,44.49999 15.79567,24.49487 18.34367,40.26792 11.59056,71.75 -0.72106,3.3615 1.11276,2.71401 2.83223,-1 z m 283.98123,-1.79099 c -0.47134,-4.78916 -11.03755,-11.95901 -17.62401,-11.95901 -2.32201,0 -2.05166,1.12333 1.42562,5.92358 1.98116,2.73491 4.8891,5.08018 8.25,6.65366 6.23027,2.91683 8.28061,2.75736 7.94839,-0.61823 z m -85.385,-7.09278 c 9.62788,-2.94417 15.7682,-3.41223 25.87701,-1.97251 2.8875,0.41125 5.25,0.4013 5.25,-0.0221 0,-1.08206 -5.74251,-5.26306 -10.5246,-7.66272 -2.21353,-1.11076 -6.88748,-2.58279 -10.38655,-3.27119 -8.40459,-1.6535 -23.47186,0.0267 -40.83463,4.55347 -15.28188,3.9843 -18.57128,5.1868 -17.7635,6.49382 1.70193,2.75378 23.36114,6.04035 34.00928,5.16058 2.75,-0.22721 9.21784,-1.70292 14.37299,-3.27934 z m 50.12701,-3.59751 c 0,-0.4022 -3.4875,-3.99767 -7.75,-7.98993 l -7.75,-7.25865 3.64525,-0.0101 c 4.07821,-0.0113 29.90216,6.41114 44.21921,10.9973 5.13832,1.64594 9.71754,2.99263 10.17606,2.99263 1.49281,0 -4.87744,-6.00771 -9.54862,-9.0052 -9.17056,-5.88473 -33.28438,-13.24614 -53.95666,-16.47176 -11.47258,-1.79013 -30.88628,-3.18377 -29.93955,-2.14925 0.32763,0.35801 3.00222,1.88287 5.94352,3.38857 6.64188,3.40008 8.20875,5.60094 5.43871,7.63932 -2.3365,1.71934 -2.34606,1.71476 8.35166,4.00779 7.60262,1.62959 21.0883,7.56724 27.17042,11.96293 3.98155,2.87755 4,2.8863 4,1.89632 z m -272.4489,-19.22099 c -0.87529,-5.96852 -2.42686,-13.28007 -3.44794,-16.2479 -2.65206,-7.70833 -6.01995,-13.96929 -7.1415,-13.27613 -1.40587,0.86887 -1.15412,7.17083 0.53834,13.4763 1.77202,6.60187 1.7275,6 0.44377,6 -1.88625,0 -4.82819,-8.38885 -5.44646,-15.53039 -0.33186,-3.83329 -1.32643,-11.37519 -2.21017,-16.75978 -2.21108,-13.47213 -3.81203,-11.49004 -3.70897,4.59195 0.0676,10.54671 0.44837,13.28134 2.81248,20.19822 3.18891,9.3301 7.95103,18.3836 14.46493,27.5 4.41493,6.17883 4.66029,6.36164 4.96569,3.69979 0.17669,-1.54011 -0.39488,-7.68354 -1.27017,-13.65206 z m -79.15549,-66.60069 c 3.52477,-7.69911 10.3841,-14.50274 20.76407,-20.59548 9.52079,-5.58843 12.91674,-9.05515 17.20967,-17.56831 3.47124,-6.88369 3.38918,-7.33031 -1.11935,-6.09231 -5.21234,1.43126 -9.0401,3.48309 -14.01421,7.51219 -5.53508,4.48349 -7.14116,3.84678 -3.38304,-1.34115 3.54071,-4.88781 6.54582,-7.11735 17.89218,-13.27451 8.43832,-4.57909 8.63451,-4.77282 13.50319,-13.33416 5.61506,-9.8738 5.84696,-12.52307 0.70316,-8.03297 -1.89821,1.65696 -6.15128,4.71101 -9.45128,6.78678 -7.03008,4.42205 -18.3363,11.68072 -23.96291,15.38436 -2.1796,1.43469 -6.95932,5.42103 -10.6216,8.85853 -3.66228,3.4375 -7.17802,6.25 -7.81277,6.25 -1.40795,0 0.97628,-4.91414 4.20094,-8.65857 4.3497,-5.05079 17.35096,-15.16363 24.94634,-19.40413 4.2625,-2.37976 7.75,-4.71951 7.75,-5.19945 0,-1.07774 -2.18128,-0.42245 -12.99248,3.90313 -16.38069,6.55394 -25.64382,14.6805 -32.32529,28.35902 -4.11038,8.4149 -4.1517,8.61013 -4.12771,19.5 0.0184,8.33365 0.70258,14.02993 2.82274,23.49999 1.53917,6.875 3.03841,13.175 3.33163,14 0.29323,0.825 1.36319,-2.2507 2.37768,-6.83489 1.0145,-4.58419 2.95357,-10.75732 4.30904,-13.71807 z m 245.60439,-10.22452 c 0,-4.87774 -1.8017,-7.33424 -8.92926,-12.17447 -7.26381,-4.93276 -40.01947,-22.43265 -40.70516,-21.74695 -0.49271,0.4927 9.97237,6.54229 28.0233,16.19952 11.35967,6.07741 16.34575,10.52094 17.21323,15.34021 1.21492,6.74936 4.39789,8.47311 4.39789,2.38169 z m -65,-25.85443 c 0,-2.85107 -0.74786,-4.33725 -3.47844,-6.91251 -3.431,-3.23585 -7.73916,-4.68352 -18.27156,-6.13979 -5.29307,-0.73185 -5.43169,0.37047 -0.70458,5.60281 3.49032,3.86337 10.31681,7.08141 15.02193,7.08141 1.2161,0 3.27343,0.88503 4.57187,1.96673 1.29843,1.0817 2.47328,1.9817 2.61078,2 0.1375,0.0183 0.25,-1.6011 0.25,-3.59865 z m 127.98469,-11.92847 c 0.0129,-9.33468 -0.35967,-12.01722 -2.38802,-17.19294 -2.64033,-6.73731 -5.60423,-11.63 -5.5848,-9.21918 0.007,0.80988 0.70716,3.94751 1.55696,6.97251 0.84981,3.025 1.70009,10.73418 1.88953,17.13151 0.34437,11.62919 1.81951,17.61838 3.63381,14.75359 0.48246,-0.76181 0.8841,-6.36227 0.89252,-12.44549 z m 108.61247,5.89419 c 0.34243,-1.82531 0.2771,-4.10963 -0.14518,-5.07627 -0.57745,-1.32184 -1.07669,-0.51803 -2.01389,3.24247 -0.68535,2.75 -1.27498,5.9 -1.31029,7 -0.0631,1.96469 -0.0385,1.96604 1.39128,0.0763 0.80051,-1.05806 1.73565,-3.41717 2.07808,-5.24247 z m -10.63417,-4.16193 c 1.13304,-4.10352 0.67744,-4.84101 -3.78044,-6.11952 -3.39142,-0.97264 -4.14718,-0.0978 -1.68255,1.94765 0.92668,0.76908 1.5,2.96484 1.5,5.74489 0,3.86353 0.20974,4.32593 1.48288,3.26932 0.81559,-0.67688 1.93164,-2.85593 2.48011,-4.84234 z M 339.14362,241.40811 c -2.47661,-9.66716 -0.0748,-16.43781 7.64274,-21.54507 4.81671,-3.18755 4.69623,-3.89081 -0.42435,-2.47695 -5.28129,1.45823 -10.42976,6.32565 -11.70662,11.06757 -1.15473,4.28832 0.65755,12.95566 3.69834,17.68753 2.29128,3.56555 2.53767,2.08918 0.78989,-4.73308 z m 320.55195,-3.7771 c 0,-0.37038 -5.55438,-6.33288 -12.34306,-13.25 -12.07023,-12.29859 -13.24388,-14.04258 -15.12248,-22.47122 -0.35485,-1.59206 -1.00908,-2.49206 -1.45386,-2 -0.77951,0.86237 -3.0806,9.26485 -3.0806,11.2489 0,0.53274 3.38717,3.51788 7.52704,6.63364 4.13988,3.11576 8.28187,6.81703 9.20444,8.22504 1.67087,2.55007 13.09154,12.18877 14.51852,12.2532 0.4125,0.0186 0.75,-0.26918 0.75,-0.63956 z M 230.76255,215.21995 c 22.49908,-15.70191 33.00711,-19.3305 56.12968,-19.38248 12.70927,-0.0286 14.35972,-0.20959 12.20493,-1.3386 -6.52637,-3.4195 -28.11708,-3.5343 -36.897,-0.19618 -1.44914,0.55096 -3.57524,1.00174 -4.72468,1.00174 -2.01764,0 -2.02811,-0.0683 -0.30274,-1.97477 2.8685,-3.16966 9.53259,-5.85706 16.39335,-6.61088 6.73084,-0.73954 6.51412,-1.7086 -0.62465,-2.79306 -5.08391,-0.7723 -16.4142,1.4017 -21.8849,4.19916 -5.89274,3.01328 -12.75026,9.52204 -20.06922,19.04855 -3.64703,4.74705 -8.44833,10.5435 -10.66956,12.881 -2.22124,2.3375 -3.70867,4.25 -3.30543,4.25 0.40325,0 6.59085,-4.08802 13.75022,-9.08448 z m 183.44168,-7.53442 c -2.66794,-11.50392 -7.74846,-18.03673 -21.05399,-27.07234 -11.46766,-7.78754 -19.86165,-11.37801 -32.66242,-13.9711 -6.61867,-1.34077 -12.76707,-2.2844 -13.6631,-2.09696 -0.91447,0.1913 2.31902,2.39901 7.37085,5.03256 5.57928,2.90852 11.95925,7.35897 16.78587,11.70925 8.59496,7.74673 12.6259,9.56008 5.80734,2.61247 -7.30034,-7.43851 -4.28795,-7.24615 7.21278,0.46058 12.49087,8.37023 17.73774,13.40179 25.45921,24.41444 3.07347,4.38351 5.75481,7.46996 5.95854,6.85879 0.20372,-0.61117 -0.34307,-4.18763 -1.21508,-7.94769 z m -38.43769,-0.18189 c -2.28036,-2.70437 -9.74524,-10.14651 -16.58862,-16.53808 -10.04761,-9.38426 -14.13051,-12.4674 -21.21243,-16.0182 -24.80389,-12.43641 -38.94234,-13.19356 -56.01482,-2.99972 l -4.7551,2.83923 7.58065,0.62534 c 10.11822,0.83466 13.01949,1.86376 29.4501,10.44616 7.71692,4.03087 15.25442,7.79408 16.75,8.3627 4.3965,1.67155 3.11203,0.18065 -1.57544,-1.82863 -4.97234,-2.1314 -23.72664,-12.78084 -25.20531,-14.31259 -2.62995,-2.72435 7.38801,0.56773 14.3204,4.70594 4.22378,2.52134 11.2796,5.69157 15.6796,7.04495 4.48909,1.38079 10.5827,4.21901 13.88497,6.4672 6.60017,4.4934 10.23093,5.4651 7.02002,1.87877 -1.04775,-1.17024 -4.94249,-5.06907 -8.65499,-8.66406 -3.7125,-3.59499 -6.75,-6.92407 -6.75,-7.39796 0,-1.27865 5.9822,2.03545 10.08446,5.58672 1.97146,1.70666 9.33792,8.18656 16.36991,14.39978 7.03199,6.21322 13.00533,11.07687 13.27408,10.80813 0.26874,-0.26875 -1.37712,-2.7013 -3.65748,-5.40568 z m 239.96199,-5.13762 c -0.60142,-1.12377 -3.66738,-3.92761 -6.81323,-6.23074 -3.14585,-2.30314 -8.51325,-6.62056 -11.92755,-9.59427 -3.4143,-2.97372 -6.6768,-5.11691 -7.25,-4.76265 -1.52075,0.93987 -1.27416,5.90582 0.51533,10.37821 1.75671,4.39043 7.03269,7.7735 16.44249,10.54327 3.025,0.8904 6.4,2.31324 7.5,3.16187 1.7627,1.35988 2.03716,1.36525 2.31323,0.0452 0.17228,-0.82374 -0.17884,-2.41716 -0.78027,-3.54093 z m -8.32385,-30.31159 c -17.61867,-18.51275 -21.26899,-22.66442 -29.95913,-34.07384 -6.86582,-9.01425 -18.79357,-27.768 -25.71104,-40.424946 -2.45358,-4.489342 -4.65541,-7.968072 -4.89296,-7.730532 -0.70565,0.70565 3.78871,13.369338 7.86199,22.152618 4.67374,10.07805 7.2058,13.79321 22.71372,33.3267 18.37747,23.14792 23.35126,28.85038 28.0024,32.10481 2.32325,1.62559 6.28812,4.74202 8.81082,6.9254 2.5227,2.18339 5.49858,3.96979 6.61306,3.96979 1.48378,0 -2.11454,-4.35101 -13.43886,-16.25 z m -83.10537,3.84026 c 0.7053,-1.83799 -2.0715,-7.17204 -4.14854,-7.96908 -0.89033,-0.34165 -3.15697,-0.62118 -5.03699,-0.62118 -4.293,0 -4.58733,2.45713 -0.82932,6.92327 1.96767,2.33844 3.41495,3.07673 6.03139,3.07673 2.03954,0 3.66296,-0.57452 3.98346,-1.40974 z m 9.20425,-13.45043 c 1.75869,-1.11538 0.52026,-5.89379 -1.85728,-7.16621 -1.00057,-0.53549 -3.24759,-0.97362 -4.99338,-0.97362 -2.96242,0 -3.12837,0.18343 -2.48783,2.75 1.3139,5.26464 5.6185,7.74909 9.33849,5.38983 z m -19.4966,-3.05122 c 2.61767,-2.61767 -4.6613,-8.08861 -10.76173,-8.08861 -4.65689,0 -4.66582,2.08384 -0.0288,6.72083 3.0267,3.0267 3.96966,3.43107 6.71875,2.88125 1.75886,-0.35177 3.59117,-1.03283 4.07181,-1.51347 z m -235.94717,-0.46743 c 3.7721,-1.57609 7.63578,-6.00661 7.63578,-8.75604 0,-1.59091 -0.79738,-1.86514 -5.42327,-1.86514 -4.39165,0 -6.01538,0.49822 -8.53592,2.61912 -2.69949,2.27147 -6.04081,7.15623 -6.04081,8.83122 0,1.11881 9.1746,0.50355 12.36422,-0.82916 z m 214.88211,-1.30927 c 1.57952,-0.90033 -2.326,-6.14403 -5.36517,-7.20349 -4.32117,-1.50637 -9.88284,-1.42663 -9.87457,0.14158 0.0103,1.96323 3.74261,7.12779 5.71146,7.90331 1.66599,0.65622 7.86057,0.1092 9.52828,-0.8414 z m -186.36517,-8.42033 c 3.83244,-1.33599 7.1204,-6.64175 4.96314,-8.00897 -0.73936,-0.46859 -2.85974,-0.85888 -4.71195,-0.8673 -2.58985,-0.0118 -4.26432,0.88136 -7.25,3.86704 -2.13529,2.1353 -3.88235,4.3853 -3.88235,5 0,1.44322 6.75119,1.44895 10.88116,0.009 z m 52.45771,-1.83032 c 2.41627,-0.91866 6.66113,-4.79913 6.66113,-6.08931 0,-1.17409 -5.02735,-2.97205 -8.29705,-2.96732 -3.10487,0.004 -9.70295,4.77641 -9.70295,7.01746 0,0.5064 1.4625,1.34301 3.25,1.85913 4.35716,1.25808 5.20384,1.27693 8.08887,0.18004 z m -22.2825,-3.28412 c 3.73979,-4.09455 3.70216,-5.31706 -0.20559,-6.67931 -5.26439,-1.83518 -7.82906,-1.31955 -11.45078,2.30217 -5.54266,5.54266 -4.48367,7.00199 5.40637,7.45017 2.55662,0.11585 3.97386,-0.58098 6.25,-3.07303 z m 184.94363,2.23193 c 1.30936,-0.83825 1.24581,-1.43338 -0.5,-4.68265 -2.25357,-4.19428 -6.56321,-5.91235 -12.18512,-4.85767 -3.74452,0.70248 -4.01584,1.53181 -1.67161,5.10956 3.01664,4.60398 10.48562,6.90905 14.35673,4.43076 z m -67.81222,-2.79685 c 0.59415,-0.59415 0.023,-2.01727 -1.53669,-3.82892 -2.26752,-2.63381 -3.04641,-2.88172 -9.00157,-2.86509 -3.5856,0.01 -6.84581,0.34475 -7.24493,0.74386 -1.0247,1.02471 2.53325,4.75325 6.09541,6.38766 3.1425,1.44185 10.06765,1.18262 11.68778,-0.43751 z m 42.663,0.68995 c 3.75454,-1.30884 3.96285,-2.78918 0.80935,-5.75174 -3.94652,-3.70756 -15.66013,-5.83678 -15.66013,-2.8466 0,2.08438 8.5592,9.53712 11.10078,9.66576 0.33042,0.0167 2.01792,-0.46361 3.75,-1.06742 z m -20.85078,-3.32959 c 0,-2.78276 -5.1116,-5.68902 -9.44579,-5.37051 -5.14519,0.3781 -5.39243,2.62941 -0.55421,5.04638 4.32354,2.15985 10,2.34384 10,0.32413 z m -69.89473,-1.62628 c 4.36827,-2.22853 4.58113,-3.72685 0.81576,-5.74197 -4.2218,-2.25939 -16.92103,0.24074 -16.92103,3.33128 0,1.63066 5.82,4.4133 9.28984,4.44162 1.53441,0.0125 4.60135,-0.9014 6.81543,-2.03093 z m -22.74013,-7.01888 c 1.44917,-1.13992 2.63486,-2.42739 2.63486,-2.86104 0,-0.43365 -1.9125,-1.80064 -4.25,-3.03774 -3.74022,-1.97949 -4.7298,-2.11416 -8.25,-1.12274 -4.95325,1.39502 -7.93345,3.58374 -6.98009,5.12632 2.42477,3.92336 12.78503,5.08896 16.84523,1.8952 z m 47.77408,-0.92074 2.36078,-1.99332 -3.36598,-3.09621 c -2.91818,-2.6843 -3.84485,-3.00638 -6.96545,-2.42095 -4.73917,0.88907 -9.38726,3.34094 -8.63647,4.55574 1.1362,1.83841 7.97964,4.85983 11.10712,4.90386 1.73511,0.0244 4.19514,-0.84737 5.5,-1.94912 z m -108.6854,-1.99429 c 3.43851,-2.14335 5.90988,-5.61489 5.02104,-7.05307 -1.07926,-1.74627 -8.84315,-1.03092 -12.47486,1.14941 -4.02603,2.41706 -8,5.89232 -8,6.99603 0,2.46073 11.00123,1.68309 15.45382,-1.09237 z m 30.44734,0.53872 c 2.51738,-1.30179 6.75494,-6.30675 5.92874,-7.00242 -3.97708,-3.34875 -9.17065,-3.19476 -15.54482,0.46089 -5.95135,3.41316 -8.3407,6.56725 -5.5314,7.3018 3.92841,1.02717 12.52536,0.59568 15.14748,-0.76027 z m 102.6753,-1.01861 c 3.4067,-1.42341 3.46541,-1.53897 1.95386,-3.84588 -2.15991,-3.29644 -5.70606,-4.68662 -11.95493,-4.68662 -7.436,0 -8.85957,1.91872 -4.11087,5.54073 1.95951,1.4946 5.01911,3.06329 6.79911,3.486 1.78001,0.4227 3.36332,0.81461 3.51849,0.87091 0.15516,0.0563 1.86262,-0.55802 3.79434,-1.36514 z m 25.14102,-1.33673 c 0.91969,-0.58439 0.76183,-1.52284 -0.64541,-3.83687 -2.06302,-3.39236 -6.42212,-4.66319 -12.57207,-3.66519 -3.93933,0.63927 -4.27611,1.31785 -1.75,3.52614 4.63084,4.04822 11.83991,5.96322 14.96748,3.97592 z m -76.15861,-5.69352 c 1.8933,-1.46084 1.87199,-1.55941 -0.86463,-4 -3.33104,-2.9707 -8.23822,-3.28701 -13.35147,-0.86061 -3.89952,1.85044 -3.52216,2.67424 2.18139,4.76206 5.22576,1.91292 9.63642,1.94904 12.03471,0.0986 z m -27.44502,-6.68639 c 10.28983,-5.78321 -2.35534,-9.30444 -13.32196,-3.70969 l -4.20172,2.14356 2.3157,1.87513 c 3.22318,2.60997 10.26908,2.46681 15.20798,-0.309 z m 54.63615,0.55385 c 2.81276,-0.75379 2.86815,-2.50032 0.15712,-4.95377 -1.56428,-1.41565 -3.52171,-1.87381 -7.75,-1.81398 -6.25331,0.0885 -13.1008,2.85436 -11.36467,4.59049 2.1865,2.1865 13.90222,3.53204 18.95755,2.17726 z"
       id="path177"
       sodipodi:nodetypes="sssssssssssssccsssssssssssssssscsssssssssssssssssssssscssssssssssssssssssssscsssssssssssssssscssssssssssssscssscssssssssssssssssssssssssssssssssssssssssssssssscsssssssssssssssssssssssssssssssssssssssssssssssssssscsssssssssssssssssssssssssssssscssssssssssssssssssssssssssssssssssscssscsssssssssssssssssssssssssssssssssssssssssssssssssssssssssscssssssssssssssssssssssssssssssssssssssssssssssssssssssssssssssscssssssscsssssssssssssssssssssssssssssssssssssssssssssssssssscssssssssssssssscsssssssccsssssssssssssssssssssssssssssssssssssscssssccsscsssssssssssssssssssssssssssssssssssssssscssssssssssssssssssssssssssssssssssscsssssss" />
  </g>
</svg>
