<?xml version="1.0" encoding="UTF-8" standalone="no"?>
<!-- Created with Inkscape (http://www.inkscape.org/) -->

<svg
   version="1.1"
   id="svg184"
   width="4000"
   height="3000"
   viewBox="0 0 4000 3000"
   sodipodi:docname="ChimeraName.svg"
   inkscape:version="1.2.1 (9c6d41e410, 2022-07-14)"
   xmlns:inkscape="http://www.inkscape.org/namespaces/inkscape"
   xmlns:sodipodi="http://sodipodi.sourceforge.net/DTD/sodipodi-0.dtd"
   xmlns="http://www.w3.org/2000/svg"
   xmlns:svg="http://www.w3.org/2000/svg">
  <defs
     id="defs188" />
  <sodipodi:namedview
     id="namedview186"
     pagecolor="#505050"
     bordercolor="#eeeeee"
     borderopacity="1"
     inkscape:showpageshadow="0"
     inkscape:pageopacity="0"
     inkscape:pagecheckerboard="0"
     inkscape:deskcolor="#505050"
     showgrid="false"
     inkscape:zoom="0.28233333"
     inkscape:cx="2002.9516"
     inkscape:cy="1498.229"
     inkscape:window-width="1920"
     inkscape:window-height="1027"
     inkscape:window-x="-8"
     inkscape:window-y="-8"
     inkscape:window-maximized="1"
     inkscape:current-layer="g190" />
  <g
     inkscape:groupmode="layer"
     inkscape:label="Image"
     id="g190">
    <path
       style="fill:#000000"
       d="m 1070.8199,1557.7627 c -17.3686,-3.4435 -29.6413,-16.9911 -31.9209,-35.2369 l -0.7162,-5.7324 h 104.1152 104.1152 v 21 21 l -85.75,-0.1096 c -47.1625,-0.06 -87.592,-0.4747 -89.8433,-0.9211 z m 233.5933,-40.4693 v -41.5 h 21 21 v 41.5 41.5 h -21 -21 z m 167,-21 v -62.5 h -83.5 -83.5 v -83.5 -83.5 h 21 21 v 62.5 62.5 h 62.5 62.5 v -62.5 -62.5 h 21 21 v 146 146 h -21 -21 z m 100,-83.5 v -146 h 20.5 20.5 v 146 146 h -20.5 -20.5 z m 99,42 v -104 h 21 21 v 104 104 h -21 -21 z m 125,-21 v -125 h -62.5 -62.5 v -21 -21 l 125.25,0.01 c 77.1416,0 127.5546,0.3827 131.25,0.9871 13.4988,2.2079 25.5724,11.6047 31.7985,24.7486 l 3.2015,6.7585 0.2682,129.75 0.2683,129.75 h -21.0183 -21.0182 v -125 -125 h -41.5 -41.5 v 125 125 h -21 -21 v -125 z m 255.2507,123.4549 c -15.0968,-4.0653 -24.7689,-13.829 -28.7178,-28.9899 -0.8431,-3.2368 -1.5329,-7.1407 -1.5329,-8.6751 v -2.7899 h 104 104 v 21 21 l -86.25,-0.066 c -71.0234,-0.054 -87.1767,-0.3154 -91.4993,-1.4793 z m 235.7493,-81.9549 v -83.5 h 66.3185 c 74.1201,0 71.6439,0.2118 82.5328,-7.0596 6.7667,-4.5186 12.3107,-11.4026 15.4796,-19.2212 1.9247,-4.7487 2.1471,-7.5406 2.467,-30.9692 l 0.3515,-25.75 h -62.5747 -62.5747 v 21 21 h -21 -21 v -42 -42 l 83.75,0.01 c 49.5835,0 86.1769,0.4032 89.6988,0.9799 8.3771,1.3718 16.1353,5.4708 22.6182,11.9503 6.8218,6.818 10.6777,14.6756 11.9289,24.3086 1.2273,9.4489 1.213,42.1516 -0.023,51.7554 -1.2956,10.0704 -5.4904,18.444 -12.4057,24.7642 -6.062,5.5404 -10.3752,7.8677 -19.025,10.2654 l -5.9574,1.6514 4.2699,0.5727 c 10.7525,1.4422 24.3103,12.0126 29.4887,22.9909 1.5014,3.183 3.1299,8.9799 3.6521,13 0.5183,3.9905 0.9562,34.8179 0.9732,68.5054 l 0.031,61.25 h -21 -21 v -62.5 -62.5 h -62.5 -62.5 v 62.5 62.5 h -21 -21 v -83.5 z m 266,42 v -41.5 h 21 21 v 41.5 41.5 h -21 -21 z m 167,-21 v -62.5 h -83.282 -83.282 l 0.2932,-57.25 c 0.4282,-83.6014 0.1729,-78.0775 3.9656,-85.7816 5.9416,-12.0692 17.6881,-20.83 30.8052,-22.9755 7.7964,-1.2751 130.054,-1.3 137.8208,-0.028 16.7842,2.7488 31.1259,16.3702 34.5705,32.8343 0.7778,3.7177 1.1087,43.0372 1.1087,131.75 v 126.4508 h -21 -21 z m 0,-146 v -41.5 h -62.5 -62.5 v 41.5 41.5 h 62.5 62.5 z m -1680.7761,37.25 0.2761,-88.25 2.3226,-5.7521 c 3.0661,-7.5933 8.9967,-14.9435 15.5889,-19.3205 10.9522,-7.2718 5.3155,-6.8753 102.3385,-7.1991 l 87.25,-0.2912 v 21.0315 21.0314 h -83 -83 v 83.5 83.5 h -21.0261 -21.0262 z m 982.0001,-0.5528 0.276,-88.8027 3.7659,-7.6189 c 6.179,-12.5009 16.995,-20.6131 30.4133,-22.8107 3.3591,-0.5501 41.2407,-0.9558 89.5708,-0.9591 l 83.75,-0.01 v 21 21 h -83 -83 v 41.5 41.5 h 83 83 v 21 21 h -83 -83 v 21 21 h -21.026 -21.026 l 0.276,-88.8028 z m 813.6611,46.4232 c -5.6087,-2.0043 -9.6259,-5.3233 -12.6312,-10.4357 l -2.7539,-4.6847 -0.2843,-51.75 -0.2842,-51.75 h 12.0342 12.0343 v 12 12 l 38.25,0.01 c 38.1255,0.01 38.2663,0.017 43.25,2.3735 6.0094,2.8409 9.6836,6.5736 12.4191,12.6167 1.8921,4.18 2.0385,6.4963 2.0589,32.5719 0.025,31.9659 -0.4003,34.4299 -7.1135,41.2102 -7.03,7.1003 -7.9462,7.2237 -53.2926,7.174 -30.1233,-0.033 -40.9694,-0.3646 -43.6868,-1.3357 z m 80.1149,-46.6204 v -24 h -36 -36 v 24 24 h 36 36 z m 71.3939,45.6249 c -6.1488,-2.8895 -8.947,-5.6537 -11.768,-11.6249 -2.0999,-4.445 -2.1259,-5.2942 -2.1259,-69.5 0,-52.1539 0.268,-65.7581 1.3559,-68.8358 1.7664,-4.9974 6.4264,-10.2317 11.5494,-12.9731 4.0316,-2.1573 4.7572,-2.1911 47.0947,-2.1911 47.5673,0 45.3151,-0.2864 52.401,6.664 7.237,7.0986 7.0525,5.4802 7.077,62.086 l 0.022,50.75 h -12 -12 v -48 -48 h -36 -36 v 60 60 h 48.1359 48.1359 l -0.6288,4.5879 c -0.8355,6.0955 -5.0677,12.1615 -11.0791,15.8794 l -4.9035,3.0327 -42.0802,0.2622 -42.0802,0.2623 z m -167.3939,-143.4468 c 0,-4.2128 3.367,-11.2299 7.2179,-15.0426 7.2405,-7.1689 6.9456,-7.1355 62.9602,-7.1355 h 49.8219 v 12 12 h -60 c -57.3778,0 -60,-0.08 -60,-1.8219 z"
       id="path194" />
  </g>
</svg>
