<?xml version="1.0" encoding="UTF-8" standalone="no"?>
<!-- Created with Inkscape (http://www.inkscape.org/) -->

<svg
   version="1.1"
   id="svg179"
   width="491"
   height="400"
   viewBox="0 0 491 400"
   sodipodi:docname="fierce-lion-head-logo-with-mane-free-vector.svg"
   inkscape:version="1.2.1 (9c6d41e410, 2022-07-14)"
   xmlns:inkscape="http://www.inkscape.org/namespaces/inkscape"
   xmlns:sodipodi="http://sodipodi.sourceforge.net/DTD/sodipodi-0.dtd"
   xmlns="http://www.w3.org/2000/svg"
   xmlns:svg="http://www.w3.org/2000/svg">
  <defs
     id="defs183" />
  <sodipodi:namedview
     id="namedview181"
     pagecolor="#505050"
     bordercolor="#eeeeee"
     borderopacity="1"
     inkscape:showpageshadow="0"
     inkscape:pageopacity="0"
     inkscape:pagecheckerboard="0"
     inkscape:deskcolor="#505050"
     showgrid="false"
     inkscape:zoom="0.529375"
     inkscape:cx="223.84888"
     inkscape:cy="134.12042"
     inkscape:window-width="1920"
     inkscape:window-height="1027"
     inkscape:window-x="-8"
     inkscape:window-y="-8"
     inkscape:window-maximized="1"
     inkscape:current-layer="g185" />
  <g
     inkscape:groupmode="layer"
     inkscape:label="Image"
     id="g185">
    <path
       style="fill:#000000"
       d="m 237.82788,341.86098 c 0.35977,-3.4375 0.15146,-9.4 -0.46291,-13.25 -2.33991,-14.66334 -9.06609,-23.9712 -29.4479,-40.75079 -6.09627,-5.01883 -14.57163,-12.4936 -18.83413,-16.61059 l -7.75,-7.48545 v 11.38582 11.38583 l -5.07598,-4.96241 c -20.48501,-20.02667 -32.15044,-56.66264 -28.96867,-90.97787 2.7129,-29.25846 12.60398,-54.62181 29.8132,-76.44895 l 2.73145,-3.4644 -3.00516,2.10816 c -1.65284,1.15949 -5.50184,4.51847 -8.55334,7.4644 -19.12137,18.4599 -30.94238,47.44491 -36.41545,89.29033 -0.85849,6.56375 -1.80251,12.17572 -2.09784,12.47104 -1.34283,1.34283 -6.37886,-12.4521 -8.91256,-24.41366 -1.92143,-9.07109 -1.92063,-30.88426 0.002,-44.40916 0.81436,-5.72974 1.25407,-10.64428 0.97715,-10.92121 -0.93709,-0.93708 -7.93425,5.49787 -12.63043,11.6156 -2.56858,3.34611 -4.88877,5.86521 -5.15598,5.598 -1.44901,-1.44901 6.37851,-29.50218 10.56797,-37.87469 3.3657,-6.72626 10.29576,-16.79098 14.36434,-20.86175 8.51073,-8.515315 22.41632,-15.999486 34.85967,-18.761944 11.65338,-2.58708 50.68515,-1.049879 50.45088,1.986925 -0.027,0.350223 -5.86738,8.961769 -12.97857,19.136769 -13.77345,19.70762 -19.21773,29.19912 -23.2852,40.59515 -7.09544,19.87965 -5.84187,42.62239 3.50105,63.51743 2.43959,5.45604 3.33915,6.68221 3.85341,5.25252 0.36898,-1.02581 1.47779,-9.8526 2.46402,-19.6151 0.98622,-9.7625 2.06343,-17.73712 2.39377,-17.72137 0.33035,0.0157 3.38187,5.75324 6.78115,12.75 10.45491,21.51939 25.12335,38.3239 49.31949,56.50154 15.11802,11.35758 20.6214,16.62263 25.9846,24.85926 8.15473,12.52376 9.23729,26.57934 3.1471,40.86057 -1.7591,4.125 -4.27895,8.82051 -5.59968,10.43446 l -2.40132,2.93447 -0.49724,-2.43447 c -0.27385,-1.33895 -1.01971,-5.35946 -1.65785,-8.93446 -2.54632,-14.26524 -11.41393,-31.30507 -21.15282,-40.6469 -6.47007,-6.20628 -17.22649,-12.97763 -25.9738,-16.35095 -4.28166,-1.65118 -8.12105,-3.00215 -8.53196,-3.00215 -0.41092,0 3.83817,4.3044 9.44242,9.56534 16.38358,15.37994 25.56547,28.81827 30.26744,44.29851 4.24772,13.98468 1.47165,28.80364 -7.25851,38.74675 -4.27479,4.86872 -5.02987,4.36332 -4.27381,-2.8606 z m 57.50506,-56.93611 c 0,-11.52937 -5.74797,-26.43286 -13.34546,-34.60246 -5.40851,-5.81578 -11.56926,-10.30118 -25.65454,-18.67806 -20.51402,-12.20021 -29.98682,-20.53927 -35.30294,-31.07771 -1.64434,-3.25966 -4.3654,-13.15588 -4.88235,-17.75655 l -0.31471,-2.80089 -6.76345,5.20411 c -3.7199,2.86226 -7.03777,4.92978 -7.37306,4.59449 -0.33529,-0.33529 -0.82319,-4.56673 -1.08423,-9.40322 -0.35303,-6.54096 0.0627,-11.39552 1.62306,-18.95068 1.15373,-5.5864 2.09768,-10.36867 2.09768,-10.62727 0,-0.2586 -3.8777,0.62189 -8.61711,1.95664 -4.73941,1.33475 -8.85151,2.19243 -9.13799,1.90594 -0.80132,-0.80131 1.80051,-9.53176 4.40306,-14.77449 4.70854,-9.48519 16.34605,-15.31156 30.35625,-15.19801 10.84831,0.0879 15.24585,2.75458 12.10272,7.33905 -5.07393,7.40067 -8.86012,22.54695 -7.65126,30.60817 0.78229,5.21667 2.014,5.09782 2.91005,-0.28079 0.34564,-2.07469 2.66701,-7.37216 5.1586,-11.77216 2.49159,-4.4 6.14535,-11.26771 8.11945,-15.26158 3.27906,-6.63398 3.48041,-7.52442 2.3296,-10.30271 -0.76392,-1.84427 -2.79146,-3.82258 -5.15184,-5.02676 -2.14069,-1.0921 -3.62472,-2.41838 -3.29783,-2.94729 0.32688,-0.52891 3.28361,-0.96166 6.5705,-0.96166 5.71285,0 5.92788,-0.0902 4.88018,-2.04787 -0.60279,-1.12632 -2.30612,-2.52267 -3.78518,-3.10298 l -2.6892,-1.05512 2.5,-0.98492 c 1.375,-0.54171 5.34795,-0.7042 8.82879,-0.36109 6.24409,0.61547 6.31954,0.59323 5.63765,-1.6621 -2.54623,-8.42166 -17.64369,-14.706927 -28.37446,-11.812652 -9.21751,2.486124 -12.74481,9.655382 -9.26121,18.823472 2.26483,5.96056 1.51702,6.48315 -3.95572,2.76432 -9.23911,-6.27813 -8.9963,-19.373142 0.53596,-28.905404 5.37564,-5.375644 11.01078,-7.877938 19.03864,-8.454144 l 6.94965,-0.498817 -5.32359,-2.349449 c -11.84705,-5.228433 -17.9897,-6.544587 -33.07571,-7.086962 -14.89472,-0.535497 -27.5095,0.5637 -38.35172,3.341801 -10.89342,2.791223 -9.24055,0.763379 5.19654,-6.375436 20.34159,-10.058452 37.93956,-15.232649 51.80781,-15.232649 12.63339,0 28.1856,5.102898 37.59737,12.336223 4.71071,3.620374 4.75,3.630334 4.75,1.204225 0,-3.410754 -1.85588,-7.31809 -5.83762,-12.290448 -4.25626,-5.315165 -2.649,-5.599486 6.41872,-1.135458 12.67646,6.240598 19.05022,14.728081 20.14749,26.82895 0.30205,3.33108 0.74406,6.056508 0.98223,6.056508 0.23817,0 2.38192,-1.142117 4.76388,-2.538038 l 4.33083,-2.538039 1.71755,4.497327 c 1.27505,3.338681 1.54291,5.895031 1.0397,9.92257 l -0.67784,5.42524 9.33743,9.36547 c 5.13558,5.15101 12.11837,11.39047 15.51731,13.86547 l 6.17989,4.5 0.0402,6.1315 0.0402,6.13149 11.53516,11.10021 c 6.34433,6.10511 16.80622,15.4884 23.24864,20.85176 l 11.71349,9.75155 -3.99865,0.70912 c -2.19925,0.39001 -6.69864,0.74 -9.99864,0.77775 -8.2156,0.094 -13.5,1.0738 -13.5,2.50315 3e-5,3.87247 11.39336,8.54347 20.83896,8.54347 h 4.41873 l -0.66278,4.9963 c -1.41312,10.65262 -6.01699,17.09323 -15.08482,21.10302 -3.88726,1.71894 -7.53345,2.31001 -16.5,2.67474 -10.62095,0.43203 -12.12803,0.25588 -19.51006,-2.28035 -9.89654,-3.40013 -15.51044,-6.60263 -19.46033,-11.10131 -2.89705,-3.29955 -8.03967,-12.36766 -8.03967,-14.17653 0,-0.46785 2.3625,-1.61236 5.25,-2.54336 5.08447,-1.63937 14.75,-7.86205 14.75,-9.49607 0,-0.44227 -4.1625,-0.20821 -9.25,0.52014 -20.1105,2.87912 -37.84963,-2.91439 -49.52043,-16.17312 -2.33959,-2.65791 -4.58585,-4.50052 -4.99168,-4.09468 -0.40584,0.40584 -0.73249,4.63789 -0.72589,9.40455 0.01,6.96961 0.43878,9.46863 2.19151,12.76219 3.35816,6.3103 11.04221,13.64605 20.86471,19.91895 23.76044,15.17404 29.4476,19.69569 34.23624,27.21996 4.09948,6.44142 6.43458,15.10611 6.52418,24.20879 0.0844,8.57723 -1.2265,13.3787 -5.6125,20.55678 -3.14757,5.15128 -10.52187,13.5 -11.92435,13.5 -0.43548,0 -0.79179,-2.33375 -0.79179,-5.18611 z m 27.9064,-127.56389 c -1.91138,-2.49902 -9.0035,-9.16729 -11.6564,-10.95977 -1.58072,-1.06804 -2.25,-2.51367 -2.25,-4.85993 0,-3.02224 -0.33122,-3.40181 -3.48466,-3.9934 -1.91656,-0.35955 -8.57428,-0.49216 -14.79493,-0.29469 -8.87318,0.28167 -11.91618,0.75605 -14.12224,2.20151 -3.92727,2.57325 -2.18669,3.86882 6.4354,4.79008 9.43003,1.0076 19.45633,4.28436 30.41864,9.9413 10.21214,5.26983 11.34834,5.65139 9.45419,3.1749 z m 22.07834,101.69333 c -2.26309,-8.40446 -13.01417,-16.35445 -25.66975,-18.98174 -5.79735,-1.20352 -6.13727,-1.76099 -3.64567,-5.97893 3.0915,-5.23349 11.82256,-7.95655 25.56044,-7.97184 11.68972,-0.013 17.40458,1.79438 18.50195,5.85141 1.32287,4.89078 0.50701,11.93803 -2.00595,17.32697 -2.4779,5.31372 -9.10113,13.8108 -10.76514,13.8108 -0.48594,0 -1.37509,-1.8255 -1.97588,-4.05667 z"
       id="path243" />
  </g>
</svg>
