<?xml version="1.0" standalone="no"?>
<!DOCTYPE svg PUBLIC "-//W3C//DTD SVG 20010904//EN"
 "http://www.w3.org/TR/2001/REC-SVG-20010904/DTD/svg10.dtd">
<svg version="1.0" xmlns="http://www.w3.org/2000/svg"
 width="4344.000000pt" height="1843.000000pt" viewBox="0 0 4344.000000 1843.000000"
 preserveAspectRatio="xMidYMid meet">

<g transform="translate(0.000000,1843.000000) scale(0.100000,-0.100000)"
fill="#000000" stroke="none">
<path d="M0 9215 l0 -9215 21720 0 21720 0 0 9215 0 9215 -21720 0 -21720 0 0
-9215z m43320 0 l0 -9095 -21600 0 -21600 0 0 9095 0 9095 21600 0 21600 0 0
-9095z"/>
<path d="M16950 15034 c-19 -2 -98 -9 -175 -14 -1436 -109 -3856 -735 -6075
-1570 -2093 -788 -3688 -1649 -4351 -2347 -191 -201 -328 -425 -365 -597 -116
-538 506 -1044 1991 -1619 288 -111 500 -188 1015 -367 730 -254 928 -329
1100 -414 211 -106 248 -157 174 -244 -87 -102 -364 -313 -1089 -832 -638
-456 -792 -568 -1103 -802 -1179 -887 -1825 -1511 -2065 -1993 -88 -176 -114
-328 -83 -473 39 -184 140 -286 341 -344 73 -21 99 -23 305 -22 302 1 547 34
920 125 1407 342 3324 1309 5902 2976 130 84 239 153 243 153 3 0 -11 -32 -30
-70 -20 -39 -50 -112 -66 -163 -26 -76 -30 -102 -26 -151 10 -107 94 -186 198
-186 81 0 161 48 764 461 299 205 482 310 599 344 41 12 61 14 69 6 7 -7 1
-49 -21 -143 -45 -187 -52 -231 -53 -320 -1 -129 48 -207 162 -257 77 -34 150
-35 289 -7 250 51 760 235 1042 377 l57 29 -30 -73 c-60 -144 -80 -310 -46
-388 22 -53 83 -117 141 -147 47 -25 60 -27 161 -26 92 0 124 5 195 28 280 93
617 333 991 705 86 86 185 188 221 228 l65 72 1 -122 c1 -345 164 -554 487
-627 83 -18 251 -28 346 -19 253 24 526 139 888 376 117 77 142 90 137 71 -46
-163 -47 -275 -3 -351 71 -120 232 -183 447 -175 90 4 123 11 230 47 302 101
564 256 859 507 33 28 42 33 38 18 -41 -141 11 -278 132 -351 79 -47 181 -68
331 -67 276 2 595 96 977 288 129 64 312 167 401 224 20 13 14 -5 -38 -109
-34 -68 -102 -197 -152 -285 -106 -193 -112 -214 -70 -267 58 -72 108 -97 197
-97 66 0 106 25 395 249 386 300 531 394 669 435 50 15 67 14 245 -4 429 -43
587 -49 736 -26 47 7 86 13 87 12 1 -1 -11 -22 -26 -46 -15 -25 -35 -65 -45
-90 -80 -200 12 -448 186 -506 40 -13 72 -15 142 -11 271 18 542 174 945 546
150 139 245 221 253 221 5 0 8 -21 8 -47 1 -137 65 -296 157 -387 163 -161
390 -181 798 -70 219 60 570 193 839 318 54 25 100 46 101 46 1 0 -17 -39 -41
-87 -92 -186 -115 -302 -75 -388 33 -72 102 -115 182 -115 58 0 178 65 407
222 631 430 785 526 918 573 78 28 100 30 107 13 2 -7 -11 -76 -29 -153 -74
-318 -70 -408 20 -503 67 -73 176 -102 306 -83 265 39 809 235 1213 438 l88
44 -8 -48 c-13 -77 -7 -251 12 -323 62 -241 225 -343 565 -357 399 -16 855 89
1385 319 141 61 436 206 553 272 34 20 62 32 62 28 0 -4 -4 -35 -9 -70 -35
-239 135 -449 423 -522 438 -111 1132 112 1924 618 160 102 429 292 466 329
36 35 58 88 63 152 5 63 -10 99 -44 112 -23 8 -11 16 -422 -250 -584 -379
-1114 -616 -1481 -661 -227 -28 -479 4 -549 69 -27 25 -31 36 -31 78 0 54 20
89 77 137 51 43 110 63 248 86 563 94 957 341 982 616 8 88 -10 141 -67 195
-79 77 -188 101 -341 74 -199 -34 -422 -132 -665 -294 -289 -191 -840 -481
-1269 -668 -400 -174 -691 -267 -999 -318 -22 -4 -101 -7 -175 -6 -207 0 -308
40 -364 144 -18 35 -22 58 -22 137 0 85 3 101 29 150 89 170 284 339 546 474
149 76 252 114 332 123 55 6 61 4 98 -26 53 -42 91 -55 143 -47 55 8 102 37
122 76 13 25 14 41 6 87 -14 73 -50 119 -120 152 -53 24 -65 26 -196 25 -110
-1 -157 -5 -219 -22 -202 -55 -437 -175 -618 -314 -164 -125 -207 -151 -503
-297 -492 -244 -862 -385 -1118 -427 -118 -19 -154 -13 -175 29 -16 32 -8 81
49 312 48 193 61 333 35 383 -9 17 -30 39 -47 48 -157 81 -446 -46 -1134 -496
-305 -199 -306 -200 -343 -200 -38 0 -56 28 -47 71 8 37 99 173 196 294 70 87
119 172 119 208 0 31 -29 76 -60 92 -40 21 -79 19 -115 -6 -50 -34 -409 -212
-590 -292 -657 -291 -1091 -402 -1261 -323 -135 63 -186 213 -158 464 13 114
17 126 43 152 26 27 51 93 51 137 0 43 -24 95 -57 128 -56 54 -121 69 -268 62
-237 -12 -472 -87 -813 -259 -128 -64 -266 -129 -307 -143 -317 -109 -715
-138 -1144 -82 -112 15 -229 27 -259 27 -148 0 -354 -94 -679 -312 -73 -49
-133 -86 -133 -82 0 3 30 58 67 122 92 160 155 297 161 348 7 67 -41 131 -103
136 -51 4 -71 -5 -119 -52 -88 -88 -605 -370 -866 -473 -277 -110 -520 -161
-730 -155 -95 3 -133 8 -158 21 -84 46 -93 139 -26 292 65 149 51 246 -41 290
-69 32 -97 18 -293 -139 -341 -274 -529 -405 -707 -495 -157 -79 -242 -104
-357 -105 -113 -1 -143 14 -167 81 -13 36 -13 48 2 108 32 131 157 336 217
356 41 15 92 97 98 159 4 44 1 52 -25 78 -19 19 -47 33 -81 41 -90 19 -96 17
-180 -63 -117 -111 -543 -386 -801 -515 -123 -62 -284 -128 -384 -158 -80 -24
-109 -28 -222 -28 -146 1 -208 18 -287 78 -148 115 -187 348 -103 616 24 74
33 87 128 193 146 162 423 479 633 723 952 1111 1594 1972 1788 2399 100 218
102 361 7 411 -128 66 -349 -71 -758 -469 -804 -781 -1718 -2034 -2064 -2829
-42 -96 -45 -100 -239 -305 -484 -507 -943 -885 -1178 -968 -107 -38 -162 -32
-162 17 0 91 138 271 343 448 172 147 326 244 457 286 103 34 161 88 195 184
29 84 14 173 -37 216 -50 43 -110 33 -261 -43 -179 -89 -381 -230 -563 -394
-71 -64 -108 -86 -295 -180 -532 -265 -962 -425 -1224 -453 -52 -6 -64 -4 -87
15 -39 30 -37 66 16 289 52 216 71 336 62 386 -15 79 -94 123 -199 112 -178
-18 -454 -161 -995 -516 -141 -92 -271 -175 -289 -185 -64 -32 -119 -11 -107
42 12 50 43 100 148 240 143 191 166 228 166 274 0 85 -98 135 -170 86 -124
-85 -945 -586 -1340 -818 -2506 -1474 -4429 -2321 -5700 -2510 -206 -31 -515
-38 -585 -13 -216 77 -54 408 440 897 608 602 1639 1407 3350 2615 527 372
572 410 605 517 30 99 27 177 -11 252 -43 87 -98 130 -273 216 -240 118 -497
217 -1191 461 -1217 427 -1577 566 -2020 779 -516 249 -803 463 -911 681 -98
200 -27 386 256 659 537 519 1775 1210 3415 1906 2220 942 4734 1678 6366
1865 411 46 879 67 1028 46 227 -33 314 -124 296 -308 -52 -510 -510 -1274
-1355 -2258 -490 -571 -1093 -1190 -1605 -1649 -412 -370 -622 -512 -792 -538
-99 -15 -151 -36 -192 -77 -46 -46 -76 -109 -91 -190 -10 -54 -9 -67 7 -99 34
-70 133 -102 315 -102 l95 0 84 56 c436 292 1438 1251 2203 2109 1064 1194
1674 2194 1721 2825 21 281 -139 443 -515 522 -79 17 -142 20 -375 23 -154 2
-296 1 -315 -1z m3914 -4651 c-126 -217 -458 -666 -982 -1328 -598 -754 -1007
-1250 -971 -1175 55 114 557 850 853 1250 285 387 697 876 989 1175 67 69 126
125 131 125 4 0 -5 -21 -20 -47z m15094 -3205 c36 -36 -8 -80 -148 -147 -160
-75 -427 -160 -504 -161 l-29 0 24 26 c79 84 516 293 615 294 16 0 35 -5 42
-12z m-8939 -81 c-601 -549 -923 -773 -1085 -754 -68 7 -87 30 -81 94 17 167
217 357 545 516 211 103 482 185 612 186 l55 0 -46 -42z"/>
</g>
</svg>
