<?xml version="1.0" standalone="no"?>
<!DOCTYPE svg PUBLIC "-//W3C//DTD SVG 20010904//EN"
 "http://www.w3.org/TR/2001/REC-SVG-20010904/DTD/svg10.dtd">
<svg version="1.0" xmlns="http://www.w3.org/2000/svg"
 width="14480.000000pt" height="2854.000000pt" viewBox="0 0 14480.000000 2854.000000"
 preserveAspectRatio="xMidYMid meet">

<g transform="translate(0.000000,2854.000000) scale(0.100000,-0.100000)"
fill="#000000" stroke="none">
<path d="M12610 15983 l0 -1148 -58 110 c-179 342 -435 601 -747 758 -559 280
-1260 179 -1783 -256 -280 -234 -497 -601 -572 -966 -119 -585 62 -1178 487
-1592 417 -407 991 -576 1565 -459 203 42 435 139 611 258 421 282 698 739
757 1247 6 58 10 646 10 1643 l0 1552 -135 0 -135 0 0 -1147z m-1205 -399 c50
-8 136 -31 193 -49 446 -149 792 -491 937 -928 54 -162 66 -236 72 -432 4
-153 2 -198 -15 -300 -104 -607 -556 -1074 -1162 -1202 -65 -14 -131 -18 -285
-18 -173 0 -214 3 -304 23 -136 31 -222 62 -353 129 -145 74 -263 159 -378
273 -205 204 -338 453 -401 750 -30 140 -33 428 -6 565 64 325 213 598 444
815 242 226 521 351 883 394 64 8 284 -4 375 -20z"/>
<path d="M60510 14795 l0 -2335 135 0 135 0 0 2335 0 2335 -135 0 -135 0 0
-2335z"/>
<path d="M68848 17120 c-87 -26 -137 -88 -145 -178 -6 -70 22 -130 80 -176 36
-29 45 -31 117 -31 87 0 109 10 163 77 40 49 48 135 19 200 -38 87 -144 135
-234 108z"/>
<path d="M86290 14795 l0 -2335 135 0 135 0 0 909 c0 590 4 937 11 986 42 303
198 607 426 831 210 205 487 349 776 401 128 23 371 22 502 -1 400 -72 766
-317 987 -662 85 -133 162 -325 201 -503 20 -93 21 -126 24 -1028 l4 -933 134
0 135 0 0 848 c0 869 -5 998 -40 1174 -75 366 -291 731 -573 965 -340 284
-757 428 -1182 410 -574 -24 -1052 -348 -1346 -911 l-59 -111 0 1148 0 1147
-135 0 -135 0 0 -2335z"/>
<path d="M115410 15983 l0 -1148 -59 112 c-183 345 -433 598 -751 758 -561
282 -1290 169 -1804 -280 -268 -234 -468 -578 -544 -935 -120 -561 46 -1148
443 -1559 422 -438 1012 -622 1606 -501 423 86 812 343 1065 701 121 172 238
441 278 639 34 172 36 260 36 1815 l0 1545 -135 0 -135 0 0 -1147z m-1205
-399 c128 -22 280 -75 414 -145 387 -200 656 -549 759 -983 24 -102 26 -129
26 -326 1 -185 -2 -228 -21 -312 -133 -590 -564 -1018 -1154 -1145 -65 -14
-129 -18 -284 -18 -173 0 -214 3 -304 23 -136 31 -222 62 -354 129 -416 212
-697 587 -783 1048 -28 147 -25 432 4 572 30 139 73 256 143 393 142 274 366
493 653 637 151 76 316 122 526 147 64 8 284 -4 375 -20z"/>
<path d="M123885 17121 c-126 -32 -186 -175 -123 -296 65 -124 262 -128 339
-7 48 76 39 184 -19 245 -15 16 -38 35 -52 42 -33 17 -108 26 -145 16z"/>
<path d="M129470 14795 l0 -2335 135 0 134 0 3 963 3 962 28 103 c170 621 668
1050 1292 1112 271 27 527 -21 780 -145 458 -225 760 -658 815 -1167 6 -60 10
-428 10 -963 l0 -865 135 0 135 0 0 818 c0 851 -6 1039 -40 1198 -123 589
-535 1067 -1100 1277 -345 128 -740 140 -1065 33 -392 -130 -720 -423 -932
-831 l-62 -120 -1 1148 0 1147 -135 0 -135 0 0 -2335z"/>
<path d="M29000 15101 c0 -619 4 -1070 10 -1132 29 -294 127 -567 291 -815
102 -153 313 -364 463 -462 272 -179 555 -274 879 -297 l97 -6 0 134 0 134
-102 7 c-273 19 -530 109 -750 262 -115 80 -290 258 -367 373 -109 165 -180
333 -223 528 -16 78 -22 145 -25 331 l-5 232 736 0 736 0 0 130 0 130 -735 0
-735 0 0 740 0 740 -135 0 -135 0 0 -1029z"/>
<path d="M57852 15013 l3 -1118 23 -108 c112 -527 451 -971 922 -1207 225
-113 415 -163 698 -185 l82 -6 0 134 0 134 -102 7 c-530 36 -998 353 -1222
827 -107 226 -145 422 -146 747 l0 152 735 0 735 0 0 130 0 130 -735 0 -735 0
0 740 0 740 -130 0 -131 0 3 -1117z"/>
<path d="M74430 15153 c0 -1017 6 -1205 40 -1372 62 -307 222 -615 434 -838
156 -164 295 -268 491 -366 224 -112 407 -160 693 -182 l82 -6 0 134 0 134
-102 7 c-590 40 -1103 433 -1289 988 -55 163 -69 261 -76 511 l-6 227 737 0
736 0 0 130 0 130 -735 0 -735 0 0 740 0 740 -135 0 -135 0 0 -977z"/>
<path d="M83623 15033 c3 -1080 4 -1100 25 -1212 45 -233 141 -469 273 -667
102 -153 313 -364 463 -462 272 -179 555 -274 879 -297 l97 -6 0 134 0 134
-102 7 c-367 25 -677 166 -939 426 -211 210 -340 449 -401 740 -15 72 -21 152
-25 328 l-6 232 737 0 736 0 0 130 0 130 -735 0 -735 0 0 740 0 740 -135 0
-136 0 4 -1097z"/>
<path d="M94690 15088 c0 -612 4 -1082 10 -1138 37 -351 180 -683 413 -958
292 -344 770 -578 1217 -594 l95 -3 3 50 c2 28 1 86 -3 131 l-7 81 -95 7
c-349 24 -666 164 -912 401 -217 209 -346 436 -418 735 -22 93 -26 133 -30
347 l-5 243 733 2 734 3 3 128 3 127 -736 0 -735 0 0 740 0 740 -135 0 -135 0
0 -1042z"/>
<path d="M133670 15068 c0 -1134 1 -1164 51 -1363 80 -328 289 -670 542 -885
300 -257 642 -395 1050 -425 l87 -6 0 134 0 134 -96 7 c-658 46 -1183 496
-1336 1145 -16 70 -21 133 -25 334 l-5 247 731 0 731 0 0 130 0 130 -730 0
-730 0 0 740 0 740 -135 0 -135 0 0 -1062z"/>
<path d="M15147 15850 c-422 -53 -827 -264 -1095 -570 -412 -472 -544 -1118
-347 -1707 82 -244 214 -460 399 -652 415 -427 1010 -610 1597 -491 355 73
708 277 944 547 179 204 319 470 385 728 53 210 63 508 26 720 -129 720 -691
1283 -1411 1410 -104 19 -399 28 -498 15z m458 -266 c253 -44 515 -172 715
-348 190 -167 334 -386 415 -629 60 -182 70 -248 70 -482 0 -238 -16 -337 -82
-515 -180 -482 -585 -830 -1093 -937 -65 -14 -131 -18 -285 -18 -173 0 -214 3
-304 23 -136 31 -222 62 -354 129 -414 211 -691 581 -783 1048 -25 126 -25
413 0 545 89 464 381 848 801 1055 173 85 320 127 520 149 71 7 288 -4 380
-20z"/>
<path d="M22185 15844 c-514 -80 -938 -403 -1194 -909 l-50 -100 -1 478 0 477
-135 0 -135 0 0 -1665 0 -1665 136 0 135 0 -2 918 c-2 938 0 970 37 1117 73
282 247 558 467 742 203 169 418 275 667 329 123 27 457 27 585 0 591 -124
1033 -575 1151 -1171 16 -81 18 -179 21 -1012 l4 -923 134 0 135 0 0 813 c0
855 -7 1040 -40 1201 -121 588 -535 1069 -1100 1279 -256 95 -566 130 -815 91z"/>
<path d="M26440 15853 c-503 -50 -961 -314 -1252 -723 -124 -174 -240 -438
-282 -641 -111 -544 34 -1096 399 -1512 237 -271 588 -474 945 -547 504 -103
1018 18 1425 335 314 245 545 620 625 1014 60 294 39 629 -56 902 -196 565
-647 982 -1222 1129 -159 40 -419 60 -582 43z m415 -268 c139 -24 248 -61 390
-130 416 -205 699 -572 796 -1035 29 -139 32 -417 5 -559 -86 -464 -368 -842
-783 -1054 -132 -67 -218 -98 -354 -129 -90 -20 -131 -23 -304 -23 -154 0
-220 4 -285 18 -197 41 -397 128 -561 242 -120 83 -291 258 -372 381 -107 162
-183 341 -224 534 -26 121 -26 468 0 590 62 289 201 552 394 746 255 256 561
400 928 438 72 7 278 -3 370 -19z"/>
<path d="M35550 15844 c-353 -48 -693 -213 -954 -464 -290 -280 -461 -609
-522 -1005 -22 -146 -15 -444 15 -587 94 -459 367 -861 753 -1112 429 -279
958 -356 1409 -206 239 79 420 190 607 374 151 147 236 262 333 450 l57 110 7
-135 c12 -222 -15 -442 -77 -624 -70 -207 -196 -410 -351 -564 -118 -118 -242
-206 -392 -281 -191 -94 -340 -135 -532 -147 l-113 -6 0 -130 0 -129 83 7
c284 22 473 72 697 185 471 236 807 675 922 1208 20 92 22 131 25 792 4 601 2
709 -12 800 -60 391 -232 721 -521 1000 -212 204 -486 357 -769 429 -194 49
-456 63 -665 35z m386 -245 c379 -38 754 -239 990 -532 134 -167 232 -364 285
-573 206 -819 -303 -1639 -1131 -1820 -122 -27 -458 -27 -579 0 -282 61 -526
193 -733 394 -58 57 -133 142 -166 188 -389 546 -367 1290 52 1811 186 230
484 421 773 494 179 45 327 56 509 38z"/>
<path d="M39756 15844 c-267 -36 -523 -136 -761 -297 -132 -90 -342 -303 -434
-441 -136 -205 -227 -422 -273 -649 -20 -97 -23 -142 -23 -337 1 -195 4 -239
23 -330 97 -445 338 -818 697 -1076 108 -77 334 -192 462 -234 423 -140 886
-109 1291 85 270 130 493 317 667 560 83 115 194 339 238 480 98 308 104 678
17 988 -150 535 -547 965 -1070 1160 -257 96 -559 129 -834 91z m375 -244
c349 -36 655 -183 904 -435 209 -211 347 -480 401 -781 23 -130 24 -383 1
-509 -49 -274 -183 -553 -355 -740 -215 -234 -494 -394 -803 -461 -121 -27
-457 -27 -579 0 -351 77 -673 282 -886 566 -69 91 -180 303 -215 410 -79 241
-95 535 -43 789 63 307 243 613 477 809 320 270 702 392 1098 352z"/>
<path d="M46541 15844 c-569 -77 -1072 -443 -1321 -959 -133 -274 -189 -568
-169 -880 34 -530 320 -1022 770 -1323 421 -282 984 -365 1427 -211 404 141
740 440 940 838 l53 106 -4 -260 c-4 -197 -9 -278 -22 -335 -68 -300 -194
-531 -404 -741 -258 -257 -578 -406 -918 -426 l-113 -6 0 -129 c0 -115 2 -128
18 -128 9 0 69 5 132 11 809 74 1453 686 1564 1488 13 91 16 226 16 734 0 734
-6 805 -86 1047 -215 646 -781 1104 -1459 1180 -122 13 -298 11 -424 -6z m494
-260 c446 -78 844 -374 1048 -780 109 -217 157 -424 157 -678 0 -252 -39 -427
-144 -641 -82 -168 -166 -284 -296 -415 -164 -165 -343 -275 -569 -350 -172
-57 -299 -74 -506 -67 -233 8 -367 40 -561 132 -439 208 -734 584 -824 1051
-129 669 192 1323 795 1619 287 141 587 184 900 129z"/>
<path d="M50741 15845 c-754 -108 -1344 -682 -1472 -1433 -18 -111 -21 -153
-16 -332 6 -223 20 -316 77 -492 124 -379 409 -739 745 -940 393 -236 843
-310 1285 -212 215 48 443 150 630 282 111 79 293 256 371 362 210 283 327
601 346 938 l6 112 -135 0 -135 0 -6 -112 c-16 -351 -165 -678 -426 -939 -228
-226 -502 -368 -806 -415 -133 -20 -408 -15 -520 11 -184 41 -379 124 -522
221 -333 227 -553 564 -628 964 -20 104 -26 371 -12 473 l8 57 1580 0 c1539 0
1579 0 1579 19 0 35 -62 265 -91 338 -226 570 -727 982 -1324 1088 -128 23
-404 28 -534 10z m494 -261 c111 -19 254 -65 364 -115 306 -141 591 -439 726
-759 l23 -55 -1366 -3 c-751 -1 -1367 0 -1370 2 -9 9 90 201 151 294 325 493
892 738 1472 636z"/>
<path d="M55225 15853 c-198 -26 -362 -75 -526 -159 -309 -158 -567 -427 -732
-764 l-52 -105 -3 483 -2 482 -135 0 -135 0 0 -1665 0 -1665 134 0 135 0 4
938 c3 911 4 940 24 1030 67 292 194 524 398 727 227 227 514 374 820 421 126
20 413 14 525 -11 291 -65 531 -195 735 -400 256 -255 397 -562 425 -929 5
-66 10 -493 10 -948 l0 -828 130 0 131 0 -4 953 c-4 1074 1 1007 -85 1265 -88
262 -218 470 -421 672 -230 230 -484 376 -785 454 -175 46 -445 68 -591 49z"/>
<path d="M63247 15849 c-415 -48 -828 -263 -1097 -571 -494 -566 -576 -1357
-208 -2010 246 -439 710 -765 1202 -847 532 -90 1044 54 1452 407 252 219 447
541 534 880 23 91 50 290 50 368 l0 54 -135 0 -135 0 0 -74 c0 -99 -32 -279
-69 -394 -165 -504 -585 -878 -1111 -989 -65 -14 -131 -18 -285 -18 -173 0
-214 3 -304 23 -136 31 -222 62 -353 129 -145 74 -263 159 -378 273 -205 204
-337 452 -401 750 -19 87 -23 137 -23 295 -1 105 3 207 7 228 l8 37 1580 0
1581 0 -7 43 c-25 151 -96 357 -172 497 -241 447 -644 761 -1128 880 -192 47
-417 62 -608 39z m477 -269 c450 -87 820 -372 1032 -795 l65 -130 -1367 -3
c-752 -1 -1369 0 -1372 3 -8 7 92 207 141 283 241 372 634 615 1072 662 113
12 308 3 429 -20z"/>
<path d="M71780 15850 c-301 -42 -582 -171 -813 -374 -159 -140 -289 -310
-404 -531 l-62 -120 -1 483 0 482 -135 0 -135 0 0 -1665 0 -1665 135 0 134 0
4 943 c3 912 4 945 24 1032 65 283 196 519 397 720 210 209 463 348 746 410
102 22 380 31 495 16 616 -82 1090 -521 1241 -1151 17 -69 18 -154 21 -1022
l4 -948 134 0 135 0 0 893 c0 1030 -2 1063 -86 1317 -199 602 -722 1054 -1349
1165 -106 19 -392 28 -485 15z"/>
<path d="M78331 15845 c-605 -87 -1116 -478 -1356 -1037 -56 -130 -91 -251
-117 -403 -27 -160 -22 -475 11 -627 117 -537 462 -978 951 -1212 208 -100
382 -146 618 -166 395 -34 807 81 1142 318 111 79 293 256 371 362 231 313
349 667 349 1047 -1 359 -97 673 -301 979 -82 122 -276 325 -393 411 -216 159
-481 273 -741 319 -129 22 -405 27 -534 9z m374 -245 c715 -67 1277 -645 1324
-1362 23 -346 -60 -662 -248 -948 -76 -116 -269 -308 -390 -389 -187 -124
-391 -205 -596 -237 -133 -20 -408 -15 -520 11 -184 41 -379 124 -522 221
-333 227 -552 563 -629 964 -24 129 -24 397 0 530 22 120 82 303 134 407 222
441 670 752 1157 802 117 12 167 12 290 1z"/>
<path d="M92020 15849 c-364 -41 -727 -213 -996 -471 -479 -460 -655 -1161
-448 -1788 69 -209 191 -426 338 -599 208 -247 523 -447 846 -537 310 -88 668
-77 969 28 112 39 271 122 374 195 45 32 141 117 212 188 145 145 228 259 319
440 l56 110 0 -477 0 -478 135 0 135 0 0 858 c0 879 -4 992 -40 1170 -72 347
-279 703 -546 937 -269 235 -607 384 -959 425 -104 11 -287 11 -395 -1z m485
-269 c268 -52 527 -188 732 -383 213 -204 361 -472 425 -770 30 -140 32 -424
4 -572 -85 -457 -365 -833 -775 -1044 -220 -113 -367 -150 -621 -158 -132 -4
-198 -1 -270 11 -510 83 -939 422 -1131 892 -76 186 -109 360 -109 574 0 203
29 362 101 545 128 329 372 600 690 764 176 92 352 144 554 165 82 8 298 -5
400 -24z"/>
<path d="M101241 15844 c-412 -56 -817 -277 -1077 -587 -303 -361 -440 -777
-413 -1252 30 -523 322 -1024 769 -1323 423 -282 985 -365 1428 -211 235 82
428 205 613 389 143 143 234 266 321 437 l57 114 3 -143 c6 -281 -13 -431 -77
-625 -72 -216 -183 -393 -354 -564 -259 -258 -578 -406 -918 -426 l-113 -6 0
-129 c0 -115 2 -128 18 -128 9 0 69 5 132 11 710 64 1309 552 1511 1231 62
211 62 205 66 928 5 790 0 858 -83 1110 -212 644 -782 1104 -1459 1180 -122
13 -298 11 -424 -6z m380 -244 c242 -25 465 -105 666 -239 224 -150 381 -328
500 -566 94 -186 138 -353 152 -572 19 -277 -31 -522 -155 -764 -209 -409
-570 -688 -1015 -785 -105 -23 -457 -27 -554 -6 -408 89 -736 305 -952 627
-231 344 -307 777 -208 1191 61 259 194 494 385 684 204 203 429 332 692 395
172 41 319 52 489 35z"/>
<path d="M105441 15845 c-537 -77 -1006 -396 -1269 -864 -109 -194 -166 -355
-204 -576 -27 -160 -22 -475 11 -628 116 -535 463 -977 951 -1211 208 -100
382 -146 618 -166 395 -34 805 81 1142 318 111 78 292 255 371 362 231 312
349 667 349 1047 -1 359 -97 672 -301 979 -81 122 -274 324 -393 411 -215 158
-480 272 -741 319 -127 22 -404 27 -534 9z m380 -245 c311 -32 588 -154 834
-367 240 -209 412 -522 470 -858 19 -107 21 -357 5 -465 -51 -330 -182 -592
-415 -826 -214 -214 -454 -346 -745 -410 -106 -23 -458 -27 -555 -6 -279 61
-509 175 -710 352 -244 214 -412 516 -471 845 -27 149 -25 395 4 542 87 441
339 791 727 1012 258 147 559 211 856 181z"/>
<path d="M109650 15853 c-711 -70 -1312 -569 -1504 -1248 -80 -283 -86 -622
-16 -900 248 -978 1278 -1541 2233 -1221 264 88 496 235 693 437 140 146 217
253 310 440 202 400 235 895 88 1320 -193 563 -647 982 -1222 1129 -159 40
-419 60 -582 43z m415 -268 c139 -24 248 -61 390 -130 420 -207 712 -591 801
-1055 25 -132 25 -419 0 -545 -92 -467 -369 -837 -783 -1048 -132 -67 -218
-98 -354 -129 -90 -20 -131 -23 -304 -23 -154 0 -220 4 -285 18 -581 122
-1023 559 -1152 1137 -20 92 -23 132 -23 315 0 234 10 300 70 482 125 375 388
673 753 853 153 76 328 124 517 144 72 7 278 -3 370 -19z"/>
<path d="M120880 15850 c-287 -40 -560 -161 -780 -346 -181 -151 -313 -319
-436 -558 l-63 -121 -1 483 0 482 -135 0 -135 0 0 -1665 0 -1665 135 0 134 0
4 943 c3 911 4 945 24 1032 140 607 629 1059 1242 1146 133 19 401 6 534 -25
580 -136 1017 -603 1112 -1191 12 -74 15 -248 15 -997 l0 -908 135 0 136 0 -4
943 c-4 1034 -1 989 -67 1214 -183 627 -717 1104 -1365 1218 -106 19 -392 28
-485 15z"/>
<path d="M126537 15849 c-509 -59 -976 -346 -1250 -769 -114 -177 -212 -410
-251 -600 -59 -284 -39 -625 54 -903 69 -205 203 -438 349 -602 250 -284 618
-489 997 -556 158 -28 405 -30 549 -5 489 87 927 426 1162 901 l55 110 -5
-255 c-4 -210 -8 -272 -26 -352 -63 -286 -198 -535 -401 -738 -255 -255 -593
-410 -932 -427 l-108 -6 0 -129 0 -130 98 7 c560 40 1040 313 1343 764 124
184 217 400 259 603 37 179 42 297 37 943 -4 576 -6 628 -25 730 -60 315 -218
633 -433 868 -274 299 -670 499 -1084 547 -102 11 -287 11 -388 -1z m478 -269
c285 -55 541 -194 756 -409 273 -274 411 -595 426 -986 14 -391 -100 -722
-355 -1025 -210 -249 -491 -415 -823 -487 -120 -26 -448 -26 -569 0 -605 129
-1057 599 -1161 1208 -18 106 -20 149 -16 294 8 240 46 400 142 601 218 454
660 765 1170 825 104 12 310 2 430 -21z"/>
<path d="M68770 14125 l0 -1665 130 0 130 0 0 1665 0 1665 -130 0 -130 0 0
-1665z"/>
<path d="M123800 14125 l0 -1665 135 0 135 0 0 1665 0 1665 -135 0 -135 0 0
-1665z"/>
</g>
</svg>
