<?xml version="1.0" standalone="no"?>
<!DOCTYPE svg PUBLIC "-//W3C//DTD SVG 20010904//EN"
 "http://www.w3.org/TR/2001/REC-SVG-20010904/DTD/svg10.dtd">
<svg version="1.0" xmlns="http://www.w3.org/2000/svg"
 width="776.000000pt" height="754.000000pt" viewBox="0 0 776.000000 754.000000"
 preserveAspectRatio="xMidYMid meet">

<g transform="translate(0.000000,754.000000) scale(0.100000,-0.100000)"
fill="#000000" stroke="none">
<path d="M100 3760 l0 -3700 3790 0 3790 0 0 3700 0 3700 -3790 0 -3790 0 0
-3700z m7560 0 l0 -3680 -3770 0 -3770 0 0 3680 0 3680 3770 0 3770 0 0 -3680z"/>
<path d="M3538 6733 l-3 -367 -75 -12 c-41 -7 -87 -15 -102 -18 -26 -5 -28 -2
-44 54 -9 33 -21 60 -26 60 -10 0 -201 -50 -205 -54 -1 -1 4 -24 12 -51 8 -26
15 -53 15 -60 0 -10 -183 -85 -207 -85 -5 0 -90 142 -188 315 -99 173 -183
315 -188 315 -4 0 -140 -76 -302 -168 l-294 -169 184 -322 c102 -178 185 -325
185 -326 0 -1 -40 -36 -88 -78 l-89 -76 -44 45 -44 44 -80 -80 -79 -80 42 -43
c23 -23 42 -46 42 -50 0 -5 -96 -129 -136 -176 -2 -2 -150 81 -330 184 -271
156 -328 185 -339 174 -14 -17 -337 -581 -333 -584 2 -1 142 -82 313 -180 171
-97 319 -183 331 -190 l21 -14 -34 -99 -35 -100 -55 15 c-31 8 -59 11 -63 6
-5 -4 -18 -44 -29 -88 -12 -44 -24 -88 -27 -97 -4 -14 6 -21 55 -34 69 -20 67
-13 47 -134 l-12 -75 -392 -3 -392 -2 0 -345 0 -345 392 -2 392 -3 17 -99 c10
-55 16 -103 14 -106 -2 -4 -29 -12 -60 -19 -30 -7 -55 -15 -55 -17 0 -8 51
-209 54 -211 1 -1 28 5 60 13 32 8 60 14 61 12 4 -4 74 -197 78 -212 1 -6
-150 -98 -335 -205 -186 -108 -337 -201 -335 -206 1 -6 76 -140 167 -298 116
-201 169 -286 180 -284 8 2 164 90 345 195 l330 192 19 -26 c11 -15 41 -52 67
-83 l48 -56 -44 -45 -45 -46 78 -77 78 -77 39 40 c22 22 45 39 52 38 18 -4
172 -131 172 -143 1 -5 -82 -156 -183 -335 -102 -179 -186 -331 -188 -337 -2
-8 121 -83 294 -182 l297 -169 186 327 c102 179 189 332 194 339 8 13 22 9
198 -53 9 -3 8 -19 -3 -66 -8 -34 -13 -63 -12 -64 11 -8 209 -51 212 -46 2 3
9 30 16 59 14 59 9 58 125 37 44 -8 81 -14 83 -15 1 0 2 -175 2 -390 l0 -390
345 0 345 0 2 392 3 391 99 19 c54 11 104 17 111 15 6 -3 17 -30 24 -60 l12
-55 67 18 c37 10 86 24 109 30 l41 10 -14 53 c-7 28 -14 57 -14 63 0 10 178
80 184 73 1 -2 89 -156 195 -342 127 -222 198 -337 206 -333 13 5 577 325 584
332 2 2 -85 158 -193 348 -108 189 -196 346 -196 348 0 3 36 35 81 73 l80 68
45 -44 44 -43 77 76 77 77 -42 49 -41 50 70 85 70 85 350 -200 c193 -110 352
-198 354 -196 8 8 335 583 335 590 0 3 -127 79 -282 168 -156 90 -313 180
-350 201 l-66 39 31 87 c17 49 32 90 33 91 1 2 28 -4 59 -13 32 -9 59 -14 61
-12 8 7 62 202 58 208 -2 3 -28 12 -59 19 -38 9 -55 18 -55 29 0 24 30 174 35
180 3 2 185 4 404 2 l398 -3 6 69 c4 37 7 193 7 345 l0 277 -399 3 c-220 2
-402 5 -405 8 -5 6 -36 188 -36 214 0 9 20 19 55 27 31 7 58 15 60 19 5 8 -44
192 -55 203 -4 5 -31 1 -60 -7 -30 -9 -55 -15 -56 -13 -1 1 -18 46 -38 100
l-34 98 21 13 c12 8 164 96 337 196 173 100 318 185 322 188 4 4 -17 48 -46
97 -29 50 -107 183 -173 296 l-119 207 -338 -196 -339 -196 -21 29 c-11 17
-45 58 -75 93 l-54 64 47 47 47 48 -83 78 -82 78 -37 -42 c-20 -22 -40 -41
-44 -41 -4 0 -43 30 -86 66 -77 65 -78 67 -64 93 7 14 92 164 188 333 l174
306 -300 171 -301 170 -181 -319 c-100 -176 -184 -322 -187 -325 -3 -4 -186
59 -206 71 -2 1 4 30 13 64 9 34 15 63 13 65 -5 4 -192 45 -205 45 -6 0 -17
-25 -23 -55 -13 -63 -7 -62 -135 -37 l-90 17 -3 368 -2 367 -345 0 -345 0 -2
-367z m2 -768 l0 -205 345 0 345 0 0 205 c0 189 1 205 18 205 22 -1 142 -26
147 -32 2 -2 -2 -28 -10 -58 -8 -30 -11 -58 -7 -61 7 -6 183 -49 202 -49 5 0
12 15 15 33 4 17 11 42 16 55 l9 22 67 -25 c37 -15 71 -29 75 -33 3 -4 -38
-85 -92 -181 l-99 -175 296 -168 c162 -92 298 -168 302 -168 3 0 48 75 99 165
51 91 96 165 100 165 4 0 34 -25 67 -54 l60 -54 -44 -46 -45 -46 25 -26 c13
-14 50 -49 82 -77 l59 -50 37 43 38 44 56 -69 c45 -54 54 -72 45 -81 -7 -6
-78 -48 -158 -94 -80 -46 -147 -84 -149 -86 -4 -3 306 -543 332 -578 13 -18
21 -15 164 67 82 48 152 87 155 87 10 0 50 -130 45 -144 -3 -8 -28 -19 -56
-26 -28 -7 -51 -16 -51 -22 0 -11 50 -189 56 -200 3 -4 27 0 56 8 59 18 63 15
72 -55 4 -25 9 -58 12 -73 l6 -28 -176 0 -176 0 0 -70 0 -70 -762 2 -763 3 -3
90 -3 90 -132 54 c-73 30 -138 58 -144 64 -14 11 -19 192 -5 201 4 2 55 -56
112 -130 l105 -134 110 0 110 0 113 75 112 75 0 175 0 175 -815 0 -815 0 0
-174 0 -175 109 -75 109 -76 114 1 113 0 100 130 c55 72 106 135 113 141 10 9
12 -11 10 -101 l-3 -112 -139 -58 -138 -58 -2 -89 -1 -89 -77 -3 -78 -3 0
-169 0 -169 78 -3 77 -3 3 -87 3 -87 139 -58 140 -58 0 -114 c0 -63 -4 -111
-8 -105 -5 5 -57 71 -116 147 l-108 137 -104 0 -104 0 -115 -77 -115 -76 0
-174 0 -173 815 0 815 0 0 173 0 174 -115 76 -115 77 -107 -1 -108 0 -104
-135 c-57 -74 -107 -134 -112 -134 -5 0 -9 45 -9 101 l0 100 38 16 c20 8 85
35 145 60 l107 45 0 89 0 89 765 0 765 0 0 -105 0 -105 164 0 c91 0 167 -4
170 -8 5 -8 -18 -130 -27 -138 -3 -3 -29 2 -58 10 -29 9 -54 15 -55 13 -5 -5
-54 -187 -54 -200 0 -10 18 -19 50 -27 28 -7 52 -16 55 -20 4 -7 -31 -117 -41
-129 -2 -2 -69 34 -149 79 -81 46 -150 79 -154 74 -15 -17 -331 -573 -331
-583 0 -5 65 -46 145 -91 80 -45 145 -86 143 -91 -6 -17 -93 -118 -103 -119
-5 0 -26 16 -46 36 l-38 37 -48 -41 c-26 -22 -63 -55 -80 -74 l-33 -34 40 -39
c22 -21 40 -44 40 -51 0 -12 -103 -104 -117 -104 -4 0 -46 67 -93 149 -84 149
-84 149 -110 136 -59 -31 -556 -317 -564 -325 -5 -5 29 -74 79 -160 48 -85 83
-156 78 -161 -13 -13 -122 -49 -126 -41 -3 4 -10 30 -16 59 l-13 51 -91 -24
c-51 -14 -99 -27 -109 -30 -14 -4 -15 -10 -2 -57 8 -29 14 -55 14 -59 0 -9
-57 -24 -122 -33 l-48 -7 0 186 0 186 -342 -2 -343 -3 -3 -182 -2 -183 -28 0
c-31 1 -111 15 -117 22 -2 2 2 28 10 58 8 30 13 56 10 58 -4 5 -186 52 -202
52 -6 0 -17 -25 -24 -55 -7 -30 -15 -55 -17 -55 -24 0 -142 47 -142 56 0 6 38
79 85 160 47 82 85 152 85 155 0 7 -549 322 -581 334 -13 5 -36 -27 -104 -147
-48 -84 -89 -155 -91 -157 -5 -5 -41 21 -94 68 l-45 40 42 43 42 42 -72 76
c-40 41 -76 77 -80 79 -5 2 -28 -15 -51 -38 l-43 -42 -47 57 c-26 31 -45 62
-43 68 2 6 70 49 150 96 81 47 147 90 147 95 0 17 -332 585 -342 585 -5 0 -74
-38 -154 -85 -81 -47 -150 -85 -154 -85 -9 0 -48 97 -57 142 -5 25 -2 27 38
38 68 17 71 19 65 37 -3 10 -15 58 -27 106 l-22 89 -31 -7 c-17 -3 -45 -9 -62
-12 l-32 -5 -12 72 c-7 39 -9 74 -5 78 4 4 86 7 183 7 l177 0 3 343 2 342
-162 0 c-90 0 -174 3 -187 7 -22 6 -23 9 -17 59 9 78 14 87 47 80 16 -3 42 -9
57 -12 l29 -6 26 99 c15 55 27 103 27 106 0 4 -25 14 -55 22 -30 9 -55 22 -55
29 0 22 42 136 50 136 4 0 79 -41 166 -90 127 -73 160 -88 170 -78 16 17 336
579 332 583 -2 2 -79 47 -171 100 l-168 97 27 37 c15 20 41 51 58 69 l30 32
43 -42 43 -42 80 79 80 79 -46 47 -45 46 65 57 c36 32 70 55 74 52 5 -3 53
-82 106 -175 l96 -169 298 169 c163 94 298 171 299 173 1 1 -43 82 -99 179
-58 102 -97 182 -92 186 5 5 42 21 82 35 l73 26 9 -26 c6 -14 10 -29 10 -34 0
-5 4 -20 9 -34 l10 -25 98 26 c54 14 101 29 105 32 4 4 1 31 -7 61 -8 30 -13
55 -12 56 6 5 96 22 125 23 l32 1 0 -205z"/>
</g>
</svg>
