<?xml version="1.0" encoding="UTF-8" standalone="no"?>
<!-- Created with Inkscape (http://www.inkscape.org/) -->

<svg
   version="1.1"
   id="svg203"
   width="698"
   height="520"
   viewBox="0 0 698 520"
   sodipodi:docname="image_mod.svg"
   inkscape:version="1.2.1 (9c6d41e410, 2022-07-14)"
   xmlns:inkscape="http://www.inkscape.org/namespaces/inkscape"
   xmlns:sodipodi="http://sodipodi.sourceforge.net/DTD/sodipodi-0.dtd"
   xmlns="http://www.w3.org/2000/svg"
   xmlns:svg="http://www.w3.org/2000/svg">
  <defs
     id="defs207" />
  <sodipodi:namedview
     id="namedview205"
     pagecolor="#505050"
     bordercolor="#eeeeee"
     borderopacity="1"
     inkscape:showpageshadow="0"
     inkscape:pageopacity="0"
     inkscape:pagecheckerboard="0"
     inkscape:deskcolor="#505050"
     showgrid="false"
     inkscape:zoom="1.0117408"
     inkscape:cx="572.77516"
     inkscape:cy="137.38697"
     inkscape:window-width="1920"
     inkscape:window-height="1027"
     inkscape:window-x="-8"
     inkscape:window-y="-8"
     inkscape:window-maximized="1"
     inkscape:current-layer="g209" />
  <g
     inkscape:groupmode="layer"
     inkscape:label="Image"
     id="g209">
    <path
       style="fill:#000000"
       d="M 0.59193028,259.74632 V -0.25368099 H 349.59192 698.5919 V 259.74632 v 260 h -218.559 c -145.45136,0 -218.35228,-0.3345 -217.94098,-1 0.33992,-0.55 1.2806,-1 2.0904,-1 0.8098,0 1.74528,-0.7875 2.07885,-1.75 0.33356,-0.9625 1.89443,-4.51434 3.46861,-7.89297 1.57418,-3.37863 2.86214,-6.41834 2.86214,-6.7549 0,-0.33656 1.0689,-2.82767 2.37534,-5.53578 1.30644,-2.70812 2.66162,-6.41841 3.0115,-8.2451 0.6485,-3.38565 2.59403,-5.04451 10.95921,-9.34433 3.69966,-1.90167 16.65395,-13.94615 16.65395,-15.4843 0,-0.41147 -3.7125,-1.30917 -8.25,-1.9949 -4.5375,-0.68572 -12.3,-2.35723 -17.25,-3.71446 -4.95,-1.35723 -10.125,-2.68509 -11.5,-2.9508 -1.375,-0.26571 -3.5125,-0.89921 -4.75,-1.40778 -1.2375,-0.50858 -3.2625,-1.33967 -4.5,-1.84688 -1.2375,-0.50722 -3.6,-1.21216 -5.25,-1.56655 -1.65,-0.35439 -5.25,-1.68629 -8,-2.95979 -2.75,-1.27349 -6.575,-2.89711 -8.5,-3.60805 -1.925,-0.71093 -4.625,-2.04081 -6,-2.95528 -1.375,-0.91447 -3.19491,-1.91125 -4.04425,-2.21507 -3.16718,-1.13291 -14.59553,-9.73148 -18.51087,-13.92737 -4.28032,-4.58704 -11.25803,-14.63806 -13.08321,-18.84569 -0.59645,-1.375 -1.85327,-4.26871 -2.79294,-6.43047 -2.9398,-6.76315 -3.23308,-25.68495 -0.62106,-40.06953 1.19845,-6.6 2.65952,-13.64673 3.24681,-15.65941 0.5873,-2.01267 0.77522,-4.82517 0.41761,-6.25 -0.88409,-3.52251 -5.67485,-3.5121 -10.77661,0.0234 -12.93475,8.96378 -18.48581,29.51101 -14.75552,54.61742 2.03698,13.70974 9.0929,35.00728 12.54798,37.87474 0.75463,0.62629 1.37206,1.65726 1.37206,2.29103 0,1.13048 11.59196,18.73481 15.50855,23.55233 1.0953,1.34725 4.57895,5.21047 7.74145,8.58493 3.1625,3.37447 5.75,6.85895 5.75,7.7433 0,0.88435 -0.92433,3.17454 -2.05407,5.08931 -1.48006,2.5085 -1.91183,4.55052 -1.54505,7.30716 0.75433,5.66944 1.70239,8.61914 3.40137,10.58265 0.8361,0.96628 2.01014,2.57748 2.60897,3.58043 3.49452,5.85281 5.72231,8.48424 9.85308,11.63832 2.53864,1.9384 5.31771,3.52436 6.17571,3.52436 0.85799,0 2.39153,0.83154 3.40785,1.84786 1.01633,1.01633 3.71633,2.14665 6,2.51182 14.18377,2.26811 -2.50139,2.64035 -118.34786,2.64035 H 0.59193028 Z M 367.09192,458.67148 c 3.85,-0.53947 11.5,-1.92231 17,-3.07299 5.5,-1.15068 11.35,-2.29861 13,-2.55095 1.65,-0.25234 6.6,-1.56636 11.00002,-2.92004 4.4,-1.35369 11.15,-3.39682 15,-4.54029 3.85,-1.14347 8.125,-2.53566 9.5,-3.09376 1.375,-0.5581 3.5125,-1.40451 4.74996,-1.88093 4.7854,-1.84227 6.9364,-2.74297 12.25,-5.12936 3.025,-1.35856 7.975,-3.50691 11,-4.77411 3.025,-1.26719 6.0223,-2.69893 6.6606,-3.18164 0.6384,-0.4827 4.4634,-2.57883 8.5,-4.65804 8.8413,-4.55401 15.9521,-8.55302 21.3394,-12.0009 2.2,-1.40802 5.8,-3.5047 8,-4.65929 5.9854,-3.14123 14.9083,-9.04506 16.4158,-10.86139 0.731,-0.88081 1.8792,-1.60147 2.5516,-1.60147 0.6724,0 1.9995,-0.8585 2.9491,-1.90778 1.6557,-1.82946 1.5388,-2.10368 -2.845,-6.6789 -2.5143,-2.62412 -4.5715,-5.40503 -4.5715,-6.17982 0,-0.77478 1.329,-5.53178 2.9534,-10.5711 2.6222,-8.13498 3.6939,-12.04101 7.0412,-25.6624 0.4731,-1.925 1.8339,-7.1 3.024,-11.5 2.6248,-9.70398 5.7692,-23.21732 6.9808,-30 1.8256,-10.22024 5.0496,-27.29041 6.8937,-36.5 1.0462,-5.225 2.8475,-14.225 4.0029,-20 1.1554,-5.775 2.5505,-12.525 3.1002,-15 0.5497,-2.475 1.4442,-7.425 1.9877,-11 0.5435,-3.575 1.9397,-12.35 3.1026,-19.5 3.5942,-22.09907 5.2434,-39.67434 6.5451,-69.74999 0.4577,-10.57373 0.3434,-15.75001 -0.3476,-15.75001 -0.5661,0 -2.7992,1.9125 -4.9625,4.25001 -5.4312,5.86865 -26.4186,23.75 -27.8754,23.75 -0.3202,0 -4.5933,2.5875 -9.4958,5.75 -4.9025,3.1625 -13.8718,8.64547 -19.9319,12.18438 -6.0602,3.53892 -11.0184,6.69001 -11.0184,7.00242 0,0.31241 3.0375,2.47879 6.75,4.81419 9.8691,6.20828 10.25,6.52304 10.25,8.46976 0,2.50488 -0.6822,2.29197 -7.1155,-2.22076 -3.1363,-2.2 -6.3918,-4 -7.2345,-4 -0.8426,0 -1.778,-0.39808 -2.0787,-0.88461 -0.3007,-0.48654 -2.6355,-1.19785 -5.1885,-1.58069 -4.1781,-0.62655 -5.4229,-0.28846 -12.4615,3.38461 -4.3008,2.24438 -8.2127,4.08069 -8.6929,4.08069 -0.4803,0 -3.4574,1.39964 -6.6158,3.11032 -6.7009,3.62936 -6.7882,3.49865 5.8874,8.82027 4.4,1.84726 9.6611,4.64358 11.6913,6.21403 2.0303,1.57046 4.0731,2.85538 4.5397,2.85538 2.0732,0 21.384,18.16827 26.523,24.95382 2.5231,3.33147 2.7155,3.40306 5.4309,2.02075 1.5483,-0.78819 4.3801,-2.67991 6.2929,-4.20382 4.2096,-3.3537 5.2617,-3.47124 4.8417,-0.54092 -0.187,1.30522 -2.4774,3.83721 -5.5236,6.10625 l -5.2041,3.87643 2.6532,5.14374 c 3.2485,6.29814 4.0007,6.85644 6.7822,5.03397 1.9445,-1.27408 5.4728,-1.04878 5.4728,0.34947 0,1.01841 -4.3229,4.26031 -5.6809,4.26031 -1.0937,0 -1.2387,1.32896 -0.7089,6.5 0.581,5.67031 0.4529,6.5 -1.0035,6.5 -0.9182,0 -1.819,-0.5625 -2.0016,-1.25 -0.1827,-0.6875 -0.8677,-3.5 -1.5221,-6.25 -0.6545,-2.75 -1.7837,-5.60165 -2.5092,-6.33699 -1.0935,-1.10817 -1.2459,-0.0813 -0.8905,6 0.2359,4.03534 0.6944,8.46199 1.019,9.83699 0.8659,3.66737 0.3764,17.657 -0.8398,24 -3.9025,20.35434 -4.1418,21.04137 -9.7447,27.98078 -1.9898,2.46443 -3.6178,5.38943 -3.6178,6.5 0,1.80649 -0.5462,1.98602 -5.1843,1.70407 -2.8513,-0.17334 -6.7888,0.12789 -8.75,0.66939 -5.7751,1.59457 -10.2902,-0.24968 -16.7472,-6.84051 -9.255,-9.44684 -13.6304,-19.84954 -16.4094,-39.01373 -1.9744,-13.61526 -2.1273,-23.38363 -0.6107,-39 1.633,-16.81478 4.8481,-27.50816 10.9105,-36.2878 1.5325,-2.21942 2.2378,-4.13442 1.7033,-4.62491 -2.1372,-1.96128 -14.7692,-6.15527 -20.2714,-6.73036 -18.46086,-1.92954 -35.96626,13.76992 -38.74966,34.75207 -0.5857,4.41564 -2.67427,7.94119 -3.94912,6.66634 -0.96775,-0.96776 -0.66663,-9.28857 0.49055,-13.55548 2.24177,-8.266 11.44617,-23.31022 15.06747,-24.627 3.2025,-1.1645 10.6556,-7.4559 13.826,-11.67092 1.8294,-2.43207 5.09186,-6.3299 7.24996,-8.66185 5.4761,-5.91701 5.2154,-7.26009 -1.4094,-7.26009 -2.93326,0 -5.62286,0.28964 -5.97686,0.64364 -0.354,0.354 -3.0631,1.62697 -6.0202,2.82883 -2.9571,1.20185 -8.03,4.21557 -11.273,6.69715 -3.2431,2.48158 -8.3715,6.2454 -11.39652,8.36405 -3.025,2.11864 -7.45213,5.22778 -9.83807,6.9092 -2.38595,1.68142 -5.21531,3.55704 -6.28749,4.16803 -1.07218,0.611 -2.95119,2.05202 -4.17557,3.20227 -1.91401,1.79812 -8.55626,5.18683 -10.16675,5.18683 -1.66189,0 -0.006,-4.18262 3.47218,-8.77029 2.19764,-2.89865 3.9957,-5.62696 3.9957,-6.0629 0,-0.43595 1.35,-2.08601 3,-3.66681 1.65,-1.5808 3,-3.39525 3,-4.0321 0,-0.63686 0.9,-1.97241 2,-2.9679 1.1,-0.99549 2,-2.24097 2,-2.76774 0,-0.52677 1.16552,-2.36953 2.59004,-4.09501 2.58372,-3.1296 13.40998,-19.49266 13.40998,-20.26817 0,-0.22485 1.2109,-2.31237 2.691,-4.63894 4.0202,-6.31956 13.3548,-25.01768 12.7776,-25.59485 -0.2765,-0.27648 -2.3529,1.49247 -4.6143,3.93101 -10.6898,11.52745 -18.86726,19.64713 -24.35432,24.18223 -3.3,2.72747 -10.05,8.88399 -15,13.68116 -8.36601,8.10772 -27.71222,24.08507 -38.75,32.00226 -2.6125,1.8739 -4.75,3.78081 -4.75,4.23757 0,0.45676 -0.5627,0.83048 -1.25044,0.83048 -0.68775,0 -3.15293,1.73904 -5.47818,3.86453 -2.32525,2.12549 -5.65732,4.5569 -7.4046,5.40313 -2.93286,1.42043 -3.46025,1.39091 -6.86613,-0.38434 -2.02908,-1.05762 -4.73775,-3.03903 -6.01926,-4.40313 -1.28151,-1.3641 -2.77887,-2.48019 -3.32746,-2.48019 -3.16595,0 -57.65393,-54.5101 -57.65393,-57.67734 0,-1.70493 -7.74606,-8.54256 -8.42782,-7.43944 -0.5251,0.84962 7.0488,16.70835 11.92782,24.97527 0.55,0.93192 3.6488,6.40749 6.88622,12.16795 7.93884,14.12589 12.24741,20.61899 14.17201,21.35753 0.88294,0.33882 2.89198,0.61603 4.46454,0.61603 1.57256,0 3.13731,0.45 3.47723,1 0.33992,0.55 1.38568,1 2.32391,1 2.70325,0 13.44393,5.59174 16.03175,8.34635 3.18694,3.39235 1.25264,6.58358 -2.03423,3.3561 -3.02235,-2.96773 -10.82453,-7.70245 -12.69259,-7.70245 -1.10594,0 -2.28892,-0.45 -2.62884,-1 -0.79123,-1.28024 -4.19683,-1.29955 -4.98254,-0.0283 -0.72615,1.17493 1.97844,5.53645 5.73254,9.24455 4.97181,4.91087 2.88829,7.9407 -3.95876,5.75678 -4.67465,-1.49103 -8.22731,-3.03458 -20.02558,-8.70071 l -9.23434,-4.43479 -5.76566,2.74977 c -6.72599,3.20782 -10.26566,6.10102 -10.26566,8.39085 0,0.89623 1.575,3.15607 3.5,5.02185 2.12511,2.05974 3.5,4.35505 3.5,5.84309 v 2.45076 l -9.44695,-0.56361 c -12.02475,-0.71741 -12.13751,-0.6264 -19.84871,16.01976 -0.57327,1.2375 -1.41626,2.25 -1.87332,2.25 -1.63018,0 -0.79577,-6.22935 1.16898,-8.72713 1.1,-1.39842 2,-3.19993 2,-4.00336 0,-0.80342 0.94909,-2.79364 2.10909,-4.42271 1.16,-1.62907 1.9475,-3.10819 1.75,-3.28693 -0.1975,-0.17874 -3.50909,-1.45609 -7.35909,-2.83855 -17.21845,-6.18281 -36.44072,-14.79608 -40.5,-18.14757 -0.825,-0.68115 -3.12551,-1.98059 -5.11224,-2.88765 -1.98673,-0.90705 -4.17933,-2.3325 -4.87244,-3.16765 -0.69312,-0.83515 -1.80167,-1.51845 -2.46345,-1.51845 -0.66178,0 -2.26012,-1.125 -3.55187,-2.5 -1.29175,-1.375 -2.97551,-2.5 -3.7417,-2.5 -1.51388,0 -1.20726,1.58317 1.53254,7.9129 1.48286,3.42582 3.82698,9.68836 7.70592,20.5871 0.97874,2.75 2.29924,5.675 2.93444,6.5 0.6352,0.825 1.7587,3.3 2.49666,5.5 1.46206,4.35869 7.31984,17.83426 12.68088,29.17187 1.8652,3.94453 3.39126,7.44622 3.39126,7.78154 0,0.33532 2.7,6.27971 6,13.20975 3.3,6.93004 6,12.77233 6,12.98286 0,0.21054 1.98783,4.53881 4.41741,9.61839 9.05769,18.93715 9.54177,27.76454 3.04032,55.44111 -0.86544,3.68415 -1.45773,11.24952 -1.45773,18.61972 0,13.518 1.42739,19.95759 6.48443,29.25406 3.10061,5.69992 11.45085,15.03186 16.51557,18.45722 1.925,1.30192 3.725,2.6435 4,2.9813 1.02833,1.26315 9.89794,6.98218 10.82863,6.98218 0.53255,0 3.37647,1.2529 6.31982,2.78423 2.94335,1.53132 7.37655,3.42297 9.85155,4.20365 2.475,0.78069 5.97619,2.22779 7.78042,3.21578 1.80423,0.98799 4.59017,1.79634 6.19098,1.79634 1.60081,0 3.18868,0.45 3.5286,1 0.33992,0.55 1.68992,1 3,1 1.31008,0 2.6307,0.40247 2.93472,0.89437 0.30401,0.4919 2.24306,1.14963 4.30901,1.46163 8.77315,1.3249 11.30562,1.91483 11.82456,2.75449 0.30236,0.48923 2.62874,0.88951 5.16973,0.88951 2.54099,0 6.00193,0.45674 7.69098,1.01498 4.23879,1.40093 41.39609,3.83812 50.571,3.31701 4.125,-0.23429 10.65,-0.86737 14.5,-1.40683 z m -38,-49.62951 c -5.07338,-1.19819 -12.5,-5.60248 -12.5,-7.413 0,-1.03546 0.2299,-1.88265 0.5109,-1.88265 0.48468,0 7.43866,2.99061 12.19029,5.24252 1.21065,0.57376 5.7222,1.04319 10.02566,1.04319 7.10475,0 8.49979,-0.34947 15.16608,-3.79928 4.03788,-2.0896 8.47954,-4.85389 9.87036,-6.14285 2.76771,-2.56504 3.79959,-2.85988 4.73153,-1.35196 1.41521,2.28986 -8.87847,9.49348 -18.69078,13.08001 -5.02057,1.83508 -16.03675,2.46801 -21.30404,1.22402 z M 226.27138,393.09244 c -1.70289,-1.70289 2.91919,-16.60046 5.76484,-18.58081 3.16189,-2.20043 3.4709,1.54443 0.5557,6.73469 -1.1,1.95846 -2,4.42059 -2,5.4714 0,1.05081 -0.45,2.18868 -1,2.5286 -0.55,0.33992 -1,1.49148 -1,2.55902 0,1.93338 -1.07694,2.53071 -2.32054,1.2871 z m 14.21458,-2.09612 c -0.61536,-4.35549 2.32379,-12.15594 4.90438,-13.01614 1.43138,-0.47713 1.60172,3.04976 0.26708,5.52971 -0.51398,0.95504 -1.52383,3.19893 -2.24412,4.98643 -1.2134,3.01125 -2.67835,4.26234 -2.92734,2.5 z m -26.15001,-0.8393 c -0.78757,-0.78757 0.28772,-7.66088 1.38621,-8.8607 0.47837,-0.5225 0.86976,-1.57803 0.86976,-2.34563 0,-1.76509 3.8264,-7.20437 5.06809,-7.20437 1.14402,0 1.24487,3.68855 0.11987,4.38384 -0.44663,0.27603 -1.87262,3.67758 -3.16888,7.55901 -2.24943,6.73558 -2.94897,7.79393 -4.27505,6.46785 z m 250.53965,-22.6607 c 1.0719,-4.66665 3.7792,-14.04286 4.2963,-14.87951 0.5606,-0.90712 4.42,-1.23834 4.42,-0.37934 0,1.72342 -5.5205,16.14455 -6.4096,16.74354 -1.9858,1.33795 -2.8303,0.79444 -2.3067,-1.48469 z m 17.7163,-2.06512 c 0,-3.18046 7.4909,-17.68488 9.1335,-17.68488 2.1462,0 1.2755,4.00483 -2.4273,11.16543 -4.4357,8.57779 -6.7062,10.78509 -6.7062,6.51945 z m 18,-0.69845 c 0,-1.65746 0.4005,-3.79496 0.8901,-4.75 0.4896,-0.95504 2.1771,-4.40062 3.75,-7.65685 2.9829,-6.17508 4.7058,-7.72637 5.701,-5.133 0.5455,1.42157 -2.4433,8.72265 -5.9576,14.55342 -0.8288,1.375 -1.7566,3.2875 -2.0618,4.25 -0.8884,2.80117 -2.3217,2.02108 -2.3217,-1.26357 z m -244.69384,-6.63104 c -0.77042,-2.00767 2.13229,-4.35539 5.38499,-4.35539 3.12265,0 2.90461,1.43961 -0.5955,3.93191 -3.50611,2.49657 -3.97797,2.53829 -4.78949,0.42348 z m 10.69386,0.87404 c 0,-2.7018 3.36156,-3.59125 12.63797,-3.34394 5.21962,0.13916 10.02387,-0.1661 10.67612,-0.67835 2.0865,-1.63865 6.52041,-2.28394 7.2774,-1.05911 -2.15547,4.71842 -13.94959,5.76974 -17.34149,5.42878 -9.2987,-0.96018 -9.52524,-0.96244 -11.5,-0.11437 -0.99058,0.4254 -1.75,0.32429 -1.75,-0.23301 z m 26.83305,-12.00565 c -5.79645,-2.72482 -12.03533,-11.01265 -15.49775,-20.58747 -5.46894,-15.12354 -8.3353,-33.00163 -8.3353,-51.98899 0,-21.74357 2.78845,-34.29276 9.15452,-41.19912 l 3.97779,-4.3154 -2.5535,-1.67312 c -4.01092,-2.62806 -12.25859,-2.68664 -17.55213,-0.12468 -5.96034,2.88469 -16.36868,13.83491 -19.64236,20.665 -6.2844,13.11153 -9.66053,28.29705 -9.00421,40.5 0.28655,5.32762 -0.71738,9.5 -2.28581,9.5 -0.52536,0 -1.099,-0.97724 -1.27475,-2.17165 -0.18435,-1.25282 -1.16575,-2.30732 -2.31955,-2.49231 -9.19479,-1.47422 -9.5,-1.58492 -9.5,-3.44545 0,-2.01867 1.47751,-2.54502 2.5,-0.89059 0.85927,1.39033 5.8463,1.2537 7.3,-0.2 0.66,-0.66 1.19205,-3.2475 1.18233,-5.75 -0.0175,-4.5014 -0.0735,-4.5763 -5.25,-7.01254 -5.38211,-2.53303 -10.54349,-6.55963 -9.60773,-7.49539 0.29055,-0.29055 2.38464,0.36862 4.65353,1.46482 2.26889,1.09621 4.732,1.99311 5.47356,1.99311 0.74157,0 1.88081,0.5325 2.53164,1.18333 0.65084,0.65084 1.43275,0.93392 1.73759,0.62908 0.30484,-0.30483 1.68116,-4.77483 3.0585,-9.93333 2.34774,-8.7929 3.66385,-11.97627 9.36673,-22.65598 2.54127,-4.759 11.82253,-14.27843 15.90903,-16.31728 1.45465,-0.72576 3.39907,-1.94113 4.32094,-2.70082 0.92187,-0.75969 4.29687,-1.60722 7.5,-1.8834 7.62048,-0.65704 15.20571,2.70649 21.65691,9.60335 4.15552,4.44259 9.66697,13.86211 9.66697,16.52166 0,0.58976 0.9,1.63436 2,2.32132 1.27005,0.79316 2,2.33202 2,4.21637 0,1.63205 0.89832,4.44074 1.99626,6.24153 1.09795,1.80079 1.99795,4.26011 2,5.46515 0.002,1.20504 0.39559,2.43316 0.87451,2.72915 0.47892,0.29599 1.13331,2.68505 1.4542,5.30902 0.32089,2.62397 1.07493,7.02085 1.67565,9.77085 3.03273,13.88347 3.45447,46.14967 0.70697,54.08852 -2.04722,5.91539 -5.93923,10.04393 -10.77626,11.43118 -4.4322,1.27113 -4.76255,1.24224 -9.09828,-0.79592 z m 11.61025,-60.44629 c 2.87753,-4.10824 1.59802,-24.0695 -1.75796,-27.42549 -0.37694,-0.37693 -0.68534,-1.73533 -0.68534,-3.01867 0,-1.28333 -0.45,-2.33333 -1,-2.33333 -0.55,0 -1,-0.54906 -1,-1.22013 0,-2.28084 -4.49424,-10.74445 -5.71482,-10.7622 -2.12424,-0.0309 -2.95699,3.23636 -3.18146,12.48233 -0.21715,8.94465 1.99979,23.00351 3.93214,24.93586 0.53028,0.53028 0.96414,1.79459 0.96414,2.80959 0,1.93954 4.20431,6.75455 5.89784,6.75455 0.54381,0 1.68927,-1.00013 2.54546,-2.22251 z m 138.68728,49.87993 c -0.6752,-0.81365 -0.8684,-1.70033 -0.4292,-1.9704 0.4392,-0.27008 5.6675,-0.47653 11.6183,-0.45878 6.753,0.0201 11.2446,-0.39256 11.95,-1.09799 0.6217,-0.62164 1.8888,-1.13025 2.816,-1.13025 0.9271,0 2.9746,-0.67223 4.55,-1.49384 3.8104,-1.98729 5.6139,-1.89155 8.3031,0.44077 2.9818,2.58611 1.9177,4.1591 -2.0448,3.02267 -2.1685,-0.62192 -4.4317,-0.42382 -7.6532,0.6699 -5.5105,1.87088 -9.2085,2.43824 -19.8116,3.03957 -6.3194,0.35839 -8.3372,0.13668 -9.2986,-1.02165 z m 47.0352,-6.14542 c -3.5008,-1.92026 -4.5261,-3.17129 -3.2471,-3.96175 1.7265,-1.06703 8.1862,1.66802 7.8637,3.32948 -0.3821,1.96772 -1.8224,2.16499 -4.6166,0.63227 z M 525.6568,199.9555 c -0.7892,-0.94005 -3.2642,-3.76655 -5.5,-6.2811 -6.4607,-7.26644 -7.7555,-9.07439 -6.9996,-9.77314 0.3897,-0.36022 0.9094,-0.0924 1.1549,0.59506 0.2455,0.6875 1.0937,1.25 1.8848,1.25 2.1351,0 12.1826,10.43968 12.5649,13.05519 0.4117,2.81761 -1.204,3.41811 -3.105,1.15399 z m 83.4504,134.31747 c 9.2887,-3.11811 16.5061,-7.42647 23.3365,-13.93053 4.7991,-4.5698 11.9682,-13.27072 14.6482,-17.77796 11.4669,-19.28558 14.6123,-27.99653 17.6274,-48.81816 1.884,-13.00972 1.992,-16.04167 1.051,-29.5 -0.8144,-11.64854 -1.6014,-16.48476 -3.5223,-21.64527 -3.3019,-8.87022 -3.8036,-9.69187 -8.8292,-14.45981 -12.2176,-11.59119 -28.4257,-9.09166 -38.7135,5.97019 -5.0113,7.33671 -5.4695,9.62893 -6.6242,33.13489 -0.7614,15.49951 -0.6639,15.5942 4.9526,4.81265 1.4862,-2.85304 3.3448,-5.72064 4.1302,-6.37244 0.7854,-0.65181 1.4328,-1.6925 1.4388,-2.31265 0.015,-1.62611 7.4437,-9.15616 12.388,-12.55794 2.3254,-1.59995 5.8042,-3.20468 7.7306,-3.56607 4.7608,-0.89313 11.1244,1.9136 12.7705,5.6326 1.6118,3.64127 1.0707,7.25372 -1.1499,7.67696 -1.3226,0.25208 -1.75,-0.33676 -1.75,-2.41105 0,-8.70877 -10.8373,-8.38129 -19.5,0.58924 -3.8553,3.99228 -3.9298,4.19401 -2.0589,5.57542 1.0676,0.78831 2.3051,1.43328 2.75,1.43328 0.4449,0 0.8089,0.59015 0.8089,1.31144 0,0.72129 0.9,2.27747 2,3.45819 1.1,1.18071 2,2.814 2,3.62954 0,0.81554 0.3722,1.71286 0.8272,1.99404 0.4549,0.28118 1.6434,3.20714 2.6411,6.50213 1.5592,5.14974 1.6742,7.24195 0.819,14.90138 -0.5471,4.90077 -1.7356,10.39551 -2.6411,12.21053 -0.9054,1.81501 -1.6462,3.8922 -1.6462,4.61597 0,1.7187 -3.6743,8.31168 -6.0975,10.94123 -1.0464,1.13545 -1.9025,2.5282 -1.9025,3.09501 0,0.56681 -0.9,1.84505 -2,2.84054 -1.1,0.99549 -2,2.41523 -2,3.15499 0,0.73975 -0.369,1.34501 -0.8199,1.34501 -0.451,0 -2.3635,1.33607 -4.25,2.96904 -7.1411,6.1812 -11.3489,9.03096 -13.3345,9.03096 -3.0975,0 -1.127,-2.72638 5.1315,-7.0999 4.1263,-2.88355 13.2729,-11.28539 13.2729,-12.19223 0,-0.49452 0.9053,-2.17059 2.0119,-3.7246 4.3058,-6.04699 7.9878,-14.37518 9.4053,-21.27383 1.8275,-8.89377 1.1153,-22.00569 -1.3964,-25.70944 -0.9325,-1.375 -1.9694,-3.26128 -2.3044,-4.19173 -0.9709,-2.69713 -5.4007,-5.10432 -8.1318,-4.41885 -6.4948,1.63008 -15.5144,24.81653 -17.5482,45.11058 -0.6615,6.6 -1.8816,17.175 -2.7115,23.5 -0.8298,6.325 -1.8872,14.65 -2.3497,18.5 -0.4625,3.85 -1.0682,7.9 -1.346,9 -0.2778,1.1 -0.7494,4.1375 -1.048,6.75 -0.5222,4.56875 -0.4455,4.75 2.0116,4.75 1.405,0 5.8701,-1.11301 9.9225,-2.47335 z m -100.964,-61.29196 c 3.1081,-2.17198 5.7949,-16.42587 3.5409,-18.78469 -0.4993,-0.5225 -1.1356,-3.2 -1.414,-5.95 -1.0976,-10.84433 -2.7522,-15.90058 -7.0036,-21.40267 -8.5413,-11.0539 -10.1404,-9.88718 -9.9961,7.29344 0.057,6.80101 0.5723,13.88282 1.1449,15.73735 0.5726,1.85454 1.5965,5.39688 2.2754,7.87188 1.33,4.84849 4.4582,11.4287 6.7745,14.25 1.5331,1.86754 2.9791,2.1719 4.678,0.98469 z M 230.93755,207.52923 c 1.7349,-1.2194 3.73899,-2.78437 4.45352,-3.47772 0.71454,-0.69335 2.24869,-1.92572 3.40923,-2.73859 1.79264,-1.25561 1.91108,-1.71773 0.78732,-3.07178 -0.72752,-0.8766 -3.22522,-2.4605 -5.55046,-3.51977 -2.32524,-1.05927 -6.30555,-3.51199 -8.84513,-5.4505 -2.53958,-1.9385 -4.9722,-3.52455 -5.40582,-3.52455 -0.43361,0 -2.54605,-1.8 -4.69429,-4 -2.14824,-2.2 -4.30425,-4 -4.79114,-4 -0.48688,0 -3.86038,-2.68517 -7.49666,-5.96705 -3.63629,-3.28188 -6.76489,-5.8136 -6.95245,-5.62603 -0.54993,0.54992 3.82757,7.58371 9.08204,14.59308 2.67995,3.575 5.12606,7.175 5.4358,8 0.30974,0.825 1.66728,2.625 3.01675,4 1.34947,1.375 4.91266,5.7625 7.91818,9.75 3.00553,3.9875 5.69278,7.25 5.97167,7.25 0.27889,0 1.92654,-0.99769 3.66144,-2.21709 z m 218.57755,-48.3718 c 1.6922,-1.4239 3.0768,-3.04022 3.0768,-3.59184 0,-1.00525 2.113,-3.98919 7.25,-10.23804 1.5125,-1.83989 2.75,-3.70684 2.75,-4.14878 0,-0.44195 0.8483,-1.73254 1.885,-2.86799 1.0368,-1.13545 2.2124,-3.18945 2.6123,-4.56445 0.653,-2.24458 0.3071,-2.09613 -3.385,1.45295 -2.2618,2.17412 -4.1123,4.53662 -4.1123,5.25 0,0.71338 -0.6341,1.29705 -1.4091,1.29705 -0.775,0 -4.0375,2.44335 -7.25,5.42966 -3.2125,2.98632 -7.8306,6.92382 -10.2624,8.74999 -6.37536,4.78765 -6.32896,5.82034 0.2614,5.82034 4.4652,0 6.0885,-0.48962 8.5833,-2.58889 z"
       id="path213"
       sodipodi:nodetypes="ccccccssssssssssssssssssssssssssssssssssssssssssccssssssssssssssssssssssssssssssssssssssssssssssssssscsssssssssssssssssssssssssssssssssssssssssssssssssssssssssssssssssssssssssscsssscssssssssssssssssssssssssssssssssssssssssssssssssssssssssssssssssssssssssssssssssssssssssssssssccsssssscsssssssssssssssssssssssssssssssssssssssssssssssssssssssssssssssssssssssssssssscssssssssssssssssssssssssssssssssssssssscssssssssssssssssssssssssssssssssssss" />
  </g>
</svg>
