<?xml version="1.0" encoding="UTF-8" standalone="no"?>
<!-- Created with Inkscape (http://www.inkscape.org/) -->

<svg
   version="1.1"
   id="svg260"
   width="2267"
   height="1920"
   viewBox="0 0 2267 1920"
   sodipodi:docname="upscaled.svg"
   inkscape:version="1.2.1 (9c6d41e410, 2022-07-14)"
   xmlns:inkscape="http://www.inkscape.org/namespaces/inkscape"
   xmlns:sodipodi="http://sodipodi.sourceforge.net/DTD/sodipodi-0.dtd"
   xmlns="http://www.w3.org/2000/svg"
   xmlns:svg="http://www.w3.org/2000/svg">
  <defs
     id="defs264" />
  <sodipodi:namedview
     id="namedview262"
     pagecolor="#505050"
     bordercolor="#eeeeee"
     borderopacity="1"
     inkscape:showpageshadow="0"
     inkscape:pageopacity="0"
     inkscape:pagecheckerboard="0"
     inkscape:deskcolor="#505050"
     showgrid="false"
     inkscape:zoom="0.31193721"
     inkscape:cx="338.20909"
     inkscape:cy="791.82602"
     inkscape:window-width="1920"
     inkscape:window-height="1027"
     inkscape:window-x="-8"
     inkscape:window-y="-8"
     inkscape:window-maximized="1"
     inkscape:current-layer="g266" />
  <g
     inkscape:groupmode="layer"
     inkscape:label="Image"
     id="g266">
    <path
       style="fill:#000000"
       d="m 462.10343,1870.1634 c 0.3149,-2.9921 1.7044,-5.2681 2.802,-4.5897 0.5863,0.3623 0.7557,0.1729 0.3837,-0.429 -0.9519,-1.5402 3.2964,-8.375 4.705,-7.5695 0.6336,0.3624 0.8304,0.3025 0.4372,-0.133 -1.0569,-1.1708 1.1306,-4.6989 2.4195,-3.9023 0.6074,0.3754 0.8297,0.2382 0.4941,-0.3049 -0.5946,-0.9621 3.7917,-8.3216 4.9598,-8.3216 0.3225,0 -0.031,0.7875 -0.7861,1.75 -1.248,1.5913 -1.2115,1.6237 0.4017,0.3575 0.9758,-0.7659 1.5541,-1.6125 1.2852,-1.8815 -0.9249,-0.9249 1.5419,-4.2815 2.6453,-3.5995 0.6074,0.3754 0.8252,0.2308 0.484,-0.3213 -1.1035,-1.7855 9.804,-15.7368 11.4892,-14.6953 0.4794,0.2963 0.8073,0.1678 0.7285,-0.2856 -0.3701,-2.1304 0.1999,-3.3767 1.2482,-2.7288 0.6409,0.3961 0.8856,0.2785 0.55,-0.2646 -0.7953,-1.2867 5.772,-10.4981 6.8134,-9.5566 0.4415,0.3991 0.5054,0.2059 0.1421,-0.4293 -0.3634,-0.6353 0.802,-2.9087 2.5896,-5.0521 1.7877,-2.1434 5.6656,-7.5801 8.6176,-12.0815 3.2146,-4.902 5.8216,-7.9251 6.5,-7.5376 0.623,0.3558 0.8238,0.3033 0.4463,-0.1166 -0.3776,-0.4199 2.5855,-4.6948 6.5847,-9.4997 3.9991,-4.8049 8.7231,-11.274 10.4977,-14.3757 1.7747,-3.1017 3.7186,-5.9436 4.3199,-6.3152 0.7015,-0.4335 0.8033,-0.2066 0.2842,0.6334 -0.5394,0.8727 -0.4188,1.0678 0.3618,0.5854 0.6439,-0.398 0.9283,-1.116 0.6318,-1.5956 -0.7154,-1.1576 8.10195,-11.0388 9.07258,-10.1672 0.41493,0.3726 0.4041,0.072 -0.0241,-0.6683 -0.519,-0.8971 0.78732,-2.9354 3.91912,-6.115 7.21342,-7.3235 6.46873,-9.9695 -3.46129,-12.2981 -4.125,-0.9673 -11.10001,-2.8525 -15.50001,-4.1893 -4.4,-1.3368 -11.375,-3.1688 -15.5,-4.0711 -8.1155,-1.7751 -17,-5.2823 -17,-6.7108 0,-0.4884 -0.4487,-0.6107 -0.9972,-0.2717 -1.3233,0.8178 -13.1149,-4.5079 -12.431,-5.6145 0.2927,-0.4735 -0.2401,-0.5646 -1.1839,-0.2024 -1.2564,0.4821 -1.4967,0.3037 -0.8974,-0.666 0.5198,-0.8411 0.4302,-1.0844 -0.2457,-0.6667 -1.3989,0.8646 -4.3897,-0.3052 -3.6871,-1.442 0.3004,-0.4861 -0.1484,-0.6173 -0.9973,-0.2915 -0.908,0.3485 -1.796,-0.066 -2.1567,-1.0057 -0.3373,-0.8789 -1.0161,-1.349 -1.5085,-1.0447 -0.4923,0.3043 -0.8952,0.05 -0.8952,-0.5648 0,-0.6149 -0.4336,-0.8501 -0.9635,-0.5225 -0.5299,0.3275 -1.8424,-0.2835 -2.9167,-1.3577 -1.0742,-1.0742 -2.2156,-1.6906 -2.5365,-1.3698 -0.3208,0.3208 -0.5833,0.032 -0.5833,-0.6424 0,-0.6741 -0.45,-0.9475 -1,-0.6076 -0.55,0.3399 -1,0.1149 -1,-0.5 0,-0.6149 -0.45,-0.8399 -1,-0.5 -0.55,0.3399 -1,0.1149 -1,-0.5 0,-0.6149 -0.45,-0.8399 -1,-0.5 -0.55,0.3399 -1,0.1149 -1,-0.5 0,-0.6149 -0.45,-0.8399 -1,-0.5 -0.55,0.3399 -1,0.1556 -1,-0.4096 0,-0.5652 -0.675,-0.7686 -1.5,-0.452 -0.825,0.3166 -1.5,0.051 -1.5,-0.5904 0,-0.6413 -0.45,-0.8879 -1,-0.548 -0.55,0.3399 -1,0.093 -1,-0.548 0,-0.6429 -0.6962,-0.8988 -1.5519,-0.5704 -1.014,0.389 -1.3038,0.1939 -0.836,-0.563 0.4782,-0.7737 0.1633,-0.9464 -0.948,-0.5199 -0.9153,0.3512 -1.6641,0.2185 -1.6641,-0.2949 0,-0.5134 -0.9543,-1.4442 -2.1207,-2.0684 -1.7099,-0.9151 -1.9836,-0.8735 -1.4132,0.2148 0.3891,0.7424 -0.2706,0.2248 -1.4661,-1.1502 -1.1954,-1.375 -1.8704,-1.825 -1.5,-1 0.3705,0.825 -0.3045,0.375 -1.5,-1 -1.1954,-1.375 -1.8761,-1.825 -1.5126,-1 0.3635,0.825 -0.047,0.6265 -0.9132,-0.4411 -0.8658,-1.0677 -1.5741,-1.5441 -1.5741,-1.0589 0,0.4852 -0.7084,0.01 -1.5742,-1.0589 -0.8658,-1.0676 -1.2663,-1.3414 -0.8899,-0.6085 0.5074,0.9884 -0.1192,0.9171 -2.4259,-0.2757 -1.7105,-0.8845 -3.11,-2.0309 -3.11,-2.5474 0,-0.5165 -0.9543,-1.4499 -2.1207,-2.0741 -1.71,-0.9151 -1.9837,-0.8735 -1.4132,0.2148 0.3891,0.7424 -0.2707,0.2248 -1.4661,-1.1502 -1.1955,-1.375 -1.8705,-1.825 -1.5,-1 0.3704,0.825 -0.2038,0.4228 -1.2761,-0.8938 -1.0722,-1.3166 -2.4302,-2.0968 -3.0176,-1.7337 -0.5875,0.3631 -1.3938,0.1333 -1.7918,-0.5107 -0.4824,-0.7805 -0.2872,-0.9011 0.5855,-0.3618 0.8922,0.5514 1.0684,0.4197 0.5533,-0.4137 -0.4156,-0.6724 -1.3707,-0.9866 -2.1225,-0.6981 -0.7517,0.2884 -1.6757,0.025 -2.0533,-0.5864 -0.4403,-0.7124 -0.1829,-0.8495 0.7179,-0.3822 0.7725,0.4008 0.5175,0.01 -0.5668,-0.8675 -1.0842,-0.8779 -2.4619,-1.4079 -3.0616,-1.1778 -0.5997,0.2301 -2.1877,-0.474 -3.5287,-1.5647 -1.3411,-1.0907 -1.7633,-1.6327 -0.9383,-1.2044 1.2954,0.6725 1.3113,0.5462 0.1166,-0.9264 -0.7609,-0.9379 -1.8969,-1.5873 -2.5244,-1.4432 -0.9525,0.2187 -12.8775,-10.7385 -27.1925,-24.9856 -1.796,-1.7875 -3.6334,-3.25 -4.083,-3.25 -0.4497,0 -2.8424,-1.8908 -5.3172,-4.2017 -2.4747,-2.3109 -4.8628,-4.2234 -5.3067,-4.25 -0.4439,-0.027 -1.7204,-1.1733 -2.8367,-2.5483 -1.1164,-1.375 -1.7348,-1.825 -1.3744,-1 0.3604,0.825 -0.7849,-0.075 -2.5451,-2 -1.7602,-1.925 -2.8797,-2.825 -2.4878,-2 0.3919,0.825 -0.5295,0.15 -2.0475,-1.5 -1.5181,-1.65 -3.1035,-2.8961 -3.5232,-2.7692 -0.4197,0.127 -1.6293,-0.8702 -2.6879,-2.2161 -1.0586,-1.3458 -2.1496,-2.222 -2.4244,-1.9472 -0.2748,0.2748 -1.8958,-1.0904 -3.6022,-3.0339 -1.7064,-1.9435 -3.5625,-3.5336 -4.1246,-3.5336 -0.5622,0 -1.5842,-0.9 -2.2711,-2 -0.687,-1.1 -1.7934,-2 -2.4588,-2 -0.6654,0 -1.6684,-0.7875 -2.229,-1.75 -0.5607,-0.9625 -1.043,-1.3 -1.072,-0.75 -0.029,0.55 -0.9817,-0.125 -2.1172,-1.5 -1.1355,-1.375 -1.7614,-1.825 -1.3909,-1 0.3704,0.825 -0.3046,0.375 -1.5,-1 -1.1955,-1.375 -1.8705,-1.825 -1.5,-1 0.3704,0.825 -0.3046,0.375 -1.5,-1 -1.1955,-1.375 -1.8705,-1.825 -1.5,-1 0.3704,0.825 -0.3046,0.375 -1.5,-1 -1.1955,-1.375 -1.8705,-1.825 -1.5,-1 0.3704,0.825 -0.3046,0.375 -1.5,-1 -1.1955,-1.375 -1.877,-1.825 -1.5145,-1 0.3625,0.825 -0.5478,0.15 -2.023,-1.5 -1.4751,-1.65 -2.3751,-2.325 -2,-1.5 0.3752,0.825 -0.5248,0.15 -2,-1.5 -1.4751,-1.65 -2.375,-2.325 -1.9998,-1.5 0.3752,0.825 -0.991,-0.3 -3.036,-2.5 -2.045,-2.2 -3.1528,-3.1 -2.4619,-2 0.691,1.1 -0.9309,-0.2773 -3.6043,-3.0607 -5.808,-6.0473 -9.1754,-8.7693 -7.9657,-6.4393 0.4283,0.825 -0.1994,0.375 -1.3948,-1 -1.1955,-1.375 -1.8762,-1.825 -1.5127,-1 0.3635,0.825 -0.047,0.6265 -0.9132,-0.4411 -0.8658,-1.0677 -1.5741,-1.5441 -1.5741,-1.0589 0,0.4852 -0.6079,0.051 -1.3508,-0.965 -0.7429,-1.016 -2.3198,-1.9186 -3.5043,-2.0059 -1.1845,-0.087 -2.86,-1.0295 -3.7234,-2.0939 -0.8634,-1.0644 -1.2687,-1.2602 -0.9006,-0.4352 0.3681,0.825 -1.4233,-0.6375 -3.9808,-3.25 -2.5576,-2.6125 -4.8278,-4.75 -5.045,-4.75 -0.7688,0 -10.0061,-6.4122 -10.7298,-7.4482 -0.4041,-0.5785 -0.7416,-0.6776 -0.75,-0.2202 -0.016,0.8919 -7.1076,-3.1341 -8.1271,-4.6142 -0.3365,-0.4885 -0.9016,-0.8446 -1.2558,-0.7913 -1.5681,0.2359 -12.4422,-5.988 -12.9995,-7.4404 -0.3404,-0.8868 -1.0752,-1.3304 -1.6329,-0.9857 -0.5578,0.3447 -1.2831,-0.074 -1.6119,-0.9309 -0.3287,-0.8567 -1.0006,-1.3086 -1.4929,-1.0043 -0.4924,0.3043 -0.8952,0.077 -0.8952,-0.5058 0,-0.5824 -0.3375,-0.952 -0.75,-0.8212 -1.5327,0.4859 -7.2016,-2.5071 -6.5981,-3.4836 0.3476,-0.5626 0.01,-0.7945 -0.7627,-0.5211 -1.7035,0.6039 -6.8892,-1.8935 -6.8892,-3.3178 0,-0.5683 -0.4336,-0.7654 -0.9636,-0.4378 -0.5299,0.3275 -1.8424,-0.2835 -2.9166,-1.3577 -1.0743,-1.0742 -2.2051,-1.7012 -2.513,-1.3933 -0.3079,0.3078 -0.8425,-0.1771 -1.1881,-1.0776 -0.3456,-0.9006 -1.0147,-1.3986 -1.4871,-1.1067 -0.4723,0.2919 -1.7751,-0.3857 -2.8952,-1.5057 -1.12,-1.1201 -2.2469,-1.924 -2.504,-1.7865 -0.2572,0.1375 -1.3822,-0.5331 -2.5,-1.4902 -1.1179,-0.9571 -2.0324,-1.4942 -2.0324,-1.1935 0,0.3007 -1.35,-0.2507 -3,-1.2254 -1.65,-0.9747 -3,-2.1516 -3,-2.6155 0,-0.4639 -0.45,-0.5653 -1,-0.2254 -0.55,0.3399 -1,0.1149 -1,-0.5 0,-0.6149 -0.45,-0.8399 -1,-0.5 -0.55,0.3399 -1,0.1415 -1,-0.441 0,-0.5824 -0.3849,-0.9465 -0.8553,-0.809 -1.6112,0.4709 -19.041,-8.6089 -18.4284,-9.6 0.3601,-0.5827 -0.073,-0.7272 -1.0523,-0.3513 -0.9152,0.3512 -1.664,0.1761 -1.664,-0.3891 0,-0.5652 -0.45,-0.7495 -1,-0.4096 -0.55,0.3399 -1,0.1149 -1,-0.5 0,-0.6149 -0.45,-0.8399 -1,-0.5 -0.55,0.3399 -1,0.1149 -1,-0.5 0,-0.6149 -0.45,-0.8399 -1,-0.5 -0.55,0.3399 -1,0.1149 -1,-0.5 0,-0.6149 -0.45,-0.8399 -1,-0.5 -0.55,0.3399 -1,0.066 -1,-0.6076 0,-0.6742 -0.2633,-0.9625 -0.5851,-0.6407 -0.8364,0.8365 -6.4149,-1.258 -6.4149,-2.4085 0,-0.5287 -0.45,-0.6831 -1,-0.3432 -0.55,0.3399 -1,0.1149 -1,-0.5 0,-0.6149 -0.388,-0.8783 -0.8621,-0.5853 -1.144,0.7071 -9.1379,-2.4644 -9.1379,-3.6254 0,-0.499 -0.45,-0.6292 -1,-0.2893 -0.55,0.3399 -1,0.1149 -1,-0.5 0,-0.6149 -0.419,-0.8591 -0.9309,-0.5427 -0.512,0.3164 -1.2181,0.1106 -1.5691,-0.4573 -0.3511,-0.5679 -1.0571,-0.7737 -1.5691,-0.4573 -0.512,0.3164 -0.9309,0.1129 -0.9309,-0.4523 0,-0.5652 -0.675,-0.7686 -1.5,-0.452 -0.825,0.3166 -1.5,0.051 -1.5,-0.5904 0,-0.6413 -0.3647,-0.9407 -0.8104,-0.6652 -1.2146,0.7507 -9.1896,-1.4812 -9.1896,-2.5718 0,-0.5202 -0.9,-0.6601 -2,-0.311 -1.1215,0.3559 -2,0.1797 -2,-0.4012 0,-0.5698 -0.675,-0.777 -1.5,-0.4604 -0.825,0.3166 -1.5,0.1196 -1.5,-0.4378 0,-0.5573 -0.825,-0.7976 -1.8334,-0.5339 -1.1046,0.2888 -1.8333,-0.054 -1.8333,-0.8615 0,-0.7375 -0.3181,-2.6081 -0.7068,-4.1569 -0.5144,-2.0498 -0.3841,-2.6165 0.4792,-2.0829 0.8594,0.5311 0.9971,-0.019 0.5,-2 -0.4862,-1.9372 -0.3513,-2.5261 0.4635,-2.0226 0.8349,0.516 0.9665,-0.4871 0.481,-3.6662 -0.5107,-3.3445 -0.4043,-4.0228 0.4514,-2.8766 0.8686,1.1636 0.9803,0.715 0.4984,-2 -0.476,-2.6811 -0.3646,-3.149 0.4764,-2 0.8345,1.1403 0.951,0.5409 0.4858,-2.5 -0.4792,-3.1325 -0.3626,-3.6747 0.5378,-2.5 0.9003,1.1747 1.0169,0.6325 0.5377,-2.5 -0.4709,-3.0778 -0.3542,-3.6542 0.506,-2.5 0.8966,1.2029 1.0101,0.9989 0.5733,-1.0301 -0.6776,-3.1472 0.3591,-7.6265 1.3821,-5.9714 0.9874,1.5978 3.1696,-7.3951 2.3272,-9.5905 -0.4792,-1.2488 -0.3078,-1.5146 0.6108,-0.9468 0.9569,0.5914 1.098,0.225 0.5629,-1.4612 -0.4484,-1.4128 -0.3412,-2.0199 0.288,-1.631 1.4107,0.8719 2.3193,-2.0255 1.6302,-5.1985 -0.4687,-2.158 -0.3582,-2.3826 0.5757,-1.1705 0.9083,1.1789 1.019,0.6761 0.5171,-2.3484 -0.4665,-2.8112 -0.323,-3.6534 0.5323,-3.1248 0.8206,0.5071 0.9691,0.088 0.4964,-1.4016 -0.3915,-1.2334 -0.2398,-2.1252 0.3615,-2.1252 0.5698,0 0.7486,-0.7488 0.3974,-1.664 -0.4666,-1.2161 -0.2778,-1.4411 0.7014,-0.836 0.9791,0.6051 1.1679,0.3801 0.7013,-0.836 -0.3512,-0.9152 -0.2168,-1.664 0.2987,-1.664 0.5154,0 0.6498,-0.7488 0.2986,-1.664 -0.454,-1.1832 -0.2695,-1.436 0.6385,-0.8748 0.9569,0.5914 1.098,0.225 0.5629,-1.4612 -0.4861,-1.5315 -0.3611,-2.0322 0.3913,-1.5671 0.6679,0.4127 1.0373,-0.033 0.9331,-1.1248 -0.2397,-2.5121 1.2685,-8.3081 2.1619,-8.3081 0.405,0 0.5085,-1.1919 0.23,-2.6486 -0.325,-1.7001 -0.1304,-2.4163 0.5435,-1.9998 0.6968,0.4306 0.8869,-0.7808 0.5654,-3.6014 -0.3202,-2.8086 -0.1662,-3.7989 0.454,-2.9195 1.177,1.6688 2.4968,-3.9477 1.5236,-6.4838 -0.4074,-1.0617 -0.2485,-1.4313 0.434,-1.0096 0.6967,0.4307 0.8775,-0.096 0.5124,-1.4923 -0.3616,-1.3827 -0.182,-1.9215 0.5,-1.5 0.6819,0.4215 0.8615,-0.1173 0.5,-1.5 -0.4109,-1.5713 -0.2206,-1.9453 0.7004,-1.3761 0.9315,0.5757 1.087,0.2218 0.5901,-1.3437 -0.4173,-1.3147 -0.2417,-2.1252 0.4603,-2.1252 0.6797,0 0.8802,-0.8021 0.5,-2 -0.356,-1.1215 -0.1797,-2 0.4012,-2 0.5698,0 0.777,-0.675 0.4604,-1.5 -0.3166,-0.825 -0.092,-1.5 0.5,-1.5 0.5916,0 0.8166,-0.675 0.5,-1.5 -0.3166,-0.825 -0.1196,-1.5 0.4377,-1.5 0.5574,0 0.7781,-0.9 0.4904,-2 -0.304,-1.1625 -0.031,-2 0.6526,-2 0.6466,0 0.9227,-0.4094 0.6134,-0.9097 -0.7436,-1.2033 1.5606,-11.0903 2.5846,-11.0903 0.4383,0 0.5553,-0.6295 0.2601,-1.3988 -0.2952,-0.7694 -0.076,-1.6838 0.4877,-2.0321 0.5635,-0.3482 0.771,-1.2937 0.4612,-2.1011 -0.3098,-0.8074 -0.039,-1.468 0.6027,-1.468 0.6413,0 0.962,-0.3375 0.7127,-0.75 -0.2493,-0.4125 0.4488,-4.125 1.5514,-8.25 1.1025,-4.125 1.9297,-8.625 1.8383,-10 -0.2451,-3.6851 3.1946,-23.9641 3.9822,-23.4774 0.3709,0.2293 0.4492,-0.7614 0.1739,-2.2015 -0.3766,-1.9703 -0.1789,-2.4196 0.799,-1.8152 0.8265,0.5108 1.0557,0.4087 0.6298,-0.2804 -0.9426,-1.5253 1.5359,-10.2352 2.7067,-9.5116 0.5398,0.3336 0.6385,0.07 0.2247,-0.5994 -0.8751,-1.416 3.4676,-20.2088 4.5197,-19.5586 0.3977,0.2458 0.4691,-0.5241 0.1588,-1.7109 -0.4204,-1.6075 -0.2297,-1.951 0.7477,-1.3469 0.8385,0.5182 1.0704,0.4198 0.6424,-0.2726 -0.8606,-1.3925 1.4846,-10.2669 2.5407,-9.6142 0.4384,0.2709 0.535,-0.1902 0.2148,-1.0247 -0.3202,-0.8344 1.891,-11.0953 4.9138,-22.8019 3.0228,-11.7066 6.7205,-26.6847 8.2172,-33.2847 1.4967,-6.6 4.2539,-17.0248 6.1271,-23.1663 1.8733,-6.1414 4.6529,-16.6188 6.1769,-23.2829 1.524,-6.6642 3.1096,-11.7781 3.5234,-11.3642 0.4139,0.4138 0.4555,-0.021 0.093,-0.9671 -0.3629,-0.9457 -0.2302,-1.7195 0.295,-1.7195 0.5251,0 0.992,-1.3085 1.0375,-2.9078 0.045,-1.5993 1.2724,-8.5845 2.7266,-15.5227 1.645,-7.8488 2.3987,-13.8343 1.9949,-15.8423 -0.3571,-1.7749 -0.8361,-4.1272 -1.0646,-5.2272 -0.2316,-1.1152 0.2628,-0.6727 1.1177,1 l 1.533,3 -0.5905,-3 c -0.3247,-1.65 -0.7896,-3.9 -1.033,-5 -0.2434,-1.1 0.2473,-0.65 1.0905,1 l 1.533,3 -0.562,-2.75 c -0.3206,-1.5686 -0.1243,-2.75 0.457,-2.75 0.5605,0 1.0191,-0.7016 1.0191,-1.559 0,-0.8575 -0.3653,-1.3333 -0.8117,-1.0574 -0.4464,0.2759 0.081,-4.3101 1.1711,-10.191 1.0904,-5.8809 2.3557,-10.8426 2.8116,-11.0259 0.4559,-0.1834 0.829,-0.7724 0.829,-1.3091 0,-0.5366 -0.5265,-0.6503 -1.17,-0.2526 -0.7976,0.493 -0.9567,0.1675 -0.5,-1.0227 0.3685,-0.9603 0.7016,-2.9466 0.7402,-4.4141 0.06,-2.291 0.1783,-2.3921 0.8344,-0.715 0.6454,1.6498 0.8686,1.4308 1.4367,-1.4097 0.3699,-1.8496 0.4444,-3.5911 0.1656,-3.8699 -0.2788,-0.2788 -0.5069,0.018 -0.5069,0.6597 0,0.6417 -0.3919,1.1667 -0.8709,1.1667 -0.9289,0 0.4247,-8.9222 1.5047,-9.9178 0.3473,-0.3202 0.3264,1.1053 -0.046,3.1678 -0.3745,2.0714 -0.2727,3.75 0.2274,3.75 0.498,0 1.2017,-2.3625 1.5639,-5.25 0.3622,-2.8875 0.907,-6.825 1.2108,-8.75 0.4147,-2.6286 0.2894,-3.1266 -0.5033,-2 -0.5806,0.825 -1.0625,2.7375 -1.0709,4.25 -0.01,1.5125 -0.4175,2.75 -0.909,2.75 -0.5185,0 -0.534,-1.6009 -0.037,-3.8128 1.1437,-5.0902 2.7699,-9.069 2.9376,-7.1872 0.1629,1.8275 1.8313,-1.699 1.8924,-4 0.03,-1.1448 -0.2042,-1.0806 -0.9911,0.271 -1.1956,2.0536 -2.9405,1.3895 -2.8379,-1.08 0.057,-1.3629 0.2244,-1.303 0.8645,0.309 0.6185,1.5576 1.071,0.6727 2.0456,-4 0.6882,-3.3 1.9463,-7.7455 2.7956,-9.8788 1.2466,-3.1311 1.3073,-4.2583 0.3149,-5.8474 -0.6762,-1.0827 -0.9733,-2.2247 -0.6602,-2.5378 0.3132,-0.3132 0.5693,0.056 0.5693,0.8198 0,3.1166 2.8507,-2.8863 3.37,-7.0963 1.1429,-9.266 2.875,-18.5252 3.7964,-20.2936 0.5256,-1.0087 0.6674,-3.14623 0.3152,-4.74999 -0.3523,-1.60375 -0.2277,-2.91591 0.2769,-2.91591 0.5045,0 1.8782,-5.0625 3.0527,-11.25 4.3968,-23.16356 9.2261,-48.34643 9.8044,-51.12511 0.4322,-2.07689 0.2681,-2.671 -0.5912,-2.13993 -0.7271,0.44937 -0.5854,-0.43307 0.3645,-2.26992 2.131,-4.12103 3.1145,-10.7859 1.7189,-11.64846 -0.6093,-0.37654 -1.1009,-1.22056 -1.0924,-1.8756 0.01,-0.78849 0.3085,-0.72811 0.8829,0.17866 1.3843,2.18523 2.3745,-1.54488 11.6337,-43.82586 3.0661,-14.00092 5.9779,-28.40092 6.4707,-32 0.4928,-3.59908 1.7845,-11.04378 2.8705,-16.54378 1.9891,-10.07362 4.5261,-24.66813 10.1268,-58.25516 1.6742,-10.04034 3.6703,-20.84034 4.4358,-24 0.7654,-3.15966 2.8016,-13.61984 4.5249,-23.24484 3.4408,-19.21825 5.5395,-29.6584 10.6541,-53 3.2842,-14.98819 4.2624,-19.00887 9.8529,-40.5 3.2316,-12.42331 8.2754,-29.01587 10.0313,-33 0.7272,-1.65 2.9777,-7.275 5.0011,-12.5 2.0233,-5.225 4.2633,-10.85 4.9777,-12.5 0.7144,-1.65 2.7327,-6.825 4.4852,-11.5 8.3727,-22.33603 26.7337,-62.11354 31.6407,-68.54702 1.318,-1.72797 2.3964,-3.44388 2.3964,-3.81313 0,-0.36926 2.025,-3.45432 4.5,-6.85569 2.475,-3.40138 4.5,-6.50286 4.5,-6.89217 0,-0.77281 10.6322,-17.17499 16.7025,-25.76674 2.0886,-2.95611 5.4489,-7.90611 7.4674,-11 2.0184,-3.09389 4.8113,-6.97525 6.2064,-8.62525 1.395,-1.65 5.7351,-7.275 9.6446,-12.5 3.9096,-5.225 7.5292,-9.3875 8.0437,-9.25 0.5144,0.1375 0.8639,-0.0875 0.7766,-0.5 -0.3155,-1.49027 1.3899,-4.2252 2.2883,-3.66993 0.506,0.31273 0.8556,0.19764 0.7768,-0.25574 -0.3701,-2.13047 0.1999,-3.37668 1.2482,-2.72884 0.7045,0.43543 0.8835,0.27501 0.4591,-0.41161 -2.157,-3.49003 31.8507,-41.86901 35.2427,-39.77269 0.5044,0.31173 1.5305,-0.21576 2.2803,-1.1722 1.2337,-1.57367 1.197,-1.60851 -0.3866,-0.36655 -0.9625,0.75485 -1.75,1.15662 -1.75,0.89284 0,-0.60325 13.3649,-11.66594 21.9877,-18.20013 3.5817,-2.71416 9.3177,-7.4856 12.7467,-10.6032 6.545,-5.95072 10.0205,-8.44518 19.5717,-14.04717 3.1934,-1.87298 8.1434,-5.34285 11,-7.71081 2.8566,-2.36796 8.1189,-6.2973 11.6939,-8.73185 3.575,-2.43456 10.9347,-8.25912 16.3549,-12.94347 5.42016,-4.68436 10.22656,-8.28729 10.68086,-8.00652 0.4543,0.28077 1.15162,-0.0164 1.5496,-0.66033 0.49487,-0.80071 0.27963,-0.90324 -0.6809,-0.32435 -1.19914,0.7227 -1.19831,0.59242 0.006,-0.891 0.77562,-0.95561 1.99871,-1.51164 2.71798,-1.23563 0.71927,0.27601 1.6167,0.002 1.99429,-0.609 0.4401,-0.71209 0.18237,-0.84993 -0.71797,-0.38399 -0.77248,0.39976 -0.0545,-0.43121 1.59549,-1.8466 1.65,-1.41539 3.5571,-2.36413 4.238,-2.10832 0.68091,0.25581 1.13091,-0.0812 1,-0.7489 -0.1309,-0.6677 0.5795,-1.14651 1.57867,-1.06401 0.99916,0.0825 1.56336,-0.10331 1.25376,-0.41291 -0.3096,-0.3096 2.6979,-2.70596 6.68333,-5.32525 3.98543,-2.61929 14.44624,-9.73282 23.24624,-15.80784 21.87353,-15.10025 39.72739,-26.9843 47.5,-31.61739 3.575,-2.13099 11,-7.09939 16.5,-11.04089 6.85175,-4.91022 18.58424,-11.4398 37.26672,-20.74037 14.9967,-7.4657 30.35375,-15.62624 34.12678,-18.13455 3.77302,-2.5083 9.953,-5.94997 13.73327,-7.64815 16.97773,-7.626751 24.673,-11.117621 35.87323,-16.27346 6.6,-3.03819 14.74455,-6.22188 18.099,-7.07484 3.35445,-0.85297 8.75105,-2.72371 11.99245,-4.15721 3.24139,-1.4335 8.54439,-3.03328 11.78444,-3.55508 3.24005,-0.52179 7.11628,-1.58233 8.61383,-2.35674 4.5179,-2.336301 45.63001,-13.472481 70.01028,-18.963939 6.325,-1.424654 19.6,-4.859151 29.5,-7.632216 9.9,-2.773066 20.925,-5.626813 24.5,-6.341662 3.575,-0.714848 8.975,-2.031248 12,-2.925332 9.74384,-2.879938 43.51462,-8.762167 64.00002,-11.147593 26.9426,-3.137338 128.2422,-1.819097 161,2.095141 6.875,0.821495 16.325,1.890988 21,2.376652 10.5344,1.094371 20.7807,2.945302 42,7.587089 39.7229,8.68949 46.6154,10.09832 58.5,11.957517 5.5,0.860403 16.0893,3.107223 23.5318,4.992932 7.4425,1.88571 18.1052,4.11548 23.6949,4.95504 17.4022,2.61377 56.3061,11.25096 95.7733,21.262981 5.5,1.39523 12.475,3.08119 15.5,3.74656 3.025,0.66537 7.2492,2.40644 9.3872,3.86903 4.9466,3.38406 8.1064,4.178079 24.3935,6.129779 12.1831,1.45992 34.0862,6.45475 56.7193,12.934351 4.95,1.41713 15.3,4.12097 23,6.00852 17.8825,4.38366 38.5092,11.21487 50,16.55916 4.95,2.30221 11.7,5.22845 15,6.50276 3.3,1.27432 12.75,5.34813 21,9.05293 8.25,3.7048 15.5625,6.75227 16.25,6.77216 0.6875,0.0199 1.25,0.43771 1.25,0.9285 0,0.4908 0.45,0.61424 1,0.27432 0.55,-0.33992 1,-0.11492 1,0.5 0,0.61492 0.45,0.83992 1,0.5 0.55,-0.33992 1,-0.11492 1,0.5 0,0.61492 0.45,0.83992 1,0.5 0.55,-0.33992 1,-0.11492 1,0.5 0,0.61492 0.45,0.83992 1,0.5 0.55,-0.33992 1,-0.11492 1,0.5 0,0.61492 0.45,0.83992 1,0.5 0.55,-0.33992 1,-0.11492 1,0.5 0,0.61492 0.45,0.83992 1,0.5 0.55,-0.33992 1,-0.11492 1,0.5 0,0.61492 0.4094,0.86502 0.9098,0.55577 1.4031,-0.86718 4.1619,0.51925 3.4204,1.71895 -0.4128,0.66797 -0.038,0.82704 1.0058,0.4266 0.9152,-0.3512 1.664,-0.17612 1.664,0.38908 0,0.5652 0.4094,0.77462 0.9098,0.46537 1.4031,-0.86718 4.1619,0.51925 3.4204,1.71895 -0.4128,0.66797 -0.038,0.82704 1.0058,0.4266 2.044,-0.78439 4.8563,0.17845 4.0992,1.40346 -0.3043,0.49237 0.036,0.96185 0.7558,1.04328 0.7199,0.0814 1.984,0.23981 2.809,0.35194 0.825,0.11213 2.0891,0.27051 2.809,0.35194 0.721,0.0815 0.9885,0.66672 0.5955,1.30257 -0.4244,0.6867 -0.2761,0.88415 0.3661,0.48729 1.4791,-0.91414 6.3175,1.40659 5.5435,2.65894 -0.3541,0.573 -0.124,0.69983 0.533,0.29378 0.6654,-0.41126 2.5066,0.69031 4.3381,2.59549 1.7502,1.82049 2.537,2.45279 1.7485,1.40511 -0.8412,-1.11761 0.5294,-0.52144 3.3163,1.4425 2.6125,1.84106 4.75,3.73731 4.75,4.2139 0,0.47658 0.45,0.5884 1,0.24848 0.55,-0.33992 1,-0.11492 1,0.5 0,0.61492 0.4336,0.85006 0.9635,0.52254 0.53,-0.32752 1.88,0.32092 3,1.44099 1.1201,1.12006 2.374,2.01886 2.7865,1.99733 1.9438,-0.10144 8.1226,3.43627 7.5682,4.33323 -0.3505,0.56719 -0.134,0.7101 0.4908,0.32394 0.6149,-0.38004 2.0345,0.22543 3.1545,1.3455 1.1201,1.12006 2.0365,1.78985 2.0365,1.48843 0,-0.98499 8.8748,5.53122 10.2952,7.5591 0.7613,1.08692 1.6454,1.71504 1.9646,1.39581 0.3192,-0.31922 1.3406,0.57978 2.2697,1.99778 0.9291,1.418 2.0508,2.35473 2.4927,2.08164 0.4419,-0.2731 2.4599,1.41826 4.4844,3.75858 2.0245,2.34032 3.3722,3.58013 2.9949,2.75513 -0.3774,-0.825 1.1554,0.39507 3.4062,2.71128 2.2508,2.3162 4.1073,3.8912 4.1256,3.5 0.018,-0.39121 0.8624,0.28208 1.8758,1.4962 1.0135,1.21411 2.0722,1.97791 2.3528,1.69733 0.2805,-0.28057 1.4017,0.6233 2.4913,2.00862 1.0897,1.38531 2.1769,2.32314 2.416,2.08407 0.239,-0.23907 3.2351,2.16485 6.6579,5.34204 3.4228,3.17718 6.381,5.61904 6.5737,5.42635 0.1927,-0.1927 1.5143,1.03296 2.937,2.72368 1.4226,1.69072 2.7161,2.99335 2.8744,2.89473 0.6992,-0.43563 11.7878,7.2831 11.7878,8.20545 0,0.56555 0.4192,0.7692 0.9316,0.45254 0.5123,-0.31666 1.5652,0.32892 2.3397,1.43462 0.7744,1.1057 1.6946,1.72382 2.0449,1.3736 0.3502,-0.35022 0.9195,0.10006 1.265,1.00062 0.3456,0.90056 1.0344,1.38645 1.5306,1.07974 0.4963,-0.3067 1.1713,0.1433 1.5,1 0.3288,0.85671 1.0038,1.30671 1.5,1 0.4963,-0.3067 1.1713,0.1433 1.5,1 0.3288,0.85671 0.919,1.35912 1.3116,1.11649 0.3926,-0.24264 6.0829,5.04157 12.6452,11.74268 6.5623,6.70111 9.8932,10.38971 7.402,8.1969 -2.4912,-2.19282 1.1088,1.57404 8,8.3708 6.8912,6.79676 11.6294,11.77805 10.5294,11.06953 -1.1,-0.70852 0.925,1.52177 4.5,4.95621 3.575,3.43443 5.825,5.92757 5,5.54031 -0.825,-0.38727 1.0783,1.63671 4.2294,4.49771 3.1512,2.86101 5.662,5.51158 5.5796,5.89017 -0.082,0.37858 2.1884,3.11428 5.0462,6.07933 2.8579,2.96505 5.0328,5.55434 4.8332,5.75398 -0.1997,0.19964 1.5755,2.47444 3.9448,5.05512 2.3694,2.58068 4.1114,4.88863 3.8713,5.12878 -0.2402,0.24014 0.6968,1.32819 2.0821,2.41788 1.3853,1.08969 2.2853,2.21469 2,2.5 -0.2853,0.28531 0.6147,1.41031 2,2.5 1.3853,1.08969 2.2892,2.21081 2.0086,2.49139 -0.2806,0.28057 0.4832,1.38855 1.6973,2.46218 1.2141,1.07362 1.5325,1.6112 0.7075,1.19461 -0.825,-0.41659 0.75,1.40188 3.5,4.04104 2.75,2.63916 4.1,4.23015 3,3.53553 -1.1,-0.69462 -0.2,0.42947 2,2.49798 2.2,2.06851 3.1,3.19351 2,2.5 -1.1,-0.69351 -0.2,0.43149 2,2.5 2.2,2.06851 3.1,3.20212 2,2.51913 -1.1,-0.68298 0.025,0.67214 2.5,3.01138 2.475,2.33924 3.8074,3.8587 2.961,3.37658 -0.8465,-0.48212 -0.3669,0.24842 1.0658,1.62342 3.8153,3.66186 5.946,6.64359 3.9732,5.56012 -0.825,-0.45309 0.075,0.56724 2,2.2674 1.925,1.70016 3.207,3.10949 2.8488,3.13184 -0.3582,0.0224 0.5418,1.33051 2,2.90702 3.3537,3.62587 12.4845,18.75234 12.4845,20.68228 0,0.79824 0.4016,1.45134 0.8924,1.45134 0.4908,0 0.6142,0.45 0.2743,1 -0.3399,0.55 -0.1149,1 0.5,1 0.6149,0 0.8399,0.45 0.5,1 -0.3399,0.55 -0.1149,1 0.5,1 0.6149,0 0.8399,0.45 0.5,1 -0.3399,0.55 -0.1149,1 0.5,1 0.6149,0 0.8399,0.45 0.5,1 -0.3399,0.55 -0.1149,1 0.5,1 0.6149,0 0.8399,0.45 0.5,1 -0.3399,0.55 -0.2243,1 0.2568,1 1.2234,0 5.349,7.56084 4.5575,8.35234 -0.3562,0.35621 -0.096,0.64766 0.5781,0.64766 0.6741,0 0.9475,0.45 0.6076,1 -0.3399,0.55 -0.1149,1 0.5,1 0.6149,0 0.8399,0.45 0.5,1 -0.3399,0.55 -0.1166,1 0.4963,1 1.2633,0 6.0435,9.87882 6.2765,12.97083 0.084,1.11604 0.5336,2.02917 0.999,2.02917 0.4654,0 0.5681,0.45 0.2282,1 -0.3399,0.55 -0.1903,1 0.3326,1 0.9141,0 2.6693,4.70523 2.3314,6.25 -0.09,0.4125 0.3126,0.75 0.895,0.75 0.5825,0 0.7809,0.45 0.441,1 -0.3399,0.55 -0.1961,1 0.3197,1 0.9972,0 3.819,5.98522 3.4181,7.25 -0.1308,0.4125 0.2388,0.75 0.8212,0.75 0.5825,0 0.7809,0.45 0.441,1 -0.3399,0.55 -0.1149,1 0.5,1 0.6149,0 0.8399,0.45 0.5,1 -0.3399,0.55 -0.1149,1 0.5,1 0.6149,0 0.8399,0.45 0.5,1 -0.3399,0.55 -0.1506,1 0.4207,1 0.5712,0 1.9809,1.84704 3.1326,4.10454 1.1517,2.25749 1.616,3.80912 1.0318,3.44806 -0.6484,-0.40072 -0.831,-0.0541 -0.4689,0.88972 0.3264,0.85041 0.9491,1.32636 1.3838,1.05768 0.4347,-0.26868 1.0574,0.20727 1.3838,1.05768 0.3694,0.96262 0.1825,1.29233 -0.495,0.87358 -0.749,-0.46289 -0.7345,-0.0114 0.047,1.44806 0.6242,1.16638 1.6441,2.12068 2.2665,2.12068 0.6223,0 0.8689,0.2625 0.5481,0.58333 -0.3208,0.32084 0.2792,1.44584 1.3333,2.5 1.0542,1.05417 1.9008,2.47917 1.8813,3.16667 -0.02,0.6875 -0.6786,0.125 -1.4646,-1.25 -1.9728,-3.45101 -1.8624,-1.82779 0.1648,2.42324 0.9156,1.92011 2.0355,3.262 2.4885,2.98199 0.4531,-0.28001 0.5692,0.15447 0.2579,0.96551 -0.3112,0.81104 0.4335,2.47391 1.6548,3.69527 6.5097,6.50969 32.4229,80.54249 38.4655,109.89381 1.4107,6.8529 4.5537,18.5529 6.9843,26 7.2149,22.10558 11.2516,41.28465 12.9526,61.54018 0.3695,4.4 2.1841,18.35 4.0326,31 1.8484,12.65 4.1086,29.3 5.0225,37 0.914,7.7 2.3215,17.375 3.1278,21.5 0.8063,4.125 1.8768,14.925 2.3789,24 0.5021,9.075 1.4027,22.8 2.0013,30.5 0.5986,7.7 1.4262,24.59261 1.8391,37.53913 0.4129,12.94653 1.1147,24.128 1.5595,24.84772 0.4448,0.71972 1.1526,9.02711 1.5729,18.46086 0.4203,9.43376 1.682,24.35229 2.8039,33.15229 1.1218,8.8 2.7711,23.2 3.6649,32 0.8939,8.8 2.119,18.7 2.7224,22 0.6034,3.3 1.1898,12.75 1.3031,21 0.152,11.0632 0.7657,17.4933 2.3386,24.5 1.1729,5.225 2.5515,13.55 3.0636,18.5 0.5121,4.95 1.9056,15.2781 3.0967,22.9514 1.191,7.6733 2.0167,16.3364 1.8347,19.2514 -0.182,2.9149 0.063,5.2993 0.5445,5.2986 0.4815,-8e-4 0.6742,3.8329 0.4282,8.5193 -0.2694,5.1323 -0.093,8.0154 0.4428,7.25 0.5467,-0.7804 0.7342,0.9646 0.486,4.5228 -0.2223,3.1864 -0.085,5.2776 0.3042,4.6472 1.0227,-1.6547 2.2061,11.0472 1.5595,16.738 -0.3683,3.2411 -0.2764,4.0019 0.2803,2.3213 0.4821,-1.4551 0.8421,8.367 0.8612,23.5 0.019,14.9445 -0.3247,25.1496 -0.8082,24 -0.5416,-1.2879 -0.6367,-0.5082 -0.267,2.1901 0.4297,3.1367 0.023,5.3285 -1.6183,8.7189 -2.1549,4.4513 -2.1719,4.8282 -0.9931,22.0149 0.6597,9.6173 0.9831,18.6176 0.7186,20.0008 -0.2644,1.3831 -0.1767,2.3269 0.1948,2.0973 1.4395,-0.8896 3.1539,45.7332 2.1872,59.478 -0.6035,8.5806 -0.5952,26.1453 0.023,48.2018 0.709,25.2998 0.6579,38.4401 -0.1888,48.5 -0.6387,7.589 -1.5344,20.7732 -1.9905,29.2982 -0.4562,8.525 -1.2731,18.425 -1.8155,22 -0.5423,3.575 -1.7064,11.9 -2.5869,18.5 -4.2243,31.6651 -6.7263,38.339 -21.9303,58.4957 -15.8328,20.9905 -20.5977,25.5717 -38.6625,37.1728 -5.225,3.3555 -10.8016,7.1902 -12.3926,8.5216 -1.5909,1.3314 -5.0935,3.536 -7.7835,4.8992 -2.6901,1.3631 -6.4811,3.9782 -8.4244,5.8112 -3.22,3.0371 -22.8584,12.1237 -33.5779,15.5363 -2.0231,0.6441 -6.2981,2.8578 -9.5,4.9194 -5.178,3.3339 -30.9594,12.6446 -40.8216,14.7423 -1.65,0.3509 -4.9377,1.7436 -7.306,3.0948 -2.3684,1.3512 -5.8538,2.5354 -7.7456,2.6317 -1.8917,0.096 -3.4414,0.565 -3.4439,1.0416 0,0.4767 -0.9041,0.6314 -2.0035,0.3439 -1.0995,-0.2875 -2.2752,-0.076 -2.6129,0.4705 -0.3376,0.5463 -1.463,0.7712 -2.501,0.4997 -1.0379,-0.2714 -1.8871,-0.033 -1.8871,0.5296 0,0.5626 -0.8784,0.7932 -1.9521,0.5125 -1.0736,-0.2808 -2.09,-0.097 -2.2587,0.4095 -0.1686,0.506 -1.8777,1.0812 -3.7979,1.2782 -1.9202,0.197 -4.2117,0.6576 -5.0921,1.0236 -0.8804,0.3659 -2.0054,0.5715 -2.5,0.4569 -0.4946,-0.1147 -1.7061,0.1435 -2.6923,0.5738 -0.9862,0.4302 -2.0698,0.5056 -2.408,0.1674 -0.3382,-0.3382 -1.198,-0.1309 -1.9106,0.4605 -0.7126,0.5914 -4.129,1.3028 -7.592,1.5808 -3.463,0.278 -8.0963,0.7389 -10.2963,1.0242 -16.2313,2.1048 -54.3925,3.8414 -57.5,2.6166 -0.825,-0.3252 -2.9625,-0.4945 -4.75,-0.3762 -1.7875,0.1183 -3.25,-0.2581 -3.25,-0.8365 0,-0.6351 -1.1881,-0.814 -3,-0.4516 -1.65,0.33 -3.003,0.2063 -3.0068,-0.275 0,-0.4812 -2.5912,-1.0019 -5.75,-1.1571 -3.1587,-0.1551 -5.8741,-0.6603 -6.0341,-1.1226 -0.1599,-0.4622 -2.2974,-0.6142 -4.75,-0.3378 -2.8072,0.3164 -4.4591,0.1073 -4.4591,-0.5646 0,-0.6535 -1.3075,-0.855 -3.3729,-0.5198 -1.9771,0.3208 -3.6572,0.087 -4.06,-0.5646 -0.4488,-0.7261 -2.5532,-0.8925 -6.0659,-0.4797 -2.9583,0.3477 -6.1938,0.2954 -7.19,-0.1161 -6.3592,-2.6274 -50.7788,-2.797 -57.4578,-0.2195 -8.8753,3.4252 -8.6857,8.5432 0.6766,18.2609 5.419,5.6247 14.0984,16.5603 29.3235,36.9459 3.6969,4.95 8.2514,12.375 10.121,16.5 1.8697,4.125 5.8147,12 8.7666,17.5 6.4784,12.0704 11.5114,24.2824 10.6092,25.7422 -0.3891,0.6297 -0.1863,0.7744 0.4952,0.3533 1.072,-0.6625 1.5482,0.7223 1.4249,4.1437 -0.025,0.6816 0.2843,1.036 0.6862,0.7876 0.9034,-0.5583 3.1545,6.4844 2.4414,7.6382 -0.2838,0.4593 -0.01,0.835 0.6104,0.835 0.6713,0 0.8699,0.808 0.4916,2 -0.3802,1.1979 -0.1797,2 0.5,2 0.6797,0 0.8802,0.8021 0.5,2 -0.3888,1.225 -0.1797,2 0.5396,2 0.6459,0 0.9209,0.6606 0.6111,1.468 -0.3099,0.8074 -0.1023,1.7529 0.4611,2.1011 0.5635,0.3483 0.783,1.2627 0.4878,2.0321 -0.2953,0.7693 -0.053,1.3988 0.5388,1.3988 0.5916,0 0.8166,0.675 0.5,1.5 -0.3166,0.825 -0.1539,1.5 0.3616,1.5 0.5155,0 0.6782,0.675 0.3616,1.5 -0.3168,0.8257 -0.03,1.5 0.6384,1.5 0.6682,0 0.9552,0.6743 0.6384,1.5 -0.3166,0.825 -0.2256,1.5 0.2021,1.5 1.0197,0 4.2326,10.0727 3.56,11.161 -0.2852,0.4614 0.011,0.839 0.6571,0.839 0.6833,0 0.9566,0.8375 0.6527,2 -0.2877,1.1 -0.063,2 0.5,2 0.5626,0 0.7877,0.8996 0.5002,1.999 -0.2875,1.0995 -0.084,2.27 0.4516,2.6012 0.5358,0.3311 0.7382,1.2172 0.4497,1.9689 -0.2884,0.7518 -0.082,1.6402 0.4584,1.9743 0.5406,0.3341 0.8987,1.136 0.796,1.782 -0.1028,0.646 0.3702,2.5246 1.051,4.1746 2.4947,6.0453 6.2663,20.5794 5.714,22.0187 -0.5063,1.3194 -1037.63122,2.5049 -1037.63122,1.1861 0,-0.3833 9.41599,-21.7209 12.4464,-28.2048 1.28528,-2.75 3.92219,-8.825 5.85979,-13.5 1.9376,-4.675 5.8574,-13.675 8.71066,-20 6.88835,-15.2698 8.98315,-21.4574 8.98315,-26.5341 0,-5.0723 -0.29675,-4.8149 13.69626,-11.8817 6.15794,-3.1099 13.57083,-7.4386 16.47309,-9.6193 5.83174,-4.3819 6.98073,-4.6939 8.8757,-2.4106 1.12955,1.361 1.45015,1.1732 2.57843,-1.5101 0.70866,-1.6855 9.16586,-10.8996 18.79378,-20.4759 22.61389,-22.4928 23.43796,-25.0029 8.97903,-27.3502 -4.34296,-0.7051 -12.17129,-1.9668 -17.39629,-2.8038 -19.08823,-3.0578 -39.27299,-7.459 -55.5,-12.1014 -6.6,-1.8883 -15.15,-4.2707 -19,-5.2944 -15.27111,-4.0604 -18.11022,-4.8695 -20.9174,-5.9615 -1.60457,-0.6241 -8.35457,-2.7221 -15,-4.6621 -12.18103,-3.556 -49.11993,-17.738 -62.0826,-23.8354 -18.41653,-8.6629 -25.16079,-11.9604 -27,-13.2011 -1.1,-0.742 -7.15439,-4.7994 -13.4542,-9.0163 -30.02678,-20.099 -47.46841,-38.1885 -65.0458,-67.4622 -1.375,-2.29 -2.96483,-4.6623 -3.53295,-5.2717 -0.56812,-0.6095 -2.89486,-4.7082 -5.17053,-9.1082 -19.7645,-38.2146 -20.65039,-75.8181 -3.78392,-160.6161 9.13645,-45.9344 9.46696,-44.4007 -9.41144,-43.6719 -28.15071,1.0867 -44.75171,16.8714 -59.56881,56.6399 -13.7693,36.9559 -13.1683,97.5406 1.4596,147.1481 1.0541,3.575 2.5787,9.2 3.3878,12.5 1.7854,7.281 3.9014,13.2711 7.1633,20.2773 1.3513,2.9026 2.457,5.6781 2.457,6.1679 0,0.4898 1.125,3.1303 2.5,5.8679 1.375,2.7375 2.5,5.4479 2.5,6.0229 0,2.212 18.0005,34.6276 22.5834,40.6684 1.2536,1.6525 2.762,4.1275 3.3519,5.5 0.5899,1.3726 2.61591,4.5206 4.50222,6.9956 1.88631,2.475 3.45952,4.9621 3.49604,5.5269 0.0538,0.8329 5.22255,8.394 8.86827,12.9731 1.15323,1.4485 14.8586,19.9672 19.98224,27 2.40416,3.3 10.72731,12.6674 18.49588,20.8164 18.62418,19.5362 19.16485,20.4835 13.45343,23.5706 -2.25754,1.2202 -5.21771,6.6897 -8.30168,15.3389 -10.17655,28.5409 24.32482,83.4341 65.85234,104.7741 5.88665,3.025 10.7059,5.8375 10.70945,6.25 0.004,0.4125 -50.1071,0.75 -111.357,0.75 -105.46389,0 -111.35369,-0.093 -111.17929,-1.75 z m 1.5428,-1.75 c 0,-0.275 -0.225,-0.5 -0.5,-0.5 -0.275,0 -0.5,0.225 -0.5,0.5 0,0.275 0.225,0.5 0.5,0.5 0.275,0 0.5,-0.225 0.5,-0.5 z m 12.5,-18.5 c 0.3399,-0.55 0.393,-1 0.118,-1 -0.275,0 -0.7781,0.45 -1.118,1 -0.34,0.55 -0.3931,1 -0.1181,1 0.275,0 0.7781,-0.45 1.1181,-1 z m 11.5,-15.5 c 0,-0.275 -0.225,-0.5 -0.5,-0.5 -0.275,0 -0.5,0.225 -0.5,0.5 0,0.275 0.225,0.5 0.5,0.5 0.275,0 0.5,-0.225 0.5,-0.5 z m 3.1275,-4.25 c 1.2439,-1.5861 1.2085,-1.6214 -0.3775,-0.3776 -1.6658,1.3064 -2.1955,2.1276 -1.3725,2.1276 0.2077,0 0.9952,-0.7875 1.75,-1.75 z m 334.53912,-8.9167 c -0.36667,-0.3666 -0.66667,-0.067 -0.66667,0.6667 0,0.7333 0.3,1.0333 0.66667,0.6667 0.36666,-0.3667 0.36666,-0.9667 0,-1.3334 z m -278.16662,-66.3333 c 0.3399,-0.55 0.393,-1 0.118,-1 -0.275,0 -0.7781,0.45 -1.118,1 -0.34,0.55 -0.3931,1 -0.1181,1 0.275,0 0.7781,-0.45 1.1181,-1 z m 7.49995,-9.5 c 0,-0.275 -0.225,-0.5 -0.5,-0.5 -0.275,0 -0.5,0.225 -0.5,0.5 0,0.275 0.225,0.5 0.5,0.5 0.275,0 0.5,-0.225 0.5,-0.5 z m 585.76362,-27.4788 c 0.955,-0.5384 17.7114,-6.3579 37.2364,-12.9324 55.3422,-18.6348 74.4597,-25.4907 94.5,-33.8894 29.8478,-12.509 39.5,-18.6437 39.5,-25.1052 0,-4.4268 -1.0225,-4.4521 -10.158,-0.2515 -4.5938,2.1124 -10.1501,4.4205 -12.3472,5.1293 -2.1971,0.7087 -4.5319,1.714 -5.1884,2.234 -0.6565,0.5199 -3.3565,1.5573 -6,2.3054 -6.116,1.7307 -17.6083,6.023 -22.8721,8.5425 -2.2362,1.0704 -4.7337,1.9461 -5.55,1.9461 -0.8164,0 -1.9118,0.391 -2.4343,0.8689 -0.5225,0.4779 -3.65,1.7829 -6.95,2.8999 -3.3,1.117 -13.2,4.5898 -22,7.7173 -8.8,3.1276 -18.475,6.5216 -21.5,7.5423 -19.5126,6.5839 -33.9938,12.8943 -42.7335,18.6218 -5.8496,3.8335 -19.2665,14.2531 -19.2665,14.9624 0,0.7784 4.0753,0.3602 5.7636,-0.5914 z m -625.09697,-0.6879 c -0.3666,-0.3666 -0.9666,-0.3666 -1.3333,0 -0.3667,0.3667 -0.067,0.6667 0.6667,0.6667 0.7333,0 1.0333,-0.3 0.6666,-0.6667 z m 521.44327,-4.868 c 33.0252,-3.2933 113.6806,-18.8065 131.8901,-25.3677 1.375,-0.4954 7.225,-2.3578 13,-4.1387 10.0881,-3.1108 57.9905,-19.1421 72.5,-24.2632 12.6922,-4.4797 29.8566,-11.3668 39,-15.6485 9.2418,-4.3278 18.6695,-8.6416 40.5,-18.5318 19.3878,-8.7835 65.2846,-33.7 90.5,-49.1306 3.85,-2.3561 11.725,-7.0628 17.5,-10.4595 26.2245,-15.4243 58.7071,-36.7805 73.25,-48.1593 5.9123,-4.6259 5.3283,-6.2052 -7.0452,-19.0552 -17.581,-18.2579 -17.0601,-15.1236 -7.3546,-44.2608 2.7389,-8.2225 6.3812,-20.125 8.094,-26.45 1.7127,-6.325 3.7568,-13.75 4.5422,-16.5 0.7855,-2.75 3.697,-13.775 6.47,-24.5 2.7731,-10.725 7.0662,-27.15 9.5403,-36.5 2.4742,-9.35 5.4162,-21.0074 6.5378,-25.9053 1.1217,-4.8979 2.2498,-9.2457 2.5069,-9.6618 0.2572,-0.416 1.3481,-4.9587 2.4242,-10.0947 1.0761,-5.136 3.343,-15.4132 5.0374,-22.8382 5.7755,-25.308 8.6525,-39.8719 15.0135,-76 3.8479,-21.8546 7.9234,-43.1078 12.4643,-65 9.2258,-44.4784 14.6217,-72.4235 20.564,-106.5 6.6922,-38.377 8.3159,-48.1092 11.4282,-68.5 6.822,-44.69572 10.5366,-78.19473 14.0273,-126.5 0.8346,-11.55 2.1776,-29.775 2.9845,-40.5 2.9196,-38.80828 3.1164,-83 0.3696,-83 -0.513,0 -5.9802,4.8375 -12.1494,10.75 -10.3964,9.96376 -27.966,26.22005 -38.6814,35.78999 -8.5794,7.66218 -16.561,14.16415 -28.5236,23.23592 -6.6,5.00505 -14.25,10.83076 -17,12.94603 -5.7795,4.4455 -24.4995,17.1875 -39.0652,26.59013 -8.7372,5.64019 -21.8945,13.25319 -41.1759,23.82497 -2.8826,1.5805 -8.0576,4.58278 -11.5,6.67173 -3.4424,2.08895 -13.3633,7.78186 -22.0464,12.6509 -18.9153,10.60666 -18.2084,9.70447 -10.4781,13.37342 3.4461,1.63555 10.2994,4.87667 15.2296,7.20249 4.9302,2.32581 12.8052,6.75579 17.5,9.8444 4.6948,3.0886 8.986,5.79475 9.536,6.01366 1.8563,0.73886 9.8196,6.58362 13.4223,9.85158 5.6419,5.11761 1.6053,3.80198 -7.6558,-2.49522 -4.651,-3.1625 -9.2026,-6.2 -10.1147,-6.75 -0.9121,-0.55 -4.4157,-2.6875 -7.7859,-4.75 -3.3701,-2.0625 -6.4151,-3.75 -6.7666,-3.75 -0.3515,0 -2.3176,-1.05463 -4.3692,-2.34363 -6.0894,-3.826 -19.0957,-8.44833 -28.8688,-10.25975 l -9.1387,-1.69383 -9.3613,5.01449 c -5.1487,2.75797 -12.4294,6.67676 -16.1793,8.70842 -8.0334,4.35246 -36.5532,17.77164 -52.182,24.55274 -19.8735,8.62281 -21.9923,10.18498 -15.75,11.61221 9.7902,2.23839 42.6558,15.02066 55.9756,21.77035 2.6302,1.3328 11.7466,7.0597 20.2586,12.7265 42.5094,28.3 63.7081,47.6965 90.4266,82.7389 6.0687,7.9594 6.2947,8.0283 12.7468,3.8909 2.9383,-1.8842 7.5924,-4.8281 10.3424,-6.542 2.75,-1.714 6.35,-4.3015 8,-5.7501 1.65,-1.4486 5.025,-4.0308 7.5,-5.7381 2.475,-1.7073 5.4,-3.9471 6.5,-4.9774 2.9062,-2.722 5.2902,-3.8582 5.9284,-2.8255 0.6419,1.0386 -16.0711,16.4586 -21.9284,20.2317 -2.2,1.4173 -6.3711,4.0483 -9.269,5.8469 -10.6328,6.599 -10.8178,8.629 -2.0841,22.8708 2.8445,4.6384 6.6941,11.5234 8.5546,15.2999 1.8605,3.7766 3.9519,6.8665 4.6477,6.8665 1.2623,0 19.5837,-5.9443 22.9008,-7.4301 1.0584,-0.4741 1.75,-0.3654 1.75,0.2751 0,1.5001 -7.3914,6.3975 -15.283,10.1261 -7.7256,3.6502 -7.6837,3.5178 -5.2806,16.6684 2.1275,11.6426 3.8391,26.4183 3.1412,27.1162 -1.3502,1.3502 -2.4327,-1.9267 -5.5146,-16.6942 -4.231,-20.2729 -11.7672,-39.489 -18.663,-47.5876 l -2.5323,-2.9739 0.5179,10.5 c 0.2848,5.775 1.1962,15.675 2.0253,22 4.4002,33.5677 4.6846,78.8314 0.6405,101.9482 -9.329,53.3268 -14.682,66.1494 -36.0073,86.2515 -7.6737,7.2335 -8.3155,9.5289 -3.8994,13.945 2.2693,2.2693 2.4289,4.2894 0.2735,3.4623 -0.87,-0.3339 -2.6518,-0.607 -3.9595,-0.607 -1.3078,0 -3.4697,-1.1776 -4.8043,-2.6169 l -2.4265,-2.6169 -13.9526,3.1027 c -20.5965,4.5802 -27.6963,4.025 -40.3869,-3.1578 -23.671,-13.3976 -47.6533,-56.0519 -55.7812,-99.2111 -17.7413,-94.2058 -5.5945,-196.2502 28.3247,-237.9547 9.4304,-11.5949 9.2994,-12.4865 -2.4319,-16.5549 -3.575,-1.2398 -8.075,-3.0402 -10,-4.0009 -6.2519,-3.1202 -29.2715,-10.30846 -46.5829,-14.54632 l -11.0828,-2.7131 -7.4172,2.2107 c -39.0876,11.65018 -51.8746,19.36662 -68.0394,41.05922 -2.664,3.575 -5.2021,6.95 -5.6403,7.5 -9.3131,11.6889 -16.7133,31.7814 -21.7229,58.9802 -2.7906,15.1511 -3.8028,17.5064 -5.558,12.9326 -1.9952,-5.1994 1.7652,-29.0888 6.6204,-42.0579 12.038,-32.1562 27.9317,-53.9905 50.4231,-69.27015 3.025,-2.05505 7.6058,-5.1753 10.1795,-6.93389 2.5738,-1.75859 7.5769,-6.67446 11.118,-10.92415 3.5412,-4.24969 7.3571,-8.76095 8.4797,-10.02501 1.1226,-1.26407 3.5445,-4.16499 5.382,-6.44649 1.8374,-2.28151 8.0658,-9.80435 13.8408,-16.71744 22.9663,-27.4923 22.6973,-26.39536 6.25,-25.48707 -47.8316,2.64148 -49.9387,3.44753 -88.9157,34.01427 -7.0589,5.53574 -14.1843,10.93204 -15.8343,11.99177 -1.65,1.05974 -12.0945,8.568 -23.2101,16.68503 -11.1156,8.11703 -20.5366,14.75823 -20.9356,14.75823 -0.3989,0 -1.6544,0.84493 -2.7898,1.87763 -1.6008,1.45586 -37.4606,25.84997 -43.3575,29.49447 -5.3747,3.3217 -1.3334,-4.7403 10.5379,-21.0223 3.4488,-4.7302 19.0694,-26.27593 35.6167,-49.12662 5.6189,-7.7593 13.5028,-19.0985 20.6384,-29.68372 42.4369,-62.95204 92.8222,-158.53946 83.5681,-158.53946 -0.7876,0 -2.445,1.4625 -3.6832,3.25 -2.4948,3.6015 -15.2114,17.93436 -26.8387,30.25 -4.1541,4.4 -11.1241,12.05 -15.489,17 -9.6821,10.97993 -29.9172,31.1822 -42.0682,42 -4.9423,4.4 -15.5117,13.88447 -23.4875,21.07659 -7.9758,7.19213 -20.8015,18.63426 -28.5015,25.42695 -7.7,6.7927 -19.625,17.61993 -26.5,24.06052 -15.6356,14.64764 -51.3033,43.45898 -92.50002,74.71884 -7.7,5.8427 -19.175,14.7019 -25.5,19.6871 -14.60853,11.514 -21.95443,16.9989 -24.56136,18.3389 -3.41694,1.7563 -54.56092,-36.1743 -74.93864,-55.57791 -2.2,-2.09482 -8.725,-8.02545 -14.5,-13.17916 -16.79948,-14.99215 -54.2559,-51.67338 -63.76568,-62.44601 -8.04139,-9.10923 -16.2219,-18.58646 -28.10051,-32.55483 -6.8822,-8.09294 -11.56319,-13.48772 -12.1919,-14.05099 -0.30696,-0.275 -4.7945,-5.675 -9.97232,-12 -5.17783,-6.325 -9.65424,-11.725 -9.9476,-12 -0.29335,-0.275 -1.81421,-2.21765 -3.37967,-4.317 -2.51092,-3.36723 -24.24423,-28.57127 -26.88895,-31.183 -3.00761,-2.9701 2.35116,15.28714 8.21841,28 20.92429,45.33771 65.29349,126.73419 82.85515,152 2.29375,3.3 4.17104,6.30568 4.17176,6.67929 0.003,1.80375 8.40216,13.03071 10.31802,13.79261 1.20081,0.4776 7.13329,1.6308 13.18329,2.5627 21.28602,3.2789 43.24434,12.6697 60,25.66 7.25523,5.6248 11.62552,11.0132 10.1384,12.5003 -0.59595,0.596 -1.45741,0 -12.83549,-8.9449 -4.72467,-3.7125 -8.79132,-6.75 -9.037,-6.75 -0.24568,0 -4.16628,-2.2355 -8.71244,-4.9679 -16.12269,-9.69 -39.29682,-15.3353 -45.86133,-11.172 -2.16858,1.3753 3.54829,9.928 23.02164,34.4413 4.28242,5.3908 7.78622,10.2017 7.78622,10.691 0,1.5711 -1.86612,2.1051 -3.70932,1.0613 -0.98488,-0.5577 -8.09068,-3.0979 -15.79068,-5.645 -18.87448,-6.2433 -34.06686,-12.7614 -58.453,-25.0783 -11.24915,-5.6817 -21.14915,-10.33 -22,-10.3294 -5.50853,0 -43.78953,23.4834 -49.84535,30.573 -4.53996,5.315 -4.69301,5.006 10.17868,20.5522 20.75558,21.6969 21.69736,21.1167 -24.88033,15.3298 -6.6,-0.82 -12.9,-1.4829 -14,-1.473 -3.13182,0.028 -14.37189,14.1179 -19.9573,25.017 -7.04001,13.7376 -9.23384,18.5521 -12.05279,26.4508 -3.23728,9.0708 -5.48991,11.9672 -5.48991,7.0589 0,-6.317 10.02853,-29.8453 17.13025,-40.1899 1.57836,-2.2991 2.86975,-4.559 2.86975,-5.0221 0,-0.4631 1.3133,-2.4353 2.91844,-4.3826 8.01996,-9.7296 8.35357,-13.356 1.31454,-14.2898 -11.35516,-1.5063 -46.5009,-13.5343 -68.23298,-23.3514 -3.025,-1.3665 -8.65,-3.7505 -12.49995,-5.2977 -10.6836,-4.2936 -27.3113,-12.2823 -40.2969,-19.3606 -6.4367,-3.5085 -14.4031,-7.835 -17.7031,-9.6144 -3.3,-1.7793 -7.125,-4.0219 -8.5,-4.9834 -1.375,-0.9615 -8.316,-5.2429 -15.4244,-9.5143 -7.1084,-4.2714 -18.7279,-11.75707 -25.8212,-16.63483 -11.2798,-7.75678 -15.7544,-10.13789 -15.7544,-8.38355 0,0.97659 6.0265,18.59168 6.9372,20.27698 0.5166,0.9558 1.6106,3.7629 2.4311,6.2379 0.8206,2.475 2.9115,8.1 4.6465,12.5 1.7349,4.4 3.7361,9.8 4.4469,12 0.7109,2.2 2.1813,6.025 3.2676,8.5 3.7255,8.4882 6.1855,14.5267 12.8325,31.5 3.6616,9.35 7.5081,18.8878 8.5478,21.1951 1.0397,2.3074 1.8904,4.4695 1.8904,4.8049 0,0.3354 0.847,2.4975 1.8824,4.8049 4.1493,9.2471 8.218,18.8433 13.4766,31.7855 3.0371,7.4747 6.7074,16.2497 8.1561,19.5 1.4488,3.2503 3.2367,7.2596 3.9731,8.9096 0.7365,1.65 2.5365,5.7 4,9 1.4636,3.3 3.2663,7.35 4.0062,9 0.7398,1.65 4.4918,10.2 8.3378,19 12.5773,28.7784 25.647,57.7057 35.693,79 42.26839,89.5951 43.51588,97.3385 27.93687,173.4095 -12.4258,60.6741 -11.10237,104.524 4.22806,140.0905 1.5197,3.5257 2.07797,4.6393 8.83615,17.6262 2.0396,3.9193 5.92356,9.5443 8.63103,12.5 2.70746,2.9556 6.09346,7.1738 7.52443,9.3738 3.09546,4.759 17.98011,19.3252 23.74315,23.2352 2.24128,1.5207 6.02612,4.5648 8.41075,6.7648 2.38463,2.2 5.08463,4.4115 6,4.9145 0.91537,0.503 1.88931,1.1991 2.16431,1.5468 2.16829,2.7415 19.55656,13.7058 28.5,17.9709 20.43531,9.7455 24.98536,11.8546 30,13.9061 2.75,1.1251 7.7,3.1594 11,4.5207 24.37341,10.0542 39.65292,15.6204 54,19.6718 6.05,1.7085 13.925,3.9427 17.5,4.9649 11.94495,3.4156 43.3942,11.2102 52.5,13.012 4.95,0.9794 12.15,2.4703 16,3.313 3.85,0.8428 11.5,2.2541 17,3.1364 8.85137,1.42 15.19283,2.1789 34,4.069 4.72422,0.4748 24.83896,2.107 61,4.9498 22.92556,1.8023 53.47502,1.7978 71.60992,-0.011 z m -74.10992,-149.1249 c -13.33453,-2.6583 -39.4207,-12.9923 -45.31355,-17.9508 -1.56195,-1.3143 -3.41063,-2.3896 -4.10819,-2.3896 -0.69756,0 -2.08277,-0.9 -3.07826,-2 -3.44956,-3.8117 1.59053,-2.3079 16.66141,4.9713 38.44345,18.568 57.25983,19.3865 89.36831,3.8874 12.6424,-6.1026 29.5158,-16.3996 37.0481,-22.6087 5.9445,-4.9002 9.4222,-6.4972 9.4222,-4.3267 0,1.9621 -5.0479,6.7278 -10.6466,10.0514 -3.2194,1.9111 -6.0784,3.7417 -6.3534,4.0679 -0.9621,1.1414 -18.5564,11.6446 -24.7118,14.7521 -18.5958,9.3881 -43.93468,14.4073 -58.28822,11.5457 z m -304.33333,-46.0071 c -2.86752,-2.8675 7.23794,-33.935 15.46975,-47.5591 7.19053,-11.9007 8.11821,-7.8308 1.44553,6.3419 -4.13154,8.7754 -11.04656,27.9737 -13.55532,37.6339 -1.06073,4.0845 -1.93086,5.0124 -3.35996,3.5833 z m 38.84301,-2.3176 c -1.87116,-3.0276 12.64832,-42.0157 15.64699,-42.0157 1.66323,0 0.78405,4.194 -2.78211,13.2715 -1.994,5.0757 -4.91716,13.3344 -6.49592,18.3527 -2.84649,9.0479 -5.01383,12.5841 -6.36896,10.3915 z m -72.81507,-3.6544 c -2.44814,-2.4482 4.60398,-25.7721 13.03595,-43.1147 7.78071,-16.0031 10.33001,-16.6703 3.8526,-1.0083 -1.87926,4.5439 -5.91644,15.8163 -8.97152,25.0496 -5.96728,18.0349 -6.84381,20.1466 -7.91703,19.0734 z m 709.90691,-58.1971 c -0.7351,-1.1893 10.0337,-33.0151 16.076,-47.5103 5.2703,-12.6433 6.3939,-6.7441 1.4256,7.4849 -12.6546,36.2423 -15.6318,43.0509 -17.5016,40.0254 z m 49.4019,-7.9142 c 0.032,-7.0165 27.191,-58.3889 29.5965,-55.9834 0.4922,0.4922 -10.033,22.5545 -14.4484,30.2857 -0.6118,1.0712 -3.1886,6.6727 -5.7262,12.4477 -5.0223,11.4294 -9.442,17.6448 -9.4219,13.25 z m 51.6212,-4.3575 c 2.3968,-8.071 24.1153,-56.6997 26.496,-59.3258 3.5073,-3.869 0.087,8.7535 -5.402,19.9333 -1.8902,3.85 -3.7261,7.9 -4.08,9 -5.2832,16.4246 -21.4333,45.2737 -17.014,30.3925 z m -663.62462,-19.2651 c 0,-1.5028 8.36789,-9.6274 9.9156,-9.6274 0.52816,0 4.02572,0.7217 7.77235,1.6038 9.79885,2.3071 39.6533,1.4092 50.31205,-1.5132 4.125,-1.131 8.32902,-2.064 9.34227,-2.0735 1.01325,-0.01 2.98644,-0.9171 4.38486,-2.0171 2.5739,-2.0246 6.27287,-2.7057 6.27287,-1.155 0,6.8144 -40.36723,13.563 -61.5,10.2815 -13.52667,-2.1003 -17.86049,-1.6189 -21.36586,2.3735 -3.21266,3.659 -5.13414,4.4552 -5.13414,2.1274 z m -30,0.01 c 0,-2.3874 15.05869,-16.6374 17.58165,-16.6374 2.44437,0 1.55805,2.1602 -2.21142,5.39 -1.99637,1.7105 -5.70887,5.02 -8.25,7.3544 -3.88939,3.573 -7.12023,5.3395 -7.12023,3.8931 z m 115.44563,-35.1447 c -20.97305,-6.4793 -36.99088,-24.8049 -48.50441,-55.4928 -38.08662,-101.5152 -33.16052,-249.4167 9.05669,-271.9182 11.17738,-5.9575 -6.14222,-19.5635 -26.52156,-20.8349 -64.44628,-4.0207 -118.65616,85.1999 -115.09919,189.4343 0.66595,19.5152 0.29669,21.9529 -2.92096,19.2824 -0.92445,-0.7672 -1.46119,-3.0809 -1.46985,-6.336 -0.0242,-9.0954 -0.56604,-9.9548 -5.88481,-9.3338 -2.8827,0.3366 -6.09568,-0.02 -8.60154,-0.9542 -2.2,-0.8204 -5.8,-1.8752 -8,-2.3442 -2.2,-0.4689 -6.025,-1.7744 -8.5,-2.9011 l -4.5,-2.0486 4,0.6088 c 2.2,0.3348 4.9,1.0808 6,1.6577 2.03224,1.0658 22.34444,1.1767 23.39343,0.1277 0.31517,-0.3152 0.74125,-8.3056 0.94685,-17.7565 0.42918,-19.7286 0.75295,-18.9199 -9.01178,-22.5109 -11.32998,-4.1666 -33.51274,-16.6643 -36.93381,-20.8083 -1.7071,-2.0679 -2.74349,-2.5025 16.60531,6.9631 17.81944,8.7175 28.31891,13.1871 29.11266,12.3934 0.75748,-0.7575 3.1577,-10.4427 3.89596,-15.7207 1.49745,-10.7057 10.57012,-40.9021 15.54525,-51.7391 1.07037,-2.3315 1.94613,-4.5141 1.94613,-4.8503 0,-3.8243 17.4763,-30.4901 28.28917,-43.1644 39.06632,-45.7915 78.69671,-49.9418 115.25866,-12.0704 4.95099,5.1283 10.34064,11.4609 11.97699,14.0724 1.63635,2.6115 3.54733,4.749 4.24662,4.75 0.69929,10e-4 1.78402,1.1268 2.41051,2.5018 0.6265,1.375 1.48068,2.5 1.8982,2.5 0.41751,0 1.53804,2.3451 2.49005,5.2114 0.95202,2.8662 3.02809,7.4113 4.61351,10.1002 16.53458,28.0427 30.32153,70.5587 34.75874,107.1884 0.59962,4.95 2.18961,18 3.53329,29 7.60244,62.2369 4.91237,115.0832 -6.88238,135.2044 -9.15198,15.6127 -24.38965,23.7298 -37.14773,19.7884 z m 24.59266,-166.1892 c 14.36539,-16.3613 10.51512,-52.8698 -10.39742,-98.5893 -1.45248,-3.1754 -2.64087,-6.0577 -2.64087,-6.4051 0,-3.5255 -17.43229,-34.3091 -19.42877,-34.3091 -20.558,0 -8.31237,129.7375 13.35794,141.5219 5.63964,3.0668 15.47073,1.9256 19.10912,-2.2183 z m 395.46173,136.0225 c -15.2076,-1.8978 -8.2607,-3.0576 17.75,-2.9634 28.787,0.1043 37.2974,-1.2199 62.6137,-9.7425 14.3658,-4.8361 26.817,-3.7999 30.7469,2.5589 1.2059,1.9512 -7.2851,0.2222 -10.2109,-2.0792 -2.8554,-2.2461 -5.8921,-2.7301 -6.8997,-1.0998 -0.3399,0.55 -1.4548,1 -2.4775,1 -1.0227,0 -6.7835,1.5439 -12.8017,3.4308 -25.4116,7.9674 -57.2901,11.5695 -78.7208,8.8952 z m 137.5,-14.326 c 0,-0.55 0.675,-1 1.5,-1 0.825,0 1.5,0.45 1.5,1 0,0.55 -0.675,1 -1.5,1 -0.825,0 -1.5,-0.45 -1.5,-1 z m -11.5,-7.9063 c -3.3206,-1.5389 -3.6927,-1.9811 -2.191,-2.6034 2.8485,-1.1803 10.1096,0.7291 10.5009,2.7614 0.4508,2.3404 -3.0632,2.2736 -8.3099,-0.158 z m 105.2409,-365.9914 c -5.7232,-7.3699 -21.1923,-24.36373 -33.9909,-37.34122 -5.3625,-5.43747 -9.75,-10.12095 -9.75,-10.40773 0,-0.45133 7.6188,5.15825 9,6.6265 0.275,0.29234 2.3,1.85612 4.5,3.47506 6.1513,4.52665 17.18,15.33476 23.0052,22.54509 2.8882,3.575 6.2593,7.625 7.4912,9 2.8983,3.2349 7.0036,9.6711 7.0036,10.9801 0,2.577 -3.0739,0.5114 -7.2591,-4.8778 z M 674.64618,760.9134 c 0,-0.73333 0.3,-1.03333 0.66667,-0.66667 0.36666,0.36667 0.36666,0.96667 0,1.33334 -0.36667,0.36666 -0.66667,0.0667 -0.66667,-0.66667 z m -189.99995,942.5 c 0,-0.275 -0.225,-0.5 -0.5,-0.5 -0.275,0 -0.5,0.225 -0.5,0.5 0,0.275 0.225,0.5 0.5,0.5 0.275,0 0.5,-0.225 0.5,-0.5 z m -45,-24 c 0,-0.275 -0.225,-0.5 -0.5,-0.5 -0.275,0 -0.5,0.225 -0.5,0.5 0,0.275 0.225,0.5 0.5,0.5 0.275,0 0.5,-0.225 0.5,-0.5 z m -2,-1 c 0,-0.275 -0.225,-0.5 -0.5,-0.5 -0.275,0 -0.5,0.225 -0.5,0.5 0,0.275 0.225,0.5 0.5,0.5 0.275,0 0.5,-0.225 0.5,-0.5 z m -21,-12.941 c 0,-0.2425 -0.5196,-0.7621 -1.1546,-1.1545 -0.7153,-0.4421 -0.883,-0.2743 -0.4409,0.441 0.7124,1.1527 1.5955,1.5477 1.5955,0.7135 z m -7,-4.9366 c 0,-0.2076 -0.7875,-0.9951 -1.75,-1.75 -1.5861,-1.2438 -1.6215,-1.2085 -0.3776,0.3776 1.3064,1.6657 2.1276,2.1955 2.1276,1.3724 z m -199,-147.1224 c 0,-0.275 -0.225,-0.5 -0.5,-0.5 -0.275,0 -0.5,0.225 -0.5,0.5 0,0.275 0.225,0.5 0.5,0.5 0.275,0 0.5,-0.225 0.5,-0.5 z m -99.3334,-83.1667 c -0.3666,-0.3666 -0.6666,-0.067 -0.6666,0.6667 0,0.7333 0.3,1.0333 0.6666,0.6667 0.3667,-0.3667 0.3667,-0.9667 0,-1.3334 z m 1604.90657,-67.8855 c 69.4014,-13.7022 117.1456,-55.8286 160.8771,-141.9478 39.1307,-77.0589 42.4436,-223.2534 6.1371,-270.81755 -1.7882,-2.34267 -3.6644,-4.96395 -4.1693,-5.82506 -2.2305,-3.80385 -10.3644,-12.33866 -15.4114,-16.17094 -3.0287,-2.29977 -5.7317,-4.42392 -6.0067,-4.72034 -23.5636,-25.39879 -77.9351,-9.53141 -104.2027,30.40979 -13.033,19.8173 -14.5119,24.872 -15.806,54.0242 -0.5396,12.155 -1.4293,29.0749 -1.9771,37.5999 -1.7304,26.9307 -3.0436,60.1434 -2.418,61.1556 0.9572,1.5488 4.2064,-2.0165 5.4921,-6.0265 12.0223,-37.4942 51.59,-88.9026 78.5398,-102.0428 22.8533,-11.1428 48.3719,2.5476 48.3719,25.951 0,7.2551 -2.5313,10.38 -3.472,4.2861 -6.1858,-40.0719 -44.9759,-37.6627 -79.8045,4.9566 -4.2154,5.1584 -4.2098,5.1701 3.6951,7.7216 14.7628,4.765 24.2163,17.4085 32.5236,43.4984 10.3652,32.5533 9.5156,50.6558 -4.2782,91.1479 -13.0569,38.3287 -35.0372,65.8455 -72.1183,90.2833 -17.4017,11.4684 -24.287,13.2389 -8.8668,2.2801 24.1498,-17.1628 41.7033,-33.8975 54.1149,-51.5904 2.3616,-3.3665 4.7241,-6.2709 5.25,-6.4542 0.5259,-0.1834 0.9562,-0.9011 0.9562,-1.595 0,-0.694 0.8982,-2.0746 1.996,-3.0681 4.9657,-4.4939 17.6936,-37.7221 22.6011,-59.0036 6.7128,-29.1102 -2.9077,-73.0873 -19.5792,-89.5 -18.4784,-18.1916 -28.7034,-12.5652 -47.2501,26 -3.3154,6.894 -8.7678,19.0203 -8.7678,19.5 0,0.1983 -1.2906,3.2044 -2.8679,6.6802 -8.1626,17.9874 -7.8674,16.1965 -19.1736,116.3198 -1.8567,16.4421 -6.4815,50.9777 -9.4409,70.5 -0.7921,5.225 -2.365,16.025 -3.4954,24 -1.1304,7.975 -3.103,21.025 -4.3835,29 -1.2806,7.975 -2.1466,14.8375 -1.9245,15.25 0.5572,1.0349 0.38,1.0564 14.859,-1.8022 z M 538.70833,1345.6784 c 4.101,-2.0653 5.7942,-2.2344 22.30648,-2.2279 l 17.86864,0.01 -0.6166,-5.8993 c -1.77794,-17.0105 -6.91951,-20.4798 -19.82568,-13.3775 -2.23134,1.2279 -5.12721,2.8217 -6.43525,3.5416 -4.45119,2.45 -18.35969,16.9969 -18.35969,19.2024 0,1.3129 -0.038,1.3223 5.0621,-1.2464 z m 1603.66127,-25.015 c -0.2218,-1.7875 -0.4033,-0.325 -0.4033,3.25 0,3.575 0.1815,5.0375 0.4033,3.25 0.2218,-1.7875 0.2218,-4.7125 0,-6.5 z m -0.016,-8.9883 c -0.2392,-1.244 -0.444,-0.4617 -0.4551,1.7383 -0.011,2.2 0.1846,3.2177 0.4349,2.2617 0.2503,-0.9561 0.2594,-2.7561 0.02,-4 z m -1,-15 c -0.2392,-1.244 -0.444,-0.4617 -0.4551,1.7383 -0.011,2.2 0.1846,3.2177 0.4349,2.2617 0.2503,-0.9561 0.2594,-2.7561 0.02,-4 z m 0.2926,-66.2617 c 0,-0.275 -0.225,-0.5 -0.5,-0.5 -0.275,0 -0.5,0.225 -0.5,0.5 0,0.275 0.225,0.5 0.5,0.5 0.275,0 0.5,-0.225 0.5,-0.5 z m -687.826,-47.6608 c 5.3069,0.2029 11.4771,-7.8448 14.2656,-18.6062 2.352,-9.0767 0.325,-54.0815 -2.9381,-65.233 -0.2414,-0.825 -1.3674,-7.575 -2.5023,-15 -3.1521,-20.6243 -3.4419,-21.2382 -19.5876,-41.5 -23.7509,-29.8059 -24.2752,-29.9218 -31.6572,-7 -12.063,37.4565 16.8018,153.5395 36.7456,147.7767 1.1,-0.3179 3.6533,-0.5147 5.674,-0.4375 z m 687.519,-19.5702 c -0.2536,-0.9729 -0.4777,-0.419 -0.4981,1.231 -0.02,1.65 0.1871,2.4461 0.461,1.769 0.274,-0.677 0.2906,-2.027 0.037,-3 z M 203.31283,1059.2467 c -0.3666,-0.3666 -0.6666,-0.067 -0.6666,0.6667 0,0.7333 0.3,1.0333 0.6666,0.6667 0.3667,-0.3667 0.3667,-0.9667 0,-1.3334 z m 1.3334,-4.8333 c 0,-0.275 -0.225,-0.5 -0.5,-0.5 -0.275,0 -0.5,0.225 -0.5,0.5 0,0.275 0.225,0.5 0.5,0.5 0.275,0 0.5,-0.225 0.5,-0.5 z m 0.6666,-6.1667 c -0.3666,-0.3666 -0.6666,-0.067 -0.6666,0.6667 0,0.7333 0.3,1.0333 0.6666,0.6667 0.3667,-0.3667 0.3667,-0.9667 0,-1.3334 z m 465.44049,-52.0915 c 2.96607,-2.342 5.84286,-4.6048 6.39286,-5.0283 0.55,-0.4235 3.10568,-1.9952 5.67928,-3.4925 2.57361,-1.4973 5.27361,-3.3045 6,-4.016 0.7264,-0.7115 4.14831,-3.0029 7.60424,-5.0921 14.63853,-8.8491 14.69188,-9.5345 1.3445,-17.2735 -5.29541,-3.0703 -12.77802,-7.4121 -16.62802,-9.64836 -18.44788,-10.71559 -35.54643,-22.4106 -51.38029,-35.14292 -7.49084,-6.02353 -14.10816,-11.42353 -14.70515,-12 -0.597,-0.57646 -3.053,-2.62312 -5.45778,-4.54812 -10.15179,-8.12639 -19.45435,-16.44695 -35.7746,-31.99819 -22.86575,-21.78832 -26.18213,-24.64427 -26.18213,-22.54686 0,0.9147 0.4538,1.38262 1.00841,1.03982 1.18238,-0.73075 2.95051,3.42241 2.24565,5.27478 -0.71141,1.86956 31.06758,50.26032 51.27567,78.07891 4.93362,6.79165 9.6372,13.31665 10.45239,14.5 0.8152,1.18335 5.42314,7.21758 10.23988,13.40944 4.81674,6.1918 11.77628,15.1918 15.46565,20 12.56802,16.3793 17.22774,22.0304 19.89624,24.1295 3.00854,2.3665 1.53479,3.0309 12.5232,-5.6456 z m -456.44049,2.0915 c -0.3666,-0.3666 -0.6666,-0.0666 -0.6666,0.6667 0,0.7333 0.3,1.0333 0.6666,0.6667 0.3667,-0.3667 0.3667,-0.9667 0,-1.3334 z M 2114.5555,910.6634 c -0.4522,-2.3375 -0.8418,-7.15893 -0.8657,-10.71429 -0.04,-5.91947 -0.1781,-6.32974 -1.64,-4.86791 -2.839,2.83904 -0.2397,19.8322 3.0336,19.8322 0.1618,0 -0.076,-1.9125 -0.5279,-4.25 z m -854.57,-45.22486 c 36.9878,-3.03383 32.0645,-0.5756 45.7997,-22.86811 5.0299,-8.16364 11.6197,-18.28864 14.644,-22.5 3.0243,-4.21137 9.7922,-13.95703 15.0399,-21.65703 5.2476,-7.7 11.1375,-16.25 13.0886,-19 9.918,-13.97899 24.9274,-37.73945 26.2665,-41.58083 2.7149,-7.7879 0.068,-6.06687 -11.6847,7.5976 -13.514,15.7122 -37.4982,40.20547 -50.989,52.07115 -4.9476,4.35164 -12.1666,10.83708 -16.0422,14.41208 -11.1745,10.30779 -14.0766,12.77744 -29.965,25.5 -13.7199,10.98613 -19.0825,15.52653 -29.7688,25.20484 -4.356,3.94512 -3.9935,5.76217 0.9882,4.95374 1.9042,-0.30901 12.0845,-1.26906 22.6228,-2.13344 z M 549.64618,848.9134 c 0,-0.55 -0.47656,-1 -1.05902,-1 -0.58243,0 -0.78093,0.45 -0.44093,1 0.33987,0.55 0.81643,1 1.05897,1 0.24254,0 0.44098,-0.45 0.44098,-1 z m 170.5,-213.0802 c 8.69129,-2.0261 19.66878,-5.65515 26,-8.59536 6.58206,-3.0567 29.44386,-16.98335 33.09388,-20.15969 0.60163,-0.52356 2.62663,-1.74211 4.5,-2.70789 3.80189,-1.96001 14.51195,-8.74015 24.41599,-15.45686 1.2165,-0.825 5.37688,-3.62209 9.2453,-6.21576 3.86842,-2.59367 7.64355,-5.29367 8.38916,-6 0.74562,-0.70633 4.73067,-3.493 8.85567,-6.19258 10.02097,-6.55819 58.2869,-42.58806 59.29969,-44.26643 0.43983,-0.72888 1.23369,-1.32523 1.76413,-1.32523 0.94426,0 9.42815,-6.50307 15.49286,-11.87557 1.68117,-1.48929 5.05617,-3.88766 7.5,-5.32971 2.44382,-1.44205 5.97887,-4.00365 7.85566,-5.69245 1.87679,-1.6888 4.28254,-3.34673 5.34611,-3.6843 1.06358,-0.33757 3.63787,-2.3697 5.72064,-4.51586 3.65843,-3.76977 6.02091,-4.92695 6.02091,-2.94916 0,1.1146 -2.21282,6.31784 -2.99695,7.04705 -0.29571,0.275 -1.03697,2.3 -1.64724,4.5 -0.61027,2.2 -2.2267,7.6 -3.59207,12 -11.54575,37.20693 -12.26252,40.28162 -11.27909,48.38329 3.02383,24.91074 16.20414,33.3741 45.40155,29.1533 9.81894,-1.41943 50.11382,-26.5134 50.11382,-31.2088 0,-0.45528 0.675,-0.82779 1.5,-0.82779 0.825,0 1.5,-0.40724 1.5,-0.90498 0,-0.49774 1.9125,-2.04151 4.25,-3.43061 4.765,-2.83171 8.9143,-5.97428 12.7003,-9.61896 1.4023,-1.35 2.6597,-2.36646 2.7941,-2.25881 0.4739,0.37963 10.8598,-6.60476 12.1714,-8.18517 0.731,-0.88081 1.8672,-1.60147 2.525,-1.60147 0.6577,0 2.9651,-1.60292 5.1275,-3.56204 2.1625,-1.95912 5.5368,-4.40123 7.4986,-5.42691 1.9618,-1.02568 4.1544,-2.57276 4.8724,-3.43796 0.7181,-0.8652 1.7326,-1.57309 2.2546,-1.57309 0.5219,0 1.5416,-0.5625 2.2659,-1.25 2.5483,-2.4187 5.6869,-4.84445 14.7849,-11.42702 5.0518,-3.65512 9.6509,-7.01151 10.2202,-7.45863 5.6817,-4.4624 14.1373,-11.39185 14.5351,-11.91166 0.275,-0.35931 1.625,-1.24368 3,-1.96528 2.7049,-1.41951 6.4204,-4.30425 17.0495,-13.23741 3.763,-3.1625 7.1356,-5.75 7.4949,-5.75 0.3592,0 1.9219,-1.2375 3.4725,-2.75 5.2569,-5.12753 6.6486,-6.25 7.7496,-6.25 0.6043,0 1.3844,-0.9 1.7335,-2 0.3491,-1.1 1.2795,-2 2.0674,-2 0.7879,0 2.287,-0.7875 3.3312,-1.75 4.7387,-4.36763 6.807,-6.04916 9.6014,-7.80565 2.8092,-1.7658 9.4875,-6.694 12.1208,-8.94435 0.6435,-0.55 2.6202,-2.125 4.3926,-3.5 7.6883,-5.96452 8.9866,-7.28708 8.9866,-9.15464 0,-1.08726 0.4839,-2.88095 1.0752,-3.98597 3.2085,-5.99506 0.2955,-27.65814 -4.083,-30.36419 -0.5624,-0.34758 -1.6336,-2.06369 -2.3805,-3.81358 -0.7469,-1.74989 -2.3151,-4.26297 -3.4849,-5.58463 -1.1697,-1.32166 -2.1268,-3.00916 -2.1268,-3.75 0,-0.74084 -0.5625,-1.40072 -1.25,-1.4664 -3.1487,-0.30078 -14.6539,0.36149 -30.25,1.74126 -9.35,0.82719 -25.325,2.12627 -35.5,2.88685 -18.441,1.37845 -24.2593,2.09875 -40.7821,5.04878 -4.7948,0.85609 -10.9679,1.95614 -13.7179,2.44456 -10.4129,1.84941 -40.2019,8.38928 -48,10.53791 -6.1072,1.68275 -7.6576,2.05443 -20.00002,4.79456 -3.85,0.85474 -19.6,4.76413 -35,8.68753 -32.58671,8.30201 -73.0273,18.44266 -79.5,19.93498 -17.23145,3.97279 -37.04437,3.56686 -39.68986,-0.81318 -0.87827,-1.45411 -2.48883,-3.93952 -3.57903,-5.52314 -1.2595,-1.82955 -2.17115,-5.23352 -2.5005,-9.33659 -0.60823,-7.57718 -0.7229,-7.65094 -9.76922,-6.28378 -3.82876,0.57863 -13.03639,1.71435 -20.46139,2.5238 -7.425,0.80945 -15.75,1.91104 -18.5,2.44797 -2.75,0.53693 -14.45,1.92645 -26,3.08781 -11.55,1.16137 -23.35576,2.72161 -26.23503,3.46721 -2.87926,0.7456 -10.75426,1.85208 -17.5,2.45885 -6.74573,0.60677 -14.36993,1.5664 -16.94266,2.13251 -3.37415,0.74245 -5.27301,0.71068 -6.81393,-0.11399 -1.63684,-0.87601 -2.49293,-0.84724 -3.66209,0.12308 -1.4871,1.23418 -11.34315,2.04246 -11.34946,0.93075 -0.002,-0.30708 -1.80175,-0.58025 -4,-0.60704 -2.19826,-0.0268 -3.99683,0.36078 -3.99683,0.86129 0,1.45652 -7.30044,-0.29452 -9.5,-2.27861 -1.1,-0.99225 -3.03154,-2.11718 -4.29232,-2.49984 -19.26035,-5.84582 -20.71913,-47.55871 -2.25485,-64.4759 0.9354,-0.85702 3.67784,-4.25822 6.09432,-7.55822 2.41649,-3.3 5.64444,-7.47816 7.17323,-9.2848 2.64221,-3.1224 3.74267,-7.2152 1.94001,-7.2152 -1.22161,0 -8.01145,6.08639 -19.80148,17.75 -5.69861,5.6375 -10.81061,10.25 -11.36001,10.25 -0.54939,0 -0.9989,0.39199 -0.9989,0.8711 0,0.4791 -1.57193,1.9416 -3.49317,3.25 -1.92124,1.30839 -3.49624,3.1664 -3.5,4.1289 -0.004,0.9625 -0.56399,1.75 -1.24496,1.75 -1.59162,0 -27.76187,26.97713 -27.76187,28.61782 0,0.68036 -1.05179,2.06436 -2.33732,3.07555 -1.28552,1.0112 -3.42302,3.45703 -4.75,5.4352 -4.66136,6.94885 -10.4304,13.77257 -12.16268,14.38625 -0.9625,0.34098 -1.75,1.05862 -1.75,1.59477 0,0.53615 -0.45537,1.51833 -1.01194,2.18262 -3.9154,4.67321 -6.98806,9.17501 -6.98806,10.23831 0,0.69052 -0.675,1.51452 -1.5,1.83111 -0.825,0.31658 -1.51473,1.15222 -1.53273,1.85699 -0.018,0.70476 -2.043,3.30038 -4.5,5.76804 -2.457,2.46766 -4.46727,4.83016 -4.46727,5.25 0,0.41984 -0.56578,0.76334 -1.25728,0.76334 -1.26585,0 -6.74272,8.20369 -6.74272,10.09978 0,0.56004 -0.35899,0.79639 -0.79775,0.52522 -1.1043,-0.6825 -2.44468,0.39764 -4.4984,3.625 -0.96248,1.5125 -2.4146,2.75 -3.2269,2.75 -0.8123,0 -1.4769,0.64436 -1.4769,1.43191 0,0.78754 -1.35,2.39319 -3,3.56809 -1.65,1.1749 -3,2.78055 -3,3.56809 0,0.78755 -0.6233,1.43191 -1.385,1.43191 -0.7618,0 -2.0821,1.0125 -2.934,2.25 -0.8519,1.2375 -3.6037,4.44064 -6.115,7.11809 -2.5113,2.67745 -4.566,5.26495 -4.566,5.75 0,0.48505 -0.675,0.88191 -1.5,0.88191 -0.825,0 -1.5,0.44069 -1.5,0.97932 0,0.53863 -3.2625,4.39868 -7.25,8.57789 -3.9875,4.17921 -7.0455,7.67602 -6.7955,7.77068 0.675,0.25558 -4.9118,5.67211 -5.8504,5.67211 -0.4428,0 -1.8848,1.44854 -3.2046,3.21897 -1.3197,1.77043 -3.412,4.18453 -4.6495,5.36467 -1.2375,1.18014 -2.25,2.57816 -2.25,3.10672 0,0.52856 -1.1678,2.05195 -2.5951,3.38533 -5.355,5.00282 -7.6816,22.86521 -4.5487,34.92431 3.5073,13.50041 5.3994,19.54483 6.2087,19.83333 0.5143,0.18334 0.9351,1.2094 0.9351,2.28014 0,6.96902 9.8427,22.73563 15.5472,24.9045 1.3571,0.51595 2.3516,1.48376 2.2101,2.15067 -0.1415,0.66692 0.6427,1.375 1.7427,1.57352 2.0014,0.3612 4.3429,1.25132 8.9646,3.40792 2.2031,1.02801 13.3247,0.74652 23.5941,-0.59718 3.0904,-0.40437 11.95175,-3.23438 17.44125,-5.57015 10.19931,-4.3398 11.5,-5.01464 11.5,-5.96657 0,-0.5589 1.0875,-1.01618 2.41667,-1.01618 1.32916,0 2.56666,-0.3375 2.75,-0.75 0.43917,-0.98814 7.2023,-5.43084 12.77346,-8.39089 2.44206,-1.29751 5.58747,-3.37161 6.98978,-4.60911 1.40231,-1.2375 2.96882,-2.25 3.48113,-2.25 0.51231,0 1.64191,-0.60814 2.51022,-1.35143 0.86831,-0.74329 3.60374,-2.43079 6.07874,-3.75 2.475,-1.31921 4.725,-2.62357 5,-2.89857 1.339,-1.339 8.07356,-4.86042 25,-13.07221 10.175,-4.93636 19.2875,-9.41453 20.25,-9.95149 7.67134,-4.27973 14.66839,-7.39124 15.26947,-6.79017 0.34436,0.34437 -0.29659,5.05586 -1.42434,10.47 -8.90362,42.74483 -6.93687,56.34704 9.68464,66.97969 12.14349,7.76809 18.5622,8.51693 36.72023,4.28398 z M 498.16143,493.86526 c 0.3411,-1.07469 1.4897,-2.41934 2.5525,-2.98811 1.0627,-0.56876 1.9323,-1.63468 1.9323,-2.36869 0,-1.26426 4.5089,-6.97971 10,-12.6757 1.375,-1.42633 3.287,-4.25602 4.249,-6.2882 0.9619,-2.03219 2.7619,-4.06959 4,-4.52757 1.238,-0.45798 2.1257,-1.12767 1.9727,-1.48819 -0.4916,-1.15797 7.2075,-11.31259 9.2724,-12.22971 1.0968,-0.48713 2.1631,-1.78147 2.3697,-2.8763 0.2065,-1.09484 1.9299,-3.56984 3.8297,-5.5 1.8998,-1.93017 4.0793,-4.69236 4.8434,-6.13821 0.764,-1.44585 2.0807,-2.89423 2.9261,-3.21861 0.8453,-0.32439 1.537,-1.18753 1.537,-1.9181 0,-0.73056 1.33089,-2.43218 2.9576,-3.78138 1.62671,-1.3492 2.97671,-3.35734 3,-4.46254 0.0233,-1.1052 0.94235,-2.57152 2.04235,-3.25848 1.1,-0.68696 2,-1.91639 2,-2.73207 0,-0.81568 0.9,-2.04511 2,-2.73207 1.1,-0.68696 2,-1.79026 2,-2.45177 0,-0.66151 1.00013,-1.90327 2.22251,-2.75946 1.22237,-0.85618 1.81893,-1.5567 1.32568,-1.5567 -0.49325,0 0.0943,-1.05504 1.30577,-2.34454 1.34497,-1.43166 1.95523,-2.98913 1.56732,-4 -0.44139,-1.15025 -0.10354,-1.65546 1.10706,-1.65546 0.95828,0 2.78493,-1.125 4.05924,-2.5 1.27431,-1.375 2.74827,-2.5 3.27546,-2.5 0.5272,0 1.8863,-1.9125 3.02023,-4.25 1.13392,-2.3375 2.97406,-4.81631 4.0892,-5.50847 1.11514,-0.69216 2.02753,-1.67005 2.02753,-2.17308 0,-1.19475 5.88074,-7.06845 7.07692,-7.06845 0.5077,0 0.92308,-0.38429 0.92308,-0.85398 0,-0.46968 1.2271,-2.15718 2.72689,-3.75 2.63124,-2.79443 2.87518,-3.21255 3.14811,-5.39602 0.0688,-0.55 0.81114,-1 1.64975,-1 0.83861,0 1.9331,-1.07403 2.43218,-2.38673 1.02103,-2.68549 5.08228,-7.02871 8.06517,-8.6251 1.08784,-0.58219 1.9779,-1.55734 1.9779,-2.16699 0,-0.60965 2.8125,-3.91187 6.25,-7.33827 3.4375,-3.42639 8.725,-9.02966 11.75,-12.45171 3.025,-3.42204 6.49205,-7.30399 7.70455,-8.62655 1.2125,-1.32256 1.98908,-2.40465 1.72574,-2.40465 -0.26333,0 0.84808,-1.4625 2.46981,-3.25 5.84929,-6.4472 7.31394,-8.29459 8.721,-11 0.78664,-1.5125 1.8687,-2.75 2.40458,-2.75 0.53588,0 0.97432,-0.675 0.97432,-1.5 0,-0.825 0.45,-1.5 1,-1.5 0.55,0 1,-0.56675 1,-1.25945 0,-0.6927 0.93766,-1.84503 2.08368,-2.56074 1.173,-0.73255 1.84401,-1.92586 1.5353,-2.73035 -0.35256,-0.91876 0.298,-1.6415 1.82183,-2.02396 1.30362,-0.32719 2.58858,-1.42989 2.85546,-2.45044 0.42333,-1.6188 0.22394,-1.70369 -1.56266,-0.66531 -3.0257,1.75855 -8.73361,7.36312 -8.73361,8.57549 0,0.5786 -0.63678,0.80764 -1.41506,0.50898 -0.83616,-0.32086 -2.34495,0.71474 -3.68806,2.53139 -1.25015,1.69091 -2.86337,3.07439 -3.58494,3.07439 -0.72157,0 -1.31194,0.41968 -1.31194,0.93261 0,0.51294 -0.7875,1.19738 -1.75,1.52098 -0.9625,0.3236 -2.875,2.14154 -4.25,4.03986 -1.375,1.89832 -3.08375,3.46388 -3.79723,3.47902 -0.71347,0.0151 -3.41347,2.04763 -6,4.51663 -2.58652,2.46901 -5.41552,5.16901 -6.28666,6 -0.87114,0.831 -2.02763,1.5109 -2.56998,1.5109 -1.02002,0 -8.02801,7.23687 -12.10465,12.5 -1.27803,1.65 -2.7529,3 -3.27748,3 -0.52457,0 -2.71706,1.87199 -4.87219,4.15998 -2.15512,2.28799 -4.71292,4.31299 -5.684,4.5 -0.97107,0.18701 -1.63385,0.56502 -1.47284,0.84002 0.33626,0.57432 -6.28955,8 -7.13826,8 -0.3087,0 -3.96929,3.375 -8.13463,7.5 -4.16535,4.125 -8.05297,7.5 -8.63916,7.5 -0.58619,0 -1.57838,1.125 -2.20487,2.5 -0.6265,1.375 -1.56848,2.5 -2.09331,2.5 -0.52482,0 -5.2715,4.3875 -10.54817,9.75 -5.27667,5.3625 -10.06252,9.64531 -10.63522,9.51735 -0.5728,-0.12795 -1.8343,1.15558 -2.8035,2.85231 -1.0581,1.85223 -2.3127,2.87372 -3.1398,2.55634 -0.9202,-0.35311 -1.5786,0.47696 -1.9833,2.50024 -0.3332,1.66587 -1.7328,3.91537 -3.1103,4.99889 -1.3774,1.08352 -2.5044,2.63893 -2.5044,3.45647 0,0.81754 -0.4275,1.22227 -0.9499,0.89941 -0.5224,-0.32287 -1.4908,0.43808 -2.1521,1.69098 -1.4879,2.81918 -5.6572,6.81981 -6.1826,5.93253 -0.2132,-0.35999 -0.2617,-0.12102 -0.1077,0.53105 0.154,0.65206 -1.2664,2.87392 -3.1566,4.93747 -1.8901,2.06356 -5.4221,6.70505 -7.8489,10.31444 -2.4267,3.60939 -5.58,7.57204 -7.0072,8.80591 -1.4273,1.23386 -2.595,2.62032 -2.595,3.08102 0,0.4607 -1.125,1.43971 -2.5,2.17559 -1.375,0.73588 -2.5,1.92109 -2.5,2.6338 0,0.71271 -0.9,1.7775 -2,2.3662 -1.1,0.5887 -2,1.65349 -2,2.3662 0,0.71271 -1.05,1.85778 -2.3334,2.5446 -1.2833,0.68682 -2.4467,2.00036 -2.5852,2.91898 -0.5755,3.81514 0.131,18.96097 1.0574,22.67022 0.5495,2.2 1.2601,5.125 1.5791,6.5 1.0308,4.44238 7.2915,3.69646 8.7973,-1.04814 z M 585.64618,360.9134 c 0,-0.55 0.47656,-1 1.05902,-1 0.58246,0 0.7809,0.45 0.44098,1 -0.33992,0.55 -0.81648,1 -1.05902,1 -0.24254,0 -0.44098,-0.45 -0.44098,-1 z m 1440.00002,124.5 c 0,-0.275 -0.225,-0.5 -0.5,-0.5 -0.275,0 -0.5,0.225 -0.5,0.5 0,0.275 0.225,0.5 0.5,0.5 0.275,0 0.5,-0.225 0.5,-0.5 z m -1,-2 c 0,-0.275 -0.225,-0.5 -0.5,-0.5 -0.275,0 -0.5,0.225 -0.5,0.5 0,0.275 0.225,0.5 0.5,0.5 0.275,0 0.5,-0.225 0.5,-0.5 z m -1,-2 c 0,-0.275 -0.225,-0.5 -0.5,-0.5 -0.275,0 -0.5,0.225 -0.5,0.5 0,0.275 0.225,0.5 0.5,0.5 0.275,0 0.5,-0.225 0.5,-0.5 z m -1357.00002,-58 c 0,-0.275 -0.225,-0.5 -0.5,-0.5 -0.275,0 -0.5,0.225 -0.5,0.5 0,0.275 0.225,0.5 0.5,0.5 0.275,0 0.5,-0.225 0.5,-0.5 z m 573.31572,-2.66044 c 1.2014,-0.63824 4.6593,-3.26461 7.6843,-5.83638 3.025,-2.57176 7.075,-5.74039 9,-7.04138 1.925,-1.30099 3.725,-2.62252 4,-2.93672 0.275,-0.3142 1.85,-1.42675 3.5,-2.47232 26.3706,-16.71053 36.933,-37.58773 27.9775,-55.29911 -4.0285,-7.96721 -6.4334,-9.47512 -12.2811,-7.70052 -2.583,0.78387 -4.9763,1.43009 -5.3184,1.43605 -0.8394,0.0146 -17.878,17.20926 -17.878,18.04173 0,0.36191 -1.1245,1.9655 -2.4988,3.56355 -1.3743,1.59805 -2.4993,3.43054 -2.5,4.07221 -7e-4,0.64166 -0.3992,1.31666 -0.8856,1.5 -2.5087,0.94554 -11.5489,20.13917 -15.9354,33.83333 -3.8366,11.97718 -1.0676,22.13513 5.1355,18.83956 z m -25.7011,-29.81705 c 0.8561,-4.53901 2.8,-11.01345 4.3198,-14.38763 1.5197,-3.37418 3.3595,-7.65447 4.0883,-9.51175 1.4752,-3.75954 9.0207,-15.39226 12.2393,-18.86919 2.7521,-2.97292 1.3822,-4.20774 -1.5804,-1.42455 -1.2708,1.19384 -2.641,2.17061 -3.0449,2.17061 -8.538,0 -13.9518,10.14789 -16.6466,31.20295 -2.7977,21.85855 -2.4836,27.29891 0.6245,10.81956 z m 755.3854,-7.52251 c 0,-0.275 -0.225,-0.5 -0.5,-0.5 -0.275,0 -0.5,0.225 -0.5,0.5 0,0.275 0.225,0.5 0.5,0.5 0.275,0 0.5,-0.225 0.5,-0.5 z m -1446.63837,-9 c 0.3166,-0.825 0.1397,-1.5 -0.393,-1.5 -0.5328,0 -0.9686,0.675 -0.9686,1.5 0,0.825 0.1768,1.5 0.393,1.5 0.2161,0 0.652,-0.675 0.9686,-1.5 z m 6.7021,-1.25 c 6.2901,-5.89118 17.2028,-17.09218 33.76613,-34.65803 2.38144,-2.52558 4.74394,-4.59197 5.25,-4.59197 0.50607,0 0.92012,-0.4696 0.92012,-1.04356 0,-0.57396 1.6875,-2.87125 3.75,-5.10508 3.54855,-3.84333 7.41156,-8.19021 10.75432,-12.10136 0.82262,-0.9625 1.49568,-2.1625 1.49568,-2.66667 0,-0.50416 0.49934,-1.08311 1.10965,-1.28655 0.73351,-0.2445 0.63489,-0.7639 -0.29093,-1.53227 -1.1109,-0.92196 -2.21945,-0.44359 -5.35965,2.31283 -2.17749,1.91137 -4.53146,3.94036 -5.23104,4.50888 -0.69958,0.56852 -1.01052,1.4567 -0.69098,1.97373 0.31954,0.51703 -0.31525,0.94005 -1.41065,0.94005 -1.09539,0 -2.25441,0.82795 -2.57558,1.83989 -0.32118,1.01194 -1.73635,2.45663 -3.14482,3.21042 -1.40847,0.75379 -2.99859,2.18844 -3.5336,3.18812 -0.53501,0.99967 -1.33235,1.59534 -1.77186,1.32371 -0.43951,-0.27164 -1.39297,0.61576 -2.11881,1.97199 -0.72583,1.35623 -1.96078,2.46587 -2.74433,2.46587 -0.78355,0 -1.6561,0.8851 -1.93899,1.96688 -0.28289,1.08179 -1.35403,2.23338 -2.3803,2.55911 -1.02626,0.32572 -2.72994,1.69063 -3.78594,3.03312 -1.05601,1.34249 -2.32072,2.44089 -2.81052,2.44089 -0.4897,0 -1.6879,1.35 -2.6626,3 -0.9747,1.65 -2.0842,3.00055 -2.4656,3.00122 -1.7566,0.003 -6.0273,4.86368 -7.2441,8.24468 -0.7415,2.06025 -2.191,4.0134 -3.2211,4.34034 -1.118,0.35484 -1.649,1.1779 -1.3174,2.04196 0.3177,0.82792 -0.1864,1.72838 -1.1777,2.1037 -3.7737,1.42876 -5.0165,4.06316 -3.6262,7.68631 0.805,2.09767 1.0338,2.03768 4.4568,-1.16821 z m -109.0637,-29.75 c 0,-0.275 -0.225,-0.5 -0.5,-0.5 -0.275,0 -0.5,0.225 -0.5,0.5 0,0.275 0.225,0.5 0.5,0.5 0.275,0 0.5,-0.225 0.5,-0.5 z m 19.4525,-22.29985 c 7.1761,-7.31491 13.2725,-13.60472 13.5475,-13.97734 0.275,-0.37262 -5.0702,4.49346 -11.8783,10.81351 -6.808,6.32006 -14.39,14.40986 -16.8489,17.97734 -2.8758,4.17231 -3.2929,5.05932 -1.1692,2.48634 1.8158,-2.2 9.1728,-9.98493 16.3489,-17.29985 z m 148.96566,-11.80714 c 0.86999,-0.33384 1.58179,-1.40636 1.58179,-2.38337 0,-0.97701 0.9,-2.01173 2,-2.29939 1.24099,-0.32453 2,-1.36401 2,-2.73908 0,-1.84916 -0.24652,-2.01147 -1.48899,-0.98031 -0.81894,0.67967 -1.24239,1.63477 -0.94098,2.12245 0.3014,0.48768 -0.15355,0.88669 -1.01101,0.88669 -0.85746,0 -1.55902,0.45 -1.55902,1 0,0.55 -0.9,1 -2,1 -1.92719,0 -2.7099,1.95677 -1.33333,3.33333 0.81166,0.81167 0.79296,0.81126 2.75154,0.0597 z m 10.58179,-11.33399 c 0,-2.66924 -1.65816,-3.47422 -2.27755,-1.10568 -0.51947,1.98648 -0.0169,3.04666 1.44422,3.04666 0.45833,0 0.83333,-0.87344 0.83333,-1.94098 z m 2,-2.55902 c 0,-0.275 -0.225,-0.5 -0.5,-0.5 -0.275,0 -0.5,0.225 -0.5,0.5 0,0.275 0.225,0.5 0.5,0.5 0.275,0 0.5,-0.225 0.5,-0.5 z m 2.39699,-3.33333 c 0.28327,-0.45834 -0.14017,-0.83334 -0.94098,-0.83334 -0.8008,0 -1.45601,0.375 -1.45601,0.83334 0,0.45833 0.42344,0.83333 0.94098,0.83333 0.51754,0 1.17275,-0.375 1.45601,-0.83333 z m 66.31326,-7.16667 c 0.28766,-1.1 1.14553,-2 1.90638,-2 0.76085,0 1.38337,-0.43588 1.38337,-0.96862 0,-2.22793 -5.8708,1.92184 -5.9682,4.21862 -0.0707,1.66703 2.19174,0.61119 2.67845,-1.25 z m 3.95642,-6.66667 c -0.36667,-0.36666 -0.66667,-0.0667 -0.66667,0.66667 0,0.73333 0.3,1.03333 0.66667,0.66667 0.36666,-0.36667 0.36666,-0.96667 0,-1.33334 z m 4,-3 c -0.36667,-0.36666 -0.66667,-0.0667 -0.66667,0.66667 0,0.73333 0.3,1.03333 0.66667,0.66667 0.36666,-0.36667 0.36666,-0.96667 0,-1.33334 z m 1196.33335,-1.65902 c 0,-0.17912 -1.2375,-1.41662 -2.75,-2.75 l -2.75,-2.42431 2.4243,2.75 c 2.2659,2.57029 3.0757,3.20859 3.0757,2.42431 z M 685.23814,269.4134 c 0.90093,-1.375 2.26131,-2.5 3.02305,-2.5 0.76174,0 1.38499,-0.40787 1.38499,-0.90638 0,-1.65412 -3.9231,0.0887 -4.53427,2.01435 -0.33028,1.04062 -1.24518,1.89203 -2.03312,1.89203 -0.78793,0 -1.43261,0.45 -1.43261,1 0,1.83667 1.9352,1.02854 3.59196,-1.5 z m -128.59196,-43 c 0,-0.275 -0.225,-0.5 -0.5,-0.5 -0.275,0 -0.5,0.225 -0.5,0.5 0,0.275 0.225,0.5 0.5,0.5 0.275,0 0.5,-0.225 0.5,-0.5 z m 11.12756,-8.25 c 1.24387,-1.58606 1.2085,-1.62143 -0.37756,-0.37756 -0.9625,0.75485 -1.75,1.54235 -1.75,1.75 0,0.82304 0.82119,0.29331 2.12756,-1.37244 z m 8.87244,-5.75 c 0,-0.275 -0.225,-0.5 -0.5,-0.5 -0.275,0 -0.5,0.225 -0.5,0.5 0,0.275 0.225,0.5 0.5,0.5 0.275,0 0.5,-0.225 0.5,-0.5 z m 1175.00002,-33 c 0,-0.275 -0.225,-0.5 -0.5,-0.5 -0.275,0 -0.5,0.225 -0.5,0.5 0,0.275 0.225,0.5 0.5,0.5 0.275,0 0.5,-0.225 0.5,-0.5 z m -3,-2 c 0,-0.275 -0.225,-0.5 -0.5,-0.5 -0.275,0 -0.5,0.225 -0.5,0.5 0,0.275 0.225,0.5 0.5,0.5 0.275,0 0.5,-0.225 0.5,-0.5 z m -18,-11 c 0,-0.275 -0.225,-0.5 -0.5,-0.5 -0.275,0 -0.5,0.225 -0.5,0.5 0,0.275 0.225,0.5 0.5,0.5 0.275,0 0.5,-0.225 0.5,-0.5 z m -7,-3 c 0,-0.275 -0.225,-0.5 -0.5,-0.5 -0.275,0 -0.5,0.225 -0.5,0.5 0,0.275 0.225,0.5 0.5,0.5 0.275,0 0.5,-0.225 0.5,-0.5 z m -5,-2 c 0,-0.275 -0.225,-0.5 -0.5,-0.5 -0.275,0 -0.5,0.225 -0.5,0.5 0,0.275 0.225,0.5 0.5,0.5 0.275,0 0.5,-0.225 0.5,-0.5 z m -7,-3 c 0,-0.275 -0.225,-0.5 -0.5,-0.5 -0.275,0 -0.5,0.225 -0.5,0.5 0,0.275 0.225,0.5 0.5,0.5 0.275,0 0.5,-0.225 0.5,-0.5 z m -1257.99997,1531 c 0,-0.275 0.225,-0.5 0.5,-0.5 0.275,0 0.5,0.225 0.5,0.5 0,0.275 -0.225,0.5 -0.5,0.5 -0.275,0 -0.5,-0.225 -0.5,-0.5 z m -20,-12 c 0,-0.275 0.225,-0.5 0.5,-0.5 0.275,0 0.5,0.225 0.5,0.5 0,0.275 -0.225,0.5 -0.5,0.5 -0.275,0 -0.5,-0.225 -0.5,-0.5 z m -8,-5 c 0,-0.275 0.225,-0.5 0.5,-0.5 0.275,0 0.5,0.225 0.5,0.5 0,0.275 -0.225,0.5 -0.5,0.5 -0.275,0 -0.5,-0.225 -0.5,-0.5 z m -8,-5 c 0,-0.275 0.225,-0.5 0.5,-0.5 0.275,0 0.5,0.225 0.5,0.5 0,0.275 -0.225,0.5 -0.5,0.5 -0.275,0 -0.5,-0.225 -0.5,-0.5 z m -122.1276,-99.25 c -1.2439,-1.5861 -1.2085,-1.6214 0.3776,-0.3776 0.9625,0.7549 1.75,1.5424 1.75,1.75 0,0.8231 -0.8212,0.2933 -2.1276,-1.3724 z m -11.8724,-7.75 c 0,-0.275 0.225,-0.5 0.5,-0.5 0.275,0 0.5,0.225 0.5,0.5 0,0.275 -0.225,0.5 -0.5,0.5 -0.275,0 -0.5,-0.225 -0.5,-0.5 z m -2,-1 c 0,-0.275 0.225,-0.5 0.5,-0.5 0.275,0 0.5,0.225 0.5,0.5 0,0.275 -0.225,0.5 -0.5,0.5 -0.275,0 -0.5,-0.225 -0.5,-0.5 z m -179,-96.5 c 0,-0.7333 0.3,-1.0333 0.6666,-0.6667 0.3667,0.3667 0.3667,0.9667 0,1.3334 -0.3666,0.3666 -0.6666,0.067 -0.6666,-0.6667 z m 9,-38 c 0,-0.7333 0.3,-1.0333 0.6666,-0.6667 0.3667,0.3667 0.3667,0.9667 0,1.3334 -0.3666,0.3666 -0.6666,0.067 -0.6666,-0.6667 z m 1,-4 c 0,-0.7333 0.3,-1.0333 0.6666,-0.6667 0.3667,0.3667 0.3667,0.9667 0,1.3334 -0.3666,0.3666 -0.6666,0.067 -0.6666,-0.6667 z m 3,-8.5 c 0,-0.275 0.225,-0.5 0.5,-0.5 0.275,0 0.5,0.225 0.5,0.5 0,0.275 -0.225,0.5 -0.5,0.5 -0.275,0 -0.5,-0.225 -0.5,-0.5 z m 13,-48.5 c 0,-0.7333 0.3,-1.0333 0.6666,-0.6667 0.3667,0.3667 0.3667,0.9667 0,1.3334 -0.3666,0.3666 -0.6666,0.067 -0.6666,-0.6667 z m 68.345,-287.5431 c -0.3257,-0.8487 -0.3687,-1.7666 -0.096,-2.0397 0.2731,-0.2731 0.7366,0.4213 1.03,1.5431 0.6231,2.383 -0.069,2.7509 -0.9343,0.4966 z m 2.655,-15.4569 c 0,-0.7333 0.3,-1.0333 0.6666,-0.6667 0.3667,0.3667 0.3667,0.9667 0,1.3334 -0.3666,0.3666 -0.6666,0.067 -0.6666,-0.6667 z m 1,-5 c 0,-0.7333 0.3,-1.0333 0.6666,-0.6667 0.3667,0.3667 0.3667,0.9667 0,1.3334 -0.3666,0.3666 -0.6666,0.067 -0.6666,-0.6667 z m 1,-6 c 0,-0.7333 0.3,-1.0333 0.6666,-0.6667 0.3667,0.3667 0.3667,0.9667 0,1.3334 -0.3666,0.3666 -0.6666,0.067 -0.6666,-0.6667 z m 0.7312,-6.0802 c 0.3536,-1.3522 0.8069,-1.8055 1.0565,-1.0565 0.2405,0.7214 -0.038,1.7871 -0.6193,2.3683 -0.7421,0.742 -0.8722,0.3516 -0.4372,-1.3118 z m 1.0933,-8.594 c 0.4267,-2.0929 0.6781,-2.3444 0.9696,-0.9696 0.2164,1.0209 -0.043,2.2926 -0.5762,2.8258 -0.6261,0.6262 -0.7655,-0.031 -0.3934,-1.8562 z m 0.7397,-7.6189 c 0.3756,-0.9862 0.9347,-1.5412 1.2426,-1.2334 0.3079,0.3079 7e-4,1.1148 -0.6828,1.7932 -0.9876,0.9802 -1.1024,0.8654 -0.5598,-0.5598 z m 1.4358,-5.7069 c 0,-0.7333 0.3,-1.0333 0.6666,-0.6667 0.3667,0.3667 0.3667,0.9667 0,1.3334 -0.3666,0.3666 -0.6666,0.067 -0.6666,-0.6667 z m 1,-6 c 0,-0.7333 0.3,-1.0333 0.6666,-0.6667 0.3667,0.3667 0.3667,0.9667 0,1.3334 -0.3666,0.3666 -0.6666,0.067 -0.6666,-0.6667 z m 1,-5 c 0,-0.7333 0.3,-1.0333 0.6666,-0.6667 0.3667,0.3667 0.3667,0.9667 0,1.3334 -0.3666,0.3666 -0.6666,0.067 -0.6666,-0.6667 z m 1,-3 c 0,-0.7333 0.3,-1.0333 0.6666,-0.6667 0.3667,0.3667 0.3667,0.9667 0,1.3334 -0.3666,0.3666 -0.6666,0.067 -0.6666,-0.6667 z m 2,-8 c 0,-0.7333 0.3,-1.0333 0.6666,-0.6667 0.3667,0.3667 0.3667,0.9667 0,1.3334 -0.3666,0.3666 -0.6666,0.067 -0.6666,-0.6667 z m 1,-5 c 0,-0.7333 0.3,-1.0333 0.6666,-0.6667 0.3667,0.3667 0.3667,0.9667 0,1.3334 -0.3666,0.3666 -0.6666,0.0666 -0.6666,-0.6667 z m 1,-4 c 0,-0.7333 0.3,-1.0333 0.6666,-0.6667 0.3667,0.3667 0.3667,0.9667 0,1.3334 -0.3666,0.3666 -0.6666,0.0666 -0.6666,-0.6667 z m 4,-19.5 c 0,-0.275 0.225,-0.5 0.5,-0.5 0.275,0 0.5,0.225 0.5,0.5 0,0.275 -0.225,0.5 -0.5,0.5 -0.275,0 -0.5,-0.225 -0.5,-0.5 z m 3,-15.5 c 0,-0.7333 0.3,-1.0333 0.6666,-0.6667 0.3667,0.3667 0.3667,0.9667 0,1.3334 -0.3666,0.3666 -0.6666,0.0666 -0.6666,-0.6667 z m 1.345,-6.54313 c -0.3257,-0.84872 -0.3687,-1.76657 -0.096,-2.03966 0.2731,-0.2731 0.7366,0.42131 1.03,1.54313 0.6231,2.38293 -0.069,2.75089 -0.9343,0.49653 z m 1.0536,-9.8605 c -0.323,-0.84171 -0.3554,-2.10774 -0.072,-2.81338 0.2834,-0.70564 0.5957,-0.15799 0.694,1.21701 l 0.1786,2.5 0.8007,-2.5 c 0.7453,-2.32726 0.8075,-2.34861 0.9003,-0.30902 0.121,2.65954 -1.6846,4.03475 -2.5017,1.90539 z m 0.9708,-18.07612 c -0.3391,-0.88358 -0.3359,-1.8871 0.01,-2.23004 0.3429,-0.34295 0.6551,0.23896 0.6938,1.29312 0.067,1.83152 0.1084,1.82781 0.9297,-0.0833 0.7006,-1.63041 0.8724,-1.68751 0.9297,-0.30902 0.096,2.32013 -1.8019,3.30571 -2.5603,1.32927 z m 4.3618,-13.60041 c 0.3536,-1.3522 0.8069,-1.8055 1.0565,-1.05655 0.2405,0.72144 -0.038,1.78716 -0.6193,2.36826 -0.7421,0.74207 -0.8722,0.35164 -0.4372,-1.31171 z m 1.2688,-4.41984 c 0,-0.275 0.225,-0.5 0.5,-0.5 0.275,0 0.5,0.225 0.5,0.5 0,0.275 -0.225,0.5 -0.5,0.5 -0.275,0 -0.5,-0.225 -0.5,-0.5 z m 1,-3 c 0,-0.275 0.225,-0.5 0.5,-0.5 0.275,0 0.5,0.225 0.5,0.5 0,0.275 -0.225,0.5 -0.5,0.5 -0.275,0 -0.5,-0.225 -0.5,-0.5 z m 1,-3 c 0,-0.275 0.225,-0.5 0.5,-0.5 0.275,0 0.5,0.225 0.5,0.5 0,0.275 -0.225,0.5 -0.5,0.5 -0.275,0 -0.5,-0.225 -0.5,-0.5 z m 0.4045,-3.65451 c -0.4421,-0.7153 -0.2744,-0.88306 0.4409,-0.44098 1.1528,0.71244 1.5477,1.59549 0.7136,1.59549 -0.2426,0 -0.7621,-0.51953 -1.1545,-1.15451 z m 2.5955,-13.34549 c 0,-0.275 0.225,-0.5 0.5,-0.5 0.275,0 0.5,0.225 0.5,0.5 0,0.275 -0.225,0.5 -0.5,0.5 -0.275,0 -0.5,-0.225 -0.5,-0.5 z m 6.3694,-29.97975 c -0.3391,-0.88358 -0.3359,-1.8871 0.01,-2.23004 0.3429,-0.34295 0.6551,0.23896 0.6938,1.29312 0.067,1.83152 0.1084,1.82781 0.9297,-0.0833 0.7006,-1.63041 0.8724,-1.68751 0.9297,-0.30902 0.096,2.32013 -1.8019,3.30571 -2.5603,1.32927 z m 1.0995,-5.57047 c -0.3681,-0.59556 -0.3992,-1.3529 -0.069,-1.68298 0.3301,-0.33007 0.607,0.0374 0.6155,0.81653 0.013,1.16647 0.1865,1.15175 0.9847,-0.0833 0.5824,-0.90129 0.9754,-1.02463 0.9846,-0.30902 0.022,1.68378 -1.7157,2.55314 -2.5157,1.2588 z m 1.9005,-13.42953 c -0.3391,-0.88358 -0.3359,-1.8871 0.01,-2.23004 0.3429,-0.34295 0.6551,0.23896 0.6938,1.29312 0.067,1.83152 0.1084,1.82781 0.9297,-0.0833 0.7006,-1.63041 0.8724,-1.68751 0.9297,-0.30902 0.096,2.32013 -1.8019,3.30571 -2.5603,1.32927 z m 0.6306,-7.52025 c 0,-0.73333 0.3,-1.03333 0.6666,-0.66667 0.3667,0.36667 0.3667,0.96667 0,1.33334 -0.3666,0.36666 -0.6666,0.0667 -0.6666,-0.66667 z m 2,0 c 0,-0.73333 0.3,-1.03333 0.6666,-0.66667 0.3667,0.36667 0.3667,0.96667 0,1.33334 -0.3666,0.36666 -0.6666,0.0667 -0.6666,-0.66667 z m 0,-11 c 0,-0.73333 0.3,-1.03333 0.6666,-0.66667 0.3667,0.36667 0.3667,0.96667 0,1.33334 -0.3666,0.36666 -0.6666,0.0667 -0.6666,-0.66667 z m 2,-0.5 c 0,-0.275 0.225,-0.5 0.5,-0.5 0.275,0 0.5,0.225 0.5,0.5 0,0.275 -0.225,0.5 -0.5,0.5 -0.275,0 -0.5,-0.225 -0.5,-0.5 z m -0.6306,-3.97975 c -0.3391,-0.88358 -0.3359,-1.8871 0.01,-2.23004 0.3429,-0.34295 0.6551,0.23896 0.6938,1.29312 0.067,1.83152 0.1084,1.82781 0.9297,-0.0833 0.7006,-1.63041 0.8724,-1.68751 0.9297,-0.30902 0.096,2.32013 -1.8019,3.30571 -2.5603,1.32927 z m 1.0995,-5.57047 c -0.3681,-0.59556 -0.3992,-1.3529 -0.069,-1.68298 0.3301,-0.33007 0.607,0.0374 0.6155,0.81653 0.013,1.16647 0.1865,1.15175 0.9847,-0.0833 0.5824,-0.90129 0.9754,-1.02463 0.9846,-0.30902 0.022,1.68378 -1.7157,2.55314 -2.5157,1.2588 z m 0.5311,-8.94978 c 0,-0.73333 0.3,-1.03333 0.6666,-0.66667 0.3667,0.36667 0.3667,0.96667 0,1.33334 -0.3666,0.36666 -0.6666,0.0667 -0.6666,-0.66667 z m 2,0 c 0,-0.73333 0.3,-1.03333 0.6666,-0.66667 0.3667,0.36667 0.3667,0.96667 0,1.33334 -0.3666,0.36666 -0.6666,0.0667 -0.6666,-0.66667 z m -0.9211,-7.58333 c 0.048,-1.16495 0.2849,-1.4019 0.6042,-0.60417 0.2888,0.72187 0.2533,1.58438 -0.079,1.91667 -0.3323,0.33229 -0.5687,-0.25834 -0.5253,-1.3125 z m 2,0 c 0.048,-1.16495 0.2849,-1.4019 0.6042,-0.60417 0.2888,0.72187 0.2533,1.58438 -0.079,1.91667 -0.3323,0.33229 -0.5687,-0.25834 -0.5253,-1.3125 z m 0.9517,-19.91667 c 0,-0.55 0.4362,-1.675 0.9694,-2.5 0.5331,-0.825 0.9693,-1.05 0.9693,-0.5 0,0.55 -0.4362,1.675 -0.9693,2.5 -0.5332,0.825 -0.9694,1.05 -0.9694,0.5 z m -1.0306,-3 c 0,-0.275 0.225,-0.5 0.5,-0.5 0.275,0 0.5,0.225 0.5,0.5 0,0.275 -0.225,0.5 -0.5,0.5 -0.275,0 -0.5,-0.225 -0.5,-0.5 z m 1.4045,-3.65451 c -0.4421,-0.7153 -0.2744,-0.88306 0.4409,-0.44098 0.635,0.39244 1.1546,0.91197 1.1546,1.15451 0,0.83414 -0.8831,0.43922 -1.5955,-0.71353 z m 4.1985,-15.67882 c -0.2833,-0.45834 0.1203,-0.83334 0.897,-0.83334 0.7766,0 1.1802,0.375 0.8969,0.83334 -0.2832,0.45833 -0.6869,0.83333 -0.8969,0.83333 -0.2101,0 -0.6138,-0.375 -0.897,-0.83333 z m 2.8285,-22.05597 c 0.4074,-0.65907 0.259,-1.7786 -0.3296,-2.48784 -0.7919,-0.95419 -0.6842,-1.28953 0.4139,-1.28953 1.7494,0 1.9992,3.2303 0.3296,4.26216 -0.7303,0.45139 -0.8824,0.27329 -0.4139,-0.48479 z m 1.1715,-9.94403 c -0.2833,-0.45834 0.1203,-0.83334 0.897,-0.83334 0.7766,0 1.1802,0.375 0.8969,0.83334 -0.2832,0.45833 -0.6869,0.83333 -0.8969,0.83333 -0.2101,0 -0.6138,-0.375 -0.897,-0.83333 z m 3.397,-11.66667 c 0,-0.275 0.225,-0.5 0.5,-0.5 0.275,0 0.5,0.225 0.5,0.5 0,0.275 -0.225,0.5 -0.5,0.5 -0.275,0 -0.5,-0.225 -0.5,-0.5 z m 2.5,-7.5 c 0.3399,-0.55 0.843,-1 1.118,-1 0.275,0 0.2219,0.45 -0.118,1 -0.34,0.55 -0.8431,1 -1.1181,1 -0.275,0 -0.2219,-0.45 0.1181,-1 z m -0.031,-4.05022 c -0.3681,-0.59556 -0.3992,-1.3529 -0.069,-1.68298 0.33,-0.33007 0.607,0.0374 0.6154,0.81653 0.013,1.16647 0.1865,1.15175 0.9847,-0.0833 0.5825,-0.90129 0.9755,-1.02463 0.9847,-0.30902 0.022,1.68378 -1.7158,2.55314 -2.5157,1.2588 z m 2,-11 c -0.3681,-0.59556 -0.3992,-1.3529 -0.069,-1.68298 0.33,-0.33007 0.607,0.0374 0.6154,0.81653 0.013,1.16647 0.1865,1.15175 0.9847,-0.0833 0.5825,-0.90129 0.9755,-1.02463 0.9847,-0.30902 0.022,1.68378 -1.7158,2.55314 -2.5157,1.2588 z m 2.9296,-18.35341 c -0.323,-0.84171 -0.3553,-2.10774 -0.072,-2.81338 0.2835,-0.70564 0.5958,-0.15799 0.694,1.21701 l 0.1786,2.5 0.8007,-2.5 c 0.7453,-2.32726 0.8075,-2.34861 0.9003,-0.30902 0.121,2.65954 -1.6846,4.03475 -2.5017,1.90539 z m 3.8885,-26.17511 c 2.2239,-2.69894 2.2021,-4.0498 -0.037,-2.2937 -1.5951,1.25099 -1.6254,1.21383 -0.3424,-0.41994 0.9861,-1.2556 1.7232,-1.47688 2.4611,-0.73889 0.738,0.73799 0.3276,1.724 -1.3705,3.29238 -2.0625,1.905 -2.1685,1.92888 -0.7111,0.16015 z m 2.7918,-17.00459 c 0.048,-1.16495 0.285,-1.4019 0.6042,-0.60417 0.2889,0.72187 0.2534,1.58438 -0.079,1.91667 -0.3323,0.33229 -0.5686,-0.25834 -0.5252,-1.3125 z m 2,0 c 0.048,-1.16495 0.285,-1.4019 0.6042,-0.60417 0.2889,0.72187 0.2534,1.58438 -0.079,1.91667 -0.3323,0.33229 -0.5686,-0.25834 -0.5252,-1.3125 z m 0.8964,-12.21316 0.4824,-4.70351 0.3394,3.88178 c 0.1866,2.13498 -0.03,4.25156 -0.4824,4.70351 -0.4519,0.45195 -0.6047,-1.29485 -0.3394,-3.88178 z m -1.7232,-0.70351 c 0.011,-2.2 0.2159,-2.98225 0.4551,-1.73834 0.2392,1.24391 0.2301,3.04391 -0.02,4 -0.2503,0.95609 -0.446,-0.0617 -0.4349,-2.26166 z m 0.7479,-11.5 c 0,-0.73333 0.3,-1.03333 0.6666,-0.66667 0.3667,0.36667 0.3667,0.96667 0,1.33334 -0.3666,0.36666 -0.6666,0.0667 -0.6666,-0.66667 z m 2,0 c 0,-0.73333 0.3,-1.03333 0.6666,-0.66667 0.3667,0.36667 0.3667,0.96667 0,1.33334 -0.3666,0.36666 -0.6666,0.0667 -0.6666,-0.66667 z m 1.4045,-11.15451 c -0.4421,-0.7153 -0.2744,-0.88306 0.4409,-0.44098 1.1528,0.71244 1.5477,1.59549 0.7136,1.59549 -0.2426,0 -0.7621,-0.51953 -1.1545,-1.15451 z m 9.5955,-24.34549 c 0,-0.275 0.225,-0.5 0.5,-0.5 0.275,0 0.5,0.225 0.5,0.5 0,0.275 -0.225,0.5 -0.5,0.5 -0.275,0 -0.5,-0.225 -0.5,-0.5 z m 1,-2.5 c 0,-0.73333 0.3,-1.03333 0.6666,-0.66667 0.3667,0.36667 0.3667,0.96667 0,1.33334 -0.3666,0.36666 -0.6666,0.0667 -0.6666,-0.66667 z m 2.7312,-7.08016 c 0.3536,-1.3522 0.8069,-1.8055 1.0565,-1.05655 0.2405,0.72144 -0.038,1.78716 -0.6193,2.36826 -0.7421,0.74207 -0.8722,0.35164 -0.4372,-1.31171 z m 1.2688,-3.86082 c 0,-0.51754 0.4448,-1.21592 0.9885,-1.55194 0.5669,-0.35034 0.7345,0.0511 0.393,0.94098 -0.6648,1.73242 -1.3815,2.04939 -1.3815,0.61096 z m 4.4045,-15.21353 c -0.4421,-0.7153 -0.2744,-0.88306 0.4409,-0.44098 1.1528,0.71244 1.5477,1.59549 0.7136,1.59549 -0.2426,0 -0.7621,-0.51953 -1.1545,-1.15451 z m 1.5955,-1.84549 c 0,-0.73333 0.3,-1.03333 0.6666,-0.66667 0.3667,0.36667 0.3667,0.96667 0,1.33334 -0.3666,0.36666 -0.6666,0.0667 -0.6666,-0.66667 z m 3,-7.5 c 0,-0.275 0.225,-0.5 0.5,-0.5 0.275,0 0.5,0.225 0.5,0.5 0,0.275 -0.225,0.5 -0.5,0.5 -0.275,0 -0.5,-0.225 -0.5,-0.5 z m 1.4045,-5.65451 c -0.4421,-0.7153 -0.2744,-0.88306 0.4409,-0.44098 1.1528,0.71244 1.5477,1.59549 0.7136,1.59549 -0.2426,0 -0.7621,-0.51953 -1.1545,-1.15451 z M 2037.6462,509.4134 c 0,-0.275 0.225,-0.5 0.5,-0.5 0.275,0 0.5,0.225 0.5,0.5 0,0.275 -0.225,0.5 -0.5,0.5 -0.275,0 -0.5,-0.225 -0.5,-0.5 z M 311.05073,507.75889 c -0.4421,-0.7153 -0.2744,-0.88306 0.4409,-0.44098 1.1528,0.71244 1.5477,1.59549 0.7136,1.59549 -0.2426,0 -0.7621,-0.51953 -1.1545,-1.15451 z M 2036.6462,507.4134 c 0,-0.275 0.225,-0.5 0.5,-0.5 0.275,0 0.5,0.225 0.5,0.5 0,0.275 -0.225,0.5 -0.5,0.5 -0.275,0 -0.5,-0.225 -0.5,-0.5 z m -2,-4 c 0,-0.275 0.225,-0.5 0.5,-0.5 0.275,0 0.5,0.225 0.5,0.5 0,0.275 -0.225,0.5 -0.5,0.5 -0.275,0 -0.5,-0.225 -0.5,-0.5 z M 314.05073,499.75889 c -0.4421,-0.7153 -0.2744,-0.88306 0.4409,-0.44098 1.1528,0.71244 1.5477,1.59549 0.7136,1.59549 -0.2426,0 -0.7621,-0.51953 -1.1545,-1.15451 z m 2.024,-3.77207 c 0,-1.05962 0.3056,-1.73773 0.6791,-1.50691 0.3734,0.23082 0.9739,-0.75532 1.3343,-2.19142 0.3605,-1.4361 0.8849,-2.38163 1.1653,-2.10117 0.4946,0.49458 -2.1654,7.72608 -2.8419,7.72608 -0.1852,0 -0.3368,-0.86696 -0.3368,-1.92658 z M 2029.6462,493.4134 c 0,-0.275 0.225,-0.5 0.5,-0.5 0.275,0 0.5,0.225 0.5,0.5 0,0.275 -0.225,0.5 -0.5,0.5 -0.275,0 -0.5,-0.225 -0.5,-0.5 z M 326.16133,474.88403 c 0.8616,-1.66615 1.2572,-3.57865 0.879,-4.25 -0.5175,-0.91881 -0.383,-0.93996 0.5442,-0.0855 1.1622,1.07095 -0.9655,7.3649 -2.4897,7.3649 -0.275,0 0.2049,-1.36322 1.0665,-3.02937 z m 2.4849,-5.47063 c 0,-0.275 0.225,-0.5 0.5,-0.5 0.275,0 0.5,0.225 0.5,0.5 0,0.275 -0.225,0.5 -0.5,0.5 -0.275,0 -0.5,-0.225 -0.5,-0.5 z m 6.5,-11.5 c 0.3399,-0.55 0.843,-1 1.118,-1 0.275,0 0.2219,0.45 -0.118,1 -0.34,0.55 -0.8431,1 -1.1181,1 -0.275,0 -0.2219,-0.45 0.1181,-1 z m 2.9285,-6 c 0,-1.29524 0.3381,-1.63333 0.9857,-0.98571 0.6477,0.64761 0.6477,1.32381 0,1.97142 -0.6476,0.64762 -0.9857,0.30953 -0.9857,-0.98571 z m 1.5715,-2.5 c 0,-0.275 0.225,-0.5 0.5,-0.5 0.275,0 0.5,0.225 0.5,0.5 0,0.275 -0.225,0.5 -0.5,0.5 -0.275,0 -0.5,-0.225 -0.5,-0.5 z m 0.4145,-2.6382 c -0.4312,-0.69784 -0.2917,-0.9039 0.3455,-0.51008 0.588,0.36341 1.297,0.0954 1.5756,-0.59549 0.3625,-0.89914 0.5289,-0.91769 0.5854,-0.0652 0.1141,1.72088 -1.6556,2.54754 -2.5065,1.17082 z m 4.99,-10.01631 c -0.4421,-0.7153 -0.2744,-0.88306 0.4409,-0.44098 1.1528,0.71244 1.5477,1.59549 0.7136,1.59549 -0.2426,0 -0.7621,-0.51953 -1.1545,-1.15451 z m 4.9382,-7.08444 c 0.087,-1.46781 0.5397,-2.27705 1.0109,-1.8064 0.4714,0.47089 0.401,1.66133 -0.1573,2.659 -0.8695,1.55378 -0.9889,1.43454 -0.8536,-0.8526 z m -2.3427,0.73895 c 0,-0.275 0.225,-0.5 0.5,-0.5 0.275,0 0.5,0.225 0.5,0.5 0,0.275 -0.225,0.5 -0.5,0.5 -0.275,0 -0.5,-0.225 -0.5,-0.5 z m 8,-10 c 0,-0.275 0.225,-0.5 0.5,-0.5 0.275,0 0.5,0.225 0.5,0.5 0,0.275 -0.225,0.5 -0.5,0.5 -0.275,0 -0.5,-0.225 -0.5,-0.5 z m 2.4285,-5.5 c 0,-1.29524 0.3381,-1.63333 0.9857,-0.98571 0.6477,0.64761 0.6477,1.32381 0,1.97142 -0.6476,0.64762 -0.9857,0.30953 -0.9857,-0.98571 z m 1.5715,-2.5 c 0,-0.275 0.225,-0.5 0.5,-0.5 0.275,0 0.5,0.225 0.5,0.5 0,0.275 -0.225,0.5 -0.5,0.5 -0.275,0 -0.5,-0.225 -0.5,-0.5 z m 6,-10.5 c 0,-0.73333 0.3,-1.03333 0.6666,-0.66667 0.3667,0.36667 0.3667,0.96667 0,1.33334 -0.3666,0.36666 -0.6666,0.0667 -0.6666,-0.66667 z m 1360.99997,-237.5 c 0,-0.275 0.225,-0.5 0.5,-0.5 0.275,0 0.5,0.225 0.5,0.5 0,0.275 -0.225,0.5 -0.5,0.5 -0.275,0 -0.5,-0.225 -0.5,-0.5 z"
       id="path280" />
  </g>
</svg>
