<?xml version="1.0" standalone="no"?>
<!DOCTYPE svg PUBLIC "-//W3C//DTD SVG 20010904//EN"
 "http://www.w3.org/TR/2001/REC-SVG-20010904/DTD/svg10.dtd">
<svg version="1.0" xmlns="http://www.w3.org/2000/svg"
 width="8000.000000pt" height="2014.000000pt" viewBox="0 0 8000.000000 2014.000000"
 preserveAspectRatio="xMidYMid meet">

<g transform="translate(0.000000,2014.000000) scale(0.100000,-0.100000)"
fill="#000000" stroke="none">
<path d="M37820 12088 c-113 -34 -207 -62 -208 -64 -2 -1 23 -53 57 -116 110
-208 259 -561 356 -843 21 -60 42 -114 46 -118 5 -7 423 133 435 146 6 5 -106
297 -177 464 -73 172 -280 585 -294 589 -6 1 -102 -25 -215 -58z"/>
<path d="M61885 12093 c-110 -30 -201 -56 -202 -57 -2 -1 25 -52 58 -112 115
-205 314 -660 375 -856 10 -32 23 -58 31 -58 13 0 425 129 431 135 7 7 -130
340 -206 499 -118 251 -258 507 -277 505 -5 -1 -100 -26 -210 -56z"/>
<path d="M9350 12094 c-102 -25 -191 -46 -198 -49 -9 -3 0 -30 32 -92 100
-200 221 -514 311 -803 35 -112 68 -206 73 -208 8 -2 432 115 440 122 4 5
-116 350 -171 491 -71 182 -114 280 -194 448 -55 113 -70 137 -87 136 -12 -1
-104 -21 -206 -45z"/>
<path d="M8515 12052 c-115 -25 -211 -46 -213 -48 -2 -1 24 -55 57 -120 32
-66 84 -180 116 -254 57 -135 165 -441 165 -466 0 -12 -203 -14 -1247 -14
-687 0 -1427 -3 -1645 -7 l-398 -6 0 -314 0 -313 1526 0 1527 0 -7 -142 c-40
-850 -190 -1504 -472 -2058 -377 -743 -1087 -1299 -2158 -1692 -88 -32 -162
-60 -164 -63 -3 -3 361 -530 404 -583 1 -2 98 35 216 81 940 375 1608 826
2041 1383 125 160 292 436 388 641 286 612 457 1352 529 2291 l11 133 -161
186 c-88 102 -160 189 -160 192 0 4 65 24 144 45 79 21 150 42 156 46 14 9
-20 120 -136 437 -111 303 -281 695 -301 692 -4 -1 -102 -22 -218 -47z"/>
<path d="M61057 11969 c-115 -26 -211 -49 -213 -51 -2 -2 13 -31 33 -63 114
-189 293 -591 394 -885 23 -69 44 -126 45 -128 2 -4 434 124 440 131 5 5 -94
257 -166 422 -90 205 -297 607 -319 618 -3 2 -100 -18 -214 -44z"/>
<path d="M37015 11892 c-110 -30 -202 -57 -205 -59 -2 -2 28 -66 67 -141 132
-253 281 -615 363 -882 18 -58 34 -107 35 -108 2 -2 103 29 224 69 204 67 221
74 215 93 -18 62 -145 392 -202 526 -89 210 -264 554 -282 557 -8 1 -105 -24
-215 -55z"/>
<path d="M21270 11628 c-6 -24 -29 -108 -50 -188 -240 -888 -716 -1722 -1367
-2390 l-121 -125 270 -200 c149 -110 276 -203 283 -208 9 -5 57 40 154 145
426 466 762 949 1061 1528 l95 185 819 -3 c451 -1 822 -4 824 -7 6 -6 -41
-269 -74 -410 -332 -1418 -983 -2353 -2118 -3042 -206 -125 -537 -290 -781
-388 -66 -27 -123 -51 -127 -55 -7 -5 350 -460 406 -518 l23 -23 119 52 c530
230 964 476 1329 753 391 296 745 668 1002 1052 387 578 676 1266 883 2105 46
185 129 590 156 751 l17 108 -37 52 c-21 29 -59 83 -84 120 l-47 67 -1029 1
c-975 0 -1028 1 -1021 18 16 42 101 279 145 404 48 136 49 138 27 143 -26 6
-725 115 -738 115 -4 0 -13 -19 -19 -42z"/>
<path d="M59110 11045 l0 -555 -725 0 -725 0 0 -310 0 -310 715 0 715 0 0 -49
c0 -81 -29 -414 -51 -591 -81 -650 -225 -1138 -457 -1545 -215 -378 -549 -746
-941 -1038 -75 -55 -139 -103 -143 -107 -4 -3 104 -117 241 -254 l248 -248
144 113 c455 355 792 719 1043 1128 332 541 548 1317 626 2254 12 139 24 271
26 295 l5 42 621 0 621 0 -6 -587 c-13 -1201 -80 -2083 -174 -2312 -37 -90
-94 -132 -204 -151 -103 -18 -509 -24 -716 -10 -101 6 -186 10 -189 8 -2 -3 7
-38 21 -79 13 -41 65 -201 115 -356 l91 -283 182 0 c312 0 627 22 797 56 364
73 537 245 634 631 105 415 186 1837 186 3261 l0 442 -980 0 -980 0 0 555 0
555 -370 0 -370 0 0 -555z"/>
<path d="M69780 8857 l0 -2564 181 -126 c99 -70 184 -127 188 -127 14 0 344
210 485 310 640 451 1049 893 1468 1585 154 254 373 665 366 686 -2 5 -115
142 -252 304 l-250 295 -56 -142 c-179 -450 -428 -906 -681 -1243 -195 -261
-483 -553 -676 -686 -23 -16 -44 -29 -47 -29 -3 0 -6 968 -6 2150 l0 2150
-360 0 -360 0 0 -2563z"/>
<path d="M68216 10448 c-3 -513 -9 -973 -11 -1023 -2 -49 -7 -189 -10 -310
-16 -632 -71 -1100 -166 -1410 -140 -458 -403 -854 -782 -1181 l-59 -51 276
-204 c152 -112 283 -205 290 -207 18 -4 274 262 381 395 355 444 576 944 679
1543 86 498 112 1037 123 2503 l6 877 -360 0 -360 0 -7 -932z"/>
<path d="M10820 11060 l0 -310 1595 0 1595 0 0 310 0 310 -1595 0 -1595 0 0
-310z"/>
<path d="M34118 11053 l-177 -276 177 -67 c521 -196 1023 -455 1346 -694 l74
-54 187 305 c155 253 185 307 174 318 -57 53 -566 321 -834 440 -199 88 -749
306 -768 305 -1 0 -82 -125 -179 -277z"/>
<path d="M39669 11058 c-96 -149 -175 -274 -177 -278 -1 -3 21 -14 50 -24 106
-37 384 -148 497 -198 153 -67 462 -222 586 -293 101 -58 346 -217 420 -273
l41 -30 187 306 c149 244 185 309 175 318 -24 23 -348 204 -510 285 -279 140
-554 258 -904 389 -103 39 -188 70 -189 70 -1 0 -80 -122 -176 -272z"/>
<path d="M49430 10841 c-118 -153 -214 -282 -212 -287 1 -5 76 -50 166 -101
469 -261 965 -614 1359 -965 48 -43 91 -78 96 -78 10 0 481 644 481 657 0 10
-217 172 -403 302 -224 156 -494 327 -756 478 -202 116 -494 273 -507 272 -5
0 -106 -125 -224 -278z"/>
<path d="M28270 10765 l0 -315 1705 0 c1112 0 1705 -3 1705 -10 0 -16 -95
-277 -154 -423 -191 -472 -467 -1004 -771 -1486 -148 -235 -276 -423 -290
-427 -5 -1 -65 64 -132 145 -237 286 -649 736 -905 988 l-103 102 -282 -197
-283 -196 253 -256 c430 -434 748 -808 1101 -1294 284 -390 644 -958 832
-1313 27 -51 52 -92 55 -90 26 9 649 414 649 421 0 26 -387 613 -602 913 -76
106 -138 196 -138 199 0 3 35 56 79 118 595 840 1162 1896 1616 3008 l48 118
-79 102 c-43 57 -97 127 -119 155 l-40 53 -2072 0 -2073 0 0 -315z"/>
<path d="M52876 10808 c-4 -18 -15 -98 -27 -178 -11 -80 -38 -233 -59 -341
-193 -974 -545 -1735 -1062 -2294 -326 -352 -704 -633 -1155 -858 -350 -176
-819 -343 -1201 -428 -66 -14 -102 -27 -100 -34 2 -7 81 -159 177 -339 122
-229 179 -326 191 -326 25 0 316 85 497 145 497 165 1032 429 1413 697 535
377 967 849 1289 1408 348 605 581 1295 735 2181 l6 36 -287 148 c-159 81
-316 163 -350 182 l-62 34 -5 -33z"/>
<path d="M45535 10595 c-329 -62 -330 -62 -327 -86 2 -13 48 -235 103 -493 54
-257 99 -476 99 -485 0 -13 -85 -32 -517 -114 -284 -54 -519 -99 -520 -101 -3
-3 125 -608 130 -612 1 -1 235 46 520 105 284 59 517 107 517 107 0 -1 141
-664 313 -1473 172 -810 316 -1475 319 -1478 3 -3 154 25 334 63 250 52 329
72 327 83 -1 8 -142 673 -313 1478 -170 805 -309 1465 -308 1466 2 2 336 71
743 154 407 84 748 154 758 157 21 7 20 4 -24 -154 -102 -360 -411 -942 -662
-1245 -22 -26 -38 -49 -36 -51 2 -2 132 -78 288 -169 l284 -166 73 114 c382
595 666 1238 815 1848 l33 138 -179 178 -180 179 -585 -114 c-1116 -215 -1449
-278 -1455 -273 -3 3 -52 230 -109 503 -57 274 -106 499 -108 500 -2 1 -151
-25 -333 -59z"/>
<path d="M37486 10543 c-2 -10 -12 -56 -21 -103 -95 -483 -273 -1021 -479
-1445 -361 -743 -780 -1218 -1406 -1596 -152 -92 -438 -234 -610 -304 -297
-121 -789 -264 -1122 -326 -71 -13 -128 -28 -128 -32 0 -10 310 -649 320 -660
21 -23 620 140 946 258 890 321 1681 874 2160 1510 357 474 669 1129 888 1865
33 110 116 440 116 461 0 10 -112 80 -325 202 -179 103 -327 187 -329 187 -3
0 -7 -8 -10 -17z"/>
<path d="M43021 10488 c-75 -430 -257 -1000 -455 -1428 -331 -713 -751 -1216
-1331 -1593 -486 -316 -1128 -561 -1810 -692 -77 -15 -145 -29 -152 -31 -8 -2
47 -124 148 -331 88 -180 164 -332 168 -336 11 -11 321 62 546 128 681 201
1228 465 1735 838 365 269 710 623 943 970 300 447 579 1057 752 1644 59 197
141 521 134 527 -9 9 -652 376 -659 376 -4 0 -12 -33 -19 -72z"/>
<path d="M16785 10344 c-132 -41 -270 -83 -307 -95 l-68 -20 19 -37 c119 -234
294 -798 406 -1312 20 -90 38 -166 39 -168 4 -3 607 205 614 213 17 16 -156
670 -258 975 -70 213 -189 521 -199 519 -3 -1 -114 -34 -246 -75z"/>
<path d="M18226 10163 c-42 -726 -164 -1406 -341 -1898 -60 -167 -194 -441
-282 -575 -340 -518 -891 -936 -1595 -1211 -76 -30 -137 -57 -135 -61 5 -16
423 -518 431 -518 4 0 81 32 170 71 735 325 1188 660 1568 1160 461 608 719
1365 882 2589 53 400 54 409 37 414 -9 3 -169 35 -356 71 -187 36 -347 68
-356 71 -14 4 -17 -11 -23 -113z"/>
<path d="M15440 10064 c-157 -57 -288 -104 -293 -106 -4 -2 22 -66 57 -143
149 -328 323 -849 429 -1282 17 -73 35 -133 39 -133 6 0 506 182 594 217 22 8
21 9 -23 168 -98 358 -210 689 -334 997 -83 205 -163 381 -175 384 -5 1 -137
-45 -294 -102z"/>
<path d="M10410 9670 l0 -310 1574 0 c866 0 1577 -3 1579 -7 15 -28 -39 -421
-85 -623 -237 -1048 -877 -1686 -2098 -2090 -96 -32 -235 -73 -307 -91 -73
-19 -133 -38 -133 -42 0 -8 314 -532 330 -550 8 -9 343 84 550 153 523 175
967 404 1302 672 508 406 851 993 1048 1793 99 399 148 748 185 1308 l7 97
-1976 0 -1976 0 0 -310z"/>
<path d="M33539 9643 c-85 -146 -155 -272 -157 -278 -2 -7 42 -28 105 -50 459
-161 1034 -424 1376 -629 l155 -93 175 306 176 306 -77 43 c-223 124 -567 279
-942 425 -162 63 -643 237 -654 237 -2 0 -72 -120 -157 -267z"/>
<path d="M39217 9868 c-14 -24 -86 -148 -161 -277 l-135 -235 142 -52 c557
-203 1097 -455 1426 -665 67 -43 77 -46 85 -31 5 9 83 145 173 302 90 156 162
289 159 295 -6 16 -412 221 -596 300 -266 115 -575 234 -890 343 -80 28 -152
54 -162 57 -12 5 -23 -5 -41 -37z"/>
<path d="M26065 9475 c-187 -39 -374 -189 -459 -368 -47 -100 -61 -165 -60
-287 1 -196 54 -321 198 -466 104 -104 187 -152 312 -180 104 -23 273 -16 364
15 187 64 362 238 423 422 61 182 34 405 -69 566 -47 74 -154 178 -226 221
-134 80 -325 110 -483 77z"/>
<path d="M55480 9476 c-333 -70 -566 -400 -520 -734 22 -165 90 -294 217 -413
132 -124 278 -175 476 -167 187 8 319 69 454 211 126 133 177 266 176 457 0
97 -4 128 -27 197 -65 199 -233 366 -436 433 -84 27 -249 35 -340 16z"/>
<path d="M62950 8840 l0 -360 1890 0 1890 0 0 360 0 360 -1890 0 -1890 0 0
-360z"/>
</g>
</svg>
