<?xml version="1.0" standalone="no"?>
<!DOCTYPE svg PUBLIC "-//W3C//DTD SVG 20010904//EN"
 "http://www.w3.org/TR/2001/REC-SVG-20010904/DTD/svg10.dtd">
<svg version="1.0" xmlns="http://www.w3.org/2000/svg"
 width="3645.000000pt" height="571.000000pt" viewBox="0 0 3645.000000 571.000000"
 preserveAspectRatio="xMidYMid meet">

<g transform="translate(0.000000,571.000000) scale(0.100000,-0.100000)"
fill="#000000" stroke="none">
<path d="M2575 4264 c-47 -50 -38 -67 113 -211 160 -154 186 -172 230 -154 28
12 52 46 52 76 0 21 -47 71 -186 200 -138 129 -163 139 -209 89z"/>
<path d="M29440 4227 c-34 -17 -53 -58 -41 -89 9 -24 255 -261 303 -292 15
-10 35 -15 46 -12 25 8 58 45 67 75 7 22 -7 39 -131 159 -131 127 -186 172
-209 172 -5 0 -21 -6 -35 -13z"/>
<path d="M17221 4184 c-43 -54 -34 -70 124 -221 80 -76 157 -142 171 -148 51
-19 105 39 91 97 -4 14 -68 82 -152 161 -128 120 -150 137 -180 137 -24 0 -39
-7 -54 -26z"/>
<path d="M28386 4197 c-10 -7 -53 -100 -96 -207 l-78 -195 -94 -7 c-268 -19
-600 -55 -646 -70 -66 -20 -73 -111 -11 -143 25 -13 41 -13 136 0 171 23 543
56 543 48 0 -2 -61 -155 -135 -340 -74 -186 -135 -348 -135 -361 0 -58 95 -96
134 -53 9 10 83 184 164 387 l148 369 85 3 c98 4 306 -12 434 -34 232 -39 371
-117 432 -243 35 -74 44 -232 19 -364 -49 -257 -209 -572 -392 -767 -77 -83
-87 -107 -59 -147 19 -27 64 -43 92 -32 12 4 56 43 98 86 222 225 417 656 441
972 18 246 -80 437 -282 543 -157 82 -329 122 -610 140 l-191 12 64 158 c34
87 63 171 63 186 0 56 -77 93 -124 59z"/>
<path d="M8376 4088 c-7 -13 -78 -241 -156 -507 -148 -507 -155 -537 -110
-561 10 -5 35 -10 54 -10 27 0 40 6 52 25 14 21 107 319 233 741 l21 71 142
12 c583 50 1023 -3 1123 -133 105 -138 60 -394 -139 -781 -93 -180 -173 -312
-283 -463 -75 -103 -223 -261 -297 -318 -48 -36 -53 -79 -16 -119 40 -43 78
-35 167 38 290 236 629 786 737 1196 88 331 37 530 -161 633 -181 94 -339 121
-718 122 -148 1 -323 -3 -387 -7 -116 -8 -118 -8 -118 13 0 60 -112 98 -144
48z"/>
<path d="M3162 4077 c-32 -34 -30 -89 5 -116 26 -21 27 -21 909 -19 851 3 883
4 903 22 29 26 29 88 -1 116 -22 20 -30 20 -908 20 l-887 0 -21 -23z"/>
<path d="M15405 4045 c-37 -36 -28 -100 19 -124 11 -6 165 -56 340 -112 277
-86 324 -98 347 -89 27 12 49 47 49 80 0 50 -34 65 -370 169 -179 56 -333 101
-343 101 -10 0 -29 -11 -42 -25z"/>
<path d="M17961 4059 c-32 -13 -50 -38 -51 -70 0 -56 18 -64 367 -174 285 -90
336 -103 361 -94 46 16 68 84 39 123 -8 11 -133 55 -347 122 -184 57 -337 104
-340 103 -3 0 -16 -5 -29 -10z"/>
<path d="M2325 4025 c-45 -44 -35 -71 63 -166 191 -187 222 -212 255 -205 45
9 67 34 67 74 0 32 -12 47 -136 166 -75 72 -146 136 -158 143 -33 19 -65 15
-91 -12z"/>
<path d="M29166 3974 c-52 -53 -40 -74 160 -259 136 -127 158 -136 208 -90 51
47 39 68 -130 228 -171 163 -187 171 -238 121z"/>
<path d="M33506 3956 c-34 -33 -40 -132 -33 -526 9 -533 56 -825 169 -1059 97
-203 237 -262 449 -191 185 62 443 226 607 383 52 51 62 79 46 122 -7 17 -54
45 -78 45 -8 0 -50 -32 -93 -70 -187 -168 -414 -303 -556 -331 -136 -26 -213
23 -260 166 -80 239 -130 711 -127 1185 2 284 5 255 -22 280 -29 27 -73 26
-102 -4z"/>
<path d="M16979 3957 c-29 -23 -40 -53 -28 -84 6 -15 56 -71 112 -124 206
-194 223 -204 272 -154 47 46 37 69 -87 191 -161 158 -194 184 -226 184 -15 0
-34 -6 -43 -13z"/>
<path d="M13635 3953 c-226 -11 -780 -74 -814 -92 -25 -14 -43 -65 -32 -94 5
-12 18 -30 29 -41 20 -18 26 -18 249 8 381 44 557 56 814 56 264 0 401 -10
544 -40 358 -74 420 -212 224 -502 -136 -202 -467 -540 -706 -721 l-62 -47
-172 134 c-94 74 -183 137 -197 141 -52 13 -107 -58 -85 -108 9 -19 294 -247
626 -500 61 -46 106 -50 136 -11 23 30 27 71 8 95 -7 8 -51 45 -100 81 l-87
66 130 112 c517 441 775 792 774 1051 0 92 -33 170 -92 219 -50 42 -181 104
-272 129 -205 56 -570 82 -915 64z"/>
<path d="M845 3870 c-308 -9 -281 -6 -305 -30 -25 -25 -26 -80 -2 -110 22 -28
-10 -27 552 -16 454 9 708 1 980 -30 155 -18 210 -38 240 -86 37 -60 25 -141
-55 -384 -56 -171 -105 -273 -196 -410 -224 -335 -553 -552 -935 -618 -98 -17
-124 -35 -124 -88 0 -36 40 -78 73 -78 14 0 62 7 108 15 477 83 885 402 1115
872 99 204 184 499 184 643 0 189 -102 263 -410 300 -207 24 -731 33 -1225 20z"/>
<path d="M32964 3840 c-31 -12 -90 -158 -226 -560 -84 -250 -115 -356 -167
-570 -38 -152 -91 -422 -91 -456 0 -26 47 -64 80 -64 50 0 76 35 90 121 52
316 171 731 361 1252 71 195 77 221 56 248 -26 34 -64 45 -103 29z"/>
<path d="M22732 3830 c-45 -19 -60 -101 -23 -133 9 -9 177 -48 392 -91 412
-84 416 -85 445 -24 19 41 6 84 -29 97 -20 8 -753 162 -760 160 -1 0 -12 -4
-25 -9z"/>
<path d="M19548 3700 c-30 -30 -30 -30 -21 -108 15 -141 9 -418 -11 -512 -50
-234 -136 -394 -290 -537 -142 -133 -293 -211 -503 -259 -86 -19 -401 -29
-507 -16 -89 12 -117 4 -135 -35 -25 -55 -7 -98 47 -112 20 -6 94 -15 163 -21
262 -22 563 35 790 150 140 71 302 210 404 345 90 120 168 312 202 499 36 199
13 577 -38 619 -32 25 -66 21 -101 -13z"/>
<path d="M24606 3694 c-20 -19 -23 -36 -31 -154 -42 -651 -537 -1129 -1265
-1219 -46 -6 -151 -11 -232 -11 -139 0 -148 -1 -168 -22 -25 -28 -26 -78 -1
-109 19 -24 21 -24 208 -23 199 1 297 13 488 61 351 87 665 291 861 558 155
212 253 494 271 780 6 101 6 103 -20 129 -30 30 -86 35 -111 10z"/>
<path d="M17010 3643 c-20 -25 -21 -34 -13 -93 4 -36 8 -144 7 -240 0 -144 -4
-190 -21 -260 -106 -425 -423 -697 -903 -776 -75 -13 -133 -15 -270 -9 -96 4
-188 7 -204 7 -38 1 -66 -33 -66 -78 0 -77 47 -89 335 -89 157 0 218 4 285 19
555 120 921 485 1006 1004 30 181 3 484 -46 524 -34 28 -84 23 -110 -9z"/>
<path d="M3605 3559 c-104 -5 -244 -13 -310 -18 -105 -8 -122 -12 -137 -31
-25 -31 -23 -85 3 -111 24 -24 -36 -25 559 2 240 11 534 6 740 -12 167 -14
331 -39 364 -56 28 -14 28 -16 23 -76 -9 -114 -95 -346 -183 -494 -161 -273
-394 -460 -691 -556 -82 -27 -100 -36 -111 -60 -16 -34 -1 -92 28 -107 28 -15
49 -13 146 16 505 146 963 721 976 1225 2 100 -20 154 -80 193 -48 32 -90 42
-242 60 -287 35 -655 43 -1085 25z"/>
<path d="M20731 3544 c-25 -32 -26 -57 -2 -202 12 -80 15 -115 7 -117 -6 -2
-76 -16 -156 -31 -126 -24 -148 -31 -172 -55 -16 -15 -28 -35 -28 -44 0 -29
30 -75 53 -80 13 -4 94 7 180 23 l156 29 6 -26 c3 -14 41 -246 84 -514 60
-368 84 -494 97 -508 40 -45 134 -7 134 54 0 18 -36 253 -79 522 -43 270 -78
491 -76 493 2 2 61 10 131 19 89 12 212 17 399 17 266 1 271 1 330 -24 49 -21
63 -32 79 -64 17 -35 18 -45 7 -105 -16 -85 -62 -190 -139 -318 -39 -64 -62
-113 -62 -132 0 -50 62 -85 114 -65 38 14 175 261 218 390 17 52 22 93 23 164
0 111 -17 155 -86 214 -120 102 -392 130 -830 85 -111 -11 -205 -17 -209 -12
-4 4 -17 69 -29 143 -24 150 -35 170 -96 170 -24 0 -39 -7 -54 -26z"/>
<path d="M11381 3479 c-68 -13 -115 -50 -146 -113 -55 -113 -15 -254 87 -304
67 -33 171 -33 236 0 86 44 129 142 110 248 -22 122 -149 197 -287 169z"/>
<path d="M26081 3479 c-68 -13 -115 -50 -146 -113 -55 -113 -15 -254 87 -304
67 -33 171 -33 236 0 86 44 129 142 110 248 -22 122 -149 197 -287 169z"/>
<path d="M6234 3421 c-19 -12 -34 -30 -37 -48 -7 -35 136 -476 164 -504 45
-45 129 -7 129 57 0 16 -34 131 -75 254 -89 268 -104 288 -181 241z"/>
<path d="M15265 3385 c-53 -53 -17 -128 66 -139 97 -14 547 -56 590 -56 62 0
84 18 84 69 0 78 -1 78 -361 117 -176 18 -327 34 -337 34 -10 0 -29 -11 -42
-25z"/>
<path d="M17795 3385 c-53 -53 -17 -128 66 -139 99 -14 547 -56 591 -56 38 0
50 5 67 26 27 35 27 66 -2 99 -22 26 -28 27 -342 61 -176 18 -328 34 -338 34
-10 0 -29 -11 -42 -25z"/>
<path d="M7228 3375 c-15 -9 -32 -24 -38 -35 -5 -10 -10 -79 -10 -153 0 -200
-34 -348 -116 -510 -101 -199 -243 -341 -441 -440 -96 -49 -196 -75 -327 -87
-125 -11 -146 -22 -146 -79 0 -46 21 -77 57 -84 15 -3 69 -1 120 4 492 46 895
419 998 922 32 161 29 418 -7 453 -21 21 -61 25 -90 9z"/>
<path d="M5776 3349 c-18 -14 -26 -30 -26 -51 0 -34 136 -465 153 -487 19 -23
54 -31 87 -20 34 12 50 35 50 71 0 43 -135 460 -157 484 -27 30 -71 31 -107 3z"/>
<path d="M30530 3199 c-241 -10 -277 -16 -308 -46 -20 -20 -23 -31 -19 -61 8
-46 26 -63 68 -64 19 0 197 5 397 12 294 10 437 10 750 0 213 -7 400 -12 416
-11 65 2 102 86 55 129 -27 26 -71 31 -385 42 -305 11 -716 11 -974 -1z"/>
</g>
</svg>
