<?xml version="1.0" standalone="no"?>
<!DOCTYPE svg PUBLIC "-//W3C//DTD SVG 20010904//EN"
 "http://www.w3.org/TR/2001/REC-SVG-20010904/DTD/svg10.dtd">
<svg version="1.0" xmlns="http://www.w3.org/2000/svg"
 width="8000.000000pt" height="2014.000000pt" viewBox="0 0 8000.000000 2014.000000"
 preserveAspectRatio="xMidYMid meet">

<g transform="translate(0.000000,2014.000000) scale(0.100000,-0.100000)"
fill="#000000" stroke="none">
<path d="M6725 12541 c-76 -35 -135 -120 -135 -194 0 -71 35 -113 325 -385
330 -310 350 -324 456 -301 59 13 124 64 146 116 19 48 17 142 -5 178 -33 54
-578 558 -630 582 -57 28 -104 29 -157 4z"/>
<path d="M66378 12439 c-50 -14 -124 -81 -138 -125 -18 -54 -8 -137 21 -178
38 -53 577 -555 620 -577 59 -29 126 -26 181 11 66 44 118 126 118 185 0 68
-27 100 -317 372 -157 147 -302 278 -322 290 -44 27 -112 36 -163 22z"/>
<path d="M39249 12377 c-25 -14 -59 -44 -79 -72 -32 -45 -35 -56 -35 -116 0
-55 4 -72 25 -101 39 -55 579 -557 621 -579 47 -23 109 -25 156 -3 74 36 132
122 133 198 0 74 -30 112 -237 306 -341 321 -377 353 -418 371 -55 25 -113 24
-166 -4z"/>
<path d="M64274 12381 c-76 -34 -96 -72 -253 -461 l-148 -365 -104 -7 c-448
-33 -571 -43 -846 -73 -404 -45 -494 -59 -549 -86 -96 -46 -132 -167 -80 -272
38 -79 101 -117 195 -117 26 0 110 9 188 20 184 26 775 87 927 96 71 4 117 3
114 -2 -19 -31 -524 -1248 -535 -1289 -25 -93 25 -188 127 -241 79 -41 196
-14 247 58 12 17 154 359 315 761 l293 730 265 -6 c278 -6 586 -36 795 -78
243 -49 447 -128 572 -223 191 -144 275 -390 243 -711 -30 -304 -114 -595
-261 -903 -166 -349 -342 -613 -549 -825 -63 -65 -123 -135 -132 -155 -76
-162 114 -349 277 -273 22 10 82 58 133 106 472 444 875 1266 957 1955 65 540
-93 923 -483 1176 -247 160 -636 276 -1064 319 -135 13 -488 35 -575 35 l-31
0 129 298 c137 317 145 345 114 420 -22 51 -52 81 -110 108 -60 29 -116 30
-171 5z"/>
<path d="M19945 12184 c-49 -27 -84 -65 -100 -108 -8 -23 -139 -464 -292 -981
-298 -1009 -298 -1008 -260 -1096 25 -56 73 -96 129 -108 63 -14 65 -14 125 4
58 17 99 53 123 110 9 22 119 380 245 795 125 415 231 759 235 763 4 5 108 17
231 27 765 65 1330 50 1797 -46 158 -32 239 -62 322 -119 215 -146 252 -392
125 -839 -163 -581 -652 -1441 -1125 -1979 -124 -141 -193 -207 -303 -288 -91
-67 -111 -90 -127 -148 -30 -113 47 -237 162 -260 84 -18 138 3 261 102 562
450 1190 1405 1470 2238 47 140 112 407 132 540 19 137 20 365 0 459 -56 264
-213 451 -488 580 -359 168 -806 229 -1587 216 -212 -3 -461 -12 -555 -21
-226 -19 -212 -20 -212 11 0 31 -46 89 -101 128 -51 36 -158 47 -207 20z"/>
<path d="M8475 12171 c-137 -23 -210 -173 -146 -304 32 -65 75 -96 153 -108
39 -6 701 -9 1783 -7 1391 2 1726 6 1750 16 84 37 143 141 130 227 -8 59 -60
133 -110 159 -40 21 -41 21 -1780 22 -957 1 -1758 -1 -1780 -5z"/>
<path d="M35620 12094 c-139 -60 -163 -253 -44 -353 28 -23 78 -44 179 -76
872 -274 1156 -359 1205 -362 70 -4 123 24 162 88 78 126 23 277 -118 322 -27
9 -128 40 -224 71 -96 30 -369 116 -606 190 -448 142 -486 150 -554 120z"/>
<path d="M41260 12101 c-93 -19 -152 -88 -158 -186 -7 -109 41 -180 148 -218
171 -61 1245 -390 1287 -394 61 -7 128 14 161 50 37 39 64 115 64 178 0 65
-20 109 -63 141 -29 22 -1299 423 -1363 431 -23 3 -57 2 -76 -2z"/>
<path d="M6202 12053 c-78 -38 -132 -148 -111 -226 6 -22 18 -51 26 -64 25
-37 561 -536 606 -563 123 -74 307 35 307 181 0 73 -24 101 -316 378 -172 163
-302 278 -328 290 -52 25 -137 27 -184 4z"/>
<path d="M65845 11951 c-49 -22 -99 -77 -115 -126 -17 -51 -8 -126 20 -165 40
-57 573 -551 615 -571 84 -39 183 -15 248 61 57 67 63 153 14 225 -40 59 -567
554 -612 576 -51 24 -118 24 -170 0z"/>
<path d="M75653 11929 c-93 -18 -155 -76 -171 -161 -17 -88 -35 -705 -28 -968
20 -728 76 -1262 173 -1645 134 -529 325 -843 572 -943 308 -125 802 41 1406
473 215 153 442 346 490 414 53 77 49 180 -11 250 -44 51 -75 68 -141 77 -81
10 -114 -7 -237 -124 -528 -500 -1162 -795 -1393 -649 -109 69 -188 236 -257
547 -123 553 -209 1803 -165 2395 16 209 -4 266 -103 312 -58 27 -86 32 -135
22z"/>
<path d="M38739 11892 c-99 -52 -141 -151 -105 -247 14 -35 50 -75 163 -182
l145 -138 -51 -11 c-80 -18 -113 -44 -152 -118 -24 -45 -23 -90 6 -316 21
-165 21 -458 0 -615 -30 -228 -91 -434 -186 -635 -303 -635 -917 -1034 -1741
-1131 -108 -12 -523 -11 -613 2 -107 15 -230 22 -259 15 -75 -19 -142 -131
-133 -222 6 -55 33 -119 63 -146 77 -68 673 -106 1008 -64 661 84 1168 316
1595 731 305 296 494 604 616 1007 111 365 136 786 69 1183 -8 50 -17 99 -21
110 -4 15 5 11 38 -18 71 -60 117 -81 179 -81 30 1 69 8 85 17 101 53 146 183
95 275 -29 51 -579 572 -628 594 -55 26 -111 23 -173 -10z"/>
<path d="M31630 11880 c-264 -12 -468 -27 -760 -55 -300 -30 -884 -101 -953
-116 -83 -19 -140 -87 -154 -184 -11 -85 69 -201 155 -225 30 -7 77 -5 198 10
445 54 957 107 1269 130 235 18 790 24 1042 11 724 -36 1149 -164 1265 -383
19 -36 23 -57 22 -128 -1 -136 -51 -251 -214 -495 -279 -416 -872 -1024 -1402
-1438 l-88 -68 -325 258 c-365 290 -389 304 -484 283 -41 -9 -64 -22 -101 -58
-92 -90 -92 -211 2 -298 55 -52 1281 -1000 1317 -1019 26 -13 52 -16 105 -13
83 4 107 18 158 92 29 43 33 56 33 116 0 96 -24 127 -177 230 -68 46 -144 99
-170 117 l-48 35 93 71 c588 453 1197 1081 1462 1507 69 112 162 305 198 410
81 241 77 480 -11 645 -15 27 -56 80 -90 117 -190 202 -556 340 -1067 403
-335 41 -913 62 -1275 45z"/>
<path d="M3305 11713 c-374 -8 -632 -22 -666 -36 -65 -27 -119 -111 -119 -187
0 -91 80 -193 162 -205 25 -4 177 -2 339 5 474 18 1514 24 1849 11 484 -19
990 -68 1117 -108 75 -23 136 -81 153 -143 16 -59 7 -201 -20 -305 -36 -142
-151 -496 -202 -625 -205 -521 -592 -1013 -1048 -1336 -328 -233 -701 -383
-1097 -442 -209 -31 -269 -74 -280 -201 -5 -51 -2 -68 20 -113 50 -101 123
-124 312 -101 1150 143 2143 1023 2555 2263 106 319 169 601 177 795 6 158 -5
225 -57 332 -107 219 -424 332 -1045 373 -387 25 -1477 37 -2150 23z"/>
<path d="M74495 11656 c-73 -27 -102 -74 -192 -307 -405 -1052 -652 -1895
-788 -2682 -33 -188 -35 -214 -24 -265 21 -103 109 -161 225 -149 135 14 169
66 214 325 120 697 378 1572 767 2602 97 257 104 304 62 382 -47 84 -170 128
-264 94z"/>
<path d="M51866 11636 c-81 -30 -135 -111 -136 -204 0 -78 38 -154 92 -183 30
-16 1490 -309 1540 -309 60 0 114 26 157 76 42 47 51 73 51 142 0 73 -30 129
-87 160 -30 17 -238 63 -770 173 -400 83 -746 153 -768 155 -22 2 -57 -2 -79
-10z"/>
<path d="M44433 11400 c-78 -45 -108 -101 -108 -205 0 -44 7 -132 15 -195 21
-161 19 -596 -3 -743 -86 -565 -309 -1008 -645 -1278 -315 -254 -663 -403
-1102 -471 -191 -29 -615 -32 -807 -5 -163 23 -209 22 -263 -5 -99 -50 -137
-194 -80 -298 44 -79 125 -102 450 -131 164 -14 497 -6 660 16 637 87 1176
338 1562 728 307 308 500 665 608 1122 93 394 102 776 28 1240 -21 137 -32
167 -70 201 -69 63 -161 72 -245 24z"/>
<path d="M55629 11381 c-48 -26 -86 -73 -98 -119 -5 -20 -14 -118 -20 -217
-25 -438 -137 -813 -345 -1163 -336 -565 -966 -1006 -1701 -1191 -305 -76
-544 -103 -905 -100 -146 1 -275 1 -287 0 -13 0 -42 -18 -65 -38 -92 -83 -103
-195 -30 -305 41 -63 72 -71 290 -76 483 -11 989 62 1422 205 643 212 1207
631 1555 1153 270 404 425 848 479 1373 9 78 16 190 18 249 2 105 1 109 -28
150 -58 83 -204 123 -285 79z"/>
<path d="M9640 11099 c-291 -9 -627 -25 -949 -44 -201 -12 -240 -17 -278 -36
-81 -39 -130 -151 -103 -236 19 -59 60 -112 104 -136 50 -25 80 -26 446 -3
1135 69 1923 56 2635 -45 181 -25 178 -25 214 -55 42 -35 41 -73 -8 -254 -202
-745 -553 -1264 -1106 -1637 -187 -126 -400 -219 -691 -303 -85 -24 -115 -46
-143 -103 -40 -83 -23 -188 43 -253 75 -76 128 -78 356 -13 408 116 780 347
1140 708 174 174 280 301 397 476 298 445 465 928 467 1351 l1 140 -42 85
c-98 198 -198 244 -653 299 -518 62 -1113 82 -1830 59z"/>
<path d="M47329 11082 c-55 -35 -77 -68 -91 -135 -10 -46 -7 -79 26 -267 20
-118 39 -227 42 -241 5 -26 4 -27 -88 -43 -266 -48 -468 -88 -505 -102 -86
-31 -142 -129 -128 -223 12 -79 55 -135 127 -165 52 -22 85 -20 222 14 121 30
381 80 415 80 15 0 21 -17 34 -97 8 -54 82 -505 162 -1003 81 -498 154 -920
162 -938 27 -57 76 -86 153 -90 58 -4 75 0 124 24 69 33 113 80 122 130 5 25
-41 326 -156 1031 -89 547 -160 997 -157 1000 4 3 77 14 164 23 607 70 1173
79 1403 23 95 -23 171 -66 204 -116 26 -40 27 -47 23 -132 -8 -159 -104 -393
-282 -685 -126 -206 -130 -216 -129 -280 1 -70 22 -110 80 -154 76 -58 172
-62 248 -10 61 43 180 227 294 454 149 296 202 479 202 694 0 255 -81 397
-298 525 -185 109 -565 170 -972 157 -185 -5 -579 -38 -862 -71 -72 -9 -133
-14 -135 -12 -2 2 -24 122 -49 267 -24 144 -49 270 -53 279 -30 54 -110 91
-200 91 -45 0 -66 -6 -102 -28z"/>
<path d="M26433 10926 c-127 -31 -253 -127 -308 -235 -52 -104 -68 -245 -41
-372 48 -223 211 -358 453 -375 321 -23 551 166 570 466 15 247 -131 454 -362
515 -71 18 -238 19 -312 1z"/>
<path d="M59075 10925 c-78 -21 -103 -33 -164 -75 -130 -91 -193 -226 -193
-408 1 -246 134 -428 352 -483 84 -21 270 -17 347 9 208 67 333 247 333 478 0
239 -138 420 -365 479 -73 19 -241 19 -310 0z"/>
<path d="M15110 10834 c-96 -35 -150 -106 -150 -200 0 -37 37 -161 149 -497
82 -246 159 -463 171 -482 45 -73 127 -106 217 -86 92 21 173 117 173 207 0
36 -308 958 -332 994 -46 68 -142 95 -228 64z"/>
<path d="M35322 10769 c-107 -53 -142 -212 -70 -319 49 -72 52 -73 718 -140
657 -67 740 -70 802 -32 55 34 71 66 76 152 4 63 1 83 -16 116 -29 56 -66 90
-115 103 -42 11 -1256 141 -1319 141 -18 0 -52 -10 -76 -21z"/>
<path d="M40924 10771 c-75 -34 -122 -134 -104 -218 23 -101 64 -155 131 -173
51 -14 1203 -130 1289 -130 138 0 213 70 214 200 1 54 -4 73 -27 113 -32 54
-72 83 -126 92 -68 10 -1266 135 -1301 135 -19 0 -53 -9 -76 -19z"/>
<path d="M17049 10712 c-39 -20 -62 -41 -84 -76 l-29 -49 2 -231 c3 -252 -9
-385 -53 -577 -170 -738 -728 -1323 -1405 -1473 -128 -28 -275 -46 -375 -46
-166 0 -236 -59 -237 -199 -1 -78 22 -131 76 -179 45 -39 94 -47 256 -38 353
18 663 108 971 283 638 362 1070 1002 1179 1745 39 259 25 694 -23 782 -47 86
-174 112 -278 58z"/>
<path d="M14195 10698 c-45 -16 -93 -55 -111 -90 -37 -71 -28 -111 135 -606
166 -506 170 -515 257 -548 64 -24 133 -14 199 30 60 40 88 89 89 156 0 51
-261 898 -297 964 -12 22 -39 53 -60 70 -34 27 -47 31 -110 33 -40 1 -85 -3
-102 -9z"/>
<path d="M69560 10384 c-298 -8 -701 -27 -852 -39 -181 -15 -232 -29 -279 -81
-85 -93 -56 -262 55 -322 37 -20 149 -21 376 -4 305 24 1221 35 1828 23 318
-6 645 -16 727 -22 83 -6 193 -12 246 -12 90 -2 98 0 145 28 134 84 133 289
-3 356 -47 23 -244 39 -688 59 -239 10 -1335 20 -1555 14z"/>
</g>
</svg>
