<?xml version="1.0" encoding="UTF-8" standalone="no"?>
<!-- Created with Inkscape (http://www.inkscape.org/) -->

<svg
   version="1.1"
   id="svg59"
   width="348"
   height="286"
   viewBox="0 0 348 286"
   sodipodi:docname="360_F_286951556_U12GG2aUuXYIp0gXpJNtY7hYhHRncX4w.svg"
   inkscape:version="1.2.1 (9c6d41e410, 2022-07-14)"
   xmlns:inkscape="http://www.inkscape.org/namespaces/inkscape"
   xmlns:sodipodi="http://sodipodi.sourceforge.net/DTD/sodipodi-0.dtd"
   xmlns="http://www.w3.org/2000/svg"
   xmlns:svg="http://www.w3.org/2000/svg">
  <defs
     id="defs63" />
  <sodipodi:namedview
     id="namedview61"
     pagecolor="#505050"
     bordercolor="#eeeeee"
     borderopacity="1"
     inkscape:showpageshadow="0"
     inkscape:pageopacity="0"
     inkscape:pagecheckerboard="0"
     inkscape:deskcolor="#505050"
     showgrid="false"
     inkscape:zoom="2.8811189"
     inkscape:cx="113.32403"
     inkscape:cy="121.48058"
     inkscape:window-width="1920"
     inkscape:window-height="1027"
     inkscape:window-x="-8"
     inkscape:window-y="-8"
     inkscape:window-maximized="1"
     inkscape:current-layer="g65" />
  <g
     inkscape:groupmode="layer"
     inkscape:label="Image"
     id="g65">
    <path
       style="fill:#000000"
       d="m 178.44443,241.06008 c -0.0175,-0.31937 -1.6068,-8.38306 -3.5318,-17.91931 -1.925,-9.53625 -3.5,-17.4999 -3.5,-17.69702 0,-0.19711 -12.20416,-8.3871 -27.12035,-18.19997 l -27.12036,-17.84159 -5.37964,-13.84205 c -2.95881,-7.61313 -5.37965,-14.17875 -5.37965,-14.59026 0,-0.41152 9.3375,4.93259 20.75,11.8758 26.93801,16.38872 27.25,16.57231 27.25,16.03545 0,-0.25146 -2.5875,-2.16222 -5.75,-4.24612 -7.6057,-5.01173 -50.502354,-34.56668 -51.634174,-35.57493 -0.87436,-0.77891 -10.68005,-28.18843 -10.24129,-28.62718 0.12502,-0.12503 15.504394,9.93726 34.176394,22.36064 18.67199,12.42338 33.49907,22.1263 32.94907,21.56204 -0.55,-0.56425 -17.65,-13.71432 -38,-29.22238 C 95.562626,99.625142 78.565366,86.612886 78.140946,86.217075 77.443656,85.566794 74.171116,76.774401 62.348596,43.787484 l -3.88982,-10.853294 1.68681,1.353294 c 0.92775,0.744311 29.82986,24.908146 64.226934,53.697412 l 62.54011,52.344114 3.37733,13.44522 c 1.85752,7.39487 3.51966,13.30288 3.69364,13.12891 0.17397,-0.17398 -0.71793,-6.75901 -1.982,-14.63342 l -2.29832,-14.3171 -17.34097,-17.36223 -17.34097,-17.36224 1.44564,-0.48729 c 0.79511,-0.26801 15.03175,-4.106878 31.63699,-8.530818 l 30.19134,-8.043531 12.70541,5.08734 12.70542,5.087331 8.97764,-1.64247 c 4.9377,-0.903365 9.21099,-1.409132 9.49619,-1.123928 0.2852,0.285204 -2.07859,3.476738 -5.25288,7.092296 l -5.77144,6.57376 1.24052,16.19996 c 0.68229,8.90999 1.85846,18.89997 2.61371,22.19997 0.75525,3.3 1.37984,6.2723 1.38797,6.60511 0.008,0.33281 -2.73654,2.53505 -6.09926,4.89386 l -6.11404,4.28875 -4.38596,-2.13086 -4.38596,-2.13087 v -4.42491 -4.42491 l -7.47258,-6.28461 -7.47258,-6.28461 -0.65912,-5.82585 c -0.36251,-3.20422 -1.03678,-6.05927 -1.49838,-6.34455 l -0.83926,-0.51869 -5.02904,3.75452 -5.02904,3.75453 -0.0174,2.53654 c -0.01,1.3951 1.18375,15.62369 2.65181,31.61908 l 2.6692,29.08253 -15.58027,21.91747 c -17.36624,24.42987 -18.64618,26.16485 -18.69154,25.33678 z m 70.12217,-121.51838 -0.8775,-3.90093 -0.76969,1.81377 -0.7697,1.81377 1.1689,2.56546 c 1.63182,3.58145 2.29516,2.36316 1.24799,-2.29207 z m -137.77585,45.82683 -2.12188,-1.72776 -5.53544,-14.25 c -3.0445,-7.8375 -5.177014,-14.25 -4.738914,-14.25 0.4381,0 1.693144,0.7875 2.789004,1.75 l 1.99245,1.75 5.50698,14.25 c 3.02884,7.8375 5.21959,14.23999 4.86833,14.22776 -0.35126,-0.0122 -1.59349,-0.79973 -2.76053,-1.75 z m -21.112334,-41.21135 -2.23421,-1.81142 -4.96087,-14.1025 c -2.72848,-7.75637 -4.62043,-14.102483 -4.20435,-14.102483 0.41608,0 1.66294,0.844465 2.77079,1.876575 l 2.01427,1.87659 4.80099,13.663378 c 2.64054,7.51486 4.63147,13.83166 4.42429,14.03734 -0.20719,0.20567 -1.3821,-0.44119 -2.61091,-1.43748 z m -19.70412,-44.21512 -2.6691,-2.301283 -9.31473,-25.75 c -5.12311,-14.1625 -9.00812,-25.75 -8.63338,-25.75 0.37474,0 1.82525,1.2375 3.22334,2.75 l 2.54199,2.75 9.1072,24.954566 c 5.00897,13.725011 8.95118,25.110589 8.76049,25.301283 -0.19069,0.190694 -1.54781,-0.68886 -3.01581,-1.954566 z"
       id="path199" />
  </g>
</svg>
