<?xml version="1.0" encoding="UTF-8" standalone="no"?>
<!-- Created with Inkscape (http://www.inkscape.org/) -->

<svg
   version="1.1"
   id="svg123"
   width="341"
   height="291"
   viewBox="0 0 341 291"
   sodipodi:docname="Abstract-Pegasus-logo-Silhouette-Graphics-25253926-1-580x386.svg"
   inkscape:version="1.2.1 (9c6d41e410, 2022-07-14)"
   xmlns:inkscape="http://www.inkscape.org/namespaces/inkscape"
   xmlns:sodipodi="http://sodipodi.sourceforge.net/DTD/sodipodi-0.dtd"
   xmlns="http://www.w3.org/2000/svg"
   xmlns:svg="http://www.w3.org/2000/svg">
  <defs
     id="defs127" />
  <sodipodi:namedview
     id="namedview125"
     pagecolor="#505050"
     bordercolor="#eeeeee"
     borderopacity="1"
     inkscape:showpageshadow="0"
     inkscape:pageopacity="0"
     inkscape:pagecheckerboard="0"
     inkscape:deskcolor="#505050"
     showgrid="false"
     inkscape:zoom="2.9106529"
     inkscape:cx="170.58028"
     inkscape:cy="145.67178"
     inkscape:window-width="1920"
     inkscape:window-height="1027"
     inkscape:window-x="-8"
     inkscape:window-y="-8"
     inkscape:window-maximized="1"
     inkscape:current-layer="g129" />
  <g
     inkscape:groupmode="layer"
     inkscape:label="Image"
     id="g129">
    <path
       style="fill:#000000"
       d="m 114.31381,190.89872 c -1.52313,-1.95551 -4.16639,-10.91134 -4.79235,-16.2373 -0.89657,-7.62843 1.13603,-14.58109 6.0061,-20.54433 2.27575,-2.78658 4.92286,-6.25057 5.88247,-7.69776 2.05676,-3.10184 2.27878,-8.03305 0.47286,-10.50279 -1.10774,-1.51492 -1.23105,-1.21533 -0.90538,2.19965 0.47159,4.94508 -1.55055,8.208 -7.71432,12.4478 -7.92599,5.45196 -9.29401,7.47325 -8.92305,13.18412 0.37168,5.72214 -0.33784,6.19248 -7.680533,5.09138 l -4.27085,-0.64045 0.23451,-14.20549 c 0.21252,-12.87329 0.53867,-15.17031 3.47779,-24.49371 l 3.24329,-10.28823 -2.58953,-3.39505 c -1.42424,-1.86727 -2.58909,-3.53757 -2.58855,-3.71177 5.4e-4,-0.1742 2.36304,-0.34126 5.25,-0.37125 3.488873,-0.0362 7.217693,-0.9584 11.119863,-2.75 3.22897,-1.48251 6.82897,-2.69217 8,-2.68814 3.06435,0.0105 43.60033,7.63051 44.29673,8.3269 0.32096,0.32097 -0.92062,1.83957 -2.75906,3.37467 -21.91707,18.30079 -22.12009,18.57018 -23.20521,30.7911 l -0.53275,6 1.78075,-7 c 0.97941,-3.85 2.07286,-7.675 2.42989,-8.5 0.35702,-0.825 5.25481,-4.66405 10.88397,-8.53123 5.62916,-3.86718 28.60469,-19.77233 51.05673,-35.344776 22.45204,-15.57244 41.02983,-28.105602 41.28397,-27.851457 1.37704,1.377039 -5.27422,23.313077 -9.94935,32.813233 l -3.15651,6.41423 -25.3407,14.17403 c -13.93738,7.79572 -25.62816,14.4615 -25.97951,14.81284 -0.90533,0.90534 5.53125,-1.96254 27.57021,-12.28419 10.5875,-4.95851 19.24094,-8.72009 19.22987,-8.35908 -0.0381,1.24198 -12.48575,17.97865 -16.97987,22.83054 -3.89428,4.20429 -6.62201,5.7851 -20.26468,11.74404 -8.67057,3.78719 -15.62676,7.02372 -15.45818,7.19229 0.16857,0.16857 5.66204,-1.68796 12.20771,-4.12562 6.54567,-2.43766 12.0589,-4.27443 12.25162,-4.08171 1.50767,1.50767 -22.46787,18.42833 -35.139,24.79925 -12.11531,6.09146 -47.39108,18.76644 -48.44895,17.40826 z"
       id="path206" />
  </g>
</svg>
