<?xml version="1.0" encoding="UTF-8" standalone="no"?>
<!-- Created with Inkscape (http://www.inkscape.org/) -->

<svg
   version="1.1"
   id="svg133"
   width="313"
   height="340"
   viewBox="0 0 313 340"
   sodipodi:docname="pegasus 3.svg"
   inkscape:version="1.2.1 (9c6d41e410, 2022-07-14)"
   xmlns:inkscape="http://www.inkscape.org/namespaces/inkscape"
   xmlns:sodipodi="http://sodipodi.sourceforge.net/DTD/sodipodi-0.dtd"
   xmlns="http://www.w3.org/2000/svg"
   xmlns:svg="http://www.w3.org/2000/svg">
  <defs
     id="defs137" />
  <sodipodi:namedview
     id="namedview135"
     pagecolor="#505050"
     bordercolor="#eeeeee"
     borderopacity="1"
     inkscape:showpageshadow="0"
     inkscape:pageopacity="0"
     inkscape:pagecheckerboard="0"
     inkscape:deskcolor="#505050"
     showgrid="false"
     inkscape:zoom="2.4911765"
     inkscape:cx="156.75325"
     inkscape:cy="169.79929"
     inkscape:window-width="1920"
     inkscape:window-height="1027"
     inkscape:window-x="-8"
     inkscape:window-y="-8"
     inkscape:window-maximized="1"
     inkscape:current-layer="g139" />
  <g
     inkscape:groupmode="layer"
     inkscape:label="Image"
     id="g139">
    <path
       style="fill:#000000"
       d="m 170.2725,257.94816 7.99537,-25.05184 -4.11661,-9.03764 -4.11662,-9.03765 5.51733,-5.04253 c 3.03454,-2.77339 5.35109,-5.20878 5.14789,-5.41197 -0.20319,-0.20319 -8.8664,-1.47842 -19.25159,-2.83384 -19.87858,-2.59446 -33.99507,-5.43873 -32.71215,-6.59104 0.42013,-0.37736 4.04769,-1.47231 8.06122,-2.43321 4.01354,-0.96089 7.15269,-1.89174 6.97589,-2.06854 -0.1768,-0.1768 -5.26061,0.47727 -11.29734,1.45349 L 121.5,193.66833 109.28443,189.53526 c -6.71857,-2.27319 -12.48574,-4.40324 -12.815944,-4.73344 -0.330203,-0.3302 4.266804,-0.92124 10.215574,-1.31342 21.25223,-1.40106 22.99742,-2.34431 3.31594,-1.79221 l -19.5,0.54701 -10.25321,-6.28505 c -5.639266,-3.45679 -10.138216,-6.40006 -9.997667,-6.54061 0.140549,-0.14054 9.929493,0.37005 21.75321,1.13465 23.490197,1.51904 26.537627,1.64301 25.914337,1.05419 -0.22917,-0.21649 -11.84759,-1.43521 -25.818725,-2.70827 l -25.402054,-2.31464 -7.597946,-6.43276 c -8.499028,-7.19565 -9.17058,-8.05236 -5.88758,-7.51088 11.855968,1.95548 60.370225,8.3914 61.508975,8.1598 0.81031,-0.1648 -13.75754,-2.91828 -32.37302,-6.11886 L 48.5,148.86154 40.780025,141.23408 c -4.245987,-4.1951 -7.581197,-7.76624 -7.411578,-7.93586 0.169618,-0.16962 18.043607,3.54126 39.719975,8.24639 21.676368,4.70513 40.761578,8.76383 42.411578,9.01934 3.77329,0.5843 -21.550361,-6.20415 -58.098669,-15.57438 l -28.09867,-7.20391 -12.90133,-16.57713 C 9.3055988,102.09111 3.3618793,94.299971 3.1930651,93.894894 2.822679,93.006137 12.604985,96.977074 54.160154,114.584 c 52.212926,22.12261 75.232396,30.75094 101.011156,37.86175 5.49741,1.5164 5.72109,1.71422 7.29444,6.45114 1.66921,5.02551 12.03528,21.61419 15.09139,24.15053 0.9434,0.78295 -1.04916,-2.78644 -4.4279,-7.93198 -3.45583,-5.26294 -6.84131,-11.81836 -7.7391,-14.98548 -0.87777,-3.09648 -2.33714,-6.38852 -3.24304,-7.31564 -0.90591,-0.92713 -9.31176,-3.95302 -18.67968,-6.72421 C 124.18286,140.38542 99.760814,131.61631 83.5,124.55789 70.912162,119.09382 54.724564,110.9421 55.306432,110.36023 c 0.215997,-0.21599 16.955375,5.24463 37.198619,12.13472 20.243239,6.89009 36.964869,12.36846 37.159169,12.17416 0.1943,-0.1943 -16.80148,-6.84503 -37.768407,-14.7794 L 53.774131,105.46357 46.32513,89.627055 C 42.228179,80.916971 39.016499,73.672087 39.188064,73.527314 39.359629,73.38254 48.275,78.550413 59,85.011476 c 33.060184,19.916454 73.60097,41.079044 104.47579,54.537154 6.58668,2.87108 12.28907,5.83468 12.67198,6.58576 0.38292,0.75109 2.1231,5.86561 3.86708,11.36561 3.94385,12.43778 10.24975,25.73781 16.95906,35.76907 5.81246,8.69034 8.71424,11.50457 4.05547,3.9331 -5.43139,-8.82713 -13.98518,-27.86306 -18.17237,-40.44148 -2.24479,-6.74338 -4.51187,-12.79408 -5.03797,-13.44599 -0.5261,-0.65192 -4.41311,-2.61543 -8.63779,-4.36335 -10.3678,-4.28958 -10.23019,-4.13835 -8.62349,-9.477 3.31044,-10.99978 9.9257,-20.60452 16.55108,-24.03063 2.46893,-1.27674 3.11309,-1.17889 7.17138,1.08933 l 4.45879,2.49207 0.67412,-5.08182 c 0.61712,-4.652055 0.98005,-5.209635 4.29159,-6.593286 C 197.82129,95.630004 211,92.933682 211,93.811457 c 0,0.318508 -1.15043,1.779893 -2.55651,3.247523 l -2.5565,2.668417 3.10372,0.620743 c 5.02532,1.00507 10.89788,5.72504 22.19861,17.84177 10.17704,10.91191 10.68071,11.66103 11.85574,17.63362 0.67495,3.43066 1.05342,6.3759 0.84106,6.54497 -2.38597,1.89952 -9.94178,6.6315 -10.58889,6.6315 -0.46333,0 -1.6369,-1.4625 -2.60793,-3.25 -0.97103,-1.7875 -4.03513,-4.74029 -6.8091,-6.56175 -4.59864,-3.01957 -5.49957,-3.25488 -10.2119,-2.66712 -4.68887,0.58484 -5.39319,0.40504 -7.59261,-1.93825 C 204.74231,133.1623 203.27981,132 202.82569,132 202.37156,132 202,135.90331 202,140.67403 v 8.67403 l 5.77639,7.07597 c 3.17702,3.89178 10.37673,12.74136 15.99937,19.66572 l 10.22298,12.58974 -2.31734,10.51032 -2.31734,10.51033 -27.03382,29.89993 c -14.8686,16.44496 -29.68801,32.9021 -32.93203,36.57143 -3.24401,3.66932 -6.17336,6.70682 -6.50965,6.75 -0.33629,0.0432 2.98649,-11.19483 7.38394,-24.97334 z M 219.28474,119 c 0.61663,0 -0.62843,-1.79174 -2.76682,-3.98164 -2.13838,-2.18991 -4.04854,-3.82108 -4.24479,-3.62482 -0.19625,0.19625 0.39607,2.23847 1.31626,4.53827 1.15496,2.88653 2.12229,4.00907 3.12364,3.62482 C 217.51083,119.25048 218.6681,119 219.28474,119 Z M 150.75,130.89545 c -2.0625,-1.06878 -3.75,-2.5356 -3.75,-3.25962 0,-3.62626 6.89557,-14.66919 12.93128,-20.70883 C 170.44041,96.411015 181.7777,91.945285 197.5,92.128772 c 8.34248,0.09736 8.63471,0.16667 4,0.948695 -2.75,0.464014 -6.78843,1.465187 -8.9743,2.224829 -3.43141,1.192504 -4.08353,1.906923 -4.77398,5.230084 -0.43983,2.11691 -0.99023,4.03946 -1.22311,4.27234 -0.23287,0.23288 -1.95525,-0.52331 -3.8275,-1.68043 l -3.40409,-2.10384 -5.6255,4.02833 c -6.37156,4.56258 -13.51319,14.02126 -16.19641,21.45122 -0.99312,2.75 -2.0688,5.3012 -2.39039,5.66934 -0.3216,0.36814 -2.27222,-0.20511 -4.33472,-1.27389 z m 66.5077,-28.14226 c -1.77273,-1.23925 -3.23092,-2.51789 -3.24042,-2.841415 -0.0165,-0.562384 13.93434,-11.612148 16.91379,-13.396549 0.78708,-0.471389 -0.84837,3.364997 -3.63435,8.525302 -2.78598,5.160302 -5.45927,9.513652 -5.94065,9.674112 -0.48138,0.16046 -2.32565,-0.72219 -4.09837,-1.96145 z"
       id="path213" />
  </g>
</svg>
