<?xml version="1.0" standalone="no"?>
<!DOCTYPE svg PUBLIC "-//W3C//DTD SVG 20010904//EN"
 "http://www.w3.org/TR/2001/REC-SVG-20010904/DTD/svg10.dtd">
<svg version="1.0" xmlns="http://www.w3.org/2000/svg"
 width="1600.000000pt" height="1200.000000pt" viewBox="0 0 1600.000000 1200.000000"
 preserveAspectRatio="xMidYMid meet">

<g transform="translate(0.000000,1200.000000) scale(0.100000,-0.100000)"
fill="#000000" stroke="none">
<path d="M5500 7055 l0 -855 215 0 215 0 0 855 0 855 -215 0 -215 0 0 -855z"/>
<path d="M6040 7055 l0 -855 215 0 215 0 0 855 0 855 -215 0 -215 0 0 -855z"/>
<path d="M11480 7674 c0 -210 -1 -225 -17 -220 -98 30 -254 37 -345 16 -29 -7
-89 -29 -133 -50 -276 -132 -421 -439 -345 -734 72 -284 329 -486 620 -486
237 0 466 141 569 350 70 142 71 153 71 788 l0 562 -210 0 -210 0 0 -226z"/>
<path d="M13745 7715 c-210 -57 -346 -274 -305 -489 l12 -66 -65 -69 c-114
-121 -168 -262 -168 -436 0 -186 56 -321 185 -451 137 -136 304 -202 486 -191
363 23 628 320 607 681 -3 56 -13 122 -21 149 -32 102 -94 203 -168 275 l-44
43 14 67 c33 157 -44 338 -186 432 -96 63 -235 86 -347 55z"/>
<path d="M15087 7719 c-100 -23 -220 -116 -270 -207 -54 -99 -70 -238 -38
-324 7 -20 -1 -33 -58 -93 -114 -121 -171 -266 -171 -440 0 -184 57 -323 185
-450 138 -139 303 -203 490 -191 249 15 466 169 558 396 37 90 46 141 47 245
0 171 -55 314 -167 435 l-64 69 12 84 c11 73 10 93 -4 152 -50 201 -222 337
-422 334 -33 -1 -77 -5 -98 -10z"/>
<path d="M2053 7479 c-250 -23 -473 -211 -549 -464 -22 -72 -25 -266 -5 -335
64 -227 243 -403 467 -460 78 -20 154 -26 154 -12 0 4 -7 30 -16 57 -20 67
-20 223 0 301 22 86 42 129 93 207 l45 67 264 0 265 0 -7 53 c-16 140 -62 253
-143 353 -137 169 -341 253 -568 233z"/>
<path d="M4718 7479 c-371 -39 -634 -407 -554 -774 58 -268 291 -477 560 -502
61 -5 69 -4 63 10 -33 86 -42 252 -18 347 19 75 63 172 107 231 l36 49 259 0
259 0 0 47 c0 108 -50 237 -136 352 -129 171 -349 263 -576 240z"/>
<path d="M10359 7479 c-236 -21 -471 -113 -665 -260 -36 -27 -67 -49 -70 -49
-2 0 -4 70 -4 155 l0 155 -215 0 -215 0 0 -640 0 -640 640 0 640 0 0 645 c0
355 -3 644 -7 644 -5 -1 -51 -6 -104 -10z"/>
<path d="M610 6840 l0 -640 215 0 215 0 0 498 c0 489 0 497 19 467 45 -73 103
-106 186 -106 62 0 93 11 139 52 52 45 69 84 70 154 1 125 -87 215 -209 215
-78 0 -145 -38 -186 -105 l-19 -30 0 68 0 67 -215 0 -215 0 0 -640z"/>
<path d="M3320 7465 c-220 -44 -405 -210 -477 -429 -49 -150 -32 -362 38 -481
l21 -35 274 0 274 0 0 -161 0 -162 68 6 c244 21 449 183 540 425 19 52 26 92
30 182 5 126 -8 200 -53 298 l-24 52 -280 0 -281 0 0 160 0 160 -32 -1 c-18 0
-62 -7 -98 -14z"/>
<path d="M7083 7465 c-172 -39 -328 -155 -419 -311 -13 -23 -36 -74 -51 -115
l-27 -74 -4 -592 -3 -593 210 0 211 0 0 226 0 227 33 -8 c95 -21 119 -24 193
-25 250 -1 472 143 579 375 43 93 57 159 57 265 0 112 -14 174 -64 280 -33 69
-56 100 -127 170 -89 89 -157 130 -271 165 -75 23 -239 28 -317 10z"/>
<path d="M8411 6840 l-633 -640 641 0 641 0 0 640 c0 352 -4 640 -8 640 -5 0
-293 -288 -641 -640z"/>
<path d="M12485 6840 l-640 -640 643 0 642 0 0 640 c0 352 -1 640 -3 640 -1 0
-290 -288 -642 -640z"/>
</g>
</svg>
