<?xml version="1.0" standalone="no"?>
<!DOCTYPE svg PUBLIC "-//W3C//DTD SVG 20010904//EN"
 "http://www.w3.org/TR/2001/REC-SVG-20010904/DTD/svg10.dtd">
<svg version="1.0" xmlns="http://www.w3.org/2000/svg"
 width="8000.000000pt" height="6000.000000pt" viewBox="0 0 8000.000000 6000.000000"
 preserveAspectRatio="xMidYMid meet">

<g transform="translate(0.000000,6000.000000) scale(0.100000,-0.100000)"
fill="#000000" stroke="none">
<path d="M60500 37714 c-394 -34 -627 -89 -869 -205 -188 -89 -332 -191 -472
-336 -292 -299 -461 -692 -531 -1233 -19 -148 -19 -1173 0 -1315 73 -548 287
-959 637 -1225 104 -80 251 -164 367 -211 43 -17 78 -35 78 -39 0 -5 -30 -18
-67 -31 -214 -69 -425 -200 -589 -364 -306 -305 -459 -707 -495 -1305 -14
-225 -6 -1323 10 -1465 18 -160 61 -381 97 -508 220 -757 740 -1203 1551
-1328 177 -27 555 -37 740 -20 525 50 921 211 1225 500 346 329 543 791 598
1401 13 150 13 1400 0 1545 -52 556 -248 992 -568 1258 -147 122 -313 217
-495 282 -43 15 -80 31 -82 36 -3 4 12 13 32 19 67 22 250 116 335 173 437
291 675 758 728 1429 17 209 7 1022 -14 1178 -37 272 -91 485 -171 675 -260
621 -761 977 -1505 1071 -114 14 -453 26 -540 18z m355 -564 c156 -13 266 -34
395 -76 196 -63 328 -142 466 -279 244 -242 369 -572 404 -1065 12 -181 13
-802 0 -973 -19 -264 -65 -449 -160 -643 -207 -426 -583 -656 -1137 -696 -406
-30 -781 54 -1047 235 -84 57 -209 179 -276 268 -149 200 -242 469 -271 787
-17 186 -7 1087 14 1217 63 401 182 669 387 872 273 271 705 396 1225 353z
m152 -4335 c207 -29 351 -73 513 -156 325 -167 532 -460 615 -873 42 -210 47
-332 42 -1036 -4 -682 -7 -726 -53 -955 -22 -108 -78 -282 -125 -382 -168
-366 -493 -615 -909 -697 -211 -41 -580 -47 -775 -12 -590 107 -945 452 -1084
1056 -55 235 -56 258 -56 1080 0 756 0 766 23 885 103 542 364 864 827 1019
107 36 296 73 430 85 139 12 415 5 552 -14z"/>
<path d="M65780 37714 c-387 -34 -625 -89 -858 -199 -612 -290 -951 -851
-1022 -1690 -8 -94 -11 -302 -8 -635 4 -438 7 -510 26 -625 108 -682 430
-1134 972 -1366 55 -23 100 -46 100 -50 0 -4 -37 -20 -81 -34 -110 -37 -291
-130 -390 -201 -319 -229 -531 -573 -623 -1012 -51 -243 -58 -346 -63 -952 -7
-810 11 -1068 97 -1404 205 -801 730 -1268 1572 -1397 172 -27 553 -37 735
-20 522 49 924 212 1222 496 319 305 494 675 583 1235 22 142 23 160 23 935 0
827 -1 844 -46 1070 -127 632 -475 1058 -1022 1250 -43 16 -76 32 -74 38 1 5
26 18 54 29 176 65 390 205 533 348 259 260 409 586 482 1050 22 138 23 172
23 695 0 594 -3 638 -60 921 -176 873 -734 1388 -1625 1499 -122 15 -460 27
-550 19z m356 -564 c282 -23 510 -95 704 -221 95 -63 255 -229 319 -332 119
-193 195 -433 231 -727 18 -140 25 -924 11 -1111 -37 -492 -205 -847 -508
-1075 -278 -210 -692 -306 -1135 -264 -740 70 -1178 519 -1247 1280 -14 147
-14 927 -1 1085 25 293 81 508 186 715 115 226 280 391 499 500 261 129 575
179 941 150z m4 -4320 c251 -19 463 -71 635 -158 126 -63 197 -113 292 -205
195 -189 310 -432 369 -782 15 -85 18 -197 21 -765 3 -436 1 -710 -7 -795 -41
-483 -177 -831 -417 -1067 -199 -196 -403 -295 -731 -355 -141 -26 -565 -25
-707 1 -651 119 -1000 508 -1121 1246 -15 90 -18 203 -22 810 -4 736 0 830 39
1025 99 492 376 816 819 960 245 79 525 108 830 85z"/>
<path d="M10240 32918 l0 -4668 305 0 305 0 0 2205 0 2205 704 0 c721 0 824
-4 1021 -41 287 -54 489 -151 651 -313 191 -191 291 -433 345 -836 8 -57 14
-490 18 -1315 8 -1346 8 -1350 72 -1723 16 -95 29 -175 29 -177 0 -3 142 -5
316 -5 297 0 316 1 309 18 -13 34 -54 239 -69 347 -36 250 -39 334 -46 1575
-6 1070 -10 1262 -24 1369 -64 484 -200 813 -435 1050 -166 167 -406 296 -663
357 -43 9 -78 20 -78 23 0 3 48 21 108 39 142 44 347 146 453 226 374 283 574
716 629 1361 13 157 13 1001 0 1180 -46 610 -197 1015 -489 1305 -251 249
-571 389 -1041 455 -138 20 -357 24 -1552 28 l-868 3 0 -4668z m2339 4074
c546 -105 844 -405 956 -967 44 -224 50 -324 50 -905 0 -568 -4 -639 -46 -850
-107 -533 -406 -847 -925 -971 -213 -51 -243 -52 -1026 -56 l-738 -4 0 1891 0
1891 808 -4 c778 -4 811 -4 921 -25z"/>
<path d="M29820 32920 l0 -4670 300 0 300 0 -2 4668 -3 4667 -297 3 -298 2 0
-4670z"/>
<path d="M31860 32920 l0 -4670 300 0 300 0 -2 4668 -3 4667 -297 3 -298 2 0
-4670z"/>
<path d="M51887 37583 c-4 -3 -7 -805 -7 -1782 l0 -1776 -41 75 c-89 164 -228
349 -350 467 -356 342 -884 489 -1467 408 -368 -52 -662 -202 -866 -445 -201
-237 -315 -532 -379 -970 -20 -142 -21 -182 -25 -1870 -2 -1169 0 -1781 7
-1900 57 -908 407 -1438 1065 -1610 189 -49 244 -55 501 -55 210 0 254 3 353
23 160 32 278 73 427 147 345 171 613 461 795 862 l48 105 6 -84 c3 -46 8
-130 11 -188 14 -259 54 -585 86 -702 l10 -38 273 0 273 0 -18 77 c-23 97 -55
343 -69 538 -6 83 -13 168 -17 190 -3 22 -8 1950 -12 4285 l-6 4245 -296 3
c-162 1 -298 -1 -302 -5z m-1191 -3138 c124 -21 241 -60 351 -116 130 -66 212
-127 323 -238 268 -269 433 -658 497 -1171 16 -133 18 -247 18 -1355 0 -1245
-1 -1296 -41 -1530 -126 -748 -535 -1245 -1121 -1362 -110 -22 -384 -24 -493
-4 -533 96 -813 477 -869 1180 -15 180 -15 3223 -1 3411 53 703 335 1089 865
1184 109 19 360 20 471 1z"/>
<path d="M17160 34994 c-417 -37 -685 -119 -945 -291 -109 -73 -291 -246 -365
-348 -202 -277 -325 -630 -377 -1085 -17 -142 -18 -282 -18 -1705 0 -1631 0
-1647 46 -1918 42 -251 107 -456 211 -659 80 -158 163 -273 288 -398 256 -258
607 -412 1042 -459 123 -14 435 -14 553 -1 748 83 1243 475 1470 1162 83 253
123 506 132 836 l6 212 -296 0 -297 0 0 -178 c0 -211 -12 -353 -45 -518 -92
-459 -325 -765 -688 -902 -273 -103 -644 -121 -947 -46 -454 113 -726 429
-831 967 -38 197 -41 260 -46 1075 l-5 802 1576 0 1576 0 0 753 c0 920 -9
1053 -91 1376 -149 588 -474 983 -977 1187 -116 47 -325 100 -469 119 -117 15
-416 27 -503 19z m420 -549 c275 -42 468 -128 629 -280 183 -173 294 -392 356
-699 40 -198 45 -301 45 -857 l0 -529 -1281 0 -1281 0 5 543 c5 560 10 644 52
853 113 564 430 887 951 968 121 19 405 20 524 1z"/>
<path d="M21805 34994 c-149 -15 -243 -28 -335 -49 -553 -124 -955 -481 -1130
-1004 -152 -453 -124 -1070 65 -1466 109 -227 243 -382 524 -604 229 -182 355
-255 892 -519 447 -220 578 -290 749 -405 350 -234 527 -466 601 -787 29 -125
36 -380 15 -533 -40 -285 -147 -511 -318 -673 -156 -147 -341 -234 -598 -281
-133 -24 -458 -24 -589 1 -461 86 -751 341 -875 768 -39 136 -56 286 -56 503
l0 195 -290 0 -290 0 0 -92 c1 -174 20 -443 40 -554 140 -780 667 -1260 1490
-1359 145 -17 422 -20 571 -5 353 36 667 149 901 325 234 176 412 426 509 715
76 229 103 411 103 700 0 367 -57 636 -186 880 -101 192 -219 323 -473 527
-286 229 -450 324 -1145 662 -295 143 -413 212 -617 356 -288 205 -437 402
-511 674 -25 91 -26 108 -26 336 0 237 0 242 31 356 111 416 385 678 810 774
94 22 388 31 494 16 514 -74 837 -393 925 -916 8 -49 17 -163 21 -252 l6 -163
279 0 278 0 0 94 c0 979 -525 1635 -1411 1761 -105 15 -380 26 -454 19z"/>
<path d="M26510 34994 c-509 -38 -893 -200 -1177 -497 -221 -232 -375 -550
-453 -934 -60 -303 -60 -290 -60 -2000 0 -1003 4 -1599 11 -1673 46 -510 195
-912 449 -1216 126 -150 283 -270 473 -363 275 -134 551 -191 927 -191 365 0
644 56 910 181 166 79 289 167 426 303 132 133 213 245 296 410 162 323 248
730 248 1179 l0 147 -293 0 -294 0 -1 -182 c-3 -798 -269 -1271 -808 -1441
-152 -48 -252 -61 -474 -61 -235 -1 -327 12 -503 71 -190 63 -365 189 -489
353 -95 125 -184 333 -227 534 -47 217 -51 301 -51 1138 l0 788 1571 0 1570 0
-3 838 c-4 733 -6 852 -22 957 -27 188 -64 348 -112 495 -221 664 -694 1050
-1404 1146 -108 14 -412 25 -510 18z m545 -568 c538 -123 835 -508 905 -1171
15 -147 24 -685 15 -947 l-7 -228 -1275 0 -1274 0 4 593 c3 554 5 600 25 712
73 405 212 671 445 848 84 65 250 146 359 176 148 41 240 50 468 47 192 -3
228 -6 335 -30z"/>
<path d="M35864 34990 c-613 -51 -1079 -380 -1362 -963 -32 -67 -63 -133 -69
-147 -13 -31 -23 245 -23 630 0 151 -3 292 -6 313 l-7 37 -248 0 -249 0 0
-4340 0 -4340 300 0 300 0 2 1451 3 1451 47 -83 c92 -166 179 -284 306 -412
259 -264 571 -411 967 -458 129 -15 460 -6 580 16 618 113 990 481 1145 1130
81 338 82 364 78 2395 -4 1930 -1 1815 -63 2116 -120 582 -430 962 -914 1123
-222 73 -513 103 -787 81z m282 -545 c300 -52 515 -190 661 -423 116 -185 186
-425 213 -732 14 -157 14 -3315 0 -3470 -61 -682 -344 -1056 -870 -1151 -109
-20 -383 -18 -493 4 -237 47 -443 155 -619 325 -292 282 -467 687 -523 1212
-12 110 -15 361 -15 1340 0 737 4 1248 10 1315 81 875 515 1461 1172 1580 103
19 355 18 464 0z"/>
<path d="M40490 34994 c-244 -21 -397 -50 -563 -105 -411 -137 -725 -410 -906
-789 -122 -255 -176 -507 -188 -867 l-6 -183 282 0 281 0 0 120 c0 721 357
1179 995 1275 117 17 350 20 460 4 442 -61 749 -315 878 -725 53 -169 62 -245
61 -554 0 -283 0 -286 -28 -375 -64 -208 -169 -337 -376 -460 -163 -97 -489
-258 -911 -450 -200 -91 -434 -203 -519 -248 -710 -379 -1075 -782 -1214
-1337 -95 -382 -85 -874 26 -1220 72 -226 178 -403 337 -561 264 -265 574
-385 1022 -396 352 -10 623 42 885 167 164 79 274 159 419 304 157 158 248
286 356 503 l75 152 12 -234 c17 -329 38 -536 73 -712 l10 -53 281 0 280 0 -6
23 c-34 111 -81 461 -107 787 -8 100 -14 797 -19 2255 -6 1925 -8 2121 -24
2230 -47 325 -135 577 -283 804 -68 106 -258 297 -363 366 -212 140 -465 228
-760 265 -92 11 -387 20 -460 14z m1290 -4689 c-66 -888 -495 -1490 -1162
-1625 -56 -12 -160 -24 -232 -27 -466 -20 -814 157 -990 505 -146 288 -166
786 -46 1142 63 188 174 364 324 514 213 214 460 366 926 571 550 242 962 476
1118 634 l67 68 3 -816 c2 -529 -1 -869 -8 -966z"/>
<path d="M45720 34989 c-405 -36 -720 -177 -980 -438 -145 -146 -229 -264
-329 -462 l-79 -156 -6 51 c-3 28 -6 173 -6 321 0 149 -3 334 -7 413 l-6 142
-259 0 -258 0 0 -3305 0 -3305 300 0 300 0 0 2218 c0 1406 4 2266 10 2352 43
563 209 990 499 1281 197 197 394 300 661 344 149 25 408 17 540 -18 378 -98
616 -374 714 -827 53 -243 49 -60 53 -2807 l3 -2543 300 0 300 0 0 2514 c0
1639 -4 2558 -10 2642 -59 731 -310 1197 -770 1429 -256 128 -613 185 -970
154z"/>
<path d="M55395 34990 c-637 -57 -1096 -324 -1364 -795 -154 -269 -241 -649
-241 -1046 l0 -99 280 0 280 0 0 98 c1 477 142 832 420 1055 214 171 486 257
818 257 287 0 502 -56 688 -179 245 -163 388 -393 450 -726 16 -83 19 -147 18
-385 0 -261 -2 -292 -22 -363 -43 -156 -134 -300 -237 -378 -144 -108 -494
-291 -1005 -522 -407 -185 -436 -198 -592 -282 -289 -156 -514 -314 -692 -485
-232 -224 -368 -433 -460 -710 -136 -407 -138 -971 -5 -1371 115 -350 354
-632 661 -782 212 -104 404 -147 689 -154 288 -8 488 20 718 99 421 144 732
438 958 903 58 121 63 127 63 90 1 -236 50 -763 86 -937 l6 -28 280 0 280 0
-6 28 c-41 177 -74 408 -96 672 -25 308 -30 722 -30 2476 0 1195 -4 1897 -10
1980 -75 924 -547 1457 -1389 1569 -137 19 -418 26 -546 15z m1340 -4760 c-99
-985 -647 -1579 -1455 -1580 -377 0 -681 141 -857 400 -179 263 -238 697 -151
1100 70 327 253 602 549 827 189 144 387 252 764 419 557 246 998 502 1123
651 l37 44 3 -853 c2 -716 0 -878 -13 -1008z"/>
</g>
</svg>
