<?xml version="1.0" encoding="UTF-8" standalone="no"?>
<!-- Created with Inkscape (http://www.inkscape.org/) -->

<svg
   version="1.1"
   id="svg66"
   width="5600"
   height="4200"
   viewBox="0 0 5600 4200"
   sodipodi:docname="believe.svg"
   inkscape:version="1.2.1 (9c6d41e410, 2022-07-14)"
   xmlns:inkscape="http://www.inkscape.org/namespaces/inkscape"
   xmlns:sodipodi="http://sodipodi.sourceforge.net/DTD/sodipodi-0.dtd"
   xmlns="http://www.w3.org/2000/svg"
   xmlns:svg="http://www.w3.org/2000/svg">
  <defs
     id="defs70" />
  <sodipodi:namedview
     id="namedview68"
     pagecolor="#505050"
     bordercolor="#eeeeee"
     borderopacity="1"
     inkscape:showpageshadow="0"
     inkscape:pageopacity="0"
     inkscape:pagecheckerboard="0"
     inkscape:deskcolor="#505050"
     showgrid="false"
     inkscape:zoom="0.19619048"
     inkscape:cx="2800.8495"
     inkscape:cy="2100"
     inkscape:window-width="1920"
     inkscape:window-height="1027"
     inkscape:window-x="-8"
     inkscape:window-y="-8"
     inkscape:window-maximized="1"
     inkscape:current-layer="g72" />
  <g
     inkscape:groupmode="layer"
     inkscape:label="Image"
     id="g72">
    <path
       style="fill:#000000"
       d="M 402.7767,2207.5388 V 487.03884 h 2439 2439 v 1720.49996 1720.5 h -2439 -2439 z m 4818,0 V 547.03884 h -2379 -2379 v 1660.49996 1660.5 h 2379 2379 z m -2893.9929,487.9186 c -6.8618,-2.9984 -11.5122,-9.529 -12.6389,-17.749 -0.5615,-4.0963 2.442,-11.1263 54.1538,-126.7532 30.1116,-67.329 55.5536,-124.7508 56.5378,-127.6039 2.3307,-6.7565 5.6488,-23.4535 6.9181,-34.8125 0.6496,-5.8131 1.0086,-105.5674 1.0139,-281.7125 l 0.01,-272.7125 2.13,-5.693 c 2.7424,-7.3296 10.7056,-15.7355 16.37,-17.2801 2.7405,-0.7473 30.6239,-1.0925 88.5537,-1.0963 l 84.5536,-0.01 5.1619,2.5723 c 6.3059,3.1423 12.5045,11.7234 14.2215,19.6876 0.8288,3.8443 1.0405,78.3577 0.7946,279.7401 -0.3148,257.9414 -0.4427,275.1334 -2.1192,285 -1.906,11.2165 -3.9006,19.6754 -6.3197,26.8007 -3.3378,9.8313 -112.5358,252.6456 -115.8957,257.7076 -4.0597,6.1162 -7.7674,9.5439 -13.8342,12.7895 l -4.1165,2.2022 -86,0.2224 c -75.2398,0.1946 -86.437,0.031 -89.4929,-1.3038 z m 1727.4929,-0.2673 c -6.0928,-3.7876 -9.0377,-10.0225 -8.2458,-17.4578 0.293,-2.7507 33.1478,-76.4456 95.4922,-214.1935 52.275,-115.5 117.9437,-260.625 145.9304,-322.5 l 50.8849,-112.5 -238.5308,-0.5 -238.5309,-0.5 -4.7333,-2.1864 c -6.9589,-3.2144 -11.5229,-7.0433 -14.5663,-12.2201 l -2.7004,-4.5935 -0.3135,-72.5 c -0.2194,-50.7644 0.022,-74.0501 0.804,-77.6705 1.39,-6.4323 6.6621,-12.7135 14.1541,-16.8632 l 5.3554,-2.9663 243.0418,-0.258 243.0418,-0.258 16.4217,37.0279 c 17.654,39.8066 20.3482,44.4152 30.404,52.0074 11.3278,8.5525 3.4748,7.9807 109.6014,7.9807 51.6941,0 93.9893,0.2006 93.9893,0.4457 0,0.2451 -35.147,78.4326 -78.1044,173.75 -42.9575,95.3174 -116.798,259.2543 -164.09,364.3043 -47.2921,105.05 -87.3925,193.8849 -89.1121,197.411 -3.9471,8.0936 -13.7377,18.0353 -22.0266,22.3666 l -6.1669,3.2224 -89.5,0.2582 c -85.8488,0.2476 -89.6224,0.182 -92.5,-1.6069 z m -2228,-91.7074 c -1.65,-0.8491 -7.275,-5.7349 -12.5,-10.8574 -5.225,-5.1225 -72.725,-65.0562 -150,-133.1859 -77.275,-68.1297 -192.3681,-169.6613 -255.7624,-225.6258 l -115.2624,-101.7537 -161.6747,137.7394 c -88.921,75.7567 -165.85919,141.6198 -170.97367,146.3624 -5.11447,4.7426 -10.71563,9.2097 -12.44703,9.9269 -6.19682,2.5668 -5.8798,8.5737 -5.8798,-111.409 0,-73.4066 0.35183,-110.9973 1.0779,-115.1667 1.20112,-6.8974 4.62148,-12.5376 18.4221,-30.3783 7.45944,-9.6431 18.62864,-19.6751 165.2994,-148.4689 106.897,-93.8679 158.5349,-138.5872 161.1555,-139.5635 3.1382,-1.1691 4.6029,-1.2128 7.8675,-0.2347 4.0311,1.2077 10.5164,6.8368 416.1182,361.1865 92.9472,81.2024 94.6127,82.7218 104.6818,95.5 5.6276,7.1416 11.7272,15.4421 13.5548,18.4454 l 3.3228,5.4607 0.2735,119.8112 c 0.1892,82.8874 -0.053,120.4209 -0.7852,121.7894 -1.2722,2.3772 -2.5299,2.459 -6.4883,0.422 z m 1001.7998,-260.3035 c -10.5986,-3.6673 -17.1992,-10.2384 -19.2262,-19.1404 -1.4524,-6.3783 -1.4355,-141.214 0.018,-147.9938 1.6115,-7.5142 6.1462,-12.8096 14.7815,-17.261 l 7.284,-3.7548 409.6712,0.2548 409.6712,0.2548 5.2859,2.785 c 7.0699,3.7251 13.125,9.3329 15.3484,14.215 1.7096,3.7536 1.8218,8.5279 1.8218,77.5 0,68.9721 -0.1122,73.7464 -1.8218,77.5 -2.3392,5.1363 -8.2272,10.4171 -15.713,14.0926 l -5.9213,2.9074 -408,0.2199 c -390.5617,0.2105 -408.2223,0.143 -413.2002,-1.5795 z m -811.5925,-27.7369 c -6.0202,-1.8703 -11.4982,-7.2396 -15.3133,-15.0095 l -2.894,-5.894 v -230 -230 l 3.0904,-6.5 c 4.1168,-8.659 7.7945,-12.8046 13.8687,-15.6331 l 5.0409,-2.3474 73,0.012 c 68.4734,0.012 73.248,0.1252 77,1.834 4.8821,2.2234 10.4899,8.2785 14.215,15.3484 l 2.785,5.2859 v 231.5 231.5 l -2.4113,4.8989 c -3.1728,6.4461 -7.455,11.2136 -12.494,13.91 l -4.0947,2.1911 -73.5,0.1962 c -62.6693,0.1673 -74.2062,-0.023 -78.2927,-1.2927 z m -490.9614,-400.4892 c -9.0428,-2.1312 -20.6561,-10.5631 -26.7523,-19.4236 -1.6082,-2.3374 -17.7896,-38.1542 -35.9588,-79.5927 -35.8855,-81.8445 -35.1292,-79.6874 -31.071,-88.6273 1.1031,-2.43 3.3274,-5.0932 5.2281,-6.2598 3.2373,-1.9869 4.5388,-2.0248 60.8081,-1.7706 l 57.5,0.2597 5.9615,2.927 c 7.2372,3.5534 18.3999,14.3904 21.8565,21.2189 2.2593,4.4631 61.9297,139.9369 65.4937,148.695 1.308,3.214 1.3731,4.7463 0.3992,9.3896 -1.5172,7.2332 -3.4463,10.0191 -8.5389,12.3313 -3.9353,1.7868 -7.2076,1.8898 -57.672,1.8158 -29.425,-0.043 -55.1893,-0.4766 -57.2541,-0.9633 z m 203.9716,0.01 c -8.1649,-1.9577 -18.2621,-9.0573 -24.6411,-17.3257 -2.9934,-3.88 -12.2279,-23.9066 -35.1281,-76.1814 -17.087,-39.0047 -32.0529,-72.9426 -33.2578,-75.4176 -3.0134,-6.1904 -2.909,-14.0944 0.2604,-19.7138 4.3193,-7.6581 1.7536,-7.3844 66.2663,-7.0676 l 57.2828,0.2814 5.4704,2.8785 c 6.4321,3.3846 17.2377,13.4287 20.5883,19.1375 1.2964,2.2088 16.8748,36.8588 34.6186,77 l 32.2615,72.984 0.013,7.1997 c 0.015,7.788 -1.2869,10.5938 -6.8364,14.7385 -2.7036,2.0192 -3.9009,2.0652 -57.9382,2.2276 -30.3477,0.091 -56.8797,-0.2423 -58.9601,-0.7411 z m 2695,-0.016 c -8.115,-1.9108 -18.2492,-9.0243 -24.6189,-17.2806 -2.975,-3.8562 -12.8686,-25.3682 -37.5662,-81.6813 -18.4401,-42.0456 -33.5261,-77.5715 -33.5244,-78.9465 0.01,-4.7813 2.1585,-10.211 5.4884,-13.8444 l 3.3502,-3.6556 h 58.8267 58.8267 l 5.4704,2.8785 c 6.4826,3.4112 17.2457,13.4424 20.6538,19.2493 5.3183,9.0616 66.6525,149.9828 67.1153,154.2036 0.9992,9.1139 -3.4938,17.0906 -10.8082,19.1883 -4.3034,1.2342 -107.9323,1.1324 -113.2138,-0.1113 z m 190.3154,-0.5093 c -3.0069,-0.8081 -7.607,-2.8424 -10.2224,-4.5207 -5.201,-3.3375 -15.0066,-13.4231 -17.2293,-17.7213 -0.7708,-1.4907 -15.2074,-34.1983 -32.0812,-72.6837 -16.8738,-38.4854 -31.5393,-71.8612 -32.5898,-74.1685 -3.8641,-8.4864 -1.3016,-20.2668 5.2817,-24.2805 3.2136,-1.9593 4.9145,-2.017 59.5206,-2.0207 53.6408,0 56.4544,0.087 61.5,1.982 6.3912,2.4002 15.8815,10.0081 21.1732,16.9734 2.7037,3.5588 13.6173,27.2325 35.8787,77.8277 17.5962,39.9923 32.6504,74.5858 33.4537,76.8745 3.1559,8.9915 -1.8877,19.9042 -10.2758,22.233 -2.6384,0.7325 -21.3068,1.0746 -56.4423,1.0343 -42.8879,-0.049 -53.501,-0.3292 -57.9671,-1.5295 z"
       id="path184" />
  </g>
</svg>
