<?xml version="1.0" encoding="UTF-8" standalone="no"?>
<!-- Created with Inkscape (http://www.inkscape.org/) -->

<svg
   version="1.1"
   id="svg59"
   width="2842"
   height="1790"
   viewBox="0 0 2842 1790"
   sodipodi:docname="heaven.svg"
   inkscape:version="1.2.1 (9c6d41e410, 2022-07-14)"
   xmlns:inkscape="http://www.inkscape.org/namespaces/inkscape"
   xmlns:sodipodi="http://sodipodi.sourceforge.net/DTD/sodipodi-0.dtd"
   xmlns="http://www.w3.org/2000/svg"
   xmlns:svg="http://www.w3.org/2000/svg">
  <defs
     id="defs63" />
  <sodipodi:namedview
     id="namedview61"
     pagecolor="#505050"
     bordercolor="#eeeeee"
     borderopacity="1"
     inkscape:showpageshadow="0"
     inkscape:pageopacity="0"
     inkscape:pagecheckerboard="0"
     inkscape:deskcolor="#505050"
     showgrid="false"
     inkscape:zoom="0.2301676"
     inkscape:cx="779.8665"
     inkscape:cy="629.97573"
     inkscape:window-width="1920"
     inkscape:window-height="1027"
     inkscape:window-x="-8"
     inkscape:window-y="-8"
     inkscape:window-maximized="1"
     inkscape:current-layer="g65" />
  <g
     inkscape:groupmode="layer"
     inkscape:label="Image"
     id="g65">
    <path
       style="fill:#000000;stroke-width:0.963592"
       d="M 47.791245,899.86165 V 37.446602 H 1417.0558 2786.3203 V 899.86165 1762.2767 H 1417.0558 47.791245 Z m 2731.783955,0 V 44.191747 H 1417.0558 54.53639 V 899.86165 1755.5316 H 1417.0558 2779.5752 Z M 1309.5129,1159.7471 c -44.0443,-31.3771 -81.6202,-58.1396 -83.502,-59.4721 l -3.4215,-2.4229 107.3535,-143.47846 c 59.0445,-78.91314 107.2439,-143.56582 107.11,-143.67262 -0.1339,-0.1068 -63.3347,1.45246 -140.4462,3.46504 -77.1114,2.01258 -153.0415,3.96917 -168.7334,4.34798 l -28.531,0.68874 -0.6141,-21.09957 c -1.1242,-38.61782 -2.8628,-153.60055 -2.3306,-154.13276 0.2883,-0.28834 86.5739,-0.21548 191.7456,0.16192 l 191.2212,0.68617 -1.2679,5.38624 c -2.0095,8.5367 -1.6638,25.30387 0.6974,33.82472 6.1111,22.05259 24.4165,39.89865 47.1478,45.96445 9.0581,2.41716 28.7101,2.13132 38.8462,-0.56503 15.2473,-4.05601 27.5424,-12.99612 37.8146,-27.49597 1.2649,-1.78543 1.4744,-1.75804 7.3685,0.96359 5.3098,2.45187 7.1755,2.80128 14.9569,2.80128 h 8.8902 l 0.4696,3.85437 c 0.2583,2.1199 0.7417,25.17651 1.0741,51.23692 l 0.6046,47.38257 -122.7047,204.31322 c -67.4876,112.3723 -122.9215,204.3128 -123.1865,204.3124 -0.265,-5e-4 -36.518,-25.6731 -80.5623,-57.0502 z m 456.3244,24.1334 c -0.021,-0.1325 -13.8404,-42.5185 -30.7092,-94.1912 -16.8687,-51.6726 -30.6186,-94.0108 -30.5552,-94.0848 0.6554,-0.7664 509.93,-163.18559 510.7173,-162.87946 1.1356,0.44154 50.2819,142.06274 49.5527,142.79204 -0.4829,0.483 -497.8683,208.60432 -498.5396,208.60432 -0.2349,0 -0.4446,-0.1084 -0.466,-0.2409 z M 833.40577,1008.4157 C 773.09579,932.90517 723.46028,871.19398 723.10472,871.27975 c -0.35557,0.0858 -42.80874,39.50953 -94.3404,87.60836 l -93.69383,87.45249 -3.08658,-4.5835 c -1.69756,-2.521 -26.17926,-39.9048 -54.40375,-83.0751 -34.69857,-53.07279 -51.04755,-78.88214 -50.48452,-79.69765 1.35221,-1.95846 308.76097,-228.83706 309.61934,-228.51007 0.83138,0.31669 228.07283,224.95728 305.63032,302.13227 l 45.8974,45.67115 -71.8602,73.4091 c -39.52309,40.375 -72.18916,73.5467 -72.59117,73.7149 -0.40201,0.1683 -50.07548,-61.4754 -110.38556,-136.986 z M 1731.1868,695.41847 v -83.6709 l 2.6499,0.0282 c 7.4375,0.0792 245.0837,16.1221 245.5373,16.57562 0.708,0.70805 2.6972,130.79658 2.0105,131.48329 -0.2946,0.29463 -54.4331,4.57068 -120.3078,9.50234 -65.8747,4.93166 -122.0486,9.14344 -124.831,9.3595 l -5.0589,0.39285 v -83.67091 z m -195.6092,21.27734 c -6.8648,-1.32312 -19.1142,-7.98389 -27.0001,-14.68159 -7.882,-6.69441 -12.1018,-13.61102 -14.9311,-24.47342 -2.0628,-7.91928 -1.8404,-22.44782 0.4826,-31.53048 2.6051,-10.18591 6.7423,-17.02616 15.5048,-25.63458 15.636,-15.36126 31.1587,-18.91297 51.8405,-11.86151 l 8.0703,2.75155 0.1832,18.79005 c 0.153,15.6857 0.5077,19.90442 2.1474,25.53519 4.0594,13.94073 9.7126,24.84957 17.1355,33.0658 l 3.4204,3.78601 -7.1145,6.75812 c -15.5253,14.74748 -32.6826,20.78231 -49.739,17.49486 z m 91.8012,-26.89089 c -10.626,-2.24962 -20.6201,-9.0297 -27.9356,-18.95181 -13.5577,-18.38838 -17.1114,-35.42884 -11.0312,-52.89449 4.4435,-12.7637 13.5099,-24.66689 22.6612,-29.75152 10.1044,-5.6142 17.2635,-7.57961 27.6088,-7.57961 13.6218,0 24.2519,4.15217 37.0983,14.49093 10.9486,8.8114 15.8972,20.37486 16.6011,38.79177 0.4044,10.58002 0.2051,12.80666 -1.6386,18.30826 -5.5064,16.43131 -18.7192,30.2413 -34.2344,35.78179 -6.4853,2.31592 -22.1352,3.28547 -29.1296,1.80468 z"
       id="path177" />
  </g>
</svg>
