<?xml version="1.0" encoding="UTF-8" standalone="no"?>
<!-- Created with Inkscape (http://www.inkscape.org/) -->

<svg
   version="1.1"
   id="svg59"
   width="2842"
   height="1790"
   viewBox="0 0 2842 1790"
   sodipodi:docname="heavenoutline.svg"
   inkscape:version="1.2.1 (9c6d41e410, 2022-07-14)"
   xmlns:inkscape="http://www.inkscape.org/namespaces/inkscape"
   xmlns:sodipodi="http://sodipodi.sourceforge.net/DTD/sodipodi-0.dtd"
   xmlns="http://www.w3.org/2000/svg"
   xmlns:svg="http://www.w3.org/2000/svg">
  <defs
     id="defs63" />
  <sodipodi:namedview
     id="namedview61"
     pagecolor="#505050"
     bordercolor="#eeeeee"
     borderopacity="1"
     inkscape:showpageshadow="0"
     inkscape:pageopacity="0"
     inkscape:pagecheckerboard="0"
     inkscape:deskcolor="#505050"
     showgrid="false"
     inkscape:zoom="0.2301676"
     inkscape:cx="1240.4005"
     inkscape:cy="721.21359"
     inkscape:window-width="1920"
     inkscape:window-height="1027"
     inkscape:window-x="-8"
     inkscape:window-y="-8"
     inkscape:window-maximized="1"
     inkscape:current-layer="g65" />
  <g
     inkscape:groupmode="layer"
     inkscape:label="Image"
     id="g65">
    <path
       style="fill:#000000;stroke-width:0.878641"
       d="M 160.75241,890.65533 V 104.27184 H 1409.301 2657.8496 V 890.65533 1677.0388 H 1409.301 160.75241 Z m 2490.94669,0 v -780.233 H 1409.301 166.9029 v 780.233 780.23297 H 1409.301 2651.6991 Z M 1373.6556,1193.7233 c -1.4831,-0.4308 -36.4553,-24.8104 -77.7162,-54.1768 -53.0632,-37.7666 -75.5017,-54.2217 -76.6666,-56.2233 -2.1331,-3.6647 -2.9336,-14.0762 -1.5822,-20.5782 0.9679,-4.657 6.227,-11.9028 87.0382,-119.91756 47.3046,-63.22856 85.9106,-115.05856 85.7914,-115.17776 -0.1192,-0.11921 -59.5009,1.30206 -131.9595,3.15837 -79.7663,2.04354 -134.4306,3.10359 -138.5555,2.68687 -12.9785,-1.31117 -15.9614,-4.49415 -17.4005,-18.56778 -1.2275,-12.00405 -3.4868,-148.25798 -2.599,-156.74127 1.4608,-13.95865 4.3277,-16.52271 19.9911,-17.87947 7.9265,-0.68658 252.8707,-0.47721 318.519,0.27227 17.3049,0.19756 28.7755,0.004 28.7755,-0.48525 0,-0.44757 1.4026,-3.00638 3.1169,-5.68625 7.4445,-11.63777 20.8054,-22.56453 32.2542,-26.37807 6.7051,-2.23347 8.2869,-2.41123 21.3012,-2.39388 12.0137,0.016 15.0806,0.31285 21.0874,2.04096 11.603,3.33804 10.864,3.47986 15.609,-2.9958 9.5074,-12.97491 25.0415,-20.542 45.3108,-22.07214 25.2749,-1.90799 52.0677,10.39843 62.907,28.89428 4.204,7.17358 8.2884,21.71838 8.5187,30.33526 l 0.1099,4.1161 0.7035,-3.95389 c 0.387,-2.17463 0.7329,-6.2079 0.7687,-8.96282 0.2142,-16.46663 5.6307,-21.7896 22.1728,-21.7896 8.8933,0 218.7323,14.00107 223.82,14.93391 9.7099,1.78035 12.645,5.34728 14.1534,17.20006 1.1508,9.04185 2.5443,107.31979 1.6705,117.80613 -1.0867,13.04131 -4.022,16.92076 -14.2164,18.78968 -6.9614,1.27622 -214.0929,16.67947 -224.8675,16.72219 -10.729,0.0425 -15.5171,-1.0824 -18.5505,-4.3583 -4.5503,-4.91407 -4.4796,-3.87611 -4.9737,-73.02086 -0.2538,-35.51905 -0.7243,-61.55722 -1.0457,-57.86259 -1.9503,22.42392 -18.0763,43.5566 -38.9545,51.04899 -3.3828,1.21394 -7.8774,2.49544 -9.988,2.84778 l -3.8375,0.6406 0.559,15.94052 c 1.1185,31.89787 0.9986,76.2452 -0.2207,81.6472 -0.947,4.19557 -13.8615,26.23275 -74.1474,126.52427 -40.1503,66.79415 -90.4448,150.50495 -111.7655,186.02395 -44.7533,74.5561 -40.0113,68.5992 -54.4937,68.4547 -4.3677,-0.044 -9.1547,-0.4317 -10.6376,-0.8625 z m 19.8715,-6.1889 c 1.0082,-0.6694 51.8468,-84.4181 112.9746,-186.1083 82.9421,-137.97974 111.4741,-186.13313 112.4528,-189.78607 1.093,-4.07975 1.2295,-10.01605 0.8197,-35.64732 -0.2705,-16.91383 -0.7191,-38.50657 -0.997,-47.98386 l -0.5052,-17.23144 5.125,-0.58957 c 20.3286,-2.33857 38.8668,-18.02463 45.7186,-38.68449 2.1638,-6.52433 2.3526,-8.23426 2.3355,-21.15627 -0.021,-16.20787 -1.5203,-23.46466 -7.0006,-33.89378 -5.4006,-10.27734 -18.3628,-20.28987 -32.414,-25.03786 -9.0148,-3.04615 -24.7624,-3.90135 -34.2671,-1.86093 -17.3906,3.73337 -26.3491,9.88401 -37.0903,25.46517 l -2.8233,4.09552 -4.2058,-2.10332 c -13.0192,-6.51097 -36.674,-7.9996 -49.6959,-3.12746 -11.9369,4.46617 -27.0052,18.69434 -31.7507,29.98032 l -1.122,2.66856 -135.2288,-0.28971 c -231.8623,-0.49674 -220.7769,-0.5691 -224.8502,1.46757 -6.1034,3.05168 -5.9629,0.20213 -4.371,88.69306 0.7732,42.98216 1.7797,80.12118 2.2367,82.53115 0.4571,2.40997 1.4651,5.08233 2.2399,5.93859 3.3408,3.69157 4.133,3.69097 151.098,-0.11319 77.1356,-1.99665 140.3756,-3.5011 140.5335,-3.34325 0.1579,0.15786 -40.0415,54.19067 -89.3318,120.0729 -85.4701,114.24078 -89.6545,120.00478 -90.3885,124.51468 -1.0567,6.4923 0.1196,13.2166 2.7471,15.7052 4.6084,4.3646 148.9468,106.2715 151.4323,106.9155 3.8976,1.0098 14.2011,0.3211 16.3285,-1.0914 z m -82.2879,-59.9054 c -40.1613,-28.6108 -74.4245,-53.0139 -76.1404,-54.229 l -3.1198,-2.2092 97.8891,-130.82932 c 53.839,-71.95607 97.7892,-130.90889 97.667,-131.00627 -0.1221,-0.0974 -57.751,1.32441 -128.0642,3.15956 -70.3133,1.83514 -139.5493,3.61924 -153.8578,3.96465 l -26.0156,0.62802 -0.56,-19.2394 c -1.025,-35.21323 -2.6104,-140.05895 -2.1251,-140.54423 0.2629,-0.26292 78.9414,-0.19649 174.8411,0.14764 l 174.363,0.62568 -1.1562,4.91138 c -1.8324,7.78409 -1.5171,23.07306 0.6359,30.84269 5.5724,20.10841 22.264,36.38114 42.9912,41.91217 8.2596,2.20406 26.179,1.94342 35.4215,-0.51522 13.903,-3.69842 25.1142,-11.85036 34.4808,-25.07189 1.1534,-1.62802 1.3444,-1.60304 6.7189,0.87864 4.8417,2.23571 6.5429,2.55432 13.6382,2.55432 h 8.1066 l 0.4281,3.51456 c 0.2356,1.93301 0.6763,22.95692 0.9795,46.71981 l 0.5512,43.20527 -111.8869,186.3007 c -61.5378,102.46544 -112.0847,186.30034 -112.3263,186.29994 -0.2416,-5e-4 -33.2985,-23.4097 -73.4598,-52.0205 z m 206.1346,-403.99139 c -6.2596,-1.20647 -17.4291,-7.28002 -24.6198,-13.38725 -7.1871,-6.10421 -11.0348,-12.41105 -13.6147,-22.3158 -1.8809,-7.22111 -1.6781,-20.4688 0.44,-28.75072 2.3755,-9.28791 6.148,-15.52511 14.1379,-23.3746 14.2575,-14.00699 28.4117,-17.24558 47.2703,-10.81579 l 7.3587,2.50897 0.1671,17.13349 c 0.1395,14.30284 0.4629,18.14963 1.958,23.28399 3.7016,12.7117 8.8564,22.6588 15.6249,30.15068 l 3.1188,3.45223 -6.4872,6.16231 c -14.1566,13.44733 -29.8013,18.95012 -45.354,15.95249 z m 83.7079,-24.52015 c -9.6892,-2.05129 -18.8022,-8.23364 -25.4727,-17.281 -12.3625,-16.76724 -15.6029,-32.30539 -10.0587,-48.23125 4.0517,-11.63844 12.3188,-22.49223 20.6633,-27.12858 9.2136,-5.11926 15.7415,-6.91139 25.1748,-6.91139 12.4209,0 22.1138,3.78611 33.8277,13.21339 9.9834,8.03458 14.4957,18.57859 15.1376,35.37185 0.3686,9.64726 0.1869,11.6776 -1.4942,16.69417 -5.021,14.98271 -17.0689,27.57519 -31.2162,32.62723 -5.9136,2.11174 -20.1838,2.99582 -26.5616,1.64558 z m 212.0805,83.90359 c 61.2038,-4.59132 112.8044,-8.75843 114.6679,-9.26023 4.1554,-1.11894 6.1473,-3.94961 7.0063,-9.95659 0.9118,-6.37711 -0.8274,-117.76145 -1.9245,-123.24359 -1.0088,-5.04108 -2.6814,-6.99469 -7.0687,-8.25613 -3.5934,-1.03317 -212.1395,-14.90646 -224.077,-14.90646 -10.5454,0 -13.3164,0.91996 -15.4026,5.11336 -1.516,3.04746 -1.6239,7.67275 -1.8725,80.29621 -0.2556,74.65831 -0.077,81.16115 2.3284,84.8853 1.0895,1.68667 7.0281,3.59295 11.3318,3.63744 2.0521,0.0212 53.8072,-3.71798 115.0109,-8.30931 z m -117.4243,-78.78494 v -76.29437 l 2.4163,0.0257 c 6.7818,0.0722 223.4768,14.70076 223.8904,15.1143 0.6456,0.64563 2.4594,119.26539 1.8333,119.89157 -0.2687,0.26865 -49.6343,4.16771 -109.7014,8.6646 -60.067,4.49687 -111.2886,8.33734 -113.8257,8.53435 l -4.6129,0.35822 V 704.2361 Z m 25.5863,460.48519 c -4.7913,-0.9413 -7.6054,-2.7429 -9.249,-5.9212 -0.6997,-1.353 -13.4428,-39.603 -28.3179,-85.0001 l -27.0458,-82.54034 -0.037,-11.136 c -0.04,-12.2768 0.7163,-14.4173 6.2058,-17.5568 1.3992,-0.8003 105.9381,-34.57843 232.3086,-75.06259 l 229.7646,-73.60759 9.0531,-0.38227 c 10.8935,-0.45997 15.8107,0.9668 18.5113,5.37134 0.9431,1.53795 11.5051,31.06655 23.471,65.6191 l 21.7564,62.82281 0.068,10.10437 c 0.079,11.76633 -1.151,14.95213 -7.0063,18.14953 -1.9084,1.042 -103.8578,43.87304 -226.5543,95.18004 -146.7565,61.3679 -224.7689,93.5612 -228.0073,94.0917 -5.7657,0.9445 -9.6152,0.9105 -14.9213,-0.132 z m 241.9598,-100.0295 c 153.2784,-64.1565 225.5216,-94.80594 226.7828,-96.21304 2.3186,-2.5869 3.2271,-9.05543 2.174,-15.47933 -0.8102,-4.94235 -41.7745,-124.84055 -44.3632,-129.84665 -1.8097,-3.49964 -6.7208,-4.93353 -14.5766,-4.25588 -8.7673,0.75626 -466.1504,147.41506 -469.1941,150.44596 -2.0307,2.0221 -2.1948,2.7998 -2.1727,10.2948 l 0.024,8.1075 27.0921,83.03164 c 14.9007,45.6673 27.6642,83.9423 28.3635,85.0556 1.9317,3.0755 4.3955,3.7075 13.0306,3.342 l 7.9077,-0.3347 224.9321,-94.1479 z m -235.9504,84.9429 c -0.019,-0.1208 -12.6203,-38.77 -28.0019,-85.8871 -15.3815,-47.1171 -27.9192,-85.72274 -27.8614,-85.79034 0.5977,-0.6987 464.974,-148.79884 465.6918,-148.5197 1.0355,0.40261 45.8491,129.53834 45.1841,130.20332 -0.4403,0.44038 -453.9756,190.21342 -454.5877,190.21342 -0.2142,0 -0.4054,-0.099 -0.4249,-0.2196 z m -755.31815,-20.0691 c -2.98848,-0.2863 -6.46024,-1.1932 -7.71505,-2.0154 -1.25479,-0.8222 -44.20739,-53.9657 -95.45025,-118.0965 -51.24286,-64.13102 -93.67031,-116.60177 -94.28316,-116.60177 -0.61285,0 -35.43251,32.02646 -77.37707,71.16993 -41.94446,39.14344 -77.69301,71.93094 -79.44107,72.86094 -3.99676,2.1263 -15.61564,2.89 -21.19062,1.3929 -2.6042,-0.6994 -4.93418,-2.1568 -6.82581,-4.2695 -2.96286,-3.3092 -93.81598,-141.89292 -97.14085,-148.17472 -1.55378,-2.93567 -1.86781,-5.06179 -1.88327,-12.74896 -0.0132,-6.60601 0.37974,-10.10278 1.38421,-12.31441 1.16086,-2.55595 25.48339,-20.89279 141.01797,-106.31367 76.78837,-56.77374 141.19678,-104.01038 143.12979,-104.9703 5.11193,-2.53855 18.59863,-2.4446 24.16262,0.16832 2.98914,1.40373 42.54361,40.04431 162.10924,158.36392 88.06177,87.14406 158.93417,157.95358 159.91257,159.77088 1.4386,2.6716 1.7573,4.9374 1.7573,12.4894 0,7.578 -0.3138,9.7947 -1.7573,12.4115 -2.1611,3.9181 -129.13724,133.81714 -132.21929,135.26314 -3.11212,1.4601 -11.77463,2.2288 -18.18996,1.6143 z m 13.42989,-6.0877 c 2.74286,-0.9648 129.86736,-130.23144 132.08086,-134.30654 0.7674,-1.4127 1.2519,-4.8557 1.2519,-8.8947 0,-4.0153 -0.4891,-7.51 -1.2519,-8.9452 -1.9664,-3.6995 -317.18455,-315.2515 -320.39001,-316.66359 -3.71129,-1.63497 -14.88074,-1.62248 -18.02962,0.0201 -1.32305,0.69018 -65.11932,47.62059 -141.76956,104.28979 -94.30487,69.72165 -139.65635,103.75915 -140.26806,105.2749 -1.62109,4.01708 -1.12598,15.39006 0.8131,18.67657 7.88632,13.36629 96.78544,147.87777 98.4567,148.97287 2.81358,1.8435 14.60275,1.9413 17.89352,0.1484 1.26384,-0.6885 37.80035,-34.38274 81.19238,-74.8761 43.39194,-40.49324 79.40329,-73.50817 80.0252,-73.3665 0.6219,0.14166 43.95382,53.83149 96.29314,119.3109 52.33931,65.4793 96.15082,119.5427 97.35895,120.1412 2.66436,1.3196 12.82576,1.4551 16.3434,0.2179 z M 877.10621,989.63916 C 822.11323,920.78569 776.85365,864.51504 776.52943,864.59325 c -0.32422,0.0782 -39.03467,36.02632 -86.02324,79.8847 l -85.43366,79.74255 -2.81447,-4.1794 c -1.5479,-2.2987 -23.87126,-36.38674 -49.60744,-75.75109 -31.6395,-48.39383 -46.54714,-71.9278 -46.03375,-72.67142 1.233,-1.78579 281.54023,-208.6625 282.32292,-208.36434 0.75809,0.28878 207.96567,205.12478 278.68561,275.49593 l 41.8511,41.64468 -65.525,66.93734 c -36.0387,36.8155 -65.82489,67.0627 -66.19146,67.2162 -0.36656,0.1534 -45.66076,-56.0557 -100.65383,-124.90924 z"
       id="path177" />
  </g>
</svg>
