<?xml version="1.0" encoding="UTF-8" standalone="no"?>
<!-- Created with Inkscape (http://www.inkscape.org/) -->

<svg
   version="1.1"
   id="svg217"
   width="3000"
   height="1800"
   viewBox="0 0 3000 1800"
   sodipodi:docname="psalm4610.svg"
   inkscape:version="1.2.1 (9c6d41e410, 2022-07-14)"
   xmlns:inkscape="http://www.inkscape.org/namespaces/inkscape"
   xmlns:sodipodi="http://sodipodi.sourceforge.net/DTD/sodipodi-0.dtd"
   xmlns="http://www.w3.org/2000/svg"
   xmlns:svg="http://www.w3.org/2000/svg">
  <defs
     id="defs221" />
  <sodipodi:namedview
     id="namedview219"
     pagecolor="#505050"
     bordercolor="#eeeeee"
     borderopacity="1"
     inkscape:showpageshadow="0"
     inkscape:pageopacity="0"
     inkscape:pagecheckerboard="0"
     inkscape:deskcolor="#505050"
     showgrid="false"
     inkscape:zoom="0.40333333"
     inkscape:cx="1501.2397"
     inkscape:cy="900"
     inkscape:window-width="1920"
     inkscape:window-height="1027"
     inkscape:window-x="-8"
     inkscape:window-y="-8"
     inkscape:window-maximized="1"
     inkscape:current-layer="g223" />
  <g
     inkscape:groupmode="layer"
     inkscape:label="Image"
     id="g223">
    <path
       style="fill:#000000"
       d="m 707.75207,1028.9614 c 0,-2.4917 0.5492,-2.9914 4.67123,-4.25 2.86277,-0.8741 5.46943,-2.5105 6.73294,-4.2268 l 2.06171,-2.8004 -2.80765,-5.1996 c -2.30581,-4.2701 -2.62925,-5.6666 -1.80954,-7.8131 2.87828,-7.53701 12.58506,-3.7826 13.79075,5.334 1.42799,10.7974 -8.84992,21.7796 -20.38284,21.7796 -1.80936,0 -2.2566,-0.5596 -2.2566,-2.8237 z M 347.4733,1015.4278 c -9.65033,-2.7224 -14.10856,-9.8462 -14.17045,-22.64268 -0.0331,-6.85013 0.37691,-9.27641 2.11248,-12.5 5.66119,-10.51495 16.06319,-14.82796 26.65294,-11.05119 7.47401,2.66557 11.40208,8.72847 12.36991,19.0927 l 0.6031,6.45849 h -16.64461 -16.6446 l 0.004,2.75 c 0.006,4.15898 3.56819,9.17268 7.76816,10.93228 3.7439,1.5686 16.3451,1.4458 20.4781,-0.1996 1.46548,-0.5834 1.75,-0.1292 1.75,2.7937 0,4.1086 -0.76248,4.4392 -12,5.204 -4.77451,0.325 -9.2366,0.02 -12.27877,-0.8377 z m 18.27877,-30.24268 c 0,-2.76078 -0.79259,-4.39259 -3.4,-7 -2.95158,-2.95158 -4.05338,-3.4 -8.35398,-3.4 -5.46609,0 -9.39283,2.62573 -11.25621,7.52679 -2.41075,6.34077 -2.18548,6.47321 11.01019,6.47321 h 12 z m 83,30.99658 c -7.01219,-1.2803 -7,-1.2716 -7,-5.0323 0,-3.2505 0.21706,-3.5369 2.25,-2.9686 1.2375,0.346 5.625,0.9042 9.75,1.2405 9.82457,0.801 15,-1.0725 15,-5.4302 0,-3.7796 -2.16277,-5.58419 -9.59888,-8.00931 -12.12713,-3.95499 -16.59144,-7.67769 -16.75651,-13.97291 -0.17787,-6.78385 5.35492,-12.37209 13.63425,-13.77087 2.17055,-0.36671 7.27076,-0.35524 11.3338,0.0255 l 7.38734,0.69225 v 3.80937 3.80937 l -3.75,-0.87083 c -5.47239,-1.27081 -14.3696,-1.08049 -17.25,0.369 -1.7316,0.87138 -2.5949,2.23105 -2.80877,4.42369 -0.37616,3.85664 1.43831,5.22126 11.02189,8.28928 11.89554,3.80815 16.26224,8.15777 15.40802,15.34776 -0.53135,4.4725 -3.64536,8.1985 -8.62114,10.3154 -3.57596,1.5214 -15.49984,2.5545 -20,1.7329 z m 65.71897,-0.3596 c -10.59139,-2.0512 -12.71897,-6.3757 -12.71897,-25.8527 v -14.18428 h -6.5 -6.5 v -3.5 -3.5 h 6.5 6.5 v -6.43261 c 0,-5.57682 0.26608,-6.5081 2,-7 1.1,-0.31207 2.9,-0.82271 4,-1.13478 1.87379,-0.53158 2,-0.0898 2,7 v 7.56739 h 10.5 10.5 v 3.5 3.5 h -10.5 -10.5 v 13.04966 c 0,15.52702 0.9458,18.25462 6.95399,20.05472 2.82152,0.8453 5.37861,0.8972 8.99418,0.1823 l 5.05183,-0.9989 v 3.3875 c 0,1.8631 -0.5625,3.5621 -1.25,3.7755 -2.9799,0.9248 -11.5555,1.2593 -15.03103,0.5862 z m 301.49339,-1.0269 c -8.94277,-4.0588 -9.76103,-16.92289 -1.45274,-22.83891 3.23163,-2.30113 12.22275,-4.17117 20.05488,-4.17117 h 5.44718 l -0.58513,-3.60577 c -0.88397,-5.44726 -3.14877,-8.20459 -7.39304,-9.00082 -3.43871,-0.64511 -11.61854,0.37056 -17.03351,2.11501 -2.04849,0.65993 -2.25,0.40515 -2.25,-2.84478 0,-3.27122 0.3135,-3.65758 3.75,-4.62165 15.89006,-4.45777 27.92989,-0.64541 30.30627,9.59637 0.49281,2.1239 0.90675,11.17414 0.91987,20.11164 l 0.0239,16.24998 h -4 c -3.79261,0 -4,-0.1582 -4,-3.0509 v -3.0509 l -3.25,2.4527 c -3.42815,2.5872 -9.56259,4.649 -13.75,4.6216 -1.375,-0.01 -4.42944,-0.8921 -6.78764,-1.9624 z m 19.12899,-8.7896 c 3.55837,-2.5709 4.20304,-3.5975 4.46615,-7.11252 l 0.3075,-4.10796 h -8.42264 c -10.50867,0 -13.69236,1.86382 -13.69236,8.01588 0,7.6407 8.91984,9.2891 17.34135,3.2046 z m 87.67848,8.5295 c -5.14895,-2.6306 -7.64999,-6.8334 -8.99899,-15.12193 -2.00125,-12.29616 2.58447,-24.00507 11.1222,-28.39874 3.71153,-1.91002 6.12966,-2.37235 12.24108,-2.34045 l 7.61588,0.0398 v -9.46432 -9.46431 h 4 4 v 33 33.00005 h -3.5 c -3.44394,0 -3.5,-0.067 -3.5,-4.1962 v -4.1962 l -3.25,3.1455 c -3.56623,3.4515 -9.38607,6.2468 -13.00599,6.2468 -1.27613,0 -4.30201,-1.0125 -6.72418,-2.25 z m 13.50529,-6.7655 c 1.79365,-1.1085 4.4491,-3.573 5.901,-5.4765 2.54125,-3.33176 2.62926,-3.88193 2.35685,-14.73449 l -0.28297,-11.27349 -4.73086,-0.91402 c -6.38405,-1.23343 -11.65298,0.41985 -14.79771,4.64321 -1.93983,2.60519 -2.51367,4.77468 -2.81981,10.66073 -0.46029,8.84999 0.97385,14.27706 4.50731,17.05646 3.28376,2.583 5.73316,2.5925 9.86619,0.038 z m 202.83311,8.0616 c -5.1566,-1.2297 -9.7807,-4.6789 -12.3963,-9.2467 -2.1414,-3.7396 -2.4619,-5.5362 -2.4619,-13.79938 0,-8.5849 0.2675,-9.95499 2.7766,-14.22342 9.0446,-15.38647 33.1569,-13.59344 38.8326,2.88765 1.931,5.60721 1.7201,15.97745 -0.4387,21.57515 -3.8788,10.0575 -15.0468,15.4931 -26.3123,12.8067 z m 13.452,-8.0717 c 4.3759,-2.6679 6.4396,-7.86476 6.3966,-16.1076 -0.041,-7.79258 -1.9002,-12.07173 -6.5053,-14.97026 -4.4117,-2.77672 -11.9422,-1.99812 -15.7248,1.62582 -6.28,6.01664 -6.6887,20.85114 -0.7506,27.24714 4.3194,4.6525 11.0925,5.553 16.5841,2.2049 z m 153.4103,7.9628 c -5.9513,-1.1723 -9.9474,-4.2928 -11.1798,-8.7303 -0.5663,-2.0388 -1.0321,-9.89438 -1.0351,-17.45688 l -0.01,-13.75 h -6.5 -6.5 v -3.5 -3.5 h 6.5 6.5 v -6.40217 c 0,-6.28188 0.059,-6.42281 3.1492,-7.5 1.7321,-0.60381 3.5321,-1.09783 4,-1.09783 0.468,0 0.8508,3.375 0.8508,7.5 v 7.5 h 10.5 10.5 v 3.5 3.5 h -10.5738 -10.5737 l 0.3237,14.39821 c 0.2781,12.36377 0.5873,14.68897 2.189,16.45597 2.3135,2.5525 8.7653,3.5934 14.3848,2.3209 l 4.25,-0.9625 v 3.4251 c 0,1.8838 -0.5625,3.5997 -1.25,3.8131 -3.1689,0.9835 -11.6565,1.2494 -15.5295,0.4864 z m 92.1124,-0.034 c -5.2361,-1.5159 -8.3329,-6.1251 -8.3329,-12.4027 0,-4.35124 0.5032,-5.94459 2.7033,-8.55923 3.699,-4.39604 7.7317,-5.85147 18.2894,-6.60088 l 9.0073,-0.63936 v -3.21539 c 0,-4.40007 -3.2754,-8.25855 -7.7179,-9.09198 -3.2445,-0.60866 -10.782,0.35739 -17.0321,2.18293 -2.0288,0.59258 -2.25,0.31438 -2.25,-2.82948 0,-3.29969 0.2547,-3.56048 4.75,-4.86303 6.8915,-1.9969 18.9624,-1.76913 23.0442,0.43484 6.5573,3.54054 7.1979,5.9361 7.2021,26.9316 v 18.74998 h -3.5 c -3.2143,0 -3.5,-0.2424 -3.5,-2.9698 v -2.9699 l -3.6185,2.4556 c -6.1425,4.1684 -12.4658,5.2927 -19.0486,3.3868 z m 14.4569,-7.8801 c 6.4078,-3.4153 7.2102,-4.4149 7.2102,-8.9823 v -4.23926 l -8.9654,0.3495 c -9.8353,0.38341 -11.5668,1.26064 -12.5904,6.37866 -0.4405,2.2024 -0.027,3.731 1.5502,5.7366 2.6501,3.369 7.3705,3.6482 12.7954,0.7568 z m 52.0463,8.0439 c -4.5633,-0.9013 -8.2785,-3.286 -10.5722,-6.7861 -1.4431,-2.2021 -1.8288,-5.4735 -2.1208,-17.98604 l -0.3568,-15.29434 h -6.3932 -6.3931 v -3.5 -3.5 h 6.5 6.5 v -6.43261 c 0,-5.57682 0.2661,-6.5081 2,-7 6.4215,-1.82174 5.8846,-2.30883 6.2051,5.62947 l 0.2949,7.30314 10.75,0.28383 10.75,0.28383 v 3.46617 3.46617 h -11 -11 l 0.01,11.75 c 0.01,15.31978 1.0055,18.93888 5.7731,20.93088 3.4514,1.4421 10.5372,1.2863 14.7335,-0.3239 1.1448,-0.4393 1.4878,0.247 1.4878,2.977 0,1.9514 -0.3375,3.7405 -0.75,3.9758 -1.612,0.9194 -12.9447,1.4418 -16.4139,0.7567 z m 197.4968,-0.1082 c -5.2675,-1.6175 -8.3329,-6.2005 -8.3329,-12.4583 0,-4.35124 0.5032,-5.94459 2.7033,-8.55923 3.699,-4.39604 7.7317,-5.85147 18.2894,-6.60088 l 9.0073,-0.63936 v -3.21539 c 0,-4.40007 -3.2754,-8.25855 -7.7179,-9.09198 -3.2445,-0.60866 -10.782,0.35739 -17.0321,2.18293 -2.0288,0.59258 -2.25,0.31438 -2.25,-2.82948 0,-3.29969 0.2547,-3.56048 4.75,-4.86303 6.8915,-1.9969 18.9624,-1.76913 23.0442,0.43484 6.5573,3.54054 7.1979,5.9361 7.2021,26.9316 v 18.74998 h -3.5 c -3.2114,0 -3.5,-0.244 -3.5,-2.9587 v -2.9587 l -4.7966,2.9818 c -5.3123,3.3023 -12.6637,4.4928 -17.8705,2.8939 z m 13.4356,-7.506 c 5.8952,-2.4632 8.2315,-5.2237 8.2315,-9.72607 v -3.92519 l -9.089,0.3495 c -8.1226,0.31234 -9.2922,0.60051 -11,2.71028 -2.5233,3.11718 -2.4201,6.96838 0.2633,9.82478 2.5552,2.7199 6.3232,2.9691 11.5942,0.7667 z m 152.949,7.5174 c -5.6184,-1.4139 -9.0569,-3.4532 -12.5712,-7.4558 -5.4105,-6.1623 -6.5046,-9.82291 -6.5791,-22.01386 -0.062,-10.07759 0.1659,-11.47467 2.7126,-16.66054 5.5355,-11.27212 15.3409,-16.60345 28.6452,-15.57479 3.6163,0.2796 7.8125,0.99829 9.325,1.5971 2.3641,0.93597 2.75,1.65344 2.75,5.11348 0,4.35977 -0.1775,4.53528 -3.0388,3.00397 -1.0491,-0.56143 -4.2022,-1.456 -7.0071,-1.98792 -15.0994,-2.86355 -25.1541,6.52952 -25.1541,23.49899 0,16.27857 5.9375,23.57927 19.2279,23.64287 3.2461,0.015 6.3678,-0.2596 6.937,-0.6115 0.5952,-0.3678 1.0351,-4.6522 1.0351,-10.08068 v -9.44098 h -6.5 -6.5 v -3.5 -3.5 h 10.5254 10.5254 l -0.2754,15.74674 -0.2754,15.74672 -4,1.3119 c -5.367,1.7603 -15.1307,2.3349 -19.7825,1.1643 z m 49.5271,0.053 c -4.835,-1.1473 -9.8426,-4.9733 -12.4413,-9.5057 -1.9609,-3.4199 -2.3033,-5.4296 -2.3033,-13.51716 0,-8.5849 0.2675,-9.95499 2.7766,-14.22342 6.4804,-11.02428 23.1834,-14.15055 32.7218,-6.12449 9.7797,8.22912 10.4683,27.29112 1.3505,37.38357 -5.1945,5.7496 -13.5582,8.015 -22.1043,5.9872 z m 13.5656,-8.0485 c 4.3281,-2.6388 6.4345,-7.86977 6.4481,-16.01366 0.02,-11.59957 -5.2875,-17.55128 -14.7583,-16.55128 -3.8967,0.41144 -5.5932,1.18508 -7.6883,3.50596 -7.7416,8.57598 -5.5719,26.30028 3.6883,30.13058 3.5454,1.4665 8.9137,0.9992 12.3102,-1.0716 z m 34.2096,6.7756 c -7.1563,-3.6561 -10.9224,-14.55986 -9.0348,-26.15756 2.2579,-13.87331 9.374,-19.77225 23.765,-19.70012 l 7.25,0.0363 v -9.46432 -9.46431 h 4 4 v 33 33.00001 h -3.5 c -3.4439,0 -3.5,-0.067 -3.5,-4.1962 v -4.1961 l -3.25,3.1454 c -3.5662,3.4516 -9.3861,6.2469 -13.006,6.2469 -1.2761,0 -4.302,-1.0125 -6.7242,-2.25 z m 13.5053,-6.7655 c 1.7937,-1.1085 4.4343,-3.5535 5.8681,-5.4333 2.4429,-3.20286 2.6068,-4.10728 2.6068,-14.38661 v -10.9689 l -3.1492,-1.09782 c -6.7334,-2.34726 -13.254,-0.73162 -16.9334,4.19564 -1.9372,2.59422 -2.4652,4.69985 -2.765,11.02667 -0.723,15.25872 5.3166,22.26132 14.3727,16.66432 z m 46.7961,7.8268 c -1.1984,-0.5793 -2.741,-2.4106 -3.4282,-4.0695 -1.5233,-3.6778 0.1267,-7.3371 4.3816,-9.7172 2.4421,-1.3661 3.0087,-1.3661 5.4508,0 4.2503,2.3775 5.9046,6.0402 4.3852,9.7085 -1.1766,2.8405 -4.7503,5.3488 -7.4077,5.1993 -0.6616,-0.037 -2.1834,-0.5417 -3.3817,-1.1211 z m 310.1788,0.5147 c -7.0975,-0.8857 -7.5,-1.152 -7.5,-4.9616 0,-3.404 0.1479,-3.5651 2.75,-2.9949 5.7113,1.2517 15.1448,1.8729 18.5993,1.2248 4.3608,-0.8181 6.6507,-2.9331 6.6507,-6.1426 0,-3.0081 -2.608,-4.75724 -11.7082,-7.8524 -8.5992,-2.92478 -11.9444,-5.0267 -13.8429,-8.6981 -4.3294,-8.37212 1.6493,-16.61398 13.417,-18.4957 2.2271,-0.35614 6.9934,-0.33225 10.5917,0.0531 l 6.5424,0.70063 v 3.81509 3.8151 l -3.75,-0.87083 c -6.99,-1.62325 -14.729,-1.11624 -17.6151,1.15403 -5.511,4.33488 -2.2635,8.22173 10.3902,12.43578 4.5472,1.51435 9.2087,3.84177 10.9472,5.46574 2.6192,2.44668 3.0277,3.52966 3.0277,8.02586 0,4.5209 -0.4029,5.574 -3.0942,8.0881 -5.1068,4.7704 -14.1733,6.6396 -25.4058,5.2379 z m 51.5,-0.7335 c -5.3921,-1.934 -8.2743,-6.8949 -7.7562,-13.3501 0.7353,-9.16103 6.2569,-12.87382 20.667,-13.89667 l 9.0892,-0.64518 v -3.26847 c 0,-4.64285 -0.8476,-6.30189 -4.0715,-7.96903 -4.1406,-2.14117 -11.0879,-1.80579 -19.6785,0.94999 -2.0397,0.65431 -2.25,0.39747 -2.25,-2.74779 0,-2.98043 0.4368,-3.62182 3.0982,-4.5496 5.1953,-1.81108 15.0972,-2.41641 19.6063,-1.19858 10.4181,2.81375 12.2955,7.64362 12.2955,31.63223 v 15.4507 h -4 c -3.7688,0 -4,-0.1716 -4,-2.9698 v -2.9699 l -3.6185,2.4556 c -6.4304,4.3638 -12.9206,5.394 -19.3815,3.0766 z m 16.75,-8.6221 c 5.104,-2.9271 5.25,-3.1354 5.25,-7.49059 v -4.47977 h -7.4529 c -4.0992,0 -8.5688,0.50837 -9.9325,1.12972 -3.2985,1.50294 -5.0105,5.69874 -3.7152,9.10574 2.1086,5.5459 8.068,6.1982 15.8506,1.7349 z m 253.75,9.1484 c -4.6369,-1.1924 -7.2041,-2.8582 -9.8356,-6.3822 -3.9346,-5.269 -5.1484,-10.38243 -5.0412,-21.23656 0.2178,-22.03466 8.8856,-32.15292 28.502,-33.27139 l 8.8748,-0.50602 v 3.6387 3.63871 h -6.3508 c -10.7328,0 -17.5792,3.43284 -20.7438,10.40107 -1.0238,2.25441 -1.8714,5.31347 -1.8834,6.7979 l -0.022,2.69898 3.75,-1.60949 c 2.0625,-0.88521 6.675,-1.64975 10.25,-1.69897 8.1974,-0.11286 13.5674,2.45409 16.7335,7.99892 3.8031,6.66015 2.5897,18.07925 -2.5216,23.73145 -4.1973,4.6413 -14.9969,7.5257 -21.7119,5.7989 z m 12.4148,-7.5747 c 6.8856,-3.5607 8.0552,-15.50117 2.0445,-20.87175 -2.9272,-2.61542 -3.775,-2.8524 -8.8483,-2.47328 -7.7441,0.57871 -11.5243,2.55638 -11.9459,6.24955 -1.1747,10.29158 4.0723,18.55138 11.7846,18.55138 2.2823,0 5.4166,-0.6551 6.9651,-1.4559 z m 42.5852,7.261 c -2.7856,-1.5796 -3.467,-2.8312 -3.4847,-6.4001 -0.035,-6.9769 9.9267,-9.21729 12.8133,-2.8819 1.7335,3.8046 1.4573,5.3075 -1.4746,8.0247 -2.8961,2.684 -4.8005,2.9888 -7.854,1.2573 z m 102.6228,0.2404 c -6.5108,-1.6288 -11.9518,-7.4766 -14.3716,-15.4465 -0.6911,-2.27628 -1.2337,-9.21266 -1.2202,-15.59896 0.022,-10.20003 0.3133,-12.12241 2.5797,-17.00609 4.8263,-10.3996 11.3849,-14.61511 21.4412,-13.78117 7.5367,0.62501 12.5079,4.17165 16.0996,11.48627 2.7065,5.51175 2.8485,6.47771 2.8485,19.37332 0,13.12305 -0.1,13.76727 -3.0125,19.46123 -4.9501,9.6765 -14.2107,14.052 -24.3647,11.5119 z m 14.0254,-9.6875 c 3.8477,-3.6862 6.0275,-11.37396 5.6493,-19.92369 l -0.2975,-6.72694 -12.5,9.28506 c -6.875,5.10678 -12.6389,9.39899 -12.8086,9.53825 -0.1697,0.13925 0.3657,1.86702 1.1898,3.83942 3.2318,7.7347 12.746,9.7565 18.767,3.9879 z m -10.7779,-23.74256 c 16.3506,-11.91967 15.2013,-10.60857 13.1284,-14.97683 -4.6064,-9.70725 -17.0417,-8.53643 -21.5714,2.03102 -1.9257,4.49252 -3.8349,20.33041 -2.4508,20.33041 0.4203,0 5.3225,-3.32307 10.8938,-7.3846 z m -2497.37033,2.78868 v -30.59589 l 13.75,0.36842 c 10.7538,0.28813 14.46783,0.75542 17.04422,2.14444 9.16888,4.94325 9.77364,19.74832 0.99218,24.28939 l -3.17974,1.64431 3.44771,1.76878 c 5.45032,2.79618 7.2348,5.41826 7.72703,11.35398 0.55656,6.71135 -1.55724,11.50735 -6.60501,14.98625 -4.96504,3.4218 -10.73607,4.5827 -22.92639,4.6118 l -10.25,0.024 z m 26,21.84438 c 7.38815,-3.6908 7.12254,-14.62803 -0.43189,-17.78447 -1.92713,-0.80521 -6.44333,-1.46401 -10.03599,-1.46401 h -6.53212 v 10.5 10.49998 l 6.75,-0 c 4.4224,-10e-4 7.9569,-0.6044 10.25,-1.75 z m -2.71788,-27.59358 c 4.50736,-1.8841 5.99061,-4.05243 5.99061,-8.75753 0,-6.46995 -2.58022,-8.30568 -12.29406,-8.74681 l -7.97867,-0.36233 v 9.60588 9.60589 h 5.53212 c 3.04266,0 6.98016,-0.60529 8.75,-1.3451 z m 241.71788,32.84508 v -3.5 h 7.5 7.5 v -16.49998 -16.5 h -7 -7 v -3.5 -3.5 h 11.5 11.5 v 20 19.99998 h 7 7 v 3.5 3.5 h -19 -19 z m 53,0 v -3.5 h 7.5 7.5 v -25.99998 -26 h -7 -7 v -3.5 -3.5 h 11 11 v 29.5 29.49998 h 7 7 v 3.5 3.5 h -18.5 -18.5 z m 52,0 v -3.5 h 8 8 v -25.99998 -26 h -7 -7 v -3.5 -3.5 h 11 11 v 29.5 29.49998 h 7 7 v 3.5 3.5 h -19 -19 z m 211,-19.99998 v -23.5 h 3.38871 c 3.08238,0 3.44818,0.31703 4.04664,3.50709 l 0.65794,3.5071 3.20335,-3.00527 c 7.87502,-7.38802 19.76401,-6.29292 24.43255,2.2505 1.47625,2.70154 1.82536,6.35946 2.09872,21.99058 l 0.32792,18.74998 h -3.99693 -3.99693 l -0.33099,-18.08829 -0.33098,-18.0883 -2.92488,-2.51416 c -4.14817,-3.56566 -8.61519,-2.66774 -14.25255,2.8649 l -4.32257,4.24229 v 15.79179 15.79177 h -4 -4 z m 159.00003,-9.5 v -33 h 4.5 4.5 v 19.73213 19.73214 l 10.2671,-10.23214 10.267,-10.23213 h 5.4659 5.4659 l -10.9162,10.95019 -10.9163,10.95019 9.9435,10.7998 c 14.3048,15.5369 13.6833,14.2998 7.1848,14.2998 h -5.4831 l -10.3893,-11.9876 -10.3893,-11.98759 -0.2808,11.98759 -0.2808,11.9876 h -4.4692 -4.4692 z m 52,9.43963 v -23.56036 l 3.75,0.31036 c 3.4294,0.28384 3.7769,0.59012 4.065,3.58264 l 0.315,3.27227 4.0665,-3.48071 c 8.9849,-7.69076 21.186,-5.05148 24.665,5.33539 0.677,2.02132 1.1385,10.43254 1.1385,20.75 v 17.35076 h -4 -4 v -16.35076 c 0,-18.31506 -0.763,-21.89419 -5.0455,-23.66806 -4.059,-1.68128 -7.346,-0.58328 -12.5136,4.18009 l -4.4409,4.09347 v 15.87264 15.87262 h -4 -4 z m 106.5629,22.36555 c -0.2291,-0.7178 -1.5934,-9.8552 -3.0316,-20.30518 -1.4382,-10.45 -2.8712,-20.4625 -3.1844,-22.25 -0.5663,-3.232 -0.5467,-3.25 3.5418,-3.25 2.2612,0 4.1166,0.3375 4.1231,0.75 0.01,0.4125 0.9065,7.92285 2,16.68967 1.0935,8.76683 1.9882,16.52931 1.9882,17.25001 0,0.7207 0.3895,1.3103 0.8655,1.3103 0.4761,0 2.5801,-5.39998 4.6757,-11.99998 3.7835,-11.91625 3.8316,-12 6.8946,-12 3.0495,0 3.1344,0.1427 7.457,12.534 2.4049,6.89368 4.5823,12.32428 4.8387,12.06788 0.4003,-0.4004 4.1748,-31.84139 4.2439,-35.35188 0.015,-0.78756 1.5044,-1.25 4.0246,-1.25 3.1607,0 3.9902,0.36721 3.9533,1.75 -0.026,0.9625 -1.4882,11.425 -3.25,23.25 l -3.2033,21.49998 -5.018,0.2942 -5.0179,0.2942 -3.8241,-11.6188 c -2.1032,-6.39041 -4.0578,-11.38513 -4.3435,-11.0994 -0.2857,0.28572 -2.1568,5.38182 -4.158,11.3247 l -3.6385,10.8051 -4.7602,0.3052 c -3.2552,0.2087 -4.8919,-0.1074 -5.1769,-1 z m 157.4371,-31.80518 v -33 h 4 4 v 13.07792 13.07793 l 4.1627,-3.56314 c 9.293,-7.95448 21.7005,-4.95205 24.7374,5.98609 0.5988,2.15666 1.0913,11.4587 1.0943,20.6712 l 0.01,16.74998 h -3.919 -3.919 l -0.331,-18.08829 -0.331,-18.0883 -2.8058,-2.4117 c -4.5301,-3.89385 -8.1737,-3.06255 -14.9442,3.40949 l -3.75,3.58472 v 15.79705 15.79703 h -4 -4 v -32.99998 z m 212,29.49998 v -3.5 h 7 7 v -23.49998 -23.5 h -7 -7 v -3.5 -3.5 h 18 18 v 3.5 3.5 h -7 -7 v 23.5 23.49998 h 7 7 v 3.5 3.5 h -18 -18 z m 154,-19.99998 v -23.5 h 3.5 c 3.4504,0 3.5001,0.0602 3.5037,4.25 v 4.25 l 1.9106,-3.13329 c 4.9693,-8.14952 13.8307,-8.33967 15.589,-0.3345 l 0.6654,3.02972 2.9046,-4.0096 c 3.2912,-4.5434 6.6573,-5.81918 10.8126,-4.09802 4.9018,2.03039 5.4918,4.7067 5.9072,26.79569 l 0.3809,20.24998 h -4.0682 -4.0682 l -0.2707,-20.24998 c -0.2672,-19.99037 -0.2988,-20.254 -2.4649,-20.56224 -1.7375,-0.24724 -2.8284,0.79365 -5.2406,5 -3.0283,5.28063 -3.0465,5.40298 -3.0558,20.56222 l -0.01,15.25 h -3.5 -3.5 v -18.80885 c 0,-14.81488 -0.3061,-19.22106 -1.4414,-20.75 -1.8801,-2.53186 -4.234,-1.19072 -7.2921,4.15475 -2.0493,3.58191 -2.235,5.20399 -2.25,19.6541 l -0.017,15.75 h -4 -4 z m 531,-7 v -30.5 h 11.8743 c 16.3053,0 22.6942,2.46026 26.7785,10.312 3.4843,6.69834 0.6329,18.88267 -5.4759,23.39908 -4.2929,3.17391 -11.5758,5.28892 -18.2118,5.28892 h -5.9651 v 10.99998 11 h -4.5 -4.5 z m 23.9654,0.19356 c 6.7493,-2.32464 9.9627,-11.06427 6.5177,-17.72629 -2.2208,-4.29444 -6.2669,-5.96727 -14.4334,-5.96727 h -7.0497 v 12.5 12.5 l 5.75,-0.0564 c 3.1625,-0.0311 7.3094,-0.59355 9.2154,-1.25 z m 135.0346,26.80642 v -3.5 h 8 8 v -25.99998 -26 h -7 -7 v -3.5 -3.5 h 11 11 v 29.5 29.49998 h 7 7 v 3.5 3.5 h -19 -19 z m 49,-19.99998 v -23.5 h 3.5 c 3.4504,0 3.5001,0.0602 3.5037,4.25 v 4.25 l 1.9106,-3.13329 c 4.9693,-8.14952 13.8307,-8.33967 15.589,-0.3345 l 0.6654,3.02972 2.9046,-4.0096 c 3.2912,-4.5434 6.6573,-5.81918 10.8126,-4.09802 4.9018,2.03039 5.4918,4.7067 5.9072,26.79569 l 0.3809,20.24998 h -4.0682 -4.0682 l -0.2707,-20.24998 c -0.2672,-19.99037 -0.2988,-20.254 -2.4649,-20.56224 -1.7375,-0.24724 -2.8284,0.79365 -5.2406,5 -3.0283,5.28063 -3.0465,5.40298 -3.0558,20.56222 l -0.01,15.25 h -3.5 -3.5 l -0.014,-18.24998 c -0.01,-10.0375 -0.2849,-19.2625 -0.6166,-20.5 -1.0057,-3.75287 -4.1126,-2.72487 -7.3917,2.44578 l -2.978,4.69578 v 15.80422 15.8042 h -4 -4 v -23.49998 z m 133,16.49998 v -7 h -14.5 -14.5 v -3.53137 c 0,-2.81344 2.5922,-7.58982 12.75,-23.4935 l 12.75,-19.96212 6.25,-0.006 6.25,-0.006 v 20 20 h 5 5 v 3.5 3.49999 h -5 -5 v 7 7 h -4.5 -4.5 v -7 z m 0,-29.66665 c 0,-8.61666 -0.209,-15.45762 -0.4645,-15.20213 -0.2555,0.2555 -4.9659,7.3055 -10.4675,15.66667 l -10.003,15.20213 h 10.4675 10.4675 z m 135,32.66665 v -4 h 8 8 v -22.08685 -22.08686 l -7.4298,4.00759 -7.4298,4.00759 -1.0702,-3.06995 c -0.5886,-1.68847 -1.0702,-3.37904 -1.0702,-3.75683 0,-1.45332 19.8563,-11.01467 22.8745,-11.01467 h 3.1255 v 27 26.99998 h 7 7 v 4 4 h -19.5 -19.5 z m -576,-21.49998 v -3.5 h 14 14 v 3.5 3.5 h -14 -14 z m 536.6989,-10.28023 c -2.1309,-2.35457 -2.2007,-7.57516 -0.129,-9.64684 6.1027,-6.10265 15.8185,1.39361 10.711,8.26412 -2.5361,3.41157 -8.0893,4.13718 -10.582,1.38272 z M 234.74338,966.03512 c -0.005,-3.1625 -0.29246,-8.1125 -0.63929,-11 l -0.6306,-5.25 h 5.13929 5.13929 v 6.36043 c 0,3.49823 -0.28617,8.44823 -0.63592,11 -0.63177,4.60925 -0.66118,4.63957 -4.5,4.63957 h -3.86408 l -0.009,-5.75 z m 18.5972,2.5 c -0.27617,-1.7875 -0.67897,-6.7375 -0.89513,-11 l -0.39301,-7.75 h 5.17055 5.17055 l -0.36985,8.75 c -0.54314,12.84969 -0.68651,13.25 -4.74536,13.25 -3.10643,0 -3.48375,-0.31141 -3.93775,-3.25 z M 2029.7521,968.436 c 0,-1.84202 -0.291,-6.79202 -0.6467,-11 l -0.6468,-7.65088 h 5.1468 5.1467 v 3.34912 c 0,1.84202 -0.291,6.79202 -0.6467,11 l -0.6468,7.65088 h -3.8532 c -3.704,0 -3.8533,-0.12974 -3.8533,-3.34912 z m 18,-3.01131 c 0,-3.49823 -0.2862,-8.44823 -0.6359,-11 l -0.6359,-4.63957 h 5.1359 5.1359 v 6.36043 c 0,3.49823 -0.2862,8.44823 -0.6359,11 -0.6318,4.60925 -0.6612,4.63957 -4.5,4.63957 h -3.8641 z M 560.75207,959.78512 c -1.1,-1.1 -2,-3.125 -2,-4.5 0,-2.90103 3.19893,-6.5 5.77749,-6.5 3.38995,0 6.22251,2.91414 6.22251,6.40172 0,5.94077 -5.9305,8.66778 -10,4.59828 z"
       id="path227" />
  </g>
</svg>
