<?xml version="1.0" standalone="no"?>
<!DOCTYPE svg PUBLIC "-//W3C//DTD SVG 20010904//EN"
 "http://www.w3.org/TR/2001/REC-SVG-20010904/DTD/svg10.dtd">
<svg version="1.0" xmlns="http://www.w3.org/2000/svg"
 width="1280.000000pt" height="720.000000pt" viewBox="0 0 1280.000000 720.000000"
 preserveAspectRatio="xMidYMid meet">

<g transform="translate(0.000000,720.000000) scale(0.100000,-0.100000)"
fill="#000000" stroke="none">
<path d="M8355 6500 c-224 -99 -402 -141 -815 -190 -41 -5 -135 -12 -209 -16
-127 -6 -135 -8 -165 -34 -26 -24 -31 -35 -30 -71 1 -33 8 -48 28 -66 26 -22
34 -23 202 -23 126 0 184 -4 208 -14 103 -43 126 -175 126 -726 1 -358 15
-895 26 -997 6 -55 5 -63 -11 -69 -13 -6 -26 3 -49 32 -97 123 -193 203 -321
267 -95 47 -200 75 -331 88 -457 45 -913 -145 -1229 -511 -298 -345 -445 -759
-445 -1252 0 -484 146 -856 452 -1154 165 -160 313 -253 511 -319 178 -59 249
-69 477 -70 182 0 214 3 290 23 108 29 245 96 335 164 82 63 197 193 250 284
25 43 43 64 54 62 14 -3 16 -20 12 -129 -5 -170 9 -231 63 -285 26 -27 58 -46
86 -54 49 -14 1061 -22 1135 -9 119 21 108 179 -12 179 -71 0 -194 21 -250 42
-107 40 -158 110 -195 271 -22 92 -22 93 -25 1862 -3 1223 -1 1870 8 2095 6
179 13 384 16 456 5 126 4 132 -19 158 -36 42 -87 44 -173 6z m-1234 -2021
c218 -55 356 -172 464 -394 89 -181 134 -378 155 -675 18 -265 4 -600 -35
-825 -82 -472 -261 -795 -505 -913 -289 -139 -597 -29 -764 273 -93 167 -153
362 -190 617 -23 151 -26 208 -26 425 0 576 89 992 267 1256 142 210 381 299
634 236z"/>
<path d="M3188 6283 c-9 -10 -66 -148 -128 -308 -61 -159 -134 -344 -160 -410
-26 -66 -213 -541 -413 -1056 -201 -515 -389 -982 -417 -1038 -58 -114 -95
-149 -225 -214 -131 -65 -189 -78 -421 -90 -257 -13 -346 -4 -450 49 -37 19
-76 34 -86 34 -79 0 115 -178 269 -246 30 -14 89 -30 131 -37 56 -10 78 -18
80 -30 4 -21 -25 -76 -55 -105 -14 -12 -23 -28 -20 -35 7 -21 89 -11 145 17
39 20 78 29 154 36 111 11 148 27 233 100 40 34 65 49 65 37 0 -2 -25 -59 -56
-128 -54 -119 -125 -317 -254 -701 -61 -183 -86 -240 -147 -336 -83 -129 -176
-212 -287 -254 -79 -30 -116 -63 -116 -102 0 -132 230 -86 655 129 328 166
375 199 375 267 0 29 -8 47 -34 75 -44 50 -62 86 -80 167 -26 108 -21 206 18
369 43 179 61 225 91 233 27 7 91 -19 122 -48 l23 -21 0 22 c0 13 -21 44 -50
75 -27 29 -56 68 -64 88 -15 34 -14 41 23 159 21 68 47 153 56 189 10 36 22
69 26 74 10 11 1390 8 1401 -2 4 -4 33 -77 63 -162 72 -199 136 -374 174 -475
189 -506 229 -678 180 -785 -35 -79 -80 -113 -189 -144 -66 -19 -345 -46 -469
-46 -82 0 -92 -2 -120 -26 -28 -23 -31 -32 -31 -79 0 -46 4 -56 28 -76 27 -21
30 -21 257 -15 127 3 345 11 485 16 320 12 770 11 1005 0 99 -5 280 -13 403
-16 l223 -7 29 28 c25 24 30 37 30 75 0 67 -24 86 -133 105 -306 53 -368 135
-675 885 -68 168 -200 492 -294 720 -93 228 -222 546 -288 705 -65 160 -139
342 -165 405 -27 63 -60 147 -75 185 -30 76 -122 301 -220 540 -34 83 -95 231
-135 330 -40 99 -89 219 -109 268 -62 151 -102 247 -171 417 -37 91 -76 175
-88 188 -26 28 -96 31 -119 5z m-220 -1290 c23 -60 54 -146 70 -193 16 -47 58
-164 94 -260 114 -307 342 -954 355 -1007 l5 -23 -398 -2 c-447 -1 -797 2
-803 8 -6 6 6 41 104 289 46 116 142 365 213 555 159 419 212 556 247 635 15
33 31 70 36 83 17 44 36 23 77 -85z"/>
<path d="M10425 4680 c-356 -35 -709 -206 -982 -477 -256 -253 -410 -541 -472
-884 -26 -143 -29 -426 -6 -564 63 -364 205 -637 469 -900 241 -240 524 -394
841 -460 106 -22 345 -30 470 -17 550 61 1085 461 1308 977 102 235 131 387
131 675 0 236 -13 327 -75 515 -154 471 -566 887 -1049 1060 -175 63 -443 94
-635 75z m263 -195 c123 -29 250 -115 332 -223 126 -167 202 -389 256 -742 21
-142 30 -651 15 -831 -41 -471 -160 -807 -346 -977 -252 -231 -610 -197 -823
77 -123 157 -195 352 -246 666 -66 402 -61 832 15 1235 42 223 102 384 196
527 64 98 141 169 236 219 119 63 239 79 365 49z"/>
</g>
</svg>
