<?xml version="1.0" standalone="no"?>
<!DOCTYPE svg PUBLIC "-//W3C//DTD SVG 20010904//EN"
 "http://www.w3.org/TR/2001/REC-SVG-20010904/DTD/svg10.dtd">
<svg version="1.0" xmlns="http://www.w3.org/2000/svg"
 width="3179.000000pt" height="1770.000000pt" viewBox="0 0 3179.000000 1770.000000"
 preserveAspectRatio="xMidYMid meet">

<g transform="translate(0.000000,1770.000000) scale(0.100000,-0.100000)"
fill="#000000" stroke="none">
<path d="M18780 12844 c-102 -13 -534 -67 -960 -119 -426 -52 -790 -98 -807
-100 l-33 -6 0 -63 0 -63 88 -6 c349 -22 561 -213 644 -575 22 -96 22 -106 25
-1209 2 -612 1 -1113 -3 -1113 -3 0 -52 28 -108 61 -141 86 -344 190 -454 234
-380 150 -966 164 -1469 34 -694 -178 -1288 -702 -1577 -1390 -210 -502 -276
-1116 -186 -1739 130 -900 652 -1568 1435 -1837 594 -204 1379 -184 1860 47
122 59 221 128 404 281 l166 140 5 -279 c3 -154 7 -282 10 -284 3 -3 464 53
1025 123 561 70 1026 128 1033 128 8 1 12 20 12 60 l0 59 -67 12 c-141 24
-340 82 -423 122 -154 75 -261 209 -304 383 -52 208 -49 -41 -53 3678 l-4
3447 -37 -1 c-20 -1 -120 -12 -222 -25z m-1868 -3072 c517 -139 768 -583 839
-1482 16 -208 24 -1357 10 -1602 -19 -352 -56 -583 -132 -838 -139 -466 -392
-715 -799 -786 -140 -24 -380 -15 -513 20 -584 151 -921 741 -1019 1781 -18
191 -18 1043 0 1215 59 565 167 936 359 1223 175 264 416 423 728 483 110 21
428 12 527 -14z"/>
<path d="M9885 12681 c-74 -18 -83 -30 -164 -232 -269 -674 -2467 -6044 -2523
-6165 -159 -343 -353 -647 -532 -832 -104 -109 -254 -207 -398 -262 -47 -18
-190 -60 -305 -90 l-43 -11 0 -74 0 -75 1310 0 1310 0 0 74 0 74 -67 7 c-142
13 -353 47 -473 76 -424 104 -582 277 -581 638 1 221 51 423 187 751 36 85
171 423 302 750 l238 595 1191 3 1191 2 20 -47 c129 -302 561 -1350 600 -1453
251 -672 224 -1017 -91 -1170 -95 -46 -264 -92 -416 -115 -58 -9 -121 -18
-138 -21 l-33 -5 0 -79 0 -80 1765 0 1765 0 0 80 c0 79 0 80 -27 86 -311 69
-494 162 -674 344 -166 168 -314 391 -479 720 -56 112 -554 1290 -1363 3221
-701 1675 -1298 3090 -1325 3145 -27 54 -58 106 -68 116 -36 31 -115 44 -179
29z m-130 -2841 c219 -520 465 -1105 547 -1300 83 -195 152 -363 155 -372 5
-17 -53 -18 -1111 -18 -703 0 -1116 4 -1116 10 0 5 248 598 551 1317 303 719
554 1314 557 1322 4 11 6 11 13 0 4 -8 186 -439 404 -959z"/>
<path d="M22875 10033 c-486 -26 -952 -163 -1326 -390 -186 -113 -303 -206
-480 -382 -229 -230 -343 -388 -474 -656 -157 -321 -234 -636 -255 -1028 -21
-424 39 -825 175 -1168 166 -417 473 -804 860 -1086 362 -263 811 -430 1305
-487 685 -79 1357 37 1875 322 329 181 621 438 846 744 327 445 487 1002 466
1628 -11 306 -49 528 -138 792 -121 361 -302 651 -584 933 -566 567 -1328 828
-2270 778z m348 -204 c765 -67 1182 -703 1267 -1934 14 -206 14 -724 0 -930
-74 -1075 -399 -1699 -985 -1889 -234 -76 -565 -78 -800 -5 -667 206 -1004
996 -1005 2355 0 578 60 1052 182 1424 196 601 561 934 1076 979 127 12 136
12 265 0z"/>
</g>
</svg>
