<?xml version="1.0" standalone="no"?>
<!DOCTYPE svg PUBLIC "-//W3C//DTD SVG 20010904//EN"
 "http://www.w3.org/TR/2001/REC-SVG-20010904/DTD/svg10.dtd">
<svg version="1.0" xmlns="http://www.w3.org/2000/svg"
 width="1280.000000pt" height="1280.000000pt" viewBox="0 0 1280.000000 1280.000000"
 preserveAspectRatio="xMidYMid meet">

<g transform="translate(0.000000,1280.000000) scale(0.100000,-0.100000)"
fill="#000000" stroke="none">
<path d="M6489 9417 c-110 -73 -205 -128 -258 -147 -27 -11 -141 -45 -253 -75
-401 -111 -538 -160 -678 -245 -79 -48 -179 -144 -218 -210 -25 -41 -27 -54
-27 -147 0 -69 -3 -103 -10 -103 -6 0 -36 13 -66 29 -74 40 -172 64 -229 56
-138 -19 -299 -86 -533 -222 -59 -35 -111 -63 -114 -63 -3 0 -78 -49 -167
-108 -88 -60 -172 -115 -186 -123 -88 -49 -331 -164 -409 -193 -123 -46 -135
-57 -128 -122 3 -28 21 -85 41 -127 69 -145 77 -194 87 -562 9 -339 13 -380
49 -511 38 -139 127 -302 204 -373 14 -14 26 -34 26 -46 0 -13 -26 -56 -59
-96 -138 -175 -249 -367 -290 -504 -12 -38 -27 -117 -35 -175 -12 -96 -12
-120 6 -270 11 -91 26 -180 33 -198 17 -38 47 -52 120 -52 29 0 84 -9 121 -21
96 -29 276 -117 359 -174 336 -233 482 -317 615 -354 212 -59 348 -43 579 66
52 24 101 43 110 41 12 -2 18 -20 23 -68 7 -76 31 -149 63 -199 48 -75 159
-162 263 -207 31 -14 66 -29 77 -34 11 -5 108 -43 215 -84 253 -97 367 -147
464 -204 89 -53 209 -152 257 -212 51 -63 74 -57 241 57 89 62 293 166 428
218 52 20 197 72 321 115 347 120 476 194 630 357 83 89 139 189 158 285 13
61 15 64 81 100 25 14 88 50 140 80 53 31 132 75 175 98 44 24 90 49 101 56
44 26 262 113 348 138 49 15 121 29 160 32 39 3 104 12 143 20 79 17 105 38
122 100 15 53 -11 273 -49 423 -33 132 -69 321 -85 456 -26 208 -48 290 -101
371 -19 28 -34 59 -34 69 0 10 15 34 34 55 47 52 110 163 136 240 26 77 30
192 16 530 -6 150 -5 245 2 315 7 55 17 161 22 235 8 94 18 155 35 205 27 77
32 149 13 162 -7 4 -76 33 -154 64 -166 67 -239 103 -348 172 -289 182 -403
230 -599 255 -104 13 -147 14 -225 5 -111 -12 -212 -43 -260 -80 -19 -14 -37
-21 -42 -17 -4 5 -23 45 -41 89 -105 259 -241 371 -594 495 -282 99 -373 141
-465 214 -114 91 -235 166 -267 166 -19 0 -54 -16 -94 -43z m128 -49 c48 -21
127 -75 154 -104 35 -38 52 -74 78 -162 26 -85 43 -86 34 -2 -4 38 -2 60 4 60
6 0 48 -17 94 -39 46 -21 165 -66 264 -101 302 -103 390 -156 492 -291 56 -75
79 -120 124 -244 52 -145 35 -162 -47 -47 -56 79 -95 124 -102 117 -2 -2 5
-19 17 -38 19 -31 19 -47 1 -47 -4 0 -33 20 -64 45 -67 51 -94 59 -51 15 20
-21 26 -33 18 -41 -7 -7 -29 3 -74 34 -64 44 -121 77 -135 77 -4 0 12 -17 36
-37 67 -57 80 -72 80 -89 0 -11 -5 -14 -17 -9 -10 4 -25 10 -33 13 -8 3 0 -12
19 -33 38 -44 31 -53 -24 -31 -51 22 -53 20 -22 -12 36 -37 24 -46 -25 -21
-47 24 -74 20 -35 -5 26 -17 37 -46 18 -46 -5 0 -26 7 -47 16 -28 12 -43 13
-56 5 -10 -6 -42 -8 -81 -4 l-65 6 -4 86 c-4 92 -33 173 -66 186 -9 4 -64 11
-122 16 -102 8 -233 36 -525 114 -96 25 -171 39 -237 42 -97 6 -116 15 -57 28
19 5 27 11 22 16 -6 6 -34 6 -74 0 -91 -15 -104 -15 -89 4 10 13 9 15 -9 15
-33 0 -136 -37 -222 -81 -43 -21 -84 -39 -91 -39 -7 1 7 19 32 40 25 22 41 40
37 40 -24 0 -167 -88 -301 -185 -27 -20 -51 -33 -54 -31 -18 19 107 141 201
196 83 49 11 32 -94 -22 -42 -21 -99 -59 -128 -83 -29 -25 -57 -45 -62 -45
-19 0 -7 32 26 69 19 21 35 47 35 58 0 11 10 32 21 47 12 15 19 29 17 32 -3 2
-34 -10 -68 -28 -45 -23 -80 -52 -117 -96 -29 -34 -53 -67 -53 -72 0 -6 19 3
42 20 42 30 63 37 72 22 3 -5 -19 -41 -49 -80 -70 -94 -89 -154 -73 -232 13
-64 7 -90 -20 -90 -23 0 -29 32 -38 204 -9 156 7 211 85 287 135 132 303 200
861 349 175 47 275 92 400 179 91 64 103 68 147 49z m-297 -658 c36 -6 145
-33 243 -61 223 -63 350 -89 438 -89 55 0 70 -3 78 -17 5 -10 10 -63 12 -118
l4 -100 -37 -3 c-32 -3 -39 1 -52 26 -11 20 -12 32 -4 40 15 15 6 25 -58 57
-50 25 -68 29 -130 27 -40 -1 -83 -6 -96 -11 l-23 -9 28 -11 c39 -15 33 -31
-13 -31 -29 0 -42 -5 -50 -20 -6 -11 -21 -20 -34 -20 -13 0 -29 -7 -36 -15 -7
-8 -19 -15 -26 -15 -8 0 -19 -11 -24 -25 -5 -13 -23 -31 -40 -40 -29 -15 -32
-14 -75 11 -25 14 -43 29 -40 34 7 11 -15 26 -47 34 -29 7 -36 20 -18 31 19
12 10 23 -22 31 -36 7 -78 41 -78 62 0 7 -7 15 -15 18 -8 4 -15 12 -15 19 0 7
-15 18 -32 24 l-33 12 24 18 24 19 -31 7 c-31 6 -45 25 -20 25 9 0 9 3 0 12
-17 17 -144 -6 -210 -38 -34 -17 -95 -66 -167 -135 -63 -60 -118 -109 -124
-109 -24 0 -18 22 22 76 159 216 418 325 677 284z m2256 -215 c115 -29 234
-84 389 -179 137 -85 359 -199 440 -226 103 -34 101 -30 82 -146 -9 -54 -21
-152 -28 -216 -7 -64 -15 -122 -19 -129 -6 -9 -19 -9 -59 1 -29 7 -54 10 -57
7 -3 -2 19 -18 48 -34 l53 -30 3 -264 c2 -145 4 -329 5 -409 2 -139 1 -149
-28 -225 -32 -87 -118 -225 -140 -225 -8 0 -46 25 -86 55 -40 30 -99 68 -130
85 -31 16 -59 37 -63 45 -4 10 -14 13 -36 9 -32 -7 -42 10 -18 34 17 17 0 28
-22 14 -29 -18 -40 -15 -40 10 0 17 -3 19 -12 10 -7 -7 -21 -12 -31 -12 -14 0
-17 4 -12 18 22 52 20 56 -13 32 -39 -29 -50 -20 -33 23 7 18 15 41 18 52 6
19 5 19 -19 -2 -21 -20 -58 -32 -58 -19 0 2 14 34 30 71 17 37 30 70 30 73 0
3 -23 -20 -51 -51 -28 -32 -59 -57 -70 -57 -10 0 -19 2 -19 5 0 3 25 55 56
116 31 61 54 112 52 115 -3 2 -36 -37 -74 -88 -38 -50 -77 -96 -86 -102 -33
-20 -30 4 9 66 83 130 135 258 171 413 44 188 37 282 -34 506 -36 116 -56 239
-37 239 10 0 53 -88 68 -139 4 -13 11 -19 16 -14 5 5 2 50 -6 108 -13 84 -13
100 -1 107 8 5 11 17 8 34 -4 25 -3 26 27 19 17 -3 31 -4 31 -1 0 3 -31 24
-70 47 -112 66 -82 79 45 19 67 -32 81 -33 36 0 -34 24 -40 40 -14 40 30 0 -5
25 -105 75 -234 116 -503 136 -674 49 -58 -29 -78 -30 -78 -4 0 23 28 43 90
65 75 27 119 33 271 34 125 1 161 -3 245 -24z m-3676 -26 c98 -45 214 -139
171 -139 -5 0 -46 18 -91 40 -113 54 -214 76 -281 60 -27 -7 -47 -15 -44 -19
4 -3 34 -8 68 -11 66 -5 94 -29 35 -31 -43 -1 -76 -13 -60 -23 24 -15 11 -24
-55 -41 -38 -9 -79 -23 -93 -30 -23 -13 -14 -14 90 -15 101 0 155 -9 140 -23
-3 -3 -54 -14 -115 -26 -60 -12 -127 -31 -150 -41 l-40 -19 111 6 c112 6 184
-1 184 -17 0 -4 -24 -11 -52 -15 -97 -12 -162 -27 -217 -51 -55 -25 -186 -113
-178 -120 2 -3 29 5 58 17 53 21 207 58 242 59 38 0 12 -21 -79 -64 -193 -92
-377 -219 -514 -356 -53 -52 -110 -103 -128 -112 -42 -22 -40 -42 7 -93 48
-52 79 -110 102 -190 26 -88 23 -52 -6 69 -31 130 -31 152 -4 167 22 11 178 7
234 -6 l30 -8 -23 26 c-13 14 -50 39 -83 57 -32 17 -59 35 -59 40 0 16 114
111 211 176 117 78 307 170 452 218 191 64 184 45 -19 -50 -170 -79 -197 -102
-81 -68 16 5 18 2 12 -15 -5 -18 -2 -21 24 -21 33 0 44 -26 16 -36 -22 -9 -18
-23 5 -17 11 3 27 2 36 -1 14 -5 14 -10 -5 -42 -20 -34 -20 -35 -2 -29 28 9
31 -4 15 -70 -16 -68 -19 -171 -5 -179 5 -4 12 7 16 24 9 40 25 38 25 -3 0
-58 30 -139 64 -173 25 -25 48 -35 111 -49 44 -10 84 -21 90 -26 5 -6 8 -58 7
-122 -2 -70 3 -145 13 -201 8 -49 13 -91 10 -94 -11 -11 -34 23 -63 92 l-30
69 0 -43 c-1 -66 -11 -65 -60 6 -12 17 -12 16 -9 -9 6 -42 -13 -44 -45 -7 -20
25 -28 29 -28 17 0 -25 -26 -21 -48 8 -11 14 -26 25 -33 25 -7 0 -21 7 -31 17
-28 25 -22 -2 11 -51 16 -24 78 -93 138 -154 137 -140 237 -205 482 -313 372
-164 504 -243 756 -454 223 -187 511 -492 503 -535 -2 -8 -23 -22 -47 -30
l-44 -15 -31 39 c-17 22 -62 71 -100 110 -61 63 -68 66 -49 19 9 -23 -25 -14
-69 17 -129 91 -158 110 -158 102 0 -5 18 -22 41 -36 30 -21 40 -33 36 -47 -4
-14 6 -28 34 -51 40 -32 49 -48 27 -48 -7 0 -66 27 -131 61 -65 33 -121 59
-123 56 -3 -2 38 -35 91 -72 108 -77 126 -107 43 -74 -29 11 -85 38 -126 60
-41 22 -79 38 -86 36 -10 -3 103 -93 132 -104 6 -3 12 -12 12 -20 0 -23 -34
-13 -211 57 -84 33 -157 59 -163 57 -5 -2 47 -36 117 -76 179 -102 168 -115
-38 -44 -250 86 -530 252 -763 453 -28 25 -52 50 -52 57 0 16 168 27 313 19
260 -15 445 -47 647 -112 74 -24 136 -41 138 -40 6 7 -122 93 -184 124 -65 33
-135 53 -261 77 -168 31 -294 38 -578 31 -320 -7 -434 2 -529 40 -99 39 -101
43 -82 162 20 123 38 176 77 225 47 59 27 55 -25 -5 -51 -57 -110 -156 -121
-200 -14 -57 -47 -28 -113 100 -57 110 -96 231 -148 465 -54 244 -73 312 -84
300 -4 -4 -4 -60 0 -123 12 -153 12 -210 1 -210 -8 0 -19 38 -37 129 -5 27 -8
31 -15 18 -10 -17 4 -204 20 -269 9 -40 -2 -50 -28 -25 -15 13 -16 17 17 -70
30 -78 -9 -71 -64 12 -20 30 -39 54 -40 52 -5 -4 10 -53 30 -99 16 -37 16 -38
-4 -38 -13 0 -31 17 -52 50 -18 27 -36 50 -40 50 -8 0 5 -48 21 -78 6 -11 11
-28 11 -36 0 -34 -31 -13 -72 49 -23 36 -44 62 -46 57 -1 -4 11 -37 27 -73 30
-64 28 -95 -5 -68 -24 20 -93 124 -116 176 -32 73 -31 43 2 -57 17 -50 29 -94
26 -97 -19 -20 -65 66 -111 211 -17 55 -35 94 -38 89 -9 -14 27 -203 53 -277
28 -82 75 -165 125 -223 25 -28 45 -58 45 -67 0 -8 -12 -23 -26 -33 l-27 -17
-48 52 c-93 101 -176 292 -198 455 -6 43 -11 129 -11 191 0 167 -44 457 -116
766 -14 57 -22 110 -20 116 6 16 143 60 228 74 35 5 117 13 183 17 124 7 126
9 23 38 -32 8 -58 20 -58 25 0 11 47 46 136 102 33 20 100 62 149 93 262 167
544 321 656 359 97 33 222 36 289 5z m1143 7 c18 -7 62 -42 97 -76 36 -35 93
-85 128 -113 35 -27 60 -53 55 -57 -4 -4 -53 -12 -108 -19 -207 -24 -346 -77
-449 -172 -68 -62 -104 -121 -122 -198 -21 -85 -19 -95 22 -115 39 -18 54 -17
29 4 -22 19 -18 50 16 118 39 79 109 142 213 192 121 59 222 80 417 87 159 6
169 5 213 -17 30 -14 51 -32 57 -49 16 -40 -5 -94 -52 -134 -61 -53 -199 -99
-199 -67 0 6 11 16 25 22 32 14 32 27 1 21 -13 -3 -33 0 -44 6 -14 8 -36 8
-77 -1 -51 -10 -58 -9 -67 5 -6 11 -22 17 -43 17 -43 0 -54 17 -20 30 26 10
26 30 -1 30 -17 0 -18 12 -1 29 33 36 -251 -35 -292 -72 -41 -38 -101 -141
-71 -122 14 9 70 -17 70 -32 0 -7 7 -13 15 -13 18 0 20 -21 3 -38 -9 -9 -7
-12 10 -12 22 0 23 -2 26 -75 1 -11 10 -21 20 -23 12 -3 16 -10 13 -24 -4 -14
0 -22 14 -25 10 -3 19 -14 19 -24 0 -11 4 -19 9 -19 5 0 8 -24 7 -52 -1 -50
-3 -53 -28 -56 -22 -3 -30 3 -44 30 -19 39 -125 180 -130 175 -3 -2 8 -25 22
-51 29 -52 27 -56 -29 -75 -30 -10 -41 -10 -52 -1 -12 10 -15 9 -15 -4 0 -24
-26 -19 -48 9 -24 30 -33 32 -29 6 4 -38 -18 -26 -45 24 l-28 50 0 -48 c0 -33
-4 -47 -12 -45 -16 6 -46 95 -48 143 -1 22 -5 49 -10 60 -15 38 -23 -11 -17
-111 4 -73 3 -94 -8 -94 -23 0 -40 90 -40 220 0 119 2 130 39 235 70 200 108
253 241 343 33 22 96 70 140 107 44 37 89 71 100 75 30 13 72 12 108 -4z
m-505 -78 c19 -25 -10 -130 -54 -194 -79 -115 -114 -243 -114 -419 0 -111 -9
-130 -36 -72 l-15 32 6 -45 c3 -25 23 -82 45 -128 91 -190 218 -329 456 -494
191 -134 274 -202 330 -273 26 -33 76 -90 111 -127 35 -36 63 -72 63 -78 0
-25 -62 -120 -78 -120 -9 0 -31 15 -50 33 -33 31 -34 31 -30 8 5 -38 -15 -35
-71 9 -56 44 -64 44 -26 -2 25 -29 33 -58 17 -58 -5 0 -35 18 -67 41 -61 43
-81 47 -40 9 24 -23 33 -50 17 -50 -5 0 -40 20 -78 45 -38 24 -73 45 -79 45
-5 0 23 -30 63 -66 40 -36 72 -72 72 -81 0 -21 -14 -14 -136 67 -58 40 -108
70 -110 67 -3 -2 11 -16 31 -31 31 -24 47 -56 29 -56 -4 0 -49 21 -101 47 -51
25 -96 44 -98 41 -3 -3 22 -22 55 -42 33 -21 60 -44 60 -52 0 -18 0 -18 -70
11 -76 32 -80 31 -45 -5 16 -16 23 -30 17 -30 -7 0 -70 25 -140 55 -70 31
-137 60 -149 65 -25 10 -89 137 -124 245 -17 55 -23 101 -27 217 -5 174 -7
171 95 138 222 -73 462 -199 611 -318 77 -63 54 -26 -42 65 -207 198 -448 322
-746 383 -58 12 -116 27 -130 33 -31 15 -49 52 -57 117 -5 44 -2 55 22 90 15
22 54 58 86 79 32 21 55 41 53 44 -8 8 -88 -18 -115 -37 -38 -26 -49 -20 -49
27 0 79 50 210 119 311 16 23 36 64 45 93 19 58 126 184 208 247 48 37 141 87
205 111 48 17 49 17 61 3z m1388 -71 c12 -7 43 -43 69 -82 27 -38 72 -96 100
-127 129 -139 106 -237 -83 -367 -103 -71 -238 -184 -225 -188 22 -8 269 116
336 169 24 19 29 20 41 8 19 -20 59 -166 51 -189 -7 -22 -208 -228 -441 -452
-94 -90 -203 -200 -244 -244 -70 -76 -92 -86 -71 -34 5 13 34 59 65 103 31 43
55 80 54 82 -2 2 -24 -14 -48 -36 -64 -56 -96 -51 -50 7 11 15 19 28 17 30 -2
2 -34 -17 -71 -42 -63 -42 -86 -48 -86 -24 0 6 23 34 50 63 28 29 50 56 50 60
0 4 -19 -5 -42 -19 -77 -48 -129 -67 -145 -54 -10 9 -20 9 -39 0 -55 -24 -71
-6 -31 37 l22 24 -37 -7 c-49 -9 -50 9 -3 55 19 18 33 35 31 38 -2 2 -23 -2
-45 -9 -30 -9 -45 -9 -52 -2 -8 8 3 21 40 45 28 18 51 36 51 39 0 4 -36 -5
-81 -19 -63 -19 -83 -22 -92 -13 -22 23 45 66 222 142 30 12 50 24 44 26 -6 2
-65 -5 -130 -17 -66 -11 -123 -20 -127 -20 -3 0 -24 -16 -46 -36 -26 -24 -46
-34 -56 -30 -9 4 -23 1 -30 -5 -8 -7 -40 -10 -82 -7 -53 3 -78 9 -106 28 -56
39 -44 54 49 62 130 11 460 102 655 180 165 66 230 101 299 163 31 28 85 72
118 98 80 61 98 87 124 183 60 218 -36 360 -205 302 -57 -19 -58 -38 -2 -38
81 0 134 -33 167 -105 19 -41 26 -125 11 -125 -5 0 -14 17 -20 39 -14 45 -50
94 -63 86 -5 -4 -9 -35 -9 -71 0 -62 -12 -84 -25 -44 -3 11 -13 20 -20 20 -8
0 -19 8 -24 18 -10 15 -11 15 -17 -5 -3 -13 -10 -23 -15 -23 -5 0 -39 31 -76
68 -37 37 -80 76 -95 85 -16 10 -28 24 -28 32 0 22 118 113 175 135 58 22 188
26 221 7z m1389 -11 c22 -6 40 -18 40 -25 0 -7 -26 -23 -57 -35 -100 -37 -91
-43 59 -39 113 3 147 0 188 -14 l50 -18 -3 -55 c-3 -69 20 -185 63 -320 45
-138 54 -211 45 -345 -9 -123 -31 -202 -92 -336 -48 -105 -54 -107 -135 -49
-73 52 -88 51 -37 -2 53 -55 74 -88 74 -113 0 -11 -23 -54 -51 -95 -27 -41
-68 -111 -91 -155 -22 -44 -51 -94 -64 -112 l-24 -32 -100 6 c-158 10 -370
-27 -558 -96 -223 -83 -492 -253 -670 -425 -127 -123 -188 -195 -281 -333 -34
-51 -66 -93 -70 -93 -4 0 -18 11 -30 24 -30 32 -25 52 44 181 131 243 374 525
613 709 31 24 122 88 202 142 257 176 331 233 417 322 55 56 66 73 88 144 24
76 26 115 4 75 -13 -23 -39 -22 -39 2 0 31 -11 50 -24 45 -15 -6 -31 115 -17
129 4 4 36 12 70 17 103 14 120 43 96 162 -9 44 -14 82 -11 86 12 11 35 -23
60 -88 19 -51 25 -59 25 -36 1 15 -6 55 -15 88 -8 33 -13 63 -10 66 4 3 18 -5
32 -19 l27 -24 -7 30 c-3 17 -22 61 -42 99 -38 75 -35 100 10 71 26 -18 36 -9
14 13 -9 9 -9 15 -1 23 8 8 18 6 37 -6 38 -25 39 -15 6 35 -40 61 -39 74 5 66
24 -5 35 -3 35 5 0 8 13 10 39 6 l39 -5 -18 31 c-21 34 -18 47 10 47 13 0 18
5 14 15 -4 8 -1 22 5 29 15 18 5 25 -52 32 -31 5 -47 2 -56 -7 -56 -66 -62
-70 -94 -67 -27 2 -33 -1 -35 -19 -2 -14 -10 -23 -22 -23 -10 0 -20 -9 -23
-20 -5 -20 -7 -20 -44 -4 -21 9 -46 19 -56 21 -33 10 -14 46 51 98 35 27 58
51 52 53 -7 3 -17 -1 -23 -7 -15 -15 -37 -14 -37 3 0 7 7 19 15 26 29 24 7 21
-44 -4 -58 -30 -71 -32 -71 -11 0 20 -2 19 -59 -12 -41 -23 -52 -26 -63 -15
-11 11 -7 19 22 43 40 33 157 85 250 110 77 21 264 24 325 5z m-1065 -71 c302
-45 511 -185 616 -411 42 -89 76 -221 72 -276 -3 -40 -5 -43 -44 -54 -22 -6
-55 -19 -72 -28 -45 -23 -55 -21 -122 30 -52 40 -117 70 -127 60 -2 -2 15 -15
37 -30 39 -26 80 -89 80 -123 0 -11 -33 -46 -77 -83 -115 -96 -232 -210 -264
-256 -35 -52 -97 -92 -223 -144 -193 -81 -339 -173 -464 -294 -76 -73 -152
-164 -152 -180 0 -4 35 28 78 70 105 103 222 179 388 248 313 131 362 161 535
322 50 46 96 84 104 84 16 0 114 -147 115 -171 0 -19 -100 -100 -305 -245
-253 -180 -295 -214 -438 -354 -135 -131 -253 -274 -330 -399 -59 -98 -67 -61
-17 83 11 33 18 61 16 63 -2 2 -25 -30 -51 -71 -60 -97 -84 -104 -49 -16 21
53 13 59 -20 15 -15 -19 -32 -35 -37 -35 -12 0 -7 20 28 108 14 35 23 65 20
68 -2 3 -23 -27 -46 -66 -71 -120 -81 -81 -15 59 19 41 33 76 30 78 -7 7 -112
-149 -157 -234 -51 -95 -71 -108 -58 -35 5 26 12 56 15 67 4 17 2 16 -15 -5
-30 -37 -37 -17 -19 58 9 37 15 68 13 70 -2 2 -25 -38 -52 -90 -36 -71 -53
-94 -71 -96 -37 -5 -37 24 -2 106 148 343 326 598 602 867 79 77 209 204 290
282 163 158 277 294 333 397 32 57 39 81 43 141 3 47 1 75 -7 79 -6 4 -11 2
-11 -3 0 -6 -9 -11 -19 -11 -14 0 -24 14 -37 51 -30 82 -42 80 -36 -6 4 -65 2
-75 -12 -75 -12 0 -16 -10 -16 -44 0 -25 -4 -48 -10 -51 -5 -3 -10 -19 -10
-36 0 -42 -13 -36 -48 22 -44 70 -46 87 -22 165 33 106 22 138 -87 257 -29 32
-53 65 -53 73 0 18 55 18 180 -1z m-603 -370 c29 -105 28 -123 -2 -156 -16
-16 -32 -29 -36 -29 -16 0 -41 70 -35 94 6 24 2 23 -91 -26 -54 -27 -100 -52
-103 -54 -2 -3 6 -7 18 -11 29 -7 28 -21 -2 -35 -14 -6 -26 -20 -28 -32 -2
-15 -15 -24 -51 -34 -40 -11 -47 -17 -42 -32 5 -16 -7 -23 -95 -50 -56 -17
-108 -29 -115 -27 -7 3 -15 18 -19 34 -4 15 -25 94 -48 176 -22 81 -38 150
-35 154 4 3 42 -8 84 -24 162 -63 275 -76 384 -44 50 15 114 64 147 111 15 22
33 39 41 37 8 -1 20 -24 28 -52z m2128 -1300 c169 -36 301 -93 400 -173 129
-104 172 -198 199 -442 20 -179 27 -220 76 -440 45 -199 74 -370 65 -378 -3
-4 -15 0 -26 7 -12 7 -23 11 -25 9 -1 -2 9 -27 23 -56 18 -38 23 -56 15 -64
-6 -6 -59 -18 -119 -28 -249 -40 -472 -125 -763 -288 -63 -36 -162 -91 -219
-123 -251 -141 -454 -166 -639 -79 -91 43 -207 164 -286 298 -4 7 -1 14 7 17
8 4 53 -33 113 -93 111 -110 183 -156 289 -183 93 -25 158 -24 241 3 l69 22
-97 7 c-80 7 -116 15 -198 48 -101 40 -168 80 -204 120 -26 29 -6 27 62 -8 64
-32 200 -76 209 -68 2 3 -15 15 -39 27 -58 30 -127 82 -128 98 0 14 26 16 35
2 3 -5 11 -10 18 -10 6 0 -8 19 -31 43 -55 56 -57 96 -3 67 16 -8 18 -5 17 28
-1 30 2 36 17 34 14 -2 17 5 17 38 0 28 4 40 14 40 8 0 18 -5 21 -10 10 -17
25 -1 25 26 0 14 9 37 20 52 65 91 36 268 -71 424 -106 154 -102 147 -90 162
6 7 32 19 56 25 25 6 45 16 45 21 0 6 -4 10 -10 10 -5 0 -10 6 -10 14 0 18 44
33 120 42 33 4 63 10 65 14 3 4 -21 14 -52 22 -110 27 -61 53 81 42 189 -13
368 -49 516 -104 44 -16 80 -26 80 -21 0 24 -295 146 -437 181 -49 12 -57 30
-14 30 17 0 32 4 36 10 5 8 -10 14 -104 37 -46 12 -49 28 -9 43 l33 13 -40 13
c-22 7 -48 13 -57 13 -23 1 -23 27 -1 35 12 5 14 9 5 18 -18 18 -14 46 8 58
11 6 20 17 20 25 0 8 18 19 43 26 23 6 53 15 67 19 l25 7 -27 13 c-41 19 -35
27 25 35 28 3 65 9 81 12 27 5 28 7 13 18 -9 7 -17 17 -17 22 0 12 69 23 139
23 25 0 52 4 60 9 17 11 -13 17 -128 26 -77 6 -90 10 -77 23 10 9 327 9 431 0
77 -7 79 -7 42 7 -45 17 -220 51 -320 62 -37 5 -69 13 -70 18 -5 25 263 32
368 10z m-739 -149 c-18 -198 -97 -368 -261 -558 -65 -77 -97 -94 -109 -62 -7
18 -4 25 39 79 37 47 108 166 102 172 -2 2 -18 -12 -35 -32 -50 -56 -131 -125
-148 -125 -13 0 -9 12 15 55 17 30 31 57 31 60 0 3 -41 -26 -91 -65 -50 -38
-97 -70 -105 -70 -24 0 -15 29 22 70 20 22 34 43 31 46 -3 3 -29 -13 -57 -34
-72 -54 -98 -68 -110 -56 -6 6 -1 23 15 46 14 20 25 40 25 43 0 4 -57 -47
-127 -112 -71 -65 -158 -142 -194 -171 -89 -69 -131 -71 -73 -3 31 37 24 40
-20 6 -18 -14 -38 -25 -44 -25 -19 0 -14 25 8 45 32 29 14 30 -20 1 -29 -24
-50 -27 -50 -6 0 4 18 31 41 60 40 50 50 80 14 40 -20 -22 -45 -27 -45 -9 0 6
30 43 68 82 37 38 58 67 47 63 -11 -5 -27 -10 -35 -13 -26 -9 121 125 215 196
169 128 341 219 527 280 101 34 251 68 302 70 l29 1 -7 -74z m-3858 -88 c-3
-7 -42 -34 -88 -60 -169 -95 -274 -171 -375 -273 -103 -104 -149 -170 -192
-275 -36 -91 -25 -105 21 -27 44 75 69 102 86 92 7 -4 1 -25 -20 -62 -35 -62
-34 -81 1 -33 18 24 29 30 46 25 18 -4 24 0 29 20 8 31 30 33 40 3 l7 -23 10
23 c13 29 25 28 37 -3 5 -14 14 -25 20 -25 5 0 10 11 10 25 0 35 13 31 33 -10
22 -47 36 -44 30 5 -3 22 -2 40 3 40 5 0 28 -38 52 -84 45 -89 100 -171 108
-163 3 3 -4 23 -15 46 -24 46 -27 71 -8 71 15 0 104 -108 149 -180 18 -29 34
-48 35 -43 4 11 -48 137 -90 220 -52 101 23 68 86 -38 20 -35 58 -118 84 -184
81 -212 169 -361 296 -506 61 -69 79 -99 60 -99 -10 0 -100 60 -113 76 -7 7
-17 14 -23 14 -16 0 89 -104 158 -157 33 -25 93 -61 133 -80 78 -36 85 -53 22
-53 -21 0 -41 -4 -45 -9 -5 -9 53 -31 83 -31 6 0 12 -6 12 -14 0 -9 -20 -18
-52 -26 -82 -18 -89 -21 -83 -31 4 -5 37 -9 76 -9 38 0 69 -4 69 -9 0 -12 -76
-30 -153 -37 -34 -3 -73 -8 -87 -11 -23 -5 -24 -6 -5 -13 25 -11 133 -11 203
-1 54 8 76 0 46 -17 -31 -17 2 -21 57 -7 119 32 92 0 -34 -40 -64 -20 -99 -25
-190 -25 -202 0 -351 60 -632 257 -93 65 -192 133 -220 150 -126 79 -325 156
-442 170 -29 3 -53 10 -53 16 0 34 103 168 172 224 32 25 56 48 53 51 -7 8
-123 -66 -182 -115 -28 -23 -56 -43 -61 -43 -17 0 -22 41 -22 176 0 248 75
449 256 691 169 223 224 276 369 354 113 61 243 98 233 67z m92 -145 c0 -10
-16 -35 -36 -56 -28 -30 -38 -36 -49 -27 -35 29 -92 -51 -76 -106 12 -42 43
-104 52 -104 4 0 10 14 14 31 4 18 15 33 26 36 10 3 23 20 29 39 17 50 45 46
56 -8 11 -51 28 -56 32 -10 4 43 24 37 38 -13 12 -46 34 -59 34 -21 0 40 17
31 45 -24 27 -54 45 -58 45 -9 0 40 16 36 40 -11 26 -50 37 -51 32 -1 -6 56
11 57 46 3 18 -26 41 -58 52 -72 l21 -25 -7 48 c-8 58 5 61 43 10 49 -67 106
-133 110 -129 3 2 -5 22 -16 44 -12 23 -17 43 -12 47 5 3 60 -47 122 -110 62
-63 116 -115 121 -115 5 0 -16 32 -46 71 -31 39 -56 75 -56 80 0 23 30 4 85
-52 63 -64 199 -171 250 -196 19 -9 1 13 -53 64 -89 84 -142 148 -142 169 0
24 16 16 117 -59 167 -125 362 -237 526 -301 96 -38 317 -92 434 -107 116 -14
99 -14 200 0 146 19 294 62 412 119 52 25 65 27 186 26 140 0 212 -17 304 -69
24 -14 46 -24 48 -21 2 2 -23 27 -56 56 -34 29 -61 57 -61 61 0 16 44 9 103
-15 31 -13 57 -21 57 -17 0 4 -13 20 -30 36 -16 16 -30 37 -30 47 0 22 -2 21
49 3 45 -15 50 -12 24 17 -11 12 -13 22 -7 28 10 10 146 -49 158 -69 4 -6 12
-11 18 -11 5 0 -4 16 -21 35 -32 36 -37 50 -23 59 10 6 98 -48 135 -82 31 -30
36 -19 7 18 -21 27 -26 60 -10 60 6 0 31 -19 55 -41 52 -48 59 -34 17 32 -38
59 -112 123 -160 137 -91 27 -153 13 -277 -62 -63 -38 -180 -80 -196 -70 -15
9 8 31 108 100 144 101 215 134 288 134 118 -1 207 -70 335 -261 90 -135 120
-213 120 -311 l0 -68 -38 -19 c-21 -10 -63 -27 -95 -36 -108 -31 -296 -171
-547 -408 -69 -65 -154 -138 -190 -162 -80 -53 -190 -91 -290 -100 -79 -7
-224 7 -288 28 -34 11 -39 18 -59 77 -11 36 -29 97 -39 135 -17 67 -18 68 -25
37 -4 -18 -10 -71 -14 -118 -6 -79 -8 -84 -30 -84 -13 0 -101 15 -197 34 -95
19 -279 53 -408 75 -129 22 -269 47 -310 55 -41 8 -126 24 -188 36 -235 44
-394 106 -485 192 l-49 46 4 71 c4 77 -3 88 -24 41 -7 -17 -21 -30 -30 -30
-40 0 -180 237 -241 406 -75 209 -124 288 -226 363 -39 29 -79 67 -91 85 -21
36 -27 116 -11 158 13 35 124 146 162 163 47 20 79 19 79 -2z m1072 -1705 c3
-80 11 -130 25 -173 15 -42 18 -63 11 -72 -6 -7 -7 -24 -4 -39 9 -34 93 -118
134 -132 38 -13 41 -7 7 20 -15 11 -25 30 -25 45 0 14 -9 36 -20 50 -35 45
-21 73 16 32 23 -25 109 -89 120 -89 4 0 -6 15 -23 33 -42 45 -83 108 -83 129
0 27 25 21 54 -12 27 -33 100 -96 78 -68 -24 30 -4 41 32 18 49 -30 52 -25 12
20 -33 37 -47 70 -28 70 4 0 27 -7 51 -16 24 -8 46 -12 50 -8 3 4 0 9 -7 11
-7 3 -25 16 -40 28 -41 36 -20 48 52 29 62 -16 85 -12 42 7 -14 7 -26 16 -26
21 0 7 100 12 170 9 14 -1 -20 14 -75 33 -131 45 -175 64 -175 76 0 30 191 -3
800 -140 135 -30 141 -33 183 -91 l17 -24 -5 41 -6 42 88 12 c135 19 220 48
308 106 39 25 50 12 20 -24 -15 -18 -23 -32 -17 -32 17 0 132 83 196 141 61
56 86 70 86 50 0 -11 -70 -102 -113 -148 -17 -18 -28 -33 -24 -33 8 0 102 55
139 81 36 26 61 25 53 -2 -6 -18 -5 -19 13 -10 12 6 24 16 27 21 12 20 35 10
35 -15 0 -29 0 -29 36 -11 36 20 47 11 39 -30 l-6 -34 28 12 c15 7 33 16 40
21 20 15 33 -2 26 -35 -6 -28 -5 -30 15 -19 28 15 52 14 52 -3 0 -8 -21 -37
-46 -65 -25 -28 -44 -51 -41 -51 3 0 27 11 54 24 110 55 134 40 62 -39 -23
-25 -38 -45 -34 -45 3 0 32 15 63 33 98 56 131 71 138 64 10 -10 -20 -40 -119
-120 -48 -38 -86 -72 -83 -74 2 -2 60 24 129 59 70 34 129 59 133 55 14 -14
-78 -95 -167 -147 -49 -29 -87 -55 -85 -58 10 -9 189 84 261 136 117 83 162
128 196 197 30 62 54 84 71 67 11 -11 -20 -85 -67 -158 -90 -141 -242 -257
-437 -335 -29 -12 -156 -57 -282 -100 -347 -120 -508 -189 -644 -275 -79 -51
-86 -48 -78 35 10 104 -8 95 -44 -21 -18 -57 -37 -109 -42 -115 -21 -25 -51
-12 -129 57 -193 170 -317 236 -734 390 -307 113 -425 189 -480 311 -27 61
-28 66 -22 198 5 131 16 191 36 191 5 0 11 -51 13 -112z"/>
</g>
</svg>
