<?xml version="1.0" standalone="no"?>
<!DOCTYPE svg PUBLIC "-//W3C//DTD SVG 20010904//EN"
 "http://www.w3.org/TR/2001/REC-SVG-20010904/DTD/svg10.dtd">
<svg version="1.0" xmlns="http://www.w3.org/2000/svg"
 width="1280.000000pt" height="1280.000000pt" viewBox="0 0 1280.000000 1280.000000"
 preserveAspectRatio="xMidYMid meet">

<g transform="translate(0.000000,1280.000000) scale(0.100000,-0.100000)"
fill="#000000" stroke="none">
<path d="M6455 9404 c-157 -103 -239 -138 -465 -199 -525 -144 -696 -218 -836
-362 -81 -84 -106 -140 -112 -241 l-5 -84 -26 5 c-14 3 -57 17 -96 31 -87 32
-164 33 -271 6 -142 -37 -469 -209 -751 -398 -165 -110 -349 -207 -534 -282
-69 -27 -132 -60 -142 -72 -26 -31 -16 -90 33 -198 72 -163 80 -212 90 -605 7
-304 10 -338 33 -426 43 -165 103 -286 195 -392 23 -27 42 -56 42 -66 0 -10
-23 -47 -51 -82 -70 -87 -184 -259 -225 -342 -97 -191 -126 -368 -100 -605 27
-238 38 -262 129 -262 132 0 362 -100 589 -257 282 -194 405 -262 553 -304
121 -34 289 -32 405 6 47 15 107 39 134 52 73 37 121 52 136 43 8 -5 17 -38
21 -80 10 -92 45 -166 110 -235 90 -95 167 -135 519 -270 378 -144 509 -217
657 -363 69 -67 101 -92 119 -92 15 0 80 35 157 85 216 141 365 208 791 357
338 117 446 178 598 336 86 90 134 167 163 262 9 30 21 66 26 80 17 46 517
319 719 394 106 38 274 76 342 76 69 0 143 26 172 61 24 28 26 37 26 133 0 57
-4 116 -10 132 -5 16 -14 58 -19 94 -6 36 -26 135 -45 220 -32 137 -60 308
-82 480 -9 80 -49 198 -84 250 -16 25 -30 52 -30 61 0 9 18 39 40 65 57 69
129 217 140 289 13 79 13 159 -1 405 -11 188 -10 226 10 455 22 250 39 350 67
393 20 30 15 142 -6 152 -8 5 -58 23 -110 42 -125 44 -320 142 -500 252 -79
49 -165 98 -190 108 -157 69 -308 95 -500 85 -125 -7 -164 -15 -254 -55 -40
-17 -63 -23 -73 -16 -8 5 -29 44 -48 87 -45 104 -115 207 -180 264 -101 90
-171 123 -500 244 -202 73 -290 117 -388 192 -138 106 -221 157 -253 157 -19
0 -64 -23 -129 -66z"/>
</g>
</svg>
