<?xml version="1.0" encoding="UTF-8" standalone="no"?>
<!-- Created with Inkscape (http://www.inkscape.org/) -->

<svg
   version="1.1"
   id="svg186"
   width="490"
   height="239"
   viewBox="0 0 490 239"
   sodipodi:docname="blood.svg"
   inkscape:version="1.2.1 (9c6d41e410, 2022-07-14)"
   xmlns:inkscape="http://www.inkscape.org/namespaces/inkscape"
   xmlns:sodipodi="http://sodipodi.sourceforge.net/DTD/sodipodi-0.dtd"
   xmlns="http://www.w3.org/2000/svg"
   xmlns:svg="http://www.w3.org/2000/svg">
  <defs
     id="defs190" />
  <sodipodi:namedview
     id="namedview188"
     pagecolor="#505050"
     bordercolor="#eeeeee"
     borderopacity="1"
     inkscape:showpageshadow="0"
     inkscape:pageopacity="0"
     inkscape:pagecheckerboard="0"
     inkscape:deskcolor="#505050"
     showgrid="false"
     inkscape:zoom="2.4693878"
     inkscape:cx="245"
     inkscape:cy="119.46281"
     inkscape:window-width="1920"
     inkscape:window-height="1027"
     inkscape:window-x="-8"
     inkscape:window-y="-8"
     inkscape:window-maximized="1"
     inkscape:current-layer="g192" />
  <g
     inkscape:groupmode="layer"
     inkscape:label="Image"
     id="g192">
    <path
       style="fill:#000000"
       d="m 17.595041,237.65254 c 0,-0.51838 -1.908618,-1.08088 -4.241373,-1.25 -3.215392,-0.23312 -4.3277359,-0.76231 -4.5983929,-2.18767 -0.345198,-1.81792 1.2827399,-3.57431 3.3397659,-3.6033 0.55,-0.008 2.307493,1.11036 3.905539,2.48469 3.804609,3.27198 11.594461,3.64519 11.594461,0.55548 0,-2.62246 3.923038,-5.36546 5.638045,-3.94213 1.721236,1.4285 2.731074,0.65402 7.415681,-5.6873 2.205149,-2.985 4.61543,-5.42727 5.35618,-5.42727 1.574021,0 3.625425,7.14889 2.874932,10.01878 -0.283262,1.0832 -3.21451,3.7721 -6.513883,5.97533 -5.935991,3.96391 -6.097229,4.00589 -15.384908,4.00589 -5.208964,0 -9.386047,-0.41944 -9.386047,-0.9425 z m 133.070669,-3.72237 c 1.37831,-3.21546 1.67797,-4.98649 0.96446,-5.7 -1.40847,-1.40847 -1.30246,-2.63513 0.22774,-2.63513 0.69458,0 1.70708,1.0125 2.25,2.25 1.26877,2.89194 5.96485,3.53263 8.57556,1.16997 2.48594,-2.24975 2.44252,-4.41997 -0.0884,-4.41997 -1.1,0 -2,-0.39752 -2,-0.88337 0,-0.48585 -0.974,-1.13807 -2.16445,-1.44938 -1.73254,-0.45307 -1.93082,-0.84753 -0.99365,-1.97675 1.21565,-1.46477 6.1581,-1.14799 6.1581,0.39469 0,0.46862 -0.7364,0.56946 -1.63645,0.22408 -1.13105,-0.43403 -1.48305,-0.19271 -1.13977,0.78138 0.58329,1.65509 4.84726,1.41244 5.92871,-0.33739 0.52666,-0.85215 0.93037,-0.7009 1.4007,0.52477 0.77884,2.02962 4.22588,2.20581 6.681,0.34149 0.9538,-0.72429 2.1461,-3.07247 2.64955,-5.2182 0.50345,-2.14573 0.96834,-3.00132 1.03309,-1.90132 0.1861,3.16164 4.51032,6.68188 7.33658,5.97254 1.58094,-0.3968 2.85821,-0.043 3.75781,1.04097 1.24669,1.50218 1.51962,1.44375 3.2032,-0.68571 l 1.8404,-2.3278 -1.17443,2.72039 c -1.45762,3.37635 0.14689,5.77961 3.85869,5.77961 2.04169,0 2.39452,-0.3811 1.94485,-2.10065 -0.30213,-1.15536 -0.0574,-3.18036 0.54388,-4.5 1.93641,-4.24994 8.3036,-2.46668 9.27396,2.59735 0.26313,1.37318 0.93287,2.64818 1.48832,2.83333 1.38002,0.46001 1.27804,3.88622 -0.14179,4.76373 -0.63344,0.39148 -1.72011,-0.0656 -2.41483,-1.01563 -0.81138,-1.10963 -2.27707,-1.61131 -4.09829,-1.40277 -2.27095,0.26003 -2.83518,0.82216 -2.83518,2.82464 0,1.63344 0.7799,2.84216 2.25,3.48713 1.2375,0.54292 2.25,1.55542 2.25,2.25 0,0.98758 -6.20483,1.26287 -28.46446,1.26287 h -28.4645 z m 59.53564,3.08131 c -0.37373,-0.97391 -0.15024,-1.43108 0.58051,-1.1875 1.49484,0.49828 2.31789,2.77106 1.0035,2.77106 -0.53699,0 -1.24979,-0.7126 -1.58401,-1.58356 z m 5.99743,-0.007 c -0.82989,-2.16268 -0.11038,-3.07551 3.93874,-4.99694 3.35122,-1.59026 4.74473,-4.38992 2.20752,-4.43506 -0.6875,-0.0122 -0.29017,-0.79973 0.88296,-1.75 2.98798,-2.42035 4.36704,-5.4941 4.36704,-9.73358 0,-3.15936 0.29565,-3.61336 2.25,-3.45505 5.39058,0.43665 5.75401,0.19721 4.21203,-2.77495 -1.3137,-2.53216 -1.26247,-2.79386 0.68821,-3.51546 3.80748,-1.40848 6.92284,3.96958 3.44759,5.95159 -0.7712,0.43983 -1.5587,2.14969 -1.75,3.79969 -0.28027,2.4173 0.0576,3.05793 1.73968,3.29826 1.14812,0.16404 2.66572,-0.39846 3.37244,-1.25 2.7579,-3.32307 11.04005,-1.01686 11.04005,3.07415 0,1.88857 -7.00186,8.3665 -9.05,8.37281 -2.2312,0.007 -3.95,-2.0362 -3.95,-4.69522 0,-2.58676 -1.48318,-3.08918 -2.36163,-0.8 -0.73314,1.91055 -3.69323,1.92574 -6.19724,0.0318 -2.96513,-2.24271 -4.44264,-1.83618 -4.42748,1.2182 0.0256,5.15794 1.06436,7.36002 3.1583,6.69542 2.40037,-0.76184 4.82805,1.15285 4.82805,3.80787 0,1.73683 -0.47326,1.9316 -3.5,1.44042 -1.925,-0.31238 -3.5,-0.14626 -3.5,0.36916 0,0.51542 -2.42686,0.93713 -5.39301,0.93713 -4.00732,0 -5.54981,-0.4086 -6.00325,-1.59024 z m 129.39626,1.02482 c 0,-0.31116 0.46583,-1.43616 1.03518,-2.5 1.88635,-3.52467 9.96482,-2.09319 9.96482,1.76574 0,0.90909 -1.65385,1.3 -5.5,1.3 -3.025,0 -5.5,-0.25458 -5.5,-0.56574 z m 22.29969,-0.78763 c -0.43983,-0.74435 -1.47469,-1.60882 -2.29969,-1.92105 -0.825,-0.31223 -0.0375,-0.60321 1.75,-0.64663 2.60965,-0.0634 3.25,0.31511 3.25,1.92105 0,2.28766 -1.51612,2.65072 -2.70031,0.64663 z m 27.58516,0.60337 c -0.0633,-0.4125 -0.0399,-1.5091 0.0522,-2.4369 0.092,-0.92779 -0.76875,-2.18787 -1.91285,-2.80017 -1.1441,-0.6123 -1.84111,-1.50009 -1.54892,-1.97286 0.29219,-0.47277 0.2382,-1.62327 -0.11998,-2.55666 -0.50822,-1.32441 -1.43556,-1.56979 -4.22309,-1.11743 l -3.57187,0.57963 3.21985,-1.95811 c 3.73802,-2.27322 4.03344,-3.94123 1.1588,-6.54275 -1.76389,-1.5963 -2.19422,-1.65469 -2.98469,-0.40499 -0.508,0.80313 -0.93053,1.74647 -0.93895,2.0963 -0.008,0.34983 -1.59031,1.38344 -3.51531,2.29692 -2.23839,1.06218 -3.5,2.36486 -3.5,3.61394 -4e-5,1.07419 -0.64208,1.95308 -1.4268,1.95308 -1.66776,0 -4.57324,-5.35666 -4.57324,-8.4314 0,-2.23709 3.82156,-6.24641 5.46179,-5.73014 0.52899,0.16651 1.42899,-0.31942 2,-1.07983 0.57102,-0.76042 1.88203,-1.69967 2.91336,-2.08724 1.55832,-0.58561 1.76916,-1.36749 1.24783,-4.62767 -0.3604,-2.25381 -0.2009,-4.18655 0.37485,-4.54238 0.5512,-0.34066 1.00217,-1.68206 1.00217,-2.9809 0,-3.38161 5.6642,-4.65336 7.98121,-1.79198 2.34506,2.89604 6.27411,1.30029 5.83593,-2.37021 -0.38138,-3.19461 -2.84538,-4.96438 -5.43122,-3.90097 -1.23799,0.50911 -1.45647,0.93598 -0.63592,1.24248 1.7277,0.64534 1.57315,2.30024 -0.21482,2.30024 -0.80565,0 -1.9916,-1.0125 -2.63545,-2.25 -0.64385,-1.2375 -1.27653,-2.37935 -1.40596,-2.53744 -0.89704,-1.09573 -6.14222,2.95118 -9.02409,6.96253 -3.82651,5.32622 -4.59245,5.55983 -10.49093,3.19973 -2.23395,-0.89385 -4.32657,-1.36033 -4.65028,-1.03662 -0.57678,0.57678 -1.23151,6.92702 -1.38685,13.45112 l -0.0783,3.28932 -3.29968,-2.03932 c -5.87454,-3.63067 -10.17382,-2.14574 -7.14982,2.46947 2.29446,3.50178 1.96036,5.1657 -1.1638,5.79618 -1.5125,0.30523 -3.425,0.81166 -4.25,1.12539 -0.9755,0.37097 -1.93708,-0.37359 -2.75,-2.12933 -1.75475,-3.78987 -1.61888,-8.30103 0.24998,-8.30103 0.825,0 1.5,-0.49531 1.5,-1.10069 0,-0.69123 -1.67756,-0.96728 -4.50943,-0.74205 -3.62154,0.28803 -4.61936,0.0123 -5.06773,-1.40037 -0.80035,-2.52169 -4.03896,-4.03271 -6.18348,-2.88499 -0.96836,0.51825 -2.96068,0.71287 -4.42739,0.43249 -1.97723,-0.37797 -3.00629,0.0339 -3.97991,1.59291 -1.41244,2.26168 -3.83206,2.84981 -3.83206,0.93144 0,-0.64419 0.71908,-1.96584 1.59796,-2.93699 1.83669,-2.02951 0.94555,-4.31429 -1.34055,-3.43703 -1.3377,0.51332 -1.35728,0.35788 -0.14885,-1.18183 2.05585,-2.61944 3.04472,-3.1513 4.68721,-2.52102 0.92775,0.35601 1.315,0.0805 1.04122,-0.74091 -0.52124,-1.5637 -7.83699,-2.53358 -7.83699,-1.03898 0,0.56541 -0.45381,1.02802 -1.00847,1.02802 -0.59779,0 -0.49983,-0.81448 0.24054,-2 0.68696,-1.1 2.04078,-2 3.00848,-2 2.19988,0 2.30217,-1.57776 0.1557,-2.40144 -0.8967,-0.3441 -1.35683,-1.2589 -1.04368,-2.07496 0.30805,-0.80275 0.1809,-1.6939 -0.28255,-1.98033 -0.46345,-0.28643 -1.14909,0.48666 -1.52363,1.71798 -0.41343,1.35915 -0.88374,1.74763 -1.19702,0.98875 -0.71838,-1.74013 -2.34937,-1.56658 -2.34937,0.25 0,0.825 -0.675,1.5 -1.5,1.5 -0.825,0 -1.5,-0.68912 -1.5,-1.53138 0,-0.84227 0.675,-1.79041 1.5,-2.10699 0.825,-0.31659 1.5,-1.4009 1.5,-2.4096 0,-2.09397 -1.90572,-3.64565 -2.8618,-2.33015 -0.89233,1.22778 -2.99914,1.55703 -5.29681,0.82778 -3.03941,-0.96467 -1.56915,-2.90356 2.22017,-2.92783 2.34012,-0.015 3.50786,-0.53149 3.7232,-1.64683 0.22387,-1.15952 -0.42171,-1.625 -2.25375,-1.625 -1.41211,0 -2.81537,0.40109 -3.11835,0.89131 -0.79835,1.29177 -2.41266,0.0203 -2.41266,-1.90033 0,-1.21352 0.29244,-1.34854 1.12267,-0.51831 0.81427,0.81427 1.77461,0.82563 3.49594,0.0413 1.88558,-0.85913 2.74989,-0.7405 4.20607,0.57733 2.04519,1.85091 4.17532,2.18694 4.17532,0.6587 0,-1.86787 -0.49715,-2.48708 -1.76338,-2.1963 -0.69486,0.15956 -1.53051,-0.40599 -1.85699,-1.25679 -0.32649,-0.8508 -1.44546,-1.54691 -2.48662,-1.54691 -1.04115,0 -1.89301,-0.59068 -1.89301,-1.31261 0,-1.474 -9.59945,-6.00642 -11.36364,-5.3654 -2.15199,0.78193 -6.38636,-2.50921 -6.38636,-4.96376 0,-3.03473 0.55953,-2.9894 1.75,0.14177 1.08918,2.86477 2.22024,3.14448 4.00743,0.99105 0.68877,-0.82992 2.99387,-1.78744 5.12244,-2.12781 2.49124,-0.39836 3.87013,-1.15138 3.87013,-2.11349 0,-1.18943 0.29487,-1.24992 1.444,-0.29623 2.09505,1.73874 11.71413,-4.589 11.3269,-7.45118 -0.19027,-1.40639 0.382,-2.09525 1.9228,-2.31451 1.24257,-0.17683 2.71534,-1.49064 3.39682,-3.0302 0.70632,-1.59569 2.7595,-3.3827 4.97231,-4.3277 2.59855,-1.10973 3.87293,-2.34269 4.10319,-3.9698 0.43786,-3.09422 3.97976,-3.16752 5.32111,-0.11013 1.21794,2.7761 2.12634,2.84075 3.51287,0.25 0.85431,-1.5963 0.76049,-2 -0.46482,-2 -0.84435,0 -1.53518,-0.45 -1.53518,-1 0,-0.55 0.40122,-1 0.89159,-1 0.49038,0 1.18422,-1.16591 1.54187,-2.59092 0.45397,-1.80877 1.11841,-2.41129 2.20095,-1.99587 1.00403,0.38528 1.72905,-0.0871 2.05667,-1.33991 0.63489,-2.42781 3.1433,-3.45564 4.89186,-2.00446 1.59973,1.32765 3.52521,0.37658 2.84202,-1.40378 -0.26822,-0.69899 -1.79448,-2.04284 -3.39167,-2.98632 -1.86003,-1.09875 -3.0171,-2.69436 -3.21864,-4.43853 -0.3677,-3.18221 -3.81465,-4.54984 -3.81465,-1.51353 0,2.53257 -1.91455,4.27332 -4.7,4.27332 -1.75925,0 -2.3,-0.56262 -2.3,-2.39301 0,-2.43859 1.64613,-3.60699 5.08179,-3.60699 1.05501,0 1.91821,-0.41786 1.91821,-0.92857 0,-0.51072 0.78145,-1.71003 1.73656,-2.66514 1.11512,-1.11511 1.76172,-3.37729 1.80685,-6.32142 0.0387,-2.52168 0.3822,-5.372368 0.76344,-6.334868 0.38123,-0.9625 0.90403,-2.425 1.16177,-3.25 0.72281,-2.31368 2.44594,-1.78162 3.79106,1.17059 0.96119,2.10958 0.95668,2.75729 -0.0214,3.08333 -0.68103,0.22701 -1.23824,1.09839 -1.23824,1.936398 0,0.97853 0.56592,1.30649 1.58179,0.91667 0.86998,-0.33385 1.74169,-0.60699 1.93713,-0.60699 0.19543,0 0.14701,-1.687498 -0.10761,-3.749998 -0.38379,-3.10881 -0.29306,-3.36529 0.53065,-1.5 0.85312,1.9319 2.39408,2.85698 3.33151,2 0.15041,-0.1375 1.36668,0.76848 2.70282,2.01328 2.65317,2.471808 3.19436,2.079458 4.46375,-3.23613 0.70173,-2.93854 0.68641,-2.95156 -1.32781,-1.12872 -1.15892,1.04881 -2.73658,1.57596 -3.65814,1.22232 -2.42343,-0.92995 -1.18944,-3.04774 2.12841,-3.65281 2.69111,-0.49077 2.76767,-0.6181 0.98654,-1.64102 -1.8242,-1.04765 -1.85993,-1.51587 -0.64615,-8.46795 0.70664,-4.04743 1.44343,-7.90706 1.63729,-8.57695 0.44755,-1.5465 -1.53526,-2.81846 -3.81018,-2.4442 -3.35353,0.5517 -1.72298,-1.4919 1.92405,-2.41146 4.74694,-1.19687 5.24265,-2.91115 1.24482,-4.3048 -2.88946,-1.00727 -3.11557,-1.38805 -2.53827,-4.27454 0.55589,-2.77949 1.69891,-4.11143 6.05463,-7.05538 0.71063,-0.4803 0.64831,-1.1081 -0.19359,-1.95 -0.68294,-0.6829 -1.24168,-1.75036 -1.24168,-2.37212 0,-1.59584 8.78437,-7.72082 9.99767,-6.97096 1.54863,0.95711 1.19156,-0.42105 -0.86647,-3.34419 -1.02785,-1.4599 -2.18423,-3.67021 -2.56975,-4.9118 l -0.70094,-2.25742 3.31975,1.91165 c 3.60427,2.0755 7.35884,1.46785 8.44669,-1.36703 0.32044,-0.83506 1.01993,-1.24801 1.55442,-0.91767 0.5345,0.33033 1.85487,-0.34725 2.93417,-1.50575 2.32009,-2.49031 3.46064,-2.65319 4.24609,-0.60635 0.31658,0.825 1.72004,1.5 3.1188,1.5 2.40701,0 2.50895,0.21421 1.90358,4 -0.51606,3.22727 -0.33896,4 0.91675,4 1.76915,0 4.69924,-2.61498 4.69924,-4.19387 0,-0.63157 0.62119,-0.53548 1.55651,0.24077 0.85608,0.71048 2.99334,1.44908 4.74948,1.64134 3.16926,0.34695 3.17627,0.33785 0.94349,-1.22605 -2.47555,-1.73394 -2.94458,-4.656 -0.99948,-6.22668 0.6875,-0.55516 3.08539,-1.31179 5.32863,-1.68139 5.36853,-0.88454 7.41183,1.10755 5.35983,5.22549 -0.74557,1.49622 -1.38613,3.17039 -1.42345,3.72039 -0.0373,0.55 -0.40819,1.54333 -0.82414,2.20741 -0.48214,0.76976 0.325,1.76656 2.22677,2.75 1.64067,0.84842 3.23039,1.54259 3.5327,1.54259 0.90817,0 0.5891,-5.3892 -0.41287,-6.97361 -0.6146,-0.97187 -0.52427,-1.73274 0.26532,-2.23468 1.85706,-1.18056 2.42203,-0.95202 2.98696,1.20829 0.28766,1.1 1.02229,2 1.63251,2 1.27002,0 1.17395,-5.60164 -0.14184,-8.27067 -1.64198,-3.3307 0.29862,-3.90642 3.90236,-1.15772 1.92657,1.46947 4.92003,2.74303 6.65213,2.83015 2.17688,0.10948 3.25787,0.72224 3.50097,1.98453 0.4361,2.2645 -1.84284,4.77849 -2.55813,2.82197 -0.66411,-1.81656 -3.27775,0.44382 -3.27775,2.83473 0,2.23555 5.04098,3.54063 7.85626,2.03393 2.38035,-1.27392 4.80904,-10.81162 3.17037,-12.45029 -0.56465,-0.56465 -1.02663,-2.28663 -1.02663,-3.82663 0,-2.12245 0.47839,-2.8 1.97695,-2.8 1.08732,0 2.72127,-1.13599 3.63101,-2.52442 l 1.65406,-2.52442 1.36899,2.63873 c 0.75295,1.4513 1.36912,3.82479 1.36928,5.27442 2.6e-4,2.33286 0.39256,2.63569 3.41441,2.63569 1.87776,0 3.72162,-0.3065 4.09747,-0.6811 0.37585,-0.3746 1.31437,-0.43896 2.0856,-0.14301 0.96802,0.37147 1.40223,-0.22118 1.40223,-1.91391 0,-2.72821 2.44984,-5.36466 5.5,-5.91896 2.46008,-0.44706 3.16628,-4.22955 1.40433,-7.5217703 -1.71075,-3.19659 0.40782,-5.33904 5.69547,-5.75968 2.14511,-0.17065 5.5877,-0.64189 7.6502,-1.04721 l 3.75,-0.73694 v 39.5882403 39.58823 l -2.5,1.63807 c -1.375,0.90093 -2.5,2.36143 -2.5,3.24556 0,1.21328 0.38176,1.06245 1.5567,-0.61501 2.30913,-3.29674 3.4433,-2.71126 3.4433,1.77749 0,2.88889 -0.41667,4 -1.5,4 -0.825,0 -1.5,0.45 -1.5,1 0,0.55 0,1.3375 0,1.75 0,0.4125 0.5625,0.75 1.25,0.75 0.96733,0 1.32061,7.209378 1.56225,31.880878 0.27414,27.98984 0.12946,31.81073 -1.18539,31.30617 -0.82371,-0.31608 -1.69547,-0.0375 -1.93725,0.61913 -0.33578,0.91184 -0.75257,0.89857 -1.76461,-0.0562 -0.95694,-0.90278 -0.99167,-1.25 -0.125,-1.25 0.66,0 1.2,-0.45 1.2,-1 0,-3.00722 -4.38673,0.25678 -5.98111,4.45031 -2.07617,5.46075 -7.64247,3.86332 -6.48005,-1.85965 l 0.62776,-3.09066 -2.3333,3.23272 c -1.28331,1.778 -2.86802,3.2405 -3.52156,3.25 -0.67198,0.01 -1.10647,1.21212 -1,2.76728 0.16403,2.39607 -0.19784,2.77308 -2.81174,2.92934 -1.65,0.0986 -2.2125,-0.0469 -1.25,-0.32333 2.13839,-0.61422 2.32526,-4.6337 0.2938,-6.31966 -2.1532,-1.787 -3.75386,-0.26924 -3.05789,2.89951 0.40361,1.83763 0.0981,3.16453 -0.92406,4.01281 -1.32785,1.10202 -1.49673,0.78163 -1.29446,-2.45582 0.22798,-3.64908 0.13944,-3.74732 -4.44897,-4.93605 -4.97603,-1.28916 -7.12685,-0.71753 -8.75634,2.3272 -0.72126,1.34769 -0.35375,2.69413 1.4665,5.37287 l 2.42894,3.57451 -3.9918,0.67441 c -4.41149,0.74534 -5.96572,2.68066 -5.96572,7.42849 0,1.68616 -0.48032,3.06574 -1.06739,3.06574 -0.62065,0 -0.79534,-0.85715 -0.41738,-2.04799 1.03815,-3.27092 -1.21517,-4.95201 -6.63767,-4.95201 -4.80249,0 -6.42243,1.1932 -3.26494,2.40484 1.30436,0.50053 1.37704,0.90269 0.38021,2.10379 -0.88964,1.07196 -3.0289,1.43547 -7.69163,1.307 -4.62469,-0.12742 -6.7476,0.22851 -7.47455,1.2532 -0.82181,1.1584 -0.91036,1.10374 -0.46466,-0.2868 0.78658,-2.454 -1.0133,-3.1691 -4.42235,-1.75703 -3.37452,1.39777 -3.87964,3.91642 -0.93964,4.68525 1.1,0.28766 2,0.92053 2,1.40638 0,1.42348 -2.19422,1.01758 -4.17126,-0.77162 -1.71933,-1.55597 -1.82874,-1.52253 -1.82874,0.55902 0,1.2177 0.41891,1.95511 0.9309,1.63868 0.512,-0.31644 1.18441,-0.16515 1.49426,0.33619 0.30984,0.50134 -0.20895,1.20789 -1.15288,1.57011 -1.47253,0.56506 -1.50721,0.79294 -0.24425,1.60481 1.22536,0.7877 1.13309,1.03958 -0.55076,1.5034 -1.59408,0.4391 -2.02272,1.39271 -2.02272,4.49998 0,4.34973 0.16957,4.43531 5.57785,2.81495 3.12939,-0.93759 4.1565,-0.85324 6.08853,0.5 1.27824,0.89532 1.98312,1.62785 1.56639,1.62785 -0.41673,0 -0.27602,0.9 0.31268,2 1.76515,3.29821 3.03368,2.27115 2.75856,-2.23345 -0.20774,-3.40129 0.0949,-4.30207 1.53948,-4.58257 3.0879,-0.59959 4.61548,1.56354 3.97441,5.62795 -0.31995,2.02844 -0.97737,3.94905 -1.46095,4.26802 -1.04914,0.69202 0.0177,3.92005 1.29549,3.92005 0.49115,0 0.89301,-0.7301 0.89301,-1.62244 0,-1.30176 0.28577,-1.38528 1.4458,-0.42254 1.07467,0.8919 1.20302,1.83846 0.5,3.68754 -1.30474,3.43173 -1.18951,4.35744 0.54241,4.35744 1.95455,0 1.53855,4.28058 -0.49847,5.12909 -1.63395,0.68061 -4.38628,9.42027 -3.44587,10.94189 0.31579,0.51096 1.17446,0.92902 1.90816,0.92902 0.7337,0 1.59301,0.675 1.9096,1.5 0.39152,1.02029 -0.054,1.5 -1.39301,1.5 -1.08274,0 -1.85612,-0.5625 -1.71862,-1.25 0.30588,-1.5294 -5.56142,-1.31574 -6.07373,0.22118 -0.39461,1.18383 -21.11082,1.45512 -21.29142,0.27882 z m -6.47324,-27.95924 c -1.81929,-2.88417 -3.41161,-2.66983 -3.41161,0.45924 0,3.75784 0.98886,4.68971 2.92353,2.75505 1.15138,-1.15139 1.27516,-1.96651 0.48808,-3.21429 z m 25.00322,-34.65407 c -0.30973,-0.62518 0.14523,-0.26318 1.01101,0.80444 1.52912,1.88559 1.57416,1.8689 1.57416,-0.58333 0,-2.98254 -0.85218,-4.08121 -2.38948,-3.08061 -0.61079,0.39754 -2.01052,0.72281 -3.11052,0.72281 -2.66217,0 -3.37243,4.1613 -0.80847,4.73666 2.23604,0.50178 4.48273,-1.06708 3.7233,-2.59997 z m -0.88288,-5.73735 c 0.85476,-2.69311 -0.46335,-3.99155 -3.2992,-3.24996 -2.46423,0.64442 -2.87761,2.30576 -1.03275,4.15062 1.81327,1.81327 3.58767,1.44435 4.33195,-0.90066 z m -98.53195,-2.43072 c 0,-0.84227 -0.7875,-1.78307 -1.75,-2.09068 -0.9625,-0.30761 -2.77159,-1.0494 -4.02021,-1.64841 -1.65805,-0.79544 -2.5769,-0.78242 -3.40761,0.0483 -1.58491,1.58491 0.94721,4.51575 3.35697,3.88558 1.00037,-0.2616 2.07086,-0.0679 2.37887,0.43048 0.91809,1.4855 3.44198,1.02701 3.44198,-0.62526 z m 22,-22.22807 c 0,-0.4177 -0.9,-1.32152 -2,-2.00848 -2.18964,-1.36745 -2.71186,-0.34393 -0.8,1.56793 1.35449,1.35449 2.8,1.58193 2.8,0.44055 z m 10.02006,-0.76472 c 0.69572,-0.83829 1.04879,-1.74032 0.7846,-2.0045 -0.73789,-0.7379 -6.80466,1.60379 -6.80466,2.6265 0,1.49539 4.66259,1.01365 6.02006,-0.622 z M 476.8255,82.673872 c -1.76726,-3.07928 -3.23046,-3.16374 -3.23046,-0.18648 0,2.24848 0.86262,3.10765 3.12016,3.10765 1.69059,0 1.69653,-0.15732 0.1103,-2.92117 z m -91.61156,-40.52809 c 0.77957,-2.03153 -4.02528,-6.99251 -6.02808,-6.22396 -2.11747,0.81255 -2.00844,1.72008 0.59545,4.95615 2.40975,2.99482 4.57593,3.50034 5.43263,1.26781 z m 46.3811,-0.9283 c 0,-0.20765 -0.675,-0.93775 -1.5,-1.62244 -1.22851,-1.01957 -1.5,-0.95124 -1.5,0.37755 0,0.89235 0.675,1.62245 1.5,1.62245 0.825,0 1.5,-0.1699 1.5,-0.37756 z m 21.427,-6.10097 c -1.05985,-0.80182 -2.377,-1.46217 -2.927,-1.46743 -0.55,-0.005 0.11828,0.84965 1.48506,1.8998 1.36678,1.05016 2.68393,1.7105 2.927,1.46743 0.24307,-0.24306 -0.42521,-1.09797 -1.48506,-1.8998 z m -19.44231,-0.27147 c -0.0377,-1.84506 -1.92293,-3.48768 -3.36691,-2.93357 -2.11125,0.81016 -0.94958,3.68357 1.48921,3.68357 1.04115,0 1.88612,-0.3375 1.8777,-0.75 z m 17.82364,-4.325 c -0.19708,-0.59125 -0.78583,-1.075 -1.30833,-1.075 -0.5225,0 -1.11125,0.48375 -1.30833,1.075 -0.19709,0.59125 0.39166,1.075 1.30833,1.075 0.91667,0 1.50542,-0.48375 1.30833,-1.075 z m 4.19167,0.075 c 0,-0.55 -0.45,-1 -1,-1 -0.55,0 -1,0.45 -1,1 0,0.55 0.45,1 1,1 0.55,0 1,-0.45 1,-1 z M 432.13717,237.52687 c 0.3631,-0.5875 1.26058,-0.83778 1.99441,-0.55618 0.73384,0.2816 1.5028,0.006 1.70882,-0.61174 0.44657,-1.33971 3.75464,-0.2783 3.75464,1.20471 0,0.56726 -1.82656,1.03138 -4.05902,1.03138 -2.62407,0 -3.82563,-0.37762 -3.39885,-1.06817 z m 12.45787,-0.93183 c 0,-1.23628 -0.66826,-2.00182 -1.75,-2.00478 -0.9625,-0.003 -3.49644,-1.60868 -5.63098,-3.56901 -2.88698,-2.65136 -3.59132,-3.85391 -2.75,-4.69523 0.62204,-0.62204 1.13098,-2.60015 1.13098,-4.3958 0,-3.83901 2.10639,-5.33518 7.51118,-5.33518 4.89797,0 9.4883,4.43701 9.49004,9.17308 l 0.001,3.32692 2.52147,-2.93194 c 2.71681,-3.15909 2.77031,-5.24685 0.12235,-4.77422 -0.94412,0.16855 -1.64604,-0.36442 -1.64604,-1.25 0,-0.84911 0.41786,-1.54384 0.92857,-1.54384 1.14104,0 3.72723,2.512 4.35714,4.23214 0.35089,0.9582 0.76332,0.98715 1.68863,0.11852 1.59667,-1.49886 0.32441,-5.67928 -1.51375,-4.97391 -0.92405,0.35459 -1.1607,0.005 -0.73972,-1.09172 0.41229,-1.07443 0.22831,-1.37166 -0.55093,-0.89006 -0.70216,0.43396 -1.16994,0.0997 -1.16994,-0.83595 0,-0.85746 0.675,-1.55902 1.5,-1.55902 0.825,0 1.5,-0.68912 1.5,-1.53138 0,-0.84227 -0.675,-1.79041 -1.5,-2.10699 -0.825,-0.31659 -1.5,-1.04721 -1.5,-1.62361 0,-2.65517 3.80402,2.79895 5.33122,7.6438 1.39409,4.42254 2.20438,5.53579 4.43716,6.09619 2.28739,0.57411 3.19395,0.14377 5.57455,-2.6462 l 2.84292,-3.33181 -0.67952,4.24232 -0.67953,4.24232 2.96532,-0.59306 c 1.71503,-0.34301 3.25216,-0.12895 3.64562,0.50768 0.37416,0.60541 0.20374,1.10074 -0.37872,1.10074 -0.58246,0 -1.05902,0.49814 -1.05902,1.10699 0,0.62385 0.76377,0.83633 1.75,0.48684 1.04935,-0.37186 0.75919,0.15536 -0.72472,1.31682 -1.36109,1.06533 -2.52162,2.75875 -2.57895,3.76316 -0.39843,6.98065 1.30299,6.32619 -16.44633,6.32619 -15.33333,0 -16,-0.0833 -16,-2 z m 34,0.5 c 0,-0.825 0.675,-1.5 1.5,-1.5 0.825,0 1.5,0.5051 1.5,1.12244 0,0.7676 0.48185,0.72255 1.52417,-0.1425 1.67671,-1.39155 3.06164,-0.73682 2.01695,0.95353 -1.04367,1.68869 -6.54112,1.32438 -6.54112,-0.43347 z m -205.92611,-0.91097 c -0.80051,-0.96456 -0.83925,-1.61601 -0.12245,-2.05902 1.39636,-0.863 3.04856,0.23665 3.04856,2.02901 0,1.83608 -1.41516,1.85059 -2.92611,0.03 z m -15.57389,-0.58903 c -0.33992,-0.55 0.0835,-1 0.94098,-1 0.85746,0 1.55902,0.45 1.55902,1 0,0.55 -0.42344,1 -0.94098,1 -0.51754,0 -1.2191,-0.45 -1.55902,-1 z m 33.24208,-0.11074 c -0.96686,-0.54863 -2.19009,-0.73041 -2.7183,-0.40395 -0.52822,0.32645 -0.35963,-0.83524 0.37464,-2.58154 2.41072,-5.73343 8.50628,-6.71022 7.14184,-1.14445 -0.95742,3.90547 -2.6406,5.35423 -4.79818,4.12994 z M 54.595041,234.59504 c 0,-0.55 0.45,-1 1,-1 0.55,0 1,0.45 1,1 0,0.55 -0.45,1 -1,1 -0.55,0 -1,-0.45 -1,-1 z m 17,-0.5 c 0,-0.825 0.675,-1.5 1.5,-1.5 0.825,0 1.5,0.675 1.5,1.5 0,0.825 -0.675,1.5 -1.5,1.5 -0.825,0 -1.5,-0.675 -1.5,-1.5 z m 173.736129,0.303 c -0.56827,-1.58939 0.96999,-4.803 2.29905,-4.803 1.37414,0 1.13709,2.18894 -0.46598,4.303 -1.01173,1.33423 -1.48832,1.46423 -1.83307,0.5 z m 113.4937,0.528 c -0.6986,-0.28112 -2.13688,-2.30499 -3.19619,-4.4975 -2.12826,-4.405 -1.66465,-7.07128 1.76695,-10.16189 2.01232,-1.81235 2.02538,-1.79304 1.48949,2.20235 -0.29735,2.2169 -0.20009,4.83967 0.21613,5.82838 0.74649,1.77327 1.70464,7.37207 1.23537,7.21871 -0.13287,-0.0434 -0.81316,-0.30894 -1.51175,-0.59005 z m -281.039458,-2.081 c 0.212604,-1.10396 1.249817,-1.75 2.809629,-1.75 1.559812,0 2.597025,0.64604 2.809629,1.75 0.263319,1.3673 -0.351099,1.75 -2.809629,1.75 -2.45853,0 -3.072948,-0.3827 -2.809629,-1.75 z m 253.309628,0.75 c -0.7292,-1.17987 0.21667,-3 1.55902,-3 0.51754,0 0.94098,0.9 0.94098,2 0,2.10908 -1.45488,2.69104 -2.5,1 z M 58.595041,232.15406 c 0,-0.79254 0.469712,-1.73128 1.043805,-2.08609 1.291159,-0.79798 4.138848,1.42251 3.386168,2.64038 -0.89558,1.44907 -4.429973,1.00684 -4.429973,-0.55429 z m 365.603009,0.60765 c -0.28327,-0.45834 0.12038,-0.83334 0.89699,-0.83334 0.77661,0 1.18026,0.375 0.89699,0.83334 -0.28326,0.45833 -0.68691,0.83333 -0.89699,0.83333 -0.21008,0 -0.61373,-0.375 -0.89699,-0.83333 z m 6.39699,-0.16667 c 0,-0.55 0.45,-1 1,-1 0.55,0 1,0.45 1,1 0,0.55 -0.45,1 -1,1 -0.55,0 -1,-0.45 -1,-1 z m 51.54271,0.0691 c -0.68308,-1.10523 0.8944,-2.29865 1.81781,-1.37525 0.95079,0.95079 0.77359,2.30615 -0.3015,2.30615 -0.51754,0 -1.19988,-0.41891 -1.51631,-0.9309 z m -335.54271,-4.53772 c 0,-0.89208 0.5866,-1.24351 1.49426,-0.89521 0.82184,0.31537 1.24528,0.97625 0.94098,1.46861 -0.87262,1.41193 -2.43524,1.04399 -2.43524,-0.5734 z m 215,0.46862 c 0,-0.55 0.45,-1 1,-1 0.55,0 1,0.45 1,1 0,0.55 -0.45,1 -1,1 -0.55,0 -1,-0.45 -1,-1 z M 3.0101231,226.10578 c -1.9241914,-2.93668 -0.894459,-4.94229 2.228698,-4.34083 1.299919,0.25035 1.85622,1.22749 1.85622,3.26045 0,3.8261 -1.948235,4.34137 -4.084918,1.08038 z m 210.8140869,0.30176 c 0.61807,-1.85422 2.77083,-2.16176 2.77083,-0.39583 0,0.87083 -0.7125,1.58333 -1.58333,1.58333 -0.87084,0 -1.40521,-0.53438 -1.1875,-1.1875 z m 132.77083,0.1875 c 0,-0.55 0.45,-1 1,-1 0.55,0 1,0.45 1,1 0,0.55 -0.45,1 -1,1 -0.55,0 -1,-0.45 -1,-1 z M 74.288894,225.95556 c -0.798931,-0.79893 0.104186,-2.36052 1.365164,-2.36052 0.517541,0 0.940983,0.675 0.940983,1.5 0,1.54641 -1.179963,1.9867 -2.306147,0.86052 z m 185.385096,-1.94385 c 0.048,-1.16495 0.28494,-1.4019 0.60416,-0.60417 0.28887,0.72187 0.25335,1.58437 -0.0789,1.91667 -0.33229,0.33229 -0.56864,-0.25834 -0.52522,-1.3125 z m -43.61956,-0.8227 c -2.49374,-1.82347 -0.82359,-8.95897 2.19952,-9.39719 2.65413,-0.38473 5.34109,2.25751 5.34109,5.2522 0,3.75178 -4.6116,6.28673 -7.54061,4.14499 z m 57.04061,0.40603 c 0.33992,-0.55 0.81648,-1 1.05902,-1 0.24254,0 0.44098,0.45 0.44098,1 0,0.55 -0.47656,1 -1.05902,1 -0.58246,0 -0.7809,-0.45 -0.44098,-1 z m 20.84508,-2.54313 c -0.32569,-0.84872 -0.3415,-1.79378 -0.0351,-2.10013 0.87571,-0.87571 2.69007,0.60965 2.69007,2.20228 0,1.91885 -1.90756,1.84546 -2.65492,-0.10215 z m -225.684774,-0.1299 c -1.04126,-1.04126 -0.770186,-4.14103 0.426827,-4.88082 2.034308,-1.25727 3.249668,1.23491 1.688903,3.46322 -0.800484,1.14285 -1.752562,1.78077 -2.11573,1.4176 z m 187.023024,0.023 c -1.06527,-1.06527 -0.80245,-4.35 0.34805,-4.35 1.47853,0 2.40944,2.95918 1.28474,4.08388 -0.5222,0.5222 -1.25695,0.64195 -1.63279,0.26612 z m 11.12917,-0.0331 c 0.72187,-0.28887 1.58438,-0.25335 1.91667,0.0789 0.33229,0.33229 -0.25834,0.56864 -1.3125,0.52522 -1.16495,-0.048 -1.4019,-0.28494 -0.60417,-0.60416 z m -56.8125,-1.31687 c 0,-0.55 0.45,-1 1,-1 0.55,0 1,0.45 1,1 0,0.55 -0.45,1 -1,1 -0.55,0 -1,-0.45 -1,-1 z m 124,0 c 0,-0.55 0.45,-1 1,-1 0.55,0 1,0.45 1,1 0,0.55 -0.45,1 -1,1 -0.55,0 -1,-0.45 -1,-1 z m 133.13112,-1.34201 c -0.61257,-0.7381 -0.8335,-1.62227 -0.49096,-1.96482 0.9364,-0.93639 4.50613,1.26111 3.82883,2.357 -0.81959,1.32613 -2.02981,1.18394 -3.33787,-0.39218 z m -103.13112,-0.49198 c 0,-0.57639 0.37497,-1.27972 0.83327,-1.56296 0.4583,-0.28325 0.63222,-1.88481 0.3865,-3.55902 -0.47184,-3.21484 0.20175,-3.57373 4.53023,-2.41374 3.28902,0.88142 3.17184,5.92153 -0.1571,6.75704 -1.3239,0.33228 -3.1239,0.8792 -4,1.21539 -0.87609,0.33619 -1.5929,0.13967 -1.5929,-0.43671 z m -181.69755,-4.79206 c -4.03691,-4.78156 -4.21472,-4.86981 -9.38012,-4.65557 -5.70603,0.23665 -6.88321,1.19766 -6.90702,5.63861 -0.0117,2.19123 -0.38391,2.71554 -1.5971,2.25 -0.86998,-0.33385 -2.00355,-0.60699 -2.51905,-0.60699 -0.5155,0 -0.66723,-1.07591 -0.33718,-2.39091 0.33004,-1.31499 0.15586,-2.66544 -0.38707,-3.00099 -1.6645,-1.02872 -0.10108,-4.47718 2.17703,-4.80191 1.78837,-0.25492 2.14806,-0.97598 2.14806,-4.30619 0,-3.97866 -0.0213,-4.00068 -4,-4.12805 -8.58724,-0.27491 -8.35034,-0.17155 -9.44742,-4.12195 -1.3742,-4.94827 -1.43083,-4.64703 1.53631,-8.17327 5.09824,-6.05892 13.41111,-2.61371 13.41111,5.55813 0,2.7234 0.39007,3.36514 2.04545,3.36514 1.125,0 3.12085,-1.07539 4.43521,-2.38976 2.67649,-2.67648 2.48167,-5.42937 -0.58035,-8.20046 -1.04517,-0.94587 -1.90031,-2.41102 -1.90031,-3.2559 0,-1.19922 0.32483,-1.11039 1.481,0.40499 1.28188,1.68015 1.61594,1.73946 2.48468,0.44113 1.52958,-2.28593 1.22892,-3.99295 -0.71568,-4.06339 -1.34081,-0.0486 -1.2239,-0.27485 0.5,-0.96777 1.2375,-0.49742 2.25,-1.35306 2.25,-1.90143 0,-1.42151 3.40435,-3.05711 4.67825,-2.24763 0.58877,0.37412 1.3806,2.11007 1.75964,3.85767 0.63683,2.93623 0.47556,3.20193 -2.12437,3.5 -2.36176,0.27076 -2.86384,0.8444 -3.12688,3.57255 -0.17235,1.7875 0.0954,3.25 0.59501,3.25 1.30021,0 4.21835,-3.42107 4.21835,-4.94537 0,-0.81531 0.76927,-1.08672 2.09645,-0.73966 2.71071,0.70887 4.90355,-0.155 4.90355,-1.93175 0,-0.77154 0.9014,-2.1746 2.00312,-3.11792 1.5839,-1.35618 1.87244,-2.45286 1.37871,-5.24021 -0.81351,-4.59265 1.02914,-3.02824 2.94353,2.49907 1.26568,3.65432 1.6375,3.94892 4.59778,3.64293 2.57548,-0.26622 3.32986,0.0844 3.76543,1.75 0.76752,2.935 4.14315,2.65573 5.3202,-0.44015 0.78426,-2.06277 1.41657,-2.40829 3.46593,-1.89393 1.78989,0.44923 2.6829,0.16988 3.12297,-0.97694 0.97022,-2.52835 2.17617,-1.87384 1.64708,0.89393 -0.27897,1.45935 -0.0131,2.5 0.63867,2.5 0.61412,0 1.11658,-0.45 1.11658,-1 0,-0.55 0.45,-1 1,-1 1.82697,0 1.03495,2.06587 -1.69095,4.41059 l -2.69095,2.31466 2.19095,1.17256 c 1.20502,0.64491 2.19095,1.84286 2.19095,2.66212 0,1.61858 -4.36145,3.76306 -7.3798,3.62857 -2.4884,-0.11087 -6.29977,-3.77566 -7.05464,-6.78333 -0.66989,-2.66904 -1.27798,-2.8452 -4.97253,-1.44054 -2.91812,1.10947 -4.24879,4.94155 -2.71264,7.81188 0.57775,1.07954 2.65146,2.72252 4.60825,3.65107 1.95678,0.92856 3.29785,2.10887 2.98015,2.62291 -0.32574,0.52707 -2.28081,0.0657 -4.48337,-1.05793 -6.59625,-3.36515 -9.79567,-2.06904 -8.42024,3.41111 0.34894,1.39031 -0.032,2.73889 -1.00089,3.54298 -0.86036,0.71403 -1.56429,1.93907 -1.56429,2.72231 0,0.78323 -1.34715,2.19063 -2.99368,3.12755 -3.20947,1.82629 -3.62481,3.17931 -1.94147,6.32467 2.30286,4.30292 0.13835,3.87304 -3.7624,-0.74723 z m -33.92901,2.15683 c -0.34129,-0.88937 -0.37384,-1.86372 -0.0723,-2.16521 0.96246,-0.96246 4.82443,0.75779 4.42108,1.96929 -0.61313,1.84162 -3.66448,1.97909 -4.34874,0.19592 z m 300.62656,-0.53078 c 0,-1.11111 0.66667,-2 1.5,-2 0.83333,0 1.5,0.88889 1.5,2 0,1.11111 -0.66667,2 -1.5,2 -0.83333,0 -1.5,-0.88889 -1.5,-2 z M 40.693817,212.03788 c -1.154327,-1.95644 -2.098776,-4.12159 -2.098776,-4.81144 0,-1.48769 3.679114,-5.6314 5,-5.6314 1.836172,0 5,4.43837 5,7.01425 0,2.28919 -3.506525,6.98575 -5.215675,6.98575 -0.322725,0 -1.531222,-1.60072 -2.685549,-3.55716 z m 9.901224,1.6796 c 0,-0.48265 0.622448,-1.39414 1.383217,-2.02552 1.062177,-0.88153 1.511715,-0.81311 1.936858,0.2948 0.304502,0.79352 -0.12975,1.705 -0.965005,2.02552 -2.030761,0.77928 -2.35507,0.73868 -2.35507,-0.2948 z m 30,-0.18146 c 0,-0.58246 0.45,-0.7809 1,-0.44098 0.55,0.33992 1,0.81648 1,1.05902 0,0.24254 -0.45,0.44098 -1,0.44098 -0.55,0 -1,-0.47656 -1,-1.05902 z m 93.249999,0.34074 c -1.97337,-0.70787 -1.45605,-2.28172 0.75,-2.28172 1.1,0 2,0.42344 2,0.94098 0,1.28004 -1.2374,1.88333 -2.75,1.34074 z m 279.78041,-2.83172 c 0.0267,-2.58611 0.16279,-2.72225 1.10362,-1.10362 0.76916,1.32326 0.76054,2.15905 -0.0304,2.95 -0.80483,0.80483 -1.09539,0.30495 -1.07321,-1.84638 z m -78.03041,0.05 c 0,-0.825 0.45,-1.5 1,-1.5 0.55,0 1,0.675 1,1.5 0,0.825 -0.45,1.5 -1,1.5 -0.55,0 -1,-0.675 -1,-1.5 z m 70,0.5 c 0,-0.55 0.70156,-1 1.55902,-1 0.85746,0 1.2809,0.45 0.94098,1 -0.33992,0.55 -1.04148,1 -1.55902,1 -0.51754,0 -0.94098,-0.45 -0.94098,-1 z m -160.51793,-2.01982 c -1.29906,-1.43544 -1.40891,-2.24837 -0.52659,-3.89699 1.33483,-2.49416 1.34676,-2.49538 5.15637,-0.52535 3.63588,1.88019 3.49324,4.50279 -0.30008,5.51724 -1.97901,0.52925 -3.12129,0.24038 -4.3297,-1.0949 z M 33.795041,209.39504 c -0.66,-0.66 -1.2,-1.56 -1.2,-2 0,-1.19165 2.778662,-0.96715 3.553851,0.28713 1.029659,1.66603 -0.955859,3.11086 -2.353851,1.71287 z m 27.3,0.2 c -0.339919,-0.55 -1.491476,-1 -2.559017,-1 -1.067541,0 -1.940983,-0.38067 -1.940983,-0.84594 0,-0.46527 1.6875,-0.74443 3.75,-0.62036 2.535053,0.15249 3.854752,0.75054 4.073324,1.84593 0.35267,1.76744 -2.307498,2.26401 -3.323324,0.62037 z m 78.852329,0.007 c -3.2098,-1.29508 -3.91985,-3.11854 -1.81398,-4.65839 4.03075,-2.94736 9.3005,-0.56664 7.97688,3.60371 -0.68558,2.16006 -2.60791,2.48904 -6.1629,1.05468 z m 331.24544,0.25774 c -1.4349,-1.4352 -0.50449,-4.26474 1.40223,-4.26474 1.29565,0 2,0.66667 2,1.89301 0,1.89949 -2.28293,3.49073 -3.40223,2.37142 z m -354.11707,-2.65519 c -1.61274,-1.17927 -1.72641,-1.77485 -0.7484,-3.92136 0.85107,-1.86789 1.69209,-2.38997 3.21043,-1.99292 1.2702,0.33217 2.05727,0.0573 2.05727,-0.7184 0,-1.41756 2.91174,-3.89676 4.63337,-3.94507 1.95283,-0.0548 2.34826,4.00402 0.54242,5.56751 -4.56691,3.95399 -7.48378,6.40069 -7.63068,6.40069 -0.0896,0 -1.01855,-0.6257 -2.06441,-1.39045 z m 192.5193,-1.10955 c -0.72472,-1.90616 -1.66898,-2.5 -3.97525,-2.5 -2.79531,0 -3.02475,-0.26787 -3.02475,-3.53138 0,-2.28053 0.55391,-3.74394 1.56377,-4.13146 2.3264,-0.89273 6.43623,1.34541 6.43623,3.50504 0,1.03679 1.16485,3.04993 2.58856,4.47363 2.77767,2.77767 2.50402,4.68417 -0.67233,4.68417 -1.17665,0 -2.34728,-1.00355 -2.91623,-2.5 z m -227.41705,0.63421 c -0.430771,-0.697 -0.513159,-1.53733 -0.183085,-1.86741 0.894961,-0.89496 1.870768,0.4213 1.387387,1.87145 -0.338725,1.01617 -0.574267,1.01538 -1.204302,-0.004 z m 160.41705,-1.13421 c 0,-1.50615 0.52215,-2.04609 1.75,-1.80963 0.9625,0.18536 1.75,0.99969 1.75,1.80963 0,0.80994 -0.7875,1.62427 -1.75,1.80963 -1.22785,0.23646 -1.75,-0.30348 -1.75,-1.80963 z m -44,-1 c 0,-0.55 0.45,-1 1,-1 0.55,0 1,0.45 1,1 0,0.55 -0.45,1 -1,1 -0.55,0 -1,-0.45 -1,-1 z m 7.07895,-1.58333 c 0.048,-1.16495 0.28494,-1.4019 0.60416,-0.60417 0.28887,0.72187 0.25335,1.58437 -0.0789,1.91667 -0.3323,0.33229 -0.56864,-0.25834 -0.52522,-1.3125 z M 49.930874,202.02782 c -0.330769,-0.86197 -0.121894,-2.04672 0.464167,-2.63278 1.555453,-1.55545 4.2,-0.18998 4.2,2.16862 0,2.46621 -3.752603,2.83966 -4.664167,0.46416 z m 51.914166,-0.46394 c -2.609311,-1.04882 -2.615321,-1.07293 -1.09824,-4.40257 1.39854,-3.06947 4.05477,-4.06129 6.85833,-2.56087 2.24057,1.19912 4.36653,5.5762 3.43805,7.07852 -0.71156,1.15132 -6.21892,1.08242 -9.19814,-0.11508 z m 98.41667,0.36449 c -1.15064,-1.15063 -0.72824,-2.33333 0.83333,-2.33333 0.825,0 1.5,0.675 1.5,1.5 0,1.56157 -1.1827,1.98397 -2.33333,0.83333 z m 36.62308,-1.33333 c -0.28766,-1.1 -0.81228,-2 -1.16583,-2 -0.35356,0 -1.22691,-0.93526 -1.94078,-2.07836 -0.99678,-1.5961 -1.02631,-2.40569 -0.12724,-3.48899 1.55718,-1.87629 2.9441,-0.88637 2.9441,2.10137 0,2.14832 0.33066,2.34985 2.9846,1.81906 3.74453,-0.74891 5.42169,2.14545 2.48675,4.29153 -2.62859,1.92207 -4.57368,1.6801 -5.1816,-0.64461 z m 33.89169,0.29637 c 0.22985,-1.19349 1.46926,-1.77663 4.13913,-1.94743 2.6068,-0.16676 3.67848,0.13458 3.3915,0.95363 -0.23076,0.65859 -1.16037,1.0652 -2.06581,0.90359 -0.90544,-0.16161 -1.64626,0.17589 -1.64626,0.75 0,0.57411 -0.933,1.04384 -2.07332,1.04384 -1.41482,0 -1.96912,-0.54109 -1.74524,-1.70363 z m 167.49111,-0.44052 c -0.78552,-3.00385 0.99496,-4.9774 3.84511,-4.26206 1.55487,0.39024 2.59613,0.0253 3.24719,-1.13809 0.5913,-1.05659 1.20642,-1.3112 1.60596,-0.66474 0.35616,0.57629 0.017,1.6784 -0.75377,2.44914 -0.77074,0.77074 -1.56622,2.26952 -1.76774,3.33062 -0.56199,2.95914 -5.41885,3.18334 -6.17675,0.28513 z M -0.31477041,196.34504 c -0.089053,-5.67759 0.2791781,-6.26364 3.65981151,-5.82465 0.6875,0.0893 1.25,-0.7574 1.25,-1.88151 0,-1.12411 0.45,-2.04384 1,-2.04384 0.55,0 1,1.35 1,3 0,2.27682 0.456332,3 1.893011,3 2.0500669,0 3.5439679,-2.4526 3.1978179,-5.25 -0.324288,-2.62071 1.788941,-2.10798 3.091125,0.75 0.742525,1.62966 1.953531,2.5 3.478561,2.5 2.977472,0 3.012265,2.12101 0.08948,5.45514 -2.071946,2.36355 -2.551894,2.48152 -6.064933,1.49083 -2.098213,-0.59171 -4.7220399,-1.98294 -5.8307269,-3.09163 -1.944861,-1.94486 -2.065326,-1.95137 -3.423351,-0.18507 -0.774155,1.0069 -1.822243,3.18073 -2.32908391,4.83073 -0.8137516,2.64914 -0.9320762,2.32751 -1.0117166,-2.75 z m 282.90981041,4.25 c 0,-0.55 0.47656,-1 1.05902,-1 0.58246,0 0.7809,0.45 0.44098,1 -0.33992,0.55 -0.81648,1 -1.05902,1 -0.24254,0 -0.44098,-0.45 -0.44098,-1 z m -135,-1.05902 c 0,-0.58246 0.45,-0.7809 1,-0.44098 0.55,0.33992 1,0.81648 1,1.05902 0,0.24254 -0.45,0.44098 -1,0.44098 -0.55,0 -1,-0.47656 -1,-1.05902 z m 68.01135,-0.89513 c -4.10331,-0.64202 -4.95698,-2.88009 -2.08867,-5.47588 1.32566,-1.1997 2.81168,-1.60247 4.42154,-1.19842 1.97636,0.49603 2.38072,1.16905 2.18641,3.63907 -0.29351,3.73115 -0.25156,3.70297 -4.51928,3.03523 z m -74.32385,-0.69168 c -1.41552,-1.41552 -0.61453,-3.35417 1.38582,-3.35417 1.39797,0 1.96801,0.54305 1.75,1.66713 -0.35694,1.84048 -2.064,2.75886 -3.13582,1.68704 z m 281.79287,-0.38593 c -0.38836,-0.62838 -0.23556,-1.61305 0.33954,-2.18815 1.3439,-1.3439 4.47714,-0.17169 3.93038,1.47044 -0.5566,1.67168 -3.38637,2.14732 -4.26992,0.71771 z m 6.08966,-1.85493 c -0.30141,-0.48768 0.0695,-1.39917 0.8242,-2.02553 1.05652,-0.87684 1.5141,-0.76906 1.98899,0.46848 0.33923,0.88403 0.61678,1.79551 0.61678,2.02553 0,0.80441 -2.88698,0.4101 -3.42997,-0.46848 z m -17.49108,-1.69664 c 0.048,-1.16495 0.28494,-1.4019 0.60416,-0.60417 0.28887,0.72187 0.25335,1.58437 -0.0789,1.91667 -0.33229,0.33229 -0.56864,-0.25834 -0.52522,-1.3125 z m -281.60635,-5.44695 c -2.4411,-2.69738 -1.01607,-6.94265 2.97211,-8.85413 3.4361,-1.64688 5.6084,-0.66202 6.97108,3.1605 2.12596,5.96362 -5.66269,10.42353 -9.94319,5.69363 z m 162.0274,1.03028 c -0.83704,-1.35436 0.29243,-3 2.05902,-3 0.79254,0 1.44098,0.9 1.44098,2 0,2.07031 -2.41251,2.7596 -3.5,1 z m 168.5,-0.37756 c 0,-0.75765 0.66968,-1.93333 1.48817,-2.61262 1.20277,-0.99821 1.60332,-0.93499 2.08861,0.32967 0.33024,0.8606 0.30901,2.03629 -0.0472,2.61262 -0.94263,1.5252 -3.5296,1.28358 -3.5296,-0.32967 z m -192.20159,-2.67019 c -2.6878,-2.68779 -2.99017,-3.55863 -2.56018,-7.37343 0.28302,-2.51095 -0.0842,-5.68553 -0.87533,-7.56706 -1.82019,-4.32896 -1.71733,-6.65733 0.3871,-8.76176 0.9625,-0.9625 1.75,-3.08671 1.75,-4.72047 0,-3.41973 3.94261,-6.23702 6.15674,-4.39945 1.19139,0.98876 1.02604,1.98097 -1.31148,7.86992 -0.98407,2.47917 -0.25662,11.4364 0.99187,12.21313 0.63958,0.39791 2.86941,0.45218 4.95517,0.1206 3.09166,-0.49149 4.24638,-0.1763 6.25,1.70601 1.35174,1.26989 2.4577,3.27701 2.4577,4.46026 0,2.73881 -4.39264,6.94704 -6.43386,6.16375 -0.93176,-0.35754 -1.94871,0.18257 -2.58607,1.37349 -1.57143,2.93625 -5.64137,2.45531 -9.18166,-1.08499 z m 152.45159,2.38547 c -0.6875,-0.27741 -1.25,-1.36689 -1.25,-2.42105 0,-1.34127 0.70048,-1.91667 2.33333,-1.91667 3.09114,0 3.8089,0.86572 2.5963,3.13148 -1.02664,1.9183 -1.51677,2.07897 -3.67963,1.20624 z m -10.38922,-2.25164 c -1.29843,-1.05266 -2.10005,-2.17588 -1.78139,-2.49606 0.31866,-0.32017 1.63461,0.54109 2.92431,1.91392 2.78323,2.96261 2.17529,3.27226 -1.14292,0.58214 z m 16.13922,-0.0861 c 0,-0.55 0.45,-1 1,-1 0.55,0 1,0.45 1,1 0,0.55 -0.45,1 -1,1 -0.55,0 -1,-0.45 -1,-1 z m 60.22917,-0.1875 c 0.61807,-1.85422 2.77083,-2.16176 2.77083,-0.39583 0,0.87083 -0.7125,1.58333 -1.58333,1.58333 -0.87084,0 -1.40521,-0.53438 -1.1875,-1.1875 z m -434.042527,-3.0625 c 0.261107,-2.70808 0.771903,-3.30276 3.063358,-3.56642 2.359055,-0.27144 2.75,0.0434 2.75,2.21481 0,1.47911 -0.803993,2.96153 -1.934259,3.56643 -3.28487,1.75801 -4.211158,1.22913 -3.879099,-2.21482 z m 233.813357,1.30902 c 0,-0.51754 0.45,-1.2191 1,-1.55902 0.55,-0.33992 1,0.0835 1,0.94098 0,0.85746 -0.45,1.55902 -1,1.55902 -0.55,0 -1,-0.42344 -1,-0.94098 z m -163.63581,-1.55233 c -0.34636,-0.90262 -0.15025,-2.12063 0.43581,-2.70669 1.52361,-1.52361 4.41041,-0.13109 4.01242,1.93549 -0.4433,2.30188 -3.64766,2.85743 -4.44823,0.7712 z m 114.3599,-0.91768 c -2.60703,-1.97796 -2.54051,-7.77259 0.11975,-10.43285 2.30129,-2.30129 4.15616,-2.80771 4.15616,-1.13472 0,0.56179 -1.10886,1.52667 -2.46413,2.14417 -1.95414,0.89037 -2.43802,1.81727 -2.33797,4.47856 0.14469,3.84872 0.79796,4.19336 2.57003,1.35583 0.68696,-1.1 1.70933,-2 2.27193,-2 1.93822,0 2.19886,3.07874 0.42643,5.03725 -2.08021,2.2986 -2.39197,2.33488 -4.7422,0.55176 z m 226.73479,0.34446 c -0.36253,-0.58659 -0.41903,-1.30665 -0.12555,-1.60014 0.71632,-0.71631 2.66667,0.54583 2.66667,1.72569 0,1.27797 -1.72641,1.19267 -2.54112,-0.12555 z m -202.95888,-0.93347 c -0.33992,-0.55 -0.16803,-1 0.38197,-1 0.55,0 1.27811,0.45 1.61803,1 0.33992,0.55 0.16803,1 -0.38197,1 -0.55,0 -1.27811,-0.45 -1.61803,-1 z m 33,0 c -0.33992,-0.55 -0.14148,-1 0.44098,-1 0.58246,0 1.05902,0.45 1.05902,1 0,0.55 -0.19844,1 -0.44098,1 -0.24254,0 -0.7191,-0.45 -1.05902,-1 z m -40.00587,-2.01849 c -0.86212,-2.71632 0.12124,-3.7139 2.30383,-2.33715 2.17558,1.37232 2.19691,3.73295 0.0375,4.14882 -0.99574,0.19176 -1.93648,-0.53617 -2.34131,-1.81167 z m -100.49413,-0.98151 c 0,-0.55 0.45,-1 1,-1 0.55,0 1,0.45 1,1 0,0.55 -0.45,1 -1,1 -0.55,0 -1,-0.45 -1,-1 z m -40.89069,-0.7969 c -0.61012,-0.20337 -1.10931,-1.05975 -1.10931,-1.90306 0,-1.13039 0.59124,-1.34975 2.25,-0.83478 1.2375,0.38419 3.02833,0.80251 3.97963,0.92959 0.95129,0.12709 1.98687,0.48832 2.30127,0.80272 0.67102,0.67102 -5.79638,1.54727 -7.42159,1.00553 z m 24.83801,-0.76657 c -1.15304,-1.38933 -1.10136,-1.77082 0.34992,-2.583 0.93652,-0.5241 1.70276,-1.60555 1.70276,-2.40322 0,-1.91046 2.62433,-1.87167 3.36163,0.0497 0.32946,0.85856 0.0205,1.5 -0.72242,1.5 -0.7139,0 -1.26228,0.96696 -1.21861,2.14879 0.10093,2.73134 -1.7161,3.40501 -3.47328,1.28774 z m 154.46415,-0.7595 c -0.59869,-0.6858 -0.81359,-2.03067 -0.47756,-2.98861 0.53291,-1.51923 0.85238,-1.56517 2.501,-0.35967 1.16348,0.85076 1.64745,2.01425 1.25895,3.02664 -0.74433,1.9397 -1.78115,2.04129 -3.28239,0.32164 z m -219.411469,-1.0937 c 0,-0.87083 0.7125,-1.58333 1.583333,-1.58333 1.765927,0 1.45839,2.15276 -0.395833,2.77083 -0.653125,0.21771 -1.1875,-0.31666 -1.1875,-1.1875 z m 29.199999,0.21667 c -1.79077,-1.79077 -1.44938,-5.50968 0.64197,-6.9933 1.01308,-0.71868 2.02558,-1.85797 2.25,-2.53175 0.5858,-1.75878 6.90803,3.40528 6.90803,5.64254 0,3.99851 -6.9361,6.74641 -9.8,3.88251 z M 4.8204081,174.88606 c -1.251049,-0.24013 -3.007988,-1.55584 -3.90430901,-2.9238 -1.4807493,-2.25991 -1.4862324,-2.63064 -0.060002,-4.05687 1.14107201,-1.14107 2.34367301,-1.35295 4.40430901,-0.77598 1.559049,0.43653 3.255623,0.69204 3.770164,0.5678 2.3968139,-0.5787 5.5644709,1.06715 5.5644709,2.89118 0,1.79564 -4.6989459,5.21129 -6.7003399,4.87045 -0.439813,-0.0749 -1.823245,-0.33265 -3.074293,-0.57278 z M 470.81274,174.44052 c 0.24642,-0.74002 1.25007,-1.50098 2.23033,-1.691 1.14002,-0.221 1.62085,0.13937 1.33427,1 -0.24642,0.74002 -1.25007,1.50098 -2.23033,1.691 -1.14002,0.221 -1.62085,-0.13937 -1.33427,-1 z m -339.7177,-0.8455 c 0.33992,-0.55 1.29303,-1 2.11803,-1 0.825,0 1.22189,0.45 0.88197,1 -0.33992,0.55 -1.29303,1 -2.11803,1 -0.825,0 -1.22189,-0.45 -0.88197,-1 z m 28,0 c -0.33992,-0.55 -0.14148,-1 0.44098,-1 0.58246,0 1.05902,0.45 1.05902,1 0,0.55 -0.19844,1 -0.44098,1 -0.24254,0 -0.7191,-0.45 -1.05902,-1 z m 127.5,-1.05902 c 0,-0.58246 0.45,-0.7809 1,-0.44098 0.55,0.33992 1,0.81648 1,1.05902 0,0.24254 -0.45,0.44098 -1,0.44098 -0.55,0 -1,-0.47656 -1,-1.05902 z m -122.82332,-1.4938 c 0.45227,-2.17211 2.22702,-2.30502 2.63295,-0.19718 0.2108,1.0946 -0.27967,1.75 -1.30963,1.75 -0.96073,0 -1.51197,-0.64684 -1.32332,-1.55282 z m 61.9276,0.63843 c -2.10714,-1.33423 -0.51492,-4.08561 2.36434,-4.08561 2.89856,0 3.22447,1.16405 0.95995,3.42857 -1.83105,1.83105 -1.55603,1.77669 -3.32429,0.65704 z m -163.014131,-0.9233 c -2.779373,-0.81875 -5.724316,-4.49915 -6.617859,-8.27057 -0.520701,-2.19775 0.02371,-3.1165 3.458898,-5.83722 3.589646,-2.84305 4.553942,-3.14833 8.068872,-2.55449 4.80014,0.81098 7.999941,4.395 7.999941,8.96053 0,5.60764 -6.617343,9.5554 -12.909852,7.70175 z m -42.840148,-1.82896 c -0.6875,-0.275 -1.25,-1.3625 -1.25,-2.41666 0,-1.39162 0.703907,-1.91667 2.569551,-1.91667 2.068689,0 2.507263,0.42331 2.25,2.17167 -0.336878,2.28943 -1.495711,2.9912 -3.569551,2.16166 z m 452.249999,-0.33333 c 0.33992,-0.55 0.81648,-1 1.05902,-1 0.24254,0 0.44098,0.45 0.44098,1 0,0.55 -0.47656,1 -1.05902,1 -0.58246,0 -0.7809,-0.45 -0.44098,-1 z m -348.91303,-1.31275 c -1.40346,-1.02623 -1.57112,-1.57901 -0.65133,-2.14747 1.44505,-0.89309 3.46066,0.77131 2.91532,2.40733 -0.26011,0.78035 -0.94966,0.7012 -2.26399,-0.25986 z m 23.15609,0.72247 c -1.29477,-1.29477 -0.809,-3.27038 1.28348,-5.21982 1.3761,-1.28203 1.79516,-2.49097 1.30563,-3.76665 -0.42508,-1.10776 0.78462,-0.37312 2.94805,1.79031 3.17289,3.17288 4.12842,3.59439 7.06724,3.11748 2.08486,-0.33833 3.67936,-0.0967 4.12554,0.62528 1.11294,1.80077 -0.0403,2.36161 -5.22273,2.53989 -2.61265,0.0899 -6.1034,0.49938 -7.75721,0.90999 -1.65382,0.41062 -3.34132,0.4122 -3.75,0.004 z m 100.50647,-0.65972 c 0.63003,-1.89219 3.75047,-2.1612 3.75047,-0.32332 0,0.92763 -0.855,1.57332 -2.08333,1.57332 -1.22198,0 -1.91126,-0.51682 -1.66714,-1.25 z m 33.83084,-2.70033 c -1.71494,-1.05989 -0.95715,-3.30371 1.22384,-3.62381 1.07368,-0.15759 1.69579,0.4307 1.69579,1.60361 0,2.28951 -1.17187,3.10038 -2.91963,2.0202 z m -40.97518,-1.42292 c -1.31487,-1.58432 -0.45884,-4.62675 1.3018,-4.62675 1.75985,0 3.59301,2.14285 3.59301,4.2 0,2.15255 -3.22889,2.43406 -4.89481,0.42675 z m -124.10519,-0.62675 c 0,-0.55 0.45,-1 1,-1 0.55,0 1,0.45 1,1 0,0.55 -0.45,1 -1,1 -0.55,0 -1,-0.45 -1,-1 z m 72,-0.5 c 0,-1.02996 0.6554,-1.52043 1.75,-1.30963 2.10784,0.40593 1.97493,2.18068 -0.19718,2.63295 -0.90598,0.18865 -1.55282,-0.36259 -1.55282,-1.32332 z m -52.8968,-1.64779 c -0.82549,-1.64205 -2.4525,-2.87207 -4.28342,-3.23825 -1.62378,-0.32476 -2.70246,-0.99477 -2.39707,-1.48891 0.3054,-0.49414 -0.15085,-1.48446 -1.01389,-2.20072 -1.18582,-0.98414 -2.25756,-1.04244 -4.38705,-0.23865 -2.44315,0.92219 -3.14416,0.73738 -5.27115,-1.3896 -2.27259,-2.2726 -2.762,-2.3701 -6.64638,-1.32415 -2.83363,0.76302 -4.555,1.92328 -5.30921,3.57858 -0.61383,1.34722 -1.76544,2.44949 -2.55914,2.44949 -0.94426,0 -0.37028,-1.22184 1.66052,-3.5348 1.70697,-1.94413 3.10359,-3.74945 3.10359,-4.01181 0,-0.51653 -8.224501,0.58545 -8.927001,1.1961 -0.23485,0.20415 0.44015,1.04186 1.500001,1.86158 1.81556,1.40421 1.8258,1.55106 0.177,2.53936 -0.962501,0.57692 -1.750001,1.66583 -1.750001,2.4198 0,1.89406 -5.69899,3.02447 -7.540957,1.49578 -3.137716,-2.60408 -1.085949,-4.96601 4.313877,-4.96601 2.50904,0 2.53473,-0.0564 0.66821,-1.4682 -1.06762,-0.8075 -3.83245,-1.4825 -6.144075,-1.5 -2.311621,-0.0175 -5.330771,-0.54567 -6.709222,-1.17374 -2.156149,-0.9824 -2.351358,-1.43643 -1.397349,-3.25 1.510301,-2.87107 2.771155,-3.5748 6.437073,-3.59275 3.520733,-0.0172 4.959623,-1.39442 5.145383,-4.92474 0.19699,-3.7437 -1.58916,-6.25778 -4.202581,-5.91531 -3.214442,0.42123 -5.975962,-1.98161 -4.42507,-3.85032 0.841929,-1.01446 0.865383,-1.71427 0.08365,-2.496 -0.781731,-0.78173 -1.850025,-0.48555 -3.810281,1.05638 -3.116097,2.45113 -4.538862,2.00997 -2.123888,-0.65854 1.661577,-1.83602 1.732483,-7.45678 0.09892,-7.84141 -0.49153,-0.11574 -2.13119,-0.48336 -3.64369,-0.81695 -3.244211,-0.71552 -3.588146,-2.11598 -0.704834,-2.86998 1.582204,-0.41376 1.95932,-1.17586 1.665936,-3.36663 -0.524055,-3.91325 -4.079277,-3.97749 -4.527524,-0.0818 -0.344695,2.99571 -1.129928,3.40365 -2.983578,1.55 -1.803722,-1.80372 -1.463203,-4.79522 0.55,-4.8318 2.771656,-0.0504 5.25,-2.47133 5.25,-5.12844 0,-5.256518 -4.352408,-5.775638 -7.175951,-0.8559 -1.796035,3.12941 -3.680026,3.1827 -7.513423,0.21251 -3.314089,-2.567818 -3.820321,-6.278678 -1.294571,-9.489648 2.571732,-3.26943 6.782272,-3.59106 9.251917,-0.70672 2.317706,2.70688 4.539832,2.51593 5.917874,-0.50854 1.438822,-3.15787 -0.394636,-7.03095 -4.279303,-9.03979 -3.455241,-1.78677 -4.254,-4.04543 -2.684542,-7.59108 1.484771,-3.35433 4.307008,-3.76966 5.096655,-0.75005 0.401832,1.53661 0.01247,2.25161 -1.431792,2.6293 -2.78811,0.7291 -1.939209,3.51775 1.431731,4.70324 2.165789,0.76167 3.008649,0.65321 3.724971,-0.47933 1.43354,-2.2665 1.127064,-5.86631 -0.773332,-9.08343 -1.317265,-2.22995 -1.470129,-3.33987 -0.641014,-4.65429 1.383128,-2.19271 3.349348,-2.20711 4.719755,-0.0346 0.821355,1.30212 0.619555,2.18583 -0.876694,3.83917 l -1.943642,2.1477 2.985681,-0.33917 c 2.65552,-0.30166 3.020001,-0.75384 3.296045,-4.08916 0.325911,-3.93783 1.076,-4.41637 4.255376,-2.71482 2.272574,1.21624 2.449578,0.22961 0.43602,-2.43041 -1.531444,-2.02312 -9.003386,-5.76981 -9.839388,-4.93381 -0.275183,0.27518 -1.031687,-0.49252 -1.681121,-1.70599 -0.906288,-1.69342 -0.906544,-2.03684 -0.0011,-1.47724 0.681693,0.42131 1.799079,-0.15523 2.646957,-1.36574 1.108805,-1.58304 2.249747,-1.99248 4.670083,-1.6759 1.761546,0.23041 3.570635,0.4493 4.020199,0.48642 0.449562,0.0371 0.531737,0.96748 0.182611,2.06748 -0.423518,1.33439 -0.1797,2 0.732612,2 2.282346,0 3.767386,-2.22358 3.767386,-5.64098 0,-1.78254 0.52089,-3.56291 1.15753,-3.95638 0.79308,-0.49015 0.97998,-0.0365 0.59362,1.44099 -0.38013,1.45362 -0.10557,2.15637 0.84247,2.15637 0.89598,0 1.40638,-1.08876 1.40638,-3 0,-1.65 -0.45,-3 -1,-3 -0.55,0 -1,-0.50248 -1,-1.11663 0,-0.62841 0.88422,-0.88541 2.02233,-0.58778 2.17015,0.56751 7.977671,-1.85929 7.977671,-3.33365 0,-0.49036 -0.9,-1.37324 -2,-1.96194 -2.951241,-1.57946 -2.436851,-2.49063 1.45252,-2.57292 1.89565,-0.0401 3.21777,0.29739 2.93804,0.75 -0.27973,0.4526 -0.0586,0.82292 0.49141,0.82292 0.55,0 1.27811,-0.45 1.61803,-1 0.33992,-0.55 0.14148,-1 -0.44098,-1 -0.58246,0 -1.05902,-0.8632 -1.05902,-1.91821 0,-2.9805 -1.07797,-5.08179 -2.60699,-5.08179 -1.72778,0 -1.78248,1.15648 -0.14301,3.02347 0.6875,0.7829 0.28631,0.62234 -0.89152,-0.35682 -2.90898,-2.41829 -2.05051,-6.03209 1.28163,-5.39512 2.82068,0.53921 2.91804,-0.12879 0.60989,-4.18417 -2.21058,-3.88394 -3.60491,-3.9589 -3.04792,-0.16385 0.34503,2.35086 -0.0498,3.14171 -2.015731,4.03744 -1.34464,0.61266 -2.61245,0.94628 -2.81736,0.74137 -0.20491,-0.20491 0.29837,-2.58426 1.1184,-5.28744 1.89466,-6.24564 1.91558,-10.8355603 0.0564,-12.3785303 -1.8737,-1.55502 -3.63407,-0.47788 -2.85295,1.74567 0.49218,1.4010903 0.35501,1.4874103 -0.74368,0.46798 -1.90935,-1.77162 -2.94718,-1.55063 -2.94718,0.6275503 0,2.00919 -2.299907,4.48921 -3.266647,3.52247 -1.2133,-1.2133 -4.942403,0.8954 -6.702895,3.7903 -1.706096,2.80545 -1.876113,2.87133 -2.482155,0.96186 -1.087514,-3.42645 -4.588854,-3.80635 -7.191741,-0.78032 -2.562208,2.97875 -3.35656,3.26033 -3.35656,1.18986 0,-0.79106 -1.351119,-2.91757 -3.002486,-4.72559 -1.911137,-2.09242 -2.910712,-4.1661 -2.75,-5.7050403 0.185305,-1.77443 -0.527401,-2.85672 -2.678566,-4.06757 -3.29557,-1.85502 -4.509776,-4.06351996 -2.234069,-4.06351996 0.82585,0 2.287171,-0.30147 3.247378,-0.66994 1.191571,-0.45725 1.51591,-0.29791 1.021614,0.50187 -0.448271,0.72531996 0.276085,1.55212996 1.901054,2.16993996 3.844179,1.46156 4.291289,1.17836 1.634291,-1.03514 l -2.360784,-1.96672996 h 21.233229 c 18.837548,0 21.091618,0.17063 19.978108,1.51232996 -0.99819,1.20274 -1.55469,1.26372 -2.71849,0.29785 -1.22452,-1.01625996 -1.40688,-0.82277996 -1.11732,1.18547 0.36395,2.52417 1.07065,2.63403 13.75103,2.13764 3.23306,-0.12656 3.32142,-0.22563 1.75,-1.96203 -0.91025,-1.00581 -1.65499,-2.13080996 -1.65499,-2.49999996 0,-1.1343 11.83816,-0.74214 12.55385,0.41587 1.22334,1.97940996 -1.15638,3.17731996 -3.46646,1.74496996 -1.82113,-1.12917 -2.28989,-1.10466 -3.07711,0.16092 -1.36316,2.19147 1.80923,3.03437 9.50555,2.52562 5.20428,-0.34401 6.48417,-0.14142 6.48417,1.02637 0,0.99618 1.10368,1.45499 3.5,1.45499 3.11371,0 3.5,0.29057 3.5,2.6327003 0,1.44799 -0.82804,3.36049 -1.8401,4.25 -1.01205,0.88952 -2.14563,2.8548 -2.51905,4.3673 -0.57854,2.34327 -0.36801,2.75 1.42343,2.75 2.97807,0 1.863,2.43064 -1.28744,2.80639 -1.41291,0.16852 -3.36046,1.18102 -4.32787,2.25 -2.33623,2.58151 -5.44897,2.54929 -5.44897,-0.0564 0,-2.40696 -0.8346,-2.50458 -3.77925,-0.44207 -1.22334,0.85687 -2.64237,1.29952 -3.15341,0.98369 -1.45206,-0.89742 -2.42977,1.49595 -1.13857,2.78715 0.87268,0.87268 1.33582,0.86115 1.89724,-0.0472 0.52927,-0.85638 1.09452,-0.63843 1.96683,0.75836 1.05333,1.68665 0.96099,1.96011 -0.66192,1.96011 -2.45358,0 -4.77772,2.60203 -2.92266,3.2721 1.04784,0.37849 1.03832,0.8942 -0.0504,2.73126 -1.12289,1.89469 -1.12289,2.41686 0,3.19616 0.912,0.63295 0.54092,0.73436 -1.15783,0.3164 -2.45118,-0.60308 -2.44218,-0.56617 0.46092,1.89024 3.23389,2.7363 2.85667,4.48739 -0.63139,2.93098 -1.72679,-0.77052 -2.626,-0.54067 -4.25406,1.08739 -2.2122,2.2122 -2.23337,4.23435 -0.0677,6.46886 1.13523,1.17132 1.09546,1.78256 -0.24958,3.83534 -1.36839,2.08843 -1.39432,2.57216 -0.1791,3.3413 2.17077,1.37394 2.78155,1.11297 2.24019,-0.95717 -0.66053,-2.52587 0.95295,-3.36552 3.24567,-1.68904 1.55509,1.13711 1.64699,1.61591 0.56123,2.92416 -1.63526,1.97031 -0.65484,3.65202 2.12906,3.65202 1.17547,0 3.814,1.162 5.86339,2.58223 2.53954,1.7599 6.21642,2.96726 11.54594,3.7913 4.48451,0.69337 7.28997,1.53651 6.5776,1.97678 -0.68321,0.42225 -1.2422,2.26276 -1.2422,4.09002 0,2.60139 0.73579,3.88351 3.39091,5.90866 1.865,1.42251 3.84848,3.89897 4.40773,5.50325 0.97475,2.79617 0.84996,2.98241 -3.01575,4.50091 -3.2731,1.28571 -3.93166,1.96994 -3.49675,3.63304 0.30511,1.16673 -0.14155,2.726358 -1.03734,3.622148 -1.25583,1.25583 -1.31143,1.73492 -0.27563,2.37508 0.81266,0.50225 1.06325,1.73532 0.6706,3.29976 -0.4886,1.94676 -0.085,2.85294 1.82947,4.10733 3.23853,2.12196 3.20519,2.13713 3.94267,-1.79396 0.75535,-4.02638 2.5581,-5.00348 5.46929,-2.96441 2.67511,1.87372 2.7123,4.83595 0.0838,6.677 -1.97097,1.38053 -1.93404,1.45953 1.25,2.67395 1.80454,0.68827 4.69899,1.87364 6.43211,2.63415 3.97094,1.7425 4.34887,1.72959 4.34887,-0.14862 0,-0.84227 0.675,-1.79041 1.5,-2.10699 0.825,-0.31659 1.5,-1.65246 1.5,-2.96862 0,-2.05383 0.48092,-2.39301 3.39301,-2.39301 3.78721,0 4.97558,1.68325 3.98232,5.64071 -0.49038,1.95383 -0.18581,2.59609 1.43171,3.01908 2.71365,0.70964 3.45459,2.87819 1.52934,4.476 -0.8496,0.70511 -1.9411,2.32454 -2.42555,3.59874 -1.18282,3.11106 -3.58345,3.87172 -5.82292,1.84503 -1.01067,-0.91465 -2.23141,-1.59094 -2.71275,-1.50286 -2.25782,0.41315 -3.37514,-0.23379 -3.37514,-1.95426 0,-2.32137 -1.63861,-3.74265 -5.40475,-4.68789 -1.96842,-0.49404 -2.68079,-0.38198 -2.22809,0.35051 1.19369,1.93143 -1.62766,2.57918 -3.00853,0.69072 -0.73588,-1.00638 -1.68011,-1.48479 -2.0983,-1.06314 -0.41818,0.42165 0.44905,1.7388 1.92718,2.927 2.10314,1.69061 2.47447,2.538 1.70772,3.89711 -0.59806,1.06011 -0.6276,2.42371 -0.0758,3.5 0.49717,0.96979 1.19977,3.00075 1.56133,4.51325 0.54131,2.26444 0.3225,2.75 -1.23922,2.75 -2.30121,0 -4.57047,2.4969 -3.639,4.00405 0.37107,0.60041 1.60549,0.95762 2.74314,0.7938 1.13765,-0.16382 2.2761,0.31212 2.5299,1.05763 0.35131,1.03195 -0.26017,1.19699 -2.56185,0.69146 -3.33554,-0.73261 -5.40602,1.02886 -3.09181,2.63037 0.98828,0.68392 0.76293,0.78143 -0.79663,0.34469 -1.69763,-0.4754 -2.2461,-0.13726 -2.5,1.54127 -0.3206,2.11955 -0.36529,2.11302 -3.12677,-0.4565 -3.40924,-3.17224 -3.82911,-3.19054 -8.18541,-0.35677 -3.74089,2.43344 -5.26092,5.2703 -5.76,10.75 l -0.31878,3.5 -1.33109,-2.64779 z m -33.68403,-15.50218 c 0.39533,-1.0302 0.0341,-1.39139 -1.161191,-1.1612 -0.95426,0.18378 -1.88537,1.11489 -2.06914,2.06915 -0.41026,2.13031 2.363631,1.35065 3.230331,-0.90795 z m 8.38916,-83.425028 c -0.19708,-0.59125 -0.78583,-1.075 -1.30833,-1.075 -0.5225,0 -1.11125,0.48375 -1.30833,1.075 -0.19709,0.59125 0.39166,1.075 1.30833,1.075 0.91667,0 1.50542,-0.48375 1.30833,-1.075 z m 3.11063,-4.78535 c -1.39899,-0.46633 -3.01556,1.89504 -2.20033,3.21409 0.32266,0.52208 1.20854,0.0988 1.96862,-0.94071 0.98904,-1.35259 1.05492,-1.99897 0.23171,-2.27338 z m -14.918961,-2.13965 c 0,-0.55 -0.47656,-1 -1.05901,-1 -0.58246,0 -0.78091,0.45 -0.44099,1 0.33992,0.55 0.81648,1 1.05902,1 0.24254,0 0.44098,-0.45 0.44098,-1 z m 1.15,-5.5 c 0,-0.5225 -0.48375,-1.11125 -1.075,-1.30833 -0.59125,-0.19709 -1.075,0.39166 -1.075,1.30833 0,0.91667 0.48375,1.50542 1.075,1.30833 0.59125,-0.19708 1.075,-0.78583 1.075,-1.30833 z m 5.350001,-4.5 c 0.35191,-0.5694 -0.50929,-1 -2,-1 -1.49071,0 -2.351911,0.4306 -2,1 0.33992,0.55 1.23992,1 2,1 0.76008,0 1.66008,-0.45 2,-1 z m 7.84541,-23.54226 c -0.65496,-1.70679 -2.49904,-1.49685 -3.11624,0.35476 -0.21982,0.65946 0.5166,1.1875 1.65611,1.1875 1.43811,0 1.87491,-0.46137 1.46013,-1.54226 z m 4.34849,-9.45774 c 1.06344,-2.8173703 0.98547,-3.0000003 -1.28076,-3.0000003 -1.4165,0 -2.41314,0.58573 -2.41314,1.4182103 0,0.78002 -0.27314,2.13002 -0.60699,3 -0.42139,1.09813 -0.0298,1.58179 1.28076,1.58179 1.1792,0 2.31278,-1.12603 3.02013,-3 z m 53.5561,149.779508 c -1.52192,-0.734 -2.25,-1.97184 -2.25,-3.82534 0,-1.51324 -0.67164,-2.99793 -1.5,-3.3158 -2.31448,-0.88815 -1.94296,-5.63837 0.44098,-5.63837 1.06754,0 2.24212,0.48724 2.61017,1.08276 0.36805,0.59552 2.64461,1.92953 5.05902,2.96446 4.77557,2.04705 5.47572,3.95744 2.83313,7.73027 -1.69032,2.41327 -3.68963,2.69177 -7.1933,1.00202 z m 80.75628,-2.26935 c -2.59703,-4.20209 -2.29918,-6.89436 0.81175,-7.33729 5.62321,-0.80062 9.33866,5.56538 5.35323,9.17214 -2.65261,2.40058 -3.74902,2.07426 -6.16498,-1.83485 z M 11.359226,158.84504 c -0.194617,-0.4125 -0.06003,-2.55 0.299078,-4.75 0.359109,-2.2 0.716784,-3.0775 0.794832,-1.95 0.07805,1.1275 0.651657,2.55975 1.274688,3.18278 0.62303,0.62303 0.862153,1.83803 0.531384,2.7 -0.628514,1.63788 -2.291671,2.10656 -2.899982,0.81722 z m 280.730284,-0.25895 c -0.92489,-1.4965 0.44076,-4.99105 1.95047,-4.99105 1.91875,0 3.86982,2.73737 3.19832,4.48727 -0.65335,1.70259 -4.19379,2.04901 -5.14879,0.50378 z m -137.24447,-0.69428 c -1.6517,-0.61237 -1.59127,-2.76865 0.11732,-4.18666 2.09364,-1.73756 4.53729,1.44817 2.54678,3.32018 -0.77776,0.73145 -1.9766,1.12137 -2.6641,0.86648 z M 32.067862,156.55106 c -0.866412,-1.40188 2.203603,-5.95602 4.015048,-5.95602 0.79297,0 1.909179,0.87337 2.480465,1.94083 0.838488,1.56673 0.609626,2.24137 -1.187322,3.5 -2.587847,1.8126 -4.397782,1.98827 -5.308191,0.51519 z m 162.527178,-0.95602 c 0,-0.55 0.47656,-1 1.05902,-1 0.58246,0 0.7809,0.45 0.44098,1 -0.33992,0.55 -0.81648,1 -1.05902,1 -0.24254,0 -0.44098,-0.45 -0.44098,-1 z M 42.998951,154.43956 c -0.363077,-0.58747 -0.06147,-1.43812 0.670229,-1.89034 1.424191,-0.8802 2.925861,-0.36806 2.925861,0.99785 0,1.34567 -2.875024,2.0592 -3.59609,0.89249 z m 67.262759,0.48881 c -1.17861,-1.1786 -0.7169,-2.08693 1.33333,-2.62308 1.48349,-0.38794 2,-0.0307 2,1.38337 0,1.85094 -1.98417,2.58888 -3.33333,1.23971 z m 163.71333,-6.78544 c -0.76307,-1.98855 0.36736,-3.54789 2.57203,-3.54789 1.91916,0 3.4586,2.52657 2.4922,4.09024 -0.88957,1.43936 -4.4501,1.05804 -5.06423,-0.54235 z M 14.595041,147.65158 c 0,-0.51891 -1.373484,-1.7548 -3.052187,-2.74644 -2.0442869,-1.20759 -2.9007579,-2.38204 -2.5936189,-3.55654 0.490799,-1.87682 -0.828586,-2.41303 -1.854194,-0.75356 -0.934069,1.51136 -2.5,1.19817 -2.5,-0.5 0,-0.825 -0.675,-1.5 -1.5,-1.5 -0.825,0 -1.5,0.45 -1.5,1 0,0.55 -0.477614,1 -1.06136401,1 -1.1974159,0 -0.8669173,-9.72015 0.3995163,-11.75 1.19111271,-1.90912 2.06765371,-1.5259 4.00277671,1.75 1.860089,3.14888 4.326673,4.18213 3.243168,1.35856 -0.50966,-1.32815 -0.357777,-1.41562 0.795765,-0.45827 1.1061899,0.91806 1.5417849,0.89374 1.9439449,-0.10855 0.329606,-0.82147 0.54704,-0.65463 0.597246,0.45826 0.09303,2.0622 1.138546,2.23189 3.080719,0.5 1.201119,-1.07107 1.202574,-0.98788 0.01016,0.5812 -1.135222,1.49383 -1.158794,2.204 -0.127947,3.85464 0.706407,1.13114 0.790121,1.73078 0.189836,1.35979 -0.590604,-0.36502 -1.549824,-0.36948 -2.1316,-0.01 -0.593564,0.36684 0.393861,1.43134 2.25,2.42562 3.765224,2.01693 4.640113,4.34919 2.452222,6.53708 -1.721919,1.722 -2.644443,1.91671 -2.644443,0.55821 z m 227.309469,-0.69246 c -0.7629,-1.98807 0.82813,-4.75046 2.98024,-5.17441 2.25819,-0.44484 4.21019,3.50307 2.65724,5.37425 -1.60608,1.93521 -4.86248,1.81977 -5.63748,-0.19984 z m 69.62096,-1.9479 c -0.95288,-1.14815 -1.02584,-2.04215 -0.26526,-3.25 1.54804,-2.45837 3.60449,-2.49525 6.16417,-0.11055 1.79848,1.67554 2.02765,2.41176 1.09904,3.53067 -1.56664,1.88768 -5.36679,1.7953 -6.99795,-0.17012 z m -126.93043,-1.41618 c 0,-0.55 0.45,-1 1,-1 0.55,0 1,0.45 1,1 0,0.55 -0.45,1 -1,1 -0.55,0 -1,-0.45 -1,-1 z M 32.013304,141.50472 c -1.856331,-2.05122 -1.855655,-2.11668 0.03614,-3.5 2.545882,-1.86159 3.166338,-1.78894 5.612507,0.65723 1.64304,1.64304 1.823005,2.36081 0.877556,3.5 -1.691985,2.03872 -4.326512,1.7734 -6.526205,-0.65723 z m 261.581736,0.0903 c 0,-0.55 0.47656,-1 1.05902,-1 0.58246,0 0.7809,0.45 0.44098,1 -0.33992,0.55 -0.81648,1 -1.05902,1 -0.24254,0 -0.44098,-0.45 -0.44098,-1 z M 78.595041,138.42185 c 0,-1.74216 0.486006,-2.31645 1.720447,-2.03297 0.717879,0.16485 1.279553,-0.60333 1.279553,-1.75 0,-1.33867 0.653133,-2.04384 1.893011,-2.04384 2.277404,0 3.553871,2.75661 2.092075,4.51797 -1.212131,1.46053 -6.985086,2.54224 -6.985086,1.30884 z m 149.131119,-1.16882 c -1.22366,-1.47442 -0.5399,-2.65799 1.53555,-2.65799 0.73333,0 1.33333,0.9 1.33333,2 0,2.30734 -1.26017,2.59637 -2.86888,0.65799 z M 69.07541,136.56328 c -0.388357,-0.62838 -0.235562,-1.61305 0.339546,-2.18815 1.343899,-1.3439 4.477138,-0.17169 3.930377,1.47044 -0.556604,1.67168 -3.386371,2.14732 -4.269923,0.71771 z m 189.76963,-1.63052 c -1.74117,-0.70258 -1.56631,-2.33772 0.25,-2.33772 0.825,0 1.5,0.675 1.5,1.5 0,0.825 -0.1125,1.46447 -0.25,1.42105 -0.1375,-0.0434 -0.8125,-0.30592 -1.5,-0.58333 z M 64.595041,133.01171 c 0,-1.76593 2.152759,-1.45839 2.770833,0.39583 0.217709,0.65312 -0.316666,1.1875 -1.1875,1.1875 -0.870833,0 -1.583333,-0.7125 -1.583333,-1.58333 z m -9.917866,-1.73454 c -1.27587,-1.27587 -1.433562,-4.3469 -0.260434,-5.07193 0.451935,-0.27932 1.995125,0.10094 3.429311,0.845 1.434186,0.74407 2.86442,1.09604 3.1783,0.78216 0.313879,-0.31388 0.570689,0.0806 0.570689,0.87674 0,1.98489 -5.470324,4.01558 -6.917866,2.56803 z m 24.417866,0.31787 c 0.339919,-0.55 0.816476,-1 1.059017,-1 0.242541,0 0.440983,0.45 0.440983,1 0,0.55 -0.476558,1 -1.059017,1 -0.582459,0 -0.780902,-0.45 -0.440983,-1 z m 86.051259,-0.33886 c -1.38864,-1.0154 -1.59088,-1.76793 -0.8371,-3.11486 0.94166,-1.68264 1.09358,-1.67261 2.88987,0.19087 1.04278,1.08179 2.79597,2.46979 3.89597,3.08446 1.82097,1.01753 1.72618,1.12029 -1.05887,1.14798 -1.68238,0.0167 -3.88282,-0.57208 -4.88987,-1.30845 z m 112.96621,-0.60609 c -0.81463,-2.56668 0.22645,-6.06011 1.79992,-6.03974 0.65043,0.008 1.85761,0.44713 2.68261,0.9749 1.33333,0.85296 1.33333,1.25902 0,3.65451 -1.92849,3.46476 -3.65779,4.00885 -4.48253,1.41033 z m -59.17239,-0.59818 c -0.75454,-1.96628 0.13832,-2.86909 2.09493,-2.11826 0.87889,0.33726 1.27596,1.23798 0.93614,2.12354 -0.75808,1.97552 -2.27198,1.97289 -3.03107,-0.005 z m 117.05718,-0.14349 c -0.32099,-0.99736 -1.04589,-2.78297 -1.61089,-3.96803 -1.04881,-2.19984 -0.42292,-4.34535 1.26765,-4.34535 0.51754,0 0.94098,1.485 0.94098,3.3 0,1.815 0.48921,3.78921 1.08713,4.38713 0.78285,0.78285 0.78087,1.27642 -0.007,1.76338 -0.60181,0.37194 -1.35682,-0.13977 -1.67781,-1.13713 z M 12.616052,129.12036 c -1.864511,-2.2466 -0.477633,-5.91423 2.689251,-7.11178 1.534356,-0.58021 3.655001,-2.665 4.712546,-4.63286 1.766212,-3.28653 1.791907,-3.70882 0.315508,-5.18522 -2.597817,-2.59782 -3.205373,-5.78077 -1.360867,-7.12951 2.327774,-1.70211 2.022871,-3.52759 -1.356788,-8.123218 -1.885215,-2.56349 -3.185992,-5.7728 -3.542061,-8.73906 -0.335436,-2.79437 -1.390561,-5.51563 -2.612314,-6.73738 l -2.0495919,-2.0496 2.1030489,-1.47303 c 1.928874,-1.35104 1.977875,-1.65174 0.591653,-3.63085 -2.1709309,-3.09944 -2.002771,-3.27467 3.05139,-3.17968 3.789665,0.0712 4.771113,0.49929 5.792286,2.52632 0.947003,1.87979 2.023966,2.44055 4.687215,2.44055 1.901742,0 4.032123,0.37142 4.734179,0.82537 1.860403,1.20296 7.83023,-4.2012 8.644476,-7.82537 0.370708,-1.65 0.799394,-4.00925 0.952637,-5.24277 0.392931,-3.16289 1.60633,-4.04452 2.751114,-1.9989 0.536078,0.95792 1.819666,1.74167 2.852417,1.74167 1.993352,0 6.02289,4.39118 6.02289,6.56343 0,2.93858 -3.251606,4.66685 -7.933837,4.21695 -4.406993,-0.42346 -4.708411,-0.2746 -8.383451,4.14018 -3.439493,4.13183 -3.766519,5.01608 -3.34576,9.04665 0.256487,2.45697 0.960599,4.63197 1.564694,4.83334 0.604095,0.20136 1.098354,1.00362 1.098354,1.78278 0,0.99226 1.230371,1.41667 4.106989,1.41667 3.146285,0 3.978907,0.33378 3.559441,1.42689 -0.843479,2.19807 2.106872,4.195778 4.234373,2.86713 0.956121,-0.59711 2.94458,-0.85507 4.418799,-0.57326 3.037175,0.5806 3.574946,3.514508 1.215129,6.629378 -1.630522,2.15222 -3.534731,1.39309 -3.534731,-1.40916 0,-1.40371 -0.692005,-1.94098 -2.5,-1.94098 -1.555556,0 -2.5,0.56667 -2.5,1.5 0,0.84766 0.895446,1.5 2.059017,1.5 1.132459,0 1.780902,0.45 1.440983,1 -0.974253,1.57638 -4.307254,1.16684 -5.32652,-0.65449 -1.809713,-3.23378 -4.170295,-0.78408 -4.214009,4.37311 -0.0346,4.08256 -0.668683,5.58523 -4.338433,10.28138 -3.676923,4.70533 -4.718582,5.45637 -7.209471,5.19805 -1.601362,-0.16607 -3.411176,-0.95357 -4.02181,-1.75 -1.693455,-2.20872 -3.023205,-1.7472 -4.376024,1.51879 -1.739959,4.20064 -3.448907,5.41866 -4.992722,3.55848 z m 60.521694,0.54378 c -0.316431,-0.512 -0.117988,-1.21356 0.440983,-1.55902 0.558972,-0.34546 1.016312,0.0734 1.016312,0.9309 0,1.75653 -0.600055,2.01516 -1.457295,0.62812 z m 162.798674,-3.29989 c -3.37717,-3.75045 -3.61456,-5.68762 -0.85128,-6.94665 3.51676,-1.60235 5.70067,0.45987 5.31046,5.01455 -0.36891,4.30614 -1.77345,4.91471 -4.45918,1.9321 z m 25.8315,0.5716 c 0.19498,-1.01244 1.02335,-1.84081 1.84082,-1.84081 2.1435,0 1.8339,2.90567 -0.35451,3.32712 -1.3364,0.25736 -1.74367,-0.14991 -1.48631,-1.48631 z m -74.67288,-0.34081 c -0.39915,-0.64585 -0.27574,-1.62426 0.27426,-2.17426 0.66667,-0.66667 1.24192,-0.60858 1.72574,0.17426 0.39915,0.64585 0.27574,1.62426 -0.27426,2.17426 -0.66667,0.66667 -1.24192,0.60858 -1.72574,-0.17426 z M 45.333492,125.46855 c -0.956148,-0.53509 -1.745342,-0.61303 -1.753764,-0.1732 -0.02445,1.27672 -1.952428,-2.07034 -1.969374,-3.41893 -0.0084,-0.67023 0.634622,-0.96921 1.428987,-0.66438 2.150906,0.82538 1.536962,-3.55666 -0.663282,-4.7342 -2.339721,-1.25218 -2.267009,-3.55234 0.153241,-4.84762 2.688504,-1.43884 3.065741,-1.32012 3.065741,0.96482 0,1.1 0.587574,2 1.30572,2 0.718147,0 2.833014,1.1268 4.699706,2.504 2.00168,1.4768 4.124591,2.27212 5.174962,1.93875 0.979537,-0.3109 2.900528,0.2498 4.268869,1.24599 2.839026,2.06689 3.233894,3.31126 1.050743,3.31126 -0.825,0 -1.5,-0.45 -1.5,-1 0,-1.53402 -2.669436,-1.18771 -4.432136,0.57499 -0.934058,0.93406 -2.810838,1.44536 -4.611884,1.25644 -1.67029,-0.1752 -3.361384,0.20649 -3.757985,0.84821 -0.494196,0.79962 -1.268111,0.86063 -2.459544,0.19387 z m 172.622068,-1.62351 c -0.87199,-1.35132 -0.76475,-2.3765 0.47072,-4.5 0.87999,-1.5125 2.08795,-2.75 2.68437,-2.75 1.75254,0 3.48439,2.23663 3.48439,4.5 0,4.18963 -4.50615,6.05602 -6.63948,2.75 z m 85.78253,-0.25391 c -2.84556,-1.77735 -3.26346,-2.50804 -2.74324,-4.79643 0.33754,-1.48481 0.8956,-4.16863 1.24012,-5.96403 0.4699,-2.44872 1.28028,-3.42017 3.24324,-3.88789 1.43926,-0.34293 3.16191,-1.05211 3.82813,-1.57595 2.05933,-1.61925 8.14489,1.04944 9.83177,4.3115 0.82956,1.60419 1.94673,2.91671 2.48261,2.91671 0.53588,0 0.97432,0.52707 0.97432,1.17126 0,0.64419 0.72958,1.97743 1.62128,2.96275 1.6535,1.8271 1.17967,5.47904 -0.57054,4.39735 -0.52987,-0.32748 -0.69247,-1.30141 -0.36135,-2.16431 0.33113,-0.86289 -0.026,-1.96306 -0.79367,-2.44482 -0.9901,-0.62136 -2.26756,0.13027 -4.39572,2.58635 -3.95853,4.56849 -9.4907,5.52701 -14.35695,2.48751 z m -107.81014,-0.0832 c -4.67824,-1.36947 -8.33291,-6.20925 -8.33291,-11.03507 0,-3.99267 0.33459,-4.48435 7.12548,-10.4712 2.50314,-2.206758 10.87452,-4.122058 10.87452,-2.487988 0,0.518248 -0.91782,1.086068 -2.03961,1.261818 -3.07186,0.48128 -2.73597,2.25206 0.53483,2.81955 2.38736,0.41421 3.27043,1.4437 5.1467,6 3.00761,7.30364 2.92532,8.32997 -0.90192,11.24914 -3.93893,3.00437 -8.15289,3.90909 -12.40709,2.66375 z m 89.82159,-0.46486 c 0.19002,-0.98026 0.95098,-1.98391 1.691,-2.23033 0.86063,-0.28658 1.221,0.19425 1,1.33427 -0.19002,0.98026 -0.95098,1.98391 -1.691,2.23033 -0.86063,0.28658 -1.221,-0.19425 -1,-1.33427 z m -40.9545,-2.64803 c -1.61191,-1.61191 -1.51189,-3.9097 0.28162,-6.4703 1.31978,-1.88425 1.30442,-2.26238 -0.14065,-3.46169 -0.89226,-0.7405 -2.87572,-1.40941 -4.4077,-1.48645 -3.88639,-0.19546 -8.58907,-3.81681 -9.23861,-7.11429 -0.82417,-4.184048 2.17323,-8.695468 6.0295,-9.075068 4.44368,-0.43743 5.44398,-2.03439 4.07278,-6.50216 -0.93054,-3.03197 -1.60192,-3.69004 -3.76472,-3.69004 -3.06014,0 -5.0972,-1.66709 -4.36586,-3.57293 0.83305,-2.17089 -4.5753,-8.42707 -7.28505,-8.42707 -2.98197,0 -2.97084,-0.31956 0.11869,-3.40909 2.62055,-2.62055 3.20522,-5.03703 1.47713,-6.10505 -0.63946,-0.3952 -0.18354,-2.12556 1.21633,-4.61629 1.89495,-3.37161 2.0169,-4.12152 0.79324,-4.87779 -0.79529,-0.49152 -1.51366,-2.23954 -1.59639,-3.8845 l -0.15042,-2.99084 5.98263,0.0848 c 3.29045,0.0467 6.27397,-0.34469 6.63006,-0.86966 0.71263,-1.05062 3.00487,-1.32639 10.89742,-1.31102 4.75114,0.009 7.04472,-1.25568 4.07295,-2.24627 -0.64738,-0.21579 -0.86837,-0.89181 -0.4911,-1.50225 0.48665,-0.78741 1.56615,-0.6708 3.71529,0.40133 3.80115,1.89627 5.72167,1.1936 6.50658,-2.38058 1.04639,-4.76481 1.33718,-5.29282 2.9149,-5.29282 1.96044,0 1.97915,2.3835 0.0314,4 -1.89675,1.57416 -1.92877,3 -0.0674,3 2.53365,0 2.84503,3.81471 0.60696,7.43597 -2.69123,4.3545 -1.67058,4.9478 6.09062,3.54042 8.99868,-1.63177 10.37594,-1.00134 13.74637,6.29229 1.75056,3.78824 4.69163,7.90132 7.50148,10.49082 2.54208,2.34272 4.62196,4.76612 4.62196,5.38533 0,0.6192 1.17351,2.2134 2.60779,3.54265 2.44516,2.26609 2.50471,2.53073 0.95489,4.24326 -0.9091,1.00454 -1.74511,3.11857 -1.85779,4.69785 -0.1838,2.57588 0.0782,2.84178 2.54511,2.58356 2.00207,-0.20956 2.75,0.15951 2.75,1.35699 0,1.05123 -0.54133,1.43711 -1.5,1.06923 -1.79095,-0.68725 -2.00665,1.45498 -0.31667,3.14496 0.65084,0.65084 0.81423,1.52834 0.3631,1.95 -0.45114,0.42167 -1.02114,0.20417 -1.26668,-0.48333 -0.56663,-1.58658 -2.74897,-1.59843 -5.26271,-0.0286 -1.65492,1.03351 -2.27558,0.87819 -4.0343,-1.00957 -1.74659,-1.87474 -2.43012,-2.04983 -4.28062,-1.09646 -5.51984,2.8438 -6.70213,4.89754 -6.70213,11.642248 0,4.6801 -0.3372,6.29797 -1.25,5.99736 -0.6875,-0.22642 -1.4006,-1.50142 -1.58468,-2.83334 -0.18407,-1.33192 -0.79715,-2.87167 -1.36239,-3.42167 -0.6989,-0.68005 -0.82438,-0.3247 -0.39217,1.11062 0.84678,2.81214 -2.44776,6.9729 -4.80499,6.06834 -1.33979,-0.51412 -1.6568,-1.72744 -1.47758,-5.65524 0.27037,-5.925218 -0.32838,-6.789728 -3.51963,-5.081818 -2.08756,1.117228 -2.65421,1.012448 -4.49849,-0.83183 -2.93412,-2.93412 -4.78503,-2.63931 -6.70187,1.06744 -1.54617,2.989978 -1.53611,3.255788 0.17058,4.503748 2.30795,1.68762 0.73664,3.47549 -2.34603,2.66936 -2.30749,-0.60343 -2.88035,-2.2442 -1.36186,-3.90062 1.85342,-2.02177 2.06308,-6.099258 0.43327,-8.426138 l -1.64166,-2.3438 -0.79903,2.15997 c -0.53057,1.43427 -1.64979,2.15997 -3.33125,2.15997 -2.80401,0 -3.00846,0.61719 -1.51001,4.558418 0.832,2.18831 0.69243,2.93883 -0.75,4.03329 -0.97472,0.73958 -1.27693,1.35899 -0.6716,1.37649 1.61981,0.0468 1.64742,15.0318 0.0277,15.0318 -0.67557,0 -1.76831,-0.54 -2.42831,-1.2 z m -18.16752,-2.73931 c -0.74069,-1.38399 -0.70732,-2.14361 0.11652,-2.65278 1.29064,-0.79766 4.08383,2.40634 3.25995,3.73941 -0.87547,1.41653 -2.27846,0.96501 -3.37647,-1.08663 z M 4.5950411,114.59504 c 0,-0.55 0.45,-1 1,-1 0.55,0 1,0.45 1,1 0,0.55 -0.45,1 -1,1 -0.55,0 -1,-0.45 -1,-1 z m 54.2448339,-1.25 c -0.550031,-0.6875 -1.298619,-2.22521 -1.663529,-3.41712 -0.557338,-1.82046 -0.336963,-2.08174 1.377611,-1.63337 1.459447,0.38165 2.041084,1.35541 2.041084,3.41712 0,3.20119 -0.287095,3.46836 -1.755166,1.63337 z m 232.436835,-0.70819 c -1.23521,-1.24947 -1.46167,-2.05974 -0.70619,-2.52666 1.36013,-0.8406 4.02452,1.21655 4.02452,3.10729 0,1.84322 -1.11502,1.64812 -3.31833,-0.58063 z m -26.18167,-4.04181 c 0.33992,-0.55 0.81648,-1 1.05902,-1 0.24254,0 0.44098,0.45 0.44098,1 0,0.55 -0.47656,1 -1.05902,1 -0.58246,0 -0.7809,-0.45 -0.44098,-1 z m 56.5,-1 c 0.5887,-1.1 1.50453,-2 2.03518,-2 1.36235,0 1.19835,0.90933 -0.46375,2.57143 -2.04443,2.04442 -2.82038,1.76226 -1.57143,-0.57143 z m -263.999999,-3 c 0,-0.55 0.45,-1 1,-1 0.55,0 1,0.45 1,1 0,0.55 -0.45,1 -1,1 -0.55,0 -1,-0.45 -1,-1 z m 153.153199,-0.2468 c -1.57807,-1.57807 -1.44609,-3.26523 0.37354,-4.775388 1.3299,-1.10372 1.13652,-1.50438 -1.5,-3.10775 -3.43868,-2.09118 -3.3556,-1.87489 -2.04467,-5.32289 1.38429,-3.64096 5.33112,-4.9537 9.07413,-3.01811 3.73997,1.93402 3.69877,3.09679 -0.25425,7.17528 -2.48449,2.56334 -2.93074,3.56687 -2,4.49761 1.72898,1.728978 1.47438,3.579798 -0.64875,4.716058 -1.27064,0.68002 -2.20659,0.6286 -3,-0.16481 z m -53.77621,-5.213168 c -0.34324,-0.89446 -0.40788,-1.84247 -0.14366,-2.1067 0.84684,-0.84684 3.86442,0.77342 3.49643,1.87738 -0.6007,1.802118 -2.69428,1.945308 -3.35277,0.22932 z m 6.79297,-0.70999 c 0.22003,-1.55336 1.10672,-2.44005 2.66008,-2.66008 1.93881,-0.27462 2.27462,0.0612 2,2 -0.22003,1.55336 -1.10672,2.440048 -2.66008,2.660078 -1.93881,0.27462 -2.27462,-0.0612 -2,-1.999998 z m -11.16996,-2.83004 c 0,-0.55 0.45,-1 1,-1 0.55,0 1,0.45 1,1 0,0.55 -0.45,1 -1,1 -0.55,0 -1,-0.45 -1,-1 z m 31.5,-1 c -0.33992,-0.55 -0.14148,-1 0.44098,-1 0.58246,0 1.05902,0.45 1.05902,1 0,0.55 -0.19844,1 -0.44098,1 -0.24254,0 -0.7191,-0.45 -1.05902,-1 z M 41.694947,92.952462 c -1.72094,-1.20539 -2.141953,-2.35539 -1.904607,-5.20244 0.285793,-3.42818 0.515126,-3.65498 3.695715,-3.65498 3.995458,0 5.684535,2.07069 4.744433,5.81636 -0.925669,3.68816 -3.741232,4.99827 -6.535541,3.04106 z m 298.650093,0.0706 c -1.5125,-0.82054 -2.75,-2.15252 -2.75,-2.95996 0,-1.92387 2.62067,-1.89897 3.36163,0.0319 0.31658,0.825 1.26472,1.5 2.10699,1.5 0.84226,0 1.53138,0.675 1.53138,1.5 0,1.84735 -0.73508,1.8349 -4.25,-0.072 z M 0.84504129,92.932762 c -0.7813554,-0.31528 -1.25,-2.50992 -1.25,-5.85367 0,-4.36233 0.3478021,-5.45966 1.88509181,-5.94758 2.85035,-0.90467 6.518838,1.21988 8.039892,4.65618 1.1961019,2.70219 1.1622359,3.17903 -0.283219,3.98795 -0.90297,0.50533 -1.641765,1.57142 -1.641765,2.36909 0,1.43102 -3.999383,1.89793 -6.74999981,0.78803 z M 164.0561,91.532032 c -0.9887,-1.59974 2.59758,-5.05315 4.59065,-4.42058 1.22988,0.39035 1.8961,-0.17233 2.35127,-1.98586 0.89547,-3.56785 3.82753,-3.37935 3.41344,0.21945 -0.22146,1.92471 -0.96106,2.84189 -2.46448,3.05619 -1.18144,0.16841 -2.37681,1.18091 -2.65638,2.25 -0.54434,2.08154 -4.1205,2.68329 -5.2345,0.8808 z m 192.53894,-4.93699 c 0,-0.55 0.45,-1 1,-1 0.55,0 1,0.45 1,1 0,0.55 -0.45,1 -1,1 -0.55,0 -1,-0.45 -1,-1 z m -133.5,-1 c -1.0591,-1.71367 0.40945,-2.86881 3.53421,-2.77996 2.85223,0.0811 2.9174,0.17595 1.32764,1.93262 -1.84122,2.03452 -3.90575,2.39434 -4.86185,0.84734 z M 53.595041,84.178372 c 0,-0.87083 0.7125,-1.58333 1.583333,-1.58333 0.870834,0 1.405209,0.53437 1.1875,1.1875 -0.618074,1.85422 -2.770833,2.16176 -2.770833,0.39583 z m 155.249999,-0.2341 c -0.6875,-0.28374 -1.25,-1.40829 -1.25,-2.49899 0,-1.57341 0.56811,-1.91772 2.75,-1.66666 1.97081,0.22676 2.75,0.87922 2.75,2.30272 0,1.99127 -1.91023,2.82859 -4.25,1.86293 z M 58.812739,82.440542 c 0.246419,-0.74002 1.25007,-1.50098 2.230336,-1.691 1.140016,-0.221 1.620844,0.13937 1.334268,1 -0.246419,0.74002 -1.25007,1.50098 -2.230336,1.691 -1.140016,0.221 -1.620844,-0.13937 -1.334268,-1 z m 156.782301,0.1545 c 0,-0.55 0.45,-1 1,-1 0.55,0 1,0.45 1,1 0,0.55 -0.45,1 -1,1 -0.55,0 -1,-0.45 -1,-1 z m 118.46106,-1.06301 c -0.36134,-0.58466 0.14721,-1.95164 1.13011,-3.03773 1.58965,-1.75655 1.88541,-1.79904 2.67695,-0.38463 1.47679,2.63888 -2.23119,5.97217 -3.80706,3.42236 z m -142.46106,-1.49601 c 0,-0.85746 0.45,-1.2809 1,-0.94098 0.55,0.33992 1,1.04148 1,1.55902 0,0.51754 -0.45,0.94098 -1,0.94098 -0.55,0 -1,-0.70156 -1,-1.55902 z m 131.66667,0.89235 c -0.36667,-0.36666 -0.66667,-1.13166 -0.66667,-1.7 0,-0.6266 0.46577,-0.56756 1.18333,0.15 0.65084,0.65084 0.95084,1.41584 0.66667,1.7 -0.28417,0.28417 -0.81667,0.21667 -1.18333,-0.15 z m -139.44048,-1.51189 c 0.54204,-1.62612 3.53037,-3.39821 4.34938,-2.5792 0.36933,0.36933 0.40504,1.36591 0.0794,2.21463 -0.68505,1.78523 -5.02127,2.14218 -4.42873,0.36457 z m 14.77381,-0.26242 c 0,-2.03936 1.95984,-2.99918 3.32877,-1.63025 0.87268,0.87268 0.79038,1.38472 -0.33713,2.09756 -2.11015,1.33408 -2.99164,1.19639 -2.99164,-0.46731 z m 127.07389,0.03 c -0.80051,-0.96456 -0.83925,-1.61601 -0.12245,-2.05902 1.39636,-0.863 3.04856,0.23665 3.04856,2.02901 0,1.83608 -1.41516,1.85059 -2.92611,0.03 z m -164.07389,-2.44667 c 0,-3.6304 1.29243,-4.69984 3.0787,-2.54752 0.92204,1.11099 1.00774,2.04457 0.29187,3.17947 -1.8067,2.86422 -3.37057,2.57101 -3.37057,-0.63195 z m 11.62311,-0.6621 c -2.22972,-2.22971 -1.06264,-4.77169 1.46582,-3.19264 1.05109,0.65642 1.91107,1.73368 1.91107,2.39392 0,2.01133 -1.7503,2.42532 -3.37689,0.79872 z m 136.01526,-0.98025 c -0.33648,-0.87686 -1.83491,-1.5 -3.60699,-1.5 -4.83734,0 -3.82633,-4.32083 1.94113,-8.29589 3.64992,-2.51561 7.7057,-2.15437 10.57524,0.94191 3.31785,3.58003 3.08744,5.99609 -0.79775,8.36494 -3.86696,2.35773 -7.31478,2.5656 -8.11163,0.48904 z m -122.01342,-1.20838 c -0.31382,-0.31382 -0.33125,-0.95781 -0.0387,-1.4311 0.70205,-1.13593 3.4138,-1.11012 3.4138,0.0325 0,1.10376 -2.59467,2.17898 -3.37505,1.39861 z m 158.85542,-3.32338 c -0.38836,-0.62838 -0.28056,-1.56805 0.23954,-2.08816 1.21456,-1.21455 4.4836,0.009 3.98949,1.49313 -0.5235,1.57246 -3.37683,1.97392 -4.22903,0.59503 z m 6.51963,-2.02726 c 0,-0.58246 0.45,-0.7809 1,-0.44098 0.55,0.33992 1,0.81648 1,1.05902 0,0.24254 -0.45,0.44098 -1,0.44098 -0.55,0 -1,-0.47656 -1,-1.05902 z M 9.3918751,67.495322 c -0.835535,-2.19723 0.276814,-7.71651 1.8119439,-8.99056 1.676128,-1.39106 1.677328,-0.8305 0.01175,5.49056 -0.710165,2.69516 -1.5308259,4.27016 -1.8236909,3.5 z M 157.94012,67.051912 c -0.69671,-1.81558 -0.55084,-1.99148 2.40492,-2.90003 2.50969,-0.77144 3.13456,1.1586 1.05,3.24316 -1.62094,1.62094 -2.74404,1.5094 -3.45492,-0.34313 z m -4.84508,-1.45687 c 0.33992,-0.55 1.04148,-1 1.55902,-1 0.51754,0 0.94098,0.45 0.94098,1 0,0.55 -0.70156,1 -1.55902,1 -0.85746,0 -1.2809,-0.45 -0.94098,-1 z m 65.23121,-0.91984 c -0.43497,-1.66335 -0.30483,-2.05378 0.43724,-1.31171 0.5811,0.5811 0.85979,1.64682 0.61931,2.36826 -0.24965,0.74895 -0.70294,0.29565 -1.05655,-1.05655 z m -187.231209,-0.0802 c -0.399154,-0.64585 -0.275735,-1.62427 0.274265,-2.17427 0.666666,-0.66666 1.241911,-0.60857 1.725735,0.17427 0.399154,0.64585 0.275735,1.62426 -0.274265,2.17426 -0.666666,0.66667 -1.241911,0.60858 -1.725735,-0.17426 z m 48,0 c -0.339919,-0.55 -0.141476,-1 0.440983,-1 0.582459,0 1.059017,0.45 1.059017,1 0,0.55 -0.198442,1 -0.440983,1 -0.242541,0 -0.719098,-0.45 -1.059017,-1 z m 256.729169,-0.1875 c 0.61807,-1.85422 2.77083,-2.16176 2.77083,-0.39583 0,0.87083 -0.7125,1.58333 -1.58333,1.58333 -0.87084,0 -1.40521,-0.53438 -1.1875,-1.1875 z m -198.22917,-0.50648 c -6.06636,-2.16806 -4.55156,-11.30602 1.8742,-11.30602 2.58532,0 7.1258,4.16992 7.1258,6.54425 0,3.39269 -5.17284,6.12956 -9,4.76177 z m 190,-1.37557 c 0,-1.57185 0.53864,-1.9927 2.23978,-1.75 3.32375,0.4742 3.61588,3.81955 0.33354,3.81955 -1.93548,0 -2.57332,-0.51297 -2.57332,-2.06955 z m -305.999999,0.0696 c 0,-0.55 0.45,-1 1,-1 0.55,0 1,0.45 1,1 0,0.55 -0.45,1 -1,1 -0.55,0 -1,-0.45 -1,-1 z m 128.071529,-0.41381 c -1.23444,-1.48741 -0.71914,-3.58619 0.8805,-3.58619 1.27865,0 2.22638,3.22159 1.23837,4.2096 -0.50022,0.50022 -1.408,0.23313 -2.11887,-0.62341 z m 36.59533,-0.40181 c -0.90371,-0.99859 -1.92374,-3.21876 -2.26673,-4.93371 -0.50126,-2.50634 -0.12012,-3.62159 1.94267,-5.68438 1.41146,-1.41146 3.46922,-2.56629 4.57279,-2.56629 3.09686,0 6.03087,3.80423 5.88693,7.63299 -0.10535,2.80221 -0.74185,3.65468 -3.99471,5.35017 -4.66211,2.43002 -4.13941,2.4129 -6.14095,0.20122 z m 22.02699,0.17614 c -0.79893,-0.79893 0.10419,-2.36052 1.36517,-2.36052 0.51754,0 0.94098,0.675 0.94098,1.5 0,1.54641 -1.17996,1.9867 -2.30615,0.86052 z m -39.00635,-2.00635 c -1.37384,-1.37385 -0.66124,-3.49576 1.0625,-3.1638 0.9625,0.18536 1.75,0.96836 1.75,1.73999 0,1.57885 -1.76429,2.47201 -2.8125,1.42381 z m 136.95198,-0.048 c -1.12618,-1.12619 -0.68589,-2.30615 0.86052,-2.30615 0.825,0 1.5,0.42344 1.5,0.94098 0,1.26098 -1.56159,2.1641 -2.36052,1.36517 z m 9.03864,-1.05615 c -1.53415,-1.53376 -1.87499,-1.56465 -2.75834,-0.25 -0.86024,1.28024 -1.23907,1.17036 -2.58581,-0.75 -1.94913,-2.77933 -3.47559,-2.85413 -5.1019,-0.25 -2.82628,4.52561 -10.82462,0.42659 -9.58986,-4.91465 0.32872,-1.42194 1.14392,-3.03535 1.81156,-3.58535 0.72545,-0.59763 1.03489,-2.51443 0.76904,-4.76377 -0.81422,-6.88911 2.98586,-8.68141 7.92802,-3.73925 3.37511,3.37512 3.40294,5.91859 0.0829,7.57383 l -2.2486,1.12105 2.48304,2.67925 c 1.91024,2.06119 3.06539,2.53309 5.00746,2.04566 1.60658,-0.40324 2.52437,-0.21413 2.52437,0.52013 0,0.77068 1.12984,0.94177 3.40306,0.51531 2.87387,-0.53914 3.50593,-0.31433 4.06455,1.44574 1.30406,4.10873 -2.49041,5.65028 -5.78949,2.35205 z m -139.61382,-1.17504 c -1.1898,-0.76453 -1.21165,-1.19249 -0.12755,-2.49875 2.05528,-2.47646 5.26849,-2.03978 4.8828,0.66357 -0.34966,2.45082 -2.50354,3.28206 -4.75525,1.83518 z m 45.9357,-1.57496 c 0,-0.825 0.51974,-1.5 1.15499,-1.5 0.66229,0 0.39726,-0.83727 -0.62128,-1.96276 -2.08695,-2.30604 -1.32179,-5.34703 1.21327,-4.82196 1.21753,0.25218 1.69456,1.19812 1.56164,3.0967 -0.10527,1.50348 0.23223,2.47179 0.75,2.15179 0.51776,-0.31999 0.94138,0.10392 0.94138,0.94203 0,0.83811 -0.87042,1.98966 -1.93426,2.55902 -2.58328,1.38252 -3.06574,1.30938 -3.06574,-0.46482 z M 0.78844169,55.038622 c -0.7649203,-0.86664 -1.179492,-3.23466 -0.9999999,-5.71196 l 0.3065995,-4.23162 2.15508881,3.02108 c 1.450914,2.03394 1.984635,3.91275 1.633423,5.75 -0.58769,3.0743 -1.208835,3.3096 -3.09511141,1.1725 z M 119.98805,55.013222 c 0.33385,-0.86998 0.6213,-2.33248 0.63879,-3.25 0.0291,-1.52553 0.14446,-1.51986 1.34888,0.0662 0.72439,0.95395 1.67103,1.40395 2.10365,1 0.43262,-0.40395 0.25979,0.27805 -0.38406,1.51555 -1.34386,2.58294 -4.67222,3.18286 -3.70726,0.66821 z m 90.10699,-0.41821 c 0.33992,-0.55 0.81648,-1 1.05902,-1 0.24254,0 0.44098,0.45 0.44098,1 0,0.55 -0.47656,1 -1.05902,1 -0.58246,0 -0.7809,-0.45 -0.44098,-1 z m -121.999999,-3 c -0.339919,-0.55 -0.141476,-1 0.440983,-1 0.582459,0 1.059017,0.45 1.059017,1 0,0.55 -0.198442,1 -0.440983,1 -0.242541,0 -0.719098,-0.45 -1.059017,-1 z m -41,-2 c 0.339919,-0.55 0.816476,-1 1.059017,-1 0.242541,0 0.440983,0.45 0.440983,1 0,0.55 -0.476558,1 -1.059017,1 -0.582459,0 -0.780902,-0.45 -0.440983,-1 z m 87.499999,0 c 0,-0.55 0.45,-1 1,-1 0.55,0 1,0.45 1,1 0,0.55 -0.45,1 -1,1 -0.55,0 -1,-0.45 -1,-1 z m 32,0 c 0,-0.55 0.47656,-1 1.05902,-1 0.58246,0 0.7809,0.45 0.44098,1 -0.33992,0.55 -0.81648,1 -1.05902,1 -0.24254,0 -0.44098,-0.45 -0.44098,-1 z M 34.147827,48.680452 c -0.321975,-0.52097 -0.159164,-1.21065 0.361804,-1.53262 0.520967,-0.32198 1.210648,-0.15917 1.532624,0.3618 0.321975,0.52097 0.159164,1.21065 -0.361804,1.53262 -0.520967,0.32198 -1.210648,0.15917 -1.532624,-0.3618 z m 252.601713,-0.63738 c 0.19002,-0.98026 0.95098,-1.98391 1.691,-2.23033 0.86063,-0.28658 1.221,0.19425 1,1.33427 -0.19002,0.98026 -0.95098,1.98391 -1.691,2.23033 -0.86063,0.28658 -1.221,-0.19425 -1,-1.33427 z m -129.42993,-1.45005 c -3.41855,-2.68903 -3.38906,-7.33013 0.0638,-10.04618 1.36476,-1.07349 3.25092,-1.9518 4.1915,-1.9518 2.54778,0 5.02439,3.26622 4.98833,6.57874 -0.0645,5.92162 -4.95784,8.79045 -9.24363,5.41924 z m 26.27543,0.002 c 0,-0.55 0.45,-1 1,-1 0.55,0 1,0.45 1,1 0,0.55 -0.45,1 -1,1 -0.55,0 -1,-0.45 -1,-1 z m -43,-2.05902 c 0,-0.58246 0.45,-0.7809 1,-0.44098 0.55,0.33992 1,0.81648 1,1.05902 0,0.24254 -0.45,0.44098 -1,0.44098 -0.55,0 -1,-0.47656 -1,-1.05902 z m 47.04754,-0.85215 c -1.50876,-2.81915 -1.29838,-4.55185 0.7812,-6.43384 2.95088,-2.67052 3.99885,-1.99059 3.77079,2.44649 -0.25029,4.86957 -2.85756,7.15343 -4.55199,3.98735 z M 71.095041,42.595042 c 0.339919,-0.55 0.816476,-1 1.059017,-1 0.242541,0 0.440983,0.45 0.440983,1 0,0.55 -0.476558,1 -1.059017,1 -0.582459,0 -0.780902,-0.45 -0.440983,-1 z m 12.5,-3.5 -2.348628,-2.5 2.259992,-2.40565 c 1.897778,-2.02009 2.074866,-2.75156 1.10492,-4.56392 -0.880795,-1.64578 -0.869635,-2.50221 0.047,-3.60668 1.699018,-2.04719 3.936716,0.0217 3.936716,3.63968 0,1.55019 0.45,3.09665 1,3.43657 1.390334,0.85927 1.253703,5.8463 -0.2,7.3 -1.788934,1.78893 -3.193946,1.47402 -5.8,-1.3 z m 57.446149,0.41287 c -0.36954,-0.59793 -0.17109,-1.58793 0.44098,-2.2 0.61208,-0.61208 1.1473,-0.91037 1.18938,-0.66287 0.0421,0.2475 0.22726,1.2375 0.41152,2.2 0.36998,1.93274 -0.98517,2.37267 -2.04188,0.66287 z m 99.75385,-0.11287 c -1.72343,-1.72343 -1.478,-4.75609 0.44461,-5.49387 1.87357,-0.71895 4.35539,2.06465 4.35539,4.885 0,2.07238 -2.96091,2.44796 -4.8,0.60887 z m 45.97668,-0.46713 c 0.48655,-2.50877 2.82332,-2.85325 2.82332,-0.4162 0,1.22833 -0.64569,2.08333 -1.57332,2.08333 -0.93124,0 -1.44138,-0.68037 -1.25,-1.66713 z m -66.92668,-0.0505 c -2.0535,-0.73771 -1.42095,-2.01656 1.25,-2.52714 1.375,-0.26285 2.5,-0.14541 2.5,0.26098 0,1.26444 -2.43774,2.73759 -3.75,2.26616 z m 115.75,-1.28239 c 0,-0.55 0.47656,-1 1.05902,-1 0.58246,0 0.7809,0.45 0.44098,1 -0.33992,0.55 -0.81648,1 -1.05902,1 -0.24254,0 -0.44098,-0.45 -0.44098,-1 z m -29,-0.84501 c 0,-0.63525 0.37777,-1.15499 0.83948,-1.15499 0.46172,0 1.35207,-1.125 1.97857,-2.5 1.36663,-2.99942 3.18195,-3.28468 3.18195,-0.5 0,1.1 -0.52707,2 -1.17126,2 -0.64419,0 -1.99419,0.74474 -3,1.65499 -1.09416,0.99019 -1.82874,1.19104 -1.82874,0.5 z m 48,-0.15499 c 0,-0.55 0.45,-1 1,-1 0.55,0 1,0.45 1,1 0,0.55 -0.45,1 -1,1 -0.55,0 -1,-0.45 -1,-1 z M 54.845041,32.932762 c -1.772915,-0.71539 -1.553851,-5.28389 0.287245,-5.99039 0.845485,-0.32444 2.307985,0.081 3.25,0.9009 0.942015,0.81994 2.387755,1.73899 3.212755,2.04233 1.045068,0.38427 1.099226,0.57549 0.178571,0.63049 -0.726785,0.0434 -1.996428,0.75395 -2.821428,1.57895 -1.568778,1.56878 -2.051421,1.66722 -4.107143,0.83772 z m 197.722129,-1.3898 c -0.81961,-1.53146 -0.72106,-2.10703 0.43686,-2.55137 1.85352,-0.71126 3.59101,0.28327 3.59101,2.05548 0,2.26928 -2.88846,2.6249 -4.02787,0.49589 z m -154.429421,0.12118 c -0.68307,-1.10523 0.89441,-2.29865 1.81781,-1.37525 0.950791,0.95079 0.773591,2.30615 -0.3015,2.30615 -0.51754,0 -1.19988,-0.41891 -1.51631,-0.9309 z m 74.457291,-0.65243 c 0,-1.76593 2.15276,-1.45839 2.77083,0.39583 0.21771,0.65312 -0.31666,1.1875 -1.1875,1.1875 -0.87083,0 -1.58333,-0.7125 -1.58333,-1.58333 z m 19.42001,-1.99137 c -0.41176,-2.19485 -0.23625,-4.00906 0.45469,-4.7 0.61891,-0.61891 1.13944,-1.8228 1.15672,-2.6753 0.0173,-0.8525 1.1641,-2.37496 2.54848,-3.38325 2.28271,-1.66257 2.73216,-1.6923 4.82761,-0.31931 1.60098,1.049 2.48748,2.83295 2.88664,5.80896 0.6994,5.21439 -0.45702,6.8436 -4.85758,6.8436 -1.82519,0 -3.59665,0.45 -3.93657,1 -1.21025,1.95823 -2.4192,0.94762 -3.07999,-2.5747 z m -167.753342,1.90803 c -1.03737,-1.03737 -0.783835,-4.33333 0.333333,-4.33333 0.55,0 1,0.4132 1,0.91821 0,0.50502 0.273145,1.63002 0.606989,2.5 0.605193,1.57711 -0.674695,2.18075 -1.940322,0.91512 z M 149.2457,29.127062 c -0.30982,-0.80738 -0.13297,-1.73394 0.39301,-2.05901 0.52598,-0.32508 0.95633,0.33551 0.95633,1.46797 0,2.41457 -0.55611,2.65816 -1.34934,0.59104 z m 126.01601,0.80131 c -1.0524,-1.05239 -0.77625,-4.33333 0.36471,-4.33333 0.56727,0 1.29041,0.675 1.60699,1.5 0.31659,0.825 1.22902,1.5 2.02764,1.5 0.79861,0 1.17391,0.45 0.83399,1 -0.69834,1.12994 -3.82135,1.34532 -4.83333,0.33333 z m 19.33333,-0.29383 c 0,-0.61995 -0.74082,-0.99495 -1.64626,-0.83334 -0.90544,0.16161 -1.84294,-0.26866 -2.08333,-0.95616 -0.29784,-0.85179 0.72781,-1.25 3.21958,-1.25 2.87592,0 3.58762,0.35595 3.33333,1.66713 -0.3681,1.89804 -2.82332,3.09147 -2.82332,1.37237 z m 104.42976,-1.36196 c -0.35406,-0.92265 -0.35406,-2.43243 0,-3.35508 0.60248,-1.57006 0.75121,-1.57006 2.32127,0 1.57006,1.57005 1.57006,1.78503 0,3.35508 -1.57006,1.57006 -1.71879,1.57006 -2.32127,0 z M 68.595041,26.501422 c 0,-1.25262 0.803397,-2.30371 2,-2.61663 1.1,-0.28766 2,-1.13588 2,-1.88494 0,-1.09354 0.497776,-1.13513 2.525895,-0.21106 2.501105,1.13958 2.883384,3.57687 0.472755,3.01413 -0.688242,-0.16066 -1.895009,0.62684 -2.681704,1.75 -1.858668,2.65362 -4.316946,2.6243 -4.316946,-0.0515 z m -51,0.0936 c 0,-0.55 0.476558,-1 1.059017,-1 0.582459,0 0.780902,0.45 0.440983,1 -0.339919,0.55 -0.816476,1 -1.059017,1 -0.242541,0 -0.440983,-0.45 -0.440983,-1 z m 41.035184,-1.93426 c -2.239106,-4.18381 -0.571536,-8.06574 3.464816,-8.06574 2.873687,0 4.5,1.86658 4.5,5.16482 0,4.46008 -5.967229,6.63345 -7.964816,2.90092 z m 312.999995,0 c -2.26275,-4.22799 -0.58102,-7.04808 2.90483,-4.87113 2.78104,1.73678 3.25529,3.46724 1.44607,5.27645 -2.02796,2.02796 -3.1022,1.92789 -4.3509,-0.40532 z m 33.67507,-0.0657 c 0.28766,-1.1 0.92053,-2 1.40638,-2 0.48585,0 0.88337,0.9 0.88337,2 0,1.1 -0.63287,2 -1.40638,2 -0.91405,0 -1.22329,-0.70014 -0.88337,-2 z m -246.71025,0.0314 c 0,-0.53273 -0.675,-0.70959 -1.5,-0.39301 -1.56563,0.60079 -1.87402,-0.34755 -1.5083,-4.63837 0.27117,-3.18157 1.15949,-3.69749 5.49494,-3.19135 3.98582,0.46532 4.40908,1.85279 1.51336,4.96097 -1.1,1.18072 -2,2.61557 -2,3.18857 0,0.57299 -0.45,1.04181 -1,1.04181 -0.55,0 -1,-0.43588 -1,-0.96862 z m 129.13618,-0.17439 c -0.0749,-0.90366 -0.8397,-1.91298 -1.69956,-2.24294 -2.12804,-0.8166 -0.66976,-2.90828 1.61166,-2.31168 1.00483,0.26277 2.06178,-0.14681 2.35575,-0.91288 0.91757,-2.39114 3.59597,-1.60796 3.59597,1.05149 0,2.66137 -1.48651,4.19888 -2.48992,2.57533 -1.05475,-1.70663 -2.34756,-1.1379 -2.80435,1.23369 -0.24406,1.26714 -0.49285,1.53229 -0.56955,0.60699 z m 73.36382,-0.85699 c 0.33992,-0.55 1.04148,-1 1.55902,-1 0.51754,0 0.94098,0.45 0.94098,1 0,0.55 -0.70156,1 -1.55902,1 -0.85746,0 -1.2809,-0.45 -0.94098,-1 z m 19.15142,0.245 c -0.25664,-0.41525 0.35511,-1.76979 1.35945,-3.0101 1.74311,-2.15265 1.90604,-2.17514 3.58619,-0.495 1.62586,1.62584 1.63208,1.78476 0.0815,2.08342 -0.92322,0.17783 -1.67859,0.74033 -1.67859,1.25 0,1.10896 -2.68426,1.24658 -3.34858,0.17168 z m 77.34858,-0.245 c 0,-0.55 0.42344,-1 0.94098,-1 0.51754,0 1.2191,0.45 1.55902,1 0.33992,0.55 -0.0835,1 -0.94098,1 -0.85746,0 -1.55902,-0.45 -1.55902,-1 z m -202.5,-1.37934 c -1.62275,-1.21992 -1.78513,-1.84466 -0.86085,-3.31209 0.85812,-1.36239 2.17064,-1.74047 5.32021,-1.53253 4.04599,0.26713 4.2327,0.1446 5.77923,-3.79247 1.49661,-3.8100003 1.79272,-4.0257803 4.66017,-3.39599 2.64839,0.58169 2.89344,0.46943 1.81413,-0.8310603 -1.8532,-2.23298 2.94327,-5.15514 7.30098,-4.44798 1.78759,0.29008 3.74576,0.0318 4.35148,-0.57389 1.51015,-1.51015 2.55613,-0.2212 1.60047,1.97222 -0.42969,0.98622 -0.67903,2.40585 -0.55407,3.15474 0.28043,1.6807303 -3.77613,6.1383903 -5.58606,6.1383903 -0.72913,0 -1.32569,0.59656 -1.32569,1.32569 0,2.50285 -4.82852,6.01747 -7.99186,5.81717 -1.65448,-0.10477 -3.79564,-0.23444 -4.75814,-0.28817 -0.9625,-0.0537 -3.1,0.20993 -4.75,0.5859 -2.01968,0.46022 -3.65355,0.19228 -5,-0.81993 z m 160.64953,-3.21736 c -1.73421,-1.59681 -3.81189,-3.46915 -4.61708,-4.16074 -1.76037,-1.51203 -1.02386,-3.95182 1.42785,-4.72996 2.85689,-0.9067403 7.35229,1.23042 6.61725,3.14592 -0.34418,0.89689 0.0565,2.38457 0.8903,3.30596 1.2805,1.41493 1.30776,1.96013 0.17543,3.50868 -1.27348,1.74159 -1.49861,1.688 -4.49375,-1.06986 z m -240.48949,-0.5041 c -0.41773,-0.88044 -0.62463,-2.08617 -0.45977,-2.67942 0.16485,-0.59324 -0.60027,-1.75324 -1.70027,-2.57778 -1.89683,-1.42182 -1.90625,-1.53549 -0.18278,-2.20336 2.65944,-1.03058 3.8673,0.77717 3.46077,5.17958 -0.24732,2.6783 -0.59392,3.38548 -1.11795,2.28098 z m 74.92291,0.23501 c -0.43077,-0.697 -0.51316,-1.53733 -0.18309,-1.86741 0.89497,-0.89496 1.87077,0.4213 1.38739,1.87145 -0.33872,1.01617 -0.57427,1.01538 -1.2043,-0.004 z m -44.09803,-2.15861 c -1.33199,-2.1552 0.62971,-6.9662703 3.09251,-7.5843903 4.85859,-1.21943 7.57384,1.7866103 5.57547,6.1725603 -0.86517,1.89883 -1.87378,2.43623 -4.57244,2.43623 -1.90434,0 -3.74733,-0.46098 -4.09554,-1.0244 z m 89.51508,-0.94042 c 0,-0.53065 0.85502,-1.4224 1.90004,-1.98168 1.4189,-0.75937 2.03597,-0.66263 2.43686,0.38205 0.29525,0.76941 -0.14657,1.66117 -0.98183,1.98169 -2.20752,0.84711 -3.35507,0.71643 -3.35507,-0.38206 z m 93,0.0238 c 0,-0.51754 0.45,-1.21909 1,-1.55901 0.55,-0.33992 1,0.0835 1,0.94098 0,0.85746 -0.45,1.55902 -1,1.55902 -0.55,0 -1,-0.42344 -1,-0.94098 z m -7.53104,-1.10923 c -0.95021,-1.53749 0.35135,-2.52947 1.63484,-1.24598 0.71818,0.71818 0.73543,1.27752 0.0524,1.69964 -0.55992,0.34605 -1.31919,0.1419 -1.68727,-0.45366 z m 24.53104,-0.94978 c 0,-0.55 0.675,-1 1.5,-1 0.825,0 1.5,0.45 1.5,1 0,0.55 -0.675,1 -1.5,1 -0.825,0 -1.5,-0.45 -1.5,-1 z m -225,-1.58333 c 0,-1.76593 2.15276,-1.45839 2.77083,0.39583 0.21771,0.65312 -0.31666,1.1875 -1.1875,1.1875 -0.87083,0 -1.58333,-0.7125 -1.58333,-1.58333 z m 146.75,0.52699 c -3.59054,-2.14004 -1.52474,-7.9436603 2.82756,-7.9436603 2.93499,0 4.63569,2.2796 4.2447,5.6895303 -0.24798,2.16265 -0.89851,2.86656 -2.82226,3.05382 -1.375,0.13384 -3.2875,-0.22602 -4.25,-0.79969 z m 133.71896,0.006 c -0.95021,-1.53749 0.35135,-2.52947 1.63484,-1.24599 0.71818,0.71818 0.73543,1.27753 0.0524,1.69965 -0.55992,0.34605 -1.31919,0.1419 -1.68727,-0.45366 z m -315.80229,-0.61634 c -1.15064,-1.15063 -0.72824,-2.3333303 0.83333,-2.3333303 0.825,0 1.5,0.6750003 1.5,1.5000003 0,1.56157 -1.1827,1.98397 -2.33333,0.83333 z m 223.33333,-1.77431 c 0,-0.8574603 0.45,-1.5590203 1,-1.5590203 0.55,0 1,0.42344 1,0.94098 0,0.5175403 -0.45,1.2191003 -1,1.5590203 -0.55,0.33992 -1,-0.0835 -1,-0.94098 z m 22.55279,0.52639 c -0.32198,-0.52097 -0.15917,-1.2106503 0.3618,-1.5326203 0.52097,-0.32198 1.21065,-0.15917 1.53262,0.3618 0.32198,0.5209703 0.15917,1.2106503 -0.3618,1.5326203 -0.52097,0.32198 -1.21065,0.15917 -1.53262,-0.3618 z M 52.172845,9.8450417 c -0.415541,-0.4125 -1.953041,-0.75 -3.416667,-0.75 -1.998349,0 -2.740725,-0.56039 -2.980688,-2.25 -0.217862,-1.534 0.192803,-2.25 1.290493,-2.25 1.812761,0 7.529058,3.93894 7.529058,5.18806 0,1.0190303 -1.421433,1.0553803 -2.422196,0.0619 z m 261.501145,-0.83333 c 0.048,-1.16495 0.28494,-1.4019 0.60416,-0.60417 0.28887,0.72187 0.25335,1.58437 -0.0789,1.9166703 -0.33229,0.33229 -0.56864,-0.25834 -0.52522,-1.3125003 z m -143.33115,-0.81172 c -1.56863,-1.56863 -10.31679,-2.35343 -12.9978,-1.16603 -2.50231,1.10825 -4.67267,-0.008 -4.13772,-2.12775 0.78479,-3.11001 -6.86635,-5.65709996 -9.39561,-3.12784 -0.65084,0.65084 -1.49084,0.87584 -1.86667,0.5 -1.67793,-1.67792996 1.85482,-2.20419996 16.80313,-2.50313996 l 15.99196,-0.31981 -1.14194,2.13372996 c -0.82426,1.54014 -0.83964,2.49798 -0.0553,3.44306 1.13292,1.36508 0.44371,4.56283 -0.98341,4.56283 -0.45187,0 -1.44936,-0.62777 -2.21664,-1.39505 z m 120.62645,-0.0721 c -0.78409,-2.04331 2.34011,-5.57973 4.2738,-4.8377 2.3858,0.91551 1.28015,5.744 -1.40252,6.12495 -1.37033,0.19458 -2.49637,-0.31024 -2.87128,-1.28725 z m 116.77376,-1.3809 c 0.18717,-1.78435 -0.41303,-3.55841 -1.60702,-4.75 -1.87328,-1.86953996 -1.73003,-1.90682996 8.40687,-2.18836996 5.67195,-0.15753 10.55871,-0.0403 10.85948,0.26043 0.30077,0.30077 -0.74203,1.89215996 -2.31733,3.53641996 -3.50663,3.66013 -6.95397,3.88317 -8.70807,0.5634 -1.12216,-2.12377 -1.50751,-2.26037 -3.09178,-1.096 -1.14522,0.84169 -1.41964,1.57132 -0.7473,1.98686 0.73976,0.45719 0.74725,1.24583 0.0247,2.596 -1.53796,2.8737103 -3.16138,2.3504703 -2.81951,-0.90874 z m -230.96756,-0.39173 c 0.3481,-2.4399 3.40098,-3.57879 5.08339,-1.89638 1.41414,1.41414 -0.86015,4.13616 -3.45584,4.13616 -1.44503,0 -1.8647,-0.57754 -1.62755,-2.23978 z m 127.95067,0.89777 c -0.61257,-0.7381 -0.8335,-1.62227 -0.49096,-1.96482 0.9364,-0.93639 4.50613,1.26111 3.82883,2.357 -0.81959,1.32613 -2.02981,1.18394 -3.33787,-0.39218 z m 153.86888,-0.0356 c 0,-0.75765 0.66968,-1.93333 1.48817,-2.61262 1.20277,-0.99821 1.60332,-0.93499 2.08861,0.32967 0.33024,0.8606 0.30901,2.03628 -0.0472,2.61262 -0.94261,1.5252 -3.52958,1.28358 -3.52958,-0.32967 z m -4.44721,-0.53703 c -0.32198,-0.52097 -0.15917,-1.21065 0.3618,-1.53262 0.52097,-0.32198 1.21065,-0.15917 1.53262,0.3618 0.32198,0.52097 0.15917,1.21065 -0.3618,1.53262 -0.52097,0.32198 -1.21065,0.15917 -1.53262,-0.3618 z m -184.63225,-3.64244 c 0.8687,-1.85781 1.94352,-3.39248996 2.38848,-3.41040996 0.44496,-0.0179 0.5309,0.41744 0.19098,0.96744 -0.33992,0.54999996 0.057,0.99999996 0.88197,0.99999996 0.825,0 1.77811,-0.45 2.11803,-0.99999996 0.35676,-0.57725 5.71787,-1 12.68146,-1 10.27137,0 11.88947,0.2096 10.89243,1.41096996 -0.80051,0.96456 -0.83925,1.61601 -0.12245,2.05902 0.57671,0.35642 1.0343,1.18399 1.01688,1.83903 -0.0174,0.65504 -0.88209,0.0535 -1.92148,-1.33673 -1.5725,-2.10331 -2.61656,-2.49165 -6.21832,-2.31297 -2.38069,0.11811 -6.39216,0.26942 -8.91439,0.33624 -2.52223,0.0668 -5.89723,0.81353 -7.5,1.65935 -1.60277,0.84581 -3.84989,1.90415 -4.99359,2.35187 -2.03244,0.79563 -2.04375,0.73766 -0.5,-2.56381 z m 41.94016,2.41546 c -1.0987,-0.72383 -0.98338,-1.1842 0.59886,-2.39091 2.27153,-1.7324 3.91392,-1.45378 4.33886,0.73605 0.35281,1.81806 -2.98964,2.93826 -4.93772,1.65486 z M 36.095041,4.5950417 c 0.339919,-0.55 1.041476,-1 1.559017,-1 0.517541,0 0.940983,0.45 0.940983,1 0,0.55 -0.701558,1 -1.559017,1 -0.857459,0 -1.280902,-0.45 -0.940983,-1 z m 405.499999,-0.5 c 0.68469,-0.825 1.62567,-1.5 2.09106,-1.5 0.46539,0 0.58715,0.675 0.27057,1.5 -0.31659,0.825 -1.25756,1.5 -2.09106,1.5 -1.23369,0 -1.284,-0.27889 -0.27057,-1.5 z m 6.73557,0.90223 c -0.32877,-0.32877 -0.35122,-1.24025 -0.0499,-2.02552 0.42038,-1.09549 0.86979,-1.1606 1.9311,-0.27979 0.76078,0.63138 1.38323,1.54287 1.38323,2.02552 0,0.99122 -2.35146,1.19276 -3.26443,0.27979 z m -317.0689,-3.0689 c -1.5078,-1.50778996 -0.46204,-2.33332996 2.95577,-2.33332996 3.10657,0 3.44516,0.21362 2.37756,1.49999996 -1.28758,1.55144 -4.16555,2.00112 -5.33333,0.83333 z m 70.33333,-1.33332996 c 0,-0.55 0.45,-1 1,-1 0.55,0 1,0.45 1,1 0,0.54999996 -0.45,0.99999996 -1,0.99999996 -0.55,0 -1,-0.45 -1,-0.99999996 z"
       id="path196" />
  </g>
</svg>
