<?xml version="1.0" encoding="UTF-8" standalone="no"?>
<!-- Created with Inkscape (http://www.inkscape.org/) -->

<svg
   version="1.1"
   id="svg59"
   width="1080"
   height="651"
   viewBox="0 0 1080 651"
   sodipodi:docname="Untitled.png"
   inkscape:version="1.2.1 (9c6d41e410, 2022-07-14)"
   xmlns:inkscape="http://www.inkscape.org/namespaces/inkscape"
   xmlns:sodipodi="http://sodipodi.sourceforge.net/DTD/sodipodi-0.dtd"
   xmlns="http://www.w3.org/2000/svg"
   xmlns:svg="http://www.w3.org/2000/svg">
  <defs
     id="defs63" />
  <sodipodi:namedview
     id="namedview61"
     pagecolor="#505050"
     bordercolor="#eeeeee"
     borderopacity="1"
     inkscape:showpageshadow="0"
     inkscape:pageopacity="0"
     inkscape:pagecheckerboard="0"
     inkscape:deskcolor="#505050"
     showgrid="false"
     inkscape:zoom="0.89501688"
     inkscape:cx="403.903"
     inkscape:cy="275.97245"
     inkscape:window-width="1920"
     inkscape:window-height="1027"
     inkscape:window-x="-8"
     inkscape:window-y="-8"
     inkscape:window-maximized="1"
     inkscape:current-layer="g65" />
  <g
     inkscape:groupmode="layer"
     inkscape:label="Image"
     id="g65">
    <path
       style="fill:#000000"
       d="m 221.22352,645.99291 c -1.1,-0.21777 -4.475,-0.91868 -7.5,-1.55759 l -5.5,-1.16164 -1.78896,-1.82641 c -0.98392,-1.00453 -2.11317,-1.82641 -2.50945,-1.82641 -1.37475,0 -3.22302,-4.02442 -3.74077,-8.14516 -0.28625,-2.27827 -0.75541,-4.52248 -1.04258,-4.98713 l -0.52212,-0.8448 1.55194,0.59553 1.55194,0.59554 0.0703,2.64301 c 0.0386,1.45365 0.4212,3.54213 0.85009,4.64106 l 0.77981,1.99804 0.5676,-2.99804 c 0.31217,-1.64893 1.05463,-4.68555 1.6499,-6.74805 4.05117,-14.03653 5.24525,-19.11252 5.58698,-23.75 0.3871,-5.25322 2.07557,-9.71243 4.98832,-13.17404 l 2.61286,-3.1052 0.57357,-2.86785 0.57357,-2.86785 3.30103,-2.89834 3.30102,-2.89834 -0.59569,-0.5957 -0.5957,-0.59569 1.06852,-2.2485 c 0.58768,-1.23667 2.01566,-4.38599 3.17329,-6.99849 2.02017,-4.55904 3.01857,-5.49264 4.39833,-4.11288 l 0.63712,0.63712 -1.84612,2.61288 c -1.01536,1.43708 -2.18429,4.17311 -2.59761,6.08006 -0.41332,1.90694 -1.09869,4.15694 -1.52305,5 -2.27238,4.51443 -6.97414,15.84447 -6.97414,16.80587 0,0.61245 -0.81504,1.70156 -1.81121,2.42025 -0.99616,0.71868 -2.2273,1.9817 -2.73587,2.8067 l -0.92466,1.5 -0.0695,6.55653 -0.0695,6.55652 -2.08595,5.44348 c -1.14726,2.99391 -2.76347,7.69347 -3.59156,10.44347 l -1.50561,5 2.26683,3 2.26684,3 4.32093,0.31682 4.32094,0.31683 2.26457,-1.21196 2.26457,-1.21197 1.54455,-4.533 c 0.8495,-2.49315 1.56362,-5.91534 1.58692,-7.60486 0.0233,-1.68952 0.61345,-5.51858 1.31144,-8.50901 l 1.26907,-5.43714 1.23616,-0.41206 1.23616,-0.41205 -0.69561,5.3492 c -0.38259,2.94206 -1.30401,7.09328 -2.0476,9.22493 -0.74352,2.13165 -1.35191,4.96207 -1.35191,6.28983 v 2.41412 l -1.91684,3.71016 -1.91684,3.71016 -2.0368,1.22952 -2.0368,1.22952 -0.60538,-0.97952 c -0.33295,-0.53874 -1.50537,-0.97952 -2.60537,-0.97952 h -2 l 0.54956,0.88922 c 0.30227,0.48907 1.74801,1.19001 3.21276,1.55764 l 2.66319,0.66842 2.59626,-1.09431 2.59626,-1.09431 2.73602,-3.85366 2.73603,-3.85366 1.58984,-6.35967 c 0.87442,-3.49782 1.96271,-7.93467 2.41844,-9.85967 0.45573,-1.925 1.57239,-5.975 2.48148,-9 0.90908,-3.025 1.90169,-7.78889 2.2058,-10.58643 l 0.55292,-5.08643 -1.61815,-3.12916 -1.61815,-3.12916 -1.5115,0.58002 -1.5115,0.58002 0.13461,6.13557 c 0.074,3.37456 -0.19331,7.59807 -0.59411,9.38557 l -0.72873,3.25 h -1.50313 -1.50313 l 0.7209,-2.25 c 0.39649,-1.2375 0.94357,-3.6728 1.21573,-5.41178 l 0.49484,-3.16177 -1.99914,-1.06991 -1.99915,-1.06991 -0.56857,1.48168 -0.56858,1.48169 h -2.53139 -2.53138 v -1.53138 -1.53139 l 1.5,-0.5756 1.5,-0.57561 v -2.19301 c 0,-1.20615 0.39564,-2.62051 0.8792,-3.14301 0.48356,-0.5225 1.42237,-2.75 2.08624,-4.95 0.66388,-2.2 1.78856,-5.35 2.4993,-7 0.71074,-1.65 2.49352,-6.15 3.96172,-10 1.46821,-3.85 3.53029,-8.575 4.5824,-10.5 1.05211,-1.925 2.65964,-5.20063 3.57228,-7.27917 l 1.65937,-3.77918 1.71807,-0.91948 1.71807,-0.91949 2.16168,0.56529 c 2.70572,0.70757 2.71798,1.5186 0.0593,3.92468 -2.19151,1.98329 -5.38439,7.40735 -4.36035,7.40735 0.32375,0 3.10796,-1.23359 6.18713,-2.74132 l 5.59851,-2.74132 1.81465,-3.00868 c 0.99806,-1.65477 2.28149,-3.68368 2.85207,-4.50868 0.57058,-0.825 4.85633,-7.51431 9.5239,-14.86513 l 8.48646,-13.36512 v -2.32586 -2.32586 l 1,-0.61803 1,-0.61803 -0.007,-4.19099 -0.007,-4.19098 -1.90964,2.89672 c -1.05031,1.59319 -2.17553,4.31401 -2.50051,6.04627 l -0.59086,3.14955 -2.95226,3.45373 -2.95227,3.45373 -0.0184,-1.5 c -0.0101,-0.825 0.86158,-2.625 1.93712,-4 1.07554,-1.375 1.96553,-3.27167 1.97776,-4.21482 l 0.0222,-1.71481 -1.86852,-1 -1.86851,-1 -0.63299,0.63299 -0.63299,0.63299 -2.49989,-1.3379 -2.49988,-1.3379 1.65638,-1.83027 c 0.91187,-1.00666 2.05143,-1.83028 2.53323,-1.83028 0.4818,0 7.49956,-6.81345 15.59502,-15.141 18.07013,-18.58819 19.28248,-19.74229 21.46901,-20.43742 0.9625,-0.306 1.75,-0.97603 1.75,-1.48897 v -0.93261 h -4.53138 -4.53139 l -0.5756,1.5 c -0.31659,0.825 -1.03683,1.5 -1.60054,1.5 -0.56372,0 -2.51035,1.575 -4.32586,3.5 -1.81551,1.925 -3.66864,3.52129 -4.11808,3.54731 -0.44943,0.026 -2.78031,2.50103 -5.17972,5.5 l -4.36258,5.45269 h -1.88742 -1.88743 v 1.68422 1.68421 l -8.48041,8.31036 -8.4804,8.31037 -2.54837,5.02895 c -2.4951,4.92384 -9.59652,15.62517 -15.51538,23.38056 -3.3883,4.43964 -3.62569,5.80822 -1.39453,8.03939 l 1.58092,1.58091 -2.58092,3.06724 -2.58091,3.06724 v 2.33994 2.33994 l 1.25,0.50439 1.25,0.50439 -1.80202,0.0789 -1.80202,0.0789 -1.0458,3 -1.04581,3 h -1.40218 -1.40217 v -1.33333 c 0,-0.73334 0.24402,-1.57736 0.54227,-1.8756 0.29824,-0.29825 0.74671,-4.25697 0.99659,-8.79717 0.24989,-4.5402 0.90313,-9.88368 1.45165,-11.8744 l 0.99732,-3.6195 4.25608,-5.70154 c 2.34085,-3.13585 5.15609,-7.16402 6.25609,-8.95149 1.1,-1.78747 2.45,-3.95593 3,-4.8188 0.55,-0.86288 2.29271,-3.80971 3.87268,-6.54852 l 2.87268,-4.97965 5.51849,-5.27549 c 3.03517,-2.90153 5.29906,-5.49493 5.03086,-5.76313 -0.26819,-0.2682 -2.10765,0.18925 -4.08767,1.01656 l -3.60005,1.5042 -0.5815,-0.9409 -0.58151,-0.94089 1.96227,-1.05018 1.96227,-1.05017 h 6.06574 6.06574 v -1.93261 -1.93261 l 2,-0.63478 c 1.1,-0.34913 2,-1.04851 2,-1.5542 0,-0.50568 2.25,-3.18129 5,-5.9458 l 5,-5.02639 v -1.42038 -1.42039 l 2.66601,-0.31642 2.66602,-0.31642 1.58398,-3.22729 1.58399,-3.22729 10.25,-0.0227 10.25,-0.0226 v 2.5 2.5 h 1.76265 1.76265 l 1.87742,-2.5 1.87743,-2.5 h 11.99947 11.99947 l -3.41206,2.31549 c -1.87663,1.27352 -4.86443,2.95837 -6.63954,3.74411 l -3.22749,1.42862 v 1.25589 1.25589 h -2.5 -2.5 v -1.59879 -1.59879 l 3.10576,-2.90121 3.10575,-2.90121 h -3.99877 -3.99876 l -0.49272,1.28401 c -0.65268,1.70086 -8.55909,5.452 -11.72834,5.56443 -1.37889,0.0489 -4.25777,0.9405 -6.39752,1.98129 l -3.89044,1.89234 3.39752,0.63124 c 4.36586,0.81115 9.71909,0.10201 14.91054,-1.97519 l 4.11757,-1.64753 1.12146,1.12146 1.12146,1.12146 -2.36107,2.51325 -2.36107,2.51324 h -2.26667 -2.26667 l -0.64804,-1.04856 -0.64805,-1.04856 -1.45335,1.20618 -1.45335,1.20618 -1.15762,-1.15762 -1.15762,-1.15762 h -3.82234 -3.82235 l -4.43327,4.08645 -4.43327,4.08645 -1.04439,-0.64547 -1.04438,-0.64546 v 2.05901 2.05902 h -0.93261 c -0.51294,0 -1.21826,0.9 -1.56739,2 l -0.63478,2 h -1.2474 -1.2474 l -1.68521,3.53393 c -1.90243,3.98944 -2.16578,7.05103 -0.68521,7.96607 l 1,0.61803 v 4.03986 4.03985 l -1.58062,3.65113 c -0.86935,2.00812 -2.78185,6.05067 -4.25,8.98345 l -2.66938,5.33231 -2.75,2.35313 -2.75,2.35312 -0.0318,1.81456 c -0.04,2.27903 -2.28775,5.31456 -3.93543,5.31456 h -1.24675 l 0.59013,1.53785 0.59013,1.53786 -1.48314,0.56913 -1.48314,0.56914 v 1.70901 1.70901 l -3.59639,3.184 -3.59638,3.184 h -1.85393 -1.85392 l -0.79969,1.41324 -0.79969,1.41324 -3,0.33676 -3,0.33676 -2.39005,5 c -1.31453,2.75 -3.44052,7.89133 -4.72443,11.42518 -1.28391,3.53385 -2.90839,6.83061 -3.60995,7.32613 l -1.27557,0.90095 1.25,0.5072 c 0.6875,0.27897 1.25,1.10721 1.25,1.84054 0,0.73333 0.35375,1.48333 0.78612,1.66667 0.43237,0.18333 1.89478,1.90833 3.24981,3.83333 l 2.46369,3.5 -0.13667,6.31007 c -0.0752,3.47055 -0.61073,8.19555 -1.19015,10.5 -0.57941,2.30446 -1.81014,7.33993 -2.73496,11.18993 -1.72795,7.19345 -4.24887,14.84349 -6.53466,19.83021 l -1.2973,2.83021 -3.7631,1.91979 -3.7631,1.91979 -2.28984,-0.116 c -1.25941,-0.0638 -3.18984,-0.29418 -4.28984,-0.51195 z m 549.72326,-46.04324 c -2.52899,-1.01676 -5.05026,-7.52896 -6.90259,-17.82881 -0.19782,-1.1 -1.06196,-3.494 -1.92031,-5.31999 l -1.56062,-3.31999 0.51699,-1.34725 0.51699,-1.34725 -1.43686,-0.55138 -1.43686,-0.55137 v -2.97237 -2.97237 l -1,-0.61803 -1,-0.61803 v -2.94099 -2.94098 h -1.11663 -1.11663 l 0.50612,-1.93542 0.50612,-1.93541 -1.38949,-0.5332 -1.38949,-0.5332 v 0.96861 c 0,1.41847 -2.25935,1.18481 -5.84636,-0.60462 -3.64268,-1.81721 -3.99283,-3.02564 -1.13912,-3.93137 l 2.01452,-0.63938 -0.57354,-0.92801 c -0.31544,-0.5104 -1.28487,-0.928 -2.15427,-0.928 h -1.58074 l -1.27875,1.74879 -1.27875,1.74879 -0.73547,-2.99879 c -0.4045,-1.64933 -1.00368,-3.22379 -1.33149,-3.49879 -1.18739,-0.99608 -4.03145,-6.73125 -3.56789,-7.19481 0.26149,-0.26149 -0.21244,-2.68713 -1.05317,-5.39031 -0.84074,-2.70319 -2.41553,-9.12199 -3.49954,-14.26402 l -1.97093,-9.34913 0.65862,-1.06566 0.65862,-1.06567 2.61126,7.9148 c 1.4362,4.35314 2.98387,8.50724 3.43927,9.23133 0.4554,0.72409 0.59624,1.5483 0.31297,1.83156 -0.28327,0.28327 0.12167,2.03888 0.89987,3.90135 0.77819,1.86248 1.41489,4.75078 1.41489,6.41844 v 3.03212 h 1 1 v 2 2 h 1.62244 1.62245 l -1.12336,-1.35357 -1.12337,-1.35357 0.0906,-2.39643 c 0.11688,-3.09239 -0.70257,-6.9562 -3.05323,-14.39643 -1.0426,-3.3 -2.20407,-7.575 -2.58105,-9.5 -0.37697,-1.925 -1.05488,-3.9617 -1.50647,-4.52599 l -0.82106,-1.02599 0.29449,-2.68275 c 0.16197,-1.47552 1.0094,-3.77383 1.88316,-5.10737 l 1.58867,-2.42462 0.53473,-7.28665 0.53472,-7.28665 -1.05278,-1.26852 -1.05278,-1.26852 v -5.68941 -5.68942 l -1.1184,-1.79085 -1.11841,-1.79086 1.24294,-1.49765 1.24294,-1.49765 -1.80311,-0.46755 -1.8031,-0.46755 5,0.0202 5,0.0202 -2.11279,0.41539 -2.11279,0.41539 0.48084,7.19843 0.48085,7.19843 0.88194,0.95 0.88195,0.95 0.0596,5.05 c 0.0328,2.7775 0.43046,7.3 0.88372,10.05 l 0.82411,5 -1.88372,2.65437 c -2.4802,3.49488 -2.41484,4.26915 1.18423,14.02741 l 3.06794,8.31822 -0.42927,2.25 -0.42928,2.25 h 0.69285 c 0.61972,0 1.34365,2.33597 3.87382,12.5 l 0.7468,3 2.4546,-0.27998 2.45459,-0.27998 1.75,4.29049 c 0.9625,2.35977 1.75,4.80011 1.75,5.42299 0,0.62288 0.70381,1.40258 1.56401,1.73267 l 1.56402,0.60017 -0.2327,1.75682 c -0.12799,0.96625 0.26529,2.88182 0.87395,4.25682 0.60866,1.375 2.09346,5.875 3.29956,10 1.20609,4.125 2.50295,7.95 2.8819,8.5 0.37895,0.55 1.26842,3.025 1.9766,5.5 0.70817,2.475 1.89815,6.075 2.64439,8 1.37435,3.5453 1.76146,5.48487 1.54675,7.75 l -0.11849,1.24996 -1.25,-0.0789 c -0.6875,-0.0434 -1.82453,-0.30993 -2.52674,-0.59224 z m 6.32617,-1.57881 c -0.21328,-0.6875 -0.60187,-4.01158 -0.86352,-7.38684 l -0.47573,-6.13684 -3.18716,-6.67809 -3.18716,-6.6781 0.52263,-1.36195 0.52263,-1.36195 -1.44056,-1.19556 -1.44056,-1.19556 -0.0354,-2.12755 c -0.0195,-1.17016 -0.64589,-3.22989 -1.39201,-4.57718 l -1.35658,-2.44961 0.45919,-1.19663 0.45919,-1.19663 -2.25684,-1.58075 -2.25685,-1.58076 0.74405,-0.74404 0.74404,-0.74404 0.89121,1.44208 0.89125,1.44208 0.72255,-0.72255 0.72255,-0.72254 -1.11781,-2.2485 c -1.26902,-2.55265 -4.21854,-11.39363 -4.21854,-12.64477 v -0.82638 l 2.5,0.47791 2.5,0.4779 -0.0439,-2.86657 c -0.0241,-1.57662 -0.73352,-4.66658 -1.57641,-6.86658 -2.25659,-5.88983 -5.37969,-17.53552 -5.37969,-20.06025 0,-1.20752 -0.68104,-3.82546 -1.51342,-5.81763 l -1.51342,-3.62212 h -4.38079 -4.3808 l 0.0351,-2.25 c 0.0413,-2.64787 -1.09691,-22.17159 -1.68943,-28.97762 -0.22637,-2.60019 -0.69592,-5.18769 -1.04345,-5.75 l -0.63182,-1.02238 h 3.85463 3.85463 l 0.25241,3.74803 c 0.13883,2.06142 0.65775,4.15336 1.15315,4.64876 l 0.90072,0.90072 -1.55299,3.00316 -1.553,3.00316 1.60424,0.89777 1.60424,0.89778 v 3.36852 c 0,1.85269 0.27314,4.08033 0.60699,4.95031 l 0.60699,1.58179 h 2.39301 2.39301 l 2,2 c 1.1,1.1 2.3634,2 2.80755,2 0.96097,0 4.19245,7.04192 4.19245,9.13602 0,0.80519 0.47171,1.93569 1.04825,2.51223 0.57654,0.57654 1.17275,2.12904 1.32493,3.45 0.15218,1.32096 0.81013,3.68083 1.46213,5.24414 1.95751,4.6936 4.4144,17.75655 4.54359,24.15761 l 0.1211,6 -2.75,3.98213 -2.75,3.98214 v 2.20885 2.20885 l 1.04856,0.64804 1.04856,0.64805 -1.17101,1.41097 -1.171,1.41097 h 1.0492 c 1.24292,0 4.19569,5.59749 4.19569,7.95364 0,0.9055 0.47834,2.1247 1.06299,2.70935 l 1.06299,1.06299 0.0892,3.13701 0.0892,3.13701 h 0.84782 c 0.4663,0 0.84782,0.69382 0.84782,1.54181 0,0.848 0.9,2.50785 2,3.68856 l 2,2.14675 0.15844,4.06144 c 0.0871,2.23379 0.0754,4.94489 -0.026,6.02465 l -0.18444,1.96321 -2.14832,2.28679 c -2.36739,2.51998 -4.65027,2.97078 -5.25027,1.03679 z m -4.60904,-63.19113 c -0.067,-3.43981 -1.0195,-8.78432 -3.39654,-19.05887 -0.89071,-3.85 -1.6617,-8.35 -1.71332,-10 -0.0516,-1.65 -0.40711,-3.45 -0.78999,-4 -0.38288,-0.55 -1.46018,-3.025 -2.39399,-5.5 l -1.69784,-4.5 -2.56175,-1.86261 -2.56175,-1.8626 -1.08548,1.08548 -1.08548,1.08548 1.2397,2.27712 c 0.68183,1.25242 2.10892,3.85213 3.17132,5.77713 l 1.93162,3.5 0.002,3.34965 c 8.5e-4,1.84231 1.17854,7.69231 2.61709,13 3.40927,12.57887 4.4356,16.96201 4.18934,17.89132 -0.11062,0.41747 0.17005,1.85565 0.62372,3.19597 l 0.82484,2.43694 1.37328,-1.87807 1.37328,-1.87807 -0.0596,-3.05887 z m -586.44039,-33.0008 c -4.70029,-1.24331 -6.5,-2.27708 -6.5,-3.73366 v -1.05756 l 2.75,0.70152 c 3.72963,0.95143 13.52449,0.74337 20.23617,-0.42984 3.03261,-0.53011 9.56383,-1.26496 14.51383,-1.633 l 9,-0.66917 2,-0.98497 c 1.1,-0.54174 3.9125,-2.82611 6.25,-5.07639 l 4.25,-4.09142 v 3.20821 3.20821 h -1 -1 v 1.47695 1.47694 l -2.40551,1.57616 c -1.32303,0.86688 -5.73448,2.36927 -9.80322,3.33864 l -7.39771,1.7625 -2.7304,-0.91014 -2.7304,-0.91013 -1.37735,1.1431 -1.37735,1.1431 -0.59003,-0.95468 -0.59002,-0.95468 -2.24901,0.55055 c -1.23695,0.30281 -2.699,0.86233 -3.249,1.24339 -0.55,0.38105 -2.8,0.59902 -5,0.48437 -2.2,-0.11466 -4.675,0.0972 -5.5,0.4708 l -1.5,0.67927 z m 679.28663,-0.10477 c -0.34357,-0.34357 -4.38735,-0.77484 -18.62527,-1.98636 l -4.33864,-0.36918 -1.39838,-1.16055 -1.39837,-1.16054 -2.35745,0.59168 -2.35744,0.59168 -1.9511,-2.23002 c -1.0731,-1.2265 -2.56877,-3.46683 -3.32371,-4.9785 l -1.37262,-2.7485 0.57687,-0.57686 0.57687,-0.57687 0.59563,1.82536 0.59564,1.82536 3.59763,2.32603 3.59764,2.32604 13.14803,0.99484 c 7.23142,0.54717 16.9285,1.07546 21.54906,1.17397 l 8.40102,0.17912 0.36359,-1.04383 0.36359,-1.04383 -3.33561,-1.20617 c -1.83458,-0.66339 -4.54116,-1.20617 -6.01461,-1.20617 h -2.679 v -1.13084 -1.13084 l 3.55409,0.57675 3.5541,0.57674 1.99706,-1.99706 1.99705,-1.99705 1.79395,0.56937 1.79394,0.56938 19.90491,-1.0658 c 27.14695,-1.45356 32.39755,-1.84807 33.47728,-2.51538 l 0.92762,-0.5733 v -2.44099 -2.44098 l -3.75,-0.11842 c -2.0625,-0.0651 -4.12795,-0.0516 -4.58989,0.03 -0.46195,0.0816 -5.18695,0.32089 -10.5,0.53172 -5.31306,0.21084 -15.62261,0.7108 -22.91011,1.11104 l -13.25,0.7277 v -1.141 -1.141 h 1.525 1.525 l 0.60709,-3.03545 0.60709,-3.03545 1.69665,1.53545 c 2.79317,2.52779 3.10131,1.7551 0.83315,-2.08916 l -2.13858,-3.62461 -1.33101,1.82026 -1.331,1.82026 -9.7467,-0.0169 -9.74669,-0.0169 -3.5,-1.1686 -3.5,-1.16859 -9.84028,-0.47142 -9.84027,-0.47142 1.23277,1.48541 1.23278,1.4854 -0.7794,0.72584 -0.77941,0.72583 -0.44643,-1.25 -0.44643,-1.25 h -2.22553 -2.22554 l -1.94113,-1.4682 c -1.06762,-0.8075 -2.50584,-1.4825 -3.19603,-1.5 -0.6902,-0.0175 -3.58692,-1.1568 -6.43716,-2.5318 -2.85023,-1.375 -5.81752,-2.5 -6.59396,-2.5 -0.77645,0 -2.82973,-0.65811 -4.56285,-1.46247 -1.73312,-0.80435 -5.40113,-1.88702 -8.15113,-2.40592 l -5,-0.94345 11.75,0.008 11.75,0.008 v 1.39809 1.3981 h 1.94098 c 1.06754,0 2.2191,0.45 2.55902,1 l 0.61803,1 h 3.44099 3.44098 v -0.78439 c 0,-0.43142 1.3575,-1.58629 3.01667,-2.56639 l 3.01668,-1.78199 15.9114,0.30098 15.91141,0.30097 -0.52882,2.64413 -0.52883,2.64413 1.18788,0.73415 1.18787,0.73415 1.11287,-1.11287 1.11287,-1.11321 h -1.2 c -0.66,0 -1.2,-0.45363 -1.2,-1.00808 v -1.00807 l 4.75,0.0924 c 2.6125,0.0508 5.9875,0.55905 7.5,1.1294 l 2.75,1.03699 v 1.31129 1.31129 l 1.93822,0.61517 1.93821,0.61517 1.21341,3.70222 c 0.66738,2.03622 1.87193,4.71472 2.67679,5.95222 l 1.46339,2.25 h 3.81989 c 2.10094,0 5.00088,-0.44901 6.44431,-0.9978 l 2.62441,-0.9978 10.19069,-0.17804 10.19068,-0.17804 0.6699,-1.00357 c 0.36845,-0.55197 2.93325,-1.58281 5.69956,-2.29076 2.76631,-0.70795 5.83985,-1.94958 6.83009,-2.75919 0.99025,-0.8096 4.16295,-3.3101 7.05045,-5.55666 2.8875,-2.24655 5.25,-4.58535 5.25,-5.19732 v -1.11267 l -4.5,0.6168 -4.5,0.61679 v -0.98087 -0.98087 l 9.75,0.0304 9.75,0.0304 -2,1.13105 c -1.1,0.62207 -4.025,3.19589 -6.5,5.71959 -2.475,2.5237 -5.85,5.33383 -7.5,6.24474 l -3,1.6562 -0.9568,3.0938 -0.95679,3.0938 h -3.29321 -3.2932 v 2 2 h 3.61663 3.61663 l -0.60297,2.25 c -0.33164,1.2375 -0.60913,2.7649 -0.61664,3.39421 l -0.0136,1.14422 -2.25,0.003 c -1.2375,0.001 -4.275,0.25667 -6.75,0.56724 -8.84533,1.10994 -34.12049,2.83402 -39.24104,2.67672 l -3.74103,-0.11492 -2.25897,1.16536 c -1.24243,0.64094 -3.46654,2.45395 -4.94247,4.0289 l -2.68352,2.86355 -8.98094,-0.07 c -4.93951,-0.0385 -9.15394,-0.24305 -9.3654,-0.4545 z m 84.60226,-2.63309 c -0.29684,-0.48029 -1.24659,-0.74882 -2.11055,-0.59673 l -1.57085,0.27652 -0.35621,-1.0074 -0.35621,-1.0074 4.59445,0.36541 4.59446,0.36541 1.10801,-1.10801 c 0.60941,-0.60941 1.7461,-1.10801 2.52599,-1.10801 1.48607,0 3.85248,-1.91946 16.18202,-13.12566 4.125,-3.74918 9.67244,-8.57239 12.32765,-10.71824 l 4.82765,-3.90155 1.45162,-2.79801 1.45162,-2.798 -1.12462,-1.07927 -1.12463,-1.07927 -1.49157,2.19721 c -2.62813,3.87147 -4.72703,5.83909 -8.65885,8.11726 -4.86912,2.82125 -10.33891,7.22971 -17.46901,14.0794 -5.44593,5.23176 -10.77727,9.09474 -12.5623,9.10239 l -0.87245,0.004 1.24489,-1.5 c 0.68469,-0.825 1.89604,-1.5 2.69189,-1.5 h 1.44699 l 9.86112,-10 c 5.42361,-5.5 10.27262,-10 10.77557,-10 0.50295,0 1.72894,-0.9 2.72443,-2 0.99549,-1.1 2.24995,-2 2.78769,-2 0.53775,0 1.83306,-0.98622 2.87848,-2.1916 l 1.90076,-2.19159 -0.50208,-1.30841 -0.50208,-1.3084 h 6.3575 6.35753 l -0.1389,1.75 c -0.076,0.9625 -0.5889,2.07252 -1.1389,2.46672 -0.55,0.3942 -1.0211,1.2942 -1.0469,2 -0.026,0.7058 -0.69653,2.29578 -1.49054,3.53328 l -1.44365,2.25 h -1.59048 -1.59047 l -1.40153,2.75 c -0.77083,1.5125 -2.53202,3.65 -3.91374,4.75 -1.38172,1.1 -3.86457,3.36151 -5.51745,5.02557 -1.65288,1.66406 -4.35524,3.9837 -6.00524,5.15476 -1.65,1.17106 -4.95458,3.94178 -7.34352,6.15716 l -4.34352,4.02797 -1.40648,-0.53972 -1.40648,-0.53972 -2.5e-4,0.85699 -2.5e-4,0.85699 -4.53546,0.0967 -4.53545,0.0967 -0.5397,-0.87326 z m -769.77288,-4.53753 -0.69996,-0.69997 -11.14982,-0.11675 -11.14983,-0.11675 -0.38887,-1.16661 -0.38887,-1.16662 -1.98325,1.0614 -1.98325,1.06141 -1.21962,-1.01219 -1.21962,-1.0122 -1.46646,0.92062 -1.46646,0.92061 -7.49924,-0.56039 c -4.12459,-0.30822 -7.64879,-0.70994 -7.83157,-0.89271 -0.18277,-0.18278 -1.87061,0.31042 -3.75075,1.096 l -3.41844,1.42831 v -0.99437 -0.99437 l -2.55964,-0.64243 -2.55965,-0.64243 0.51597,-1.34459 0.51597,-1.3446 -0.95632,-0.59104 c -0.52598,-0.32508 -0.95633,-1.29197 -0.95633,-2.14866 v -1.55761 l 2.25,0.73935 c 2.82056,0.92684 17.8826,2.14137 36.75,2.96334 7.975,0.34744 17.36927,0.81558 20.87616,1.04033 l 6.37617,0.40862 1.70257,1.54081 1.70258,1.54081 2.92126,0.0997 2.92126,0.0997 -2.5,0.76085 -2.5,0.76085 -2.74752,-0.48503 -2.74752,-0.48504 -1.34449,1.11583 -1.34449,1.11583 -0.69997,-0.69997 z m 653.38399,-7.27497 c 0,-1.29866 -5.99375,-6.5798 -7.10801,-6.26291 -0.47342,0.13463 -2.33029,-0.65118 -4.12638,-1.74627 l -3.26561,-1.99105 -2.69098,-0.004 -2.69099,-0.004 -0.61803,-1 c -0.33992,-0.55 -1.49148,-1 -2.55902,-1 h -1.94098 v -1.51905 -1.51905 l -2.39091,0.60008 -2.3909,0.60007 -0.66811,-1.08102 c -0.36746,-0.59457 -1.47242,-1.08103 -2.45546,-1.08103 -0.98304,0 -3.20648,-0.70796 -4.94098,-1.57324 l -3.15364,-1.57324 -0.116,-2.17676 -0.116,-2.17676 -0.45733,1.75 c -0.54774,2.09599 -2.16376,2.29643 -2.90664,0.36051 l -0.5332,-1.38949 -1.93541,0.50612 -1.93542,0.50612 v -1.58524 -1.58525 l -1.25206,0.48046 -1.25205,0.48046 -1.25642,-2.01185 -1.25642,-2.01184 8.75848,0.11831 8.75847,0.11832 -3,0.67971 -3,0.67971 3,1.56826 c 1.65,0.86255 4.8,2.11725 7,2.78822 2.2,0.67098 5.575,1.93346 7.5,2.80552 5.11174,2.31571 13.16374,5.36431 15.72451,5.95352 1.22348,0.28151 3.36098,1.56508 4.75,2.85239 1.38902,1.2873 2.52549,1.97163 2.52549,1.52074 v -0.8198 l 3.8525,0.21737 c 6.66024,0.3758 8.068,2.35435 3.02856,4.25652 l -3.11894,1.17727 0.63799,2.54197 0.63799,2.54197 h -1.51905 -1.51905 z m -604.36824,-3.44696 c -0.89747,-1.36971 -1.63176,-3.32114 -1.63176,-4.33652 v -1.84613 l 5.15065,-1.32007 c 2.83285,-0.72604 7.99797,-2.61111 11.47804,-4.18905 3.48007,-1.57794 6.97581,-2.86898 7.76831,-2.86898 0.79251,0 2.71489,-0.65366 4.27196,-1.45257 1.55707,-0.79892 5.53104,-2.46385 8.83104,-3.69985 3.3,-1.23599 6.4275,-2.60733 6.95,-3.04742 l 0.95,-0.80016 h -6.83398 -6.83398 l -3.94462,1.18184 -3.94462,1.18183 -0.90609,-1.43183 -0.90608,-1.43184 -0.0153,1.63342 -0.0153,1.63343 -2.75,0.52827 c -3.34398,0.64237 -3.6138,0.42646 -2.77392,-2.21976 l 0.6587,-2.07536 h 21.55505 21.55506 l -1.37245,1.75 c -0.75484,0.9625 -2.04744,2.31121 -2.87244,2.99713 l -1.5,1.24714 -1.68542,-0.38663 -1.68541,-0.38662 -0.5332,1.38949 -0.5332,1.38949 h -1.53139 -1.53138 v 1 1 h -3 -3 v 1 1 h -2.01357 c -1.10746,0 -2.79496,0.3975 -3.75,0.88333 -0.95504,0.48583 -3.08643,1.44604 -4.73643,2.13379 -1.65,0.68776 -3.9,1.63098 -5,2.09604 -1.1,0.46506 -3.21596,1.28553 -4.70213,1.82325 l -2.70214,0.97769 0.55912,-1.45705 0.55913,-1.45705 h -1.49036 -1.49036 l -0.45885,1.75466 -0.45885,1.75466 -3.90778,2.6453 c -2.14928,1.45491 -4.86099,2.92682 -6.02602,3.27091 l -2.11823,0.62561 -1.63177,-2.49039 z m -48.72339,-0.98571 c -0.46909,-0.4691 -18.38989,-1.51125 -26.65837,-1.55027 l -5.25,-0.0248 v -1.4852 -1.4852 l 10.76852,0.0485 10.76851,0.0485 2.67068,-1.01539 2.67069,-1.01539 1.14129,-2.13253 1.14129,-2.13253 3.38739,-1.41534 3.38739,-1.41534 h 11.09786 11.09786 l 2.04162,-1.09264 2.04162,-1.09264 1.02835,1.02835 1.02836,1.02836 1.42296,-1.42297 1.42297,-1.42296 6.19132,0.0764 6.19132,0.0764 2.8151,-1.08916 c 1.5483,-0.5991 4.1358,-1.08922 5.75,-1.08922 h 2.9349 v -1.12244 -1.12245 l 1.5,1.24489 c 2.15079,1.785 1.90014,2.34212 -1.75,3.88973 -1.7875,0.75787 -4.69689,2.03658 -6.46531,2.84159 l -3.2153,1.46364 -8.7847,0.30695 c -4.83158,0.16883 -15.25425,0.79222 -23.16149,1.38532 l -14.37681,1.07836 -1.37319,1.13965 -1.3732,1.13965 v 1.87755 1.87756 h 0.89301 c 0.49116,0 1.15203,0.675 1.46862,1.5 l 0.5756,1.5 h -1.30195 c -0.71607,0 -1.49318,-0.19123 -1.72691,-0.42496 z m -52.27704,-3.27705 c -0.38611,-0.3861 -2.26111,-0.597 -4.16667,-0.46867 l -3.46466,0.23333 v -1.47479 -1.47479 l -3,-1.77214 c -1.65,-0.97468 -3,-2.12512 -3,-2.55654 0,-0.43141 -0.675,-0.78439 -1.5,-0.78439 h -1.5 v -1.46862 -1.46861 l -1.25,0.42521 -1.25,0.42522 -3,-3.9103 c -1.65,-2.15066 -3.53594,-3.93113 -4.19098,-3.9566 -0.65504,-0.0255 -1.4691,-0.4963 -1.80902,-1.0463 l -0.618028,-1 h 9.991628 9.99162 l 0.56087,1.75 0.56086,1.75 4.48454,3 c 2.4665,1.65 4.54634,3.45 4.62188,4 0.0755,0.55 0.19792,1.52018 0.27198,2.15595 0.0741,0.63577 1.37215,2.13093 2.88465,3.32258 l 2.75,2.16663 v 1.42742 1.42742 h -3.33333 c -1.83334,0 -3.64924,-0.3159 -4.03534,-0.70201 z m -96.641444,-82.54043 -3.328325,-2.25756 -2.278524,-4 -2.278524,-4 0.515132,-1.75 0.515132,-1.75 H 23.79091 22.723522 v -1.84258 c 0,-1.01342 -1.53707,-4.95092 -3.41571,-8.75 -1.878641,-3.79908 -4.204234,-8.64617 -5.167984,-10.77131 l -1.752274,-3.86388 0.106107,-4.65827 c 0.05836,-2.56204 0.518099,-5.7733 1.021645,-7.13611 l 0.915538,-2.47785 -0.293657,-6.14906 -0.293657,-6.14906 1.939,-0.50706 1.939,-0.50706 0.687886,1.11302 0.687885,1.11302 0.09626,12.5431 0.09626,12.5431 3.216851,6.64297 3.216851,6.64296 v 2.90704 2.90703 l -1.25,1.33604 -1.25,1.33605 2.25,-0.54243 2.25,-0.54242 v 1.75274 c 0,0.96401 0.707959,3.17188 1.573242,4.90638 l 1.573241,3.15364 h 1.426758 1.426758 v 2.5 2.5 h 1.519052 1.519052 l -0.659728,2.75 c -0.362851,1.5125 -0.749827,2.8659 -0.859948,3.00756 -0.11012,0.14166 -1.697965,-0.75834 -3.528544,-2 z m 997.025394,-8.39255 c -0.01,-0.62424 0.9972,-1.81397 2.2347,-2.64384 3.4506,-2.31401 8.18,-7.26125 9.4387,-9.87353 0.6222,-1.2912 2.1486,-4.59764 3.3921,-7.34764 1.2436,-2.75 3.5832,-6.95242 5.1992,-9.33871 1.616,-2.38629 4.015,-7.0866 5.3312,-10.44515 l 2.3931,-6.10644 -0.2521,-4.97134 -0.2522,-4.97133 1.1651,-0.38856 1.1652,-0.38856 0.6494,2.04609 0.6494,2.0461 -0.5809,0.93985 -0.5808,0.93985 1.0163,0.62812 1.0163,0.62811 v 3.74099 3.74098 l -1.1611,1.16109 c -0.6386,0.6386 -1.287,2.34198 -1.4409,3.78529 -0.1538,1.44331 -1.0939,3.77394 -2.0889,5.17918 -0.995,1.40523 -2.1514,3.05435 -2.5699,3.66471 -0.4184,0.61035 -1.4492,2.68473 -2.2906,4.60973 -0.8414,1.925 -2.6189,5.3 -3.9499,7.5 -1.331,2.2 -2.9318,5.2375 -3.5572,6.75 l -1.1372,2.75 h -1.4021 -1.4022 v 1.07143 c 0,1.56132 -2.6183,3.92857 -4.3452,3.92857 -0.8185,0 -1.7164,0.5625 -1.9953,1.25 l -0.5072,1.25 -1.0762,-1.5 -1.0761,-1.5 -0.9847,1.5 -0.9847,1.5 -0.015,-1.13499 z m -17.8508,-13.84698 0.087,-7.48198 1.3742,-1.14047 c 0.7558,-0.62726 1.3742,-1.56679 1.3742,-2.08785 0,-0.52106 1.2877,-2.82846 2.8616,-5.12755 1.5739,-2.2991 4.8219,-8.64423 7.2178,-14.10028 l 4.356,-9.9201 4.7823,-4.78228 4.7823,-4.78228 v -1.34762 c 0,-0.74119 0.3576,-1.77512 0.7946,-2.29762 1.2372,-1.47915 4.0571,-11.43943 4.7214,-16.67669 0.3298,-2.59968 0.9654,-4.95282 1.4126,-5.22919 l 0.8131,-0.50251 -0.2809,-7.7708 -0.281,-7.77081 -1.5089,-5.64922 -1.509,-5.64921 0.8539,-6.85079 c 0.4696,-3.76793 0.851,-12.54847 0.8476,-19.51231 l -0.01,-12.66153 1.5634,-3.02319 1.5633,-3.02319 -0.8565,-2.31528 -0.8565,-2.31528 0.9835,-2.15857 0.9834,-2.15856 -1.6188,-3.24507 -1.6189,-3.24508 v -3.67969 c 0,-2.02383 -0.3012,-3.98085 -0.6692,-4.34892 -0.3681,-0.36808 -0.8274,-2.21077 -1.0207,-4.09489 l -0.3514,-3.42565 1.0541,-0.65151 1.0542,-0.65151 -2.3367,-1.83804 -2.3367,-1.83804 -3.6266,-0.68035 -3.6266,-0.68036 -3.0702,-2.74108 c -1.6886,-1.50759 -3.0702,-3.21529 -3.0702,-3.79489 0,-0.5796 -0.7227,-1.33115 -1.6061,-1.67012 l -1.606,-0.61631 0.5964,-2.37626 0.5964,-2.37626 -1.4564,-1.20865 -1.4563,-1.20865 0.1314,-3.49455 0.1313,-3.49455 -1.0227,-0.66122 c -0.5625,-0.36367 -1.6191,-3.13622 -2.3479,-6.16122 -0.7288,-3.025 -1.693,-5.9275 -2.1426,-6.45 l -0.8137,-0.95 0.1336,-6.55 0.1336,-6.55 0.6762,4.87431 0.6761,4.87431 1.534,1.12569 1.5341,1.12569 0.7015,3.75 0.7015,3.75 h 1.4547 c 1.8743,0 1.8408,-0.47066 -0.5091,-7.15668 l -1.9638,-5.58737 0.066,-5.56068 0.066,-5.56068 3.2979,-3.001 3.2979,-3.001 3.8495,-0.31629 3.8495,-0.3163 -0.2494,-2.31332 -0.2495,-2.31331 3.1725,0.31331 3.1724,0.31332 0.4103,1.25 0.4104,1.25 h -1.5834 -1.5833 v 1 c 0,0.55 0.5908,1 1.3129,1 0.7221,0 2.4758,1.2375 3.897,2.75 l 2.5841,2.75 0.789,4.5 c 0.434,2.475 0.6814,5.08078 0.5499,5.79063 -0.1316,0.70985 1.1347,4.19855 2.8139,7.75267 1.6793,3.55412 3.0532,7.26071 3.0532,8.23686 0,0.97616 0.7008,2.77531 1.5573,3.99813 l 1.5572,2.2233 0.312,8.24921 c 0.1716,4.53706 0.8453,11.3992 1.497,15.2492 0.6517,3.85 1.3062,8.6021 1.4544,10.56022 0.1482,1.95811 0.533,3.98654 0.855,4.50761 0.322,0.52107 0.9106,2.74397 1.3079,4.93979 0.3974,2.19581 1.2172,4.89238 1.8219,5.99238 0.6048,1.1 1.1552,2.70614 1.2232,3.56921 0.068,0.86306 0.4344,3.22556 0.8142,5.25 l 0.6905,3.68079 h 1.0832 1.0833 l -0.7918,12.25 c -0.4356,6.7375 -0.7184,16.4125 -0.6286,21.5 l 0.1641,9.25 h -0.893 c -1.705,0 -2.0873,-3.18713 -2.0431,-17.03088 l 0.044,-13.91803 0.9622,-0.59464 0.9621,-0.59465 -0.7399,-1.1809 c -0.7508,-1.19845 -0.8686,-1.71944 -1.1404,-5.0444 l -0.1519,-1.8635 -2.8784,0.42246 -2.8784,0.42247 -0.5166,-6.43504 -0.5165,-6.43503 -0.9143,-0.62393 -0.9142,-0.62393 -1.7518,-9.24678 -1.7518,-9.24679 0.6471,-1.04702 0.6471,-1.04702 -1.201,-1.44711 -1.201,-1.44711 0.6558,-4.37321 0.6558,-4.3732 -1.0446,-6.53881 -1.0446,-6.53882 0.8697,-2.34706 0.8697,-2.34707 -1.3291,-3.77102 c -0.7309,-2.07406 -1.9946,-5.22406 -2.8081,-7 -2.2835,-4.98533 -5.5948,-15.80623 -5.5948,-18.28335 v -2.22406 l -1.7602,-2.17378 -1.7602,-2.17378 -4.098,-0.54965 -4.0979,-0.54965 -3.2742,2.92553 -3.2743,2.92553 1.2552,3.93712 c 0.6903,2.16541 1.6499,4.7185 2.1324,5.67354 0.4824,0.95504 0.8772,2.33302 0.8772,3.06217 0,0.72916 0.8411,3.09776 1.869,5.26357 1.028,2.16581 2.3977,6.41283 3.0439,9.43783 0.6462,3.025 1.6772,7.1875 2.2911,9.25 l 1.1161,3.75 2.09,0.0153 c 1.1494,0.008 2.7649,0.45153 3.5899,0.98469 l 1.5,0.96937 -1.25,0.0153 c -0.6875,0.008 -1.25,0.46534 -1.25,1.01534 v 1 h 1.5352 1.5352 l -1.1143,2.08196 -1.1142,2.08195 1.7318,1.26634 1.7319,1.26634 -0.6471,1.04692 -0.647,1.04692 1.4391,0.55223 1.4391,0.55223 0.5611,3.30255 c 0.3087,1.81641 0.7477,4.87756 0.9757,6.80256 0.2281,1.925 1.0806,7.37197 1.8946,12.10437 l 1.4801,8.60438 1.2457,1.99469 1.2457,1.9947 -0.6654,2.65093 -0.6653,2.65093 h -2.4136 -2.4135 l -0.6116,1.92695 c -0.3364,1.05982 -0.5647,6.57232 -0.5073,12.25 0.057,5.67768 -0.089,14.14279 -0.3258,18.81137 l -0.4301,8.48832 1.0219,2.24262 1.0218,2.24263 2.3481,-0.58935 2.3482,-0.58936 v 2.1398 2.13979 l -1.5962,0.61253 -1.5962,0.61252 0.6348,3.10609 0.6349,3.10609 -2.1139,10 c -1.1626,5.5 -2.9357,12.25 -3.9402,15 -1.0045,2.75 -2.4151,8.51527 -3.1348,12.81172 l -1.3084,7.81172 -1.9517,-0.51038 -1.9516,-0.51038 -1.6845,0.9015 -1.6845,0.90149 -1.7984,4.79716 c -2.755,7.34913 -9.3558,21.10816 -12.1574,25.34166 l -2.5096,3.79226 1.0937,2.04357 1.0936,2.04358 -3.2648,4.47615 c -1.7956,2.46189 -3.5849,4.50401 -3.9761,4.53805 l -0.7113,0.0619 0.087,-7.48197 z m 29.8355,-14.42196 c 0,-0.49717 1.48,-3.53467 3.2889,-6.75 1.8089,-3.21534 3.8851,-7.30049 4.6139,-9.07811 l 1.325,-3.23204 -0.5825,-1.51796 -0.5825,-1.51796 h -1.6365 -1.6364 l 0.5176,-3.75 c 0.2846,-2.0625 1.2385,-6.225 2.1196,-9.25 0.8812,-3.025 1.8417,-7.975 2.1344,-11 0.6352,-6.56528 2.4559,-14.06161 6.64,-27.33934 l 3.1005,-9.83934 1.599,-0.58772 c 0.8795,-0.32324 1.912,-1.05751 2.2946,-1.6317 l 0.6957,-1.04398 0.7411,0.74119 0.7412,0.74118 -1.7807,6.72986 c -0.9794,3.70142 -1.7407,8.16718 -1.6918,9.92392 l 0.089,3.19407 -0.995,0.61495 c -0.5472,0.33822 -0.995,1.48839 -0.995,2.55593 v 1.94098 h -1.5 -1.5 v 1.41667 c 0,0.77916 0.5625,1.6449 1.25,1.92387 l 1.25,0.5072 -1.3853,0.9688 -1.3854,0.96879 0.639,2.54605 0.639,2.54605 -0.9608,0.59384 -0.9609,0.59385 0.031,2.71744 c 0.017,1.49459 -0.288,4.06744 -0.6775,5.71744 -0.3895,1.65 -0.6858,4.7971 -0.6585,6.99356 l 0.05,3.99356 -0.9296,0.5745 c -0.5113,0.31598 -1.4281,3.24388 -2.0373,6.50644 -1.1651,6.23871 -3.8713,13.40102 -5.0708,13.42047 -0.3894,0.006 -1.8946,2.03647 -3.3451,4.51147 -2.6179,4.4672 -3.4471,5.3322 -3.4471,3.59607 z M 23.91788,329.87086 c -0.121953,-20.78047 -0.846176,-38.29523 -1.757346,-42.5 l -0.595923,-2.75 1.329456,0.0316 c 0.7312,0.0174 2.530796,1.08969 3.999102,2.38292 l 2.669646,2.35131 0.254386,4.86709 0.254386,4.86708 -1.104257,2.05388 -1.104257,2.05388 0.941305,1.44612 0.941305,1.44612 -0.05436,6.5 c -0.0299,3.575 0.220745,10.1 0.556983,14.5 l 0.611342,8 1.507982,4.23255 1.507983,4.23256 -2.826046,2.48584 -2.826045,2.48585 -2.097803,0.0316 -2.097803,0.0316 z m -10.418862,-16.5 c -0.241166,-0.6875 -0.553089,-3.71454 -0.693164,-6.72676 -0.140074,-3.01222 -0.619372,-6.16222 -1.065106,-7 -0.445734,-0.83778 -1.387783,-4.96954 -2.093444,-9.18169 l -1.2830181,-7.65845 1.1515711,-5.34155 c 1.620234,-7.51543 3.625688,-24.34215 4.106935,-34.45913 l 0.10073,-2.11759 4.5,-6.71067 4.5,-6.71068 v -2.92174 -2.92174 h 1 1 v -1.7 -1.7 l 1.241641,1.24164 1.241641,1.24164 -1.369757,0.84656 -1.369756,0.84655 0.644428,1.04271 0.644427,1.0427 -1.011315,0.62503 -1.011314,0.62503 0.03806,3.19407 c 0.02093,1.75674 -0.253084,4.86046 -0.608927,6.89716 l -0.646986,3.70308 -2.283462,1.49619 -2.283462,1.49618 -0.834023,11.30073 c -0.458713,6.2154 -0.76041,11.97573 -0.670437,12.80073 0.08997,0.825 -0.485391,3.42823 -1.278586,5.78495 l -1.442172,4.28494 v 3.79839 c 0,2.08911 0.265538,4.06392 0.590085,4.38847 0.324547,0.32455 0.811776,7.14955 1.082731,15.16667 l 0.492647,14.57658 h -0.975743 c -0.536658,0 -1.173059,-0.5625 -1.414224,-1.25 z m 19.224504,-14.66669 c 0,-0.50544 1.188964,-3.28616 2.642142,-6.17937 l 2.642143,-5.26039 1.861185,-14.57178 c 1.023652,-8.01447 2.144037,-17.76018 2.489745,-21.65713 l 0.628559,-7.08537 -1.231552,-3.73164 c -0.677353,-2.0524 -0.985951,-3.97723 -0.685774,-4.27741 0.879155,-0.87916 4.587623,5.86725 5.320928,9.67978 l 0.673193,3.5 -2.159263,17.5 c -1.187594,9.625 -2.700289,19.22192 -3.361543,21.3265 l -1.202281,3.82649 -3.808741,3.92465 c -2.094807,2.15856 -3.808741,3.51111 -3.808741,3.00567 z M 1066.7235,287.17802 c 0,-0.24356 0.933,-2.024 2.0732,-3.95652 l 2.0731,-3.51369 -0.238,-7.29347 c -0.131,-4.01142 -0.1481,-14.71848 -0.038,-23.79348 l 0.1999,-16.5 -0.9856,-4 -0.9856,-4 -2.1602,-1.75 -2.1602,-1.75 h 2.0341 2.0341 l 3.0768,2.58889 3.0767,2.5889 v 2.85209 2.85209 l 0.859,0.53091 0.8591,0.53092 0.1325,22.53658 0.1324,22.53658 -1.9915,1.99152 c -1.0953,1.09534 -1.9915,2.39338 -1.9915,2.88453 0,0.49116 -0.675,1.15203 -1.5,1.46862 l -1.5,0.5756 v 1.53139 1.53138 h -1.5 c -0.825,0 -1.5001,-0.19928 -1.5001,-0.44284 z M 32.834101,264.57086 l -0.110579,-5.55 0.873136,-0.95 c 0.480225,-0.5225 1.113042,-3.44382 1.40626,-6.49181 l 0.533125,-5.54181 -0.955951,-1.70819 -0.95595,-1.70819 h -2.95031 -2.95031 v -1.04966 c 0,-0.57731 0.628201,-2.26481 1.396003,-3.75 0.767802,-1.48519 2.766194,-6.75034 4.440872,-11.70034 1.674678,-4.95 3.700559,-10.575 4.501957,-12.5 0.801398,-1.925 2.893693,-8.9 4.649545,-15.5 1.755851,-6.6 3.577918,-12.40365 4.049036,-12.897 l 0.856578,-0.89699 2.151781,3.64699 c 1.183479,2.00585 2.557331,3.647 3.053004,3.647 1.524185,0 1.002661,1.89856 -1.098776,4 l -2,2 v 2.11663 2.11663 l 2,-0.52301 2,-0.52301 v 1.40638 1.40638 h -2.7641 -2.7641 l -1.694703,3.91177 c -0.932087,2.15147 -1.988093,5.08072 -2.34668,6.50945 -0.358587,1.42872 -1.052125,2.84498 -1.541196,3.14725 l -0.889221,0.54956 v 2.89393 c 0,3.44839 -1.692657,7.70219 -4.205002,10.56756 l -1.823316,2.07953 0.09672,5.42047 c 0.0532,2.98127 0.02904,8.8275 -0.05368,12.99165 l -0.150399,7.57116 -1.321587,5.42884 -1.321587,5.42883 -0.110579,-5.55 z m -0.777475,-67.52433 -0.604126,-1.57432 1.057364,-6.38099 1.057363,-6.38099 2.928334,-5.79468 c 9.699584,-19.19388 11.230551,-22.46472 11.254862,-24.04548 l 0.0269,-1.74921 2.946198,-3.5 2.946198,-3.5 0.0269,5.25979 0.0269,5.25978 -1.876023,1.60631 -1.876022,1.6063 0.511317,1.95528 0.511317,1.95527 -1.947287,2.67864 c -1.071005,1.47325 -3.335731,5.15363 -5.032722,8.17863 l -3.085437,5.5 -2.122244,8 c -3.069485,11.57072 -5.186993,14.99826 -6.749793,10.92567 z M 1059.6668,182.62086 c -0.066,-0.275 -0.25,-3.6899 -0.4087,-7.58867 l -0.2885,-7.08867 -1.3272,-3.91133 c -0.7299,-2.15123 -1.6853,-4.33883 -2.123,-4.86133 -0.4378,-0.5225 -0.7959,-2.40844 -0.7959,-4.19098 v -3.24099 l -0.8866,-0.54797 c -0.4877,-0.30138 -1.1831,-2.12794 -1.5454,-4.05901 l -0.6586,-3.51105 h -1.0313 -1.0313 l 0.2649,-3.25 0.2649,-3.25 -1.338,-2.5 c -0.7359,-1.375 -1.8294,-2.81876 -2.4299,-3.20836 l -1.092,-0.70836 1.1744,-1.17442 1.1745,-1.17443 1.6361,0.62786 1.6362,0.62786 -0.7132,2.24708 -0.7132,2.24709 1.6443,-1.36461 1.6442,-1.3646 v 2.45578 c 0,1.35068 0.3084,2.76418 0.6853,3.14111 1.2427,1.24267 3.2839,8.09287 3.3219,11.148 l 0.037,3 1.9555,2.5 c 2.4294,3.10578 2.4822,3.97253 0.25,4.09968 l -1.75,0.0997 2.4361,0.68031 2.436,0.68032 0.8424,2.97 c 0.4632,1.63351 1.0079,5.10751 1.2104,7.72001 l 0.3681,4.75 h -0.8965 -0.8965 v 2.30887 2.30887 l -1.4682,1.94113 c -0.8075,1.06762 -1.5223,1.71613 -1.5885,1.44113 z M 198.80106,117.05529 c -2.98235,-2.98894 -5.96475,-5.43443 -6.62755,-5.43443 -0.66281,0 -1.7653,-0.675 -2.44999,-1.5 l -1.24489,-1.5 h -1.90894 -1.90894 l -0.5332,-1.38949 -0.5332,-1.38949 -1.82255,0.47661 -1.82256,0.47661 -0.67188,-1.08712 c -0.91693,-1.48363 -2.55384,-1.37317 -2.55384,0.17233 0,1.81216 2.93321,3.38452 7.86956,4.21851 l 4.29266,0.72524 -2.69542,1.3984 c -3.28127,1.70235 -5.57155,1.76343 -8.91975,0.23788 l -2.54705,-1.16051 v -1.33949 -1.33948 h -1.32141 -1.32142 l -5.42858,-5.3309 c -6.94564,-6.820648 -13.92859,-14.674544 -13.92859,-15.665818 0,-0.42351 -0.82197,-0.984968 -1.8266,-1.247685 l -1.8266,-0.477667 -2.05105,-3.935015 c -1.12807,-2.164259 -2.38028,-5.883742 -2.78267,-8.26552 l -0.73164,-4.330505 1.10928,0.685573 1.10928,0.685572 v 2.276613 2.276613 l 6,6.247093 c 3.3,3.435901 6,6.611083 6,7.055962 0,0.444878 1.125,1.091226 2.5,1.436329 l 2.5,0.62746 v 1.241166 c 0,1.402273 4.65374,6.72073 5.88076,6.72073 0.4399,0 1.94703,1.612369 3.34919,3.583039 l 2.54937,3.58304 0.61358,-0.9928 0.61359,-0.9928 -0.61023,-1.59024 -0.61024,-1.59024 h -1.34609 -1.3461 l -1.65795,-3.493879 -1.65795,-3.493871 -4.46152,-4.256125 c -9.72358,-9.275934 -11.16662,-11.532765 -13.27166,-20.756124 -0.90451,-3.963166 -2.8853,-8.985206 -2.98136,-7.55887 l -0.0634,0.941129 -1.4682,-1.941129 c -1.78033,-2.353818 -1.94643,-5.066841 -0.36985,-6.041222 l 1.16195,-0.718126 1.81012,2.235392 1.81011,2.235392 1.02793,-0.6353 1.02794,-0.6353 v 2.470123 2.470124 l 3,2.524333 c 3.52006,2.961932 3.68033,3.941719 1.04623,6.395758 l -1.95377,1.820214 4.95236,5.386818 c 2.7238,2.962749 4.73066,5.608516 4.4597,5.879481 -0.27097,0.270966 0.51717,1.009152 1.75141,1.640416 l 2.24407,1.147751 -0.12571,1.612428 -0.12571,1.612428 1.22298,-0.4693 1.22297,-0.4693 4.79021,6.524625 4.7902,6.524624 2.0683,0.65645 2.0683,0.65645 0.37756,-1.13269 c 0.87172,-2.615169 7.48285,0.45666 14.10746,6.55495 1.98189,1.82444 4.39094,3.5714 5.35344,3.88214 0.9625,0.31074 1.75,0.93334 1.75,1.38355 0,0.45021 1.67438,2.44489 3.72084,4.43261 l 3.72084,3.61405 h 4.01728 4.01728 l -3.73812,-2.65971 c -2.05597,-1.46284 -3.73812,-2.98536 -3.73812,-3.38337 0,-0.39801 -0.9,-0.95901 -2,-1.24667 l -2,-0.52301 v -2.01029 -2.01028 l 1.25,-0.50439 1.25,-0.50439 -1.19098,-0.0789 c -0.65504,-0.0435 -1.4691,0.37101 -1.80902,0.92101 -0.33992,0.55 -1.5218,1 -2.6264,1 h -2.00838 l 0.59345,-1.86979 0.59345,-1.86979 -3.00582,-0.60116 -3.00582,-0.60116 0.55208,-1.43871 0.55208,-1.43871 -2.00804,-0.63733 -2.00805,-0.63733 -0.32426,-1.683739 -0.32426,-1.68375 -2.4023,-0.0193 -2.40231,-0.0193 -0.42104,-1.25 -0.42105,-1.25 h 1.50388 1.50388 l 0.66265,-3.017024 0.66265,-3.017024 -4.79389,-4.232976 c -8.45667,-7.467204 -10.15579,-9.213259 -14.85671,-15.267116 -2.53725,-3.26747 -5.28174,-6.315003 -6.09888,-6.772295 l -1.4857,-0.83144 -2.86681,3.068938 c -3.4628,3.707007 -4.0644,3.799954 -4.0644,0.628024 v -2.440983 l 1,-0.618034 c 0.55,-0.339919 1,-1.182486 1,-1.872371 v -1.254336 l -3.5,-1.373293 -3.5,-1.373293 v -1.918997 -1.918998 l -2.25,-2.716106 c -1.2375,-1.493858 -3.375,-4.21758 -4.75,-6.052716 -1.375,-1.835136 -2.96599,-3.827849 -3.53553,-4.42825 -0.56955,-0.600402 -2.59455,-3.34164 -4.5,-6.09164 -1.90546,-2.75 -6.33213,-8.2625 -9.83704,-12.25 l -6.37257,-7.25 h 3.45521 3.4552 l 3.16737,3.941362 c 1.74205,2.167749 3.16736,4.250708 3.16736,4.628799 0,0.37809 1.4625,2.373944 3.25,4.435229 1.7875,2.061285 4.15,4.924137 5.25,6.361892 2.978,3.892396 5.38027,6.837329 7.87718,9.656599 1.22942,1.388134 2.53337,3.300634 2.89768,4.25 0.3643,0.949365 1.13406,1.726119 1.71058,1.726119 0.57652,0 2.95314,1.913457 5.28138,4.252127 2.32825,2.33867 6.25818,6.134367 8.73318,8.434882 2.475,2.300514 6.075,6.102695 8,8.44929 1.925,2.346595 5.58111,6.538398 8.1247,9.315119 2.54358,2.77672 5.58255,6.946036 6.75327,9.265146 l 2.12856,4.216565 1.93605,1.03614 1.93604,1.03614 0.66359,-1.073704 0.66358,-1.073703 -0.67122,-4.476036 -0.67122,-4.476036 -8.68168,-9.546022 c -4.77492,-5.250313 -9.06042,-10.212898 -9.52333,-11.027968 l -0.84167,-1.481946 0.67775,-0.674997 0.67774,-0.674997 1.82421,2.25 c 1.00332,1.2375 2.31458,2.25 2.91392,2.25 h 1.08971 v 1.531385 1.531385 l 1.5,0.575604 c 0.825,0.316582 1.5,0.917712 1.5,1.335845 0,0.418133 2.9823,3.847088 6.62734,7.6199 l 6.62734,6.859659 -0.54641,7.972043 -0.54642,7.972038 1.66908,1.28207 1.66907,1.28206 -1.5,1.08451 -1.5,1.08451 2.33713,-0.66054 2.33713,-0.66055 1.95182,2.09504 c 1.07351,1.15227 2.43245,2.09504 3.01986,2.09504 h 1.06804 l -0.59554,1.55194 -0.59553,1.55194 1.06476,-0.65806 1.06475,-0.65806 3.86515,3.10612 c 2.12584,1.70837 4.22904,3.13102 4.67379,3.16145 0.44475,0.0304 1.85537,1.38043 3.1347,3 l 2.32606,2.94467 -13.32606,-0.0656 -13.32606,-0.0656 -5.42246,-5.43443 z m 100.47288,2.91043 -0.6664,-2.65515 1.1861,-0.73305 1.18611,-0.73305 -0.76038,-1.23033 c -0.41822,-0.67668 -0.93329,-3.71965 -1.14462,-6.76214 l -0.38424,-5.53182 1.46896,-2.24192 1.46897,-2.241919 11.49662,-3.620844 c 6.32314,-1.991465 11.7711,-4.064949 12.10656,-4.607741 0.33546,-0.542792 1.48338,-0.986895 2.55092,-0.986895 h 1.94098 v 1.97432 1.97432 l -2.95034,1.52568 c -1.62269,0.839124 -3.87269,1.52568 -5,1.52568 h -2.04966 v 0.892281 0.892279 l -7.25,1.74491 c -3.9875,0.959709 -8.0375,2.149009 -9,2.642909 l -1.75,0.89799 v 5.43288 5.43288 l 2.69487,1.41198 2.69487,1.41199 3.05513,-1.01653 c 1.68032,-0.55909 3.48263,-1.40511 4.00513,-1.88005 0.5225,-0.47494 1.91,-0.86352 3.08333,-0.86352 1.17334,0 2.4632,-0.32987 2.86637,-0.73304 0.40317,-0.40317 2.50317,-1.25569 4.66667,-1.8945 l 3.93363,-1.16146 v 1.4195 1.4195 l -2.97757,0.59551 c -1.63767,0.32754 -3.49277,1.21629 -4.12245,1.975 -0.62968,0.75872 -1.75194,1.37949 -2.49391,1.37949 -0.74197,0 -3.94937,1.19355 -7.12756,2.65234 l -5.77851,2.65233 1.8662,0.44337 1.86621,0.44337 6.63379,-2.15712 c 3.64859,-1.18642 7.57267,-2.61612 8.72018,-3.17712 1.1475,-0.561 2.7225,-0.91428 3.5,-0.78507 1.31752,0.21896 4.6917,-1.05586 12.69664,-4.79699 l 3.28301,-1.53433 3.44097,-4.01999 3.44096,-4.01999 0.60735,1.58275 0.60736,1.58274 -2.67636,4.56685 -2.67635,4.56686 -1.65498,0.0222 c -0.91024,0.0123 -2.77998,0.90226 -4.15498,1.9778 l -2.5,1.95553 -2.19098,0.0222 c -1.20504,0.0122 -2.4691,0.47224 -2.80902,1.02224 -0.33992,0.55 -1.60398,1.01431 -2.80902,1.0318 -1.20504,0.0175 -3.06449,0.6925 -4.13211,1.5 l -1.94113,1.4682 H 312.6408 299.94034 l -0.6664,-2.65514 z m 184.50557,0.0171 -2.44402,-2.42705 -1.34384,0.51568 -1.34384,0.51568 -0.59119,-1.54061 -0.59118,-1.54061 -1.2882,0.49433 -1.2882,0.49433 -0.55138,-1.43686 -0.55137,-1.43686 -1.78139,-0.0318 -1.78138,-0.0318 1.77939,-1.34993 1.77939,-1.34993 -1.52939,-0.58688 -1.52939,-0.58688 v 0.96861 c 0,0.53274 -0.3375,0.96511 -0.75,0.96082 -0.98742,-0.0103 -3.25,-4.93163 -3.25,-7.06912 0,-0.923 -0.62149,-2.19398 -1.38108,-2.82438 -2.92757,-2.429669 -20.08292,-5.714131 -27.61892,-5.287756 -1.925,0.108913 -4.91668,-0.04079 -6.64817,-0.332669 l -3.14817,-0.530693 -0.64932,-2.723791 c -0.35712,-1.498084 -0.87597,-3.488285 -1.15299,-4.422668 l -0.50367,-1.698879 2.80116,1.394079 2.80116,1.394078 6.5,0.410645 c 3.575,0.225855 7.175,0.66276 8,0.9709 0.825,0.308141 2.175,0.605077 3,0.659859 5.39839,0.358466 10.83089,1.345656 12.81504,2.328739 l 2.31503,1.147029 0.7958,-1.287632 0.7958,-1.287632 0.60778,1.583846 0.60778,1.583846 h 3.47237 3.47237 l 0.62811,1.01631 0.62812,1.01631 0.9347,-0.57767 0.9347,-0.577679 -2.89816,-2.438635 -2.89815,-2.438636 h -2.93898 c -1.61644,0 -3.25459,-0.315612 -3.64034,-0.70136 -0.38574,-0.385748 -2.51746,-0.794706 -4.73714,-0.908795 l -4.03579,-0.207435 -1.99057,-1.801442 -1.99057,-1.801441 -0.77722,1.257571 -0.77722,1.257571 -1.10453,-1.330873 -1.10453,-1.330873 0.88175,-1.426698 0.88175,-1.426698 1.96177,1.775379 1.96178,1.775379 0.66056,-1.068813 0.66056,-1.068813 2.68872,0.632779 c 1.47879,0.348028 3.0696,0.978073 3.53514,1.400099 l 0.84643,0.76732 5.7664,-0.52288 5.76641,-0.522879 1.81138,1.013699 1.81138,1.0137 2.79591,-0.97466 2.79591,-0.974659 3.46919,1.144934 c 1.90805,0.629713 6.53399,3.169428 10.27987,5.643811 3.74588,2.474382 8.02519,4.750147 9.50957,5.057257 l 2.69889,0.55837 1.7061,1.885229 c 0.93836,1.03687 2.2787,1.88522 2.97854,1.88522 0.69984,0 2.15735,1.125 3.23893,2.5 1.08158,1.375 2.39221,2.5 2.91252,2.5 h 0.94602 l 1.28195,3.88434 1.28194,3.88434 -0.46068,1.36566 -0.46069,1.36566 -1.68688,-3.25 -1.68688,-3.25 h -1.85188 -1.85187 l -1.26495,-1.52417 -1.26494,-1.52416 0.60859,-0.60859 0.60859,-0.60859 -2.21609,-1.67285 c -1.21885,-0.92007 -4.24109,-2.30366 -6.71609,-3.07464 -2.475,-0.77099 -7.41224,-3.164659 -10.97165,-5.319279 l -6.47166,-3.917493 -3.52834,-0.45481 -3.52835,-0.454811 -1.3321,2.197595 -1.3321,2.197599 1.0751,1.0751 1.0751,1.0751 -2.13977,2.277679 -2.13978,2.27769 1.26922,1.52931 c 0.69807,0.84113 1.69951,1.52932 2.22543,1.52932 1.53742,0 18.97355,8.19213 22.78103,10.70336 1.91518,1.26315 4.27768,2.29664 5.25,2.29664 h 1.76787 v -1.44098 c 0,-0.79254 0.43678,-1.71093 0.97063,-2.04087 l 0.97063,-0.59988 2.90819,1.50388 c 1.5995,0.82713 3.1602,2.16062 3.46822,2.9633 l 0.56003,1.45942 2.31115,0.44138 c 1.27113,0.24276 -5.78885,0.4552 -15.68885,0.47208 l -18,0.0307 -2.44401,-2.42706 z m 97.60234,-2.08169 c 3.21292,-2.59585 7.23919,-6.13712 8.94727,-7.8695 1.70808,-1.73238 3.95808,-3.65851 5,-4.28028 l 1.8944,-1.13049 -1.86998,-1.11683 -1.86997,-1.11684 1.36997,-0.86785 c 0.75349,-0.47732 2.80592,-0.87475 4.56096,-0.88317 l 3.19099,-0.0153 0.68029,1.10074 0.6803,1.10075 2.67582,-0.53517 2.67581,-0.53516 1.42488,0.88063 1.42488,0.88062 -1.97198,0.72268 c -1.08458,0.39748 -3.63991,2.50038 -5.67851,4.67311 l -3.70654,3.95043 -2.35542,-0.59117 -2.35541,-0.59117 -5.40388,5.47185 -5.40389,5.47186 h -4.87583 -4.87583 l 5.84167,-4.71972 z m 23.61438,2.89943 c -1.77501,-0.92384 -3.23751,-1.94351 -3.25,-2.26593 -0.025,-0.64531 5.97,-5.40477 15.97729,-12.68446 7.72866,-5.62212 9.69385,-7.155309 12.15028,-9.479319 1.01735,-0.9625 2.20812,-1.75 2.64616,-1.75 0.43803,0 3.70053,-2.497515 7.25,-5.550033 3.54946,-3.052518 8.36623,-6.477156 10.70395,-7.610308 l 4.25038,-2.060275 1.94785,2.360308 1.94785,2.360308 4.21313,-2.255307 c 2.31721,-1.240418 4.40935,-2.059073 4.64919,-1.819233 0.23984,0.23984 -0.37979,1.817228 -1.37696,3.505307 l -1.81305,3.069243 h -1.28439 c -0.70641,0 -1.28439,0.45 -1.28439,1 0,1.278676 0.64601,1.259815 3.1731,-0.09264 l 2.04162,-1.09264 0.9298,0.929801 0.9298,0.929801 -0.96524,2.538785 -0.96525,2.538785 -3.32191,0.683218 c -4.70682,0.968049 -10.85826,0.722041 -14.04958,-0.561869 l -2.72766,-1.097373 -5.34849,3.550124 c -2.94167,1.952568 -5.92148,4.240537 -6.6218,5.084367 -0.70032,0.84383 -4.84365,4.10491 -9.20739,7.24683 l -7.93409,5.71259 0.64709,4.31511 0.64709,4.31511 -5.36355,-0.0703 -5.36354,-0.0703 -3.22729,-1.67972 z m 258.91806,1.14237 1.69076,-0.44591 2.08447,-4.30593 c 1.14646,-2.36827 2.95635,-5.09498 4.02199,-6.05937 l 1.93752,-1.75343 1.37357,0.52709 1.37357,0.52709 1.58735,-4.65581 c 0.87304,-2.5607 2.49747,-7.805809 3.60984,-11.655809 l 2.02249,-7 0.30383,-7 0.30384,-7 -2.20272,-0.313355 -2.20272,-0.313356 -0.63138,-1.989294 -0.63138,-1.989294 -1.44521,1.199423 -1.44522,1.199424 -2.64717,-2.396774 c -1.45595,-1.318216 -3.9845,-3.634264 -5.619,-5.146764 -1.63451,-1.5125 -3.35509,-2.75 -3.82351,-2.75 -0.46843,0 -0.86139,-0.5625 -0.87326,-1.25 l -0.0216,-1.25 -5.22844,-3.790239 c -2.87563,-2.084631 -7.64889,-5.971315 -10.60724,-8.637074 l -5.37881,-4.846835 0.62022,-1.003542 0.62023,-1.003542 -2.39971,-1.572348 -2.3997,-1.572348 -4.84171,-0.47679 c -2.6629,-0.262235 -4.84167,-0.509852 -4.84167,-0.550261 0,-0.04041 -3.6,-0.266775 -8,-0.503036 -4.4,-0.236262 -10.31005,-0.708265 -13.13344,-1.048897 l -5.13344,-0.61933 -3.67365,1.534945 -3.67364,1.534946 -2.19291,-1.222825 c -1.20611,-0.672553 -3.20542,-2.088765 -4.44292,-3.147138 l -2.25,-1.924314 v -2.187014 -2.187014 l 2.75,0.442431 c 1.5125,0.243337 3.425,0.664898 4.25,0.936802 0.825,0.271904 8.025,0.691595 16,0.932647 12.84948,0.388389 25.5,1.109369 25.5,1.4533 0,0.06706 1.23815,0.325416 2.75145,0.574112 l 2.75146,0.452175 1.93786,-1.03711 1.93785,-1.03711 0.53853,0.871352 c 0.29619,0.479244 2.39841,1.168761 4.67161,1.53226 l 4.13309,0.660908 -0.47832,2.502173 -0.47832,2.502172 2.6174,1.939201 c 5.60028,4.149192 8.63081,6.753596 15.86718,13.636054 l 7.5058,7.138711 -0.7371,1.192666 -0.73711,1.192666 1.85931,-0.286272 1.85931,-0.286271 2.17756,1.201308 2.17756,1.201309 1.57244,-0.603403 c 0.86484,-0.331871 1.57244,-1.095258 1.57244,-1.696414 v -1.093011 l 1.00869,1.008689 1.00869,1.00869 0.0581,3.94131 c 0.0916,6.209647 -1.95928,21.364207 -5.20674,38.47502 l -1.05024,5.5337 0.48392,4.64392 0.48392,4.64391 -1.64318,-0.5726 c -0.90374,-0.31493 -2.37936,-1.48591 -3.27914,-2.60218 l -1.63597,-2.02958 -2.61403,2.82058 -2.61403,2.82059 v 1.85397 1.85398 l -5.25,-0.116 -5.25,-0.116 1.69077,-0.44592 z m 28.80923,-0.43048 v -1.10841 l -2.43871,0.61208 -2.43872,0.61208 -0.5776,-0.93457 -0.57759,-0.93457 0.91631,-0.56632 0.91631,-0.56631 0.0194,-3.25278 c 0.0107,-1.78904 0.53862,-5.50279 1.17323,-8.25279 0.63462,-2.75 1.35439,-6.8 1.5995,-8.999999 1.06594,-9.56746 2.68054,-19.073912 3.64161,-21.441089 0.57141,-1.407401 1.213,-4.133911 1.42577,-6.058911 0.21277,-1.925 0.78303,-4.680167 1.26725,-6.122593 l 0.88039,-2.622593 -1.89697,-2.877407 -1.89698,-2.877407 -0.007,-2.527494 -0.007,-2.527494 -1.5461,-2.20737 c -0.85036,-1.214053 -3.66286,-3.436863 -6.25,-4.939576 -2.58715,-1.502714 -6.0539,-3.982443 -7.7039,-5.510509 -1.65,-1.528066 -3.53218,-2.780384 -4.18261,-2.78293 l -1.18181,-0.0046 -0.62002,-1.953481 c -0.341,-1.074414 -2.85893,-4.099183 -5.59539,-6.721708 l -4.97538,-4.768228 -4.01145,-1.184439 -4.01144,-1.184439 -2.08272,2.817025 -2.08272,2.817026 -7.92681,-0.08563 c -4.35975,-0.04709 -8.11004,-0.382086 -8.33398,-0.744427 -0.22394,-0.362341 -4.58939,-0.748356 -9.70101,-0.857811 l -9.29386,-0.19901 -3.18502,-1.144833 -3.18502,-1.144833 2.64376,-1.371602 2.64377,-1.371602 1.76902,2.298994 1.76902,2.298994 0.0222,-2.25 0.0223,-2.249996 h 0.8 c 0.44,0 1.2275,0.40443 1.75,0.898733 l 0.95,0.898734 13.33467,-0.834858 13.33467,-0.834857 1.45258,0.557405 1.45257,0.557405 1.85086,-1.675001 c 2.47597,-2.240723 4.56573,-2.264567 10.95019,-0.12494 l 5.37554,1.801508 0.48243,1.844816 0.48243,1.844817 1.89203,0.600507 c 1.04062,0.330278 1.89427,0.907682 1.897,1.283119 0.003,0.375436 1.07452,2.019374 2.38175,3.653194 l 2.37678,2.970582 1.55881,-1.293695 1.55881,-1.293695 -0.50873,-1.325736 -0.50874,-1.325737 0.90113,-0.556925 0.90112,-0.556924 3.64208,2.474857 c 2.00314,1.361171 4.11915,3.366269 4.70223,4.455774 l 1.06016,1.980917 h 1.46481 1.46482 v 1.524751 1.524751 l 2.52563,0.960241 2.52562,0.960241 0.64896,1.765008 c 0.35693,0.970754 1.2454,2.124869 1.97438,2.564698 l 1.32541,0.79969 v 1.891293 c 0,1.040211 0.40549,2.141898 0.90108,2.448193 l 0.90109,0.5569 -0.0616,3.752117 c -0.0339,2.063664 -0.38061,4.202117 -0.77047,4.752117 -0.38986,0.55 -1.02251,5.016527 -1.40589,9.925616 -0.38337,4.909089 -1.11715,11.209089 -1.63062,14 -0.51347,2.790911 -1.11096,6.874384 -1.32776,9.074384 -0.2168,2.2 -0.71688,5.6875 -1.1113,7.75 l -0.71711,3.750002 h -1.57984 -1.57984 l 1.85361,1.35539 1.85361,1.35539 -0.6311,1.64461 -0.63109,1.64461 h -1.72251 -1.72252 l 1.56347,1.25 c 0.85991,0.6875 1.79946,2.24595 2.0879,3.46323 l 0.52442,2.21323 -1.39676,1.15922 -1.39677,1.15921 v 1.87755 1.87756 h 0.9433 c 0.51881,0 1.58056,-0.90982 2.35944,-2.02183 l 1.41614,-2.02183 0.98486,1.27183 c 0.54167,0.69951 1.30648,1.83433 1.69958,2.52183 l 0.71471,1.25 h -5.55901 -5.55902 z m -559.38672,-13.3262 0.6007,-1.56539 1.64301,-0.0318 c 2.05139,-0.0397 5.14301,-2.31996 5.14301,-3.79326 0,-0.60751 -0.9,-1.58624 -2,-2.17494 l -2,-1.070369 v -1.32713 -1.32714 l 5.53266,-0.650253 c 3.04297,-0.357641 7.43047,-1.076257 9.75,-1.596924 2.31954,-0.520667 6.91734,-1.443843 10.21734,-2.051501 3.3,-0.607657 8.58071,-1.750998 11.7349,-2.540757 3.1542,-0.789759 7.5417,-1.435925 9.75,-1.435925 h 4.0151 v 2.938727 2.938727 l 4.75,0.639927 c 7.1184,0.959001 7.36945,1.316239 0.98643,1.403672 l -5.76357,0.07895 -1.93049,-1.205612 -1.93049,-1.205612 -1.84282,1.667725 -1.84281,1.667729 -1.96313,-0.4975 -1.96312,-0.497496 -6.5,1.093466 c -3.575,0.60141 -7.85,1.29928 -9.5,1.55083 -13.6878,2.086736 -16.03643,2.776026 -16.87123,4.951496 -0.54263,1.41407 -4.43756,3.69994 -8.37248,4.91368 l -2.24371,0.69207 z m 23.8277,-20.660881 -0.69721,-1.128115 1.37811,-0.872884 c 0.75797,-0.480086 2.50312,-0.925428 3.87812,-0.989649 1.375,-0.06422 4.24005,-0.273923 6.36677,-0.466004 l 3.86678,-0.349237 1.71196,-1.54931 c 0.94159,-0.85212 2.0007,-1.549309 2.3536,-1.549309 0.35289,0 3.17474,-1.158674 6.27078,-2.574831 l 5.62915,-2.574832 10.65048,0.660498 c 5.85776,0.363274 10.87548,0.705238 11.15048,0.759921 0.275,0.05468 4.13233,-0.248608 8.57184,-0.673978 l 8.07185,-0.773399 5.36531,2.588311 c 2.95092,1.42357 6.13294,2.58831 7.07116,2.58831 h 1.70586 l 0.59993,1.563382 0.59992,1.563382 1.00707,-0.622399 1.00706,-0.622399 0.95633,0.591042 0.95632,0.591042 -0.57311,1.493498 -0.57311,1.493499 -1.38321,-1.147968 -1.38322,-1.147968 -1.53126,1.270829 -1.53125,1.270829 -1.25383,-1.714715 -1.25383,-1.714715 -4.46492,-0.568722 c -2.4557,-0.312796 -5.00718,-0.996258 -5.66995,-1.518802 l -1.20504,-0.950082 -18.14184,0.125555 -18.14183,0.125555 -2.45749,1.610213 -2.4575,1.610212 -3.07718,-0.08749 -3.07718,-0.08749 -2.1419,1.403426 -2.1419,1.403426 -6.93335,0.602222 c -3.81334,0.331222 -7.25919,0.803606 -7.65745,1.049743 -0.39826,0.246136 -1.03785,-0.06013 -1.42132,-0.680595 z m 276.55902,-3.904508 v -1 h 1.54384 1.54383 l -0.20155,-1.25 c -0.11086,-0.6875 0.14256,-2.0375 0.56315,-3 l 0.76471,-1.75 h 1.32562 1.32562 l 0.65667,-2.25 c 1.19016,-4.078015 2.95377,-7.75 3.72222,-7.75 0.41574,0 0.75589,-0.675 0.75589,-1.5 v -1.5 h 1.94098 c 1.06754,0 2.2191,-0.45 2.55902,-1 0.33992,-0.55 1.52031,-1 2.62309,-1 1.10279,0 4.51572,-1.148398 7.5843,-2.551996 l 5.57923,-2.551995 1.34144,0.514757 1.34143,0.514757 0.98888,-1.847733 0.98887,-1.847733 2.66306,-0.668384 c 1.46467,-0.36761 4.11097,-1.772764 5.88064,-3.122564 l 3.2176,-2.45418 2.89573,0.317414 c 1.59265,0.174578 3.77447,0.80942 4.84849,1.41076 l 1.95276,1.093344 -1.28453,1.547766 -1.28453,1.547765 -4.35518,0.6531 -4.35518,0.653099 -4.73253,2.395912 c -2.60289,1.317751 -5.34538,2.395911 -6.09443,2.395911 h -1.36191 l -0.5756,1.5 c -0.31659,0.825 -1.14751,1.5 -1.84649,1.5 -0.69899,0 -3.01335,0.771983 -5.14302,1.715518 -2.12966,0.943536 -5.89712,2.186347 -8.37212,2.761804 l -4.5,1.046286 -0.0533,3.422643 -0.0533,3.422643 -1.15546,0.385152 c -0.6355,0.211834 -3.17774,2.378832 -5.64943,4.815553 l -4.49406,4.430401 h -1.54722 -1.54723 z m 36.62609,-4.532013 -0.58789,-1.532013 2.546,-0.967987 c 1.4003,-0.532393 2.9667,-0.967987 3.4809,-0.967987 0.51419,0 0.9349,-0.45 0.9349,-1 v -1 l 3.25,-0.09058 3.25,-0.09058 5,-2.703985 5,-2.703984 v -2.441744 -2.441745 l -1.92928,-0.371545 c -1.0611,-0.20435 -2.55229,-0.994561 -3.31376,-1.756024 l -1.38448,-1.384479 0.62278,-1.007671 0.62277,-1.007663 h 2.31886 c 2.3997,0 3.78461,-0.493818 19.56311,-6.975645 3.025,-1.242673 10.675,-4.222856 17,-6.622627 6.325,-2.399772 12.4,-4.786007 13.5,-5.302744 1.1,-0.516738 3.6875,-1.17211 5.75,-1.456383 l 3.75,-0.51686 v 3.828722 3.828721 l -2.5,0.62746 c -1.375,0.345103 -2.5,1.029333 -2.5,1.52051 v 0.89305 l 3.75,0.607227 c 4.14705,0.671521 11.61933,0.0707 17.15299,-1.379213 1.97836,-0.518363 7.98199,-1.149274 13.34141,-1.402026 l 9.7444,-0.459548 3.2556,-1.895776 3.2556,-1.895776 1.30457,-2.699546 1.30456,-2.699546 h 1.44544 1.44543 v 1.54966 c 0,2.17276 -2.85166,7.45034 -4.02568,7.45034 -0.53588,0 -0.97432,0.616518 -0.97432,1.370039 v 1.370039 l -4.25,1.083492 c -7.65548,1.951684 -37.50323,4.384723 -38.28441,3.120754 -0.45079,-0.729393 -3.5843,-0.59109 -4.98317,0.219939 l -0.98242,0.569583 -3,-1.85591 c -1.65,-1.020751 -3.62475,-2.157897 -4.38832,-2.526992 l -1.38833,-0.67108 -5.61167,1.84288 c -3.08643,1.013585 -6.14044,2.237718 -6.78671,2.720295 -0.64627,0.482578 -2.24031,0.990991 -3.5423,1.129806 -1.302,0.138816 -2.91074,0.588271 -3.57497,0.99879 l -1.2077,0.746399 -0.93854,-0.580049 -0.93854,-0.58005 -0.81146,1.271033 c -1.3667,2.140735 -4.89597,3.647029 -10.1907,4.3494 l -5.05374,0.670403 -1.53351,2.340431 c -0.84343,1.287237 -1.53351,2.977056 -1.53351,3.755153 v 1.414721 l -4.4183,3.620462 -4.41829,3.620462 h -1.88171 c -1.03493,0 -2.32907,0.447375 -2.87587,0.994166 -0.54679,0.546792 -2.32429,1.09256 -3.95,1.212818 l -2.95583,0.218652 -1.3067,1.787182 c -0.71869,0.98295 -1.90805,1.787182 -2.64302,1.787182 h -1.3363 z m 49.26865,-39.533351 -1.39474,-0.862308 1.71326,-1.713706 1.71325,-1.713705 0.64373,1.677542 c 0.35406,0.922647 1.04559,1.677541 1.53675,1.677541 h 0.89301 v -2 -2 h 1 c 0.55,0 1.03046,0.5625 1.06768,1.25 l 0.0677,1.25 1.08513,-2.25 1.08514,-2.25 1.59718,-0.05619 1.59719,-0.05619 5,-5.954575 c 5.6302,-6.705087 5.73804,-6.759624 14,-7.079777 3.3,-0.127875 6.35311,-0.408381 6.7847,-0.623345 0.43158,-0.214965 3.35658,-0.585933 6.5,-0.824373 3.14341,-0.23844 7.2903,-0.650455 9.2153,-0.915588 1.925,-0.265134 4.175,-0.504834 5,-0.532667 0.825,-0.02783 3.4885,-0.29358 5.91889,-0.590549 l 4.4189,-0.539944 -1.31461,-0.812475 -1.31461,-0.812475 0.61433,-1.600925 c 0.82314,-2.145076 1.66593,-1.987422 4.98499,0.932503 l 2.80789,2.470226 -0.55927,0.904914 -0.55927,0.904914 1.82124,-0.476264 1.82123,-0.476264 1.26624,1.525718 1.26623,1.525718 -0.52695,0.852617 -0.52694,0.852617 -5.05917,-0.352686 -5.05914,-0.352683 v 1.105144 1.105145 l -4.41581,-0.662192 -4.41581,-0.662192 -5.20242,1.115718 c -2.86133,0.613645 -10.66171,1.395757 -17.33419,1.738027 l -12.13177,0.622309 -1.85656,0.955103 -1.85656,0.955104 0.58156,2.907789 0.58156,2.907788 h -1.38271 c -0.7605,0 -3.56175,1.054429 -6.225,2.343175 -2.66326,1.288747 -6.91466,3.043059 -9.44755,3.898473 l -4.60526,1.555297 z"
       id="path183" />
  </g>
</svg>
