<?xml version="1.0" standalone="no"?>
<!DOCTYPE svg PUBLIC "-//W3C//DTD SVG 20010904//EN"
 "http://www.w3.org/TR/2001/REC-SVG-20010904/DTD/svg10.dtd">
<svg version="1.0" xmlns="http://www.w3.org/2000/svg"
 width="1280.000000pt" height="1280.000000pt" viewBox="0 0 1280.000000 1280.000000"
 preserveAspectRatio="xMidYMid meet">

<g transform="translate(0.000000,1280.000000) scale(0.100000,-0.100000)"
fill="#000000" stroke="none">
<path d="M6489 9417 c-110 -73 -205 -128 -258 -147 -27 -11 -141 -45 -253 -75
-401 -111 -538 -160 -678 -245 -79 -48 -179 -144 -218 -210 -25 -41 -27 -54
-27 -147 0 -69 -3 -103 -10 -103 -6 0 -36 13 -66 29 -74 40 -172 64 -229 56
-138 -19 -299 -86 -533 -222 -59 -35 -111 -63 -114 -63 -3 0 -78 -49 -167
-108 -88 -60 -172 -115 -186 -123 -88 -49 -331 -164 -409 -193 -123 -46 -135
-57 -128 -122 3 -28 21 -85 41 -127 69 -145 77 -194 87 -562 9 -339 13 -380
49 -511 38 -139 127 -302 204 -373 14 -14 26 -34 26 -46 0 -13 -26 -56 -59
-96 -138 -175 -249 -367 -290 -504 -12 -38 -27 -117 -35 -175 -12 -96 -12
-120 6 -270 11 -91 26 -180 33 -198 17 -38 47 -52 120 -52 29 0 84 -9 121 -21
96 -29 276 -117 359 -174 336 -233 482 -317 615 -354 212 -59 348 -43 579 66
52 24 101 43 110 41 12 -2 18 -20 23 -68 7 -76 31 -149 63 -199 48 -75 159
-162 263 -207 31 -14 66 -29 77 -34 11 -5 108 -43 215 -84 253 -97 367 -147
464 -204 89 -53 209 -152 257 -212 51 -63 74 -57 241 57 89 62 293 166 428
218 52 20 197 72 321 115 347 120 476 194 630 357 83 89 139 189 158 285 13
61 15 64 81 100 25 14 88 50 140 80 53 31 132 75 175 98 44 24 90 49 101 56
44 26 262 113 348 138 49 15 121 29 160 32 39 3 104 12 143 20 79 17 105 38
122 100 15 53 -11 273 -49 423 -33 132 -69 321 -85 456 -26 208 -48 290 -101
371 -19 28 -34 59 -34 69 0 10 15 34 34 55 47 52 110 163 136 240 26 77 30
192 16 530 -6 150 -5 245 2 315 7 55 17 161 22 235 8 94 18 155 35 205 27 77
32 149 13 162 -7 4 -76 33 -154 64 -166 67 -239 103 -348 172 -289 182 -403
230 -599 255 -104 13 -147 14 -225 5 -111 -12 -212 -43 -260 -80 -19 -14 -37
-21 -42 -17 -4 5 -23 45 -41 89 -105 259 -241 371 -594 495 -282 99 -373 141
-465 214 -114 91 -235 166 -267 166 -19 0 -54 -16 -94 -43z m128 -49 c48 -21
127 -75 154 -104 35 -38 52 -74 78 -162 26 -85 43 -86 34 -2 -4 38 -2 60 4 60
6 0 48 -17 94 -39 46 -21 165 -66 264 -101 302 -103 390 -156 492 -291 56 -75
79 -120 124 -244 40 -111 39 -125 -8 -125 -30 0 -58 13 -128 60 -49 33 -93 60
-97 60 -4 0 -35 20 -70 44 -67 46 -128 80 -133 74 -2 -2 21 -24 51 -48 87 -72
104 -127 55 -182 -28 -32 -33 -33 -113 -36 -46 -1 -119 1 -163 5 l-80 8 -6 91
c-7 119 -34 179 -87 194 -20 5 -64 10 -97 10 -62 0 -294 49 -446 93 -47 14
-132 35 -190 48 -96 20 -112 21 -214 10 -120 -13 -285 -49 -326 -72 -15 -8
-44 -24 -66 -36 -22 -12 -81 -59 -131 -105 -67 -62 -116 -96 -189 -133 -54
-27 -127 -69 -163 -93 -60 -40 -106 -60 -115 -50 -2 2 -9 50 -14 107 -24 228
-10 296 78 382 134 132 303 200 861 349 175 47 275 92 400 179 91 64 103 68
147 49z m-297 -658 c36 -6 145 -33 243 -61 223 -63 350 -89 438 -89 55 0 70
-3 78 -17 5 -10 10 -63 12 -118 l4 -100 -37 -3 c-34 -3 -38 0 -58 38 -25 50
-67 70 -142 70 -73 0 -137 -22 -227 -76 -42 -26 -96 -58 -120 -72 l-44 -25
-54 28 c-55 28 -206 169 -277 258 -100 125 -195 104 -392 -85 -62 -59 -117
-108 -123 -108 -24 0 -18 22 22 76 159 216 418 325 677 284z m2256 -215 c115
-29 234 -84 389 -179 137 -85 359 -199 440 -226 103 -34 101 -30 82 -146 -9
-54 -21 -152 -28 -216 -7 -64 -15 -122 -19 -129 -6 -9 -19 -9 -59 1 -29 7 -54
10 -57 7 -3 -2 19 -18 48 -34 l53 -30 3 -264 c2 -145 4 -329 5 -409 2 -139 1
-149 -28 -225 -32 -87 -118 -225 -140 -225 -8 0 -47 25 -87 55 -78 60 -302
175 -339 175 -8 0 -39 17 -70 38 -30 20 -87 55 -127 77 -98 55 -105 77 -53
159 121 192 195 425 194 611 -1 101 -4 116 -75 370 -54 192 -54 204 12 287 17
20 30 41 30 47 0 5 -29 16 -65 24 -35 8 -96 33 -135 56 -139 80 -380 130 -490
101 -93 -24 -90 -24 -90 -2 0 23 71 76 123 91 17 5 111 10 208 10 157 1 187
-2 275 -24z m-3671 -29 c72 -33 185 -115 185 -133 0 -31 -43 -84 -88 -110 -26
-15 -76 -47 -112 -71 -36 -25 -98 -60 -138 -78 -41 -19 -87 -45 -104 -59 -16
-14 -35 -25 -42 -25 -16 0 -149 -65 -221 -108 -128 -77 -263 -180 -355 -272
-53 -52 -110 -103 -128 -112 -41 -22 -41 -46 -1 -84 29 -27 65 -90 74 -132 2
-9 15 -60 28 -112 13 -52 32 -178 43 -279 15 -158 16 -202 6 -323 -6 -77 -16
-146 -22 -152 -5 -7 -45 -32 -87 -55 -43 -23 -107 -66 -143 -96 -119 -100
-106 -97 -161 -37 -93 101 -176 292 -198 455 -6 43 -11 129 -11 191 0 167 -44
457 -116 766 -14 57 -22 110 -20 116 6 16 143 60 228 74 35 5 117 13 183 17
124 7 126 9 23 38 -32 8 -58 20 -58 25 0 11 47 46 136 102 33 20 100 62 149
93 262 167 544 321 656 359 102 35 222 36 294 2z m1138 10 c18 -7 62 -42 97
-76 36 -35 93 -85 128 -113 35 -27 60 -53 55 -57 -4 -4 -53 -12 -108 -19 -210
-25 -347 -78 -452 -175 -72 -66 -108 -130 -124 -219 -11 -57 -10 -70 1 -77 20
-12 40 -1 40 24 0 42 60 144 112 191 28 25 88 64 132 85 121 59 222 80 417 87
159 6 169 5 213 -17 57 -27 73 -58 57 -112 -25 -83 -148 -148 -280 -148 -144
0 -240 48 -227 113 3 17 14 40 24 50 17 20 16 20 -34 13 -74 -9 -226 -55 -248
-74 -27 -24 -76 -93 -76 -108 0 -7 8 -10 18 -8 35 10 94 -65 150 -189 28 -64
52 -131 52 -148 0 -76 -56 -96 -89 -31 -11 20 -31 52 -44 70 l-25 33 -6 -25
c-4 -18 -20 -30 -64 -47 -67 -27 -198 -32 -273 -10 -44 12 -48 16 -60 60 -9
28 -14 95 -14 171 0 119 2 130 39 235 70 200 108 253 241 343 33 22 96 70 140
107 44 37 89 71 100 75 30 13 72 12 108 -4z m-505 -78 c19 -25 -10 -130 -54
-194 -85 -123 -113 -235 -115 -465 -3 -178 2 -195 92 -324 72 -104 200 -222
365 -337 191 -134 274 -202 330 -273 26 -33 76 -90 111 -127 35 -36 63 -72 63
-78 0 -25 -60 -116 -91 -139 -44 -33 -137 -42 -405 -40 l-220 2 -105 41 c-190
75 -202 84 -248 178 -69 146 -83 205 -89 370 -5 174 -7 171 95 138 222 -73
462 -199 611 -318 77 -63 54 -26 -42 65 -207 198 -448 322 -746 383 -58 12
-116 27 -130 33 -31 15 -49 52 -57 117 -5 44 -2 55 22 90 15 22 54 58 86 79
32 21 55 41 53 44 -8 8 -88 -18 -115 -37 -38 -26 -49 -20 -49 27 0 79 50 210
119 311 16 23 36 64 45 93 19 58 126 184 208 247 48 37 141 87 205 111 48 17
49 17 61 3z m1388 -71 c12 -7 43 -43 69 -82 27 -38 72 -96 100 -127 129 -139
106 -237 -83 -367 -103 -71 -238 -184 -225 -188 22 -8 269 116 336 169 24 19
29 20 41 8 13 -14 56 -151 56 -178 0 -22 -164 -193 -359 -377 -106 -99 -233
-225 -282 -280 -141 -155 -161 -162 -249 -90 -30 25 -80 64 -110 87 -30 23
-80 64 -110 90 -30 27 -80 63 -110 81 -30 17 -89 54 -130 82 -42 27 -104 68
-138 90 -85 53 -80 68 23 77 130 11 460 102 655 180 165 66 230 101 299 163
31 28 85 72 118 98 80 61 98 87 124 183 60 218 -36 360 -205 302 -61 -20 -56
-35 14 -40 94 -7 148 -59 170 -164 10 -49 10 -58 -6 -75 -51 -56 -150 -21
-266 95 -40 39 -85 80 -100 89 -16 10 -28 24 -28 32 0 22 118 113 175 135 58
22 188 26 221 7z m1389 -11 c22 -6 40 -18 40 -25 0 -7 -26 -23 -57 -35 -100
-37 -91 -43 59 -39 113 3 147 0 188 -14 l50 -18 -3 -55 c-3 -69 20 -185 63
-320 45 -138 54 -211 45 -345 -9 -123 -31 -202 -92 -336 -48 -105 -54 -107
-135 -49 -73 52 -88 51 -37 -2 53 -55 74 -88 74 -113 0 -11 -23 -54 -51 -95
-27 -41 -68 -111 -91 -155 -22 -44 -51 -94 -64 -112 l-24 -32 -100 6 c-158 10
-370 -27 -558 -96 -223 -83 -492 -253 -670 -425 -127 -123 -188 -195 -281
-333 -34 -51 -66 -93 -70 -93 -4 0 -18 11 -30 24 -30 32 -25 52 44 181 131
243 374 525 613 709 31 24 125 90 207 146 206 142 203 139 271 192 128 99 147
147 147 371 0 81 4 150 9 153 5 3 36 10 70 14 78 11 102 33 100 90 -3 59 -40
266 -59 325 -38 119 -108 213 -208 280 -30 20 -55 42 -55 50 0 34 166 120 290
150 69 17 261 18 315 1z m-1065 -71 c302 -45 511 -185 616 -411 42 -89 76
-221 72 -276 -3 -40 -5 -43 -44 -54 -22 -6 -55 -19 -72 -28 -45 -23 -55 -21
-122 30 -52 40 -117 70 -127 60 -2 -2 15 -15 37 -30 39 -26 80 -89 80 -123 0
-11 -33 -46 -77 -83 -116 -97 -219 -197 -258 -251 -43 -58 -101 -96 -229 -149
-193 -81 -339 -173 -464 -294 -76 -73 -152 -164 -152 -180 0 -4 35 28 78 70
105 103 222 179 388 248 225 94 335 150 406 208 79 64 223 200 255 242 14 18
28 26 38 22 35 -13 77 -168 62 -228 -7 -28 -98 -102 -312 -254 -253 -180 -295
-214 -438 -353 -137 -134 -248 -268 -322 -389 -21 -35 -44 -66 -50 -70 -6 -4
-26 -34 -44 -67 -63 -115 -78 -118 -159 -42 -60 56 -224 179 -254 190 -26 9
-23 25 21 125 148 335 320 581 593 847 79 77 209 204 290 282 149 145 285 303
307 360 7 17 13 78 14 135 2 81 -2 114 -18 156 -20 56 -56 101 -41 52 4 -14
10 -79 13 -146 5 -105 3 -122 -12 -138 -40 -40 -94 -1 -124 92 -13 38 -12 49
8 117 33 110 23 138 -86 258 -29 32 -53 65 -53 73 0 18 55 18 180 -1z m-2331
-272 c10 -19 -2 -48 -49 -118 -56 -84 -64 -125 -64 -310 2 -247 24 -288 171
-320 43 -10 82 -21 88 -26 5 -6 8 -58 7 -122 -2 -70 3 -145 13 -201 13 -72 13
-91 3 -98 -19 -11 -56 -10 -81 3 -49 26 -224 143 -249 167 -16 14 -28 20 -28
13 0 -24 60 -99 167 -209 137 -140 237 -205 482 -313 372 -164 504 -243 756
-454 223 -187 510 -492 503 -535 -2 -9 -39 -27 -98 -46 -126 -42 -283 -53
-450 -31 -223 30 -521 149 -759 304 -164 107 -351 256 -351 280 0 16 168 27
313 19 260 -15 445 -47 647 -112 74 -24 136 -41 138 -40 6 7 -122 93 -184 124
-65 33 -135 53 -261 77 -168 31 -294 38 -578 31 -320 -7 -434 2 -529 40 -99
39 -101 43 -82 162 20 123 38 176 77 225 47 59 27 55 -25 -5 -51 -57 -110
-156 -121 -200 -14 -57 -47 -28 -113 100 -55 104 -95 229 -138 420 -59 264
-95 413 -120 501 -30 104 -31 137 -3 152 22 11 178 7 234 -6 l30 -8 -23 26
c-13 14 -50 39 -83 57 -32 17 -59 35 -59 40 0 15 113 110 205 172 95 64 236
138 350 183 195 78 246 89 264 58z m1728 -98 c27 -101 28 -124 2 -151 -24 -26
-175 -102 -294 -149 -38 -15 -74 -31 -80 -35 -18 -13 -204 -62 -213 -56 -6 3
-13 18 -16 33 -4 16 -25 94 -48 176 -22 81 -38 150 -35 154 4 3 42 -8 84 -24
162 -63 275 -76 384 -44 50 15 114 64 147 111 15 22 33 39 41 37 8 -1 20 -24
28 -52z m2128 -1300 c169 -36 301 -93 400 -173 130 -104 172 -198 200 -447 9
-82 30 -215 46 -295 74 -353 87 -418 93 -470 l7 -55 -38 36 c-21 20 -51 44
-68 53 -16 9 -38 22 -47 28 -9 7 -20 9 -24 5 -4 -4 21 -34 56 -67 73 -68 100
-106 100 -137 0 -25 -2 -26 -120 -43 -228 -34 -475 -128 -760 -288 -63 -36
-162 -91 -219 -123 -147 -82 -252 -118 -365 -126 -173 -11 -293 32 -405 144
-69 69 -164 200 -155 214 2 4 73 41 157 82 173 85 278 151 312 197 71 96 43
272 -66 432 -28 40 -62 90 -77 111 l-25 38 26 27 c109 113 137 145 137 156 0
30 123 30 325 0 123 -18 229 -45 335 -84 44 -16 80 -26 80 -21 0 22 -282 143
-400 171 -115 27 -179 81 -205 172 -9 32 -14 67 -10 77 3 11 60 70 126 132 66
62 122 123 125 135 5 20 15 24 72 30 63 6 288 0 397 -11 l50 -5 -38 15 c-44
17 -219 51 -320 62 -37 5 -69 13 -70 18 -5 25 263 32 368 10z m-739 -149 c-18
-198 -97 -368 -261 -558 -37 -43 -73 -78 -80 -78 -8 0 -34 14 -59 31 -51 36
-101 48 -208 49 -76 0 -171 -25 -208 -55 -8 -6 -22 -15 -30 -18 -8 -3 -60 -42
-115 -86 -104 -84 -188 -125 -241 -119 -25 3 -29 8 -30 35 -1 34 42 164 74
226 70 133 395 385 647 502 149 70 391 141 489 144 l29 1 -7 -74z m-3858 -88
c-3 -7 -42 -34 -88 -60 -169 -95 -274 -171 -375 -273 -103 -104 -149 -170
-192 -275 -36 -91 -25 -105 21 -27 42 72 126 157 249 252 126 97 157 97 157 1
0 -28 5 -69 11 -90 13 -46 97 -139 146 -163 56 -26 104 -107 177 -296 76 -197
164 -345 289 -488 62 -70 79 -99 59 -99 -10 0 -81 47 -109 73 -13 11 -25 18
-28 15 -8 -8 138 -143 197 -182 64 -42 283 -140 353 -157 64 -15 85 -34 85
-75 0 -37 -22 -57 -75 -70 -16 -3 -39 -12 -51 -19 -11 -7 -57 -25 -103 -39
-68 -22 -101 -26 -194 -26 -202 0 -351 60 -632 257 -93 65 -192 133 -220 150
-126 79 -325 156 -442 170 -29 3 -53 10 -53 16 0 34 103 168 172 224 32 25 56
48 53 51 -7 8 -123 -66 -182 -115 -28 -23 -56 -43 -61 -43 -17 0 -22 41 -22
176 0 248 75 449 256 691 169 223 224 276 369 354 113 61 243 98 233 67z m92
-147 c0 -10 -7 -24 -15 -31 -20 -16 -19 -59 1 -81 17 -19 260 -119 288 -119 9
0 63 -21 119 -46 56 -25 138 -62 182 -82 64 -29 98 -54 170 -122 93 -89 196
-170 250 -197 20 -10 2 12 -53 64 -89 84 -142 148 -142 169 0 24 16 16 117
-59 167 -125 362 -237 526 -301 175 -69 474 -124 606 -111 79 8 254 48 331 76
99 35 279 132 348 186 120 94 250 183 319 218 55 29 78 35 128 35 118 -1 207
-70 335 -261 90 -135 120 -213 120 -311 l0 -68 -38 -19 c-21 -10 -63 -27 -95
-36 -108 -31 -296 -171 -547 -408 -69 -65 -154 -138 -190 -162 -80 -53 -190
-91 -290 -100 -79 -7 -224 7 -288 28 -34 11 -39 18 -59 77 -11 36 -29 97 -39
135 -17 67 -18 68 -25 37 -4 -18 -10 -71 -14 -118 -6 -79 -8 -84 -30 -84 -13
0 -101 15 -197 34 -95 19 -279 53 -408 75 -129 22 -269 47 -310 55 -41 8 -126
24 -188 36 -235 44 -394 106 -485 192 l-49 46 4 71 c4 77 -3 88 -24 41 -7 -17
-21 -30 -30 -30 -40 0 -180 237 -241 406 -75 209 -124 288 -226 363 -39 29
-79 67 -91 85 -21 36 -27 116 -11 158 13 35 124 146 162 163 49 21 79 19 79
-4z m3219 -1580 c44 -37 273 -192 319 -215 65 -33 127 -38 236 -16 56 10 123
27 149 36 64 22 75 11 49 -49 -54 -122 -154 -240 -267 -317 -125 -84 -173
-105 -509 -221 -347 -120 -508 -189 -644 -275 -29 -19 -58 -34 -66 -34 -7 0
-19 -7 -26 -15 -7 -8 -15 -15 -19 -15 -3 0 -6 51 -6 113 -1 75 -5 122 -15 142
-13 29 -14 26 -21 -65 -7 -97 -30 -202 -50 -226 -9 -11 -26 0 -90 57 -193 169
-317 235 -734 389 -303 111 -420 186 -477 305 -27 57 -29 67 -27 185 1 119 10
183 31 205 6 6 11 6 16 -2 12 -19 179 -53 337 -68 173 -17 281 -36 565 -100
113 -25 255 -56 315 -69 l110 -23 109 18 c115 19 192 41 241 69 83 48 116 69
176 112 132 95 180 120 223 115 23 -3 53 -18 75 -36z"/>
</g>
</svg>
