<?xml version="1.0" standalone="no"?>
<!DOCTYPE svg PUBLIC "-//W3C//DTD SVG 20010904//EN"
 "http://www.w3.org/TR/2001/REC-SVG-20010904/DTD/svg10.dtd">
<svg version="1.0" xmlns="http://www.w3.org/2000/svg"
 width="8000.000000pt" height="1380.000000pt" viewBox="0 0 8000.000000 1380.000000"
 preserveAspectRatio="xMidYMid meet">

<g transform="translate(0.000000,1380.000000) scale(0.100000,-0.100000)"
fill="#000000" stroke="none">
<path d="M5314 8319 c-44 -13 -63 -38 -74 -101 -7 -36 -10 -486 -8 -1304 3
-1191 4 -1251 21 -1278 37 -55 45 -56 546 -56 524 0 564 4 696 69 94 47 175
113 244 198 60 75 96 149 122 250 18 72 19 116 19 857 0 867 0 858 -66 992
-72 146 -216 279 -360 334 -119 45 -180 49 -659 49 -247 -1 -464 -5 -481 -10z
m1058 -307 c85 -42 177 -137 210 -219 l23 -58 0 -770 c0 -631 -3 -779 -14
-818 -34 -116 -139 -226 -257 -269 -52 -19 -87 -22 -296 -26 -130 -2 -302 -1
-382 3 l-146 7 0 1094 0 1095 398 -3 397 -3 67 -33z"/>
<path d="M8137 8319 c-281 -38 -540 -244 -646 -511 -56 -142 -56 -138 -56
-863 0 -662 1 -671 23 -750 79 -286 318 -522 597 -592 98 -24 316 -24 405 1
158 43 283 119 399 241 85 90 140 181 183 305 l33 95 3 664 c2 440 -1 688 -8
734 -40 258 -225 498 -473 612 -127 59 -313 85 -460 64z m274 -287 c172 -45
319 -193 376 -377 17 -56 18 -107 18 -700 0 -491 -3 -651 -13 -689 -50 -186
-198 -337 -385 -391 -73 -21 -222 -21 -301 0 -33 9 -82 28 -110 43 -72 38
-197 164 -229 232 -57 118 -57 120 -57 796 0 378 4 642 10 675 36 189 200 362
393 414 72 19 217 18 298 -3z"/>
<path d="M10651 8317 c-19 -6 -44 -25 -55 -40 l-21 -28 -3 -1280 c-2 -1391 -5
-1327 52 -1364 62 -41 166 -25 203 31 17 27 18 81 23 1017 l5 988 532 -958
c647 -1163 587 -1060 626 -1083 64 -40 162 -16 191 45 14 30 16 168 16 1312 0
994 -3 1283 -13 1302 -42 83 -191 94 -237 18 -19 -31 -20 -56 -21 -682 -1
-357 -5 -801 -8 -986 l-6 -337 -409 737 c-687 1234 -708 1271 -739 1293 -35
25 -92 32 -136 15z"/>
<path d="M13481 8320 c-322 -45 -592 -281 -683 -595 l-23 -80 0 -690 c0 -687
0 -690 23 -768 81 -281 299 -499 579 -579 111 -32 323 -32 436 0 307 87 539
344 593 653 22 130 15 1356 -8 1439 -74 258 -235 452 -461 556 -122 55 -318
83 -456 64z m254 -285 c90 -23 162 -63 232 -129 75 -69 123 -146 152 -240 20
-66 21 -86 21 -707 0 -715 0 -717 -69 -828 -83 -134 -186 -216 -323 -256 -76
-22 -229 -22 -305 0 -181 52 -323 194 -380 380 -17 56 -18 107 -18 700 0 633
0 641 22 710 46 146 169 285 301 342 101 44 259 55 367 28z"/>
<path d="M15038 8314 c-49 -21 -72 -69 -66 -140 3 -34 12 -62 24 -75 40 -46
66 -49 367 -49 l284 0 6 -1197 c7 -1325 2 -1229 72 -1259 75 -31 162 -8 189
51 14 29 16 160 16 1219 l0 1186 288 1 c195 0 298 4 321 12 53 18 76 57 76
127 0 70 -23 109 -76 127 -25 9 -221 12 -749 12 -618 0 -720 -2 -752 -15z"/>
<path d="M18685 8319 c-148 -22 -258 -79 -376 -198 -68 -69 -95 -105 -128
-171 -72 -147 -71 -131 -71 -1001 0 -733 1 -780 19 -851 50 -196 183 -359 366
-448 135 -66 173 -70 695 -70 502 0 510 1 547 56 17 27 18 68 18 769 0 701 -1
742 -18 769 -34 51 -64 56 -321 56 -271 0 -302 -6 -331 -67 -25 -52 -16 -136
17 -169 34 -35 81 -43 241 -44 l137 0 0 -543 0 -544 -332 -6 c-371 -6 -456 0
-538 40 -109 53 -197 170 -220 292 -14 73 -14 1459 0 1532 23 122 111 233 229
292 l66 32 495 5 c376 4 500 8 517 18 35 19 56 69 55 131 0 64 -23 100 -73
118 -41 14 -898 16 -994 2z"/>
<path d="M21012 8320 c-97 -14 -169 -37 -267 -88 -73 -38 -108 -65 -190 -147
-103 -103 -149 -169 -192 -275 -53 -133 -54 -146 -51 -889 l3 -686 27 -80
c139 -403 524 -633 940 -560 289 50 535 267 636 560 l27 80 0 715 0 715 -23
75 c-88 280 -321 501 -595 565 -81 19 -236 26 -315 15z m257 -285 c194 -46
354 -212 396 -410 12 -57 15 -181 15 -676 0 -571 -1 -610 -20 -683 -27 -108
-63 -170 -145 -251 -74 -74 -157 -122 -250 -144 -62 -16 -204 -16 -270 -1
-194 44 -371 231 -404 427 -8 47 -11 257 -9 698 l3 630 27 69 c65 168 204 296
369 340 71 19 208 19 288 1z"/>
<path d="M24020 8319 c-136 -20 -266 -87 -374 -195 -85 -85 -147 -189 -178
-299 -23 -80 -23 -81 -23 -870 l0 -790 23 -80 c68 -235 245 -413 480 -482 49
-15 123 -18 542 -21 339 -2 496 0 523 8 25 7 45 22 57 43 19 31 20 56 20 770
0 815 3 779 -64 811 -28 13 -73 16 -275 16 -268 0 -298 -5 -325 -59 -21 -40
-21 -125 1 -161 27 -47 55 -53 231 -58 l162 -4 0 -542 0 -543 -338 -6 c-203
-4 -366 -2 -407 4 -125 17 -226 82 -294 188 -62 96 -62 90 -59 932 l3 764 27
58 c54 115 134 189 245 226 60 20 82 21 522 21 506 0 520 1 554 59 21 36 22
122 2 160 -30 59 -48 61 -548 60 -248 -1 -477 -5 -507 -10z"/>
<path d="M25721 8317 c-19 -7 -44 -25 -55 -40 l-21 -28 -3 -1282 c-2 -1206 -1
-1284 15 -1317 36 -72 19 -70 671 -70 631 0 632 0 667 54 21 32 24 111 5 155
-24 60 -31 61 -432 61 -200 0 -427 3 -505 7 l-143 6 0 544 0 543 343 0 c188 0
360 5 381 10 60 13 88 48 94 113 3 37 -1 65 -12 88 -31 65 -23 64 -433 67
l-373 3 0 409 0 410 493 1 c354 0 502 3 526 12 53 19 74 55 74 127 0 72 -21
108 -74 127 -48 17 -1170 17 -1218 0z"/>
<path d="M27642 8319 c-20 -6 -41 -23 -52 -42 -20 -31 -20 -59 -20 -1322 0
-1011 3 -1295 13 -1315 26 -53 125 -76 191 -45 65 31 61 -38 66 1056 l5 997
555 -1000 c305 -550 567 -1013 581 -1028 47 -52 149 -52 201 0 l28 28 0 1296
c0 957 -3 1302 -12 1320 -34 75 -167 86 -229 20 l-24 -26 -5 -999 -5 -998
-540 971 c-297 534 -552 991 -567 1014 -15 24 -38 50 -52 59 -32 21 -91 27
-134 14z"/>
<path d="M29841 8317 c-53 -19 -74 -55 -74 -127 0 -72 21 -108 74 -127 23 -8
126 -12 322 -12 l287 -1 0 -1174 c0 -645 3 -1187 6 -1205 20 -98 185 -123 248
-38 21 28 21 29 24 1223 l2 1194 285 0 c314 0 346 5 378 59 10 17 17 50 17 81
0 31 -7 64 -17 81 -36 60 -24 59 -806 58 -525 0 -721 -3 -746 -12z"/>
<path d="M32041 8317 c-19 -6 -44 -25 -55 -40 l-21 -28 -3 -1282 c-2 -1205 -1
-1284 15 -1317 36 -72 19 -70 671 -70 630 0 632 0 667 53 20 31 23 114 5 156
-24 60 -32 61 -432 61 -200 0 -427 3 -505 7 l-143 6 -1 1176 c0 884 -3 1184
-12 1210 -7 19 -23 42 -37 53 -32 23 -106 31 -149 15z"/>
<path d="M33962 8319 c-20 -6 -40 -22 -52 -42 -20 -31 -20 -59 -20 -1322 0
-1011 3 -1295 13 -1315 7 -14 28 -33 47 -42 32 -17 83 -18 611 -18 317 0 590
3 608 6 69 14 107 100 82 183 -23 80 6 75 -535 82 -264 4 -498 7 -518 8 l-38
1 0 544 0 545 368 3 c399 3 409 5 438 59 17 34 18 125 1 159 -7 14 -28 33 -47
42 -31 16 -72 18 -397 18 l-363 0 0 410 0 410 498 0 c556 0 549 -1 584 70 36
71 12 161 -52 192 -32 17 -82 18 -615 17 -333 0 -594 -5 -613 -10z"/>
<path d="M36825 8317 c-16 -8 -39 -24 -50 -37 -20 -22 -20 -38 -23 -1312 -3
-1431 -7 -1339 63 -1372 63 -30 155 -13 189 35 15 21 16 137 16 1316 0 955 -3
1299 -12 1317 -6 14 -22 33 -35 41 -34 22 -112 28 -148 12z"/>
<path d="M37651 8317 c-19 -7 -44 -25 -55 -40 l-21 -28 0 -1293 c0 -1234 1
-1293 18 -1320 26 -39 80 -60 141 -52 27 3 58 13 69 23 48 43 47 19 47 1064
l0 982 564 -1014 c455 -820 569 -1018 596 -1036 38 -27 94 -30 145 -9 70 29
65 -65 65 1361 0 1441 6 1328 -72 1360 -48 19 -78 19 -125 0 -73 -29 -67 48
-73 -1060 l-5 -1000 -99 180 c-301 548 -1020 1833 -1034 1849 -21 23 -73 46
-104 45 -13 0 -38 -5 -57 -12z"/>
<path d="M39851 8317 c-53 -19 -76 -58 -76 -127 1 -70 24 -109 76 -127 23 -8
126 -12 322 -12 l287 -1 0 -1186 c0 -1315 -4 -1236 65 -1268 67 -32 166 -9
192 44 10 20 13 284 13 1218 l0 1192 290 0 c323 0 344 3 380 62 27 43 24 136
-6 169 -44 50 -35 49 -796 48 -525 0 -722 -3 -747 -12z"/>
<path d="M42681 8320 c-322 -45 -592 -281 -683 -595 l-23 -80 0 -690 c0 -687
0 -690 23 -768 81 -281 299 -499 579 -579 111 -32 323 -32 436 0 307 87 539
344 593 653 22 130 15 1356 -8 1439 -54 189 -140 323 -283 443 -164 138 -413
207 -634 177z m254 -285 c99 -26 165 -64 246 -145 79 -79 119 -144 144 -241
23 -84 22 -1305 -1 -1392 -46 -180 -193 -328 -376 -382 -76 -22 -229 -22 -305
0 -181 52 -323 194 -380 380 -17 56 -18 107 -18 695 0 580 2 641 18 700 51
186 209 342 390 386 73 17 212 17 282 -1z"/>
<path d="M45185 8316 c-55 -24 -70 -51 -70 -126 0 -54 4 -73 20 -90 41 -47 66
-50 375 -50 l290 0 0 -1190 c0 -1321 -4 -1237 65 -1266 75 -31 162 -8 189 51
14 29 16 160 16 1219 l0 1186 288 1 c195 0 298 4 321 12 53 18 76 58 76 127 0
69 -23 109 -76 127 -52 18 -1453 17 -1494 -1z"/>
<path d="M47379 8314 c-75 -31 -69 78 -69 -1359 0 -1426 -5 -1332 65 -1361 72
-30 162 -9 189 45 14 26 16 109 16 671 l0 640 550 0 550 0 0 -630 c0 -669 0
-671 47 -713 11 -10 42 -20 69 -23 61 -8 115 13 141 52 17 27 18 87 21 1264 2
679 0 1264 -3 1299 -6 52 -12 70 -34 92 -54 53 -171 46 -215 -14 -21 -28 -21
-39 -24 -538 l-3 -509 -549 0 -550 0 0 501 c0 565 1 554 -71 583 -48 20 -83
20 -130 0z"/>
<path d="M50414 8316 c-17 -8 -40 -26 -52 -40 -12 -16 -197 -556 -437 -1277
-392 -1174 -417 -1254 -413 -1307 4 -44 10 -60 32 -78 31 -27 82 -39 130 -30
71 13 76 22 191 366 l108 320 495 -2 495 -3 104 -310 c122 -368 124 -370 229
-370 61 0 68 3 94 32 61 68 85 -17 -379 1373 -232 697 -429 1276 -437 1289
-19 26 -72 51 -106 51 -13 -1 -37 -7 -54 -14z m256 -1176 c110 -326 200 -595
200 -597 0 -1 -180 -3 -400 -3 -220 0 -400 3 -400 7 0 11 394 1192 397 1189 1
-1 92 -269 203 -596z"/>
<path d="M52048 8314 c-49 -21 -72 -69 -66 -140 3 -34 12 -62 24 -75 40 -46
66 -49 367 -49 l284 0 7 -1197 c8 -1322 3 -1230 71 -1259 75 -31 162 -8 189
51 14 29 16 160 16 1219 l0 1186 288 1 c195 0 298 4 321 12 53 18 76 57 76
127 0 70 -23 109 -76 127 -25 9 -221 12 -749 12 -618 0 -720 -2 -752 -15z"/>
<path d="M55691 8318 c-82 -11 -191 -54 -264 -102 -88 -59 -191 -175 -237
-270 -72 -145 -71 -130 -68 -1024 3 -744 5 -801 22 -852 64 -190 191 -338 361
-420 137 -66 174 -70 695 -70 502 0 510 1 547 56 17 27 18 68 18 769 0 701 -1
742 -18 769 -34 51 -64 56 -321 56 -271 0 -302 -6 -331 -67 -25 -52 -16 -136
17 -169 34 -35 81 -43 241 -44 l137 0 0 -543 0 -544 -332 -6 c-371 -6 -456 0
-538 40 -109 53 -197 170 -220 292 -13 71 -14 1459 0 1530 23 122 112 236 230
294 l65 32 495 5 c361 4 501 8 516 17 39 22 56 61 56 125 0 71 -21 107 -73
125 -41 14 -898 16 -998 1z"/>
<path d="M58022 8320 c-97 -14 -169 -37 -267 -88 -73 -38 -108 -65 -190 -147
-103 -103 -149 -169 -192 -275 -53 -133 -54 -146 -51 -889 l3 -686 27 -80
c101 -293 345 -509 635 -560 413 -74 803 158 941 560 l27 80 0 715 0 715 -23
75 c-88 280 -321 501 -595 565 -81 19 -236 26 -315 15z m257 -285 c141 -34
284 -146 349 -275 62 -124 63 -143 60 -844 l-3 -631 -26 -67 c-14 -37 -41 -90
-59 -118 -67 -105 -202 -200 -325 -229 -62 -16 -204 -16 -270 -1 -195 44 -371
230 -405 430 -8 45 -10 263 -8 695 l3 630 27 69 c65 168 204 296 369 340 71
19 208 19 288 1z"/>
<path d="M60255 8324 c-240 -33 -391 -115 -551 -296 -66 -76 -147 -234 -170
-333 -14 -59 -17 -161 -21 -665 -5 -661 0 -763 46 -897 54 -157 184 -323 326
-418 256 -169 605 -179 869 -23 142 84 286 250 347 399 58 142 59 159 59 856
0 393 -4 663 -11 702 -25 156 -98 298 -217 422 -116 122 -255 203 -402 234
-72 15 -226 26 -275 19z m224 -289 c200 -47 369 -233 401 -441 7 -47 10 -276
8 -685 l-3 -614 -23 -65 c-65 -178 -197 -303 -375 -355 -66 -19 -208 -22 -282
-5 -167 37 -317 171 -386 345 l-24 60 -3 647 c-2 557 -1 656 13 714 43 187
200 348 388 399 69 18 207 18 286 0z"/>
<path d="M61791 8317 c-19 -6 -44 -25 -55 -40 l-21 -28 -3 -1282 c-2 -1205 -1
-1284 15 -1317 36 -72 28 -71 583 -68 487 3 496 4 565 27 112 37 193 87 281
175 88 88 138 168 176 281 l23 70 3 784 c3 883 3 880 -67 1025 -84 172 -237
302 -421 357 -73 22 -90 23 -560 26 -365 2 -493 0 -519 -10z m1049 -298 c129
-60 223 -188 241 -325 11 -91 11 -1401 0 -1481 -27 -184 -175 -330 -357 -354
-81 -10 -496 -12 -636 -2 l-98 6 0 1094 0 1094 398 -3 397 -3 55 -26z"/>
<path d="M64920 8313 c-20 -10 -43 -33 -53 -53 -16 -33 -17 -111 -15 -1320 3
-1413 -1 -1314 64 -1345 65 -31 157 -11 191 41 17 27 18 81 23 1015 l5 987
550 -991 c303 -545 564 -1007 582 -1027 29 -33 35 -35 91 -35 32 0 71 6 85 14
60 32 57 -41 57 1353 0 1192 -1 1275 -18 1308 -24 49 -74 73 -136 66 -57 -6
-92 -27 -109 -64 -9 -20 -13 -274 -17 -1009 l-5 -983 -99 178 c-788 1420
-1024 1836 -1048 1853 -39 29 -106 34 -148 12z"/>
<path d="M67125 8317 c-16 -8 -39 -24 -50 -37 -20 -22 -20 -38 -23 -1311 -2
-1081 0 -1294 12 -1322 24 -59 115 -84 191 -53 70 29 65 -65 65 1360 0 950 -3
1292 -12 1310 -6 14 -22 33 -35 41 -34 22 -112 28 -148 12z"/>
<path d="M68480 8324 c-241 -36 -433 -172 -535 -379 -73 -147 -70 -111 -70
-985 0 -876 -2 -845 70 -995 77 -162 218 -286 394 -349 l86 -31 490 -3 c343
-2 501 0 528 8 25 7 45 22 57 43 19 31 20 56 20 765 0 632 -2 738 -15 766 -28
59 -35 61 -315 64 -228 2 -259 1 -290 -15 -44 -23 -60 -54 -60 -120 0 -119 29
-136 248 -141 l162 -4 0 -542 0 -543 -338 -6 c-366 -7 -445 -1 -529 38 -76 34
-157 115 -196 194 l-32 66 -3 775 c-3 765 -2 776 18 841 39 122 141 223 262
261 55 16 100 18 519 18 489 0 501 1 543 49 27 30 33 118 11 164 -31 66 -38
67 -548 66 -248 -1 -463 -3 -477 -5z"/>
<path d="M70140 8313 c-20 -10 -43 -33 -52 -53 -17 -33 -18 -116 -18 -1303 0
-1352 -2 -1306 47 -1350 29 -25 110 -33 155 -14 77 32 73 -6 76 714 l3 643
544 0 544 0 3 -643 c3 -603 4 -645 21 -671 35 -52 126 -72 192 -40 69 33 65
-56 65 1356 0 1192 -1 1275 -18 1308 -24 49 -74 73 -136 66 -57 -6 -92 -27
-109 -64 -12 -27 -13 -90 -16 -794 l-1 -238 -544 0 -545 0 -3 508 c-3 464 -5
510 -20 535 -23 34 -48 47 -106 53 -34 4 -57 0 -82 -13z"/>
<path d="M72345 8316 c-55 -24 -70 -51 -70 -126 0 -54 4 -73 20 -90 41 -47 66
-50 375 -50 l290 0 0 -1190 c0 -1321 -4 -1237 65 -1266 76 -31 167 -6 191 52
12 28 14 235 14 1219 l0 1185 288 1 c195 0 298 4 321 12 53 18 76 58 76 127 0
69 -23 109 -76 127 -52 18 -1453 17 -1494 -1z"/>
<path d="M74528 5974 c-47 -25 -58 -60 -58 -189 0 -134 12 -168 65 -191 72
-30 162 -9 189 45 12 22 16 60 16 146 0 130 -11 165 -60 190 -37 19 -117 19
-152 -1z"/>
</g>
</svg>
