<?xml version="1.0" standalone="no"?>
<!DOCTYPE svg PUBLIC "-//W3C//DTD SVG 20010904//EN"
 "http://www.w3.org/TR/2001/REC-SVG-20010904/DTD/svg10.dtd">
<svg version="1.0" xmlns="http://www.w3.org/2000/svg"
 width="4000.000000pt" height="3000.000000pt" viewBox="0 0 4000.000000 3000.000000"
 preserveAspectRatio="xMidYMid meet">

<g transform="translate(0.000000,3000.000000) scale(0.100000,-0.100000)"
fill="#000000" stroke="none">
<path d="M15290 18183 l-1 -1148 -57 110 c-178 344 -425 594 -742 753 -216
108 -374 149 -610 159 -361 14 -714 -88 -1022 -294 -438 -293 -723 -786 -757
-1311 -26 -404 70 -762 296 -1101 80 -120 232 -287 337 -370 417 -330 933
-455 1450 -350 710 144 1259 732 1360 1458 14 97 16 317 16 1676 l0 1565 -135
0 -135 0 0 -1147z m-1205 -399 c382 -67 743 -303 962 -629 94 -140 182 -353
219 -530 27 -127 27 -472 1 -594 -65 -302 -193 -538 -406 -752 -212 -211 -458
-344 -751 -406 -122 -26 -450 -25 -570 1 -199 43 -408 135 -570 252 -296 212
-510 547 -580 910 -129 669 192 1323 795 1619 287 141 587 184 900 129z"/>
<path d="M5027 18049 c-416 -48 -831 -264 -1099 -573 -199 -230 -340 -512
-398 -795 -181 -887 337 -1753 1204 -2015 268 -81 563 -94 848 -36 439 90 849
369 1094 745 172 266 283 619 284 903 l0 52 -135 0 -135 0 0 -74 c0 -99 -32
-279 -69 -394 -165 -504 -585 -878 -1111 -989 -65 -14 -131 -18 -285 -18 -173
0 -214 3 -304 23 -136 31 -222 62 -353 129 -145 74 -263 159 -378 273 -205
204 -338 452 -401 750 -18 87 -23 138 -23 295 -1 105 3 207 7 228 l8 37 1580
0 1581 0 -7 43 c-25 151 -96 357 -172 497 -241 447 -644 761 -1128 880 -192
47 -417 62 -608 39z m458 -265 c452 -79 836 -371 1051 -799 l65 -130 -1367 -3
c-752 -1 -1370 0 -1372 3 -3 3 25 65 61 137 233 466 672 766 1187 812 80 7
282 -4 375 -20z"/>
<path d="M9440 18050 c-287 -40 -560 -161 -780 -346 -181 -151 -313 -319 -436
-558 l-63 -121 -1 483 0 482 -135 0 -135 0 0 -1665 0 -1665 135 0 134 0 4 943
c3 911 4 945 24 1032 65 285 193 515 398 721 210 210 464 349 755 411 66 14
130 18 290 18 160 0 224 -4 290 -18 584 -125 1004 -541 1146 -1137 17 -69 18
-154 21 -1022 l4 -948 135 0 135 0 -4 943 c-4 1026 -2 986 -63 1202 -179 631
-717 1115 -1369 1230 -106 19 -392 28 -485 15z"/>
<path d="M24200 18053 c-175 -17 -366 -66 -519 -132 -540 -234 -921 -715
-1027 -1296 -23 -125 -26 -451 -6 -565 97 -542 397 -976 858 -1241 297 -171
637 -248 962 -219 386 34 676 165 957 432 145 137 242 268 342 463 l62 120 1
-477 0 -478 136 0 135 0 -4 928 c-4 899 -5 931 -26 1041 -144 763 -752 1333
-1516 1421 -84 9 -276 11 -355 3z m415 -268 c139 -24 248 -61 390 -130 423
-208 710 -588 802 -1060 24 -126 24 -416 -1 -540 -92 -468 -368 -837 -783
-1048 -132 -67 -218 -98 -354 -129 -90 -20 -131 -23 -304 -23 -154 0 -220 4
-285 18 -581 122 -1023 559 -1152 1137 -20 92 -23 132 -23 315 0 234 10 300
70 482 125 375 387 672 751 852 156 77 330 125 519 145 72 7 278 -3 370 -19z"/>
<path d="M28675 18053 c-257 -33 -464 -109 -672 -245 -236 -154 -436 -384
-576 -660 l-54 -107 -6 346 c-4 191 -7 404 -7 475 l0 128 -130 0 -130 0 0
-1665 0 -1665 130 0 130 0 0 864 c0 527 4 904 10 967 50 492 349 918 805 1146
126 64 214 95 346 125 90 20 131 23 309 23 228 0 296 -10 477 -70 213 -71 393
-184 558 -349 219 -220 349 -468 412 -783 15 -79 17 -187 20 -1005 l4 -918
130 0 129 0 0 906 c0 980 -1 1010 -55 1209 -84 311 -242 574 -481 805 -323
311 -758 484 -1202 479 -64 -1 -130 -4 -147 -6z"/>
<path d="M32798 18045 c-366 -50 -700 -213 -967 -470 -262 -254 -431 -561
-503 -918 -20 -96 -23 -142 -23 -332 0 -171 4 -239 18 -307 126 -620 519
-1090 1099 -1314 156 -61 309 -92 526 -109 l82 -6 0 129 0 129 -112 6 c-403
24 -809 247 -1064 586 -73 98 -170 281 -209 395 -105 308 -106 662 -4 969 181
545 672 939 1243 996 60 6 118 11 128 11 16 0 18 11 18 125 l0 125 -67 -1
c-38 -1 -112 -7 -165 -14z"/>
<path d="M35196 18045 c-271 -39 -524 -138 -761 -298 -132 -90 -342 -303 -434
-441 -195 -294 -288 -578 -298 -915 -7 -191 7 -326 47 -488 77 -305 232 -577
459 -803 297 -295 666 -465 1088 -500 302 -26 600 30 881 165 366 175 635 444
812 810 105 217 157 415 167 633 l6 122 -130 0 -130 0 -12 -128 c-20 -220 -79
-417 -178 -596 -223 -404 -635 -686 -1090 -747 -123 -16 -393 -6 -503 20 -342
79 -657 283 -866 561 -127 169 -232 418 -269 635 -18 107 -24 343 -11 453 l8
62 1579 0 1579 0 0 23 c0 40 -49 225 -86 325 -20 53 -56 135 -81 182 -253 473
-684 799 -1197 906 -154 32 -427 41 -580 19z m375 -245 c442 -44 822 -274
1074 -650 54 -80 155 -272 155 -294 0 -3 -616 -6 -1370 -6 -1300 0 -1369 1
-1363 18 21 60 101 211 155 292 88 132 273 317 404 403 287 189 609 270 945
237z"/>
<path d="M16360 17126 c0 -883 4 -987 40 -1164 72 -346 276 -694 546 -934 231
-204 543 -354 850 -409 167 -30 431 -30 598 0 306 54 614 203 849 408 268 234
475 589 547 935 37 181 40 268 40 1158 l0 870 -135 0 -134 0 -4 -937 c-3 -926
-3 -939 -25 -1035 -67 -292 -192 -520 -401 -729 -219 -217 -468 -349 -766
-405 -148 -28 -422 -26 -565 5 -299 64 -528 187 -741 400 -209 210 -333 435
-402 736 -20 87 -21 120 -24 1028 l-4 937 -134 0 -135 0 0 -864z"/>
<path d="M22095 17983 c-513 -65 -961 -340 -1243 -764 -121 -181 -221 -429
-264 -650 -21 -111 -21 -140 -25 -1011 l-4 -898 135 0 135 0 4 908 c3 893 4
908 25 997 73 298 198 530 392 726 263 265 571 404 963 434 l87 7 0 129 0 129
-87 -1 c-49 -1 -101 -4 -118 -6z"/>
</g>
</svg>
