<?xml version="1.0" standalone="no"?>
<!DOCTYPE svg PUBLIC "-//W3C//DTD SVG 20010904//EN"
 "http://www.w3.org/TR/2001/REC-SVG-20010904/DTD/svg10.dtd">
<svg version="1.0" xmlns="http://www.w3.org/2000/svg"
 width="2927.000000pt" height="615.000000pt" viewBox="0 0 2927.000000 615.000000"
 preserveAspectRatio="xMidYMid meet">

<g transform="translate(0.000000,615.000000) scale(0.100000,-0.100000)"
fill="#000000" stroke="none">
<path d="M7080 4667 c-21 -8 -42 -25 -55 -47 -19 -33 -20 -53 -23 -402 l-3
-368 -90 0 c-62 0 -99 -5 -120 -16 -54 -27 -75 -117 -44 -190 20 -48 63 -64
169 -64 l85 0 3 -783 c3 -739 4 -784 21 -811 35 -52 126 -72 192 -40 68 32 65
-2 65 858 l0 776 224 0 c133 0 235 4 254 11 84 29 97 192 18 240 -28 17 -52
19 -263 19 l-233 0 0 363 c0 325 -2 366 -18 397 -30 61 -104 84 -182 57z"/>
<path d="M10644 4661 c-23 -10 -45 -27 -50 -37 -5 -11 -11 -188 -14 -394 l-5
-375 -100 -5 c-55 -3 -108 -9 -117 -14 -47 -22 -70 -112 -44 -179 23 -60 45
-71 161 -77 l100 -5 5 -785 c4 -628 8 -790 18 -808 27 -48 120 -66 188 -37 66
27 64 -2 64 860 l0 775 225 0 c258 0 286 6 310 64 28 67 14 149 -31 187 -13
11 -70 15 -258 19 l-241 5 -5 375 c-6 416 -4 407 -73 435 -49 20 -83 19 -133
-4z"/>
<path d="M21145 4665 c-200 -42 -367 -176 -506 -407 -42 -69 -49 -89 -49 -132
0 -28 6 -62 13 -76 15 -31 71 -60 115 -60 63 0 94 24 157 123 121 187 243 278
381 285 168 9 315 -80 391 -237 26 -51 28 -66 28 -166 0 -97 -3 -116 -26 -165
-14 -30 -258 -428 -543 -884 l-516 -829 0 -57 c0 -69 23 -104 78 -120 25 -8
226 -10 630 -8 l594 3 28 32 c50 55 52 146 5 200 l-23 28 -458 7 c-251 4 -459
10 -462 12 -2 3 38 72 89 153 331 529 784 1263 808 1311 55 109 76 196 75 317
-1 197 -61 342 -199 481 -68 68 -97 89 -176 127 -52 25 -115 50 -141 56 -81
19 -217 22 -293 6z"/>
<path d="M23683 4664 c-18 -9 -38 -26 -46 -38 -8 -11 -265 -586 -571 -1276
-516 -1160 -558 -1258 -553 -1298 11 -99 127 -154 208 -99 31 21 82 132 597
1287 530 1191 562 1268 559 1313 -5 54 -32 91 -84 113 -42 18 -70 17 -110 -2z"/>
<path d="M25018 4670 c-227 -41 -412 -191 -548 -443 -36 -66 -42 -85 -37 -118
10 -75 62 -119 139 -119 54 0 90 32 161 137 76 116 168 205 247 242 47 22 69
26 150 26 86 0 101 -3 163 -32 85 -41 160 -116 201 -203 28 -59 31 -74 31
-165 0 -91 -3 -106 -31 -165 -17 -36 -262 -436 -544 -889 -554 -889 -542 -866
-503 -941 37 -72 19 -70 671 -70 630 0 632 0 667 53 19 30 22 116 6 156 -25
58 -40 61 -368 62 -164 1 -366 4 -449 8 l-151 6 100 160 c814 1309 829 1335
862 1460 23 87 21 241 -5 339 -58 225 -257 423 -485 481 -75 19 -214 27 -277
15z"/>
<path d="M1279 3822 c-21 -19 -34 -42 -40 -72 -11 -59 -11 -2481 0 -2540 14
-68 55 -100 129 -100 71 0 102 15 124 60 16 31 18 72 18 398 l0 362 303 0
c223 0 320 4 370 15 202 43 378 224 416 429 18 95 14 963 -4 1049 -41 197
-198 361 -390 412 -49 12 -134 15 -477 15 l-418 0 -31 -28z m897 -269 c65 -35
100 -69 128 -125 l26 -52 0 -474 c0 -342 -3 -486 -12 -516 -16 -55 -109 -148
-164 -164 -28 -8 -136 -12 -343 -12 l-301 0 0 686 0 685 313 -3 c299 -3 314
-4 353 -25z"/>
<path d="M3223 3840 c-13 -5 -32 -24 -43 -42 -20 -32 -20 -50 -20 -901 0 -964
-3 -924 64 -952 45 -19 97 -19 141 -1 68 29 65 -10 65 856 l0 780 275 0 275 0
1 -82 c1 -147 33 -191 139 -191 72 0 108 21 127 74 19 55 17 349 -3 399 -29
72 -16 70 -536 69 -255 0 -473 -4 -485 -9z"/>
<path d="M5330 3834 c-236 -50 -455 -272 -505 -511 -20 -94 -21 -769 -1 -858
28 -128 85 -232 181 -329 210 -214 523 -266 795 -133 69 33 102 58 176 132 75
74 98 105 132 175 69 143 74 192 70 622 l-4 373 -27 82 c-73 218 -276 403
-492 448 -87 18 -239 18 -325 -1z m306 -282 c77 -29 141 -77 190 -144 73 -99
77 -121 81 -463 3 -177 1 -330 -5 -374 -20 -144 -105 -262 -232 -324 -61 -30
-71 -32 -180 -32 -107 0 -119 2 -175 29 -111 55 -197 164 -224 286 -14 64 -14
653 0 721 32 153 152 277 304 316 65 16 177 10 241 -15z"/>
<path d="M8902 3835 c-182 -40 -364 -186 -452 -363 -64 -130 -65 -137 -65
-582 0 -365 2 -411 18 -465 35 -113 85 -194 182 -291 75 -75 105 -98 175 -132
348 -167 751 -30 921 313 64 129 69 171 69 580 0 411 -5 450 -72 585 -84 172
-269 317 -453 355 -87 18 -239 18 -323 0z m310 -285 c106 -40 195 -129 241
-241 20 -51 22 -73 25 -380 4 -352 -1 -410 -43 -496 -34 -68 -122 -155 -193
-190 -53 -26 -66 -28 -177 -28 -113 0 -123 2 -179 30 -116 58 -195 160 -221
281 -21 98 -21 630 0 728 52 246 310 385 547 296z"/>
<path d="M12004 3831 c-32 -20 -54 -64 -54 -110 0 -14 122 -391 271 -838 l271
-813 -114 -343 -115 -342 -109 -5 c-122 -6 -164 -21 -189 -70 -34 -65 -6 -169
51 -190 14 -6 111 -10 216 -10 l190 0 33 33 c29 29 70 145 449 1289 311 938
416 1268 416 1303 0 40 -5 52 -34 81 -31 31 -39 34 -96 34 -110 0 -95 30 -335
-690 -114 -344 -210 -629 -213 -634 -3 -5 -100 274 -217 620 -116 346 -217
639 -224 651 -27 52 -137 71 -197 34z"/>
<path d="M13915 3817 c-26 -26 -34 -44 -40 -88 -3 -29 -5 -612 -3 -1294 3
-1137 4 -1243 20 -1271 9 -16 28 -35 43 -42 37 -17 120 -15 156 4 57 29 59 47
59 444 l0 360 303 0 c337 0 392 7 498 61 86 43 196 153 237 239 58 118 62 157
62 655 0 265 -4 476 -11 514 -26 166 -139 320 -289 396 -102 52 -136 55 -585
55 l-417 0 -33 -33z m915 -273 c62 -35 114 -96 130 -152 6 -23 10 -213 10
-507 0 -451 -1 -472 -21 -515 -27 -60 -74 -107 -134 -136 -49 -23 -55 -24
-357 -24 l-308 0 0 686 0 685 313 -3 312 -3 55 -31z"/>
<path d="M16322 3835 c-240 -52 -456 -271 -507 -514 -23 -108 -22 -896 1 -985
24 -92 71 -173 144 -246 77 -77 141 -113 246 -140 70 -18 111 -20 471 -20 442
0 452 1 478 64 31 74 9 166 -47 198 -18 10 -121 14 -438 18 -461 6 -439 2
-514 77 -70 69 -80 105 -84 296 l-4 167 552 0 552 0 -4 278 c-4 269 -5 279
-31 358 -73 219 -275 404 -492 449 -86 18 -239 18 -323 0z m311 -285 c110 -41
209 -145 243 -256 9 -27 18 -97 21 -156 l6 -108 -417 0 -416 0 0 79 c0 157 36
258 123 345 90 90 189 129 312 122 39 -2 96 -14 128 -26z"/>
<path d="M19296 3225 c-421 -158 -576 -220 -597 -241 -54 -52 -46 -159 15
-200 15 -9 284 -113 599 -231 507 -191 576 -214 612 -208 78 12 107 49 106
138 0 55 -19 90 -59 111 -15 8 -182 72 -372 144 -190 72 -358 136 -375 142
-28 11 -10 19 340 150 204 77 385 147 403 157 19 9 40 30 49 46 17 34 19 117
3 147 -17 33 -70 60 -115 60 -27 -1 -225 -71 -609 -215z"/>
<path d="M26413 3420 c-42 -25 -53 -48 -53 -109 0 -63 15 -97 54 -120 17 -10
198 -80 403 -157 204 -76 369 -142 365 -145 -4 -3 -167 -65 -362 -139 -391
-146 -422 -160 -444 -192 -36 -50 -13 -155 41 -193 57 -40 56 -40 669 190 319
119 587 224 598 233 24 21 46 73 46 108 0 39 -27 88 -58 106 -15 9 -279 111
-588 227 -380 143 -574 211 -600 211 -21 0 -53 -9 -71 -20z"/>
</g>
</svg>
