<?xml version="1.0" standalone="no"?>
<!DOCTYPE svg PUBLIC "-//W3C//DTD SVG 20010904//EN"
 "http://www.w3.org/TR/2001/REC-SVG-20010904/DTD/svg10.dtd">
<svg version="1.0" xmlns="http://www.w3.org/2000/svg"
 width="1856.000000pt" height="396.000000pt" viewBox="0 0 1856.000000 396.000000"
 preserveAspectRatio="xMidYMid meet">

<g transform="translate(0.000000,396.000000) scale(0.100000,-0.100000)"
fill="#000000" stroke="none">
<path d="M5749 3203 c-66 -34 -113 -94 -128 -163 -15 -71 -15 -2229 0 -2300 6
-28 25 -70 42 -93 40 -52 124 -97 182 -97 58 0 142 45 182 97 17 23 36 65 42
93 15 71 15 2229 0 2300 -6 28 -25 70 -42 93 -40 52 -124 97 -182 97 -25 0
-62 -11 -96 -27z"/>
<path d="M8149 3203 c-66 -34 -113 -94 -128 -163 -15 -71 -15 -2229 0 -2300 6
-28 25 -70 42 -93 40 -52 124 -97 182 -97 58 0 142 45 182 97 17 23 36 65 42
93 15 71 15 2229 0 2300 -6 28 -25 70 -42 93 -40 52 -124 97 -182 97 -25 0
-62 -11 -96 -27z"/>
<path d="M9289 3203 c-66 -34 -113 -94 -128 -163 -15 -71 -15 -2229 0 -2300 6
-28 25 -70 42 -93 40 -52 124 -97 182 -97 58 0 142 45 182 97 17 23 36 65 42
93 15 71 15 2229 0 2300 -6 28 -25 70 -42 93 -40 52 -124 97 -182 97 -25 0
-62 -11 -96 -27z"/>
<path d="M11689 3203 c-66 -34 -113 -94 -128 -163 -15 -71 -15 -2229 0 -2300
6 -28 25 -70 42 -93 40 -52 124 -97 182 -97 58 0 142 45 182 97 17 23 36 65
42 93 15 71 15 2229 0 2300 -6 28 -25 70 -42 93 -40 52 -124 97 -182 97 -25 0
-62 -11 -96 -27z"/>
<path d="M12829 3203 c-66 -34 -113 -94 -128 -163 -15 -71 -15 -2229 0 -2300
6 -28 25 -70 42 -93 40 -52 124 -97 182 -97 58 0 142 45 182 97 17 23 36 65
42 93 15 71 15 2229 0 2300 -6 28 -25 70 -42 93 -40 52 -124 97 -182 97 -25 0
-62 -11 -96 -27z"/>
<path d="M2044 2230 c-89 -28 -181 -123 -205 -213 -35 -129 33 -270 164 -339
60 -32 184 -32 244 0 63 33 106 74 139 134 25 46 29 63 29 133 0 70 -4 87 -29
133 -55 98 -140 153 -246 158 -36 2 -79 -1 -96 -6z"/>
<path d="M3304 2230 c-89 -28 -181 -123 -205 -213 -35 -129 33 -270 164 -339
60 -32 184 -32 244 0 63 33 106 74 139 134 25 46 29 63 29 133 0 70 -4 87 -29
133 -55 98 -140 153 -246 158 -36 2 -79 -1 -96 -6z"/>
<path d="M4564 2230 c-89 -28 -181 -123 -205 -213 -35 -129 33 -270 164 -339
60 -32 184 -32 244 0 63 33 106 74 139 134 25 46 29 63 29 133 0 70 -4 87 -29
133 -55 98 -140 153 -246 158 -36 2 -79 -1 -96 -6z"/>
<path d="M6964 2230 c-89 -28 -181 -123 -205 -213 -35 -129 33 -270 164 -339
60 -32 184 -32 244 0 63 33 106 74 139 134 25 46 29 63 29 133 0 70 -4 87 -29
133 -55 98 -140 153 -246 158 -36 2 -79 -1 -96 -6z"/>
<path d="M10504 2230 c-89 -28 -181 -123 -205 -213 -35 -129 33 -270 164 -339
60 -32 184 -32 244 0 63 33 106 74 139 134 25 46 29 63 29 133 0 70 -4 87 -29
133 -55 98 -140 153 -246 158 -36 2 -79 -1 -96 -6z"/>
</g>
</svg>
