<?xml version="1.0" standalone="no"?>
<!DOCTYPE svg PUBLIC "-//W3C//DTD SVG 20010904//EN"
 "http://www.w3.org/TR/2001/REC-SVG-20010904/DTD/svg10.dtd">
<svg version="1.0" xmlns="http://www.w3.org/2000/svg"
 width="4000.000000pt" height="3000.000000pt" viewBox="0 0 4000.000000 3000.000000"
 preserveAspectRatio="xMidYMid meet">

<g transform="translate(0.000000,3000.000000) scale(0.100000,-0.100000)"
fill="#000000" stroke="none">
<path d="M15567 17789 c-731 -64 -1251 -576 -1471 -1444 -141 -559 -161 -1341
-50 -1960 183 -1022 721 -1640 1502 -1724 562 -60 1062 145 1397 574 294 377
467 896 526 1580 16 184 16 670 0 860 -52 627 -211 1130 -469 1485 -337 462
-839 682 -1435 629z m275 -910 c299 -64 453 -402 509 -1119 16 -198 16 -830 0
-1025 -58 -733 -214 -1086 -511 -1154 -65 -15 -157 -13 -225 5 -253 65 -402
336 -475 864 -32 228 -43 440 -43 805 0 803 89 1256 292 1486 106 121 281 174
453 138z"/>
<path d="M19627 17790 c-803 -77 -1340 -672 -1521 -1685 -86 -475 -94 -1125
-20 -1595 128 -828 443 -1381 949 -1669 388 -221 928 -252 1355 -78 445 182
782 584 970 1155 173 528 231 1257 154 1932 -97 851 -424 1461 -939 1752 -145
82 -317 141 -495 172 -109 19 -340 27 -453 16z m367 -943 c240 -114 365 -438
417 -1077 16 -199 16 -849 0 -1045 -56 -681 -196 -1028 -454 -1127 -74 -28
-196 -35 -276 -14 -188 48 -308 193 -401 482 -154 483 -170 1691 -29 2249 84
331 230 523 429 565 25 5 89 7 143 5 87 -3 106 -7 171 -38z"/>
<path d="M23535 17794 c-445 -34 -771 -153 -1104 -404 -202 -152 -264 -236
-265 -356 0 -101 33 -155 198 -320 168 -167 219 -198 326 -198 84 0 142 27
262 121 204 161 387 234 581 233 313 -2 535 -166 613 -455 25 -93 30 -332 9
-436 -80 -399 -371 -858 -925 -1459 -164 -178 -557 -569 -804 -800 -295 -277
-321 -324 -321 -591 l0 -156 35 -69 c37 -73 91 -119 168 -146 50 -17 2873 -24
2972 -8 125 21 212 93 245 202 22 75 22 502 -1 578 -20 68 -56 122 -104 155
-76 53 -99 55 -546 55 -413 0 -625 -11 -899 -45 -66 -8 -126 -15 -134 -15 -7
0 51 69 131 153 282 298 437 479 629 733 399 527 632 1009 695 1437 23 154 15
450 -15 590 -142 655 -607 1081 -1292 1181 -107 16 -361 27 -454 20z"/>
</g>
</svg>
