<?xml version="1.0" standalone="no"?>
<!DOCTYPE svg PUBLIC "-//W3C//DTD SVG 20010904//EN"
 "http://www.w3.org/TR/2001/REC-SVG-20010904/DTD/svg10.dtd">
<svg version="1.0" xmlns="http://www.w3.org/2000/svg"
 width="4000.000000pt" height="3000.000000pt" viewBox="0 0 4000.000000 3000.000000"
 preserveAspectRatio="xMidYMid meet">

<g transform="translate(0.000000,3000.000000) scale(0.100000,-0.100000)"
fill="#000000" stroke="none">
<path d="M23010 18181 c-19 -10 -44 -30 -55 -45 -20 -27 -20 -41 -23 -794 -2
-504 1 -779 7 -802 6 -20 24 -49 41 -65 l31 -30 440 -3 c492 -3 482 -4 519 68
19 37 20 58 20 335 l0 295 700 0 700 0 0 -303 0 -304 -1206 -849 c-932 -655
-1213 -858 -1233 -888 l-26 -40 -3 -675 c-2 -629 -1 -678 15 -710 10 -19 31
-44 46 -55 l28 -21 1646 -3 c1136 -1 1657 1 1684 8 22 6 54 24 72 40 l32 28 3
444 c2 420 1 445 -17 474 -42 68 39 64 -1270 64 l-1181 0 0 28 c1 25 110 105
1216 886 l1214 859 18 56 c16 51 17 133 17 992 l0 936 -28 37 c-16 20 -40 41
-54 47 -15 5 -670 9 -1671 9 -1584 0 -1649 -1 -1682 -19z"/>
<path d="M14288 18164 c-16 -8 -37 -32 -48 -54 -20 -39 -20 -57 -20 -2372 0
-2252 1 -2335 19 -2368 10 -19 30 -44 45 -55 27 -20 34 -20 1700 -20 1581 0
1673 1 1699 18 15 9 36 35 47 57 20 39 20 54 20 2371 l0 2331 -22 40 c-42 74
103 68 -1745 68 -1458 -1 -1671 -3 -1695 -16z m2402 -2424 l0 -1390 -705 0
-705 0 0 1390 0 1390 705 0 705 0 0 -1390z"/>
<path d="M18632 18164 c-12 -8 -31 -33 -42 -54 -20 -39 -20 -64 -20 -2372 0
-2252 1 -2335 19 -2368 10 -19 30 -44 45 -55 27 -20 34 -20 1700 -20 1581 0
1673 1 1699 18 15 9 36 35 47 57 20 39 20 54 20 2366 l0 2328 -21 43 c-38 79
116 73 -1751 73 -1503 0 -1676 -2 -1696 -16z m2408 -2424 l0 -1390 -705 0
-705 0 0 1390 0 1390 705 0 705 0 0 -1390z"/>
</g>
</svg>
