<?xml version="1.0" standalone="no"?>
<!DOCTYPE svg PUBLIC "-//W3C//DTD SVG 20010904//EN"
 "http://www.w3.org/TR/2001/REC-SVG-20010904/DTD/svg10.dtd">
<svg version="1.0" xmlns="http://www.w3.org/2000/svg"
 width="4000.000000pt" height="3000.000000pt" viewBox="0 0 4000.000000 3000.000000"
 preserveAspectRatio="xMidYMid meet">

<g transform="translate(0.000000,3000.000000) scale(0.100000,-0.100000)"
fill="#000000" stroke="none">
<path d="M13465 18831 c-48 -21 -90 -68 -119 -131 -20 -42 -21 -65 -24 -342
-3 -243 -1 -308 12 -357 20 -80 59 -136 115 -169 39 -23 58 -27 121 -27 94 0
150 28 197 98 49 73 55 122 51 454 -3 286 -4 300 -26 348 -47 101 -114 145
-222 145 -42 0 -79 -7 -105 -19z"/>
<path d="M14249 18827 c-49 -26 -101 -95 -121 -160 -9 -30 -13 -130 -13 -347
0 -292 1 -307 23 -360 69 -172 285 -216 402 -82 69 78 75 114 75 442 0 313 -6
357 -56 434 -61 91 -209 126 -310 73z"/>
<path d="M11554 18100 c-77 -25 -150 -88 -187 -162 -14 -29 -38 -96 -52 -148
-126 -459 -289 -840 -490 -1140 -113 -171 -188 -263 -337 -417 -131 -136 -167
-186 -200 -282 -22 -64 -23 -77 -23 -431 0 -360 0 -366 23 -423 64 -157 198
-188 352 -83 152 104 464 402 661 631 192 223 421 548 564 800 38 66 74 130
82 143 l13 22 776 0 776 0 -7 -87 c-16 -204 -90 -642 -113 -665 -4 -4 -322 -9
-707 -10 l-700 -3 -53 -24 c-66 -30 -127 -97 -149 -165 -21 -67 -31 -432 -13
-534 20 -120 83 -200 190 -243 28 -11 141 -15 532 -19 l498 -5 -65 -82 c-85
-108 -296 -325 -415 -428 -417 -358 -914 -629 -1398 -761 -53 -15 -120 -37
-149 -50 -70 -31 -145 -103 -174 -167 -24 -51 -24 -58 -24 -362 0 -306 0 -311
24 -363 43 -94 121 -142 233 -142 143 0 681 193 1063 380 718 352 1282 808
1716 1387 239 318 429 679 534 1013 150 480 257 1252 259 1875 l1 240 -27 51
c-31 59 -73 98 -138 128 -45 21 -54 21 -1072 24 l-1026 2 15 63 c43 186 52
243 42 288 -13 58 -67 113 -139 141 -52 21 -72 23 -345 25 -266 2 -295 1 -351
-17z"/>
<path d="M19627 18026 c-61 -17 -124 -60 -159 -111 -61 -88 -59 -36 -56 -1467
l3 -1305 35 -68 c26 -52 47 -76 83 -102 80 -54 106 -58 392 -58 217 0 269 3
315 17 69 22 133 75 168 142 l27 51 3 1320 c2 939 0 1335 -8 1372 -22 102 -93
175 -200 207 -70 21 -528 22 -603 2z"/>
<path d="M22247 18029 c-91 -22 -160 -79 -199 -164 l-23 -50 -6 -1205 c-6
-1214 -7 -1245 -44 -1465 -64 -373 -204 -669 -430 -903 -250 -260 -536 -409
-1024 -533 -197 -50 -239 -67 -299 -123 -87 -81 -107 -185 -99 -531 5 -263 15
-311 75 -377 80 -89 178 -101 392 -48 742 184 1290 462 1685 855 354 352 586
801 695 1345 77 381 82 499 78 1845 l-3 1140 -23 50 c-30 65 -83 118 -146 147
-49 22 -62 23 -321 25 -148 1 -287 -2 -308 -8z"/>
<path d="M29780 17956 c-69 -15 -107 -35 -146 -78 -84 -88 -87 -121 -69 -597
17 -430 156 -2325 176 -2396 37 -131 123 -203 271 -226 89 -14 254 -6 324 15
87 27 167 112 196 211 18 62 158 1983 174 2394 15 368 15 410 0 468 -25 102
-80 164 -178 201 -36 14 -97 17 -368 19 -232 1 -341 -2 -380 -11z"/>
<path d="M24282 17771 c-71 -25 -121 -66 -157 -132 l-30 -54 -3 -289 c-4 -345
1 -370 83 -452 93 -94 42 -89 950 -89 909 0 856 -5 951 90 76 75 85 113 91
365 10 377 -24 484 -172 552 l-50 23 -805 2 c-759 2 -808 2 -858 -16z"/>
<path d="M27613 16652 c-138 -49 -180 -109 -273 -383 -212 -632 -493 -1104
-894 -1504 -501 -500 -1124 -803 -1930 -940 -234 -40 -306 -69 -363 -143 -60
-79 -64 -114 -61 -459 l3 -308 27 -51 c61 -116 167 -159 333 -134 797 117
1546 407 2155 834 347 243 721 608 987 961 351 468 642 1079 815 1708 33 124
39 161 36 217 -5 91 -39 142 -123 185 l-59 30 -300 2 c-270 3 -306 1 -353 -15z"/>
<path d="M15607 15609 c-102 -24 -183 -100 -211 -197 -23 -82 -24 -553 -1
-630 33 -109 120 -181 245 -202 45 -7 450 -10 1320 -8 l1255 3 55 22 c59 24
126 85 153 139 31 60 39 156 35 406 l-3 243 -29 63 c-37 80 -90 126 -174 152
-63 20 -96 20 -1336 19 -700 -1 -1288 -5 -1309 -10z"/>
<path d="M29971 14215 c-135 -30 -285 -122 -370 -228 -297 -374 -185 -953 222
-1151 204 -100 416 -101 622 -1 285 137 442 469 381 805 -43 236 -171 415
-366 513 -53 27 -126 54 -165 62 -87 18 -239 18 -324 0z"/>
</g>
</svg>
