<?xml version="1.0" standalone="no"?>
<!DOCTYPE svg PUBLIC "-//W3C//DTD SVG 20010904//EN"
 "http://www.w3.org/TR/2001/REC-SVG-20010904/DTD/svg10.dtd">
<svg version="1.0" xmlns="http://www.w3.org/2000/svg"
 width="4000.000000pt" height="3000.000000pt" viewBox="0 0 4000.000000 3000.000000"
 preserveAspectRatio="xMidYMid meet">

<g transform="translate(0.000000,3000.000000) scale(0.100000,-0.100000)"
fill="#000000" stroke="none">
<path d="M28891 18163 c-40 -8 -69 -32 -91 -77 -20 -42 -20 -49 -20 -1790 0
-1739 0 -1747 20 -1787 12 -22 35 -49 53 -60 31 -19 49 -19 469 -17 l436 3 27
25 c58 53 55 -59 55 1842 0 1687 -1 1755 -19 1788 -10 19 -30 44 -45 55 -26
19 -42 20 -444 21 -229 1 -428 0 -441 -3z"/>
<path d="M11580 17793 c-29 -16 -65 -44 -80 -63 -23 -28 -96 -262 -380 -1206
-208 -693 -351 -1188 -352 -1213 0 -27 6 -49 17 -61 17 -19 34 -20 472 -20
429 0 456 1 492 19 59 31 98 82 122 164 11 39 55 185 98 322 l76 250 579 3
c461 2 577 0 573 -10 -2 -7 -66 -231 -142 -498 -76 -267 -139 -487 -141 -489
-2 -2 -213 62 -470 143 -428 135 -469 146 -500 136 -19 -7 -39 -20 -44 -31 -7
-12 -10 -178 -8 -473 l3 -454 30 -44 c44 -62 73 -78 241 -132 82 -26 219 -70
305 -98 l155 -50 -148 -521 c-81 -286 -148 -535 -148 -554 0 -53 24 -91 68
-102 49 -14 814 -15 863 -1 22 6 53 28 76 53 37 41 43 56 160 467 67 234 306
1067 531 1853 l409 1427 -394 0 c-269 0 -409 4 -441 12 -72 18 -127 80 -183
208 l-46 105 -520 3 -520 2 114 382 c62 210 113 398 113 419 0 29 -6 42 -26
58 -26 21 -37 21 -464 21 l-438 0 -52 -27z"/>
<path d="M13263 17690 c-27 -11 -43 -40 -43 -78 0 -16 75 -199 166 -408 177
-405 195 -436 279 -475 36 -17 68 -19 312 -19 186 0 280 4 298 12 16 7 29 25
36 48 11 35 5 50 -146 396 -87 197 -165 375 -175 394 -26 50 -101 116 -146
129 -47 13 -549 14 -581 1z"/>
<path d="M14222 17690 c-31 -13 -54 -69 -43 -106 17 -55 322 -739 345 -774 13
-19 43 -49 66 -65 l43 -30 294 -3 293 -3 25 25 c16 17 25 36 25 58 0 21 -59
171 -162 408 -150 344 -167 379 -213 426 -33 35 -63 56 -90 63 -49 13 -550 14
-583 1z"/>
<path d="M20193 17230 c-12 -5 -36 -28 -53 -51 l-30 -42 0 -1166 c0 -1138 1
-1167 20 -1198 42 -69 32 -68 451 -68 365 0 378 1 406 21 15 11 38 40 51 64
l22 44 0 1126 c0 790 -3 1137 -11 1165 -6 22 -28 56 -49 77 l-38 38 -373 -1
c-206 0 -384 -4 -396 -9z"/>
<path d="M22370 17233 c-20 -7 -59 -44 -73 -68 -9 -15 -13 -392 -17 -1445 -5
-1316 -7 -1430 -23 -1490 -10 -35 -141 -341 -292 -678 -184 -411 -275 -626
-275 -648 0 -23 9 -44 29 -66 l29 -33 416 -3 c276 -2 429 1 456 8 80 21 86 32
389 710 156 349 294 667 305 705 21 69 21 80 21 1496 l0 1425 -25 37 c-13 20
-35 41 -48 46 -24 11 -863 15 -892 4z"/>
<path d="M24228 17080 c-68 -37 -68 -35 -68 -459 l0 -379 27 -33 c51 -61 29
-59 760 -59 628 0 670 2 708 19 22 10 51 31 65 45 l25 28 3 369 c3 413 3 413
-65 459 l-37 25 -690 2 c-672 2 -692 2 -728 -17z"/>
<path d="M15055 15505 c-63 -22 -92 -62 -100 -137 -4 -35 -5 -208 -3 -385 3
-309 4 -323 24 -350 12 -15 35 -36 53 -47 31 -18 96 -18 2088 -17 2250 2 2083
-2 2137 61 l26 32 0 380 0 380 -38 38 c-21 21 -55 43 -77 49 -29 8 -614 11
-2055 11 -1711 -1 -2021 -3 -2055 -15z"/>
<path d="M26180 14680 c-630 -302 -1302 -625 -1495 -717 -224 -108 -364 -181
-389 -203 -77 -69 -76 -60 -76 -558 l0 -443 25 -24 c15 -16 35 -25 56 -25 37
0 3003 1415 3059 1459 19 16 48 52 63 81 l28 53 -3 445 -3 444 -24 19 c-14 11
-38 19 -60 18 -26 0 -344 -148 -1181 -549z"/>
<path d="M28839 13903 c-59 -50 -59 -50 -59 -535 0 -425 1 -443 20 -484 40
-82 19 -79 512 -79 423 0 437 1 464 20 15 11 35 36 45 55 18 32 19 66 19 488
0 434 -1 454 -20 492 -36 71 -27 70 -514 70 l-434 0 -33 -27z"/>
</g>
</svg>
