<?xml version="1.0" encoding="UTF-8" standalone="no"?>
<!-- Created with Inkscape (http://www.inkscape.org/) -->

<svg
   version="1.1"
   id="svg59"
   width="332"
   height="135"
   viewBox="0 0 332 135"
   sodipodi:docname="IMG_0878.svg"
   inkscape:version="1.2.1 (9c6d41e410, 2022-07-14)"
   xmlns:inkscape="http://www.inkscape.org/namespaces/inkscape"
   xmlns:sodipodi="http://sodipodi.sourceforge.net/DTD/sodipodi-0.dtd"
   xmlns="http://www.w3.org/2000/svg"
   xmlns:svg="http://www.w3.org/2000/svg">
  <defs
     id="defs63" />
  <sodipodi:namedview
     id="namedview61"
     pagecolor="#505050"
     bordercolor="#eeeeee"
     borderopacity="1"
     inkscape:showpageshadow="0"
     inkscape:pageopacity="0"
     inkscape:pagecheckerboard="0"
     inkscape:deskcolor="#505050"
     showgrid="false"
     inkscape:zoom="4.4728916"
     inkscape:cx="166"
     inkscape:cy="67.517845"
     inkscape:window-width="1920"
     inkscape:window-height="1027"
     inkscape:window-x="-8"
     inkscape:window-y="-8"
     inkscape:window-maximized="1"
     inkscape:current-layer="g65" />
  <g
     inkscape:groupmode="layer"
     inkscape:label="Image"
     id="g65">
    <path
       style="fill:#000000"
       d="m 55.793219,132.75 c -3.459143,-5.41695 -4.862978,-10.77722 -3.82858,-14.61868 1.264421,-4.6957 3.004448,-42.954674 3.022029,-66.447061 C 55.000335,33.420686 54.685308,31.624711 50.700723,27.25 48.668856,25.019196 48.668403,25 50.647547,25 c 1.097896,0 4.104711,0.71845 6.681811,1.596557 4.290956,1.462075 5.474584,1.462075 14.052005,0 C 76.532865,25.71845 81.029492,25 81.373866,25 82.437247,25 82.063958,13.481917 80.891583,10.118839 80.244078,8.2614057 78.520206,6.2861292 76.745961,5.3686314 74.397226,4.1540534 74.025115,3.5977154 75.104378,2.9143288 75.87197,2.428292 77.432338,2.0237348 78.571861,2.0153128 81.03077,1.9971394 89.80487,4.8752556 90.444209,5.9097289 90.689807,6.3071146 90.260084,8.4024924 89.489268,10.566124 87.890401,15.054046 87.535952,23 88.934624,23 c 2.243165,0 15.375976,-3.095863 17.141866,-4.040936 1.56172,-0.835808 2.81831,-0.439508 6.383,2.013064 5.64599,3.884543 5.91848,4.386042 4.2102,7.748504 -0.77662,1.528653 -2.85872,9.529368 -4.62687,17.779368 -4.01255,18.722034 -4.79083,19.959878 -12.650418,20.120181 -8.037274,0.163927 -24.5271,2.499415 -24.176828,3.424213 0.156434,0.413023 4.606484,4.598123 9.888999,9.300222 l 9.604573,8.549271 7.489534,-6.696944 C 112.55163,71.93961 118.28206,65.145884 117.4445,63.122219 116.07136,59.804517 115.7919,58 116.65123,58 118.68542,58 130,66.517926 130,68.049314 c 0,0.385377 -1.2375,0.955265 -2.75,1.266417 -1.5125,0.311152 -6.93933,3.718055 -12.05962,7.570896 -5.12029,3.852841 -11.30699,8.267012 -13.74821,9.809269 -2.441229,1.542257 -4.439398,3.061693 -4.440382,3.376524 -0.0024,0.783352 10.796502,10.21047 20.498212,17.89425 7.2269,5.72372 20.33542,13.0373 28.41693,15.85453 1.69569,0.59112 3.08307,1.59795 3.08307,2.2374 0,0.83485 -3.05665,1.05803 -10.84155,0.79157 -10.17936,-0.34842 -11.08028,-0.55136 -14.75,-3.32249 -6.1073,-4.61184 -24.296047,-22.60085 -39.099769,-38.670411 L 70.819394,70.214537 66.659697,70.733612 c -2.287833,0.28549 -4.513792,0.838814 -4.946574,1.229608 -1.010749,0.912686 -3.186114,48.89712 -2.258782,49.82445 0.383778,0.38378 8.108325,-3.06667 17.165659,-7.66767 9.057334,-4.601 16.66514,-8.16819 16.906235,-7.9271 0.241095,0.2411 -6.748445,5.76732 -15.532312,12.28051 -8.783866,6.51318 -16.661272,12.89615 -17.505347,14.18437 -1.916258,2.92458 -2.874654,2.9434 -4.695357,0.0922 z m 28.187171,-68.592562 18.48039,-2.695523 1.20816,-6.980958 c 1.80704,-10.441454 2.07088,-9.828988 -3.91894,-9.097325 -2.8875,0.352711 -12.785968,2.098185 -21.996595,3.87883 L 61.006811,52.5 l -0.0034,7.25 c -0.0041,8.632403 -2.589303,8.136501 22.976985,4.407438 z M 79.126255,44.55821 c 6.944441,-1.336993 15.326845,-2.736434 18.627566,-3.109868 3.300719,-0.373434 6.444039,-0.964579 6.985139,-1.313656 1.49537,-0.964686 3.42839,-13.36734 2.26473,-14.530998 -0.88548,-0.885483 -19.835088,1.94552 -38.466513,5.746759 -6.674462,1.361743 -7.255203,2.212812 -7.437497,10.899553 -0.09528,4.540562 0.02157,4.74976 2.65032,4.744553 1.5125,-0.003 8.431815,-1.09935 15.376255,-2.436343 z M 10.582689,128.82557 C 6.7120877,124.30364 3,117.3808 3,114.68428 c 0,-2.27285 0.8222931,-2.11917 3.0270578,0.56572 1.4766738,1.79825 2.211586,2.03607 3.6602926,1.18449 C 12.62287,114.70894 20.205962,102.73286 28.563181,86.623641 32.853065,78.35454 36.548594,72.145783 36.775468,72.826405 37.252752,74.258256 29.003018,98.018364 21.958792,115.5 c -2.65947,6.6 -5.136947,13.2375 -5.505504,14.75 -0.368557,1.5125 -1.036255,2.75 -1.483773,2.75 -0.447518,0 -2.421589,-1.87849 -4.386826,-4.17443 z M 272.81957,112.64992 C 250.18871,88.771436 232.73118,71 231.90531,71 c -0.38343,0 -3.78141,4.351086 -7.55105,9.66908 -8.55675,12.071345 -21.28015,25.18023 -32.31474,33.29378 C 183.45727,120.27325 172,126.70433 172,125.21125 c 0,-0.44964 2.5875,-2.65719 5.75,-4.90565 25.63693,-18.22727 49.52824,-52.217746 63.72122,-90.657 l 3.63745,-9.851399 -2.02557,-4.094035 c -1.11406,-2.251719 -1.80786,-4.311739 -1.54178,-4.577824 0.88507,-0.88507 7.31605,2.751006 11.41465,6.453846 3.95831,3.576095 5.04218,5.921264 3.04453,6.587479 C 255.45078,24.35 252.61808,29.675 249.70563,36 c -2.91246,6.325 -7.81151,16.085575 -10.88679,21.690166 l -5.59141,10.190166 3.28282,2.309834 c 1.80555,1.270409 11.09188,8.987596 20.63628,17.149305 28.15171,24.073369 36.85814,29.931789 53.10347,35.732449 3.7125,1.32561 6.75,2.7011 6.75,3.05664 0,0.54994 -8.24874,1.67212 -24.21329,3.29403 -3.64831,0.37065 -3.99773,0.0771 -19.96714,-16.77267 z M 19.964461,59.169252 C 14.847193,55.897426 4.7048842,46.961782 5.3623035,46.304363 c 0.2421282,-0.242128 3.9721623,0.778706 8.2889645,2.26852 8.334637,2.876449 13.560092,7.205773 13.094388,10.848789 -0.374208,2.927285 -1.896643,2.870615 -6.781195,-0.25242 z M 25.775428,23.974639 C 20.78667,20.670223 12.485174,12.181493 13.373585,11.293082 c 0.305195,-0.305196 2.254058,0.251402 4.330806,1.236884 2.076748,0.985481 6.0176,2.289587 8.75745,2.898012 3.918005,0.870053 5.467953,1.828011 7.259851,4.487008 C 34.974762,21.774415 36,24.129219 36,25.147883 c 0,2.892847 -4.94204,2.32576 -10.224572,-1.173244 z"
       id="path295" />
  </g>
</svg>
