<?xml version="1.0" encoding="UTF-8" standalone="no"?>
<!-- Created with Inkscape (http://www.inkscape.org/) -->

<svg
   version="1.1"
   id="svg220"
   width="2894"
   height="871"
   viewBox="0 0 2894 871"
   sodipodi:docname="pegasus1.svg"
   inkscape:version="1.2.1 (9c6d41e410, 2022-07-14)"
   xmlns:inkscape="http://www.inkscape.org/namespaces/inkscape"
   xmlns:sodipodi="http://sodipodi.sourceforge.net/DTD/sodipodi-0.dtd"
   xmlns="http://www.w3.org/2000/svg"
   xmlns:svg="http://www.w3.org/2000/svg">
  <defs
     id="defs224" />
  <sodipodi:namedview
     id="namedview222"
     pagecolor="#505050"
     bordercolor="#eeeeee"
     borderopacity="1"
     inkscape:showpageshadow="0"
     inkscape:pageopacity="0"
     inkscape:pagecheckerboard="0"
     inkscape:deskcolor="#505050"
     showgrid="false"
     inkscape:zoom="0.41810643"
     inkscape:cx="1448.1959"
     inkscape:cy="435.29587"
     inkscape:window-width="1920"
     inkscape:window-height="1027"
     inkscape:window-x="-8"
     inkscape:window-y="-8"
     inkscape:window-maximized="1"
     inkscape:current-layer="g226" />
  <g
     inkscape:groupmode="layer"
     inkscape:label="Image"
     id="g226">
    <path
       style="fill:#000000"
       d="m 425.78347,503.46063 v -76.9724 l 83.25,-0.27759 83.25,-0.27758 7.87114,-3.75824 c 15.76134,-7.52558 27.28677,-22.63647 29.71432,-38.95819 3.87215,-26.03448 -14.06725,-51.85809 -39.81565,-57.31429 -5.39137,-1.14246 -17.66502,-1.43809 -60.27853,-1.45192 l -53.50872,-0.0174 -21.011,-21.25 c -11.55605,-11.68751 -22.79959,-23.1816 -24.98566,-25.54244 l -3.97466,-4.29243 85.49438,0.34794 c 84.40163,0.34349 85.59185,0.37588 93.11986,2.534 20.79502,5.96149 37.929,16.76854 51.40294,32.4218 16.79964,19.51685 24.67327,40.74917 24.76462,66.78113 0.10292,29.3275 -8.68178,51.15311 -28.79304,71.53647 -11.50153,11.65714 -21.03326,18.28056 -33.92003,23.57039 -17.47864,7.17473 -17.33364,7.16139 -82.82997,7.62175 l -58.75,0.41294 v 50.92922 50.92922 h -25.5 -25.5 z m 300,74.6583 c 0,-1.74095 6.21149,-8.05697 25.07793,-25.5 l 25.07794,-23.18588 h 76.92206 76.92207 v 25.5 25.5 h -102 -102 z m 378.22983,1.27983 c -33.9069,-4.27172 -63.2821,-18.97525 -88.7733,-44.43473 -22.47318,-22.44524 -36.39656,-47.46389 -42.48027,-76.33197 -2.68921,-12.76069 -3.64408,-36.33979 -2.03168,-50.16963 4.26691,-36.59818 19.26223,-65.76058 47.94875,-93.24911 31.3556,-30.04616 66.3723,-43.13339 110.9731,-41.47534 29.4015,1.093 54.2882,9.04109 78.1336,24.95355 8.1494,5.43825 24,18.47678 24,19.74214 0,0.43132 -8.1271,8.69612 -18.0603,18.36621 l -18.0603,17.58198 -6.3471,-5.38447 c -26.6975,-22.64817 -61.8074,-29.95427 -96.1382,-20.0056 -25.685,7.44321 -49.4815,27.72764 -62.1904,53.01176 -13.5422,26.942 -12.8994,65.28034 1.5542,92.70732 19.5741,37.14333 58.2902,57.66848 101.1686,53.63396 22.8157,-2.14679 43.5514,-11.65104 60.1109,-27.55199 l 6.5374,-6.27742 25.2126,8.14516 c 13.8669,4.47984 25.2126,8.55914 25.2126,9.06512 0,1.89766 -13.0326,17.49234 -20.8611,24.96219 -22.1468,21.13228 -48.0287,34.78159 -77.3899,40.81308 -11.7261,2.40884 -36.707,3.38594 -48.5192,1.89779 z m 297.3713,-152.20035 c 42.1397,-84.29594 76.7681,-153.42757 76.9521,-153.62582 0.3255,-0.35083 102.4468,203.35844 102.4468,204.35853 0,0.27607 -12.9618,0.50194 -28.804,0.50194 h -28.804 l -22.3511,-45.02933 -22.3512,-45.02932 -48.1832,95.77932 -48.1833,95.77932 -28.6699,0.26535 -28.6699,0.26535 z m 160.9027,128.24233 c -6.8771,-13.74577 -12.5038,-25.22077 -12.5038,-25.5 0,-0.27923 12.7125,-0.50008 28.25,-0.49078 l 28.25,0.0169 12.75,24.86421 c 7.0125,13.67532 12.75,25.14271 12.75,25.48309 0,0.34038 -12.8233,0.61887 -28.4962,0.61887 h -28.4961 l -12.5039,-24.99231 z m 254.4962,-0.46238 v -25.45468 l 3.75,-0.58582 c 19.7905,-3.09163 31.2594,-13.85952 34.4252,-32.32093 1.0068,-5.87135 0.9329,-7.9104 -0.4969,-13.70431 -2.9249,-11.85242 -11.3636,-22.09711 -22.5032,-27.31915 l -5.6751,-2.66041 -51,-0.56365 -51,-0.56364 -9,-2.74526 c -31.3969,-9.57694 -54.805,-34.55817 -62.1407,-66.31692 -2.4354,-10.54337 -2.4354,-29.07769 0,-39.62106 6.8421,-29.62177 28.3002,-53.98476 57.0085,-64.7259 6.8009,-2.54454 19.3358,-4.96358 25.7202,-4.96358 h 4.912 v 25.37117 25.37118 l -5.0845,0.67448 c -9.4404,1.25231 -15.9313,4.42398 -22.503,10.99567 -4.4708,4.47074 -6.6764,7.66351 -8.3048,12.02151 -7.6741,20.53766 0.8794,41.76135 20.472,50.79688 4.8513,2.23732 5.628,2.27704 55.4203,2.83443 55.1388,0.61724 55.505,0.65406 71.6134,7.19947 23.5127,9.55407 44.6245,34.21559 51.5651,60.23522 3.0578,11.46339 3.0394,32.66521 -0.038,43.99999 -4.3346,15.9644 -12.0347,29.23315 -23.7818,40.98019 -8.7647,8.76469 -18.494,15.452 -28.4601,19.5617 -7.9019,3.25849 -24.2812,6.95811 -30.8055,6.95811 h -4.0929 v -25.45469 z m 257,24.88456 c -1.375,-0.2399 -5.875,-0.93176 -10,-1.53748 -24.414,-3.58495 -48.8528,-16.74073 -68.2468,-36.73839 -14.4225,-14.87134 -23.7201,-29.8787 -29.702,-47.94249 -5.8848,-17.7708 -5.9484,-18.94761 -6.6923,-123.9615 l -0.6819,-96.25001 h 26.1332 26.1331 l 0.2784,97.75001 0.2783,97.75 2.8078,8 c 9.1682,26.12254 30.9033,45.33524 57.1922,50.55502 9.288,1.84418 25.6903,1.38535 34.7867,-0.97311 30.2385,-7.84 54.8231,-36.41933 57.3834,-66.70752 l 0.6234,-7.37439 h 25.3532 25.3533 v 6.25 c -0.01,13.31474 -4.5664,32.96347 -10.9052,47.01266 -16.3185,36.16749 -52.3079,64.65773 -91.2771,72.25742 -7.9767,1.55561 -33.6136,2.81704 -38.8137,1.90978 z m 272.3416,-0.90934 c -19.8752,-3.60654 -35.1078,-12.05179 -49.6827,-27.54508 -16.402,-17.43535 -23.7965,-36.22755 -23.7965,-60.47544 0,-24.2479 7.3945,-43.0401 23.7965,-60.47545 12.6147,-13.40956 25.8859,-21.52491 42.8411,-26.19737 7.6087,-2.09679 10.471,-2.23206 58.5246,-2.7659 l 50.5245,-0.56128 6.5805,-3.24128 c 7.9257,-3.90391 14.9495,-11.05939 18.6903,-19.04065 2.3469,-5.00719 2.6801,-6.96129 2.6801,-15.71807 0,-9.12794 -0.2711,-10.56684 -3.1085,-16.5 -5.5759,-11.65966 -16.7253,-19.93667 -28.9052,-21.45844 l -5.4863,-0.68547 V 298.71357 273.138 l 8.25,0.63791 c 37.4545,2.89611 69.5134,31.19708 78.9067,69.65715 0.8475,3.46979 1.3101,11.03694 1.2532,20.5 -0.079,13.2331 -0.4044,16.03618 -2.7591,23.79659 -4.8997,16.14835 -12.3534,28.35095 -24.2893,39.76476 -11.3973,10.89868 -21.673,16.89356 -37.0649,21.62373 l -8.7966,2.70332 -50.5,0.60668 c -55.9746,0.67244 -54.6506,0.51701 -64.2444,7.5421 -16.6168,12.16771 -20.8803,35.12644 -9.7455,52.47855 1.757,2.73806 4.9807,6.39297 7.1638,8.12201 4.8496,3.84095 14.2057,7.80639 18.4943,7.83851 6.6569,0.0499 6.3318,-1.31726 6.3318,26.63073 v 25.39301 l -4.25,-0.0902 c -2.3375,-0.0496 -7.4713,-0.67479 -11.4084,-1.38922 z M 725.78347,426.93306 v -25.5 h 102 102 v 25.5 25.5 h -102 -102 z m 397.00003,0 v -25.5 h 64.2426 64.2427 l -25.4853,25.5 -25.4853,25.5 h -38.7573 -38.7574 z m -372.00003,-128.00001 -25.48529,-25.5 h 102.24264 102.24265 v 25.5 25.50001 h -76.75735 -76.75736 z"
       id="path230" />
  </g>
</svg>
